<?xml version="1.0" encoding="utf-8"?>
<!-- Generator: Adobe Illustrator 19.1.0, SVG Export Plug-In . SVG Version: 6.00 Build 0)  -->
<svg version="1.1" xmlns="http://www.w3.org/2000/svg" xmlns:xlink="http://www.w3.org/1999/xlink" x="0px" y="0px"
	 viewBox="0 0 1728 1332" style="enable-background:new 0 0 1728 1332;" xml:space="preserve">
<style type="text/css">
	.st0{fill:#41C0F2;}
	.st1{fill:#CECECE;}
	.st2{fill:#488C8A;}
	.st3{fill:#027396;}
	.st4{fill:#004B68;}
	.st5{fill:#558299;}
	.st6{fill:#427589;}
	.st7{fill:#59722F;}
	.st8{fill:#35490E;}
	.st9{fill:#9BAA3F;}
	.st10{fill:#789B56;}
	.st11{fill:#6D6D6D;}
	.st12{fill:#C1AF06;}
	.st13{fill:#BCBC0C;}
	.st14{fill:#AAA505;}
	.st15{fill:#9B9304;}
	.st16{fill:#8C8803;}
</style>
<g id="Sky">
	<path class="st0" d="M-119.9606,408.5943c662.9669-1.4999,1325.9337-2.9999,1988.9005-4.4998
		c2.4999-134.9933,4.9998-269.9865,7.4996-404.9797c-666.4667-1-1332.9333-1.9999-1999.4-2.9999
		C-121.9605,133.608-120.9605,271.1012-119.9606,408.5943z"/>
	<path class="st1" d="M280.4,233.3334c5.0635,7.6536,18.8181,0.9088,42,2c29.4886,1.3881,34.4409,13.5825,60,10.6666
		c14.7717-1.6852,13.3045-5.7798,27.3333-6.6666c25.1294-1.5886,31.3449,11.4539,50,8.6666c19.2241-2.8723,18.1395-17.5466,38-22
		c25.2684-5.666,41.0109,14.9514,52,6.6666c10.1675-7.6654,8.4326-34.1671-2.6666-40.6666
		c-11.9032-6.9703-26.1394,14.0051-48.0001,8c-13.3941-3.6794-14.064-13.2058-27.3333-14.6666
		c-14.1858-1.5616-16.9973,8.9324-32,9.3333c-20.3719,0.5444-25.4958-18.5295-42-16c-15.3258,2.3489-18.9959,20.036-32.6667,18.6667
		c-8.9067-0.8921-10.6348-8.729-18.6667-8c-9.3337,0.8472-9.2937,11.6387-21.3333,16.6666
		c-9.4445,3.9442-12.3605-1.489-27.3333,2.6666c-6.4568,1.7921-13.2486,3.7845-16.6667,10
		C278.9267,222.5579,277.5787,229.0688,280.4,233.3334z"/>
	<path class="st1" d="M869.0667,84c17.4705,1.5045,21.7922,9.5912,31.3334,6c12.9142-4.8608,11.7094-22.2031,22-24
		c11.374-1.9861,19.5582,18.0278,29.3333,15.3334c8.5253-2.35,6.1649-18.639,15.3333-22c10.6428-3.9014,19.7518,15.8743,34.6667,14
		c13.5543-1.7034,13.6388-18.9917,28.6666-22.6666c15.9866-3.9094,23.2196,13.8632,40.6666,10.6666
		c15.4408-2.829,15.9333-17.8774,33.3334-20c0.7184-0.0876,14.3396-1.5541,25.3334,6.6666c7.5452,5.6421,5.6764,9.7332,13.3333,16
		c11.1532,9.1284,20.9047,5.1838,24.6667,12c3.5793,6.4851-0.8795,17.9702-8,24.6667
		c-13.5078,12.7036-28.3633,0.434-52.6667,10.6666c-20.2555,8.5283-17.3401,20.1685-34.6666,24
		c-20.1315,4.4518-28.7988-10.2157-46.6666-3.3334c-13.024,5.0166-14.7314,15.2411-26,15.3334
		c-9.4595,0.0774-11.2355-7.103-22.6667-10c-10.436-2.6448-16.1414,1.5189-36,7.3334C915.921,152.0292,903.3483,155.7103,894.4,152
		c-16.9766-7.0393-13.5328-27.2236-30-32.6666c-16.2442-5.3694-30.2582,10.7476-38,4c-5.4515-4.7515-3.8459-17.4001,1.3333-25.3334
		C838.3083,81.802,864.8439,83.6364,869.0667,84z"/>
	<path class="st1" d="M1365.7334,128.6666c-13.4807-0.1587-16.1909-2.7919-28.6667-2c-8.9575,0.5686-14.3019,0.9077-19.3333,4.6667
		c-9.679,7.2313-13.0935,23.3038-8,28c4.4958,4.1453,12.2594-3.672,32.6666-3.3334c5.4537,0.0905,10.8818,0.2281,17.3334,2.6666
		c11.6179,4.3912,11.7931,10.6646,18.6666,12c12.7654,2.4802,18.5193-17.9215,35.3334-19.3333
		c10.6713-0.896,11.8324,7.0298,30,13.3333c5.4615,1.895,32.2672,11.1956,49.3333-2c1.4158-1.0947,13.4485-10.6898,11.3334-23.3333
		c-1.8235-10.9004-13.4458-19.7817-21.3334-18c-7.5739,1.7109-6.5426,12.0879-14.6666,14.6666c-6.8169,2.1638-10.7517-4.124-30-12
		c-9.7295-3.9811-14.5944-5.9717-20.6666-6c-10.0496-0.047-11.8699,4.3971-26.6667,8
		C1379.6842,128.7716,1370.1776,128.719,1365.7334,128.6666z"/>
	<path class="st1" d="M992.4,194.6666c5.9599-4.8041,9.7499-7.8591,14.6667-9.3333c21.8226-6.5427,38.3095,26.3113,59.3333,21.3333
		c14.8588-3.5182,15.285-21.9799,28.6666-22.6666c13.1207-0.6735,14.7936,16.9688,32.6667,23.3334
		c21.4281,7.6306,33.2982-12.6443,61.3333-6c3.0492,0.7227,23.451,5.5579,26.6667,18.6666c2.0726,8.4493-3.8071,17.0243-11.3334,28
		c-6.4447,9.3986-9.667,14.0978-14.6666,15.3334c-12.5433,3.0999-18.9968-15.6686-36-16c-14.5956-0.2845-17.8331,13.3893-30.6667,12
		c-15.6849-1.6979-17.6454-22.8585-32-24c-14.0708-1.1189-17.9717,18.7533-35.3333,20
		c-15.2736,1.0968-18.4237-13.84-36.6667-14.6667c-16.9003-0.766-20.5167,11.7665-36.6667,10.6667
		c-19.3875-1.3201-36.1844-20.8794-33.3333-28c1.8359-4.5851,10.3304-0.2961,22-7.3334
		C980.3928,210.376,980.2957,204.4236,992.4,194.6666z"/>
	<path class="st1" d="M459.0667,48c10.3836,5.729,9.4422,8.166,18,13.3334C495.8201,72.6571,506.4825,64.6627,525.7333,76
		c7.9272,4.6686,18.3658,13.2365,16.6667,18c-1.7741,4.9738-14.8124,0.2816-38.6667,5.3334c-15.6803,3.3207-18.4363,7.125-28.6667,6
		C463.46,104.0571,462.469,98.6614,450.4,96c-13.3691-2.9481-15.2715,2.9851-36,4c-19.5962,0.9595-22.6548-4.1101-40.6667-1.3334
		c-10.0584,1.5507-7.7348,2.9204-20.6667,5.3334c-13.9299,2.5991-25.4604,2.6582-41.3333,2.6666
		c-10.3706,0.0055-15.556,0.0083-18-0.6666c-3.2427-0.8955-10.199-3.2953-31.3333-25.3334c-12.0656-12.5814-12.6569-14.78-12-16
		c2.7443-5.0967,26.0288,9.1995,39.3333-0.6666c8.4699-6.281,4.978-16.4836,12.6667-20c9.6485-4.4127,17.4639,10.5948,34,10
		c15.9972-0.5754,18.9253-14.9891,32.6667-14C384.2082,41.09,387.21,59.0627,400.4,58.6666
		c12.6178-0.379,14.0143-16.9508,30-19.3333C440.6028,37.8127,450.1151,43.061,459.0667,48z"/>
	<path class="st1" d="M615.7333,174c13.1357-9.2334,13.5126-19.2545,22-20c8.4967-0.7463,10.2371,9.1108,20,10.6666
		c15.8981,2.5334,22.8633-21.76,39.3334-21.3333c16.5064,0.4276,21.4297,25.1372,38.6666,24c9.3173-0.6147,12.7346-8.1548,20.6667-6
		c8.7302,2.3716,7.5458,12.3083,16,16c11.969,5.2266,22.0493-11.3248,36.6667-7.3334c9.3787,2.5609,17.9821,12.8569,17.3333,23.3334
		c-0.5878,9.4932-8.6667,17.4264-16.6667,20c-9.8979,3.1842-14.1115-3.6262-32.6666-3.3334c-8.5222,0.1345-8.7972,1.5895-18,2
		c-14.2501,0.6357-24.2349-2.3781-31.3334-4c-10.7916-2.4657-25.861-1.866-56-0.6666c-32.0323,1.2748-38.435,3.917-52.6666-0.6667
		c-14.5581-4.6888-29.2416-14.3407-28-20.6666C592.077,180.8527,602.5844,183.2427,615.7333,174z"/>
</g>
<g id="Mountains">
	<path class="st2" d="M648.9,317.5c7.2612-4.7896,13.3959-6.1217,17.5-6.5c13.2021-1.2168,17.3041,6.3401,39.5,10
		c8.7369,1.4406,9.9341,0.5719,17,2.5c8.2938,2.2631,11.6888,4.8364,19,4.5c2.9478-0.1356,3.3477-0.5977,9-1
		c8.1735-0.5817,8.2933,0.3165,11.5-0.5c6.8718-1.7498,6.9899-6.0447,12.5-6.5c4.4847-0.3706,4.9672,2.4282,10.5,2.5
		c6.2167,0.0807,7.4586-3.4288,11.5-2.5c5.9081,1.3578,6.6111,9.6291,10.5,9.5c3.3504-0.1113,3.2946-6.2661,8.5-9
		c4.5327-2.3805,8.4516,0.2502,17,1.5c4.7254,0.6908,9.6503,0.2939,19.5-0.5c17.2169-1.3877,18.2167-3.874,28.5-3.5
		c10.8301,0.3938,9.9538,3.16,20,3.5c10.0286,0.3394,11.7089-2.3898,30.5-6c8.2516-1.5853,15.913-3.0173,26-3
		c11.2264,0.0193,17.4799,0.03,23.5,4c9.8678,6.5072,11.9674,18.9427,12.5,23.5c-118.3333,12.1667-236.6667,24.3333-355,36.5
		C641.9,356.8333,645.4,337.1667,648.9,317.5z"/>
	<path class="st2" d="M1201.7334,352c17.4314-3.2921,30.2267-8.5197,38.6666-12.6667c10.4535-5.1363,11.0221-7.0407,18.6666-9.3333
		c11.0375-3.3102,20.9142-2.6577,38.6667-1.3333c9.4169,0.7025,7.736,1.0077,19.3333,2
		c19.6526,1.6816,29.4789,2.5223,37.3334,0.6666c7.3038-1.7256,7.2048-3.1821,25.3334-9.3333
		c1.9381-0.6576,6.5565-2.2076,12.6666-4.6666c4.6584-1.8748,7.8157-3.3247,9.3334-4c11.9343-5.3103,24.2231-7.9889,27.3333-8.6667
		c14.1583-3.0861,21.2375-4.629,27.3334-2c8.4132,3.6285,7.2861,9.5443,15.3334,12c8.7008,2.6552,12.9498-3.366,23.3333-1.3333
		c6.4789,1.2684,7.6595,4.1676,14.6667,8c7.0396,3.8501,10.1976,3.303,40.6666,6.6666c18.2012,2.0093,23.5242,2.9166,30,4.6667
		c8.6921,2.349,14.4463,4.8612,17.3334,6c35.5432,14.0203,66.6335-10.4494,93.3333,7.3333c9.5725,6.3755,11.3903,13.3931,22.6667,16
		c13.6687,3.1599,21.395-4.7473,28-2.6667c9.1085,2.8692,16.1835,24.7638,6.6666,109.3334
		c-183.5555-8.4445-367.1111-16.8889-550.6666-25.3334C1199.0668,412.8889,1200.4,382.4445,1201.7334,352z"/>
	<path class="st3" d="M696.4,364.6667c39.992-30.9226,58.6301-36.9432,68-35.3334c1.9782,0.3399,9.4243,2.0303,18.6667,0
		c7.8185-1.7175,8.6251-4.275,15.3333-5.9999c13.3433-3.4312,25.8726,2.6449,28.6667,3.9999c12.925,6.2679,12.8021,13.7783,20,14
		c11.5212,0.355,14.332-18.81,26.6666-19.9999c11.634-1.1224,14.45,15.4143,33.3334,19.9999
		c2.0609,0.5005,16.187,3.7249,28.6666-3.3333c13.2795-7.5106,13.2706-20.203,28-25.3334c4.6282-1.6121,8.755-1.796,13.3334-2
		c7.4846-0.3335,13.4678,0.7036,24.6666,3.3334c19.1498,4.4969,16.538,4.9595,23.3333,6c15.5846,2.3864,30.5729,0.145,36-0.6666
		c7.0627-1.0562,12.0912-2.3762,20-1.3334c6.7803,0.894,11.71,3.0015,14,4c17.601,7.6748,32.1407,25.9262,35.3334,30
		c9.9681,12.7195,22.7993,31.038,35.3334,55.3333c-158.2222-0.4445-316.4445-0.8889-474.6667-1.3333
		C692.8445,392.2222,694.6223,378.4445,696.4,364.6667z"/>
	<path class="st4" d="M555.0667,315.3334c13.501-8.2843,24.3641-9.6996,32-9.3334c14.3118,0.6864,19.9318,7.7577,34.6666,5.3334
		c8.9726-1.4763,10.7632-4.7358,19.3334-4.6667c8.5819,0.0692,14.7111,3.4015,22,7.3334c24.127,13.0148,36.1905,19.5222,38,20
		c19.8943,5.2534,23.2493-6.9466,44.6666-1.3333c11.3987,2.9875,24.3052,10.075,32.6667,14.6666
		c11.8423,6.5031,16.2831,10.3213,22,8.6667c9.4213-2.7267,7.6741-16.0808,16.6667-19.3333
		C827.1809,333.0085,833.3434,348.472,852.4,350c11.1431,0.8934,12.9884-4.077,28.6667-4c11.1371,0.0547,15.2836,2.5878,24,4
		c26.0309,4.2176,52.0052-8.1738,74-18.6667c13.0579-6.2294,17.2853-9.8278,26-9.3333
		c12.7743,0.7249,15.4454,9.1239,31.3333,13.3333c11.2441,2.9791,20.4032,1.5535,34.6666-0.6666
		c24.0277-3.7399,23.1288-9.5435,36.6667-9.3333c15.7897,0.2452,17.1001,8.1412,45.3333,15.3333
		c12.1815,3.1031,22.3381,4.2827,26,4.6666c17.824,1.8691,23.9514-0.1993,43.3334,2.6667c7.0354,1.0403,8.4587,1.6427,14,2
		c11.7626,0.7585,18.6095-1.1007,27.3334-2c11.8256-1.219,15.4932,0.5223,30.6666,1.3333
		c7.9495,0.4249,14.0685,0.3273,19.2148-0.0107c17.1681-1.1278,27.3289-2.1759,33.4518-2.6559
		c11.4832-0.9002,28.1986,0.6996,50.3334,12.3333c22.783,0.3112,37.0569,3.5186,46,6.5c3.7009,1.2338,11.1011,3.9666,21,3.5
		c7.3253-0.3453,9.5847-2.1393,16.5-3c10.3357-1.2864,18.3715,1.0931,26.5,3.5c15.4698,4.5807,29.4794,12.9224,32.5,16.5
		c10.1666,12.0415-21.6783,67.8005-194.1666,251.3333c-269.7778,1.1111-539.5556,2.2222-809.3334,3.3334
		C542.6223,532.2222,548.8445,423.7778,555.0667,315.3334z"/>
	<path class="st5" d="M-32.2667,399.3333c34.7992,1.9715,57.7794-4.914,72.6667-12c9.1332-4.3472,25.2696-13.553,49.3333-17.3333
		c2.5228-0.3963,8.1263-0.9309,19.3333-2c19.5287-1.863,32.1586-2.7855,47.3333-4c29.2903-2.3443,43.9355-3.5165,45.3333-4
		c23.3817-8.0883,29.6039-22.6976,50.6667-22.6667c8.7946,0.0129,17.9999,2,17.9999,2c2.6888,0.985,6.953,2.438,12.3249,3.7802
		c5.6599,1.4141,7.7491,1.5057,14.3418,2.8865c14.1079,2.9547,12.6465,4.2325,16.6667,4c8.7844-0.5081,10.5662-6.3088,20-6.6667
		c4.1862-0.1588,5.3176,0.9272,10.6667,2c15.4186,3.0924,19.7706-3.1726,38.6667-2c8.6375,0.536,8.6874,1.9045,17.3333,2
		c9.6718,0.1068,16.6061-1.5286,22-2.6666c20.9701-4.4244,19.8328-1.5799,36.6667-5.3334
		c12.3945-2.7636,25.4756-3.7182,46.6667-15.9999c2.5993-1.5065,9.6671-5.787,20-8c0,0,8.1401-1.7433,16-1.3334
		c24.4929,1.2776,30.928,25.5513,54,28c14.994,1.5914,14.7429-8.3987,34-7.3333c10.4169,0.5763,13.803,3.6828,39.3334,10.6666
		c0,0,8.0236,2.1949,21.3333,5.3334c42.5587,10.0356,56.1826,0.7904,94,10c26.8383,6.5358,30.3796,13.7256,45.3333,10.6666
		c17.3361-3.5463,21.2655-14.9868,38.6667-16c12.0166-0.6996,13.025,4.5883,36,11.3334
		c10.6235,3.1189,30.2321,8.6998,52.6667,6.6666c20.1643-1.8274,18.3963-7.6113,36.6666-9.3333
		c26.7481-2.5211,49.7608,8.0638,62.6667,14c22.0359,10.1356,22.415,16.1057,35.3334,17.3333
		c16.1841,1.5379,22.5479-7.171,48-17.3333c26.0419-10.3978,48.1083-12.7513,60.6666-14c28.6039-2.8442,44.72-4.4467,63.3334,3.3333
		c18.9497,7.9205,24.7854,19.0023,42,18.6667c13.3538-0.2604,14.2687-7.0152,28.6666-8
		c20.3668-1.3931,24.2365,11.7333,45.3334,13.3333c13.816,1.0478,13.6321-4.4698,47.3333-12.6666
		c21.1343-5.1403,31.7015-7.7104,43.3334-6c20.8721,3.0692,20.8251,13.527,40.6666,16.6666c19.9207,3.1522,25.6074-6.4968,50.6667-6
		c17.948,0.3558,30.6536,5.6153,37.3333,8c22.8607,8.1616,75.8347,18.6011,199.3334,30.6667
		c7.1111,54.2222,14.2223,108.4445,21.3334,162.6667C1197.9556,568.4445,576.1778,554.2222-45.6,540
		C-41.1556,493.1111-36.7111,446.2222-32.2667,399.3333z"/>
	<path class="st6" d="M-39.1,414.5c113.2181-32.3626,168.0234-38.9025,197-38c2.2023,0.0686,21.5932,0.7202,49,1.5
		c37.7349,1.0737,56.6023,1.6105,66.5,1.5c10.4358-0.1165,43.1286-0.4814,74.5-3c15.3857-1.2352,26.8775-2.7013,42.5,0
		c4.0658,0.703,7.539,1.5375,13,1.5c14.4851-0.0994,24.013-6.2032,30.5-9c15.8621-6.8388,26.2322,0.6239,49.5,3
		c29.9384,3.0573,31.0335-7.4327,96-17c18.4862-2.7224,31.1151-4.5822,49-5c28.8693-0.6745,31.8959,3.3318,77,7
		c52.7613,4.291,57.5085-0.4682,77,8c13.0894,5.6868,19.83,11.6916,35,13c9.4927,0.8187,19.791-0.9431,40-4.5
		c16.3144-2.8715,19.3493-4.0381,25.5-5c26.0899-4.0801,48.4512,4.8737,65,11.5c42.4212,16.9861,43.6589,34.8199,65.5,32.5
		c28.2495-3.0006,43.9999-15.4999,43.9999-15.4999c2.2338-1.7726,5.1749-4.4045,10.0001-5.5001
		c10.9401-2.4839,16.0959,6.4423,28.5,9c11.7494,2.4227,15.0312-3.9556,38.5-9c10.6759-2.2947,20.0564-4.311,30.5-3.5
		c30.9354,2.4023,38.0114,27.0351,59.5,24c15.2261-2.1506,13.9724-14.8425,32.5-18.5c18.1598-3.5849,23.5894,7.774,44,4.5
		c16.6528-2.6712,16.98-10.8647,31.5-11.5c14.7562-0.6456,18.0408,7.6583,38,13c7.5569,2.0225,25.9232,5.8736,45.5,1
		c26.3387-6.5569,34.9879-23.9576,47-19c10.1696,4.1971,9.3041,18.8702,19.5,20.5c6.162,0.9849,8.7167-4.0167,20-7.5
		c0,0,8.7474-2.7005,23-2c25.5492,1.2557,54.3503,22.2765,80,34.5c13.6595,6.5095,34.1254,14.1936,62,17.5
		c4.3334,43.8333,8.6666,87.6667,13,131.5c-581.6666-5.1667-1163.3333-10.3333-1745-15.5C-56.1,511.8333-47.6,463.1667-39.1,414.5z"
		/>
</g>
<g id="background">
	<path class="st7" d="M21.4,491c37.3672,1.3549,68.9496-1.7845,94-6c27.0303-4.5486,30.7161-7.7015,56-11
		c35.1473-4.5852,40.7467-0.1522,93-2c51.0813-1.8063,47.8604-6.118,82-5c29.4429,0.9642,38.533,3.3229,64,1
		c24.3416-2.2203,30.86-6.1248,55-10c11.7195-1.8813,17.9897-2.2143,80-3c23.9346-0.3033,49.7421-0.5606,113-1
		c22.4523-0.1559,30.6991-0.1929,43,0c24.3306,0.3815,41.2877,1.2977,72,3c85.4153,4.7344,87.3665,5.0257,99,5
		c40.6152-0.0897,35.9885-3.6829,74-4c47.4205-0.3956,59.9777,5.1518,120,8c10.7665,0.5109,32.1777,0.674,75,1
		c107.7809,0.8207,118.3748-0.4803,159,2c35.561,2.1711,74.9999,6,74.9999,6c50.1429,4.868,63.8206,7.9339,92.0001,6
		c28.6956-1.9693,29.8644-6.2021,53-6c35.1534,0.3071,35.9904,10.1104,72,14c45.7394,4.9406,63.2141-8.8426,114,2
		c6.9059,1.4744,12.481,2.9885,16,4c2.6666,290.6667,5.3334,581.3334,8,872c-585-5.6666-1170-11.3334-1755-17
		c1.3333-285.3334,2.6667-570.6667,4-856C-6.6,493,7.4,492,21.4,491z"/>
	<path class="st8" d="M1093.3998,487.9996c2.2026,3.0873,5.7292,7.3013,11,11c5.0203,3.5229,10.0535,5.7296,31,9
		c19.3278,3.0177,29.214,3.9447,43.6445,8.3145c2.7526,0.8335,5.3553,1.6854,5.3553,1.6854
		c20.9402,6.8539,26.4647,11.7034,31.0001,9.0001c4.571-2.7246,2.4916-9.756,6-11c4.8192-1.7088,11.6119,10.5411,18,17
		c15.1287,15.2966,37.8442,8.0791,105,4c25.9694-1.5774,46.2964-1.9391,59-2c9.7209-0.0466,18.5488,0.0673,26.4567,0.2659
		c1.1624,0.0292,18.4817,0.4642,38.5433,1.7341c53.3633,3.3781,95.2963,6.0325,136.5535,12.5876
		c94.2737,14.9787,122.6494,40.4146,139.4465,23.4124c15.1304-15.3152,9.3358-53.3262-9-67c-14.0112-10.4488-26.5748,0.7205-72,2
		c-36.4779,1.0275-66.8353-4.9433-77-7c-28.0437-5.6743-33.3805-10.5021-58-13c-18.007-1.827-19.5566,0.3088-53,1
		c-29.8966,0.6179-52.931-0.5881-99-3c-28.2998-1.4816-22.8917-1.6704-34-2c-45.4917-1.3499-56.9714,4.1669-104,6
		c-6.5507,0.2554-33.1229-0.1596-86-1C1127.3734,488.6018,1106.8734,488.2424,1093.3998,487.9996z"/>
	<path class="st9" d="M-85.6,593c0.3301-6.0015,0.6635-12.0015,1-18c107.0555-27.4811,165.6027-45.6801,200-58
		c10.4292-3.7354,38.3722-13.9902,77-21c6.7853-1.2313,24.9237-4.3632,59-7c37.7888-2.924,55.3075-2.1541,96-3
		c86.4793-1.7977,85.2125-6.8936,127-4c45.4455,3.1469,38.9989,8.6238,84,11c41.2708,2.1792,54.6094-2.0093,114,0
		c33.3124,1.1271,29.0693,2.4432,55,3c44.4769,0.9549,62.5179-2.798,116-6c62.4166-3.7369,49.5523,0.7696,106-3
		c37.1064-2.478,67.0621-6.0562,111-2c11.9075,1.0992,13.562,1.7179,25.2012,2.5312c43.577,3.0449,75.8636-3.0451,89.7988-3.5312
		c70.0057-2.442,105.01-3.6222,122-3c76.6713,2.8077,128.0339,21.8904,167,33c64.3274,18.3403,160.9252,33.7845,298,17
		c-4,134.3333-8,268.6667-12,403c-617.3334,7.6666-1234.6667,15.3334-1852,23C-97.6037,835.5963-92.2705,714.2629-85.6,593z"/>
	<path class="st8" d="M127.4,523.3909c15.6874-5.9655,27.7532-6.7025,36-6.2133c5.1059,0.3027,12.3396,1.2886,22-1.2427
		c3.8136-0.9993,8.9578-2.3472,15-6.2133c7.5202-4.8119,7.7517-7.9707,12-8.6987c6.3847-1.094,7.7346,5.7199,18,9.9413
		c9.76,4.0136,18.8775,2.1055,23,1.2426c6.8622-1.4361,6.0929-2.9788,11-3.728c10.579-1.6151,19.8801,4.6807,31,12.4266
		c11.3745,7.9233,13.8501,12.3855,19,11.184c6.5289-1.5232,6.2679-9.5624,13-14.9119c10.1907-8.0979,19.6428,3.2878,47,7.456
		c17.4355,2.6565,29.1716,0.4049,30,4.9706c0.7556,4.1642-8.1117,10.976-10,12.4266c-6.6413,5.1018-10.8703,5.1219-11,7.456
		c-0.2135,3.8426,11.0128,8.0383,18,9.9413c6.0862,1.6577,13.1888,2.7285,24,2.4854c18.3852-0.4135,26.0182-4.1438,27-1.2427
		c1.1754,3.4733-7.9562,14.1675-19,18.64c-7.8014,3.1594-13.1593,1.8381-14,4.9707c-1.5284,5.6953,15.0743,14.1923,14,19.8826
		c-1.2946,6.8568-27.3008,4.5745-41,3.728c-3.0243-0.1869-32.0162,1.118-90,3.728c-43.3193,1.9499-81.0896,5.2377-92,6.2134
		c-17.9664,1.6066-32.9796,3.1924-59,4.9706c-23.2941,1.5919-34.2698,1.8932-44,2.4853c-43.699,2.6591-64.1653,11.2959-103,18.64
		c-31.108,5.8828-109.1287,17.579-112,4.9706C-109.8229,639.1388-68.1351,609.8447,127.4,523.3909z"/>
	<path class="st10" d="M870.3982,573c-71.7609,8.0027-131.6508,11.2507-176.2255,12.6178
		c-43.5906,1.337-82.0128,1.1662-107.8085,1.0515c-58.2504-0.259-100.4825-1.7241-112.9917-2.103
		c-131.6641-3.9872-293.0593,11.7574-377.33,19.9782c-61.2683,5.9769-142.1621,15.121-237.3862,29.4416
		c-2.4188,39.6059-4.8376,79.2118-7.2563,118.8177c6.2197,93.2317,12.4395,186.4633,18.6592,279.695
		C152.02,898.6098,433.9809,764.7207,715.9417,630.8317C767.4272,611.5544,818.9127,592.2772,870.3982,573z"/>
	<path class="st10" d="M905.4,569.7316c59.7684,4.0598,110.7343,4.9677,150,4.8062c80.7032-0.3319,134.8052-0.5543,207-12.0156
		c48.5214-7.7029,54.4232-12.4191,90-14.4188c55.0524-3.0944,76.9623,6.1726,141,12.0156c50.0464,4.5665,85.2898,3.3433,147,1.2016
		c45.5649-1.5814,99.8562-5.2947,161-13.2172c-8.3334,151.7975-16.6666,303.5952-25,455.3928
		c-162.4042-85.5714-291.3816-151.0192-381-195.8549c-206.97-103.5463-213.7911-102.0471-286-140.583
		c-21.6163-11.5361-116.187-62.4665-148-70.8923c-3.514-0.9307-20.5578-5.129-41-16.8219
		C913.6053,575.4575,908.3486,571.8375,905.4,569.7316z"/>
</g>
<g id="road">
	<path class="st11" d="M1728.4813,903.5695c-516.5929-211.8956-670.5038-275.7236-695.5038-286.7363
		c-0.0001-0.0001-39.5759-17.4334-81.3635-30.6666c-11.8483-3.7521-15.4656-4.6667-15.4656-4.6667
		c-4.986-1.2606-7.4894-1.6573-12.1038-3.3333c-3.3429-1.2142-3.137-1.4084-9.4139-4c-6.9266-2.8599-7.6548-2.8205-11.4313-4.6667
		c-4.0988-2.0037-6.3557-3.1071-8.7415-5.3333c-0.7106-0.6631-3.7213-3.5614-6.0518-9.3334
		c-2.338-5.7906-1.5357-8.3915-2.6897-22.6666c-0.363-4.4905-0.7315-7.8093-1.3448-13.3334c-1.7307-15.5879-1.943-12.4246-2.0173-16
		c-0.0728-3.5026,0.1456-5.8308-1.3449-8.6666c-0.533-1.0139-2.1268-3.6957-5.3794-5.3334c-5.3216-2.6794-10.6755-0.3443-11.4312,0
		c-0.4629,2.4096-1.0641,6.1096-1.3449,10.6667c-0.3677,5.9678,0.0977,8.8017,0,13.3333
		c-0.0378,1.7529-0.1573,3.6423-2.6897,16.6667c-3.5833,18.4299-4.6963,21.6012-6.0518,24.6667
		c-2.5909,5.8592-5.3478,9.7025-6.0518,10.6666c-4.2122,5.7682-8.805,9.6238-12.1036,12
		c-9.8613,3.2715-24.8679,8.3112-43.0353,14.6667c-196.9653,68.9048-330.9542,138.8119-429.0074,187.3333
		C276.9925,821.8463,150.9635,881.2924-9.8195,947.0673c-0.5043,133.9933-1.0086,267.9866-1.5129,401.9799
		c580.4421,0,1160.8844,0,1741.3265,0C1729.4897,1200.5547,1728.9856,1052.0621,1728.4813,903.5695z"/>
</g>
<g id="yellow_lines">
	<path class="st12" d="M867.4,757.3329c5-0.1111,10-0.2222,15-0.3333c2.863,16.5249,5.7259,33.0497,8.5889,49.5746
		c-9.7518-0.0804-19.5037-0.1609-29.2556-0.2413C863.6223,789.9996,865.5111,773.6662,867.4,757.3329z"/>
	<path class="st13" d="M870.7335,684.9997c2.7778,0,5.5556,0,8.3334,0c1,4.8889,2,9.7778,3,14.6667c-5,0-10,0-15,0
		C868.2891,694.7775,869.5112,689.8886,870.7335,684.9997z"/>
	<path class="st14" d="M870.82,655.4638c2.5833,0,5.1667,0,7.75,0c-0.4167-2.75-0.8333-5.5-1.25-8.25c-1.9167,0-3.8333,0-5.75,0
		C871.32,649.9638,871.07,652.7138,870.82,655.4638z"/>
	<path class="st15" d="M868.3199,627.4659c1.5833-0.0833,3.1667-0.1667,4.75-0.25c-0.3333-1.8333-0.6667-3.6667-1-5.5
		c-1.0833,0.0833-2.1667,0.1667-3.25,0.25C868.6532,623.7992,868.4866,625.6326,868.3199,627.4659z"/>
	<path class="st15" d="M867.3199,613.4659c1.6667,0,3.3333,0,5,0c-0.3333-1.3333-0.6667-2.6667-1-4
		c-1.1667-0.0833-2.3333-0.1667-3.5-0.25C867.6532,610.6326,867.4866,612.0492,867.3199,613.4659z"/>
	<path class="st16" d="M866.6949,603.2159c1.0833,0,2.1667,0,3.25,0c-0.0833-0.625-0.1667-1.25-0.25-1.875
		c-0.9583-0.0417-1.9167-0.0833-2.875-0.125C866.7782,601.8826,866.7366,602.5492,866.6949,603.2159z"/>
	<path class="st16" d="M867.3199,596.7159c0.9583,0.0417,1.9167,0.0833,2.875,0.125c-0.125-0.5-0.25-1-0.375-1.5
		c-0.6667,0-1.3333,0-2,0C867.6532,595.7992,867.4866,596.2576,867.3199,596.7159z"/>
	<path class="st16" d="M867.5699,592.8409c0.75,0,1.5,0,2.25,0c0.0417-0.5417,0.0833-1.0833,0.125-1.625c-0.7083,0-1.4167,0-2.125,0
		C867.7366,591.7576,867.6532,592.2992,867.5699,592.8409z"/>
	<path class="st12" d="M868.8702,960.2881c10.2691-0.2665,20.5383-0.5332,30.8074-0.7997
		c5.8801,39.6514,11.7599,79.3027,17.64,118.9542c-20.0286-0.193-40.0573-0.3861-60.0859-0.5791
		C861.1113,1038.6718,864.9907,999.4799,868.8702,960.2881z"/>
</g>
</svg>
