<?xml version="1.0" encoding="utf-8"?>
<!-- Generator: Adobe Illustrator 19.1.0, SVG Export Plug-In . SVG Version: 6.00 Build 0)  -->
<svg version="1.1" xmlns="http://www.w3.org/2000/svg" xmlns:xlink="http://www.w3.org/1999/xlink" x="0px" y="0px"
	 viewBox="0 0 360 360" style="enable-background:new 0 0 360 360;" xml:space="preserve">
<style type="text/css">
	.st0{fill:#FFFFFF;}
	.st1{display:none;}
	.st2{display:inline;fill:#ED1F24;}
	.st3{fill:#ED1F24;}
	.st4{display:none;fill:#ED1F24;}
	.st5{display:inline;}
	.st6{fill:#898989;}
</style>
<g id="No_Lights_Crossing">
	<g id="Layer_1">
		<g>
			<g>
				<g>
					<path class="st0" d="M373.5122,83.6625c-27.5685,0-55.137,0-82.7055,0c0-27.5685,0-55.137,0-82.7055
						c27.5685,0,55.137,0,82.7055,0C373.5122,28.5255,373.5122,56.094,373.5122,83.6625z M353.7378,40.4929
						c-5.1896-4.8563-10.331-9.6675-15.5121-14.5158c5.1957-4.6249,10.3344-9.1989,15.5144-13.8099
						c-1.8749-1.8111-3.6663-3.5415-5.4985-5.3114c-5.12,4.5532-10.344,9.1989-15.6147,13.8862
						c-5.2148-4.8756-10.3983-9.7219-15.604-14.589c-1.8267,1.7654-3.6349,3.5129-5.4971,5.3126
						c5.1368,4.8058,10.2234,9.5646,15.3669,14.3766c-5.3761,4.7847-10.7289,9.5488-16.1314,14.3571
						c1.8649,1.7894,3.6742,3.5254,5.5184,5.295c5.33-4.7397,10.7582-9.5667,16.2108-14.4154
						c5.2704,4.9273,10.4908,9.8078,15.7547,14.729C350.0874,44.0252,351.8908,42.2801,353.7378,40.4929z M332.063,78.9205
						c3.8979,0,7.7958-0.0099,11.6937,0.0037c2.3783,0.0083,4.3466-1.9454,4.2634-4.2305
						c-0.0899-2.4679-0.1098-4.9459,0.0064-7.4117c0.1036-2.1976-1.588-4.3627-4.291-4.3765
						c-7.7701-0.0395-15.5406-0.033-23.3109-0.003c-2.5577,0.0099-4.3018,1.8293-4.3114,4.3624
						c-0.0093,2.4457-0.0114,4.8915,0.0007,7.3372c0.0125,2.5371,1.8025,4.3152,4.3319,4.3175
						C324.3181,78.9231,328.1905,78.9205,332.063,78.9205z M324.8058,50.8655c0.7001,2.5585,0.7965,4.9849-0.1312,7.5045
						c1.5119,0,2.8976,0,4.2935,0c0.0294,0.4286,0.0515,0.7521,0.0756,1.104c2.2818,0,4.5315,0,6.7984,0
						c0.0347-0.3891,0.0649-0.7284,0.101-1.1334c1.4043,0,2.7444,0,4.2056,0c-0.9125-2.5031-0.8069-4.9449-0.1107-7.4927
						c-1.4417,0-2.7745,0-4.1236,0c-0.0243-0.5179-0.044-0.9374-0.064-1.3637c-2.3176,0-4.5468,0-6.8025,0
						c-0.0289,0.4648-0.0551,0.8857-0.0859,1.3814C327.6033,50.8655,326.2884,50.8655,324.8058,50.8655z M324.4852,54.6471
						c-0.0281-0.4563-0.0179-0.9191-0.0949-1.367c-0.081-0.4713-0.212-0.9406-0.3784-1.3896
						c-1.4323-3.8653-5.3094-6.0085-9.6952-5.373c-4.969,0.72-8.2374,5.8806-6.6636,10.5491
						c1.1505,3.4129,4.6315,5.9878,9.0346,5.6824C320.9379,62.4542,324.4165,58.9002,324.4852,54.6471z M349.2108,62.7867
						c0.42-0.0541,1.1084-0.0965,1.7766-0.236c5.1693-1.0793,8.0141-6.5903,5.8518-11.3093
						c-1.6276-3.5521-5.9106-5.5753-9.8303-4.6437c-3.8359,0.9116-6.5801,4.0516-6.6669,7.6283
						C340.2264,58.988,344.0255,62.7668,349.2108,62.7867z M334.8595,48.1092c0.0531-0.1601,0.0967-0.2302,0.0968-0.3003
						c0.0059-4.0729,0.0101-8.1458,0.0038-12.2187c-0.0002-0.1615-0.0564-0.3771-0.1678-0.4754
						c-0.7748-0.6842-1.5711-1.344-2.3903-2.0368c-0.8662,0.724-1.7076,1.3804-2.4854,2.1052
						c-0.2394,0.2231-0.4264,0.6313-0.4305,0.9573c-0.0291,2.3668-0.0058,4.7342,0.0019,7.1015
						c0.0045,1.3745-0.0106,2.7497,0.0358,4.1228c0.0085,0.2525,0.2627,0.7072,0.4147,0.712
						C331.584,48.1287,333.2318,48.1092,334.8595,48.1092z M332.4258,18.9918c0.3782-0.3233,0.6637-0.6232,1.0005-0.8451
						c1.2253-0.8074,1.8453-1.8644,1.5493-3.3744c-0.1207-0.6154,0.0051-1.3315-0.2661-1.8538
						c-0.5405-1.0407-1.6509-0.9574-2.6361-0.9384c-0.8896,0.0171-1.997,0.0351-2.2602,1.0269
						c-0.284,1.0702-0.1579,2.2506-0.1905,3.3835c-0.0027,0.0944,0.1375,0.205,0.2293,0.2881
						C330.699,17.4444,331.55,18.2057,332.4258,18.9918z M334.9242,83.4013c0-1.2739,0-2.3803,0-3.4964c-1.8004,0-3.5563,0-5.3017,0
						c0,1.1935,0,2.3247,0,3.4964C331.4165,83.4013,333.152,83.4013,334.9242,83.4013z M334.9228,60.4252c-1.8,0-3.5541,0-5.2973,0
						c0,0.5913,0,1.109,0,1.6324c1.8,0,3.5382,0,5.2973,0C334.9228,61.4909,334.9228,60.9717,334.9228,60.4252z"/>
					<path d="M353.7378,40.4929c-1.847,1.7873-3.6504,3.5323-5.4926,5.3151c-5.2639-4.9212-10.4843-9.8018-15.7547-14.729
						c-5.4526,4.8487-10.8808,9.6757-16.2108,14.4154c-1.8442-1.7696-3.6534-3.5056-5.5184-5.295
						c5.4025-4.8083,10.7553-9.5723,16.1314-14.3571c-5.1435-4.8121-10.2301-9.5709-15.3669-14.3766
						c1.8622-1.7997,3.6704-3.5473,5.4971-5.3126c5.2057,4.8672,10.3892,9.7134,15.604,14.589
						c5.2707-4.6873,10.4947-9.333,15.6147-13.8862c1.8322,1.7699,3.6236,3.5002,5.4985,5.3114
						c-5.1801,4.6109-10.3187,9.185-15.5144,13.8099C343.4068,30.8254,348.5481,35.6366,353.7378,40.4929z M343.5463,17.535
						c-1.0248-0.3427-1.8323-0.6284-2.6513-0.8762c-0.2187-0.0662-0.5479-0.1159-0.6966-0.0026
						c-0.5576,0.4245-1.0615,0.9196-1.6413,1.4381c0.9786,0.9275,1.8974,1.7984,2.8417,2.6935
						c0.2922-0.2566,0.6288-0.5522,1.0619-0.9326c-0.6611-0.6783-1.2607-1.2935-1.8596-1.9081
						c0.7738,0.27,1.5557,0.5591,2.3499,0.8092c0.2199,0.0693,0.5557,0.1247,0.7021,0.011c0.5723-0.4441,1.09-0.9585,1.6016-1.4229
						c-0.959-0.9569-1.8517-1.8476-2.7695-2.7634c-0.3181,0.2932-0.6451,0.5946-1.0441,0.9624
						C342.1343,16.1993,342.7578,16.7891,343.5463,17.535z M316.392,12.269c1.2076,0.8861,1.2413,0.9968,0.5514,1.8441
						c0.3463,0.3121,0.6943,0.6256,1.175,1.0588c0.2872-0.5406,0.5224-0.9832,0.7932-1.4929
						c0.5244,0.1256,1.0291-0.196,1.3273-0.7824c0.325-0.6392-0.089-1.1232-0.5108-1.5374
						c-0.7394-0.7262-1.5091-1.4215-2.3043-2.1656c-0.8874,0.9647-1.7561,1.9091-2.65,2.8808
						c0.2196,0.2005,0.5642,0.5149,0.9218,0.8412C315.9526,12.6769,316.1552,12.4888,316.392,12.269z M347.7197,13.2524
						c0.0834,0.0427,0.1669,0.0853,0.2504,0.128c-0.124,0.2448-0.1908,0.5599-0.3853,0.7179
						c-0.2918,0.237-0.8205,0.598-0.9882,0.4925c-0.4637-0.2917-0.9865-0.753-1.0979-1.2366
						c-0.0613-0.2661,0.6217-0.764,1.0369-1.0635c0.4541-0.3276,0.9863-0.547,1.5328-0.8393
						c-0.6132-0.6611-1.1341-0.6353-1.6519-0.2867c-0.3984,0.2682-0.7739,0.5748-1.137,0.8903
						c-1.6568,1.44-1.6449,2.1405,0.0305,3.5687c0.4585,0.3909,1.0085,0.5171,1.4691,0.1781
						c0.8291-0.6102,1.606-1.3004,2.3478-2.0161c0.3667-0.3538,0.3224-0.8393-0.0114-1.2475
						c-0.2364-0.289-0.4933-0.5613-0.7926-0.8993c-0.6296,0.5644-1.2097,1.0844-1.8269,1.6376
						c0.18,0.199,0.3394,0.3752,0.4999,0.5525C347.2867,13.5975,347.5032,13.425,347.7197,13.2524z M319.1669,35.3104
						c1.0012,0.9582,1.9124,1.8303,2.8382,2.7163c0.1154-0.0938,0.2875-0.2451,0.4715-0.3802
						c0.1825-0.134,0.377-0.2517,0.5803-0.3858c-0.3222-0.3604-0.5185-0.58-0.7103-0.7946
						c1.0162-1.1248,1.0162-1.1248,1.9124-0.4292c0.3266-0.2945,0.6602-0.5952,1.144-1.0313
						c-0.5647-0.3106-1.0261-0.5643-1.5518-0.8534c0.0588-0.5318-0.1308-0.9139-0.71-1.2589
						c-0.5294-0.3153-0.9946-0.1266-1.4007,0.2075C320.8811,33.808,320.0497,34.549,319.1669,35.3104z M326.3453,33.8864
						c0.5315-0.3739,1.2405-0.7689,1.8224-1.3025c1.4554-1.3347,1.432-1.8634,0.0096-3.2109
						c-0.6319-0.5986-1.2014-0.7129-1.9233-0.2293c-0.6074,0.4069-1.1608,0.9086-1.6829,1.4242
						c-0.4393,0.4339-0.8633,0.9893-0.4556,1.6201C324.5913,32.9246,325.1356,33.6517,326.3453,33.8864z M336.3878,21.9008
						c-0.667-0.714-1.2058-0.7068-1.7013-0.3212c-0.6204,0.4827-1.2138,1.0084-1.7662,1.5676
						c-0.4357,0.441-0.5528,0.9545-0.0623,1.4865c0.478,0.5185,0.9904,0.5893,1.5538,0.1862
						c0.4754-0.3402,0.9211-0.7222,1.3991-1.0584c0.1131-0.0796,0.303-0.05,0.4576-0.0706
						c-0.0126,0.1781,0.0441,0.4231-0.051,0.5213c-0.2614,0.2702-0.6054,0.6947-0.8825,0.6702
						c-0.7392-0.0652-0.9435,0.5083-1.3879,0.8197c0.6402,0.5554,1.0042,0.6737,1.52,0.2783
						c0.7216-0.5532,1.3929-1.1836,2.0216-1.8421c0.3855-0.4038,0.4051-0.904-0.0141-1.3705
						c-0.4457-0.4961-0.942-0.5908-1.489-0.2236c-0.4635,0.3111-0.8843,0.6858-1.3482,0.9962
						c-0.1818,0.1216-0.4294,0.1449-0.6471,0.213c-0.0486-0.0928-0.0973-0.1856-0.1459-0.2784
						c0.3555-0.2954,0.6845-0.6337,1.0738-0.8745C335.3461,22.3359,335.8294,22.161,336.3878,21.9008z M332.1637,25.6404
						c-0.627-0.6646-1.1721-0.6993-1.6624-0.3247c-0.6638,0.5072-1.2887,1.076-1.87,1.6767
						c-0.3951,0.4082-0.4131,0.9179-0.008,1.3778c0.4027,0.4571,0.8889,0.5939,1.4275,0.2801
						c0.3493-0.2034,0.6497-0.4891,0.9905-0.7094c0.3052-0.1973,0.6333-0.3602,0.9602-0.52
						c0.0202-0.0099,0.1817,0.1942,0.1709,0.2067c-0.2766,0.3205-0.5643,0.6318-0.859,0.9361
						c-0.0475,0.049-0.1389,0.0535-0.2072,0.0847c-0.4701,0.2151-0.9395,0.4319-1.4775,0.6797
						c0.5612,0.6729,1.1145,0.7726,1.6106,0.3978c0.7249-0.5476,1.4002-1.1734,2.0308-1.8292
						c0.4109-0.4273,0.4373-0.9292-0.0429-1.4153c-0.4744-0.4802-0.9432-0.5569-1.4876-0.169
						c-0.3522,0.2509-0.6844,0.5332-1.0521,0.7579c-0.2728,0.1666-0.5883,0.2633-0.8847,0.3911
						c0.1919-0.309,0.3725-0.626,0.5822-0.9223c0.0654-0.0924,0.2066-0.1352,0.3184-0.1901
						C331.1591,26.1251,331.6168,25.9053,332.1637,25.6404z M338.4912,31.9947c0.607,0.1858,1.0444-0.3211,1.3572-0.8775
						c0.3199-0.5691-0.0874-1.0197-0.4785-1.4001c-0.6527-0.6349-1.3251-1.2496-2.0804-1.9584
						c-0.8978,0.9916-1.7581,1.9417-2.6324,2.9073c0.2187,0.2011,0.515,0.4736,0.8099,0.7447
						c0.2974-0.2303,0.5515-0.427,0.7969-0.6171c1.0179,0.8731,1.0179,0.8731,0.3842,1.7238
						c0.2968,0.2817,0.5989,0.5686,1.0274,0.9753C337.9726,32.9471,338.2147,32.5025,338.4912,31.9947z M345.4342,40.762
						c0.4463,0.4195,0.9442,0.8854,1.4397,1.3539c1.4778,1.3973,1.9796,1.3859,3.3802-0.0797
						c0.0525-0.0549,0.1064-0.1086,0.156-0.166c0.4636-0.537,0.5009-1.1245,0.0519-1.6531c-0.7008-0.8249-1.4601-1.6-2.2431-2.4488
						C347.1949,38.8692,346.335,39.7936,345.4342,40.762z M322.3517,19.1598c0.3448-0.8285,0.6484-1.5537,0.9486-2.2804
						c0.6986-1.691,0.7004-1.6942-0.7175-2.8535c-0.1184-0.0968-0.3327-0.2022-0.4471-0.1586
						c-1.2605,0.481-2.5101,0.9907-3.9554,1.5699c0.5936,0.3837,1.0172,0.8833,1.4521,0.8933
						c1.0094,0.0232,1.9042,0.8954,1.6381,1.859C321.5988,18.484,321.936,18.7866,322.3517,19.1598z M343.4184,34.2805
						c-0.0273-0.2112-0.0084-0.3559-0.0651-0.4592c-0.5545-1.0102-1.3173-1.8309-2.4228-2.2019
						c-0.9104-0.3055-1.3422,0.5197-1.9059,0.9943c-0.0775,0.0652-0.1459,0.1417-0.2145,0.2166
						c-0.4401,0.4799-0.4991,1.0464-0.1159,1.5299c0.4524,0.5707,0.9906,1.0871,1.5534,1.5523
						c0.4412,0.3647,1.0248,0.5835,1.552,0.205C342.487,35.6239,343.2288,35.1369,343.4184,34.2805z M319.8657,37.7938
						c-0.3146,0.4211-0.7298,0.7648-0.846,1.1901c-0.125,0.4577-0.6196,1.334-0.9767,1.1648
						c-0.4875-0.231-0.9504-0.6748-1.2024-1.1458c-0.0772-0.1444,0.6118-1.0044,0.8818-0.9718
						c0.8255,0.0995,1.0362-0.5444,1.5157-0.8699c-0.6639-0.699-1.0239-0.771-1.731-0.2991c-0.3776,0.2519-0.7273,0.553-1.06,0.8636
						c-1.4908,1.3917-1.4681,2.0475,0.0948,3.3646c0.0388,0.0327,0.0809,0.0613,0.1205,0.0931
						c0.4643,0.3721,1.0146,0.4767,1.4814,0.1402c0.7336-0.5289,1.4511-1.1081,2.0622-1.7706
						C320.7307,38.9839,320.602,38.4855,319.8657,37.7938z M341.4397,36.999c0.5301,0.3623,0.6386,1.0516,1.524,0.8083
						c0.3111-0.0855,0.8678,0.7227,1.3123,1.1228c-0.4834,0.8514,0.4066,0.9485,0.7495,1.4767
						c0.6092-1.3116,1.1715-2.5224,1.7448-3.7567c-0.4069-0.3864-0.7789-0.7688-1.1859-1.1093
						c-0.1305-0.1091-0.3924-0.1995-0.5282-0.1422C343.8761,35.8967,342.711,36.4304,341.4397,36.999z M327.2762,18.5371
						c-0.9178,0.9577-1.7905,1.8684-2.7036,2.8214c0.8721,0.808,1.7589,1.6295,2.6958,2.4976
						c0.2542-0.2354,0.4512-0.4177,0.6952-0.6435c-0.6077-0.5651-1.1261-1.0471-1.8073-1.6805
						c0.7443-0.6639,1.4751-1.3158,2.2361-1.9947C328.0082,19.1931,327.6892,18.9073,327.2762,18.5371z M336.484,19.9374
						c0.9432,0.9277,1.8524,1.8219,2.7979,2.7517c0.2948-0.2719,0.6189-0.5709,0.9783-0.9023
						c-0.9868-0.9288-1.9049-1.7931-2.8459-2.6788C337.149,19.3445,336.8128,19.6442,336.484,19.9374z M323.8844,20.6187
						c0.8982-0.9572,1.7578-1.8732,2.6631-2.8378c-0.2434-0.2288-0.5832-0.5481-0.97-0.9117
						c-0.9025,0.9607-1.7631,1.8768-2.66,2.8316C323.2059,19.9746,323.5295,20.2817,323.8844,20.6187z"/>
					<path d="M332.063,78.9205c-3.8724,0-7.7448,0.0026-11.6173-0.0009c-2.5294-0.0023-4.3194-1.7805-4.3319-4.3175
						c-0.0121-2.4457-0.01-4.8915-0.0007-7.3372c0.0096-2.5331,1.7538-4.3525,4.3114-4.3624
						c7.7702-0.03,15.5407-0.0365,23.3109,0.003c2.703,0.0137,4.3947,2.1788,4.291,4.3765
						c-0.1162,2.4657-0.0963,4.9437-0.0064,7.4117c0.0833,2.2851-1.8851,4.2388-4.2634,4.2305
						C339.8588,78.9106,335.9608,78.9205,332.063,78.9205z M332.1454,70.8506c0.03,0.0015,0.0599,0.003,0.0899,0.0045
						c0,0.8655-0.0432,1.7336,0.0091,2.5959c0.1052,1.7337,0.9625,2.6371,2.614,2.8398c2.1794,0.2675,3.6232-0.6281,3.7586-2.5557
						c0.1351-1.9224,0.0969-3.8646,0.0102-5.7925c-0.0596-1.3251-0.8546-2.2663-1.9299-2.444
						c-0.6902-0.1141-1.4146-0.1115-2.1151-0.0544c-1.2525,0.102-2.0147,0.8567-2.1939,2.0686
						C332.2257,68.6133,332.2202,69.7371,332.1454,70.8506z M324.9099,68.7974c-0.0668-0.6432-0.0797-1.2498-0.2021-1.8333
						c-0.183-0.8724-0.6937-1.4846-1.6458-1.5354c-0.7309-0.039-1.4726-0.0601-2.1976,0.0192
						c-1.0562,0.1154-1.6168,0.5891-1.7293,1.6152c-0.1151,1.0496-0.1122,2.1288-0.0095,3.1802
						c0.0824,0.844,0.6156,1.4258,1.5432,1.5275c0.6302,0.0691,1.261,0.1491,1.8826,0.2703
						c0.1864,0.0363,0.432,0.1916,0.4977,0.3542c0.3598,0.8903-0.0712,1.4483-1.0211,1.514
						c-0.8957,0.0619-1.2567-0.3609-1.2742-1.1731c-0.6146,0-1.1845,0-1.7469,0c-0.2515,2.6387,0.6314,3.6172,3.1656,3.5674
						c0.2523-0.005,0.5062-0.0407,0.7549-0.0864c1.4048-0.2582,1.9797-0.8637,2.0946-2.2871
						c0.053-0.6571,0.0471-1.3243,0.0046-1.9828c-0.0979-1.5165-0.5656-1.9983-2.079-2.2182
						c-0.3768-0.0548-0.7549-0.1225-1.1339-0.1343c-0.6777-0.0211-0.9372-0.3477-0.9164-1.0166
						c0.0204-0.653,0.3879-0.7702,0.9381-0.8313c0.8131-0.0904,1.1959,0.2424,1.1971,1.0508
						C323.6524,68.7974,324.2261,68.7974,324.9099,68.7974z M341.9444,73.4385c0.7247,0,1.3065,0.0095,1.888-0.002
						c1.1101-0.022,1.8485-0.4782,1.9391-1.5438c0.1324-1.5566,0.1041-3.1379-0.0004-4.699c-0.0544-0.8125-0.5856-1.58-1.4619-1.651
						c-1.4034-0.1137-2.8228-0.0305-4.2278-0.0305c0,3.5787,0,7.1056,0,10.6403c0.6286,0,1.2051,0,1.863,0
						C341.9444,75.2587,341.9444,74.4009,341.9444,73.4385z M327.6614,67.9441c0,2.8188,0,5.5065,0,8.2163
						c0.6517,0,1.2301,0,1.9168,0c0-2.7368,0-5.4452,0-8.2429c0.6761,0,1.2475,0,1.8197,0c0-0.8669,0-1.6406,0-2.4219
						c-1.8775,0-3.6987,0-5.5439,0c0,0.8208,0,1.5963,0,2.4485C326.4417,67.9441,326.9891,67.9441,327.6614,67.9441z"/>
					<path d="M324.8058,50.8655c1.4826,0,2.7975,0,4.1562,0c0.0308-0.4957,0.057-0.9166,0.0859-1.3814c2.2557,0,4.4849,0,6.8025,0
						c0.02,0.4263,0.0397,0.8459,0.064,1.3637c1.3491,0,2.6819,0,4.1236,0c-0.6962,2.5478-0.8019,4.9896,0.1107,7.4927
						c-1.4611,0-2.8013,0-4.2056,0c-0.0361,0.405-0.0664,0.7443-0.101,1.1334c-2.2669,0-4.5166,0-6.7984,0
						c-0.0241-0.3519-0.0462-0.6753-0.0756-1.104c-1.3959,0-2.7817,0-4.2935,0C325.6023,55.8505,325.5059,53.4241,324.8058,50.8655z
						"/>
					<path d="M324.4852,54.6471c-0.0687,4.2531-3.5473,7.8071-7.7976,8.1019c-4.403,0.3054-7.8841-2.2695-9.0346-5.6824
						c-1.5738-4.6686,1.6946-9.8292,6.6636-10.5491c4.3858-0.6355,8.263,1.5077,9.6952,5.373
						c0.1664,0.449,0.2975,0.9183,0.3784,1.3896C324.4673,53.728,324.4571,54.1908,324.4852,54.6471z M315.9748,50.7761
						c-2.0053-0.0059-4.5349,1.8802-5.0831,3.6682c-0.0295,0.0962-0.0435,0.1981-0.0562,0.2985
						c-0.3245,2.5656,1.3412,4.8783,3.8757,5.3825c2.7092,0.539,5.3372-0.9518,5.9957-3.4459
						c0.2254-0.8538,0.4084-1.7597-0.1732-2.56c-0.4162-0.5727-0.9513-1.0612-1.3487-1.6449
						C318.3639,51.2688,317.239,50.7357,315.9748,50.7761z M322.64,53.6725c-0.7656-3.2857-3.7431-5.8849-8.0586-5.2799
						c-2.8966,0.4061-5.545,3.1521-5.1825,5.2765c1.0079-0.2581,1.6309-0.979,2.2108-1.7657
						c2.1801-2.9575,6.1807-2.9513,8.2963,0.0174C320.5707,52.8534,321.4156,53.4814,322.64,53.6725z"/>
					<path d="M349.2108,62.7867c-5.1853-0.0199-8.9843-3.7987-8.8688-8.5607c0.0868-3.5767,2.831-6.7167,6.6669-7.6283
						c3.9197-0.9316,8.2027,1.0916,9.8303,4.6437c2.1623,4.719-0.6825,10.23-5.8518,11.3093
						C350.3192,62.6902,349.6308,62.7326,349.2108,62.7867z M349.1258,50.776c-1.9717-0.0059-4.6258,1.9618-5.0966,3.6554
						c-0.0202,0.0726-0.0163,0.1515-0.0286,0.2267c-0.4412,2.7039,1.3116,5.0081,4.2114,5.5354
						c2.5252,0.4592,5.2754-1.327,5.6823-3.8007c0.1195-0.7267,0.0261-1.5767-0.2513-2.255
						c-0.2653-0.6486-0.9361-1.1196-1.3588-1.7181C351.4636,51.258,350.3593,50.7307,349.1258,50.776z M355.7862,53.6655
						c-0.59-3.5336-4.3848-6.0688-7.9945-5.424c-2.9626,0.5292-5.6351,3.2811-5.2383,5.3939
						c0.9788-0.2892,1.3102-0.5603,2.2953-1.8777c2.0648-2.7612,6.1219-2.7366,8.1186,0.0634
						C353.6577,52.789,354.5008,53.4857,355.7862,53.6655z"/>
					<path d="M334.8595,48.1092c-1.6277,0-3.2755,0.0195-4.921-0.0324c-0.152-0.0048-0.4062-0.4595-0.4147-0.712
						c-0.0464-1.3731-0.0313-2.7483-0.0358-4.1228c-0.0078-2.3672-0.0311-4.7347-0.0019-7.1015
						c0.004-0.326,0.1911-0.7342,0.4305-0.9573c0.7778-0.7248,1.6192-1.3812,2.4854-2.1052
						c0.8192,0.6928,1.6155,1.3526,2.3903,2.0368c0.1114,0.0983,0.1675,0.3139,0.1678,0.4754
						c0.0063,4.0729,0.0021,8.1458-0.0038,12.2187C334.9561,47.879,334.9126,47.9491,334.8595,48.1092z"/>
					<path d="M332.4258,18.9918c-0.8759-0.786-1.7268-1.5474-2.5738-2.3132c-0.0919-0.0831-0.2321-0.1937-0.2293-0.2881
						c0.0326-1.1329-0.0935-2.3134,0.1905-3.3835c0.2632-0.9919,1.3706-1.0098,2.2602-1.0269
						c0.9852-0.019,2.0956-0.1023,2.6361,0.9384c0.2713,0.5223,0.1455,1.2385,0.2661,1.8538
						c0.2961,1.5099-0.324,2.5669-1.5493,3.3744C333.0895,18.3686,332.8041,18.6685,332.4258,18.9918z"/>
					<path d="M334.9242,83.4013c-1.7721,0-3.5077,0-5.3017,0c0-1.1717,0-2.3029,0-3.4964c1.7454,0,3.5013,0,5.3017,0
						C334.9242,81.021,334.9242,82.1274,334.9242,83.4013z"/>
					<path d="M334.9228,60.4252c0,0.5465,0,1.0658,0,1.6324c-1.7591,0-3.4973,0-5.2973,0c0-0.5233,0-1.0411,0-1.6324
						C331.3687,60.4252,333.1227,60.4252,334.9228,60.4252z"/>
					<path class="st0" d="M343.5463,17.535c-0.7885-0.7458-1.412-1.3356-2.1052-1.9914c0.399-0.3678,0.726-0.6692,1.0441-0.9624
						c0.9178,0.9158,1.8105,1.8065,2.7695,2.7634c-0.5116,0.4644-1.0294,0.9788-1.6016,1.4229
						c-0.1465,0.1137-0.4822,0.0582-0.7021-0.011c-0.7942-0.2501-1.5761-0.5393-2.3499-0.8092
						c0.599,0.6146,1.1985,1.2297,1.8596,1.9081c-0.4331,0.3804-0.7697,0.676-1.0619,0.9326
						c-0.9443-0.8951-1.8632-1.766-2.8417-2.6935c0.5798-0.5185,1.0837-1.0136,1.6413-1.4381
						c0.1487-0.1132,0.4779-0.0635,0.6966,0.0026C341.714,16.9066,342.5215,17.1923,343.5463,17.535z"/>
					<path class="st0" d="M316.392,12.269c-0.2367,0.2198-0.4394,0.4079-0.6964,0.6466c-0.3576-0.3263-0.7021-0.6408-0.9218-0.8412
						c0.8939-0.9717,1.7626-1.9161,2.65-2.8808c0.7953,0.7441,1.5649,1.4394,2.3043,2.1656
						c0.4218,0.4142,0.8358,0.8982,0.5108,1.5374c-0.2982,0.5864-0.8029,0.908-1.3273,0.7824
						c-0.2708,0.5097-0.506,0.9523-0.7932,1.4929c-0.4808-0.4332-0.8287-0.7467-1.175-1.0588
						C317.6333,13.2658,317.5995,13.1551,316.392,12.269z M317.8342,10.9009c-0.2906,0.2429-0.5163,0.4316-0.7777,0.6501
						c0.4859,0.4103,0.8802,0.7432,1.3018,1.0992c0.2325-0.2474,0.399-0.4246,0.5864-0.6239
						c-0.1583-0.1891-0.2749-0.3517-0.4151-0.4906C318.3163,11.3245,318.0868,11.1297,317.8342,10.9009z"/>
					<path class="st0" d="M347.7197,13.2524c-0.2165,0.1726-0.433,0.3451-0.7237,0.5769c-0.1605-0.1774-0.3199-0.3536-0.4999-0.5525
						c0.6172-0.5533,1.1973-1.0733,1.8269-1.6376c0.2993,0.338,0.5563,0.6102,0.7926,0.8993
						c0.3337,0.4081,0.3781,0.8937,0.0114,1.2475c-0.7418,0.7157-1.5187,1.4059-2.3478,2.0161
						c-0.4606,0.339-1.0106,0.2128-1.4691-0.1781c-1.6755-1.4282-1.6873-2.1288-0.0305-3.5687
						c0.3631-0.3155,0.7386-0.6221,1.137-0.8903c0.5178-0.3486,1.0387-0.3745,1.6519,0.2867
						c-0.5465,0.2924-1.0787,0.5117-1.5328,0.8393c-0.4152,0.2995-1.0982,0.7973-1.0369,1.0635
						c0.1115,0.4836,0.6342,0.9449,1.0979,1.2366c0.1677,0.1055,0.6964-0.2555,0.9882-0.4925
						c0.1945-0.158,0.2613-0.4731,0.3853-0.7179C347.8866,13.3377,347.8031,13.2951,347.7197,13.2524z"/>
					<path class="st0" d="M319.1669,35.3104c0.8827-0.7614,1.7142-1.5024,2.5735-2.2095c0.4061-0.3342,0.8713-0.5228,1.4007-0.2075
						c0.5792,0.345,0.7688,0.7271,0.71,1.2589c0.5257,0.2891,0.9871,0.5428,1.5518,0.8534
						c-0.4838,0.4361-0.8174,0.7369-1.144,1.0313c-0.8962-0.6957-0.8962-0.6957-1.9124,0.4292
						c0.1918,0.2145,0.3881,0.4341,0.7103,0.7946c-0.2033,0.1341-0.3978,0.2518-0.5803,0.3858
						c-0.184,0.1351-0.356,0.2863-0.4715,0.3802C321.0793,37.1407,320.1682,36.2687,319.1669,35.3104z M322.758,34.8274
						c-0.3731-0.9836-0.8321-0.9015-1.782,0.3062c0.2125,0.1947,0.4265,0.3908,0.6541,0.5994
						c0.253-0.2244,0.4359-0.3989,0.6321-0.5568C322.4213,35.0481,322.5965,34.9399,322.758,34.8274z"/>
					<path class="st0" d="M326.3453,33.8864c-1.2097-0.2347-1.754-0.9618-2.2299-1.6983c-0.4077-0.6308,0.0163-1.1862,0.4556-1.6201
						c0.5221-0.5156,1.0755-1.0174,1.6829-1.4242c0.7219-0.4836,1.2915-0.3693,1.9233,0.2293
						c1.4224,1.3474,1.4458,1.8762-0.0096,3.2109C327.5858,33.1176,326.8768,33.5125,326.3453,33.8864z M328.1254,31.4087
						c-0.6265-0.5157-1.0618-1.1504-1.5211-1.1682c-0.3969-0.0154-0.821,0.6703-1.2331,1.0461
						c0.4271,0.3993,0.8071,1.0179,1.2972,1.1231C327.0134,32.4836,327.5081,31.8594,328.1254,31.4087z"/>
					<path class="st0" d="M336.3878,21.9008c-0.5584,0.2602-1.0417,0.435-1.4696,0.6997c-0.3893,0.2408-0.7182,0.5792-1.0738,0.8745
						c0.0486,0.0928,0.0973,0.1856,0.1459,0.2784c0.2176-0.0681,0.4653-0.0913,0.6471-0.213
						c0.4639-0.3104,0.8847-0.6851,1.3482-0.9962c0.547-0.3672,1.0432-0.2725,1.489,0.2236
						c0.4191,0.4665,0.3996,0.9667,0.0141,1.3705c-0.6288,0.6585-1.3,1.2889-2.0216,1.8421c-0.5157,0.3954-0.8798,0.277-1.52-0.2783
						c0.4445-0.3115,0.6488-0.885,1.3879-0.8197c0.2771,0.0245,0.6212-0.4,0.8825-0.6702c0.095-0.0983,0.0384-0.3433,0.051-0.5213
						c-0.1546,0.0206-0.3445-0.009-0.4576,0.0706c-0.478,0.3362-0.9236,0.7182-1.3991,1.0584
						c-0.5634,0.4031-1.0759,0.3323-1.5538-0.1862c-0.4904-0.532-0.3734-1.0455,0.0623-1.4865
						c0.5524-0.5591,1.1458-1.0849,1.7662-1.5676C335.182,21.1941,335.7208,21.1868,336.3878,21.9008z"/>
					<path class="st0" d="M332.1637,25.6404c-0.5469,0.2649-1.0046,0.4846-1.4603,0.7085
						c-0.1117,0.0549-0.2529,0.0976-0.3184,0.1901c-0.2098,0.2963-0.3904,0.6133-0.5822,0.9223
						c0.2964-0.1278,0.612-0.2245,0.8847-0.3911c0.3677-0.2247,0.6999-0.507,1.0521-0.7579
						c0.5444-0.3878,1.0132-0.3112,1.4876,0.169c0.4802,0.4861,0.4538,0.9879,0.0429,1.4153
						c-0.6306,0.6558-1.3058,1.2816-2.0308,1.8292c-0.4961,0.3748-1.0494,0.2751-1.6106-0.3978
						c0.538-0.2477,1.0074-0.4645,1.4775-0.6797c0.0683-0.0313,0.1597-0.0357,0.2072-0.0847
						c0.2947-0.3043,0.5824-0.6156,0.859-0.9361c0.0108-0.0125-0.1507-0.2166-0.1709-0.2067
						c-0.3269,0.1599-0.655,0.3227-0.9602,0.52c-0.3408,0.2203-0.6412,0.506-0.9905,0.7094
						c-0.5386,0.3137-1.0248,0.177-1.4275-0.2801c-0.4051-0.4598-0.3871-0.9695,0.008-1.3778
						c0.5813-0.6007,1.2062-1.1694,1.87-1.6767C330.9917,24.9411,331.5367,24.9758,332.1637,25.6404z"/>
					<path class="st0" d="M338.4912,31.9947c-0.2765,0.5078-0.5186,0.9523-0.8157,1.4979
						c-0.4285-0.4068-0.7307-0.6936-1.0274-0.9753c0.6337-0.8507,0.6337-0.8507-0.3842-1.7238
						c-0.2455,0.1901-0.4995,0.3868-0.7969,0.6171c-0.2949-0.2711-0.5912-0.5436-0.8099-0.7447
						c0.8743-0.9656,1.7346-1.9157,2.6324-2.9073c0.7553,0.7088,1.4277,1.3235,2.0804,1.9584
						c0.3911,0.3804,0.7984,0.8311,0.4785,1.4001C339.5356,31.6737,339.0983,32.1805,338.4912,31.9947z M337.6163,29.4374
						c-0.2217,0.211-0.4361,0.415-0.6498,0.6184c1.0506,1.1147,1.0506,1.1147,1.6193,0.313
						C338.2851,30.0799,337.9782,29.7851,337.6163,29.4374z"/>
					<path class="st0" d="M345.4342,40.762c0.9008-0.9684,1.7607-1.8928,2.7848-2.9938c0.783,0.8488,1.5423,1.6239,2.2431,2.4488
						c0.449,0.5286,0.4117,1.116-0.0519,1.6531c-0.0496,0.0574-0.1035,0.1111-0.156,0.166
						c-1.4006,1.4656-1.9024,1.477-3.3802,0.0797C346.3785,41.6474,345.8805,41.1816,345.4342,40.762z M348.5397,39.509
						c-0.6085,0.5335-1.076,0.9433-1.703,1.493c0.6235,0.3208,1.1094,0.7766,1.548,0.7349c0.39-0.0371,1.0265-0.6367,1.0143-0.9681
						C349.3829,40.3313,348.8398,39.9132,348.5397,39.509z"/>
					<path class="st0" d="M322.3517,19.1598c-0.4157-0.3731-0.7529-0.6758-1.081-0.9703c0.2661-0.9635-0.6287-1.8357-1.6381-1.859
						c-0.4349-0.01-0.8586-0.5096-1.4521-0.8933c1.4453-0.5792,2.6948-1.0889,3.9554-1.5699
						c0.1144-0.0436,0.3287,0.0618,0.4471,0.1586c1.4179,1.1592,1.4161,1.1625,0.7175,2.8535
						C323.0001,17.606,322.6965,18.3313,322.3517,19.1598z M320.9689,15.8859c0.2969,0.2524,0.5734,0.4873,0.9072,0.771
						c0.22-0.5154,0.3965-0.9287,0.6271-1.4689c-0.5235,0.2085-0.8772,0.3446-1.2262,0.4917
						C321.1856,15.7182,321.1086,15.7908,320.9689,15.8859z"/>
					<path class="st0" d="M343.4184,34.2805c-0.1896,0.8564-0.9314,1.3434-1.6189,1.8369c-0.5272,0.3785-1.1107,0.1598-1.552-0.205
						c-0.5628-0.4652-1.101-0.9816-1.5534-1.5523c-0.3832-0.4835-0.3242-1.05,0.1159-1.5299
						c0.0687-0.0749,0.1371-0.1514,0.2145-0.2166c0.5638-0.4746,0.9955-1.2998,1.9059-0.9943
						c1.1055,0.371,1.8683,1.1917,2.4228,2.2019C343.41,33.9246,343.3911,34.0693,343.4184,34.2805z M341.0364,32.5735
						c-0.4984,0.5518-1.0212,0.9414-1.2216,1.4565c-0.069,0.1773,0.8102,1.0243,1.007,0.9452
						c0.5074-0.204,0.9936-0.6973,1.2349-1.1974C342.1399,33.6056,341.4741,33.0719,341.0364,32.5735z"/>
					<path class="st0" d="M319.8657,37.7938c0.7363,0.6917,0.865,1.1901,0.3403,1.759c-0.611,0.6625-1.3286,1.2417-2.0622,1.7706
						c-0.4669,0.3366-1.0172,0.2319-1.4814-0.1402c-0.0396-0.0317-0.0817-0.0604-0.1205-0.0931
						c-1.5629-1.317-1.5855-1.9728-0.0948-3.3646c0.3327-0.3106,0.6824-0.6116,1.06-0.8636
						c0.7071-0.4718,1.0671-0.3999,1.731,0.2991c-0.4795,0.3255-0.6902,0.9694-1.5157,0.8699
						c-0.27-0.0326-0.9591,0.8274-0.8818,0.9718c0.252,0.471,0.7149,0.9148,1.2024,1.1458
						c0.3571,0.1692,0.8517-0.7071,0.9767-1.1648C319.1359,38.5586,319.5511,38.2149,319.8657,37.7938z"/>
					<path class="st0" d="M341.4397,36.999c1.2713-0.5686,2.4364-1.1023,3.6165-1.6004c0.1358-0.0573,0.3978,0.033,0.5282,0.1422
						c0.407,0.3405,0.7791,0.7229,1.1859,1.1093c-0.5733,1.2344-1.1357,2.4452-1.7448,3.7567
						c-0.343-0.5282-1.233-0.6253-0.7495-1.4767c-0.4445-0.4001-1.0013-1.2083-1.3123-1.1228
						C342.0783,38.0506,341.9698,37.3613,341.4397,36.999z M345.4281,36.581c-0.6245,0.296-1.0353,0.4906-1.5327,0.7264
						c0.3206,0.2899,0.5387,0.4871,0.8108,0.7331C344.9344,37.5793,345.1307,37.1823,345.4281,36.581z"/>
					<path class="st0" d="M327.2762,18.5371c0.413,0.3701,0.732,0.656,1.1161,1.0002c-0.761,0.6788-1.4918,1.3307-2.2361,1.9947
						c0.6812,0.6335,1.1996,1.1155,1.8073,1.6805c-0.244,0.2258-0.4409,0.4081-0.6952,0.6435
						c-0.937-0.868-1.8237-1.6895-2.6958-2.4976C325.4857,20.4056,326.3584,19.4949,327.2762,18.5371z"/>
					<path class="st0" d="M336.484,19.9374c0.3288-0.2932,0.665-0.5929,0.9303-0.8295c0.941,0.8858,1.8591,1.75,2.8459,2.6788
						c-0.3594,0.3315-0.6835,0.6304-0.9783,0.9023C338.3365,21.7593,337.4272,20.8651,336.484,19.9374z"/>
					<path class="st0" d="M323.8844,20.6187c-0.3549-0.337-0.6785-0.6441-0.9669-0.9179c0.8969-0.9547,1.7575-1.8708,2.66-2.8316
						c0.3868,0.3636,0.7266,0.6829,0.97,0.9117C325.6423,18.7455,324.7826,19.6615,323.8844,20.6187z"/>
					<path class="st0" d="M332.1454,70.8506c0.0748-1.1135,0.0803-2.2373,0.243-3.3378c0.1792-1.2119,0.9414-1.9666,2.1939-2.0686
						c0.7004-0.057,1.4248-0.0596,2.1151,0.0544c1.0753,0.1777,1.8703,1.1189,1.9299,2.444c0.0867,1.9279,0.1249,3.87-0.0102,5.7925
						c-0.1355,1.9276-1.5793,2.8232-3.7586,2.5557c-1.6516-0.2028-2.5089-1.1061-2.614-2.8398
						c-0.0523-0.8623-0.0091-1.7304-0.0091-2.5959C332.2053,70.8536,332.1753,70.8521,332.1454,70.8506z M336.6888,70.9095
						c0-0.7118,0.0285-1.4249-0.0076-2.1349c-0.0402-0.7915-0.6121-0.8762-1.2512-0.882c-0.6332-0.0058-1.1673,0.1522-1.1903,0.8689
						c-0.0439,1.3707-0.0416,2.7446-0.0017,4.1155c0.0209,0.7179,0.5391,0.8815,1.1803,0.8749
						c0.6357-0.0066,1.2154-0.0626,1.2625-0.8603C336.7195,72.2332,336.6887,71.5706,336.6888,70.9095z"/>
					<path class="st0" d="M324.9099,68.7974c-0.6838,0-1.2574,0-1.8774,0c-0.0013-0.8083-0.384-1.1411-1.1971-1.0508
						c-0.5502,0.0612-0.9178,0.1783-0.9381,0.8313c-0.0208,0.6689,0.2387,0.9955,0.9164,1.0166
						c0.3791,0.0118,0.7572,0.0796,1.1339,0.1343c1.5134,0.2199,1.9811,0.7017,2.079,2.2182
						c0.0425,0.6585,0.0484,1.3257-0.0046,1.9828c-0.1148,1.4235-0.6898,2.029-2.0946,2.2871
						c-0.2487,0.0457-0.5027,0.0815-0.7549,0.0864c-2.5341,0.0498-3.4171-0.9286-3.1656-3.5674c0.5624,0,1.1323,0,1.7469,0
						c0.0175,0.8122,0.3785,1.235,1.2742,1.1731c0.9499-0.0657,1.3809-0.6237,1.0211-1.514
						c-0.0657-0.1626-0.3113-0.3178-0.4977-0.3542c-0.6216-0.1212-1.2524-0.2013-1.8826-0.2703
						c-0.9276-0.1017-1.4608-0.6835-1.5432-1.5275c-0.1027-1.0514-0.1057-2.1307,0.0095-3.1802
						c0.1125-1.026,0.6732-1.4998,1.7293-1.6152c0.725-0.0792,1.4667-0.0582,2.1976-0.0192
						c0.9521,0.0508,1.4628,0.663,1.6458,1.5354C324.8302,67.5476,324.843,68.1541,324.9099,68.7974z"/>
					<path class="st0" d="M341.9444,73.4385c0,0.9624,0,1.8202,0,2.714c-0.6579,0-1.2344,0-1.863,0c0-3.5347,0-7.0616,0-10.6403
						c1.405,0,2.8244-0.0833,4.2278,0.0305c0.8762,0.071,1.4075,0.8385,1.4619,1.651c0.1045,1.5611,0.1328,3.1424,0.0004,4.699
						c-0.0906,1.0656-0.8289,1.5218-1.9391,1.5438C343.251,73.4479,342.6691,73.4385,341.9444,73.4385z M341.9472,68.0372
						c0,0.735-0.0274,1.4673,0.0154,2.1954c0.0143,0.2444,0.2095,0.6837,0.3183,0.6825c0.5675-0.0061,1.2993,0.3205,1.6425-0.391
						c0.7291-1.5112-0.0589-2.6725-1.698-2.5754C342.178,67.9515,342.132,67.9774,341.9472,68.0372z"/>
					<path class="st0" d="M327.6614,67.9441c-0.6723,0-1.2197,0-1.8074,0c0-0.8522,0-1.6276,0-2.4485c1.8452,0,3.6664,0,5.5439,0
						c0,0.7813,0,1.5551,0,2.4219c-0.5723,0-1.1436,0-1.8197,0c0,2.7977,0,5.506,0,8.2429c-0.6867,0-1.2651,0-1.9168,0
						C327.6614,73.4507,327.6614,70.7629,327.6614,67.9441z"/>
					<path class="st0" d="M315.9748,50.7761c1.2642-0.0403,2.3891,0.4927,3.2102,1.6984c0.3975,0.5837,0.9326,1.0722,1.3487,1.6449
						c0.5816,0.8003,0.3986,1.7062,0.1732,2.56c-0.6585,2.4941-3.2865,3.9848-5.9957,3.4459
						c-2.5345-0.5042-4.2002-2.8168-3.8757-5.3825c0.0127-0.1003,0.0267-0.2022,0.0562-0.2985
						C311.4398,52.6563,313.9695,50.7701,315.9748,50.7761z"/>
					<path class="st0" d="M322.64,53.6725c-1.2244-0.1911-2.0693-0.819-2.7339-1.7517c-2.1156-2.9687-6.1162-2.9749-8.2963-0.0174
						c-0.5799,0.7867-1.2029,1.5076-2.2108,1.7657c-0.3625-2.1244,2.2859-4.8704,5.1825-5.2765
						C318.8969,47.7876,321.8745,50.3868,322.64,53.6725z"/>
					<path class="st0" d="M349.1258,50.776c1.2336-0.0453,2.3378,0.482,3.1584,1.6438c0.4227,0.5985,1.0936,1.0695,1.3588,1.7181
						c0.2774,0.6783,0.3709,1.5283,0.2513,2.255c-0.4069,2.4736-3.1571,4.2599-5.6823,3.8007
						c-2.8997-0.5273-4.6526-2.8316-4.2114-5.5354c0.0123-0.0752,0.0084-0.1541,0.0286-0.2267
						C344.5,52.7378,347.1541,50.7701,349.1258,50.776z"/>
					<path class="st0" d="M355.7862,53.6655c-1.2854-0.1798-2.1285-0.8764-2.8188-1.8444c-1.9967-2.8-6.0539-2.8246-8.1186-0.0634
						c-0.9851,1.3174-1.3166,1.5885-2.2953,1.8777c-0.3968-2.1128,2.2757-4.8647,5.2383-5.3939
						C351.4014,47.5967,355.1962,50.1319,355.7862,53.6655z"/>
					<path d="M317.8342,10.9009c0.2526,0.2289,0.4822,0.4236,0.6954,0.6348c0.1402,0.1388,0.2568,0.3015,0.4151,0.4906
						c-0.1873,0.1993-0.3539,0.3765-0.5864,0.6239c-0.4216-0.356-0.8159-0.6889-1.3018-1.0992
						C317.3178,11.3324,317.5436,11.1437,317.8342,10.9009z"/>
					<path d="M322.758,34.8274c-0.1615,0.1125-0.3366,0.2207-0.4958,0.3488c-0.1962,0.1579-0.3791,0.3324-0.6321,0.5568
						c-0.2277-0.2086-0.4417-0.4047-0.6541-0.5994C321.9258,33.9259,322.3849,33.8438,322.758,34.8274z"/>
					<path d="M328.1254,31.4087c-0.6172,0.4507-1.112,1.0749-1.457,1.0009c-0.4901-0.1051-0.8701-0.7238-1.2972-1.1231
						c0.412-0.3758,0.8362-1.0615,1.2331-1.0461C327.0635,30.2583,327.4989,30.893,328.1254,31.4087z"/>
					<path d="M337.6163,29.4374c0.3619,0.3477,0.6688,0.6426,0.9695,0.9315c-0.5687,0.8016-0.5687,0.8016-1.6193-0.313
						C337.1803,29.8524,337.3946,29.6484,337.6163,29.4374z"/>
					<path d="M348.5397,39.509c0.3001,0.4042,0.8432,0.8223,0.8593,1.2597c0.0122,0.3314-0.6243,0.931-1.0143,0.9681
						c-0.4386,0.0417-0.9245-0.4141-1.548-0.7349C347.4637,40.4523,347.9312,40.0425,348.5397,39.509z"/>
					<path d="M320.9689,15.8859c0.1397-0.0951,0.2167-0.1677,0.3081-0.2062c0.349-0.147,0.7027-0.2831,1.2262-0.4917
						c-0.2307,0.5402-0.4071,0.9535-0.6271,1.4689C321.5423,16.3732,321.2658,16.1383,320.9689,15.8859z"/>
					<path d="M341.0364,32.5735c0.4376,0.4983,1.1034,1.032,1.0203,1.2043c-0.2413,0.5-0.7274,0.9934-1.2349,1.1974
						c-0.1967,0.0791-1.0759-0.7679-1.007-0.9452C340.0152,33.5149,340.5381,33.1253,341.0364,32.5735z"/>
					<path d="M345.4281,36.581c-0.2974,0.6012-0.4937,0.9982-0.7219,1.4595c-0.2721-0.246-0.4902-0.4432-0.8108-0.7331
						C344.3928,37.0717,344.8036,36.877,345.4281,36.581z"/>
					<path d="M336.6888,70.9097c-0.0001,0.6609,0.0308,1.3235-0.008,1.982c-0.0471,0.7977-0.6268,0.8536-1.2625,0.8603
						c-0.6412,0.0067-1.1594-0.157-1.1803-0.8749c-0.0399-1.3709-0.0422-2.7448,0.0017-4.1155
						c0.023-0.7167,0.5571-0.8747,1.1903-0.8689c0.6391,0.0058,1.211,0.0905,1.2512,0.882
						C336.7173,69.4846,336.6888,70.1978,336.6888,70.9097z"/>
					<path d="M341.9472,68.0372c0.1848-0.0598,0.2308-0.0856,0.2782-0.0884c1.6391-0.0971,2.4271,1.0642,1.698,2.5754
						c-0.3432,0.7115-1.075,0.3848-1.6425,0.391c-0.1087,0.0012-0.3039-0.4382-0.3183-0.6825
						C341.9198,69.5044,341.9472,68.7722,341.9472,68.0372z"/>
				</g>
			</g>
			<path d="M340.9095,151.1904h-17.2738c-0.7421,0-1.3493-0.6072-1.3493-1.3493v-10.4263c0-0.7421,0.6072-1.3493,1.3493-1.3493
				h17.2738c0.7421,0,1.3493,0.6072,1.3493,1.3493v10.4263C342.2589,150.5832,341.6517,151.1904,340.9095,151.1904z"/>
			<rect x="329.6225" y="83.4013" width="5.3003" height="54.6642"/>
		</g>
	</g>
	<g id="Post">
		<path d="M343.2502,122.4413h-3.955c-2.7429,0-4.9871-2.2442-4.9871-4.987v-10.579c0-2.7429,2.2442-4.987,4.9871-4.987h3.955
			c2.7429,0,4.987,2.2442,4.987,4.987v10.579C348.2372,120.1972,345.993,122.4413,343.2502,122.4413z"/>
	</g>
	<g id="Light_copy" class="st1">
		<path class="st2" d="M312.1612,52.3579c0,0-3.3187,2.3938-0.4095,6.0553c2.7797,3.4985,6.5403,1.6052,7.4064,0.8144
			c0.8661-0.7907,3.2253-2.3507,1.2401-5.5888s-3.7181-3.0232-4.2918-3.0388C315.6251,50.5869,314.5854,50.1259,312.1612,52.3579z"
			/>
	</g>
	<g id="Light">
		<path class="st3" d="M345.2531,52.5986c0,0-3.2906,1.9626-0.4012,5.6397c2.8895,3.6771,6.4823,1.803,7.3484,1.0123
			s3.2253-2.3507,1.2401-5.5888c-1.9852-3.2381-3.7204-3.0925-4.2918-3.0388C348.5772,50.6766,347.1974,50.7222,345.2531,52.5986z"
			/>
	</g>
</g>
<g id="No_Lights_Crossing_copy">
	<g id="Layer_1_copy_5">
		<g>
			<g>
				<g>
					<path class="st0" d="M74.7055,83.3486c-27.5685,0-55.137,0-82.7055,0c0-27.5685,0-55.137,0-82.7055
						c27.5685,0,55.137,0,82.7055,0C74.7055,28.2116,74.7055,55.7801,74.7055,83.3486z M54.931,40.179
						c-5.1896-4.8563-10.331-9.6675-15.5121-14.5158c5.1957-4.6249,10.3344-9.1989,15.5144-13.8099
						c-1.875-1.8111-3.6663-3.5415-5.4985-5.3114c-5.12,4.5532-10.344,9.1989-15.6147,13.8862
						c-5.2148-4.8756-10.3983-9.7219-15.604-14.589c-1.8267,1.7654-3.6349,3.5129-5.4971,5.3126
						c5.1368,4.8058,10.2234,9.5646,15.3669,14.3766c-5.3761,4.7847-10.7289,9.5488-16.1314,14.3571
						c1.8649,1.7894,3.6741,3.5254,5.5184,5.295c5.33-4.7397,10.7582-9.5667,16.2108-14.4154
						c5.2704,4.9273,10.4908,9.8078,15.7547,14.729C51.2806,43.7114,53.084,41.9663,54.931,40.179z M33.2562,78.6067
						c3.8979,0,7.7958-0.0099,11.6937,0.0037c2.3783,0.0083,4.3466-1.9454,4.2634-4.2305
						c-0.0899-2.4679-0.1099-4.9459,0.0064-7.4116c0.1036-2.1977-1.588-4.3627-4.291-4.3765
						c-7.7701-0.0395-15.5406-0.033-23.3108-0.003c-2.5577,0.0099-4.3018,1.8293-4.3114,4.3624
						c-0.0093,2.4457-0.0114,4.8915,0.0007,7.3372c0.0125,2.5371,1.8025,4.3152,4.3319,4.3175
						C25.5113,78.6092,29.3838,78.6067,33.2562,78.6067z M25.999,50.5517c0.7001,2.5585,0.7965,4.9849-0.1312,7.5045
						c1.5119,0,2.8976,0,4.2936,0c0.0293,0.4286,0.0515,0.7521,0.0756,1.104c2.2818,0,4.5315,0,6.7984,0
						c0.0347-0.3891,0.0649-0.7284,0.101-1.1334c1.4043,0,2.7444,0,4.2056,0c-0.9125-2.5031-0.8069-4.9449-0.1107-7.4927
						c-1.4417,0-2.7745,0-4.1236,0c-0.0243-0.5179-0.044-0.9374-0.064-1.3637c-2.3176,0-4.5468,0-6.8025,0
						c-0.0289,0.4648-0.0551,0.8857-0.0859,1.3814C28.7965,50.5517,27.4816,50.5517,25.999,50.5517z M25.6785,54.3332
						c-0.0281-0.4563-0.0179-0.9191-0.0949-1.367c-0.081-0.4713-0.2121-0.9406-0.3784-1.3896
						c-1.4323-3.8653-5.3094-6.0085-9.6952-5.3731c-4.969,0.72-8.2374,5.8806-6.6636,10.5491
						c1.1505,3.4129,4.6315,5.9878,9.0346,5.6824C22.1312,62.1404,25.6098,58.5864,25.6785,54.3332z M50.404,62.4729
						c0.42-0.0541,1.1084-0.0965,1.7766-0.236c5.1693-1.0793,8.0141-6.5903,5.8518-11.3093
						c-1.6276-3.5521-5.9106-5.5753-9.8303-4.6437c-3.8359,0.9116-6.5801,4.0516-6.6669,7.6283
						C41.4197,58.6741,45.2187,62.4529,50.404,62.4729z M36.0527,47.7953c0.0532-0.1601,0.0967-0.2302,0.0968-0.3003
						c0.0059-4.0729,0.0101-8.1458,0.0037-12.2187c-0.0003-0.1615-0.0564-0.3771-0.1677-0.4754
						c-0.7748-0.6842-1.5711-1.344-2.3903-2.0368c-0.8662,0.724-1.7077,1.3804-2.4854,2.1052
						c-0.2394,0.2231-0.4264,0.6313-0.4304,0.9573c-0.0292,2.3668-0.0058,4.7342,0.0019,7.1015
						c0.0045,1.3745-0.0105,2.7497,0.0358,4.1228c0.0085,0.2525,0.2627,0.7072,0.4148,0.712
						C32.7773,47.8148,34.425,47.7953,36.0527,47.7953z M33.6191,18.6779c0.3782-0.3233,0.6637-0.6232,1.0005-0.8451
						c1.2253-0.8074,1.8453-1.8644,1.5493-3.3744c-0.1207-0.6154,0.0051-1.3315-0.2662-1.8538
						c-0.5405-1.0407-1.6509-0.9574-2.6361-0.9384c-0.8896,0.0171-1.997,0.0351-2.2602,1.0269
						c-0.284,1.0702-0.1579,2.2506-0.1905,3.3835c-0.0027,0.0944,0.1375,0.205,0.2293,0.2881
						C31.8922,17.1305,32.7432,17.8919,33.6191,18.6779z M36.1174,83.0875c0-1.2739,0-2.3803,0-3.4964c-1.8004,0-3.5563,0-5.3017,0
						c0,1.1935,0,2.3247,0,3.4964C32.6097,83.0875,34.3453,83.0875,36.1174,83.0875z M36.116,60.1113c-1.8001,0-3.5541,0-5.2973,0
						c0,0.5913,0,1.109,0,1.6324c1.8,0,3.5382,0,5.2973,0C36.116,61.1771,36.116,60.6579,36.116,60.1113z"/>
					<path d="M54.931,40.179c-1.847,1.7873-3.6504,3.5323-5.4927,5.3151c-5.2639-4.9212-10.4843-9.8018-15.7547-14.729
						c-5.4526,4.8487-10.8808,9.6757-16.2108,14.4154c-1.8442-1.7696-3.6535-3.5056-5.5184-5.295
						c5.4025-4.8083,10.7553-9.5723,16.1314-14.3571c-5.1435-4.8121-10.2301-9.5709-15.3669-14.3766
						c1.8622-1.7997,3.6704-3.5473,5.4971-5.3126c5.2058,4.8672,10.3892,9.7134,15.604,14.589
						c5.2707-4.6873,10.4947-9.333,15.6147-13.8862c1.8323,1.7699,3.6236,3.5002,5.4985,5.3114
						c-5.18,4.6109-10.3187,9.185-15.5144,13.8099C44.6,30.5116,49.7414,35.3227,54.931,40.179z M44.7395,17.2211
						c-1.0248-0.3427-1.8323-0.6284-2.6513-0.8762c-0.2187-0.0662-0.5479-0.1159-0.6966-0.0027
						c-0.5576,0.4245-1.0615,0.9196-1.6413,1.4381c0.9786,0.9275,1.8974,1.7984,2.8417,2.6935
						c0.2922-0.2566,0.6288-0.5522,1.0619-0.9326c-0.6611-0.6783-1.2607-1.2935-1.8596-1.9081
						c0.7738,0.27,1.5557,0.5591,2.3499,0.8092c0.2199,0.0693,0.5557,0.1247,0.7021,0.011c0.5723-0.4441,1.09-0.9585,1.6016-1.4229
						c-0.959-0.9569-1.8517-1.8476-2.7695-2.7634c-0.3181,0.2932-0.6451,0.5946-1.0441,0.9624
						C43.3276,15.8855,43.9511,16.4753,44.7395,17.2211z M17.5852,11.9551c1.2075,0.8861,1.2413,0.9968,0.5514,1.8441
						c0.3463,0.3121,0.6943,0.6256,1.1751,1.0588c0.2872-0.5406,0.5224-0.9832,0.7931-1.4929
						c0.5244,0.1256,1.0291-0.196,1.3273-0.7824c0.325-0.6392-0.089-1.1232-0.5108-1.5374
						c-0.7394-0.7262-1.5091-1.4215-2.3043-2.1656c-0.8874,0.9647-1.7561,1.9091-2.65,2.8808
						c0.2197,0.2005,0.5642,0.5149,0.9218,0.8412C17.1458,12.3631,17.3485,12.1749,17.5852,11.9551z M48.9129,12.9385
						c0.0834,0.0427,0.1669,0.0853,0.2504,0.128c-0.124,0.2448-0.1908,0.5599-0.3853,0.7179
						c-0.2918,0.237-0.8205,0.598-0.9882,0.4925c-0.4637-0.2917-0.9865-0.753-1.0979-1.2366
						c-0.0613-0.2661,0.6217-0.764,1.0369-1.0635c0.4541-0.3276,0.9863-0.547,1.5328-0.8393
						c-0.6132-0.6611-1.1341-0.6353-1.6519-0.2867c-0.3984,0.2682-0.7739,0.5748-1.137,0.8903
						c-1.6568,1.44-1.6449,2.1405,0.0305,3.5687c0.4585,0.3909,1.0086,0.5171,1.4691,0.1781
						c0.8291-0.6102,1.606-1.3004,2.3478-2.0161c0.3667-0.3538,0.3224-0.8393-0.0114-1.2475
						c-0.2364-0.289-0.4933-0.5613-0.7926-0.8993c-0.6296,0.5644-1.2097,1.0844-1.8269,1.6376
						c0.18,0.199,0.3394,0.3752,0.4999,0.5525C48.48,13.2837,48.6965,13.1111,48.9129,12.9385z M20.3602,34.9966
						c1.0012,0.9582,1.9124,1.8303,2.8382,2.7163c0.1154-0.0939,0.2875-0.2451,0.4715-0.3802
						c0.1825-0.134,0.377-0.2517,0.5803-0.3858c-0.3222-0.3604-0.5185-0.58-0.7103-0.7946
						c1.0162-1.1248,1.0162-1.1248,1.9124-0.4292c0.3266-0.2945,0.6602-0.5952,1.144-1.0313
						c-0.5647-0.3106-1.0261-0.5643-1.5519-0.8534c0.0588-0.5318-0.1308-0.9139-0.71-1.2589
						c-0.5294-0.3153-0.9946-0.1266-1.4007,0.2075C22.0744,33.4942,21.2429,34.2351,20.3602,34.9966z M27.5385,33.5726
						c0.5315-0.3739,1.2405-0.7689,1.8224-1.3025c1.4554-1.3347,1.432-1.8634,0.0096-3.2109
						c-0.6319-0.5986-1.2014-0.7129-1.9233-0.2293c-0.6074,0.4069-1.1608,0.9086-1.6829,1.4242
						c-0.4393,0.4339-0.8633,0.9893-0.4556,1.6201C25.7846,32.6108,26.3288,33.3379,27.5385,33.5726z M37.581,21.587
						c-0.667-0.714-1.2058-0.7068-1.7013-0.3212c-0.6204,0.4827-1.2138,1.0084-1.7662,1.5676
						c-0.4357,0.441-0.5528,0.9545-0.0623,1.4865c0.478,0.5185,0.9905,0.5893,1.5538,0.1862
						c0.4754-0.3402,0.9211-0.7222,1.3991-1.0584c0.1131-0.0796,0.303-0.05,0.4576-0.0706
						c-0.0126,0.1781,0.0441,0.4231-0.051,0.5213c-0.2614,0.2702-0.6054,0.6947-0.8825,0.6702
						c-0.7392-0.0652-0.9434,0.5083-1.3879,0.8197c0.6402,0.5554,1.0042,0.6737,1.52,0.2783
						c0.7216-0.5532,1.3929-1.1836,2.0216-1.8421c0.3855-0.4038,0.4051-0.904-0.0141-1.3705
						c-0.4457-0.4961-0.942-0.5908-1.489-0.2236c-0.4635,0.3111-0.8843,0.6858-1.3482,0.9962
						c-0.1818,0.1216-0.4294,0.1449-0.6471,0.213c-0.0486-0.0928-0.0972-0.1856-0.1459-0.2784
						c0.3555-0.2954,0.6845-0.6337,1.0738-0.8745C36.5393,22.022,37.0226,21.8472,37.581,21.587z M33.357,25.3266
						c-0.627-0.6646-1.1721-0.6993-1.6624-0.3247c-0.6638,0.5072-1.2886,1.076-1.87,1.6767
						c-0.3951,0.4082-0.4132,0.9179-0.008,1.3778c0.4027,0.4571,0.8889,0.5939,1.4275,0.2801
						c0.3493-0.2034,0.6498-0.4891,0.9905-0.7094c0.3052-0.1973,0.6333-0.3602,0.9602-0.52
						c0.0202-0.0099,0.1817,0.1942,0.1709,0.2067c-0.2766,0.3205-0.5643,0.6318-0.8591,0.9361
						c-0.0475,0.049-0.1389,0.0535-0.2072,0.0847c-0.4701,0.2151-0.9395,0.4319-1.4775,0.6797
						c0.5612,0.6729,1.1145,0.7726,1.6106,0.3978c0.7249-0.5477,1.4002-1.1734,2.0308-1.8292
						c0.4109-0.4273,0.4373-0.9292-0.0429-1.4153c-0.4744-0.4802-0.9432-0.5569-1.4876-0.169
						c-0.3522,0.2509-0.6844,0.5332-1.0521,0.7579c-0.2728,0.1666-0.5883,0.2633-0.8847,0.3911
						c0.1919-0.309,0.3725-0.626,0.5823-0.9223c0.0654-0.0924,0.2066-0.1352,0.3184-0.1901
						C32.3524,25.8112,32.8101,25.5914,33.357,25.3266z M39.6845,31.6809c0.607,0.1858,1.0444-0.3211,1.3572-0.8775
						c0.3199-0.5691-0.0874-1.0197-0.4785-1.4001c-0.6527-0.6349-1.3251-1.2496-2.0804-1.9584
						c-0.8978,0.9916-1.7581,1.9417-2.6324,2.9073c0.2187,0.2011,0.515,0.4736,0.8099,0.7447
						c0.2974-0.2303,0.5515-0.427,0.7969-0.6171c1.018,0.8731,1.018,0.8731,0.3842,1.7238
						c0.2967,0.2817,0.5989,0.5686,1.0274,0.9753C39.1659,32.6332,39.408,32.1887,39.6845,31.6809z M46.6275,40.4482
						c0.4463,0.4195,0.9443,0.8854,1.4397,1.3539c1.4778,1.3973,1.9796,1.3859,3.3802-0.0797
						c0.0525-0.0549,0.1064-0.1086,0.156-0.166c0.4636-0.537,0.5009-1.1245,0.0519-1.6531c-0.7008-0.8249-1.4601-1.6-2.2431-2.4488
						C48.3881,38.5554,47.5283,39.4798,46.6275,40.4482z M23.545,18.8459c0.3448-0.8285,0.6484-1.5537,0.9486-2.2804
						c0.6986-1.691,0.7004-1.6942-0.7175-2.8535c-0.1184-0.0968-0.3327-0.2022-0.447-0.1586
						c-1.2605,0.481-2.5101,0.9907-3.9553,1.5699c0.5936,0.3837,1.0172,0.8833,1.4521,0.8933
						c1.0094,0.0232,1.9042,0.8954,1.6381,1.859C22.792,18.1701,23.1293,18.4728,23.545,18.8459z M44.6116,33.9667
						c-0.0273-0.2112-0.0084-0.3559-0.0651-0.4592c-0.5545-1.0102-1.3173-1.8309-2.4228-2.2019
						c-0.9104-0.3055-1.3422,0.5197-1.9059,0.9943c-0.0774,0.0652-0.1459,0.1417-0.2145,0.2166
						c-0.4401,0.4799-0.4991,1.0464-0.1159,1.5299c0.4524,0.5707,0.9906,1.0871,1.5534,1.5523
						c0.4412,0.3647,1.0248,0.5835,1.552,0.205C43.6803,35.31,44.422,34.823,44.6116,33.9667z M21.0589,37.48
						c-0.3146,0.4211-0.7298,0.7648-0.846,1.1901c-0.125,0.4577-0.6196,1.334-0.9767,1.1648
						c-0.4875-0.231-0.9504-0.6748-1.2024-1.1458c-0.0772-0.1444,0.6118-1.0044,0.8818-0.9718
						c0.8254,0.0995,1.0362-0.5444,1.5157-0.8699c-0.6639-0.699-1.0239-0.771-1.731-0.2991c-0.3776,0.2519-0.7273,0.553-1.06,0.8636
						c-1.4907,1.3917-1.4681,2.0475,0.0948,3.3646c0.0388,0.0327,0.0809,0.0613,0.1205,0.0931
						c0.4643,0.3721,1.0145,0.4767,1.4814,0.1402c0.7336-0.5289,1.4512-1.1081,2.0622-1.7706
						C21.9239,38.6701,21.7952,38.1717,21.0589,37.48z M42.633,36.6851c0.5301,0.3623,0.6386,1.0516,1.524,0.8083
						c0.3111-0.0855,0.8678,0.7227,1.3123,1.1228c-0.4834,0.8514,0.4066,0.9485,0.7495,1.4767
						c0.6092-1.3116,1.1715-2.5224,1.7448-3.7567c-0.4069-0.3864-0.7789-0.7688-1.1859-1.1093
						c-0.1305-0.1091-0.3924-0.1995-0.5282-0.1422C45.0694,35.5828,43.9043,36.1165,42.633,36.6851z M28.4694,18.2233
						c-0.9178,0.9577-1.7905,1.8684-2.7036,2.8214c0.8721,0.808,1.7589,1.6295,2.6958,2.4976
						c0.2543-0.2354,0.4512-0.4177,0.6951-0.6435c-0.6077-0.5651-1.1261-1.0471-1.8073-1.6805
						c0.7443-0.6639,1.4751-1.3158,2.2361-1.9947C29.2014,18.8793,28.8824,18.5934,28.4694,18.2233z M37.6773,19.6236
						c0.9432,0.9277,1.8524,1.8219,2.7979,2.7517c0.2948-0.2719,0.6189-0.5709,0.9783-0.9023
						c-0.9868-0.9288-1.9049-1.7931-2.8459-2.6788C38.3422,19.0306,38.0061,19.3304,37.6773,19.6236z M25.0777,20.3049
						c0.8982-0.9572,1.7579-1.8732,2.6631-2.8378c-0.2434-0.2288-0.5832-0.5481-0.97-0.9117
						c-0.9025,0.9607-1.7631,1.8768-2.66,2.8316C24.3992,19.6607,24.7227,19.9679,25.0777,20.3049z"/>
					<path d="M33.2562,78.6067c-3.8724,0-7.7448,0.0026-11.6173-0.0009c-2.5294-0.0023-4.3194-1.7804-4.3319-4.3175
						c-0.0121-2.4457-0.01-4.8915-0.0007-7.3372c0.0096-2.5331,1.7537-4.3525,4.3114-4.3624
						c7.7702-0.03,15.5407-0.0365,23.3108,0.003c2.703,0.0137,4.3946,2.1788,4.291,4.3765
						c-0.1162,2.4657-0.0963,4.9437-0.0064,7.4116c0.0832,2.2851-1.8851,4.2388-4.2634,4.2305
						C41.052,78.5968,37.1541,78.6067,33.2562,78.6067z M33.3386,70.5368c0.03,0.0015,0.0599,0.003,0.0899,0.0045
						c0,0.8655-0.0432,1.7336,0.0091,2.5959c0.1052,1.7337,0.9625,2.6371,2.6141,2.8398c2.1794,0.2675,3.6232-0.6281,3.7586-2.5557
						c0.1351-1.9224,0.0969-3.8646,0.0102-5.7925c-0.0596-1.3251-0.8546-2.2663-1.9299-2.444
						c-0.6902-0.1141-1.4146-0.1115-2.115-0.0544c-1.2525,0.102-2.0148,0.8567-2.1939,2.0686
						C33.4189,68.2995,33.4134,69.4232,33.3386,70.5368z M26.1031,68.4835c-0.0668-0.6432-0.0797-1.2498-0.2021-1.8333
						c-0.1831-0.8724-0.6937-1.4846-1.6458-1.5354c-0.7309-0.039-1.4726-0.0601-2.1976,0.0192
						c-1.0561,0.1154-1.6168,0.5891-1.7293,1.6151c-0.1151,1.0496-0.1121,2.1288-0.0095,3.1802
						c0.0824,0.844,0.6156,1.4258,1.5432,1.5275c0.6302,0.0691,1.261,0.1491,1.8826,0.2703
						c0.1864,0.0364,0.432,0.1916,0.4977,0.3542c0.3598,0.8903-0.0712,1.4483-1.0211,1.514
						c-0.8957,0.0619-1.2567-0.3609-1.2742-1.1731c-0.6146,0-1.1845,0-1.7469,0c-0.2515,2.6387,0.6314,3.6172,3.1656,3.5673
						c0.2522-0.005,0.5062-0.0407,0.7549-0.0864c1.4048-0.2582,1.9797-0.8637,2.0946-2.2871
						c0.053-0.6571,0.0471-1.3243,0.0046-1.9828c-0.0979-1.5165-0.5656-1.9983-2.079-2.2182
						c-0.3768-0.0548-0.7549-0.1225-1.1339-0.1343c-0.6777-0.0211-0.9372-0.3477-0.9164-1.0166
						c0.0203-0.653,0.3879-0.7701,0.9381-0.8313c0.8131-0.0904,1.1959,0.2424,1.1971,1.0508
						C24.8456,68.4835,25.4193,68.4835,26.1031,68.4835z M43.1377,73.1246c0.7247,0,1.3065,0.0095,1.888-0.002
						c1.1101-0.022,1.8485-0.4782,1.9391-1.5438c0.1323-1.5566,0.104-3.1379-0.0004-4.699c-0.0544-0.8125-0.5856-1.58-1.4619-1.651
						c-1.4034-0.1137-2.8227-0.0305-4.2278-0.0305c0,3.5787,0,7.1056,0,10.6403c0.6286,0,1.2051,0,1.863,0
						C43.1377,74.9448,43.1377,74.087,43.1377,73.1246z M28.8546,67.6303c0,2.8188,0,5.5065,0,8.2163c0.6517,0,1.2301,0,1.9168,0
						c0-2.7368,0-5.4452,0-8.2429c0.6762,0,1.2475,0,1.8197,0c0-0.8669,0-1.6406,0-2.4219c-1.8775,0-3.6987,0-5.5439,0
						c0,0.8208,0,1.5963,0,2.4485C27.6349,67.6303,28.1824,67.6303,28.8546,67.6303z"/>
					<path d="M25.999,50.5517c1.4826,0,2.7975,0,4.1563,0c0.0308-0.4957,0.057-0.9166,0.0859-1.3814c2.2557,0,4.4849,0,6.8025,0
						c0.02,0.4263,0.0397,0.8459,0.064,1.3637c1.3491,0,2.6819,0,4.1236,0c-0.6962,2.5478-0.8019,4.9896,0.1107,7.4927
						c-1.4611,0-2.8013,0-4.2056,0c-0.0361,0.405-0.0664,0.7443-0.101,1.1334c-2.2669,0-4.5166,0-6.7984,0
						c-0.0241-0.3519-0.0462-0.6753-0.0756-1.104c-1.3959,0-2.7817,0-4.2936,0C26.7955,55.5366,26.6991,53.1102,25.999,50.5517z"/>
					<path d="M25.6785,54.3332c-0.0687,4.2531-3.5473,7.8071-7.7976,8.1019c-4.403,0.3054-7.8841-2.2695-9.0346-5.6824
						c-1.5738-4.6686,1.6946-9.8292,6.6636-10.5491c4.3858-0.6355,8.263,1.5077,9.6952,5.3731
						c0.1664,0.449,0.2974,0.9183,0.3784,1.3896C25.6605,53.4141,25.6503,53.877,25.6785,54.3332z M17.168,50.4622
						c-2.0054-0.006-4.535,1.8802-5.0831,3.6682c-0.0295,0.0962-0.0435,0.1981-0.0562,0.2985
						c-0.3245,2.5656,1.3411,4.8783,3.8757,5.3825c2.7092,0.539,5.3372-0.9518,5.9957-3.4459
						c0.2254-0.8538,0.4084-1.7597-0.1732-2.56c-0.4162-0.5727-0.9513-1.0612-1.3487-1.6449
						C19.5571,50.9549,18.4322,50.4219,17.168,50.4622z M23.8332,53.3586c-0.7656-3.2857-3.7431-5.8849-8.0586-5.2799
						c-2.8966,0.4061-5.545,3.1521-5.1825,5.2765c1.0079-0.2581,1.6309-0.979,2.2108-1.7657
						c2.1802-2.9575,6.1807-2.9513,8.2963,0.0174C21.764,52.5396,22.6088,53.1676,23.8332,53.3586z"/>
					<path d="M50.404,62.4729c-5.1853-0.0199-8.9843-3.7987-8.8688-8.5607c0.0868-3.5767,2.831-6.7167,6.6669-7.6283
						c3.9198-0.9316,8.2027,1.0916,9.8303,4.6437c2.1623,4.719-0.6825,10.23-5.8518,11.3093
						C51.5124,62.3763,50.824,62.4188,50.404,62.4729z M50.319,50.4621c-1.9717-0.0059-4.6258,1.9618-5.0965,3.6554
						c-0.0202,0.0726-0.0163,0.1515-0.0286,0.2267c-0.4412,2.7039,1.3116,5.0081,4.2114,5.5354
						c2.5252,0.4592,5.2754-1.327,5.6823-3.8007c0.1195-0.7267,0.0261-1.5767-0.2513-2.255
						c-0.2653-0.6486-0.9361-1.1197-1.3588-1.7181C52.6568,50.9441,51.5526,50.4168,50.319,50.4621z M56.9794,53.3516
						c-0.59-3.5336-4.3848-6.0688-7.9945-5.424c-2.9625,0.5292-5.6351,3.2811-5.2383,5.3939
						c0.9788-0.2892,1.3102-0.5603,2.2953-1.8777c2.0648-2.7612,6.1219-2.7366,8.1186,0.0634
						C54.8509,52.4752,55.694,53.1719,56.9794,53.3516z"/>
					<path d="M36.0527,47.7953c-1.6277,0-3.2754,0.0195-4.9209-0.0324c-0.152-0.0048-0.4062-0.4595-0.4148-0.712
						c-0.0463-1.3731-0.0313-2.7483-0.0358-4.1228c-0.0077-2.3672-0.031-4.7347-0.0019-7.1015
						c0.004-0.326,0.1911-0.7342,0.4304-0.9573c0.7778-0.7248,1.6192-1.3812,2.4854-2.1052
						c0.8192,0.6928,1.6155,1.3526,2.3903,2.0368c0.1114,0.0983,0.1675,0.3139,0.1677,0.4754
						c0.0064,4.0729,0.0022,8.1458-0.0037,12.2187C36.1494,47.5651,36.1058,47.6352,36.0527,47.7953z"/>
					<path d="M33.6191,18.6779c-0.8758-0.786-1.7268-1.5474-2.5738-2.3132c-0.0919-0.0831-0.2321-0.1937-0.2293-0.2881
						c0.0326-1.1329-0.0935-2.3134,0.1905-3.3835c0.2632-0.9919,1.3706-1.0098,2.2602-1.0269
						c0.9852-0.019,2.0955-0.1023,2.6361,0.9384c0.2713,0.5223,0.1455,1.2385,0.2662,1.8538
						c0.2961,1.5099-0.324,2.5669-1.5493,3.3744C34.2828,18.0547,33.9973,18.3546,33.6191,18.6779z"/>
					<path d="M36.1174,83.0875c-1.7721,0-3.5077,0-5.3017,0c0-1.1717,0-2.3029,0-3.4964c1.7454,0,3.5013,0,5.3017,0
						C36.1174,80.7072,36.1174,81.8136,36.1174,83.0875z"/>
					<path d="M36.116,60.1113c0,0.5465,0,1.0658,0,1.6324c-1.7591,0-3.4973,0-5.2973,0c0-0.5233,0-1.0411,0-1.6324
						C32.5619,60.1113,34.316,60.1113,36.116,60.1113z"/>
					<path class="st0" d="M44.7395,17.2211c-0.7884-0.7458-1.4119-1.3356-2.1052-1.9914c0.399-0.3678,0.726-0.6692,1.0441-0.9624
						c0.9178,0.9158,1.8105,1.8065,2.7695,2.7634c-0.5116,0.4644-1.0294,0.9788-1.6016,1.4229
						c-0.1465,0.1137-0.4822,0.0582-0.7021-0.011c-0.7942-0.2501-1.5761-0.5393-2.3499-0.8092
						c0.599,0.6146,1.1985,1.2297,1.8596,1.9081c-0.4331,0.3804-0.7697,0.676-1.0619,0.9326
						c-0.9443-0.8951-1.8631-1.766-2.8417-2.6935c0.5798-0.5185,1.0837-1.0136,1.6413-1.4381
						c0.1487-0.1132,0.4779-0.0635,0.6966,0.0027C42.9072,16.5928,43.7147,16.8784,44.7395,17.2211z"/>
					<path class="st0" d="M17.5852,11.9551c-0.2367,0.2198-0.4394,0.4079-0.6964,0.6466c-0.3576-0.3263-0.7021-0.6408-0.9218-0.8412
						c0.8939-0.9717,1.7626-1.9161,2.65-2.8808c0.7953,0.7441,1.5649,1.4394,2.3043,2.1656
						c0.4218,0.4142,0.8358,0.8982,0.5108,1.5374c-0.2982,0.5864-0.8029,0.908-1.3273,0.7824
						c-0.2708,0.5097-0.5059,0.9523-0.7931,1.4929c-0.4808-0.4332-0.8287-0.7467-1.1751-1.0588
						C18.8265,12.952,18.7928,12.8413,17.5852,11.9551z M19.0274,10.587c-0.2905,0.2429-0.5163,0.4316-0.7777,0.6501
						c0.4859,0.4103,0.8803,0.7432,1.3018,1.0992c0.2325-0.2474,0.3991-0.4246,0.5864-0.6239
						c-0.1583-0.1891-0.2749-0.3517-0.4151-0.4906C19.5096,11.0106,19.28,10.8159,19.0274,10.587z"/>
					<path class="st0" d="M48.9129,12.9385c-0.2165,0.1726-0.433,0.3451-0.7236,0.5769c-0.1605-0.1774-0.3199-0.3536-0.4999-0.5525
						c0.6172-0.5533,1.1973-1.0733,1.8269-1.6376c0.2994,0.338,0.5563,0.6102,0.7926,0.8993
						c0.3338,0.4081,0.3781,0.8937,0.0114,1.2475c-0.7418,0.7157-1.5187,1.4059-2.3478,2.0161
						c-0.4606,0.339-1.0106,0.2128-1.4691-0.1781c-1.6755-1.4282-1.6873-2.1288-0.0305-3.5687
						c0.3631-0.3155,0.7386-0.6221,1.137-0.8903c0.5178-0.3486,1.0387-0.3745,1.6519,0.2867
						c-0.5465,0.2924-1.0787,0.5117-1.5328,0.8393c-0.4152,0.2995-1.0982,0.7973-1.0369,1.0635
						c0.1114,0.4836,0.6342,0.9449,1.0979,1.2366c0.1677,0.1055,0.6964-0.2555,0.9882-0.4925
						c0.1945-0.158,0.2613-0.4731,0.3853-0.7179C49.0798,13.0239,48.9964,12.9812,48.9129,12.9385z"/>
					<path class="st0" d="M20.3602,34.9966c0.8827-0.7614,1.7142-1.5024,2.5735-2.2095c0.4061-0.3342,0.8714-0.5228,1.4007-0.2075
						c0.5792,0.345,0.7688,0.7271,0.71,1.2589c0.5257,0.2891,0.9871,0.5428,1.5519,0.8534
						c-0.4838,0.4361-0.8174,0.7369-1.144,1.0313c-0.8962-0.6957-0.8962-0.6957-1.9124,0.4292
						c0.1918,0.2145,0.3881,0.4341,0.7103,0.7946c-0.2033,0.1342-0.3978,0.2518-0.5803,0.3858
						c-0.184,0.1351-0.3561,0.2863-0.4715,0.3802C22.2726,36.8268,21.3614,35.9548,20.3602,34.9966z M23.9512,34.5136
						c-0.3731-0.9836-0.8321-0.9015-1.782,0.3062c0.2125,0.1947,0.4264,0.3908,0.6541,0.5994
						c0.253-0.2244,0.4359-0.3989,0.6321-0.5568C23.6146,34.7343,23.7897,34.6261,23.9512,34.5136z"/>
					<path class="st0" d="M27.5385,33.5726c-1.2097-0.2347-1.754-0.9618-2.2299-1.6983c-0.4077-0.6308,0.0163-1.1862,0.4556-1.6201
						c0.5221-0.5156,1.0755-1.0174,1.6829-1.4242c0.7219-0.4836,1.2915-0.3693,1.9233,0.2293
						c1.4224,1.3474,1.4458,1.8762-0.0096,3.2109C28.779,32.8037,28.07,33.1987,27.5385,33.5726z M29.3186,31.0949
						c-0.6265-0.5157-1.0618-1.1504-1.5212-1.1682c-0.3969-0.0154-0.821,0.6703-1.2331,1.0461
						c0.4271,0.3993,0.8071,1.0179,1.2972,1.1231C28.2066,32.1697,28.7014,31.5455,29.3186,31.0949z"/>
					<path class="st0" d="M37.581,21.587c-0.5584,0.2602-1.0418,0.435-1.4696,0.6997c-0.3893,0.2408-0.7182,0.5792-1.0738,0.8745
						c0.0486,0.0928,0.0972,0.1856,0.1459,0.2784c0.2176-0.0681,0.4653-0.0913,0.6471-0.213
						c0.4639-0.3104,0.8848-0.6851,1.3482-0.9962c0.547-0.3672,1.0432-0.2725,1.489,0.2236
						c0.4191,0.4665,0.3996,0.9667,0.0141,1.3705c-0.6288,0.6585-1.3,1.2889-2.0216,1.8421
						c-0.5158,0.3954-0.8798,0.2771-1.52-0.2783c0.4445-0.3115,0.6488-0.885,1.3879-0.8197c0.2771,0.0245,0.6212-0.4,0.8825-0.6702
						c0.0951-0.0983,0.0384-0.3433,0.051-0.5213c-0.1546,0.0206-0.3445-0.009-0.4576,0.0706
						c-0.478,0.3362-0.9237,0.7182-1.3991,1.0584c-0.5634,0.4031-1.0759,0.3323-1.5538-0.1862
						c-0.4905-0.532-0.3734-1.0455,0.0623-1.4865c0.5524-0.5591,1.1458-1.0849,1.7662-1.5676
						C36.3753,20.8802,36.914,20.873,37.581,21.587z"/>
					<path class="st0" d="M33.357,25.3266c-0.5469,0.2649-1.0046,0.4846-1.4603,0.7085c-0.1117,0.0549-0.253,0.0976-0.3184,0.1901
						c-0.2098,0.2963-0.3904,0.6133-0.5823,0.9223c0.2965-0.1278,0.612-0.2245,0.8847-0.3911
						c0.3677-0.2247,0.6999-0.507,1.0521-0.7579c0.5444-0.3878,1.0132-0.3112,1.4876,0.169
						c0.4802,0.4861,0.4538,0.9879,0.0429,1.4153c-0.6306,0.6558-1.3058,1.2816-2.0308,1.8292
						c-0.4961,0.3748-1.0494,0.2751-1.6106-0.3978c0.538-0.2477,1.0074-0.4645,1.4775-0.6797
						c0.0683-0.0312,0.1597-0.0357,0.2072-0.0847c0.2947-0.3043,0.5824-0.6156,0.8591-0.9361
						c0.0108-0.0125-0.1507-0.2166-0.1709-0.2067c-0.3269,0.1599-0.655,0.3227-0.9602,0.52
						c-0.3408,0.2203-0.6412,0.506-0.9905,0.7094c-0.5387,0.3137-1.0248,0.177-1.4275-0.2801
						c-0.4051-0.4598-0.387-0.9695,0.008-1.3778c0.5813-0.6007,1.2062-1.1694,1.87-1.6767
						C32.1849,24.6272,32.73,24.662,33.357,25.3266z"/>
					<path class="st0" d="M39.6845,31.6809c-0.2765,0.5078-0.5186,0.9523-0.8157,1.4978c-0.4285-0.4068-0.7306-0.6936-1.0274-0.9753
						c0.6337-0.8507,0.6337-0.8507-0.3842-1.7238c-0.2455,0.1901-0.4995,0.3868-0.7969,0.6171
						c-0.2949-0.2711-0.5912-0.5436-0.8099-0.7447c0.8743-0.9656,1.7346-1.9157,2.6324-2.9073
						c0.7553,0.7088,1.4277,1.3235,2.0804,1.9584c0.3911,0.3804,0.7984,0.8311,0.4785,1.4001
						C40.7289,31.3598,40.2915,31.8666,39.6845,31.6809z M38.8096,29.1235c-0.2217,0.211-0.4361,0.415-0.6498,0.6184
						c1.0506,1.1147,1.0506,1.1147,1.6193,0.313C39.4783,29.7661,39.1715,29.4712,38.8096,29.1235z"/>
					<path class="st0" d="M46.6275,40.4482c0.9008-0.9684,1.7607-1.8928,2.7848-2.9938c0.783,0.8488,1.5423,1.6239,2.2431,2.4488
						c0.449,0.5286,0.4117,1.116-0.0519,1.6531c-0.0496,0.0574-0.1035,0.1111-0.156,0.166
						c-1.4006,1.4656-1.9024,1.477-3.3802,0.0797C47.5717,41.3335,47.0737,40.8677,46.6275,40.4482z M49.733,39.1951
						c-0.6085,0.5335-1.076,0.9433-1.703,1.493c0.6235,0.3208,1.1094,0.7766,1.548,0.7349c0.39-0.0371,1.0265-0.6367,1.0143-0.9681
						C50.5761,40.0174,50.0331,39.5994,49.733,39.1951z"/>
					<path class="st0" d="M23.545,18.8459c-0.4157-0.3731-0.7529-0.6758-1.081-0.9703c0.2661-0.9635-0.6287-1.8357-1.6381-1.859
						c-0.4349-0.01-0.8586-0.5096-1.4521-0.8933c1.4452-0.5792,2.6948-1.0889,3.9553-1.5699
						c0.1144-0.0436,0.3287,0.0618,0.447,0.1586c1.4179,1.1592,1.4161,1.1625,0.7175,2.8535
						C24.1934,17.2922,23.8897,18.0175,23.545,18.8459z M22.1621,15.572c0.297,0.2524,0.5734,0.4873,0.9072,0.771
						c0.22-0.5154,0.3965-0.9287,0.6271-1.4689c-0.5235,0.2085-0.8772,0.3446-1.2262,0.4917
						C22.3788,15.4043,22.3018,15.4769,22.1621,15.572z"/>
					<path class="st0" d="M44.6116,33.9667c-0.1896,0.8564-0.9314,1.3434-1.6189,1.8369c-0.5272,0.3785-1.1107,0.1598-1.552-0.205
						c-0.5628-0.4652-1.101-0.9816-1.5534-1.5523c-0.3832-0.4835-0.3242-1.05,0.1159-1.5299
						c0.0687-0.0749,0.1371-0.1514,0.2145-0.2166c0.5638-0.4746,0.9955-1.2998,1.9059-0.9943
						c1.1055,0.371,1.8683,1.1917,2.4228,2.2019C44.6032,33.6107,44.5844,33.7555,44.6116,33.9667z M42.2297,32.2597
						c-0.4984,0.5518-1.0212,0.9414-1.2216,1.4565c-0.069,0.1773,0.8102,1.0243,1.007,0.9452
						c0.5074-0.204,0.9935-0.6973,1.2349-1.1974C43.3331,33.2917,42.6673,32.758,42.2297,32.2597z"/>
					<path class="st0" d="M21.0589,37.48c0.7363,0.6917,0.865,1.1901,0.3403,1.759c-0.611,0.6625-1.3285,1.2417-2.0622,1.7706
						c-0.4668,0.3366-1.0171,0.2319-1.4814-0.1402c-0.0396-0.0317-0.0817-0.0604-0.1205-0.0931
						c-1.5628-1.317-1.5855-1.9728-0.0948-3.3646c0.3327-0.3106,0.6824-0.6117,1.06-0.8636
						c0.7071-0.4718,1.0671-0.3999,1.731,0.2991c-0.4795,0.3255-0.6902,0.9694-1.5157,0.8699
						c-0.27-0.0326-0.9591,0.8274-0.8818,0.9718c0.252,0.471,0.7149,0.9148,1.2024,1.1458
						c0.3571,0.1692,0.8517-0.7071,0.9767-1.1648C20.3291,38.2447,20.7444,37.9011,21.0589,37.48z"/>
					<path class="st0" d="M42.633,36.6851c1.2713-0.5686,2.4364-1.1023,3.6165-1.6004c0.1358-0.0573,0.3978,0.033,0.5282,0.1422
						c0.4071,0.3405,0.7791,0.7229,1.1859,1.1093c-0.5733,1.2343-1.1357,2.4452-1.7448,3.7567
						c-0.343-0.5282-1.233-0.6253-0.7495-1.4767c-0.4445-0.4001-1.0012-1.2083-1.3123-1.1228
						C43.2716,37.7367,43.1631,37.0475,42.633,36.6851z M46.6213,36.2672c-0.6245,0.296-1.0353,0.4906-1.5327,0.7264
						c0.3206,0.2899,0.5387,0.4871,0.8108,0.7331C46.1276,37.2654,46.324,36.8684,46.6213,36.2672z"/>
					<path class="st0" d="M28.4694,18.2233c0.413,0.3701,0.732,0.656,1.1161,1.0002c-0.761,0.6788-1.4918,1.3307-2.2361,1.9947
						c0.6813,0.6335,1.1996,1.1155,1.8073,1.6805c-0.244,0.2258-0.4409,0.4081-0.6951,0.6435
						c-0.9369-0.868-1.8237-1.6895-2.6958-2.4976C26.6789,20.0917,27.5516,19.181,28.4694,18.2233z"/>
					<path class="st0" d="M37.6773,19.6236c0.3288-0.2932,0.665-0.5929,0.9303-0.8295c0.941,0.8858,1.8591,1.75,2.8459,2.6788
						c-0.3594,0.3315-0.6835,0.6304-0.9783,0.9023C39.5297,21.4455,38.6205,20.5512,37.6773,19.6236z"/>
					<path class="st0" d="M25.0777,20.3049c-0.3549-0.337-0.6785-0.6441-0.9669-0.9179c0.8969-0.9547,1.7575-1.8708,2.66-2.8316
						c0.3868,0.3636,0.7266,0.6829,0.97,0.9117C26.8355,18.4316,25.9759,19.3477,25.0777,20.3049z"/>
					<path class="st0" d="M33.3386,70.5368c0.0748-1.1135,0.0803-2.2373,0.243-3.3378c0.1792-1.2119,0.9414-1.9666,2.1939-2.0686
						c0.7004-0.057,1.4248-0.0596,2.115,0.0544c1.0753,0.1777,1.8703,1.1189,1.9299,2.444c0.0867,1.9279,0.1249,3.87-0.0102,5.7925
						c-0.1355,1.9276-1.5793,2.8232-3.7586,2.5557c-1.6516-0.2027-2.5089-1.1061-2.6141-2.8398
						c-0.0523-0.8623-0.0091-1.7304-0.0091-2.5959C33.3985,70.5398,33.3686,70.5383,33.3386,70.5368z M37.8821,70.5957
						c0-0.7117,0.0285-1.4249-0.0076-2.1349c-0.0402-0.7915-0.6121-0.8762-1.2512-0.882c-0.6332-0.0058-1.1673,0.1522-1.1903,0.8689
						c-0.0439,1.3707-0.0416,2.7446-0.0017,4.1155c0.0209,0.7179,0.539,0.8815,1.1803,0.8749
						c0.6356-0.0066,1.2154-0.0626,1.2625-0.8603C37.9128,71.9193,37.8819,71.2567,37.8821,70.5957z"/>
					<path class="st0" d="M26.1031,68.4835c-0.6838,0-1.2575,0-1.8774,0c-0.0013-0.8083-0.384-1.1411-1.1971-1.0508
						c-0.5503,0.0612-0.9178,0.1783-0.9381,0.8313c-0.0208,0.6689,0.2387,0.9955,0.9164,1.0166
						c0.3791,0.0118,0.7572,0.0796,1.1339,0.1343c1.5134,0.2199,1.9811,0.7017,2.079,2.2182
						c0.0425,0.6585,0.0484,1.3257-0.0046,1.9828c-0.1148,1.4235-0.6898,2.029-2.0946,2.2871
						c-0.2487,0.0457-0.5027,0.0815-0.7549,0.0864c-2.5342,0.0499-3.4171-0.9286-3.1656-3.5673c0.5624,0,1.1323,0,1.7469,0
						c0.0175,0.8122,0.3785,1.235,1.2742,1.1731c0.9499-0.0657,1.3809-0.6237,1.0211-1.514
						c-0.0657-0.1626-0.3113-0.3178-0.4977-0.3542c-0.6216-0.1212-1.2524-0.2013-1.8826-0.2703
						c-0.9276-0.1017-1.4608-0.6835-1.5432-1.5275c-0.1027-1.0514-0.1057-2.1307,0.0095-3.1802
						c0.1126-1.026,0.6732-1.4998,1.7293-1.6151c0.725-0.0792,1.4667-0.0582,2.1976-0.0192
						c0.9521,0.0508,1.4627,0.663,1.6458,1.5354C26.0234,67.2338,26.0363,67.8403,26.1031,68.4835z"/>
					<path class="st0" d="M43.1377,73.1246c0,0.9624,0,1.8202,0,2.714c-0.6579,0-1.2344,0-1.863,0c0-3.5347,0-7.0616,0-10.6403
						c1.405,0,2.8244-0.0833,4.2278,0.0305c0.8762,0.071,1.4075,0.8385,1.4619,1.651c0.1044,1.5611,0.1327,3.1424,0.0004,4.699
						c-0.0906,1.0656-0.8289,1.5218-1.9391,1.5438C44.4442,73.1341,43.8624,73.1246,43.1377,73.1246z M43.1404,67.7233
						c0,0.735-0.0274,1.4673,0.0153,2.1954c0.0143,0.2444,0.2096,0.6837,0.3183,0.6825c0.5675-0.0061,1.2993,0.3205,1.6425-0.391
						c0.7291-1.5112-0.0589-2.6725-1.698-2.5754C43.3712,67.6377,43.3252,67.6635,43.1404,67.7233z"/>
					<path class="st0" d="M28.8546,67.6303c-0.6723,0-1.2197,0-1.8074,0c0-0.8522,0-1.6276,0-2.4485c1.8452,0,3.6664,0,5.5439,0
						c0,0.7813,0,1.5551,0,2.4219c-0.5723,0-1.1436,0-1.8197,0c0,2.7977,0,5.506,0,8.2429c-0.6867,0-1.2651,0-1.9168,0
						C28.8546,73.1368,28.8546,70.449,28.8546,67.6303z"/>
					<path class="st0" d="M17.168,50.4622c1.2642-0.0404,2.3891,0.4927,3.2102,1.6984c0.3975,0.5837,0.9326,1.0722,1.3487,1.6449
						c0.5816,0.8003,0.3986,1.7062,0.1732,2.56c-0.6585,2.4941-3.2865,3.9848-5.9957,3.4459
						c-2.5346-0.5042-4.2002-2.8168-3.8757-5.3825c0.0127-0.1003,0.0267-0.2022,0.0562-0.2985
						C12.6331,52.3424,15.1627,50.4563,17.168,50.4622z"/>
					<path class="st0" d="M23.8332,53.3586c-1.2244-0.1911-2.0693-0.819-2.7339-1.7517c-2.1157-2.9687-6.1162-2.9749-8.2963-0.0174
						c-0.5799,0.7867-1.2029,1.5076-2.2108,1.7657c-0.3626-2.1244,2.2859-4.8704,5.1825-5.2765
						C20.0901,47.4737,23.0677,50.073,23.8332,53.3586z"/>
					<path class="st0" d="M50.319,50.4621c1.2336-0.0453,2.3378,0.482,3.1584,1.6438c0.4227,0.5985,1.0936,1.0695,1.3588,1.7181
						c0.2774,0.6783,0.3709,1.5283,0.2513,2.255c-0.4069,2.4736-3.1571,4.2599-5.6823,3.8007
						c-2.8998-0.5273-4.6526-2.8316-4.2114-5.5354c0.0123-0.0752,0.0084-0.1541,0.0286-0.2267
						C45.6932,52.4239,48.3473,50.4562,50.319,50.4621z"/>
					<path class="st0" d="M56.9794,53.3516c-1.2854-0.1798-2.1285-0.8764-2.8188-1.8444c-1.9967-2.8-6.0539-2.8246-8.1186-0.0634
						c-0.9851,1.3174-1.3165,1.5885-2.2953,1.8777c-0.3968-2.1128,2.2757-4.8647,5.2383-5.3939
						C52.5947,47.2829,56.3894,49.818,56.9794,53.3516z"/>
					<path d="M19.0274,10.587c0.2526,0.2289,0.4822,0.4236,0.6954,0.6348c0.1402,0.1388,0.2568,0.3015,0.4151,0.4906
						c-0.1873,0.1993-0.3539,0.3765-0.5864,0.6239c-0.4216-0.356-0.8159-0.6889-1.3018-1.0992
						C18.5111,11.0186,18.7368,10.8299,19.0274,10.587z"/>
					<path d="M23.9512,34.5136c-0.1615,0.1125-0.3366,0.2207-0.4958,0.3488c-0.1962,0.1579-0.3791,0.3324-0.6321,0.5568
						c-0.2277-0.2086-0.4416-0.4047-0.6541-0.5994C23.1191,33.612,23.5781,33.5299,23.9512,34.5136z"/>
					<path d="M29.3186,31.0949c-0.6172,0.4507-1.112,1.0749-1.457,1.0009c-0.4902-0.1051-0.8702-0.7238-1.2972-1.1231
						c0.4121-0.3758,0.8362-1.0615,1.2331-1.0461C28.2568,29.9444,28.6921,30.5792,29.3186,31.0949z"/>
					<path d="M38.8096,29.1235c0.3619,0.3477,0.6688,0.6426,0.9695,0.9315c-0.5687,0.8016-0.5687,0.8016-1.6193-0.313
						C38.3735,29.5385,38.5878,29.3345,38.8096,29.1235z"/>
					<path d="M49.733,39.1951c0.3001,0.4042,0.8432,0.8223,0.8593,1.2597c0.0122,0.3314-0.6243,0.9311-1.0143,0.9681
						c-0.4386,0.0417-0.9245-0.4141-1.548-0.7349C48.6569,40.1385,49.1244,39.7286,49.733,39.1951z"/>
					<path d="M22.1621,15.572c0.1397-0.0951,0.2167-0.1677,0.3081-0.2062c0.349-0.147,0.7027-0.2831,1.2262-0.4917
						c-0.2306,0.5402-0.4071,0.9535-0.6271,1.4689C22.7355,16.0593,22.4591,15.8244,22.1621,15.572z"/>
					<path d="M42.2297,32.2597c0.4376,0.4983,1.1034,1.032,1.0203,1.2043c-0.2413,0.5-0.7274,0.9934-1.2349,1.1974
						c-0.1968,0.0791-1.0759-0.7679-1.007-0.9452C41.2085,33.2011,41.7313,32.8114,42.2297,32.2597z"/>
					<path d="M46.6213,36.2672c-0.2974,0.6012-0.4937,0.9982-0.7219,1.4595c-0.2721-0.246-0.4902-0.4432-0.8108-0.7331
						C45.5861,36.7578,45.9969,36.5632,46.6213,36.2672z"/>
					<path d="M37.882,70.5958c-0.0001,0.6609,0.0308,1.3235-0.008,1.982c-0.0471,0.7977-0.6268,0.8536-1.2625,0.8603
						c-0.6412,0.0067-1.1594-0.157-1.1803-0.8749c-0.0399-1.3709-0.0422-2.7448,0.0017-4.1155
						c0.023-0.7167,0.5571-0.8747,1.1903-0.8689c0.6391,0.0058,1.211,0.0905,1.2512,0.882
						C37.9106,69.1708,37.8821,69.8839,37.882,70.5958z"/>
					<path d="M43.1404,67.7233c0.1848-0.0598,0.2308-0.0856,0.2782-0.0884c1.6391-0.0971,2.4271,1.0642,1.698,2.5754
						c-0.3432,0.7115-1.0751,0.3848-1.6425,0.391c-0.1087,0.0012-0.3039-0.4382-0.3183-0.6825
						C43.113,69.1906,43.1404,68.4583,43.1404,67.7233z"/>
				</g>
			</g>
			<path d="M42.1028,150.8766H24.8289c-0.7421,0-1.3493-0.6072-1.3493-1.3493v-10.4263c0-0.7421,0.6072-1.3493,1.3493-1.3493
				h17.2738c0.7421,0,1.3493,0.6072,1.3493,1.3493v10.4263C43.4521,150.2694,42.8449,150.8766,42.1028,150.8766z"/>
			<rect x="30.8157" y="83.0875" width="5.3003" height="54.6642"/>
		</g>
		<path d="M26.7132,121.9427h-3.955c-2.7429,0-4.987-2.2442-4.987-4.987v-10.579c0-2.7429,2.2442-4.987,4.987-4.987h3.955
			c2.7429,0,4.987,2.2442,4.987,4.987v10.579C31.7002,119.6985,29.4561,121.9427,26.7132,121.9427z"/>
	</g>
	<g id="Post_copy_5">
	</g>
	<path class="st3" d="M13.2429,52.0461c0,0-3.3186,2.3938-0.4095,6.0553c2.7797,3.4985,6.5403,1.6052,7.4064,0.8144
		c0.8661-0.7907,3.2253-2.3507,1.2401-5.5888c-1.9852-3.2381-3.7181-3.0232-4.2918-3.0388
		C16.7069,50.2751,15.6671,49.8141,13.2429,52.0461z"/>
	<path class="st4" d="M46.3348,52.2868c0,0-3.2906,1.9626-0.4012,5.6397c2.8895,3.6771,6.4823,1.803,7.3484,1.0123
		c0.8661-0.7907,3.2253-2.3507,1.2401-5.5888c-1.9852-3.2381-3.7204-3.0925-4.2918-3.0388
		C49.6589,50.3648,48.2791,50.4104,46.3348,52.2868z"/>
</g>
<g id="Gate_Right" class="st1">
	<g class="st5">
		<g>
			<g>
				<path d="M312.1974,170.8618c-1.2688-1.5201-3.2655-1.4579-4.4373,0.1382c0,0-10.1196,13.7851-10.8696,14.379h-21.4
					c-1.98,0-3.6,1.62-3.6,3.6v3.6125c0,1.98,1.6199,3.6179,3.5998,3.6398l20.7971,0.2297
					c1.9799,0.0219,4.5751-1.2537,5.7672-2.8346l11.6651-15.4698c1.1921-1.5809,1.1294-4.1181-0.1394-5.6381L312.1974,170.8618z"/>
			</g>
			<circle class="st6" cx="309.8709" cy="175.4719" r="3.3808"/>
		</g>
		<g>
			<rect x="39.6405" y="187.9899" width="236.8098" height="5.7604"/>
			<g>
				<polygon class="st0" points="94.628,188.5275 90.6549,193.1525 64.3711,193.1525 68.3442,188.5275 				"/>
				<polygon class="st0" points="147.1957,188.5275 143.2225,193.1525 116.9387,193.1525 120.9119,188.5275 				"/>
				<polygon class="st0" points="199.4577,188.5275 195.4845,193.1525 169.2007,193.1525 173.1739,188.5275 				"/>
				<polygon class="st0" points="251.7197,188.5877 247.7466,193.2127 221.4627,193.2127 225.4359,188.5877 				"/>
			</g>
		</g>
	</g>
</g>
<g id="Gate_Left" class="st1">
</g>
<g id="Right_Light_On" class="st1">
	<g id="Layer_1_copy" class="st5">
	</g>
	<g id="Post_copy" class="st5">
	</g>
</g>
<g id="Left_Light_On">
	<g id="Layer_1_copy_2" class="st1">
	</g>
	<g id="Post_copy_2">
	</g>
</g>
<g id="Right_Light_On_copy">
	<g id="Layer_1_copy_4">
	</g>
	<g id="Light_copy_3">
	</g>
	<g id="Post_copy_4">
	</g>
</g>
<g id="Left_Light_On_copy">
	<g id="Layer_1_copy_3">
	</g>
	<g id="Light_copy_2">
	</g>
	<g id="Post_copy_3">
	</g>
</g>
</svg>
