<?xml version="1.0" encoding="utf-8"?>
<!-- Generator: Adobe Illustrator 19.1.0, SVG Export Plug-In . SVG Version: 6.00 Build 0)  -->
<svg version="1.1" xmlns="http://www.w3.org/2000/svg" xmlns:xlink="http://www.w3.org/1999/xlink" x="0px" y="0px"
	 viewBox="0 0 360 360" style="enable-background:new 0 0 360 360;" xml:space="preserve">
<style type="text/css">
	.st0{fill:#FFFFFF;}
	.st1{display:none;}
	.st2{display:inline;fill:#ED1F24;}
	.st3{display:none;fill:#ED1F24;}
	.st4{display:inline;}
	.st5{fill:#898989;}
	.st6{fill:#ED1F24;}
</style>
<g id="No_Lights_Crossing">
	<g id="Layer_1">
		<g>
			<g>
				<g>
					<path class="st0" d="M375.5122,93.9057c-30.97,0-61.9399,0-92.9099,0c0-30.97,0-61.94,0-92.9099c30.97,0,61.9399,0,92.9099,0
						C375.5122,31.9657,375.5122,62.9357,375.5122,93.9057z M353.2979,45.4096c-5.83-5.4555-11.6057-10.8603-17.426-16.3068
						c5.8368-5.1955,11.6094-10.3339,17.4286-15.5138c-2.1063-2.0346-4.1187-3.9784-6.177-5.9667
						c-5.7517,5.115-11.6202,10.3339-17.5413,15.5995c-5.8582-5.4772-11.6812-10.9214-17.5293-16.3891
						c-2.052,1.9832-4.0833,3.9463-6.1753,5.9681c5.7706,5.3987,11.4848,10.7447,17.2629,16.1505
						c-6.0394,5.3751-12.0527,10.727-18.1217,16.1285c2.095,2.0102,4.1275,3.9604,6.1992,5.9483
						c5.9877-5.3245,12.0856-10.7471,18.2109-16.194c5.9207,5.5352,11.7852,11.0179,17.6985,16.5463
						C349.1972,49.3778,351.2231,47.4174,353.2979,45.4096z M328.9488,88.5786c4.3788,0,8.7577-0.0111,13.1365,0.0041
						c2.6718,0.0093,4.883-2.1855,4.7895-4.7525c-0.101-2.7724-0.1234-5.5562,0.0072-8.3261
						c0.1164-2.4688-1.784-4.901-4.8205-4.9165c-8.7288-0.0444-17.4581-0.0371-26.187-0.0034
						c-2.8733,0.0111-4.8326,2.055-4.8434,4.9007c-0.0105,2.7475-0.0128,5.495,0.0007,8.2425
						c0.0141,2.8501,2.0249,4.8477,4.8664,4.8502C320.2484,88.5815,324.5986,88.5786,328.9488,88.5786z M320.7962,57.0621
						c0.7864,2.8742,0.8948,5.6-0.1473,8.4304c1.6984,0,3.2551,0,4.8233,0c0.033,0.4815,0.0578,0.8449,0.0849,1.2402
						c2.5633,0,5.0906,0,7.6372,0c0.039-0.4371,0.0729-0.8183,0.1135-1.2732c1.5775,0,3.083,0,4.7245,0
						c-1.0251-2.8119-0.9064-5.555-0.1243-8.4172c-1.6196,0-3.1169,0-4.6324,0c-0.0273-0.5818-0.0494-1.0531-0.0718-1.532
						c-2.6036,0-5.1078,0-7.6418,0c-0.0325,0.5221-0.0619,0.995-0.0965,1.5518C323.9389,57.0621,322.4617,57.0621,320.7962,57.0621z
						 M320.4361,61.3103c-0.0316-0.5126-0.0201-1.0325-0.1066-1.5357c-0.091-0.5294-0.2382-1.0566-0.4251-1.561
						c-1.609-4.3422-5.9645-6.7499-10.8914-6.036c-5.5822,0.8088-9.2538,6.6061-7.4858,11.8507
						c1.2924,3.834,5.203,6.7266,10.1493,6.3835C316.4511,70.0806,320.3589,66.0881,320.4361,61.3103z M348.2124,70.4542
						c0.4719-0.0607,1.2452-0.1084,1.9958-0.2652c5.8071-1.2125,9.0029-7.4035,6.5738-12.7047
						c-1.8285-3.9904-6.6399-6.2632-11.0432-5.2167c-4.3091,1.0241-7.392,4.5515-7.4894,8.5695
						C338.1195,66.1867,342.3873,70.4318,348.2124,70.4542z M332.0904,53.9657c0.0597-0.1799,0.1086-0.2586,0.1087-0.3374
						c0.0066-4.5754,0.0113-9.1508,0.0042-13.7262c-0.0003-0.1814-0.0633-0.4236-0.1884-0.5341
						c-0.8704-0.7686-1.765-1.5098-2.6853-2.2881c-0.9731,0.8133-1.9183,1.5507-2.7921,2.365
						c-0.2689,0.2506-0.479,0.7092-0.4836,1.0754c-0.0327,2.6588-0.0066,5.3184,0.0021,7.9777
						c0.005,1.5441-0.0118,3.089,0.0402,4.6315c0.0096,0.2836,0.2951,0.7945,0.4659,0.7998
						C328.4108,53.9876,330.2619,53.9657,332.0904,53.9657z M329.3565,21.2557c0.4249-0.3632,0.7456-0.7001,1.1239-0.9494
						c1.3765-0.9071,2.073-2.0945,1.7404-3.7907c-0.1356-0.6913,0.0057-1.4958-0.299-2.0826
						c-0.6072-1.1691-1.8546-1.0755-2.9613-1.0542c-0.9994,0.0193-2.2434,0.0394-2.5391,1.1536
						c-0.319,1.2022-0.1773,2.5283-0.214,3.801c-0.0031,0.106,0.1544,0.2303,0.2577,0.3236
						C327.4166,19.5173,328.3726,20.3727,329.3565,21.2557z M332.1631,93.6123c0-1.4311,0-2.674,0-3.9278
						c-2.0225,0-3.9951,0-5.9558,0c0,1.3408,0,2.6115,0,3.9278C328.2226,93.6123,330.1723,93.6123,332.1631,93.6123z
						 M332.1615,67.8013c-2.0222,0-3.9926,0-5.9509,0c0,0.6642,0,1.2459,0,1.8338c2.0221,0,3.9748,0,5.9509,0
						C332.1615,68.9985,332.1615,68.4152,332.1615,67.8013z"/>
					<path d="M353.2979,45.4096c-2.0749,2.0078-4.1008,3.9682-6.1704,5.9708c-5.9134-5.5284-11.7779-11.0111-17.6985-16.5463
						c-6.1253,5.4469-12.2233,10.8695-18.2109,16.194c-2.0717-1.9879-4.1042-3.9381-6.1992-5.9483
						c6.0691-5.4015,12.0823-10.7534,18.1217-16.1285c-5.7781-5.4058-11.4923-10.7517-17.2629-16.1505
						c2.092-2.0218,4.1233-3.9849,6.1753-5.9681c5.8481,5.4677,11.6711,10.9119,17.5293,16.3891
						c5.921-5.2656,11.7896-10.4845,17.5413-15.5995c2.0583,1.9883,4.0707,3.9321,6.177,5.9667
						c-5.8192,5.1798-11.5918,10.3183-17.4286,15.5138C341.6923,34.5494,347.468,39.9541,353.2979,45.4096z M341.849,19.6191
						c-1.1513-0.385-2.0584-0.7059-2.9784-0.9843c-0.2457-0.0744-0.6155-0.1302-0.7826-0.003
						c-0.6264,0.4769-1.1924,1.033-1.8438,1.6155c1.0993,1.042,2.1315,2.0203,3.1924,3.0258
						c0.3283-0.2883,0.7064-0.6204,1.1929-1.0477c-0.7427-0.762-1.4162-1.4531-2.0891-2.1435
						c0.8693,0.3033,1.7477,0.6281,2.6398,0.9091c0.2471,0.0778,0.6242,0.1401,0.7887,0.0124
						c0.6429-0.4989,1.2245-1.0768,1.7992-1.5984c-1.0773-1.0749-2.0801-2.0756-3.1112-3.1043
						c-0.3574,0.3294-0.7247,0.668-1.1729,1.0812C340.2628,18.1187,340.9633,18.7813,341.849,19.6191z M311.3443,13.7034
						c1.3565,0.9955,1.3945,1.1198,0.6194,2.0716c0.3891,0.3506,0.7799,0.7027,1.32,1.1894
						c0.3226-0.6073,0.5868-1.1046,0.891-1.6771c0.5891,0.1411,1.1561-0.2201,1.4911-0.8789c0.3651-0.7181-0.1-1.2617-0.5738-1.7271
						c-0.8306-0.8158-1.6953-1.5969-2.5887-2.4328c-0.9969,1.0837-1.9728,2.1446-2.977,3.2362
						c0.2468,0.2252,0.6339,0.5784,1.0355,0.945C310.8507,14.1617,311.0784,13.9503,311.3443,13.7034z M346.5373,14.8081
						c0.0938,0.0479,0.1875,0.0959,0.2812,0.1438c-0.1393,0.275-0.2143,0.629-0.4328,0.8065
						c-0.3278,0.2663-0.9217,0.6718-1.1101,0.5533c-0.5209-0.3277-1.1082-0.8459-1.2334-1.3892
						c-0.0689-0.299,0.6984-0.8582,1.1648-1.1947c0.5101-0.368,1.108-0.6144,1.7219-0.9429
						c-0.6888-0.7427-1.274-0.7137-1.8557-0.322c-0.4475,0.3013-0.8694,0.6457-1.2773,1.0001
						c-1.8612,1.6176-1.8479,2.4046,0.0343,4.009c0.5151,0.4391,1.133,0.5809,1.6504,0.2001
						c0.9314-0.6855,1.8041-1.4608,2.6375-2.2649c0.4119-0.3974,0.3622-0.9429-0.0128-1.4014
						c-0.2655-0.3247-0.5541-0.6305-0.8904-1.0102c-0.7073,0.634-1.3589,1.2182-2.0523,1.8397
						c0.2022,0.2235,0.3813,0.4215,0.5616,0.6207C346.051,15.1959,346.2941,15.002,346.5373,14.8081z M314.4616,39.5878
						c1.1248,1.0765,2.1483,2.0561,3.1883,3.0514c0.1297-0.1054,0.323-0.2753,0.5297-0.4271
						c0.205-0.1505,0.4235-0.2827,0.6519-0.4334c-0.362-0.4049-0.5825-0.6516-0.798-0.8926
						c1.1416-1.2636,1.1416-1.2636,2.1484-0.4821c0.3669-0.3308,0.7417-0.6686,1.2852-1.1586
						c-0.6344-0.3489-1.1528-0.6339-1.7433-0.9587c0.066-0.5974-0.1469-1.0267-0.7976-1.4142
						c-0.5947-0.3542-1.1174-0.1423-1.5735,0.2332C316.3874,37.9,315.4533,38.7324,314.4616,39.5878z M322.5257,37.9881
						c0.5971-0.42,1.3936-0.8637,2.0472-1.4632c1.635-1.4993,1.6087-2.0934,0.0108-3.607
						c-0.7098-0.6724-1.3496-0.8009-2.1607-0.2576c-0.6823,0.4571-1.304,1.0207-1.8905,1.6
						c-0.4936,0.4874-0.9698,1.1113-0.5118,1.82C320.5553,36.9076,321.1667,37.7244,322.5257,37.9881z M333.8073,24.5236
						c-0.7493-0.8021-1.3546-0.794-1.9112-0.3609c-0.6969,0.5423-1.3635,1.1328-1.9841,1.761
						c-0.4895,0.4955-0.621,1.0722-0.07,1.6699c0.5369,0.5825,1.1127,0.662,1.7455,0.2091c0.5341-0.3822,1.0348-0.8113,1.5717-1.189
						c0.1271-0.0894,0.3404-0.0561,0.5141-0.0793c-0.0141,0.2,0.0495,0.4753-0.0573,0.5857
						c-0.2936,0.3036-0.6801,0.7804-0.9915,0.7529c-0.8304-0.0733-1.0598,0.571-1.5591,0.9209
						c0.7192,0.6239,1.1281,0.7569,1.7075,0.3126c0.8106-0.6215,1.5647-1.3296,2.2711-2.0694
						c0.4331-0.4536,0.455-1.0155-0.0158-1.5396c-0.5007-0.5573-1.0582-0.6637-1.6727-0.2512
						c-0.5207,0.3495-0.9934,0.7704-1.5146,1.1192c-0.2042,0.1367-0.4824,0.1628-0.7269,0.2393
						c-0.0546-0.1042-0.1092-0.2085-0.1638-0.3127c0.3994-0.3318,0.7689-0.7119,1.2062-0.9824
						C332.637,25.0124,333.18,24.816,333.8073,24.5236z M329.062,28.7247c-0.7043-0.7466-1.3167-0.7856-1.8675-0.3647
						c-0.7456,0.5698-1.4476,1.2087-2.1007,1.8835c-0.4438,0.4586-0.4641,1.0312-0.009,1.5478
						c0.4525,0.5135,0.9986,0.6671,1.6037,0.3147c0.3924-0.2285,0.7299-0.5495,1.1127-0.797
						c0.3428-0.2216,0.7115-0.4046,1.0787-0.5842c0.0227-0.0111,0.2042,0.2181,0.192,0.2322
						c-0.3108,0.3601-0.6339,0.7098-0.965,1.0516c-0.0534,0.0551-0.1561,0.0601-0.2328,0.0952
						c-0.5281,0.2417-1.0554,0.4852-1.6598,0.7635c0.6304,0.7559,1.252,0.8679,1.8094,0.4469
						c0.8144-0.6152,1.5729-1.3182,2.2813-2.0549c0.4616-0.4801,0.4913-1.0438-0.0482-1.5899
						c-0.5329-0.5395-1.0596-0.6256-1.6711-0.1899c-0.3956,0.2819-0.7688,0.599-1.1819,0.8514
						c-0.3064,0.1872-0.6609,0.2958-0.9939,0.4394c0.2155-0.3471,0.4184-0.7032,0.6541-1.0361
						c0.0735-0.1038,0.2321-0.1518,0.3577-0.2135C327.9335,29.2691,328.4476,29.0222,329.062,28.7247z M336.1702,35.863
						c0.6819,0.2087,1.1733-0.3607,1.5247-0.9858c0.3594-0.6393-0.0982-1.1455-0.5375-1.5729
						c-0.7332-0.7133-1.4886-1.4038-2.3371-2.2001c-1.0086,1.1139-1.975,2.1813-2.9572,3.266
						c0.2457,0.2259,0.5786,0.532,0.9098,0.8366c0.3341-0.2587,0.6195-0.4797,0.8953-0.6933
						c1.1436,0.9808,1.1436,0.9808,0.4316,1.9365c0.3334,0.3165,0.6728,0.6387,1.1541,1.0956
						C335.5876,36.9328,335.8596,36.4334,336.1702,35.863z M343.9699,45.712c0.5013,0.4713,1.0608,0.9946,1.6174,1.5209
						c1.6601,1.5697,2.2238,1.5569,3.7972-0.0895c0.059-0.0617,0.1196-0.122,0.1753-0.1865
						c0.5208-0.6033,0.5627-1.2633,0.0583-1.857c-0.7873-0.9266-1.6402-1.7975-2.5198-2.751
						C345.9478,43.5857,344.9818,44.6241,343.9699,45.712z M318.0394,21.4444c0.3873-0.9307,0.7284-1.7454,1.0657-2.5618
						c0.7848-1.8996,0.7868-1.9033-0.806-3.2055c-0.133-0.1087-0.3737-0.2272-0.5022-0.1782
						c-1.416,0.5403-2.8198,1.113-4.4434,1.7636c0.6668,0.4311,1.1428,0.9923,1.6313,1.0036
						c1.134,0.0261,2.1392,1.0059,1.8402,2.0883C317.1936,20.6852,317.5724,21.0252,318.0394,21.4444z M341.7053,38.4308
						c-0.0306-0.2373-0.0095-0.3998-0.0732-0.5158c-0.6229-1.1349-1.4798-2.0568-2.7217-2.4735
						c-1.0227-0.3432-1.5078,0.5838-2.1411,1.117c-0.087,0.0732-0.1639,0.1592-0.241,0.2433
						c-0.4944,0.5391-0.5607,1.1755-0.1302,1.7186c0.5082,0.6411,1.1129,1.2212,1.7451,1.7438
						c0.4957,0.4097,1.1512,0.6554,1.7435,0.2303C340.6591,39.9399,341.4923,39.3928,341.7053,38.4308z M315.2466,42.3776
						c-0.3534,0.4731-0.8199,0.8591-0.9504,1.337c-0.1404,0.5141-0.696,1.4986-1.0972,1.3085
						c-0.5477-0.2595-1.0677-0.758-1.3507-1.2872c-0.0868-0.1622,0.6873-1.1283,0.9906-1.0917
						c0.9273,0.1118,1.1641-0.6116,1.7027-0.9772c-0.7458-0.7852-1.1502-0.8661-1.9446-0.336
						c-0.4242,0.283-0.817,0.6212-1.1908,0.9701c-1.6747,1.5634-1.6492,2.3002,0.1065,3.7797
						c0.0435,0.0367,0.0909,0.0689,0.1354,0.1046c0.5215,0.418,1.1397,0.5356,1.6642,0.1575
						c0.8241-0.5942,1.6302-1.2449,2.3166-1.9891C316.2183,43.7145,316.0738,43.1546,315.2466,42.3776z M339.4825,41.4847
						c0.5955,0.407,0.7174,1.1814,1.712,0.908c0.3495-0.096,0.9749,0.8118,1.4742,1.2613c-0.5431,0.9565,0.4567,1.0655,0.842,1.6589
						c0.6843-1.4734,1.3161-2.8336,1.9601-4.2202c-0.4571-0.4341-0.875-0.8637-1.3322-1.2462
						c-0.1466-0.1226-0.4408-0.2241-0.5934-0.1597C342.2195,40.2463,340.9107,40.8459,339.4825,41.4847z M323.5714,20.7449
						c-1.031,1.0759-2.0114,2.099-3.0372,3.1695c0.9798,0.9077,1.9759,1.8306,3.0284,2.8057
						c0.2856-0.2644,0.5068-0.4692,0.7809-0.7229c-0.6827-0.6348-1.265-1.1763-2.0303-1.8879
						c0.8362-0.7459,1.6571-1.4782,2.512-2.2408C324.3938,21.4819,324.0354,21.1607,323.5714,20.7449z M333.9154,22.318
						c1.0596,1.0421,2.081,2.0467,3.143,3.0912c0.3312-0.3055,0.6953-0.6413,1.099-1.0137
						c-1.1085-1.0434-2.1399-2.0143-3.1971-3.0094C334.6624,21.6519,334.2847,21.9887,333.9154,22.318z M319.7612,23.0834
						c1.009-1.0753,1.9747-2.1044,2.9916-3.188c-0.2735-0.257-0.6551-0.6157-1.0897-1.0241
						c-1.0139,1.0793-1.9807,2.1084-2.9882,3.1809C318.999,22.3598,319.3625,22.7048,319.7612,23.0834z"/>
					<path d="M328.9488,88.5786c-4.3502,0-8.7004,0.0029-13.0506-0.001c-2.8415-0.0026-4.8524-2.0001-4.8664-4.8502
						c-0.0136-2.7474-0.0112-5.495-0.0007-8.2425c0.0108-2.8456,1.9701-4.8896,4.8434-4.9007
						c8.7289-0.0337,17.4582-0.041,26.187,0.0034c3.0365,0.0154,4.9369,2.4477,4.8205,4.9165
						c-0.1306,2.77-0.1082,5.5537-0.0072,8.3261c0.0935,2.567-2.1177,4.7618-4.7895,4.7525
						C337.7065,88.5675,333.3276,88.5786,328.9488,88.5786z M329.0414,79.513c0.0337,0.0017,0.0673,0.0034,0.101,0.005
						c0,0.9723-0.0485,1.9475,0.0102,2.9162c0.1181,1.9476,1.0812,2.9624,2.9366,3.1902c2.4483,0.3006,4.0702-0.7056,4.2224-2.871
						c0.1518-2.1596,0.1089-4.3414,0.0114-6.5072c-0.0669-1.4886-0.9601-2.546-2.168-2.7456
						c-0.7754-0.1281-1.5892-0.1252-2.376-0.0611c-1.4071,0.1146-2.2634,0.9624-2.4646,2.3238
						C329.1316,76.9997,329.1254,78.2621,329.0414,79.513z M320.9131,77.2065c-0.075-0.7226-0.0895-1.404-0.2271-2.0595
						c-0.2057-0.98-0.7793-1.6678-1.8489-1.7249c-0.8211-0.0438-1.6543-0.0675-2.4688,0.0215
						c-1.1864,0.1296-1.8163,0.6618-1.9427,1.8144c-0.1293,1.179-0.126,2.3914-0.0106,3.5726
						c0.0926,0.9481,0.6915,1.6017,1.7336,1.7159c0.7079,0.0776,1.4166,0.1675,2.1148,0.3037
						c0.2094,0.0408,0.4853,0.2153,0.5591,0.3979c0.4042,1.0001-0.08,1.627-1.1471,1.7008
						c-1.0062,0.0696-1.4117-0.4055-1.4314-1.3178c-0.6905,0-1.3307,0-1.9625,0c-0.2825,2.9643,0.7094,4.0635,3.5562,4.0075
						c0.2834-0.0056,0.5687-0.0457,0.8481-0.0971c1.5781-0.29,2.224-0.9702,2.353-2.5693c0.0595-0.7382,0.0529-1.4877,0.0052-2.2274
						c-0.11-1.7036-0.6354-2.2448-2.3355-2.4919c-0.4232-0.0615-0.848-0.1376-1.2739-0.1509
						c-0.7613-0.0237-1.0528-0.3906-1.0294-1.142c0.0228-0.7336,0.4357-0.8652,1.0539-0.9339
						c0.9135-0.1015,1.3434,0.2723,1.3448,1.1804C319.5005,77.2065,320.145,77.2065,320.9131,77.2065z M340.0495,82.4202
						c0.8141,0,1.4677,0.0107,2.1209-0.0023c1.2471-0.0247,2.0765-0.5372,2.1783-1.7343c0.1487-1.7486,0.1169-3.5251-0.0005-5.2788
						c-0.0611-0.9128-0.6579-1.775-1.6422-1.8547c-1.5765-0.1277-3.171-0.0342-4.7494-0.0342c0,4.0202,0,7.9823,0,11.9531
						c0.7061,0,1.3538,0,2.0928,0C340.0495,84.465,340.0495,83.5013,340.0495,82.4202z M324.0042,76.2479c0,3.1665,0,6.186,0,9.2301
						c0.7321,0,1.3818,0,2.1533,0c0-3.0745,0-6.1171,0-9.2599c0.7596,0,1.4014,0,2.0443,0c0-0.9738,0-1.843,0-2.7208
						c-2.1092,0-4.1551,0-6.2279,0c0,0.9221,0,1.7933,0,2.7506C322.634,76.2479,323.249,76.2479,324.0042,76.2479z"/>
					<path d="M320.7962,57.0621c1.6655,0,3.1427,0,4.6691,0c0.0346-0.5569,0.0641-1.0297,0.0965-1.5518c2.534,0,5.0382,0,7.6418,0
						c0.0225,0.4789,0.0446,0.9502,0.0718,1.532c1.5156,0,3.0128,0,4.6324,0c-0.7821,2.8622-0.9008,5.6052,0.1243,8.4172
						c-1.6414,0-3.1469,0-4.7245,0c-0.0406,0.4549-0.0746,0.8362-0.1135,1.2732c-2.5466,0-5.0739,0-7.6372,0
						c-0.027-0.3953-0.0519-0.7587-0.0849-1.2402c-1.5682,0-3.1249,0-4.8233,0C321.691,62.6621,321.5827,59.9363,320.7962,57.0621z"
						/>
					<path d="M320.4361,61.3103c-0.0772,4.7779-3.985,8.7704-8.7597,9.1016c-4.9463,0.3431-8.8568-2.5496-10.1493-6.3835
						c-1.768-5.2446,1.9037-11.0419,7.4858-11.8507c4.9269-0.7139,9.2824,1.6938,10.8914,6.036
						c0.1869,0.5044,0.3341,1.0316,0.4251,1.561C320.416,60.2777,320.4045,60.7977,320.4361,61.3103z M310.8757,56.9616
						c-2.2528-0.0067-5.0945,2.1122-5.7103,4.1208c-0.0331,0.1081-0.0489,0.2226-0.0631,0.3353
						c-0.3646,2.8822,1.5066,5.4801,4.3539,6.0466c3.0435,0.6055,5.9957-1.0692,6.7354-3.871
						c0.2532-0.9591,0.4588-1.9768-0.1945-2.8759c-0.4675-0.6434-1.0686-1.1921-1.5151-1.8478
						C313.5595,57.5151,312.2958,56.9163,310.8757,56.9616z M318.3632,60.2154c-0.86-3.6911-4.205-6.611-9.0529-5.9313
						c-3.254,0.4562-6.2292,3.541-5.8219,5.9275c1.1323-0.2899,1.8321-1.0998,2.4836-1.9836
						c2.4492-3.3224,6.9433-3.3154,9.32,0.0195C316.0387,59.2953,316.9878,60.0008,318.3632,60.2154z"/>
					<path d="M348.2124,70.4542c-5.825-0.0224-10.0928-4.2674-9.9631-9.617c0.0975-4.018,3.1803-7.5454,7.4894-8.5695
						c4.4034-1.0465,9.2148,1.2263,11.0432,5.2167c2.4291,5.3012-0.7668,11.4922-6.5738,12.7047
						C349.4576,70.3457,348.6842,70.3934,348.2124,70.4542z M348.1169,56.9615c-2.215-0.0066-5.1966,2.2038-5.7254,4.1064
						c-0.0227,0.0815-0.0183,0.1702-0.0321,0.2547c-0.4957,3.0375,1.4734,5.626,4.731,6.2184
						c2.8368,0.5159,5.9262-1.4908,6.3834-4.2696c0.1343-0.8163,0.0293-1.7712-0.2823-2.5332
						c-0.298-0.7287-1.0517-1.2578-1.5265-1.9301C350.7432,57.503,349.5027,56.9106,348.1169,56.9615z M355.5991,60.2075
						c-0.6628-3.9696-4.9258-6.8175-8.9809-6.0932c-3.3281,0.5944-6.3304,3.6859-5.8846,6.0594
						c1.0995-0.3248,1.4719-0.6294,2.5785-2.1093c2.3195-3.1019,6.8773-3.0742,9.1203,0.0712
						C353.2079,59.223,354.1551,60.0056,355.5991,60.2075z"/>
					<path d="M332.0904,53.9657c-1.8285,0-3.6796,0.0219-5.5281-0.0364c-0.1708-0.0054-0.4564-0.5162-0.4659-0.7998
						c-0.0521-1.5425-0.0352-3.0874-0.0402-4.6315c-0.0087-2.6593-0.0349-5.3189-0.0021-7.9777
						c0.0045-0.3662,0.2146-0.8248,0.4836-1.0754c0.8737-0.8142,1.819-1.5517,2.7921-2.365
						c0.9203,0.7783,1.8148,1.5195,2.6853,2.2881c0.1251,0.1105,0.1881,0.3527,0.1884,0.5341
						c0.0071,4.5754,0.0024,9.1508-0.0042,13.7262C332.199,53.7071,332.1501,53.7858,332.0904,53.9657z"/>
					<path d="M329.3565,21.2557c-0.9839-0.883-1.9399-1.7383-2.8914-2.5986c-0.1032-0.0933-0.2607-0.2176-0.2577-0.3236
						c0.0367-1.2727-0.105-2.5988,0.214-3.801c0.2957-1.1142,1.5397-1.1344,2.5391-1.1536
						c1.1068-0.0213,2.3541-0.1149,2.9613,1.0542c0.3047,0.5868,0.1635,1.3913,0.299,2.0826
						c0.3326,1.6962-0.364,2.8836-1.7404,3.7907C330.1021,20.5556,329.7814,20.8925,329.3565,21.2557z"/>
					<path d="M332.1631,93.6123c-1.9908,0-3.9405,0-5.9558,0c0-1.3162,0-2.587,0-3.9278c1.9607,0,3.9333,0,5.9558,0
						C332.1631,90.9383,332.1631,92.1812,332.1631,93.6123z"/>
					<path d="M332.1615,67.8013c0,0.6139,0,1.1973,0,1.8338c-1.9761,0-3.9288,0-5.9509,0c0-0.5879,0-1.1696,0-1.8338
						C328.1689,67.8013,330.1393,67.8013,332.1615,67.8013z"/>
					<path class="st0" d="M341.849,19.6191c-0.8857-0.8378-1.5862-1.5004-2.3649-2.2371c0.4482-0.4132,0.8156-0.7518,1.1729-1.0812
						c1.031,1.0288,2.0339,2.0294,3.1112,3.1043c-0.5748,0.5216-1.1563,1.0995-1.7992,1.5984
						c-0.1645,0.1277-0.5417,0.0654-0.7887-0.0124c-0.8922-0.281-1.7706-0.6058-2.6398-0.9091
						c0.6729,0.6904,1.3464,1.3815,2.0891,2.1435c-0.4865,0.4273-0.8647,0.7594-1.1929,1.0477
						c-1.0608-1.0055-2.093-1.9838-3.1924-3.0258c0.6513-0.5825,1.2174-1.1386,1.8438-1.6155
						c0.1671-0.1272,0.5369-0.0714,0.7826,0.003C339.7906,18.9133,340.6977,19.2341,341.849,19.6191z"/>
					<path class="st0" d="M311.3443,13.7034c-0.2659,0.2469-0.4936,0.4583-0.7823,0.7264c-0.4017-0.3666-0.7888-0.7198-1.0355-0.945
						c1.0042-1.0916,1.9801-2.1526,2.977-3.2362c0.8934,0.8359,1.758,1.617,2.5887,2.4328c0.4738,0.4653,0.9389,1.009,0.5738,1.7271
						c-0.335,0.6588-0.902,1.02-1.4911,0.8789c-0.3042,0.5726-0.5684,1.0698-0.891,1.6771c-0.5401-0.4867-0.931-0.8388-1.32-1.1894
						C312.7388,14.8232,312.7008,14.6989,311.3443,13.7034z M312.9644,12.1665c-0.3264,0.2728-0.58,0.4848-0.8737,0.7303
						c0.5459,0.4609,0.9889,0.8349,1.4625,1.2348c0.2612-0.2779,0.4483-0.477,0.6587-0.7009
						c-0.1778-0.2124-0.3088-0.3951-0.4662-0.5511C313.5061,12.6424,313.2482,12.4236,312.9644,12.1665z"/>
					<path class="st0" d="M346.5373,14.8081c-0.2432,0.1939-0.4864,0.3877-0.8129,0.6481
						c-0.1803-0.1993-0.3594-0.3972-0.5616-0.6207c0.6933-0.6215,1.345-1.2057,2.0523-1.8397
						c0.3363,0.3797,0.6249,0.6855,0.8904,1.0102c0.3749,0.4585,0.4247,1.0039,0.0128,1.4014
						c-0.8333,0.804-1.7061,1.5794-2.6375,2.2649c-0.5174,0.3808-1.1353,0.239-1.6504-0.2001
						c-1.8822-1.6044-1.8955-2.3914-0.0343-4.009c0.4079-0.3545,0.8297-0.6988,1.2773-1.0001
						c0.5817-0.3916,1.1669-0.4207,1.8557,0.322c-0.6139,0.3285-1.2118,0.5749-1.7219,0.9429
						c-0.4664,0.3365-1.2337,0.8957-1.1648,1.1947c0.1252,0.5433,0.7125,1.0615,1.2334,1.3892
						c0.1884,0.1185,0.7823-0.2871,1.1101-0.5533c0.2185-0.1775,0.2935-0.5315,0.4328-0.8065
						C346.7248,14.904,346.6311,14.8561,346.5373,14.8081z"/>
					<path class="st0" d="M314.4616,39.5878c0.9916-0.8554,1.9257-1.6877,2.891-2.4821c0.4562-0.3754,0.9789-0.5873,1.5735-0.2332
						c0.6507,0.3876,0.8636,0.8168,0.7976,1.4142c0.5906,0.3248,1.1089,0.6098,1.7433,0.9587
						c-0.5435,0.4899-0.9182,0.8278-1.2852,1.1586c-1.0068-0.7815-1.0068-0.7815-2.1484,0.4821
						c0.2155,0.241,0.436,0.4877,0.798,0.8926c-0.2284,0.1507-0.4469,0.2829-0.6519,0.4334c-0.2067,0.1517-0.4,0.3216-0.5297,0.4271
						C316.61,41.6439,315.5864,40.6642,314.4616,39.5878z M318.4958,39.0452c-0.4191-1.105-0.9348-1.0128-2.0019,0.344
						c0.2387,0.2187,0.4791,0.439,0.7348,0.6734c0.2842-0.2521,0.4897-0.4481,0.7101-0.6255
						C318.1176,39.2931,318.3143,39.1715,318.4958,39.0452z"/>
					<path class="st0" d="M322.5257,37.9881c-1.359-0.2637-1.9704-1.0805-2.505-1.9078c-0.458-0.7087,0.0183-1.3326,0.5118-1.82
						c0.5865-0.5793,1.2082-1.1429,1.8905-1.6c0.811-0.5433,1.4508-0.4148,2.1607,0.2576c1.5979,1.5137,1.6242,2.1077-0.0108,3.607
						C323.9193,37.1243,323.1228,37.568,322.5257,37.9881z M324.5254,35.2046c-0.7038-0.5793-1.1928-1.2923-1.7088-1.3124
						c-0.4459-0.0173-0.9223,0.753-1.3852,1.1752c0.4798,0.4485,0.9067,1.1435,1.4573,1.2616
						C323.2762,36.4122,323.832,35.711,324.5254,35.2046z"/>
					<path class="st0" d="M333.8073,24.5236c-0.6273,0.2923-1.1703,0.4887-1.6509,0.786c-0.4373,0.2705-0.8068,0.6506-1.2062,0.9824
						c0.0546,0.1042,0.1092,0.2085,0.1638,0.3127c0.2445-0.0765,0.5227-0.1026,0.7269-0.2393
						c0.5211-0.3487,0.9939-0.7696,1.5146-1.1192c0.6145-0.4125,1.172-0.3062,1.6727,0.2512
						c0.4709,0.5241,0.4489,1.086,0.0158,1.5396c-0.7064,0.7398-1.4604,1.4479-2.2711,2.0694
						c-0.5794,0.4442-0.9883,0.3112-1.7075-0.3126c0.4993-0.3499,0.7288-0.9941,1.5591-0.9209
						c0.3113,0.0275,0.6978-0.4494,0.9915-0.7529c0.1068-0.1104,0.0431-0.3856,0.0573-0.5857
						c-0.1736,0.0232-0.387-0.0101-0.5141,0.0793c-0.537,0.3777-1.0376,0.8069-1.5717,1.189
						c-0.6329,0.4529-1.2086,0.3733-1.7455-0.2091c-0.551-0.5977-0.4195-1.1744,0.07-1.6699
						c0.6206-0.6281,1.2872-1.2187,1.9841-1.761C332.4527,23.7297,333.058,23.7216,333.8073,24.5236z"/>
					<path class="st0" d="M329.062,28.7247c-0.6144,0.2975-1.1285,0.5444-1.6404,0.7959c-0.1255,0.0617-0.2842,0.1097-0.3577,0.2135
						c-0.2357,0.3329-0.4385,0.689-0.6541,1.0361c0.333-0.1436,0.6875-0.2522,0.9939-0.4394
						c0.4131-0.2524,0.7863-0.5695,1.1819-0.8514c0.6116-0.4357,1.1382-0.3496,1.6711,0.1899
						c0.5395,0.5461,0.5098,1.1098,0.0482,1.5899c-0.7084,0.7367-1.467,1.4397-2.2813,2.0549
						c-0.5574,0.4211-1.179,0.309-1.8094-0.4469c0.6044-0.2783,1.1317-0.5219,1.6598-0.7635
						c0.0767-0.0351,0.1794-0.0401,0.2328-0.0952c0.3311-0.3418,0.6543-0.6915,0.965-1.0516
						c0.0121-0.0141-0.1693-0.2433-0.192-0.2322c-0.3672,0.1796-0.7358,0.3626-1.0787,0.5842
						c-0.3828,0.2475-0.7203,0.5684-1.1127,0.797c-0.6051,0.3524-1.1512,0.1988-1.6037-0.3147
						c-0.4551-0.5166-0.4348-1.0892,0.009-1.5478c0.653-0.6748,1.355-1.3137,2.1007-1.8835
						C327.7454,27.939,328.3577,27.9781,329.062,28.7247z"/>
					<path class="st0" d="M336.1702,35.863c-0.3106,0.5704-0.5826,1.0698-0.9163,1.6827c-0.4813-0.4569-0.8208-0.7792-1.1541-1.0956
						c0.7119-0.9557,0.7119-0.9557-0.4316-1.9365c-0.2758,0.2135-0.5612,0.4345-0.8953,0.6933
						c-0.3312-0.3046-0.6641-0.6107-0.9098-0.8366c0.9821-1.0847,1.9485-2.1521,2.9572-3.266
						c0.8485,0.7963,1.6039,1.4868,2.3371,2.2001c0.4393,0.4273,0.8969,0.9336,0.5375,1.5729
						C337.3435,35.5023,336.8521,36.0717,336.1702,35.863z M335.1874,32.9901c-0.2491,0.237-0.4899,0.4662-0.73,0.6947
						c1.1802,1.2522,1.1802,1.2522,1.8191,0.3517C335.9387,33.7119,335.5939,33.3807,335.1874,32.9901z"/>
					<path class="st0" d="M343.9699,45.712c1.0119-1.0879,1.9779-2.1263,3.1284-3.3631c0.8796,0.9535,1.7325,1.8243,2.5198,2.751
						c0.5045,0.5938,0.4626,1.2537-0.0583,1.857c-0.0557,0.0645-0.1163,0.1248-0.1753,0.1865
						c-1.5734,1.6464-2.1371,1.6592-3.7972,0.0895C345.0306,46.7066,344.4712,46.1833,343.9699,45.712z M347.4586,44.3044
						c-0.6836,0.5993-1.2088,1.0597-1.9131,1.6772c0.7004,0.3603,1.2462,0.8724,1.739,0.8256
						c0.4381-0.0417,1.1532-0.7153,1.1394-1.0876C348.4058,45.2281,347.7957,44.7585,347.4586,44.3044z"/>
					<path class="st0" d="M318.0394,21.4444c-0.467-0.4192-0.8458-0.7592-1.2144-1.09c0.299-1.0824-0.7062-2.0622-1.8402-2.0883
						c-0.4886-0.0112-0.9645-0.5725-1.6313-1.0036c1.6236-0.6506,3.0273-1.2233,4.4434-1.7636
						c0.1285-0.049,0.3692,0.0694,0.5022,0.1782c1.5928,1.3022,1.5908,1.3059,0.806,3.2055
						C318.7678,19.699,318.4267,20.5137,318.0394,21.4444z M316.4859,17.7666c0.3336,0.2835,0.6441,0.5474,1.0191,0.8661
						c0.2472-0.579,0.4454-1.0432,0.7045-1.6501c-0.5881,0.2343-0.9854,0.3871-1.3775,0.5523
						C316.7294,17.5782,316.6429,17.6597,316.4859,17.7666z"/>
					<path class="st0" d="M341.7053,38.4308c-0.213,0.962-1.0463,1.5091-1.8186,2.0636c-0.5922,0.4252-1.2478,0.1795-1.7435-0.2303
						c-0.6322-0.5226-1.2368-1.1027-1.7451-1.7438c-0.4305-0.5431-0.3642-1.1795,0.1302-1.7186
						c0.0771-0.0841,0.154-0.1701,0.241-0.2433c0.6333-0.5332,1.1183-1.4602,2.1411-1.117
						c1.2419,0.4167,2.0988,1.3387,2.7217,2.4735C341.6959,38.031,341.6747,38.1935,341.7053,38.4308z M339.0295,36.5132
						c-0.5598,0.6198-1.1472,1.0575-1.3723,1.6362c-0.0775,0.1991,0.9102,1.1507,1.1312,1.0618
						c0.57-0.2291,1.1161-0.7834,1.3872-1.3451C340.269,37.6726,339.5211,37.073,339.0295,36.5132z"/>
					<path class="st0" d="M315.2466,42.3776c0.8271,0.777,0.9717,1.3369,0.3822,1.976c-0.6864,0.7442-1.4925,1.3949-2.3166,1.9891
						c-0.5244,0.3781-1.1426,0.2605-1.6642-0.1575c-0.0445-0.0357-0.0918-0.0678-0.1354-0.1046
						c-1.7557-1.4795-1.7812-2.2163-0.1065-3.7797c0.3737-0.3489,0.7666-0.6871,1.1908-0.9701
						c0.7944-0.5301,1.1988-0.4492,1.9446,0.336c-0.5386,0.3657-0.7754,1.0891-1.7027,0.9772
						c-0.3033-0.0366-1.0774,0.9295-0.9906,1.0917c0.2831,0.5292,0.8031,1.0277,1.3507,1.2872
						c0.4012,0.1901,0.9568-0.7943,1.0972-1.3085C314.4267,43.2367,314.8932,42.8507,315.2466,42.3776z"/>
					<path class="st0" d="M339.4825,41.4847c1.4282-0.6388,2.737-1.2383,4.0627-1.7979c0.1526-0.0644,0.4468,0.0371,0.5934,0.1597
						c0.4573,0.3825,0.8752,0.8121,1.3322,1.2462c-0.644,1.3866-1.2758,2.7468-1.9601,4.2202
						c-0.3853-0.5934-1.3851-0.7024-0.842-1.6589c-0.4994-0.4495-1.1248-1.3574-1.4742-1.2613
						C340.1999,42.666,340.078,41.8917,339.4825,41.4847z M343.963,41.0152c-0.7015,0.3325-1.163,0.5512-1.7218,0.816
						c0.3602,0.3257,0.6052,0.5472,0.9109,0.8236C343.4084,42.1366,343.6289,41.6906,343.963,41.0152z"/>
					<path class="st0" d="M323.5714,20.7449c0.464,0.4158,0.8223,0.7369,1.2538,1.1236c-0.8549,0.7626-1.6758,1.4949-2.512,2.2408
						c0.7653,0.7116,1.3476,1.2531,2.0303,1.8879c-0.2741,0.2537-0.4953,0.4585-0.7809,0.7229
						c-1.0525-0.9751-2.0486-1.898-3.0284-2.8057C321.5601,22.8439,322.5404,21.8209,323.5714,20.7449z"/>
					<path class="st0" d="M333.9154,22.318c0.3694-0.3294,0.747-0.6661,1.045-0.9318c1.0571,0.9951,2.0885,1.9659,3.1971,3.0094
						c-0.4037,0.3724-0.7678,0.7082-1.099,1.0137C335.9964,24.3647,334.975,23.3601,333.9154,22.318z"/>
					<path class="st0" d="M319.7612,23.0834c-0.3987-0.3785-0.7622-0.7236-1.0862-1.0312c1.0076-1.0725,1.9743-2.1017,2.9882-3.1809
						c0.4345,0.4084,0.8162,0.7671,1.0897,1.0241C321.7359,20.979,320.7702,22.0081,319.7612,23.0834z"/>
					<path class="st0" d="M329.0414,79.513c0.084-1.2509,0.0902-2.5133,0.273-3.7496c0.2013-1.3614,1.0576-2.2093,2.4646-2.3238
						c0.7868-0.0641,1.6006-0.067,2.376,0.0611c1.2079,0.1996,2.1011,1.257,2.168,2.7456c0.0974,2.1658,0.1404,4.3475-0.0114,6.5072
						c-0.1522,2.1654-1.7741,3.1716-4.2224,2.871c-1.8554-0.2278-2.8185-1.2426-2.9366-3.1902
						c-0.0587-0.9687-0.0102-1.9439-0.0102-2.9162C329.1087,79.5164,329.075,79.5147,329.0414,79.513z M334.1455,79.5792
						c0-0.7996,0.032-1.6008-0.0085-2.3983c-0.0452-0.8892-0.6876-0.9843-1.4056-0.9908c-0.7113-0.0065-1.3113,0.171-1.3372,0.9761
						c-0.0493,1.5398-0.0467,3.0832-0.002,4.6233c0.0234,0.8064,0.6056,0.9903,1.3259,0.9828
						c0.7141-0.0074,1.3654-0.0703,1.4182-0.9664C334.18,81.0662,334.1452,80.3218,334.1455,79.5792z"/>
					<path class="st0" d="M320.9131,77.2065c-0.7681,0-1.4126,0-2.1091,0c-0.0014-0.9081-0.4314-1.2819-1.3448-1.1804
						c-0.6182,0.0687-1.031,0.2003-1.0539,0.9339c-0.0234,0.7514,0.2681,1.1183,1.0294,1.142
						c0.4258,0.0133,0.8506,0.0894,1.2739,0.1509c1.7001,0.2471,2.2256,0.7883,2.3355,2.4919
						c0.0478,0.7398,0.0544,1.4892-0.0052,2.2274c-0.129,1.5991-0.7749,2.2793-2.353,2.5693
						c-0.2794,0.0514-0.5647,0.0915-0.8481,0.0971c-2.8468,0.056-3.8387-1.0432-3.5562-4.0075c0.6318,0,1.272,0,1.9625,0
						c0.0197,0.9124,0.4252,1.3874,1.4314,1.3178c1.0671-0.0738,1.5513-0.7007,1.1471-1.7008
						c-0.0738-0.1826-0.3497-0.3571-0.5591-0.3979c-0.6982-0.1362-1.4069-0.2261-2.1148-0.3037
						c-1.0421-0.1142-1.6411-0.7678-1.7336-1.7159c-0.1154-1.1812-0.1187-2.3936,0.0106-3.5726
						c0.1264-1.1526,0.7563-1.6848,1.9427-1.8144c0.8145-0.089,1.6477-0.0654,2.4688-0.0215
						c1.0695,0.0571,1.6432,0.7448,1.8489,1.7249C320.8236,75.8025,320.8381,76.4838,320.9131,77.2065z"/>
					<path class="st0" d="M340.0495,82.4202c0,1.0812,0,2.0448,0,3.0488c-0.739,0-1.3867,0-2.0928,0c0-3.9708,0-7.9329,0-11.9531
						c1.5784,0,3.1729-0.0935,4.7494,0.0342c0.9844,0.0798,1.5812,0.9419,1.6422,1.8547c0.1173,1.7537,0.1491,3.5302,0.0005,5.2788
						c-0.1018,1.197-0.9312,1.7096-2.1783,1.7343C341.5172,82.4308,340.8636,82.4202,340.0495,82.4202z M340.0526,76.3524
						c0,0.8257-0.0308,1.6483,0.0172,2.4663c0.0161,0.2745,0.2354,0.7681,0.3575,0.7668c0.6375-0.0069,1.4597,0.36,1.8452-0.4392
						c0.819-1.6977-0.0662-3.0022-1.9075-2.8932C340.3119,76.2563,340.2602,76.2853,340.0526,76.3524z"/>
					<path class="st0" d="M324.0042,76.2479c-0.7552,0-1.3702,0-2.0304,0c0-0.9573,0-1.8285,0-2.7506c2.0729,0,4.1188,0,6.2279,0
						c0,0.8777,0,1.7469,0,2.7208c-0.6429,0-1.2847,0-2.0443,0c0,3.1428,0,6.1854,0,9.2599c-0.7715,0-1.4212,0-2.1533,0
						C324.0042,82.4339,324.0042,79.4145,324.0042,76.2479z"/>
					<path class="st0" d="M310.8757,56.9616c1.4201-0.0453,2.6838,0.5535,3.6062,1.908c0.4465,0.6557,1.0476,1.2044,1.5151,1.8478
						c0.6534,0.8991,0.4478,1.9167,0.1945,2.8759c-0.7397,2.8018-3.692,4.4765-6.7354,3.871
						c-2.8473-0.5665-4.7185-3.1644-4.3539-6.0466c0.0143-0.1127,0.03-0.2272,0.0631-0.3353
						C305.7812,59.0738,308.6229,56.9549,310.8757,56.9616z"/>
					<path class="st0" d="M318.3632,60.2154c-1.3755-0.2146-2.3246-0.9201-3.0712-1.9678c-2.3767-3.335-6.8708-3.342-9.32-0.0195
						c-0.6515,0.8838-1.3513,1.6936-2.4836,1.9836c-0.4073-2.3865,2.5679-5.4713,5.8219-5.9275
						C314.1583,53.6044,317.5032,56.5243,318.3632,60.2154z"/>
					<path class="st0" d="M348.1169,56.9615c1.3857-0.0509,2.6263,0.5415,3.548,1.8466c0.4749,0.6723,1.2285,1.2014,1.5265,1.9301
						c0.3116,0.762,0.4166,1.7169,0.2823,2.5332c-0.4571,2.7788-3.5466,4.7855-6.3834,4.2696
						c-3.2575-0.5924-5.2267-3.1809-4.731-6.2184c0.0138-0.0844,0.0094-0.1731,0.0321-0.2547
						C342.9203,59.1654,345.9019,56.9549,348.1169,56.9615z"/>
					<path class="st0" d="M355.5991,60.2075c-1.444-0.202-2.3912-0.9846-3.1666-2.072c-2.2431-3.1455-6.8008-3.1731-9.1203-0.0712
						c-1.1067,1.4799-1.479,1.7845-2.5785,2.1093c-0.4458-2.3735,2.5565-5.4649,5.8846-6.0594
						C350.6733,53.39,354.9363,56.2379,355.5991,60.2075z"/>
					<path d="M312.9644,12.1665c0.2838,0.2571,0.5417,0.4759,0.7812,0.7131c0.1575,0.156,0.2885,0.3387,0.4662,0.5511
						c-0.2104,0.2239-0.3975,0.423-0.6587,0.7009c-0.4736-0.3999-0.9166-0.7739-1.4625-1.2348
						C312.3844,12.6513,312.638,12.4393,312.9644,12.1665z"/>
					<path d="M318.4958,39.0452c-0.1815,0.1264-0.3782,0.248-0.5569,0.3919c-0.2204,0.1774-0.4259,0.3734-0.7101,0.6255
						c-0.2558-0.2344-0.4961-0.4547-0.7348-0.6734C317.561,38.0324,318.0766,37.9402,318.4958,39.0452z"/>
					<path d="M324.5254,35.2046c-0.6934,0.5063-1.2492,1.2075-1.6367,1.1244c-0.5506-0.1181-0.9775-0.8131-1.4573-1.2616
						c0.4629-0.4221,0.9394-1.1925,1.3852-1.1752C323.3326,33.9123,323.8216,34.6253,324.5254,35.2046z"/>
					<path d="M335.1874,32.9901c0.4066,0.3906,0.7513,0.7218,1.0891,1.0464c-0.6389,0.9005-0.6389,0.9005-1.8191-0.3517
						C334.6975,33.4563,334.9383,33.2271,335.1874,32.9901z"/>
					<path d="M347.4586,44.3044c0.3371,0.4541,0.9472,0.9237,0.9653,1.4152c0.0137,0.3723-0.7013,1.0459-1.1394,1.0876
						c-0.4927,0.0469-1.0386-0.4652-1.739-0.8256C346.2498,45.3641,346.7749,44.9037,347.4586,44.3044z"/>
					<path d="M316.4859,17.7666c0.1569-0.1068,0.2435-0.1884,0.3461-0.2317c0.3921-0.1652,0.7894-0.3181,1.3775-0.5523
						c-0.2591,0.6069-0.4573,1.0712-0.7045,1.6501C317.1301,18.314,316.8195,18.0501,316.4859,17.7666z"/>
					<path d="M339.0295,36.5132c0.4916,0.5598,1.2395,1.1594,1.1461,1.3529c-0.2711,0.5617-0.8172,1.116-1.3872,1.3451
						c-0.221,0.0888-1.2087-0.8627-1.1312-1.0618C337.8823,37.5707,338.4696,37.133,339.0295,36.5132z"/>
					<path d="M343.963,41.0152c-0.3341,0.6754-0.5547,1.1214-0.8109,1.6396c-0.3056-0.2764-0.5507-0.4979-0.9109-0.8236
						C342.8,41.5663,343.2615,41.3476,343.963,41.0152z"/>
					<path d="M334.1454,79.5794c-0.0001,0.7424,0.0346,1.4868-0.009,2.2265c-0.0529,0.8961-0.7042,0.959-1.4182,0.9664
						c-0.7203,0.0075-1.3025-0.1764-1.3259-0.9828c-0.0448-1.5401-0.0474-3.0835,0.002-4.6233
						c0.0258-0.8051,0.6259-0.9826,1.3372-0.9761c0.718,0.0066,1.3604,0.1016,1.4056,0.9908
						C334.1775,77.9785,334.1455,78.7797,334.1454,79.5794z"/>
					<path d="M340.0526,76.3524c0.2076-0.0672,0.2593-0.0962,0.3125-0.0993c1.8413-0.1091,2.7265,1.1955,1.9075,2.8932
						c-0.3856,0.7992-1.2077,0.4323-1.8452,0.4392c-0.1222,0.0013-0.3414-0.4922-0.3575-0.7668
						C340.0218,78.0007,340.0526,77.1782,340.0526,76.3524z"/>
				</g>
			</g>
			<path d="M339.0534,169.7654h-19.7381c-0.7421,0-1.3493-0.6072-1.3493-1.3493v-12.0457c0-0.7421,0.6072-1.3493,1.3493-1.3493
				h19.7381c0.7421,0,1.3493,0.6072,1.3493,1.3493v12.0457C340.4027,169.1582,339.7955,169.7654,339.0534,169.7654z"/>
			<rect x="326.2072" y="93.6123" width="5.9543" height="61.4088"/>
		</g>
	</g>
	<g id="Post">
		<path d="M342.1317,137.4691h-5.6736c-2.7429,0-4.987-2.2442-4.987-4.987v-13.1149c0-2.7429,2.2441-4.987,4.987-4.987h5.6736
			c2.7429,0,4.9871,2.2442,4.9871,4.987v13.1149C347.1187,135.225,344.8745,137.4691,342.1317,137.4691z"/>
	</g>
	<g id="Light_copy" class="st1">
		<path class="st2" d="M306.5915,58.7386c0,0-3.7281,2.6891-0.46,6.8024c3.1226,3.9301,7.3473,1.8032,8.3202,0.9149
			c0.9729-0.8883,3.6232-2.6407,1.3931-6.2784c-2.2301-3.6377-4.1768-3.3962-4.8213-3.4138
			C310.4828,56.7491,309.3148,56.2312,306.5915,58.7386z"/>
	</g>
	<g id="Light" class="st1">
		<path class="st2" d="M343.7664,59.009c0,0-3.6967,2.2047-0.4507,6.3355c3.246,4.1308,7.2821,2.0255,8.2551,1.1372
			c0.9729-0.8883,3.6232-2.6407,1.3931-6.2784c-2.2302-3.6377-4.1794-3.4741-4.8214-3.4138
			C347.5006,56.8499,345.9505,56.9011,343.7664,59.009z"/>
	</g>
</g>
<g id="No_Lights_Crossing_copy">
	<g id="Layer_1_copy_5">
		<g>
			<g>
				<g>
					<path class="st0" d="M79.9099,93.5531c-30.97,0-61.94,0-92.9099,0c0-30.97,0-61.94,0-92.9099c30.97,0,61.94,0,92.9099,0
						C79.9099,31.6131,79.9099,62.5831,79.9099,93.5531z M57.6956,45.0571c-5.8299-5.4555-11.6056-10.8603-17.426-16.3068
						c5.8368-5.1955,11.6094-10.3339,17.4286-15.5138c-2.1063-2.0346-4.1186-3.9784-6.177-5.9667
						C45.7696,12.3848,39.901,17.6037,33.98,22.8693c-5.8582-5.4772-11.6812-10.9214-17.5293-16.3891
						c-2.052,1.9832-4.0833,3.9463-6.1753,5.9681c5.7706,5.3987,11.4848,10.7447,17.2629,16.1505
						c-6.0394,5.3751-12.0527,10.727-18.1217,16.1285c2.095,2.0102,4.1275,3.9604,6.1992,5.9483
						c5.9877-5.3245,12.0856-10.7471,18.2109-16.194c5.9207,5.5352,11.7852,11.0179,17.6986,16.5463
						C53.5949,49.0252,55.6208,47.0648,57.6956,45.0571z M33.3465,88.226c4.3788,0,8.7577-0.0111,13.1365,0.0041
						c2.6718,0.0093,4.8829-2.1855,4.7895-4.7525c-0.101-2.7724-0.1234-5.5562,0.0072-8.3261
						c0.1164-2.4688-1.7839-4.901-4.8205-4.9165c-8.7288-0.0444-17.4581-0.0371-26.187-0.0034
						c-2.8733,0.0111-4.8326,2.055-4.8434,4.9007c-0.0105,2.7475-0.0128,5.495,0.0007,8.2425
						c0.0141,2.8501,2.0249,4.8477,4.8664,4.8502C24.6461,88.2289,28.9963,88.2261,33.3465,88.226z M25.1939,56.7096
						c0.7864,2.8742,0.8948,5.6-0.1474,8.4304c1.6984,0,3.2552,0,4.8233,0c0.033,0.4815,0.0578,0.8449,0.0849,1.2402
						c2.5633,0,5.0906,0,7.6372,0c0.039-0.4371,0.073-0.8183,0.1135-1.2732c1.5775,0,3.083,0,4.7245,0
						c-1.0251-2.812-0.9064-5.555-0.1243-8.4172c-1.6196,0-3.1169,0-4.6324,0c-0.0273-0.5818-0.0494-1.0531-0.0719-1.532
						c-2.6036,0-5.1078,0-7.6418,0c-0.0325,0.5221-0.0619,0.995-0.0965,1.5518C28.3366,56.7096,26.8594,56.7096,25.1939,56.7096z
						 M24.8338,60.9577c-0.0316-0.5126-0.0201-1.0325-0.1066-1.5357c-0.091-0.5294-0.2382-1.0566-0.4251-1.561
						c-1.609-4.3422-5.9645-6.7499-10.8914-6.036c-5.5821,0.8088-9.2538,6.6061-7.4858,11.8507
						c1.2924,3.834,5.203,6.7266,10.1493,6.3835C20.8488,69.7281,24.7566,65.7356,24.8338,60.9577z M52.6101,70.1016
						c0.4719-0.0607,1.2452-0.1084,1.9958-0.2652c5.8071-1.2125,9.0029-7.4035,6.5738-12.7047
						c-1.8284-3.9904-6.6399-6.2632-11.0432-5.2167c-4.3091,1.0241-7.392,4.5515-7.4894,8.5695
						C42.5172,65.8341,46.785,70.0792,52.6101,70.1016z M36.488,53.6131c0.0597-0.1799,0.1086-0.2586,0.1087-0.3374
						c0.0066-4.5754,0.0113-9.1508,0.0042-13.7262c-0.0003-0.1814-0.0633-0.4236-0.1884-0.5341
						c-0.8704-0.7686-1.765-1.5098-2.6852-2.2881c-0.9731,0.8133-1.9184,1.5507-2.7921,2.365
						c-0.2689,0.2506-0.479,0.7092-0.4835,1.0754c-0.0327,2.6588-0.0066,5.3184,0.0021,7.9777
						c0.005,1.5441-0.0118,3.089,0.0402,4.6315c0.0096,0.2836,0.2951,0.7945,0.4659,0.7998
						C32.8085,53.635,34.6596,53.6131,36.488,53.6131z M33.7542,20.9031c0.4249-0.3632,0.7456-0.7001,1.1239-0.9494
						c1.3765-0.9071,2.073-2.0945,1.7404-3.7907c-0.1355-0.6913,0.0058-1.4958-0.299-2.0826
						c-0.6072-1.1691-1.8545-1.0755-2.9613-1.0542c-0.9994,0.0193-2.2434,0.0394-2.5391,1.1536
						c-0.319,1.2022-0.1773,2.5283-0.214,3.801c-0.003,0.106,0.1544,0.2303,0.2576,0.3236
						C31.8143,19.1648,32.7702,20.0201,33.7542,20.9031z M36.5607,93.2597c0-1.4311,0-2.674,0-3.9278c-2.0225,0-3.9951,0-5.9558,0
						c0,1.3408,0,2.6115,0,3.9278C32.6203,93.2597,34.5699,93.2597,36.5607,93.2597z M36.5592,67.4487c-2.0222,0-3.9926,0-5.9509,0
						c0,0.6642,0,1.2459,0,1.8338c2.0221,0,3.9748,0,5.9509,0C36.5592,68.646,36.5592,68.0627,36.5592,67.4487z"/>
					<path d="M57.6956,45.0571c-2.0749,2.0078-4.1008,3.9682-6.1704,5.9708c-5.9134-5.5284-11.7779-11.0111-17.6986-16.5463
						c-6.1254,5.4469-12.2233,10.8695-18.2109,16.194c-2.0718-1.9879-4.1042-3.9381-6.1992-5.9483
						c6.0691-5.4015,12.0823-10.7534,18.1217-16.1285C21.7602,23.193,16.046,17.8471,10.2754,12.4483
						c2.092-2.0218,4.1233-3.9849,6.1753-5.9681c5.8481,5.4677,11.6711,10.9119,17.5293,16.3891
						c5.921-5.2656,11.7896-10.4845,17.5413-15.5995c2.0583,1.9883,4.0707,3.9321,6.177,5.9667
						c-5.8192,5.1798-11.5918,10.3183-17.4286,15.5138C46.09,34.1968,51.8657,39.6016,57.6956,45.0571z M46.2467,19.2666
						c-1.1513-0.385-2.0584-0.7059-2.9784-0.9843c-0.2457-0.0744-0.6155-0.1302-0.7826-0.003
						c-0.6264,0.4769-1.1925,1.033-1.8438,1.6155c1.0993,1.042,2.1315,2.0203,3.1924,3.0258
						c0.3283-0.2883,0.7064-0.6204,1.1929-1.0477c-0.7427-0.762-1.4162-1.4531-2.0891-2.1435
						c0.8693,0.3033,1.7476,0.6281,2.6398,0.9091c0.2471,0.0778,0.6242,0.1401,0.7887,0.0124
						c0.6429-0.4989,1.2245-1.0768,1.7992-1.5984c-1.0773-1.0749-2.0801-2.0756-3.1112-3.1043
						c-0.3574,0.3294-0.7247,0.668-1.173,1.0812C44.6605,17.7661,45.361,18.4287,46.2467,19.2666z M15.742,13.3508
						c1.3565,0.9955,1.3945,1.1198,0.6194,2.0716c0.3891,0.3506,0.7799,0.7027,1.32,1.1894
						c0.3226-0.6073,0.5868-1.1046,0.891-1.6771c0.5891,0.1411,1.1561-0.2201,1.4911-0.8789c0.3651-0.7181-0.1-1.2617-0.5738-1.7271
						c-0.8306-0.8158-1.6952-1.5969-2.5887-2.4328c-0.9969,1.0837-1.9728,2.1446-2.977,3.2362
						c0.2468,0.2252,0.6339,0.5784,1.0355,0.945C15.2484,13.8091,15.476,13.5978,15.742,13.3508z M50.935,14.4556
						c0.0937,0.0479,0.1875,0.0959,0.2812,0.1438c-0.1393,0.275-0.2143,0.629-0.4328,0.8065
						c-0.3278,0.2663-0.9217,0.6718-1.1101,0.5533c-0.5209-0.3277-1.1082-0.8459-1.2334-1.3892
						c-0.0689-0.299,0.6984-0.8582,1.1648-1.1947c0.5101-0.368,1.108-0.6144,1.7219-0.9429
						c-0.6888-0.7427-1.274-0.7137-1.8557-0.322c-0.4475,0.3013-0.8694,0.6457-1.2773,1.0001
						c-1.8612,1.6176-1.8479,2.4046,0.0343,4.009c0.5151,0.4391,1.133,0.5809,1.6504,0.2001
						c0.9314-0.6855,1.8041-1.4608,2.6375-2.2649c0.4119-0.3974,0.3621-0.9429-0.0128-1.4014
						c-0.2655-0.3247-0.5541-0.6305-0.8904-1.0102c-0.7073,0.634-1.3589,1.2182-2.0523,1.8397
						c0.2022,0.2235,0.3813,0.4215,0.5616,0.6207C50.4486,14.8433,50.6918,14.6494,50.935,14.4556z M18.8593,39.2352
						c1.1248,1.0765,2.1484,2.0561,3.1883,3.0514c0.1297-0.1054,0.323-0.2753,0.5297-0.4271
						c0.205-0.1505,0.4235-0.2827,0.6519-0.4334c-0.362-0.4049-0.5825-0.6516-0.798-0.8926
						c1.1416-1.2636,1.1416-1.2636,2.1484-0.4821c0.3669-0.3308,0.7417-0.6686,1.2852-1.1586
						c-0.6344-0.3489-1.1528-0.6339-1.7433-0.9587c0.066-0.5974-0.1469-1.0267-0.7976-1.4142
						c-0.5947-0.3542-1.1174-0.1423-1.5735,0.2331C20.785,37.5475,19.851,38.3798,18.8593,39.2352z M26.9234,37.6355
						c0.5971-0.42,1.3935-0.8637,2.0472-1.4632c1.635-1.4994,1.6087-2.0934,0.0108-3.607
						c-0.7098-0.6724-1.3496-0.8009-2.1607-0.2576c-0.6824,0.4571-1.304,1.0207-1.8906,1.6
						c-0.4935,0.4874-0.9698,1.1113-0.5118,1.82C24.953,36.555,25.5644,37.3718,26.9234,37.6355z M38.205,24.1711
						c-0.7493-0.8021-1.3546-0.794-1.9112-0.3609c-0.697,0.5423-1.3635,1.1328-1.9841,1.761
						c-0.4895,0.4955-0.621,1.0722-0.07,1.6699c0.5369,0.5825,1.1127,0.662,1.7456,0.2091c0.5341-0.3822,1.0347-0.8113,1.5717-1.189
						c0.1271-0.0894,0.3404-0.0561,0.5141-0.0793c-0.0141,0.2,0.0495,0.4753-0.0573,0.5857
						c-0.2936,0.3036-0.6801,0.7804-0.9914,0.7529c-0.8304-0.0733-1.0598,0.571-1.5592,0.9209
						c0.7192,0.6239,1.1281,0.7569,1.7075,0.3126c0.8106-0.6215,1.5647-1.3296,2.2711-2.0694
						c0.4331-0.4536,0.4551-1.0155-0.0158-1.5396c-0.5007-0.5573-1.0582-0.6637-1.6727-0.2512
						c-0.5207,0.3495-0.9935,0.7704-1.5146,1.1192c-0.2042,0.1367-0.4824,0.1628-0.7269,0.2393
						c-0.0546-0.1042-0.1092-0.2085-0.1639-0.3127c0.3994-0.3318,0.7689-0.7119,1.2062-0.9824
						C37.0347,24.6598,37.5777,24.4634,38.205,24.1711z M33.4597,28.3721c-0.7044-0.7466-1.3167-0.7856-1.8675-0.3647
						c-0.7456,0.5698-1.4476,1.2087-2.1007,1.8835c-0.4438,0.4586-0.4641,1.0312-0.009,1.5477
						c0.4524,0.5135,0.9986,0.6671,1.6037,0.3147c0.3924-0.2285,0.7299-0.5495,1.1127-0.797
						c0.3428-0.2216,0.7114-0.4046,1.0787-0.5842c0.0227-0.0111,0.2042,0.2181,0.192,0.2322
						c-0.3108,0.3601-0.634,0.7098-0.965,1.0516c-0.0534,0.0551-0.1561,0.0601-0.2328,0.0952
						c-0.5281,0.2417-1.0554,0.4852-1.6598,0.7635c0.6304,0.7559,1.252,0.8679,1.8094,0.4469
						c0.8144-0.6152,1.5729-1.3182,2.2813-2.0549c0.4616-0.4801,0.4913-1.0438-0.0482-1.5899
						c-0.533-0.5395-1.0596-0.6256-1.6712-0.1899c-0.3956,0.2819-0.7688,0.599-1.1819,0.8514
						c-0.3064,0.1872-0.6609,0.2958-0.9939,0.4394c0.2155-0.3471,0.4184-0.7032,0.6541-1.0361
						c0.0735-0.1038,0.2321-0.1518,0.3577-0.2135C32.3312,28.9165,32.8453,28.6696,33.4597,28.3721z M40.5679,35.5104
						c0.6819,0.2087,1.1733-0.3607,1.5247-0.9858c0.3594-0.6393-0.0982-1.1455-0.5375-1.5729
						c-0.7332-0.7133-1.4886-1.4038-2.3371-2.2001c-1.0086,1.1139-1.975,2.1813-2.9572,3.266
						c0.2457,0.2259,0.5786,0.532,0.9098,0.8366c0.3341-0.2587,0.6195-0.4797,0.8952-0.6933
						c1.1436,0.9808,1.1436,0.9808,0.4316,1.9365c0.3334,0.3165,0.6728,0.6387,1.1541,1.0956
						C39.9853,36.5803,40.2573,36.0808,40.5679,35.5104z M48.3676,45.3594c0.5013,0.4713,1.0608,0.9946,1.6174,1.5209
						c1.6601,1.5697,2.2239,1.5569,3.7973-0.0895c0.0589-0.0617,0.1196-0.122,0.1753-0.1865
						c0.5208-0.6033,0.5627-1.2633,0.0583-1.857c-0.7873-0.9266-1.6402-1.7975-2.5198-2.751
						C50.3455,43.2331,49.3795,44.2716,48.3676,45.3594z M22.4371,21.0918c0.3873-0.9307,0.7284-1.7454,1.0657-2.5618
						c0.7848-1.8996,0.7868-1.9033-0.806-3.2055c-0.133-0.1087-0.3737-0.2272-0.5022-0.1782
						c-1.4161,0.5403-2.8198,1.113-4.4434,1.7636c0.6668,0.4311,1.1427,0.9923,1.6313,1.0036
						c1.1339,0.0261,2.1391,1.0059,1.8402,2.0883C21.5913,20.3327,21.9701,20.6727,22.4371,21.0918z M46.103,38.0782
						c-0.0306-0.2373-0.0095-0.3998-0.0731-0.5158c-0.6229-1.1349-1.4798-2.0568-2.7217-2.4735
						c-1.0227-0.3432-1.5078,0.5838-2.1411,1.117c-0.087,0.0732-0.1639,0.1592-0.241,0.2433
						c-0.4944,0.5391-0.5607,1.1755-0.1302,1.7186c0.5082,0.6411,1.1128,1.2212,1.745,1.7438
						c0.4957,0.4097,1.1513,0.6554,1.7435,0.2303C45.0567,39.5873,45.89,39.0402,46.103,38.0782z M19.6443,42.025
						c-0.3534,0.4731-0.8199,0.8591-0.9504,1.337c-0.1404,0.5141-0.696,1.4985-1.0972,1.3085
						c-0.5477-0.2595-1.0677-0.758-1.3508-1.2872c-0.0868-0.1622,0.6873-1.1283,0.9907-1.0917
						c0.9273,0.1118,1.1641-0.6116,1.7027-0.9772c-0.7458-0.7852-1.1502-0.8661-1.9446-0.336
						c-0.4242,0.283-0.817,0.6212-1.1908,0.9701c-1.6747,1.5634-1.6492,2.3002,0.1065,3.7797
						c0.0436,0.0367,0.0909,0.0689,0.1354,0.1046c0.5215,0.418,1.1397,0.5356,1.6642,0.1575
						c0.8241-0.5942,1.6302-1.2449,2.3166-1.9891C20.616,43.3619,20.4714,42.8021,19.6443,42.025z M43.8802,41.1321
						c0.5955,0.407,0.7174,1.1814,1.712,0.908c0.3495-0.096,0.9749,0.8118,1.4743,1.2613c-0.5431,0.9565,0.4567,1.0655,0.842,1.6589
						c0.6843-1.4734,1.3161-2.8336,1.9601-4.2202c-0.4571-0.4341-0.875-0.8637-1.3323-1.2462
						c-0.1466-0.1226-0.4408-0.2241-0.5934-0.1597C46.6172,39.8938,45.3084,40.4933,43.8802,41.1321z M27.9691,20.3924
						c-1.031,1.0759-2.0114,2.099-3.0372,3.1695c0.9798,0.9077,1.9759,1.8306,3.0284,2.8057
						c0.2856-0.2644,0.5068-0.4692,0.7809-0.7229c-0.6827-0.6348-1.265-1.1763-2.0303-1.8879
						c0.8361-0.7459,1.6571-1.4782,2.512-2.2408C28.7915,21.1293,28.4331,20.8082,27.9691,20.3924z M38.313,21.9654
						c1.0596,1.0421,2.081,2.0467,3.1431,3.0912c0.3312-0.3055,0.6953-0.6413,1.099-1.0137
						c-1.1085-1.0434-2.1399-2.0143-3.197-3.0094C39.0601,21.2993,38.6824,21.6361,38.313,21.9654z M24.1589,22.7308
						c1.009-1.0753,1.9747-2.1044,2.9916-3.188c-0.2734-0.257-0.6551-0.6157-1.0896-1.0241
						c-1.0139,1.0793-1.9807,2.1084-2.9882,3.1809C23.3967,22.0072,23.7601,22.3522,24.1589,22.7308z"/>
					<path d="M33.3465,88.2261c-4.3502,0-8.7004,0.0029-13.0506-0.001c-2.8415-0.0025-4.8524-2.0001-4.8664-4.8502
						c-0.0136-2.7474-0.0112-5.495-0.0007-8.2425c0.0108-2.8456,1.9701-4.8896,4.8434-4.9007
						c8.7289-0.0337,17.4582-0.041,26.187,0.0034c3.0365,0.0154,4.9369,2.4477,4.8205,4.9165
						c-0.1306,2.77-0.1081,5.5537-0.0072,8.3261c0.0935,2.567-2.1177,4.7618-4.7895,4.7525
						C42.1042,88.2149,37.7253,88.226,33.3465,88.2261z M33.4391,79.1605c0.0337,0.0017,0.0673,0.0034,0.101,0.005
						c0,0.9723-0.0485,1.9475,0.0102,2.9162c0.1181,1.9476,1.0812,2.9624,2.9366,3.1902c2.4483,0.3006,4.0702-0.7056,4.2224-2.871
						c0.1518-2.1596,0.1088-4.3414,0.0114-6.5072c-0.0669-1.4886-0.9601-2.546-2.168-2.7456
						c-0.7754-0.1282-1.5892-0.1252-2.376-0.0611c-1.4071,0.1146-2.2634,0.9624-2.4646,2.3238
						C33.5293,76.6471,33.5231,77.9095,33.4391,79.1605z M25.3108,76.8539c-0.075-0.7226-0.0895-1.404-0.2271-2.0595
						c-0.2057-0.98-0.7793-1.6678-1.8489-1.7249c-0.8211-0.0438-1.6543-0.0675-2.4688,0.0215
						c-1.1864,0.1296-1.8163,0.6618-1.9427,1.8144c-0.1293,1.179-0.126,2.3914-0.0106,3.5726
						c0.0926,0.9481,0.6915,1.6017,1.7336,1.7159c0.7079,0.0776,1.4166,0.1675,2.1148,0.3037
						c0.2094,0.0408,0.4853,0.2153,0.5591,0.3979c0.4042,1.0001-0.08,1.627-1.1471,1.7008
						c-1.0062,0.0696-1.4117-0.4055-1.4314-1.3178c-0.6905,0-1.3307,0-1.9625,0c-0.2825,2.9643,0.7094,4.0635,3.5562,4.0075
						c0.2834-0.0056,0.5687-0.0457,0.8481-0.0971c1.5781-0.29,2.224-0.9702,2.353-2.5693c0.0596-0.7382,0.053-1.4877,0.0052-2.2274
						c-0.11-1.7036-0.6354-2.2449-2.3355-2.4919c-0.4233-0.0615-0.848-0.1376-1.2739-0.1509
						c-0.7613-0.0237-1.0528-0.3906-1.0294-1.142c0.0228-0.7336,0.4357-0.8652,1.0539-0.9339
						c0.9134-0.1015,1.3434,0.2723,1.3448,1.1804C23.8982,76.8539,24.5427,76.8539,25.3108,76.8539z M44.4472,82.0676
						c0.8141,0,1.4678,0.0106,2.1209-0.0023c1.2471-0.0247,2.0765-0.5372,2.1783-1.7343c0.1487-1.7486,0.1169-3.5251-0.0004-5.2788
						c-0.0611-0.9128-0.6579-1.775-1.6422-1.8547c-1.5765-0.1277-3.171-0.0342-4.7494-0.0342c0,4.0202,0,7.9823,0,11.9531
						c0.7061,0,1.3538,0,2.0928,0C44.4472,84.1124,44.4472,83.1488,44.4472,82.0676z M28.4019,75.8953c0,3.1665,0,6.186,0,9.2301
						c0.7321,0,1.3818,0,2.1533,0c0-3.0745,0-6.1171,0-9.2599c0.7596,0,1.4014,0,2.0443,0c0-0.9738,0-1.843,0-2.7208
						c-2.1092,0-4.1551,0-6.2279,0c0,0.9221,0,1.7933,0,2.7506C27.0317,75.8953,27.6467,75.8953,28.4019,75.8953z"/>
					<path d="M25.1939,56.7096c1.6655,0,3.1427,0,4.6691,0c0.0346-0.5569,0.064-1.0297,0.0965-1.5518c2.534,0,5.0382,0,7.6418,0
						c0.0225,0.4789,0.0446,0.9502,0.0719,1.532c1.5155,0,3.0128,0,4.6324,0c-0.7821,2.8622-0.9008,5.6052,0.1243,8.4172
						c-1.6414,0-3.147,0-4.7245,0c-0.0406,0.4549-0.0745,0.8362-0.1135,1.2732c-2.5466,0-5.0739,0-7.6372,0
						c-0.0271-0.3953-0.0519-0.7587-0.0849-1.2402c-1.5682,0-3.1249,0-4.8233,0C26.0887,62.3095,25.9804,59.5837,25.1939,56.7096z"
						/>
					<path d="M24.8338,60.9577c-0.0772,4.7779-3.985,8.7704-8.7597,9.1016c-4.9463,0.3431-8.8568-2.5496-10.1493-6.3835
						c-1.768-5.2446,1.9037-11.0419,7.4858-11.8507c4.9269-0.7139,9.2825,1.6938,10.8914,6.036
						c0.1869,0.5044,0.3341,1.0316,0.4251,1.561C24.8137,59.9252,24.8022,60.4451,24.8338,60.9577z M15.2734,56.6091
						c-2.2528-0.0067-5.0945,2.1122-5.7103,4.1208c-0.0331,0.1081-0.0489,0.2226-0.0631,0.3353
						c-0.3646,2.8822,1.5066,5.4802,4.3539,6.0466c3.0435,0.6055,5.9957-1.0692,6.7354-3.871
						c0.2532-0.9591,0.4588-1.9768-0.1945-2.8759c-0.4675-0.6434-1.0686-1.1921-1.5151-1.8478
						C17.9572,57.1626,16.6935,56.5637,15.2734,56.6091z M22.7609,59.8628c-0.86-3.6911-4.205-6.611-9.0529-5.9313
						c-3.254,0.4562-6.2292,3.541-5.8219,5.9275c1.1323-0.2899,1.8321-1.0998,2.4836-1.9836
						c2.4492-3.3224,6.9433-3.3154,9.32,0.0195C20.4364,58.9427,21.3854,59.6482,22.7609,59.8628z"/>
					<path d="M52.6101,70.1016c-5.8251-0.0224-10.0928-4.2674-9.9631-9.617c0.0975-4.018,3.1803-7.5454,7.4894-8.5695
						c4.4034-1.0465,9.2148,1.2263,11.0432,5.2167c2.4291,5.3012-0.7668,11.4922-6.5738,12.7047
						C53.8553,69.9932,53.0819,70.0408,52.6101,70.1016z M52.5146,56.609c-2.215-0.0066-5.1966,2.2038-5.7254,4.1064
						c-0.0227,0.0815-0.0183,0.1702-0.0321,0.2547c-0.4957,3.0375,1.4735,5.626,4.731,6.2184
						c2.8368,0.5159,5.9262-1.4908,6.3834-4.2696c0.1343-0.8163,0.0293-1.7712-0.2824-2.5332
						c-0.298-0.7287-1.0517-1.2578-1.5265-1.9301C55.1409,57.1504,53.9004,56.5581,52.5146,56.609z M59.9968,59.855
						c-0.6628-3.9696-4.9258-6.8175-8.9809-6.0932c-3.3281,0.5944-6.3304,3.6859-5.8846,6.0594
						c1.0995-0.3248,1.4719-0.6294,2.5785-2.1093c2.3195-3.1019,6.8773-3.0742,9.1203,0.0712
						C57.6056,58.8704,58.5528,59.653,59.9968,59.855z"/>
					<path d="M36.488,53.6131c-1.8285,0-3.6796,0.0219-5.5281-0.0364c-0.1708-0.0054-0.4564-0.5162-0.4659-0.7998
						c-0.0521-1.5425-0.0352-3.0874-0.0402-4.6315c-0.0087-2.6593-0.0349-5.3189-0.0021-7.9777
						c0.0045-0.3662,0.2146-0.8248,0.4835-1.0754c0.8737-0.8142,1.819-1.5517,2.7921-2.365
						c0.9203,0.7783,1.8148,1.5195,2.6852,2.2881c0.1251,0.1105,0.1882,0.3527,0.1884,0.5341
						c0.0071,4.5754,0.0024,9.1508-0.0042,13.7262C36.5967,53.3545,36.5478,53.4333,36.488,53.6131z"/>
					<path d="M33.7542,20.9031c-0.9839-0.883-1.9399-1.7383-2.8914-2.5986c-0.1032-0.0933-0.2607-0.2176-0.2576-0.3236
						c0.0366-1.2727-0.1051-2.5988,0.214-3.801c0.2957-1.1142,1.5397-1.1344,2.5391-1.1536
						c1.1068-0.0213,2.3541-0.1149,2.9613,1.0542c0.3047,0.5868,0.1634,1.3913,0.299,2.0826
						c0.3326,1.6962-0.3639,2.8836-1.7404,3.7907C34.4997,20.203,34.1791,20.5399,33.7542,20.9031z"/>
					<path d="M36.5607,93.2597c-1.9908,0-3.9405,0-5.9558,0c0-1.3162,0-2.587,0-3.9278c1.9607,0,3.9333,0,5.9558,0
						C36.5607,90.5857,36.5607,91.8286,36.5607,93.2597z"/>
					<path d="M36.5592,67.4487c0,0.614,0,1.1973,0,1.8338c-1.9761,0-3.9288,0-5.9509,0c0-0.5879,0-1.1696,0-1.8338
						C32.5666,67.4487,34.537,67.4487,36.5592,67.4487z"/>
					<path class="st0" d="M46.2467,19.2666c-0.8857-0.8378-1.5862-1.5004-2.3649-2.2371c0.4483-0.4132,0.8156-0.7518,1.173-1.0812
						c1.031,1.0288,2.0339,2.0294,3.1112,3.1043c-0.5748,0.5217-1.1564,1.0995-1.7992,1.5984
						c-0.1645,0.1277-0.5417,0.0654-0.7887-0.0124c-0.8922-0.281-1.7706-0.6058-2.6398-0.9091
						c0.6729,0.6904,1.3464,1.3815,2.0891,2.1435c-0.4865,0.4273-0.8646,0.7594-1.1929,1.0477
						c-1.0608-1.0055-2.093-1.9838-3.1924-3.0258c0.6513-0.5825,1.2174-1.1386,1.8438-1.6155
						c0.167-0.1272,0.5369-0.0714,0.7826,0.003C44.1883,18.5607,45.0954,18.8816,46.2467,19.2666z"/>
					<path class="st0" d="M15.742,13.3508c-0.266,0.2469-0.4936,0.4583-0.7823,0.7264c-0.4017-0.3666-0.7888-0.7198-1.0355-0.945
						c1.0042-1.0916,1.9801-2.1526,2.977-3.2362c0.8934,0.8359,1.758,1.617,2.5887,2.4328c0.4738,0.4653,0.9389,1.009,0.5738,1.7271
						c-0.335,0.6588-0.902,1.02-1.4911,0.8789c-0.3042,0.5726-0.5684,1.0698-0.891,1.6771c-0.5401-0.4867-0.931-0.8388-1.32-1.1894
						C17.1365,14.4707,17.0985,14.3463,15.742,13.3508z M17.3621,11.8139c-0.3264,0.2728-0.58,0.4848-0.8737,0.7303
						c0.5459,0.4609,0.9889,0.8349,1.4625,1.2348c0.2612-0.2779,0.4483-0.477,0.6587-0.7009
						c-0.1778-0.2124-0.3088-0.3951-0.4663-0.5511C17.9038,12.2898,17.6459,12.071,17.3621,11.8139z"/>
					<path class="st0" d="M50.935,14.4556c-0.2432,0.1939-0.4864,0.3877-0.8129,0.6481c-0.1803-0.1993-0.3594-0.3972-0.5616-0.6207
						c0.6933-0.6215,1.345-1.2057,2.0523-1.8397c0.3363,0.3797,0.6249,0.6855,0.8904,1.0102
						c0.3749,0.4585,0.4247,1.0039,0.0128,1.4014c-0.8333,0.804-1.7061,1.5794-2.6375,2.2649
						c-0.5174,0.3808-1.1353,0.239-1.6504-0.2001c-1.8822-1.6044-1.8955-2.3914-0.0343-4.009
						c0.4079-0.3545,0.8297-0.6988,1.2773-1.0001c0.5817-0.3916,1.1669-0.4207,1.8557,0.322
						c-0.6139,0.3285-1.2118,0.5749-1.7219,0.9429c-0.4664,0.3365-1.2337,0.8957-1.1648,1.1947
						c0.1252,0.5433,0.7125,1.0615,1.2334,1.3892c0.1884,0.1185,0.7823-0.2871,1.1101-0.5533
						c0.2185-0.1775,0.2936-0.5315,0.4328-0.8065C51.1225,14.5514,51.0288,14.5035,50.935,14.4556z"/>
					<path class="st0" d="M18.8593,39.2352c0.9916-0.8554,1.9257-1.6877,2.891-2.4821c0.4562-0.3754,0.9789-0.5873,1.5735-0.2331
						c0.6507,0.3876,0.8636,0.8168,0.7976,1.4142c0.5906,0.3248,1.1089,0.6098,1.7433,0.9587
						c-0.5435,0.4899-0.9182,0.8278-1.2852,1.1586c-1.0068-0.7815-1.0068-0.7815-2.1484,0.4821
						c0.2155,0.241,0.436,0.4877,0.798,0.8926c-0.2284,0.1507-0.4469,0.2829-0.6519,0.4334c-0.2067,0.1517-0.4,0.3216-0.5297,0.4271
						C21.0077,41.2913,19.9841,40.3117,18.8593,39.2352z M22.8934,38.6926c-0.4191-1.105-0.9348-1.0128-2.0019,0.344
						c0.2387,0.2188,0.4791,0.439,0.7348,0.6734c0.2842-0.2521,0.4897-0.4481,0.7101-0.6255
						C22.5153,38.9406,22.712,38.819,22.8934,38.6926z"/>
					<path class="st0" d="M26.9234,37.6355c-1.359-0.2637-1.9704-1.0805-2.505-1.9078c-0.458-0.7087,0.0183-1.3326,0.5118-1.82
						c0.5865-0.5793,1.2082-1.1429,1.8906-1.6c0.811-0.5433,1.4508-0.4148,2.1607,0.2576c1.5979,1.5137,1.6242,2.1077-0.0108,3.607
						C28.3169,36.7718,27.5204,37.2155,26.9234,37.6355z M28.9231,34.8521c-0.7038-0.5793-1.1929-1.2923-1.7088-1.3124
						c-0.4458-0.0173-0.9223,0.753-1.3852,1.1752c0.4798,0.4485,0.9067,1.1435,1.4573,1.2616
						C27.6739,36.0596,28.2297,35.3584,28.9231,34.8521z"/>
					<path class="st0" d="M38.205,24.1711c-0.6273,0.2923-1.1703,0.4887-1.6509,0.786c-0.4373,0.2705-0.8068,0.6506-1.2062,0.9824
						c0.0546,0.1042,0.1092,0.2085,0.1639,0.3127c0.2445-0.0765,0.5227-0.1026,0.7269-0.2393
						c0.5211-0.3487,0.9939-0.7696,1.5146-1.1192c0.6145-0.4125,1.172-0.3062,1.6727,0.2512
						c0.4709,0.5241,0.4489,1.086,0.0158,1.5396c-0.7063,0.7398-1.4604,1.4479-2.2711,2.0694
						c-0.5794,0.4442-0.9883,0.3112-1.7075-0.3126c0.4993-0.3499,0.7288-0.9941,1.5592-0.9209
						c0.3113,0.0275,0.6978-0.4494,0.9914-0.7529c0.1068-0.1104,0.0432-0.3856,0.0573-0.5857
						c-0.1737,0.0232-0.387-0.0101-0.5141,0.0793c-0.537,0.3777-1.0376,0.8069-1.5717,1.189
						c-0.6329,0.4529-1.2086,0.3733-1.7456-0.2091c-0.551-0.5977-0.4195-1.1744,0.07-1.6699
						c0.6206-0.6281,1.2872-1.2187,1.9841-1.761C36.8504,23.3771,37.4557,23.369,38.205,24.1711z"/>
					<path class="st0" d="M33.4597,28.3721c-0.6144,0.2975-1.1286,0.5444-1.6405,0.7959c-0.1255,0.0617-0.2842,0.1097-0.3577,0.2135
						c-0.2357,0.3329-0.4386,0.689-0.6541,1.0361c0.333-0.1436,0.6875-0.2522,0.9939-0.4394
						c0.4131-0.2524,0.7863-0.5695,1.1819-0.8514c0.6116-0.4357,1.1382-0.3496,1.6712,0.1899
						c0.5395,0.5461,0.5098,1.1098,0.0482,1.5899c-0.7084,0.7367-1.467,1.4397-2.2813,2.0549
						c-0.5574,0.4211-1.1789,0.309-1.8094-0.4469c0.6044-0.2783,1.1317-0.5219,1.6598-0.7635
						c0.0767-0.0351,0.1794-0.0401,0.2328-0.0952c0.3311-0.3418,0.6543-0.6915,0.965-1.0516
						c0.0121-0.0141-0.1693-0.2433-0.192-0.2322c-0.3672,0.1796-0.7359,0.3626-1.0787,0.5842
						c-0.3828,0.2475-0.7203,0.5684-1.1127,0.797c-0.6051,0.3524-1.1512,0.1988-1.6037-0.3147
						c-0.4551-0.5166-0.4348-1.0892,0.009-1.5477c0.653-0.6748,1.355-1.3137,2.1007-1.8835
						C32.143,27.5865,32.7553,27.6255,33.4597,28.3721z"/>
					<path class="st0" d="M40.5679,35.5104c-0.3106,0.5704-0.5826,1.0698-0.9163,1.6827c-0.4813-0.4569-0.8208-0.7792-1.1541-1.0956
						c0.7119-0.9557,0.7119-0.9557-0.4316-1.9365c-0.2758,0.2135-0.5611,0.4345-0.8952,0.6933
						c-0.3313-0.3046-0.6641-0.6107-0.9098-0.8366c0.9821-1.0847,1.9486-2.1521,2.9572-3.266
						c0.8485,0.7963,1.6039,1.4868,2.3371,2.2001c0.4393,0.4273,0.8969,0.9336,0.5375,1.5729
						C41.7412,35.1497,41.2498,35.7191,40.5679,35.5104z M39.5851,32.6375c-0.2491,0.237-0.4899,0.4662-0.73,0.6947
						c1.1802,1.2522,1.1802,1.2522,1.8191,0.3517C40.3364,33.3594,39.9916,33.0281,39.5851,32.6375z"/>
					<path class="st0" d="M48.3676,45.3594c1.0119-1.0879,1.9779-2.1263,3.1284-3.3631c0.8796,0.9535,1.7326,1.8243,2.5198,2.751
						c0.5045,0.5938,0.4625,1.2537-0.0583,1.857c-0.0557,0.0645-0.1163,0.1248-0.1753,0.1865
						c-1.5734,1.6464-2.1372,1.6592-3.7973,0.0895C49.4283,46.354,48.8689,45.8307,48.3676,45.3594z M51.8562,43.9518
						c-0.6836,0.5993-1.2088,1.0597-1.9131,1.6772c0.7004,0.3603,1.2463,0.8724,1.739,0.8256
						c0.4381-0.0417,1.1532-0.7153,1.1394-1.0876C52.8035,44.8755,52.1934,44.4059,51.8562,43.9518z"/>
					<path class="st0" d="M22.4371,21.0918c-0.467-0.4192-0.8458-0.7592-1.2144-1.09c0.299-1.0824-0.7062-2.0622-1.8402-2.0883
						c-0.4886-0.0112-0.9645-0.5725-1.6313-1.0036c1.6236-0.6506,3.0273-1.2233,4.4434-1.7636
						c0.1285-0.049,0.3692,0.0694,0.5022,0.1782c1.5928,1.3022,1.5908,1.3059,0.806,3.2055
						C23.1655,19.3464,22.8244,20.1612,22.4371,21.0918z M20.8836,17.414c0.3336,0.2835,0.6441,0.5474,1.0191,0.8661
						c0.2472-0.579,0.4454-1.0432,0.7045-1.6501c-0.5881,0.2343-0.9854,0.3871-1.3775,0.5523
						C21.1271,17.2256,21.0405,17.3071,20.8836,17.414z"/>
					<path class="st0" d="M46.103,38.0782c-0.213,0.962-1.0463,1.5091-1.8186,2.0636c-0.5922,0.4252-1.2478,0.1795-1.7435-0.2303
						c-0.6322-0.5226-1.2368-1.1027-1.745-1.7438c-0.4305-0.5431-0.3642-1.1795,0.1302-1.7186
						c0.0771-0.0841,0.154-0.1701,0.241-0.2433c0.6333-0.5332,1.1184-1.4602,2.1411-1.117
						c1.2419,0.4167,2.0988,1.3387,2.7217,2.4735C46.0936,37.6784,46.0724,37.841,46.103,38.0782z M43.4272,36.1606
						c-0.5598,0.6198-1.1472,1.0575-1.3723,1.6362c-0.0775,0.1991,0.9102,1.1507,1.1312,1.0618
						c0.5701-0.2291,1.1161-0.7834,1.3872-1.3451C44.6667,37.32,43.9188,36.7205,43.4272,36.1606z"/>
					<path class="st0" d="M19.6443,42.025c0.8272,0.777,0.9717,1.3369,0.3823,1.976c-0.6864,0.7442-1.4925,1.3949-2.3166,1.9891
						c-0.5244,0.3781-1.1426,0.2605-1.6642-0.1575c-0.0445-0.0357-0.0918-0.0679-0.1354-0.1046
						c-1.7557-1.4795-1.7812-2.2162-0.1065-3.7797c0.3738-0.3489,0.7666-0.6871,1.1908-0.9701
						c0.7944-0.5301,1.1988-0.4492,1.9446,0.336c-0.5386,0.3656-0.7754,1.089-1.7027,0.9772
						c-0.3034-0.0366-1.0774,0.9295-0.9907,1.0917c0.2831,0.5292,0.8031,1.0277,1.3508,1.2872
						c0.4011,0.1901,0.9568-0.7943,1.0972-1.3085C18.8244,42.8841,19.2909,42.4981,19.6443,42.025z"/>
					<path class="st0" d="M43.8802,41.1321c1.4282-0.6388,2.737-1.2383,4.0627-1.7979c0.1526-0.0644,0.4468,0.0371,0.5934,0.1597
						c0.4573,0.3825,0.8752,0.8121,1.3323,1.2462c-0.644,1.3867-1.2758,2.7468-1.9601,4.2202
						c-0.3853-0.5934-1.3851-0.7024-0.842-1.6589c-0.4994-0.4495-1.1248-1.3574-1.4743-1.2613
						C44.5976,42.3135,44.4757,41.5392,43.8802,41.1321z M48.3607,40.6626c-0.7015,0.3325-1.163,0.5512-1.7218,0.816
						c0.3602,0.3257,0.6052,0.5472,0.9109,0.8236C47.806,41.784,48.0266,41.338,48.3607,40.6626z"/>
					<path class="st0" d="M27.9691,20.3924c0.464,0.4158,0.8223,0.7369,1.2538,1.1236c-0.8549,0.7626-1.6759,1.4949-2.512,2.2408
						c0.7653,0.7116,1.3476,1.2531,2.0303,1.8879c-0.2741,0.2537-0.4953,0.4585-0.7809,0.7229
						c-1.0525-0.9751-2.0487-1.898-3.0284-2.8057C25.9577,22.4914,26.9381,21.4683,27.9691,20.3924z"/>
					<path class="st0" d="M38.313,21.9654c0.3694-0.3294,0.747-0.6661,1.045-0.9318c1.0571,0.9951,2.0885,1.9659,3.197,3.0094
						c-0.4037,0.3724-0.7678,0.7082-1.099,1.0137C40.394,24.0121,39.3727,23.0076,38.313,21.9654z"/>
					<path class="st0" d="M24.1589,22.7308c-0.3987-0.3785-0.7622-0.7236-1.0862-1.0312c1.0075-1.0725,1.9743-2.1017,2.9882-3.1809
						c0.4345,0.4084,0.8162,0.7671,1.0896,1.0241C26.1336,20.6264,25.1679,21.6555,24.1589,22.7308z"/>
					<path class="st0" d="M33.4391,79.1605c0.084-1.2509,0.0902-2.5133,0.273-3.7496c0.2013-1.3614,1.0576-2.2093,2.4646-2.3238
						c0.7868-0.0641,1.6006-0.067,2.376,0.0611c1.2079,0.1996,2.1011,1.257,2.168,2.7456c0.0974,2.1658,0.1403,4.3475-0.0114,6.5072
						c-0.1522,2.1654-1.7741,3.1716-4.2224,2.871c-1.8554-0.2278-2.8185-1.2426-2.9366-3.1902
						c-0.0588-0.9687-0.0102-1.9439-0.0102-2.9162C33.5064,79.1638,33.4727,79.1621,33.4391,79.1605z M38.5432,79.2267
						c0-0.7996,0.032-1.6008-0.0085-2.3983c-0.0452-0.8892-0.6876-0.9843-1.4056-0.9908c-0.7113-0.0065-1.3113,0.171-1.3371,0.9761
						c-0.0494,1.5398-0.0467,3.0832-0.002,4.6233c0.0234,0.8064,0.6055,0.9903,1.3259,0.9828
						c0.7141-0.0075,1.3654-0.0703,1.4182-0.9664C38.5777,80.7136,38.5429,79.9693,38.5432,79.2267z"/>
					<path class="st0" d="M25.3108,76.8539c-0.7681,0-1.4126,0-2.1091,0c-0.0014-0.9081-0.4314-1.2819-1.3448-1.1804
						c-0.6182,0.0687-1.031,0.2003-1.0539,0.9339c-0.0234,0.7514,0.2681,1.1183,1.0294,1.142
						c0.4258,0.0133,0.8506,0.0894,1.2739,0.1509c1.7001,0.2471,2.2256,0.7883,2.3355,2.4919
						c0.0478,0.7398,0.0543,1.4892-0.0052,2.2274c-0.129,1.5991-0.7749,2.2793-2.353,2.5693
						c-0.2794,0.0514-0.5647,0.0915-0.8481,0.0971c-2.8468,0.056-3.8387-1.0432-3.5562-4.0075c0.6318,0,1.272,0,1.9625,0
						c0.0197,0.9124,0.4252,1.3874,1.4314,1.3178c1.0671-0.0738,1.5513-0.7007,1.1471-1.7008
						c-0.0738-0.1826-0.3497-0.3571-0.5591-0.3979c-0.6982-0.1362-1.4069-0.2261-2.1148-0.3037
						c-1.0421-0.1142-1.641-0.7678-1.7336-1.7159c-0.1154-1.1812-0.1187-2.3936,0.0106-3.5726
						c0.1264-1.1526,0.7563-1.6848,1.9427-1.8144c0.8145-0.089,1.6477-0.0654,2.4688-0.0215
						c1.0695,0.0571,1.6432,0.7448,1.8489,1.7249C25.2213,75.4499,25.2358,76.1313,25.3108,76.8539z"/>
					<path class="st0" d="M44.4472,82.0676c0,1.0812,0,2.0448,0,3.0488c-0.7391,0-1.3867,0-2.0928,0c0-3.9708,0-7.9329,0-11.9531
						c1.5784,0,3.1728-0.0935,4.7494,0.0342c0.9844,0.0798,1.5812,0.9419,1.6422,1.8547c0.1173,1.7537,0.1491,3.5302,0.0004,5.2788
						c-0.1018,1.197-0.9312,1.7096-2.1783,1.7343C45.9149,82.0782,45.2613,82.0676,44.4472,82.0676z M44.4503,75.9999
						c0,0.8257-0.0308,1.6483,0.0172,2.4663c0.0161,0.2745,0.2354,0.7681,0.3576,0.7668c0.6375-0.0069,1.4596,0.36,1.8452-0.4392
						c0.819-1.6977-0.0662-3.0022-1.9075-2.8932C44.7096,75.9037,44.6579,75.9327,44.4503,75.9999z"/>
					<path class="st0" d="M28.4019,75.8953c-0.7552,0-1.3702,0-2.0304,0c0-0.9573,0-1.8284,0-2.7506c2.0729,0,4.1188,0,6.2279,0
						c0,0.8777,0,1.7469,0,2.7208c-0.6429,0-1.2847,0-2.0443,0c0,3.1428,0,6.1854,0,9.2599c-0.7715,0-1.4212,0-2.1533,0
						C28.4019,82.0813,28.4019,79.0619,28.4019,75.8953z"/>
					<path class="st0" d="M15.2734,56.6091c1.4201-0.0453,2.6839,0.5535,3.6062,1.908c0.4465,0.6557,1.0476,1.2044,1.5151,1.8478
						c0.6533,0.8991,0.4478,1.9167,0.1945,2.8759c-0.7397,2.8018-3.692,4.4765-6.7354,3.871
						c-2.8473-0.5665-4.7185-3.1644-4.3539-6.0466c0.0143-0.1127,0.03-0.2272,0.0631-0.3353
						C10.1789,58.7212,13.0206,56.6024,15.2734,56.6091z"/>
					<path class="st0" d="M22.7609,59.8628c-1.3755-0.2146-2.3246-0.9201-3.0713-1.9678c-2.3767-3.335-6.8708-3.342-9.32-0.0195
						c-0.6515,0.8838-1.3513,1.6936-2.4836,1.9836c-0.4073-2.3865,2.5679-5.4713,5.8219-5.9275
						C18.556,53.2518,21.9009,56.1718,22.7609,59.8628z"/>
					<path class="st0" d="M52.5146,56.609c1.3858-0.0509,2.6263,0.5415,3.548,1.8466c0.4748,0.6723,1.2285,1.2014,1.5265,1.9301
						c0.3116,0.762,0.4166,1.7169,0.2824,2.5332c-0.4571,2.7788-3.5466,4.7855-6.3834,4.2696
						c-3.2575-0.5924-5.2267-3.1809-4.731-6.2184c0.0138-0.0844,0.0094-0.1731,0.0321-0.2547
						C47.318,58.8128,50.2996,56.6023,52.5146,56.609z"/>
					<path class="st0" d="M59.9968,59.855c-1.444-0.2019-2.3912-0.9846-3.1666-2.0719c-2.2431-3.1455-6.8008-3.1731-9.1203-0.0712
						c-1.1066,1.4799-1.479,1.7845-2.5785,2.1093c-0.4458-2.3735,2.5565-5.4649,5.8846-6.0594
						C55.071,53.0374,59.334,55.8853,59.9968,59.855z"/>
					<path d="M17.3621,11.8139c0.2838,0.2571,0.5417,0.4759,0.7812,0.7131c0.1575,0.156,0.2885,0.3387,0.4663,0.5511
						c-0.2104,0.2239-0.3975,0.423-0.6587,0.7009c-0.4736-0.3999-0.9166-0.7739-1.4625-1.2348
						C16.7821,12.2987,17.0357,12.0867,17.3621,11.8139z"/>
					<path d="M22.8934,38.6926c-0.1814,0.1264-0.3782,0.248-0.5569,0.3919c-0.2204,0.1774-0.4259,0.3734-0.7101,0.6255
						c-0.2558-0.2344-0.4961-0.4547-0.7348-0.6734C21.9587,37.6798,22.4743,37.5876,22.8934,38.6926z"/>
					<path d="M28.9231,34.8521c-0.6934,0.5063-1.2492,1.2075-1.6368,1.1244c-0.5506-0.1181-0.9775-0.8131-1.4573-1.2616
						c0.4629-0.4221,0.9394-1.1925,1.3852-1.1752C27.7302,33.5597,28.2193,34.2728,28.9231,34.8521z"/>
					<path d="M39.5851,32.6375c0.4065,0.3906,0.7513,0.7218,1.0891,1.0464c-0.6389,0.9005-0.6389,0.9005-1.8191-0.3517
						C39.0952,33.1037,39.336,32.8746,39.5851,32.6375z"/>
					<path d="M51.8562,43.9518c0.3371,0.4541,0.9472,0.9237,0.9653,1.4152c0.0137,0.3723-0.7013,1.0459-1.1394,1.0876
						c-0.4927,0.0469-1.0386-0.4652-1.739-0.8256C50.6474,45.0115,51.1726,44.5511,51.8562,43.9518z"/>
					<path d="M20.8836,17.414c0.1569-0.1068,0.2435-0.1884,0.3461-0.2317c0.3921-0.1652,0.7894-0.3181,1.3775-0.5523
						c-0.2591,0.6069-0.4573,1.0712-0.7045,1.6501C21.5277,17.9614,21.2172,17.6975,20.8836,17.414z"/>
					<path d="M43.4272,36.1606c0.4916,0.5598,1.2395,1.1594,1.1461,1.3529c-0.2711,0.5617-0.8172,1.116-1.3872,1.3451
						c-0.221,0.0889-1.2087-0.8627-1.1312-1.0618C42.28,37.2182,42.8673,36.7805,43.4272,36.1606z"/>
					<path d="M48.3607,40.6626c-0.3341,0.6754-0.5547,1.1214-0.8109,1.6396c-0.3056-0.2764-0.5507-0.4979-0.9109-0.8236
						C47.1977,41.2138,47.6591,40.9951,48.3607,40.6626z"/>
					<path d="M38.543,79.2268c-0.0001,0.7424,0.0346,1.4868-0.009,2.2265c-0.0529,0.8961-0.7042,0.959-1.4182,0.9664
						c-0.7203,0.0075-1.3024-0.1764-1.3259-0.9828c-0.0448-1.5401-0.0474-3.0835,0.002-4.6233
						c0.0258-0.8051,0.6259-0.9826,1.3371-0.9761c0.718,0.0066,1.3604,0.1016,1.4056,0.9908
						C38.5752,77.6259,38.5432,78.4271,38.543,79.2268z"/>
					<path d="M44.4503,75.9999c0.2076-0.0672,0.2593-0.0962,0.3125-0.0993c1.8413-0.1091,2.7265,1.1955,1.9075,2.8932
						c-0.3856,0.7992-1.2077,0.4323-1.8452,0.4392c-0.1222,0.0013-0.3414-0.4922-0.3576-0.7668
						C44.4195,77.6482,44.4503,76.8256,44.4503,75.9999z"/>
				</g>
			</g>
			<path d="M43.4511,169.4128H23.713c-0.7421,0-1.3493-0.6072-1.3493-1.3493v-12.0457c0-0.7421,0.6072-1.3493,1.3493-1.3493h19.7381
				c0.7421,0,1.3493,0.6072,1.3493,1.3493v12.0457C44.8004,168.8056,44.1932,169.4128,43.4511,169.4128z"/>
			<rect x="30.6049" y="93.2597" width="5.9543" height="61.4088"/>
		</g>
		<path d="M26.6115,136.909H20.938c-2.7429,0-4.987-2.2442-4.987-4.987V118.807c0-2.7429,2.2442-4.987,4.987-4.987h5.6736
			c2.7429,0,4.987,2.2442,4.987,4.987v13.1149C31.5986,134.6648,29.3544,136.909,26.6115,136.909z"/>
	</g>
	<g id="Post_copy_5">
	</g>
	<path class="st3" d="M10.8639,58.3884c0,0-3.7281,2.6891-0.46,6.8024c3.1226,3.9301,7.3473,1.8032,8.3202,0.9149
		s3.6232-2.6407,1.3931-6.2784c-2.2301-3.6377-4.1769-3.3962-4.8213-3.4138C14.7553,56.3988,13.5872,55.881,10.8639,58.3884z"/>
	<path class="st3" d="M48.0388,58.6588c0,0-3.6967,2.2047-0.4507,6.3355c3.246,4.1308,7.2821,2.0254,8.2551,1.1372
		s3.6232-2.6407,1.3931-6.2784c-2.2301-3.6377-4.1794-3.4741-4.8213-3.4138S50.223,56.5508,48.0388,58.6588z"/>
</g>
<g id="Gate_Right" class="st1">
	<g class="st4">
		<g>
			<g>
				<path d="M312.1974,170.8618c-1.2688-1.5201-3.2655-1.4579-4.4373,0.1382c0,0-10.1196,13.7851-10.8696,14.379h-21.4
					c-1.98,0-3.6,1.62-3.6,3.6v3.6125c0,1.98,1.6199,3.6179,3.5998,3.6398l20.7971,0.2297
					c1.9799,0.0219,4.5751-1.2537,5.7672-2.8346l11.6651-15.4698c1.1921-1.5809,1.1294-4.1181-0.1394-5.6381L312.1974,170.8618z"/>
			</g>
			<circle class="st5" cx="309.8709" cy="175.4719" r="3.3808"/>
		</g>
		<g>
			<rect x="39.6405" y="187.9899" width="236.8098" height="5.7604"/>
			<g>
				<polygon class="st0" points="94.628,188.5275 90.6549,193.1525 64.3711,193.1525 68.3442,188.5275 				"/>
				<polygon class="st0" points="147.1957,188.5275 143.2225,193.1525 116.9387,193.1525 120.9119,188.5275 				"/>
				<polygon class="st0" points="199.4577,188.5275 195.4845,193.1525 169.2007,193.1525 173.1739,188.5275 				"/>
				<polygon class="st0" points="251.7197,188.5877 247.7466,193.2127 221.4627,193.2127 225.4359,188.5877 				"/>
			</g>
		</g>
	</g>
</g>
<g id="Gate_Left" class="st1">
</g>
<g id="Right_Light_On" class="st1">
	<g id="Layer_1_copy" class="st4">
	</g>
	<g id="Post_copy" class="st4">
	</g>
</g>
<g id="Left_Light_On">
	<g id="Layer_1_copy_2" class="st1">
	</g>
	<g id="Post_copy_2">
	</g>
</g>
<g id="Right_Light_On_copy">
	<g id="Layer_1_copy_4">
	</g>
	<g id="Light_copy_3">
	</g>
	<g id="Post_copy_4">
	</g>
</g>
<g id="Left_Light_On_copy">
	<g id="Layer_1_copy_3">
	</g>
	<g id="Light_copy_2">
	</g>
	<g id="Post_copy_3">
	</g>
</g>
</svg>
