<?xml version="1.0" encoding="utf-8"?>
<!-- Generator: Adobe Illustrator 19.1.0, SVG Export Plug-In . SVG Version: 6.00 Build 0)  -->
<svg version="1.1" xmlns="http://www.w3.org/2000/svg" xmlns:xlink="http://www.w3.org/1999/xlink" x="0px" y="0px"
	 viewBox="0 0 360 360" style="enable-background:new 0 0 360 360;" xml:space="preserve">
<style type="text/css">
	.st0{fill:#FFFFFF;}
	.st1{display:none;}
	.st2{display:inline;}
	.st3{fill:#898989;}
	.st4{fill:#ED1F24;}
</style>
<g id="No_Lights_Crossing">
	<g id="Layer_1">
		<g>
			<g>
				<g>
					<path class="st0" d="M359.5122,131.7495c-43.5369,0-87.0738,0-130.6107,0c0-43.5369,0-87.0738,0-130.6107
						c43.5369,0,87.0738,0,130.6107,0C359.5122,44.6757,359.5122,88.2126,359.5122,131.7495z M328.2838,63.5749
						c-8.1956-7.6692-16.3149-15.2671-24.4971-22.9237c8.2052-7.3037,16.3203-14.5272,24.5008-21.8089
						c-2.961-2.8602-5.7899-5.5928-8.6834-8.3879c-8.0856,7.1905-16.3355,14.5272-24.6591,21.9294
						c-8.2354-7.6997-16.4212-15.3531-24.6423-23.0394c-2.8847,2.7879-5.7403,5.5477-8.6811,8.3898
						c8.1122,7.5894,16.1451,15.1046,24.2678,22.704c-8.4901,7.5562-16.9434,15.0797-25.4752,22.6731
						c2.9451,2.8259,5.8023,5.5675,8.7148,8.362c8.4173-7.4851,16.9896-15.108,25.6005-22.7652
						c8.3232,7.7813,16.5673,15.4887,24.8802,23.2605C322.5191,69.1533,325.3671,66.3974,328.2838,63.5749z M294.0544,124.2609
						c6.1557,0,12.3114-0.0156,18.467,0.0058c3.7559,0.0131,6.8643-3.0723,6.7329-6.681c-0.142-3.8974-0.1735-7.8107,0.0101-11.7047
						c0.1636-3.4706-2.5078-6.8897-6.7766-6.9115c-12.2708-0.0624-24.5422-0.0522-36.8131-0.0048
						c-4.0392,0.0156-6.7935,2.8889-6.8087,6.8892c-0.0147,3.8623-0.018,7.7248,0.001,11.5871
						c0.0198,4.0066,2.8466,6.8147,6.8411,6.8183C281.8235,124.2649,287.939,124.2609,294.0544,124.2609z M282.5937,79.9557
						c1.1056,4.0405,1.2579,7.8723-0.2071,11.8513c2.3876,0,4.576,0,6.7805,0c0.0463,0.6769,0.0813,1.1877,0.1193,1.7434
						c3.6034,0,7.1562,0,10.7361,0c0.0548-0.6144,0.1026-1.1504,0.1596-1.7899c2.2177,0,4.3341,0,6.6416,0
						c-1.4411-3.953-1.2742-7.8091-0.1748-11.8327c-2.2768,0-4.3816,0-6.5121,0c-0.0384-0.8178-0.0694-1.4804-0.101-2.1536
						c-3.66,0-7.1804,0-10.7427,0c-0.0457,0.734-0.087,1.3987-0.1357,2.1815C287.0116,79.9557,284.935,79.9557,282.5937,79.9557z
						 M282.0875,85.9276c-0.0444-0.7206-0.0283-1.4515-0.1498-2.1588c-0.1279-0.7443-0.3349-1.4854-0.5976-2.1944
						c-2.2619-6.1042-8.3848-9.4888-15.3109-8.4853c-7.8472,1.137-13.0088,9.2867-10.5234,16.6595
						c1.8169,5.3897,7.3143,9.4561,14.2677,8.9738C276.4855,98.2568,281.979,92.6443,282.0875,85.9276z M321.1347,98.7819
						c0.6633-0.0854,1.7505-0.1524,2.8056-0.3727c8.1635-1.7045,12.6561-10.4076,9.2413-17.8599
						c-2.5704-5.6096-9.3341-8.8047-15.5243-7.3335c-6.0577,1.4397-10.3914,6.3984-10.5285,12.0468
						C306.9464,92.7828,312.946,98.7505,321.1347,98.7819z M298.4707,75.6028c0.0839-0.2529,0.1527-0.3635,0.1529-0.4743
						c0.0093-6.432,0.0159-12.864,0.0059-19.296c-0.0004-0.255-0.0891-0.5955-0.2649-0.7508
						c-1.2236-1.0804-2.4812-2.1224-3.7748-3.2165c-1.368,1.1433-2.6968,2.18-3.925,3.3246
						c-0.378,0.3523-0.6734,0.997-0.6797,1.5118c-0.0461,3.7377-0.0092,7.4764,0.003,11.2149
						c0.0071,2.1706-0.0166,4.3424,0.0565,6.5109c0.0135,0.3987,0.4149,1.1168,0.655,1.1244
						C293.2981,75.6335,295.9003,75.6028,298.4707,75.6028z M294.6275,29.6198c0.5973-0.5106,1.0481-0.9842,1.58-1.3347
						c1.935-1.2751,2.9142-2.9443,2.4466-5.3289c-0.1906-0.9718,0.0081-2.1028-0.4203-2.9276
						c-0.8536-1.6436-2.6071-1.512-4.1629-1.482c-1.405,0.0271-3.1537,0.0554-3.5694,1.6217
						c-0.4485,1.6901-0.2493,3.5542-0.3008,5.3434c-0.0043,0.149,0.2171,0.3237,0.3622,0.4549
						C291.9004,27.1761,293.2443,28.3785,294.6275,29.6198z M298.5729,131.3371c0-2.0118,0-3.7591,0-5.5216
						c-2.8432,0-5.6162,0-8.3726,0c0,1.8848,0,3.6712,0,5.5216C293.0335,131.3371,295.7743,131.3371,298.5729,131.3371z
						 M298.5707,95.0526c-2.8427,0-5.6128,0-8.3657,0c0,0.9338,0,1.7514,0,2.5779c2.8426,0,5.5877,0,8.3657,0
						C298.5707,96.7356,298.5707,95.9156,298.5707,95.0526z"/>
					<path d="M328.2838,63.5749c-2.9168,2.8225-5.7647,5.5784-8.6741,8.3937c-8.3129-7.7717-16.5571-15.4792-24.8802-23.2605
						c-8.6109,7.6572-17.1832,15.2801-25.6005,22.7652c-2.9124-2.7945-5.7696-5.5361-8.7148-8.362
						c8.5318-7.5933,16.9851-15.1169,25.4752-22.6731c-8.1228-7.5993-16.1557-15.1146-24.2678-22.704
						c2.9409-2.8422,5.7964-5.6019,8.6811-8.3898c8.2211,7.6863,16.407,15.3397,24.6423,23.0394
						c8.3236-7.4022,16.5735-14.7389,24.6591-21.9294c2.8935,2.795,5.7224,5.5277,8.6834,8.3879
						c-8.1805,7.2817-16.2956,14.5052-24.5008,21.8089C311.9689,48.3078,320.0883,55.9057,328.2838,63.5749z M312.1892,27.3192
						c-1.6184-0.5412-2.8937-0.9923-4.187-1.3837c-0.3454-0.1045-0.8653-0.183-1.1001-0.0042
						c-0.8806,0.6704-1.6763,1.4522-2.5919,2.2711c1.5454,1.4648,2.9965,2.8402,4.4877,4.2536
						c0.4615-0.4053,0.993-0.8721,1.677-1.4728c-1.044-1.0712-1.9909-2.0427-2.9368-3.0133c1.222,0.4263,2.4568,0.883,3.711,1.278
						c0.3473,0.1094,0.8775,0.1969,1.1088,0.0175c0.9038-0.7013,1.7213-1.5137,2.5294-2.247
						c-1.5144-1.5111-2.9242-2.9178-4.3736-4.364c-0.5024,0.4631-1.0188,0.9391-1.6489,1.5199
						C309.9594,25.2099,310.9441,26.1413,312.1892,27.3192z M269.3064,19.003c1.907,1.3994,1.9603,1.5742,0.8708,2.9123
						c0.5469,0.4928,1.0964,0.9879,1.8557,1.672c0.4535-0.8537,0.8249-1.5528,1.2525-2.3577
						c0.8281,0.1984,1.6252-0.3095,2.0961-1.2356c0.5133-1.0095-0.1406-1.7737-0.8066-2.4279
						c-1.1677-1.1468-2.3831-2.2449-3.6391-3.42c-1.4013,1.5234-2.7733,3.0149-4.1849,4.5494
						c0.3469,0.3166,0.8911,0.8132,1.4557,1.3285C268.6125,19.6472,268.9325,19.3501,269.3064,19.003z M318.78,20.556
						c0.1318,0.0674,0.2636,0.1348,0.3954,0.2022c-0.1958,0.3866-0.3013,0.8843-0.6084,1.1338
						c-0.4608,0.3743-1.2957,0.9444-1.5605,0.7778c-0.7322-0.4606-1.5578-1.1891-1.7338-1.9529
						c-0.0968-0.4203,0.9818-1.2065,1.6375-1.6795c0.7171-0.5174,1.5576-0.8638,2.4207-1.3255
						c-0.9684-1.0441-1.791-1.0033-2.6087-0.4527c-0.6291,0.4236-1.2222,0.9077-1.7955,1.406
						c-2.6165,2.274-2.5977,3.3804,0.0482,5.6358c0.7241,0.6173,1.5927,0.8166,2.3201,0.2812
						c1.3093-0.9636,2.5362-2.0536,3.7077-3.1839c0.5791-0.5587,0.5091-1.3255-0.018-1.97
						c-0.3733-0.4564-0.779-0.8863-1.2518-1.4201c-0.9942,0.8913-1.9104,1.7125-2.885,2.5862
						c0.2843,0.3142,0.536,0.5925,0.7895,0.8726C318.0962,21.1011,318.4381,20.8285,318.78,20.556z M273.6887,55.3906
						c1.5812,1.5133,3.0201,2.8904,4.4821,4.2896c0.1823-0.1482,0.4541-0.3871,0.7446-0.6004
						c0.2882-0.2116,0.5953-0.3974,0.9165-0.6093c-0.5089-0.5692-0.8189-0.916-1.1218-1.2548
						c1.6048-1.7764,1.6048-1.7764,3.0202-0.6778c0.5158-0.465,1.0427-0.94,1.8066-1.6287
						c-0.8919-0.4905-1.6205-0.8912-2.4507-1.3477c0.0928-0.8398-0.2065-1.4433-1.1213-1.9881
						c-0.836-0.4979-1.5708-0.2-2.212,0.3278C276.3958,53.018,275.0827,54.1881,273.6887,55.3906z M285.0249,53.1418
						c0.8393-0.5905,1.959-1.2142,2.8779-2.0569c2.2985-2.1078,2.2615-2.9428,0.0152-5.0707
						c-0.9979-0.9453-1.8973-1.1258-3.0374-0.3621c-0.9593,0.6426-1.8332,1.4349-2.6577,2.2492
						c-0.6938,0.6852-1.3633,1.5623-0.7195,2.5585C282.255,51.6229,283.1145,52.7712,285.0249,53.1418z M300.8843,34.2138
						c-1.0533-1.1276-1.9042-1.1161-2.6867-0.5073c-0.9798,0.7623-1.9168,1.5925-2.7892,2.4755
						c-0.6881,0.6965-0.8729,1.5073-0.0984,2.3475c0.7548,0.8188,1.5641,0.9306,2.4539,0.294
						c0.7508-0.5372,1.4546-1.1405,2.2095-1.6715c0.1786-0.1257,0.4785-0.0789,0.7227-0.1115
						c-0.0198,0.2812,0.0696,0.6681-0.0805,0.8233c-0.4128,0.4267-0.9561,1.0971-1.3937,1.0584
						c-1.1673-0.103-1.4899,0.8027-2.1919,1.2945c1.011,0.877,1.5859,1.064,2.4004,0.4395
						c1.1395-0.8737,2.1996-1.8692,3.1926-2.9091c0.6089-0.6377,0.6397-1.4276-0.0222-2.1644
						c-0.7039-0.7835-1.4876-0.933-2.3514-0.3531c-0.7319,0.4914-1.3966,1.083-2.1292,1.5733
						c-0.2871,0.1921-0.6781,0.2289-1.0219,0.3364c-0.0768-0.1465-0.1536-0.2931-0.2303-0.4396
						c0.5615-0.4664,1.081-1.0008,1.6957-1.3811C299.2392,34.9009,300.0025,34.6248,300.8843,34.2138z M294.2136,40.1195
						c-0.9902-1.0496-1.851-1.1044-2.6252-0.5127c-1.0482,0.801-2.0351,1.6992-2.9531,2.6478
						c-0.6239,0.6447-0.6525,1.4496-0.0127,2.1758c0.636,0.7219,1.4037,0.9378,2.2544,0.4424
						c0.5517-0.3213,1.0261-0.7724,1.5643-1.1203c0.4819-0.3116,1.0001-0.5688,1.5164-0.8213
						c0.0319-0.0156,0.287,0.3066,0.2699,0.3264c-0.4369,0.5062-0.8912,0.9978-1.3567,1.4783
						c-0.075,0.0774-0.2194,0.0845-0.3273,0.1338c-0.7425,0.3398-1.4837,0.6821-2.3333,1.0734
						c0.8862,1.0626,1.76,1.2201,2.5435,0.6282c1.1448-0.8649,2.2112-1.8531,3.2071-2.8887
						c0.6489-0.6749,0.6906-1.4674-0.0677-2.235c-0.7492-0.7584-1.4895-0.8794-2.3492-0.2669
						c-0.5562,0.3962-1.0808,0.842-1.6615,1.1968c-0.4307,0.2632-0.929,0.4158-1.3972,0.6177
						c0.303-0.488,0.5882-0.9886,0.9195-1.4566c0.1033-0.1459,0.3263-0.2134,0.5028-0.3001
						C292.6271,40.8849,293.3499,40.5378,294.2136,40.1195z M304.2061,50.1544c0.9586,0.2933,1.6494-0.5071,2.1434-1.3858
						c0.5052-0.8987-0.1381-1.6104-0.7557-2.2111c-1.0308-1.0027-2.0927-1.9734-3.2855-3.0928
						c-1.4179,1.5659-2.7765,3.0664-4.1571,4.5913c0.3454,0.3176,0.8133,0.7479,1.279,1.176
						c0.4697-0.3637,0.8709-0.6744,1.2585-0.9746c1.6076,1.3788,1.6076,1.3788,0.6068,2.7223
						c0.4686,0.4449,0.9458,0.8979,1.6225,1.5402C303.3871,51.6584,303.7694,50.9563,304.2061,50.1544z M315.1707,64
						c0.7048,0.6625,1.4912,1.3982,2.2737,2.138c2.3337,2.2066,3.1263,2.1887,5.3381-0.1259
						c0.0829-0.0867,0.1681-0.1715,0.2464-0.2622c0.7321-0.8481,0.7911-1.7758,0.0819-2.6106
						c-1.1067-1.3027-2.3058-2.5268-3.5423-3.8672C317.9512,61.0108,316.5932,62.4706,315.1707,64z M278.7182,29.8851
						c0.5445-1.3083,1.024-2.4537,1.4981-3.6013c1.1033-2.6704,1.1061-2.6756-1.1331-4.5062
						c-0.187-0.1528-0.5254-0.3194-0.706-0.2505c-1.9907,0.7596-3.964,1.5646-6.2464,2.4792
						c0.9374,0.606,1.6064,1.395,2.2933,1.4108c1.5941,0.0367,3.0071,1.4141,2.5869,2.9357
						C277.5291,28.8179,278.0617,29.2959,278.7182,29.8851z M311.9872,53.7642c-0.0431-0.3335-0.0133-0.5621-0.1028-0.7252
						c-0.8757-1.5954-2.0803-2.8914-3.8261-3.4773c-1.4377-0.4824-2.1196,0.8207-3.0099,1.5702
						c-0.1223,0.1029-0.2303,0.2238-0.3388,0.342c-0.6951,0.7579-0.7883,1.6525-0.183,2.416
						c0.7144,0.9013,1.5644,1.7167,2.4532,2.4514c0.6968,0.576,1.6184,0.9214,2.4509,0.3237
						C310.5164,55.8856,311.6878,55.1166,311.9872,53.7642z M274.7921,59.3125c-0.4968,0.665-1.1526,1.2077-1.336,1.8795
						c-0.1974,0.7228-0.9785,2.1066-1.5424,1.8394c-0.7699-0.3648-1.5009-1.0656-1.8989-1.8095
						c-0.122-0.228,0.9662-1.5861,1.3926-1.5347c1.3036,0.1572,1.6364-0.8598,2.3936-1.3738
						c-1.0484-1.1039-1.6169-1.2175-2.7336-0.4724c-0.5963,0.3979-1.1486,0.8733-1.674,1.3638
						c-2.3542,2.1978-2.3184,3.2335,0.1497,5.3134c0.0612,0.0516,0.1277,0.0969,0.1903,0.147
						c0.7332,0.5876,1.6022,0.7529,2.3395,0.2213c1.1585-0.8353,2.2917-1.75,3.2566-2.7962
						C276.1581,61.1919,275.955,60.4048,274.7921,59.3125z M308.8625,58.0573c0.8372,0.5722,1.0085,1.6607,2.4067,1.2765
						c0.4913-0.135,1.3705,1.1413,2.0725,1.7731c-0.7634,1.3446,0.6421,1.4979,1.1837,2.332
						c0.962-2.0712,1.8501-3.9834,2.7555-5.9327c-0.6425-0.6102-1.23-1.2141-1.8729-1.7519
						c-0.206-0.1724-0.6197-0.3151-0.8342-0.2245C312.7101,56.3164,310.8701,57.1593,308.8625,58.0573z M286.495,28.9018
						c-1.4494,1.5125-2.8276,2.9507-4.2696,4.4556c1.3773,1.276,2.7776,2.5734,4.2573,3.9442
						c0.4016-0.3717,0.7125-0.6596,1.0978-1.0162c-0.9597-0.8924-1.7783-1.6536-2.8542-2.654
						c1.1754-1.0485,2.3295-2.078,3.5313-3.15C287.651,29.9378,287.1473,29.4863,286.495,28.9018z M301.0363,31.1132
						c1.4896,1.465,2.9254,2.8771,4.4184,4.3455c0.4656-0.4294,0.9774-0.9015,1.545-1.425
						c-1.5583-1.4668-3.0082-2.8316-4.4943-4.2305C302.0864,30.1768,301.5555,30.6502,301.0363,31.1132z M281.1386,32.1891
						c1.4185-1.5116,2.7761-2.9583,4.2056-4.4816c-0.3844-0.3613-0.9209-0.8656-1.5318-1.4397
						c-1.4253,1.5172-2.7844,2.9639-4.2008,4.4717C280.0672,31.1719,280.5781,31.6569,281.1386,32.1891z"/>
					<path d="M294.0544,124.2609c-6.1154,0-12.2309,0.0041-18.3463-0.0014c-3.9945-0.0036-6.8214-2.8117-6.8411-6.8183
						c-0.019-3.8623-0.0157-7.7248-0.001-11.5871c0.0152-4.0003,2.7695-6.8736,6.8087-6.8892
						c12.2709-0.0474,24.5423-0.0576,36.8131,0.0048c4.2687,0.0217,6.9401,3.4409,6.7766,6.9115
						c-0.1836,3.894-0.152,7.8072-0.0101,11.7047c0.1314,3.6087-2.977,6.694-6.7329,6.681
						C306.3658,124.2452,300.2101,124.2609,294.0544,124.2609z M294.1845,111.5167c0.0473,0.0024,0.0946,0.0047,0.142,0.0071
						c0,1.3668-0.0682,2.7378,0.0144,4.0995c0.166,2.7379,1.5199,4.1645,4.1282,4.4847c3.4417,0.4225,5.7218-0.9919,5.9357-4.036
						c0.2133-3.0359,0.153-6.103,0.0161-9.1476c-0.0941-2.0927-1.3496-3.5791-3.0477-3.8597
						c-1.0901-0.1802-2.2341-0.176-3.3401-0.086c-1.978,0.1611-3.1818,1.353-3.4647,3.2668
						C294.3114,107.9835,294.3027,109.7582,294.1845,111.5167z M282.7581,108.2741c-0.1055-1.0158-0.1259-1.9737-0.3192-2.8952
						c-0.2891-1.3777-1.0956-2.3445-2.5991-2.4248c-1.1543-0.0616-2.3255-0.0948-3.4706,0.0303
						c-1.6679,0.1822-2.5533,0.9303-2.731,2.5507c-0.1818,1.6575-0.1771,3.3618-0.0149,5.0223
						c0.1302,1.3329,0.9722,2.2517,2.4371,2.4122c0.9952,0.1091,1.9914,0.2355,2.973,0.4269
						c0.2944,0.0574,0.6823,0.3027,0.786,0.5594c0.5682,1.406-0.1124,2.2872-1.6125,2.391c-1.4145,0.0978-1.9846-0.57-2.0122-1.8526
						c-0.9706,0-1.8706,0-2.7588,0c-0.3972,4.1671,0.9972,5.7124,4.9992,5.6337c0.3984-0.0078,0.7995-0.0643,1.1922-0.1365
						c2.2185-0.4077,3.1264-1.3639,3.3078-3.6119c0.0837-1.0378,0.0745-2.0913,0.0073-3.1313
						c-0.1546-2.3949-0.8932-3.1558-3.2833-3.5031c-0.595-0.0865-1.1921-0.1935-1.7907-0.2121
						c-1.0703-0.0334-1.4801-0.549-1.4472-1.6054c0.0321-1.0312,0.6125-1.2162,1.4815-1.3128
						c1.2841-0.1427,1.8885,0.3828,1.8905,1.6594C280.7722,108.2741,281.6782,108.2741,282.7581,108.2741z M309.6595,115.6034
						c1.1444,0,2.0633,0.015,2.9816-0.0032c1.7531-0.0347,2.9192-0.7552,3.0622-2.438c0.209-2.4582,0.1643-4.9555-0.0006-7.4208
						c-0.0858-1.2832-0.9248-2.4952-2.3086-2.6073c-2.2163-0.1796-4.4577-0.0481-6.6766-0.0481c0,5.6516,0,11.2214,0,16.8034
						c0.9927,0,1.9031,0,2.942,0C309.6595,118.478,309.6595,117.1233,309.6595,115.6034z M287.1034,106.9266
						c0,4.4515,0,8.6961,0,12.9755c1.0292,0,1.9426,0,3.0271,0c0-4.3221,0-8.5992,0-13.0173c1.0678,0,1.9701,0,2.8738,0
						c0-1.369,0-2.5909,0-3.8248c-2.965,0-5.8411,0-8.7551,0c0,1.2963,0,2.5209,0,3.8667
						C285.1772,106.9266,286.0417,106.9266,287.1034,106.9266z"/>
					<path d="M282.5937,79.9557c2.3413,0,4.4179,0,6.5637,0c0.0487-0.7828,0.09-1.4475,0.1357-2.1815c3.5623,0,7.0826,0,10.7427,0
						c0.0316,0.6732,0.0627,1.3358,0.101,2.1536c2.1305,0,4.2354,0,6.5121,0c-1.0995,4.0236-1.2663,7.8797,0.1748,11.8327
						c-2.3075,0-4.4239,0-6.6416,0c-0.057,0.6395-0.1048,1.1755-0.1596,1.7899c-3.58,0-7.1327,0-10.7361,0
						c-0.038-0.5557-0.073-1.0665-0.1193-1.7434c-2.2045,0-4.3929,0-6.7805,0C283.8516,87.828,283.6993,83.9962,282.5937,79.9557z"
						/>
					<path d="M282.0875,85.9276c-0.1085,6.7166-5.602,12.3292-12.3141,12.7948c-6.9534,0.4823-12.4507-3.5841-14.2677-8.9738
						c-2.4854-7.3727,2.6762-15.5225,10.5234-16.6595c6.9262-1.0035,13.0491,2.3811,15.3109,8.4853
						c0.2627,0.709,0.4697,1.4502,0.5976,2.1944C282.0592,84.4761,282.0431,85.2071,282.0875,85.9276z M268.6476,79.8144
						c-3.1669-0.0094-7.1617,2.9692-8.0274,5.7929c-0.0466,0.152-0.0687,0.3129-0.0887,0.4714
						c-0.5125,4.0517,2.118,7.7039,6.1206,8.5002c4.2784,0.8512,8.4286-1.5031,9.4685-5.4418
						c0.356-1.3483,0.645-2.7789-0.2735-4.0428c-0.6573-0.9044-1.5023-1.6759-2.13-2.5976
						C272.4205,80.5925,270.644,79.7507,268.6476,79.8144z M279.1734,84.3885c-1.209-5.1888-5.9113-9.2936-12.7264-8.3381
						c-4.5744,0.6413-8.7568,4.9779-8.1843,8.3327c1.5918-0.4076,2.5755-1.5461,3.4914-2.7885
						c3.443-4.6706,9.7607-4.6608,13.1018,0.0275C275.9056,83.095,277.2398,84.0868,279.1734,84.3885z"/>
					<path d="M321.1347,98.7819c-8.1887-0.0315-14.1883-5.9991-14.0059-13.5193c0.137-5.6484,4.4708-10.6071,10.5285-12.0468
						c6.1902-1.4712,12.9539,1.7239,15.5243,7.3335c3.4148,7.4523-1.0779,16.1554-9.2413,17.8599
						C322.8852,98.6295,321.798,98.6965,321.1347,98.7819z M321.0005,79.8143c-3.1138-0.0093-7.3052,3.0981-8.0486,5.7727
						c-0.0319,0.1146-0.0257,0.2393-0.0451,0.358c-0.6968,4.27,2.0714,7.9089,6.6507,8.7417
						c3.9879,0.7252,8.331-2.0957,8.9736-6.0021c0.1888-1.1476,0.0412-2.4899-0.3969-3.5611
						c-0.4189-1.0243-1.4784-1.7682-2.1459-2.7133C324.6924,80.5755,322.9485,79.7427,321.0005,79.8143z M331.5188,84.3774
						c-0.9318-5.5804-6.9245-9.5839-12.6251-8.5657c-4.6785,0.8357-8.8991,5.1816-8.2724,8.5181
						c1.5457-0.4567,2.0692-0.8849,3.6248-2.9653c3.2607-4.3606,9.6679-4.3217,12.8212,0.1002
						C328.1573,82.9933,329.4889,84.0935,331.5188,84.3774z"/>
					<path d="M298.4707,75.6028c-2.5705,0-5.1727,0.0308-7.7713-0.0511c-0.2401-0.0076-0.6415-0.7257-0.655-1.1244
						c-0.0732-2.1685-0.0494-4.3402-0.0565-6.5109c-0.0122-3.7384-0.049-7.4771-0.003-11.2149
						c0.0063-0.5148,0.3017-1.1595,0.6797-1.5118c1.2283-1.1446,2.5571-2.1813,3.925-3.3246
						c1.2937,1.0941,2.5512,2.1361,3.7748,3.2165c0.1759,0.1553,0.2645,0.4958,0.2649,0.7508
						c0.01,6.432,0.0034,12.864-0.0059,19.296C298.6234,75.2392,298.5547,75.3499,298.4707,75.6028z"/>
					<path d="M294.6275,29.6198c-1.3831-1.2413-2.7271-2.4437-4.0646-3.6531c-0.1451-0.1312-0.3665-0.3059-0.3622-0.4549
						c0.0515-1.7891-0.1477-3.6533,0.3008-5.3434c0.4157-1.5664,2.1645-1.5947,3.5694-1.6217
						c1.5558-0.03,3.3093-0.1616,4.1629,1.482c0.4284,0.8249,0.2298,1.9558,0.4203,2.9276
						c0.4675,2.3845-0.5116,4.0537-2.4466,5.3289C295.6756,28.6356,295.2248,29.1092,294.6275,29.6198z"/>
					<path d="M298.5729,131.3371c-2.7986,0-5.5394,0-8.3726,0c0-1.8503,0-3.6368,0-5.5216c2.7563,0,5.5294,0,8.3726,0
						C298.5729,127.578,298.5729,129.3253,298.5729,131.3371z"/>
					<path d="M298.5707,95.0526c0,0.8631,0,1.6831,0,2.5779c-2.778,0-5.523,0-8.3657,0c0-0.8265,0-1.6441,0-2.5779
						C292.958,95.0526,295.728,95.0526,298.5707,95.0526z"/>
					<path class="st0" d="M312.1892,27.3192c-1.2451-1.1778-2.2298-2.1093-3.3246-3.1449c0.6302-0.5808,1.1465-1.0568,1.6489-1.5199
						c1.4494,1.4462,2.8592,2.8529,4.3736,4.364c-0.808,0.7333-1.6256,1.5457-2.5294,2.247
						c-0.2313,0.1795-0.7614,0.0919-1.1088-0.0175c-1.2542-0.395-2.489-0.8516-3.711-1.278
						c0.9459,0.9705,1.8928,1.9421,2.9368,3.0133c-0.684,0.6007-1.2155,1.0675-1.677,1.4728
						c-1.4913-1.4135-2.9423-2.7889-4.4877-4.2536c0.9156-0.8188,1.7114-1.6007,2.5919-2.2711
						c0.2348-0.1788,0.7547-0.1003,1.1001,0.0042C309.2955,26.3269,310.5708,26.778,312.1892,27.3192z"/>
					<path class="st0" d="M269.3064,19.003c-0.3739,0.3471-0.6939,0.6442-1.0998,1.0211c-0.5647-0.5153-1.1088-1.0119-1.4557-1.3285
						c1.4116-1.5346,2.7836-3.026,4.1849-4.5494c1.2559,1.1751,2.4714,2.2732,3.6391,3.42
						c0.6661,0.6542,1.3199,1.4184,0.8066,2.4279c-0.4709,0.9261-1.268,1.4339-2.0961,1.2356
						c-0.4276,0.8049-0.799,1.504-1.2525,2.3577c-0.7593-0.6841-1.3087-1.1792-1.8557-1.672
						C271.2667,20.5772,271.2133,20.4024,269.3064,19.003z M271.5839,16.8424c-0.4588,0.3835-0.8154,0.6815-1.2282,1.0266
						c0.7674,0.648,1.3901,1.1738,2.0559,1.7359c0.3672-0.3907,0.6302-0.6705,0.926-0.9853
						c-0.2499-0.2987-0.4341-0.5555-0.6555-0.7747C272.3454,17.5114,271.9828,17.2039,271.5839,16.8424z"/>
					<path class="st0" d="M318.78,20.556c-0.3419,0.2725-0.6837,0.5451-1.1428,0.911c-0.2534-0.2801-0.5052-0.5584-0.7895-0.8726
						c0.9747-0.8737,1.8908-1.6949,2.885-2.5862c0.4727,0.5338,0.8785,0.9637,1.2518,1.4201c0.5271,0.6445,0.597,1.4113,0.018,1.97
						c-1.1715,1.1303-2.3984,2.2202-3.7077,3.1839c-0.7274,0.5353-1.596,0.336-2.3201-0.2812
						c-2.6459-2.2554-2.6647-3.3618-0.0482-5.6358c0.5734-0.4983,1.1664-0.9824,1.7955-1.406
						c0.8177-0.5506,1.6404-0.5914,2.6087,0.4527c-0.8631,0.4617-1.7036,0.8081-2.4207,1.3255
						c-0.6556,0.473-1.7343,1.2592-1.6375,1.6795c0.176,0.7638,1.0016,1.4922,1.7338,1.9529
						c0.2648,0.1666,1.0997-0.4035,1.5605-0.7778c0.3071-0.2495,0.4127-0.7472,0.6084-1.1338
						C319.0435,20.6908,318.9117,20.6234,318.78,20.556z"/>
					<path class="st0" d="M273.6887,55.3906c1.394-1.2025,2.7071-2.3726,4.0641-3.4893c0.6413-0.5277,1.3761-0.8257,2.212-0.3278
						c0.9147,0.5448,1.2141,1.1483,1.1213,1.9881c0.8302,0.4566,1.5589,0.8573,2.4507,1.3477
						c-0.764,0.6887-1.2908,1.1637-1.8066,1.6287c-1.4154-1.0986-1.4154-1.0986-3.0202,0.6778
						c0.3029,0.3388,0.6129,0.6856,1.1218,1.2548c-0.3211,0.2118-0.6283,0.3977-0.9165,0.6093
						c-0.2905,0.2133-0.5623,0.4522-0.7446,0.6004C276.7087,58.281,275.2698,56.9039,273.6887,55.3906z M279.3597,54.6278
						c-0.5892-1.5534-1.3141-1.4237-2.8141,0.4836c0.3355,0.3075,0.6734,0.6172,1.033,0.9467
						c0.3995-0.3544,0.6884-0.6299,0.9982-0.8794C278.8281,54.9764,279.1047,54.8055,279.3597,54.6278z"/>
					<path class="st0" d="M285.0249,53.1418c-1.9104-0.3706-2.7699-1.5189-3.5215-2.682c-0.6438-0.9962,0.0257-1.8733,0.7195-2.5585
						c0.8245-0.8143,1.6985-1.6066,2.6577-2.2492c1.1401-0.7637,2.0395-0.5831,3.0374,0.3621
						c2.2463,2.1279,2.2833,2.9629-0.0152,5.0707C286.9839,51.9276,285.8643,52.5513,285.0249,53.1418z M287.8361,49.2289
						c-0.9893-0.8144-1.6769-1.8167-2.4023-1.8449c-0.6267-0.0244-1.2965,1.0586-1.9473,1.652
						c0.6744,0.6305,1.2746,1.6076,2.0486,1.7736C286.08,50.9264,286.8613,49.9407,287.8361,49.2289z"/>
					<path class="st0" d="M300.8843,34.2138c-0.8818,0.4109-1.6452,0.687-2.3208,1.105c-0.6147,0.3803-1.1342,0.9146-1.6957,1.3811
						c0.0768,0.1465,0.1536,0.2931,0.2303,0.4396c0.3437-0.1075,0.7348-0.1442,1.0219-0.3364
						c0.7326-0.4902,1.3972-1.0819,2.1292-1.5733c0.8638-0.5799,1.6475-0.4304,2.3514,0.3531
						c0.6619,0.7367,0.6311,1.5267,0.0222,2.1644c-0.993,1.0399-2.0531,2.0354-3.1926,2.9091
						c-0.8145,0.6245-1.3894,0.4375-2.4004-0.4395c0.7019-0.4919,1.0246-1.3975,2.1919-1.2945
						c0.4376,0.0386,0.9809-0.6317,1.3937-1.0584c0.1501-0.1552,0.0607-0.5421,0.0805-0.8233
						c-0.2441,0.0326-0.544-0.0142-0.7227,0.1115c-0.7549,0.531-1.4586,1.1343-2.2095,1.6715
						c-0.8897,0.6366-1.6991,0.5248-2.4539-0.294c-0.7745-0.8402-0.5897-1.651,0.0984-2.3475
						c0.8724-0.883,1.8095-1.7132,2.7892-2.4755C298.9801,33.0977,299.831,33.0863,300.8843,34.2138z"/>
					<path class="st0" d="M294.2136,40.1195c-0.8637,0.4183-1.5865,0.7653-2.3061,1.1189
						c-0.1765,0.0867-0.3995,0.1542-0.5028,0.3001c-0.3313,0.468-0.6165,0.9686-0.9195,1.4566
						c0.4682-0.2019,0.9665-0.3545,1.3972-0.6177c0.5807-0.3548,1.1053-0.8006,1.6615-1.1968
						c0.8597-0.6125,1.6-0.4915,2.3492,0.2669c0.7584,0.7677,0.7167,1.5602,0.0677,2.235
						c-0.9958,1.0356-2.0622,2.0239-3.2071,2.8887c-0.7835,0.5919-1.6573,0.4344-2.5435-0.6282
						c0.8496-0.3913,1.5909-0.7336,2.3333-1.0734c0.1078-0.0494,0.2523-0.0564,0.3273-0.1338
						c0.4654-0.4805,0.9198-0.9721,1.3567-1.4783c0.0171-0.0198-0.238-0.342-0.2699-0.3264
						c-0.5163,0.2524-1.0345,0.5097-1.5164,0.8213c-0.5381,0.3479-1.0126,0.7991-1.5643,1.1203
						c-0.8506,0.4954-1.6184,0.2795-2.2544-0.4424c-0.6398-0.7262-0.6112-1.5311,0.0127-2.1758
						c0.918-0.9486,1.9049-1.8468,2.9531-2.6478C292.3626,39.0151,293.2234,39.07,294.2136,40.1195z"/>
					<path class="st0" d="M304.2061,50.1544c-0.4367,0.8019-0.819,1.504-1.2881,2.3654c-0.6767-0.6424-1.1538-1.0953-1.6225-1.5402
						c1.0008-1.3435,1.0008-1.3435-0.6068-2.7223c-0.3877,0.3002-0.7888,0.6109-1.2585,0.9746
						c-0.4657-0.4282-0.9336-0.8585-1.279-1.176c1.3807-1.5248,2.7393-3.0253,4.1571-4.5913
						c1.1928,1.1194,2.2547,2.0901,3.2855,3.0928c0.6176,0.6007,1.2609,1.3124,0.7557,2.2111
						C305.8555,49.6474,305.1647,50.4478,304.2061,50.1544z M302.8244,46.1158c-0.3501,0.3332-0.6886,0.6553-1.0262,0.9766
						c1.6591,1.7603,1.6591,1.7603,2.5573,0.4944C303.8806,47.1305,303.396,46.6649,302.8244,46.1158z"/>
					<path class="st0" d="M315.1707,64c1.4225-1.5293,2.7805-2.9892,4.3978-4.7278c1.2365,1.3404,2.4356,2.5646,3.5423,3.8672
						c0.7092,0.8347,0.6502,1.7625-0.0819,2.6106c-0.0783,0.0907-0.1635,0.1755-0.2464,0.2622
						c-2.2119,2.3145-3.0044,2.3325-5.3381,0.1259C316.6619,65.3981,315.8755,64.6625,315.1707,64z M320.075,62.0211
						c-0.961,0.8425-1.6993,1.4898-2.6894,2.3577c0.9846,0.5065,1.752,1.2264,2.4446,1.1606
						c0.6159-0.0586,1.6211-1.0055,1.6018-1.5289C321.4066,63.3197,320.5489,62.6595,320.075,62.0211z"/>
					<path class="st0" d="M278.7182,29.8851c-0.6565-0.5893-1.1891-1.0672-1.7072-1.5323c0.4203-1.5216-0.9928-2.899-2.5869-2.9357
						c-0.6868-0.0158-1.3559-0.8048-2.2933-1.4108c2.2824-0.9147,4.2557-1.7196,6.2464-2.4792
						c0.1806-0.0689,0.519,0.0976,0.706,0.2505c2.2391,1.8307,2.2363,1.8358,1.1331,4.5062
						C279.7422,27.4314,279.2627,28.5768,278.7182,29.8851z M276.5344,24.7149c0.469,0.3986,0.9055,0.7696,1.4327,1.2176
						c0.3474-0.8139,0.6261-1.4666,0.9903-2.3197c-0.8268,0.3293-1.3853,0.5442-1.9364,0.7764
						C276.8766,24.45,276.755,24.5647,276.5344,24.7149z"/>
					<path class="st0" d="M311.9872,53.7642c-0.2994,1.3524-1.4709,2.1215-2.5566,2.9009
						c-0.8325,0.5977-1.7541,0.2523-2.4509-0.3237c-0.8887-0.7347-1.7387-1.5501-2.4532-2.4514
						c-0.6052-0.7635-0.512-1.6581,0.183-2.416c0.1084-0.1182,0.2165-0.2391,0.3388-0.342
						c0.8903-0.7495,1.5722-2.0527,3.0099-1.5702c1.7458,0.5858,2.9504,1.8819,3.8261,3.4773
						C311.9739,53.2021,311.9442,53.4306,311.9872,53.7642z M308.2256,51.0685c-0.787,0.8714-1.6128,1.4867-1.9292,2.3001
						c-0.1089,0.2799,1.2795,1.6176,1.5902,1.4927c0.8014-0.3221,1.569-1.1013,1.9501-1.8909
						C309.9681,52.6983,308.9167,51.8555,308.2256,51.0685z"/>
					<path class="st0" d="M274.7921,59.3125c1.1628,1.0924,1.366,1.8794,0.5374,2.7779c-0.9649,1.0462-2.0981,1.9609-3.2566,2.7962
						c-0.7373,0.5315-1.6063,0.3662-2.3395-0.2213c-0.0625-0.0501-0.1291-0.0954-0.1903-0.147
						c-2.4681-2.0799-2.5039-3.1156-0.1497-5.3134c0.5254-0.4905,1.0777-0.9659,1.674-1.3638
						c1.1167-0.7451,1.6852-0.6315,2.7336,0.4724c-0.7572,0.514-1.0901,1.531-2.3936,1.3738
						c-0.4265-0.0514-1.5146,1.3067-1.3926,1.5347c0.3979,0.7439,1.129,1.4447,1.8989,1.8095
						c0.5639,0.2672,1.345-1.1166,1.5424-1.8394C273.6396,60.5202,274.2954,59.9775,274.7921,59.3125z"/>
					<path class="st0" d="M308.8625,58.0573c2.0077-0.898,3.8476-1.7408,5.7113-2.5275c0.2145-0.0905,0.6282,0.0522,0.8342,0.2245
						c0.6428,0.5378,1.2303,1.1417,1.8729,1.7519c-0.9054,1.9493-1.7935,3.8615-2.7555,5.9327
						c-0.5416-0.8341-1.9471-0.9874-1.1837-2.332c-0.7021-0.6319-1.5812-1.9081-2.0725-1.7731
						C309.871,59.718,309.6996,58.6295,308.8625,58.0573z M315.161,57.3972c-0.9862,0.4674-1.6349,0.7748-2.4204,1.1471
						c0.5064,0.4578,0.8508,0.7693,1.2805,1.1578C314.3813,58.9737,314.6914,58.3467,315.161,57.3972z"/>
					<path class="st0" d="M286.495,28.9018c0.6523,0.5845,1.156,1.036,1.7626,1.5796c-1.2018,1.072-2.3559,2.1015-3.5313,3.15
						c1.0759,1.0004,1.8945,1.7616,2.8542,2.654c-0.3853,0.3567-0.6963,0.6445-1.0978,1.0162
						c-1.4796-1.3708-2.8799-2.6682-4.2573-3.9442C283.6674,31.8525,285.0457,30.4143,286.495,28.9018z"/>
					<path class="st0" d="M301.0363,31.1132c0.5193-0.463,1.0501-0.9364,1.4691-1.3099c1.4861,1.3989,2.936,2.7637,4.4943,4.2305
						c-0.5675,0.5235-1.0793,0.9955-1.545,1.425C303.9617,33.9903,302.5258,32.5782,301.0363,31.1132z"/>
					<path class="st0" d="M281.1386,32.1891c-0.5605-0.5321-1.0715-1.0172-1.527-1.4496c1.4164-1.5077,2.7755-2.9545,4.2008-4.4717
						c0.6109,0.5741,1.1474,1.0784,1.5318,1.4397C283.9147,29.2308,282.5571,30.6775,281.1386,32.1891z"/>
					<path class="st0" d="M294.1845,111.5167c0.1181-1.7585,0.1268-3.5332,0.3838-5.2712c0.2829-1.9138,1.4867-3.1057,3.4647-3.2668
						c1.1061-0.0901,2.2501-0.0942,3.3401,0.086c1.6981,0.2806,2.9536,1.767,3.0477,3.8597
						c0.1369,3.0446,0.1973,6.1117-0.0161,9.1476c-0.214,3.0441-2.494,4.4585-5.9357,4.036
						c-2.6083-0.3202-3.9622-1.7468-4.1282-4.4847c-0.0826-1.3618-0.0144-2.7327-0.0144-4.0995
						C294.2792,111.5214,294.2319,111.519,294.1845,111.5167z M301.3597,111.6097c0-1.124,0.045-2.2503-0.012-3.3714
						c-0.0635-1.25-0.9666-1.3837-1.976-1.3929c-0.9999-0.0091-1.8434,0.2404-1.8797,1.3722
						c-0.0694,2.1646-0.0657,4.3343-0.0027,6.4993c0.033,1.1337,0.8513,1.3921,1.8639,1.3816
						c1.0038-0.0105,1.9194-0.0988,1.9937-1.3586C301.4082,113.7,301.3594,112.6537,301.3597,111.6097z"/>
					<path class="st0" d="M282.7581,108.2741c-1.0798,0-1.9858,0-2.9649,0c-0.002-1.2766-0.6064-1.8021-1.8905-1.6594
						c-0.869,0.0966-1.4494,0.2816-1.4815,1.3128c-0.0329,1.0564,0.3769,1.572,1.4472,1.6054
						c0.5986,0.0187,1.1957,0.1257,1.7907,0.2121c2.39,0.3473,3.1286,1.1082,3.2833,3.5031
						c0.0671,1.0399,0.0764,2.0935-0.0073,3.1313c-0.1814,2.248-1.0893,3.2042-3.3078,3.6119
						c-0.3928,0.0722-0.7939,0.1287-1.1922,0.1365c-4.002,0.0787-5.3964-1.4665-4.9992-5.6337c0.8882,0,1.7881,0,2.7588,0
						c0.0276,1.2826,0.5978,1.9504,2.0122,1.8526c1.5001-0.1037,2.1808-0.985,1.6125-2.391
						c-0.1038-0.2567-0.4916-0.502-0.786-0.5594c-0.9816-0.1914-1.9778-0.3178-2.973-0.4269
						c-1.4649-0.1605-2.3069-1.0793-2.4371-2.4122c-0.1622-1.6605-0.1669-3.3648,0.0149-5.0223
						c0.1778-1.6203,1.0631-2.3685,2.731-2.5507c1.145-0.1251,2.3163-0.0919,3.4706-0.0303c1.5035,0.0803,2.31,1.0471,2.5991,2.4248
						C282.6322,106.3005,282.6526,107.2583,282.7581,108.2741z"/>
					<path class="st0" d="M309.6595,115.6034c0,1.5199,0,2.8745,0,4.2859c-1.039,0-1.9494,0-2.942,0c0-5.5821,0-11.1519,0-16.8034
						c2.2188,0,4.4603-0.1315,6.6766,0.0481c1.3838,0.1121,2.2228,1.3242,2.3086,2.6073c0.1649,2.4653,0.2096,4.9626,0.0006,7.4208
						c-0.1431,1.6827-1.3091,2.4033-3.0622,2.438C311.7228,115.6184,310.804,115.6034,309.6595,115.6034z M309.6638,107.0736
						c0,1.1608-0.0433,2.3171,0.0242,3.467c0.0227,0.3859,0.3309,1.0798,0.5027,1.0779c0.8962-0.0097,2.0519,0.5061,2.594-0.6174
						c1.1514-2.3866-0.0931-4.2204-2.6815-4.0671C310.0284,106.9384,309.9557,106.9791,309.6638,107.0736z"/>
					<path class="st0" d="M287.1034,106.9266c-1.0617,0-1.9262,0-2.8542,0c0-1.3458,0-2.5704,0-3.8667c2.914,0,5.7901,0,8.7551,0
						c0,1.2339,0,2.4558,0,3.8248c-0.9037,0-1.806,0-2.8738,0c0,4.4181,0,8.6953,0,13.0173c-1.0845,0-1.9979,0-3.0271,0
						C287.1034,115.6227,287.1034,111.3781,287.1034,106.9266z"/>
					<path class="st0" d="M268.6476,79.8144c1.9964-0.0637,3.7729,0.7781,5.0695,2.6822c0.6277,0.9217,1.4727,1.6932,2.13,2.5976
						c0.9185,1.2639,0.6295,2.6945,0.2735,4.0428c-1.0399,3.9387-5.1901,6.293-9.4685,5.4418
						c-4.0027-0.7963-6.6331-4.4484-6.1206-8.5002c0.0201-0.1585,0.0421-0.3194,0.0887-0.4714
						C261.4859,82.7836,265.4807,79.805,268.6476,79.8144z"/>
					<path class="st0" d="M279.1734,84.3885c-1.9336-0.3017-3.2678-1.2935-4.3175-2.7663
						c-3.3411-4.6882-9.6588-4.6981-13.1018-0.0275c-0.9158,1.2424-1.8996,2.3809-3.4914,2.7885
						c-0.5726-3.3549,3.6099-7.6914,8.1843-8.3327C273.2622,75.0949,277.9644,79.1997,279.1734,84.3885z"/>
					<path class="st0" d="M321.0005,79.8143c1.9481-0.0715,3.6919,0.7612,4.9878,2.5959c0.6675,0.9451,1.727,1.689,2.1459,2.7133
						c0.4381,1.0712,0.5857,2.4135,0.3969,3.5611c-0.6426,3.9064-4.9857,6.7273-8.9736,6.0021
						c-4.5794-0.8328-7.3475-4.4717-6.6507-8.7417c0.0194-0.1187,0.0132-0.2434,0.0451-0.358
						C313.6953,82.9124,317.8867,79.8049,321.0005,79.8143z"/>
					<path class="st0" d="M331.5188,84.3774c-2.0299-0.2839-3.3615-1.3841-4.4515-2.9127
						c-3.1533-4.4219-9.5604-4.4607-12.8212-0.1002c-1.5557,2.0804-2.0791,2.5086-3.6248,2.9653
						c-0.6266-3.3365,3.5939-7.6825,8.2724-8.5181C324.5942,74.7935,330.587,78.797,331.5188,84.3774z"/>
					<path d="M271.5839,16.8424c0.3989,0.3615,0.7615,0.669,1.0982,1.0025c0.2214,0.2193,0.4055,0.4761,0.6555,0.7747
						c-0.2958,0.3148-0.5588,0.5946-0.926,0.9853c-0.6658-0.5622-1.2885-1.0879-2.0559-1.7359
						C270.7685,17.524,271.1251,17.2259,271.5839,16.8424z"/>
					<path d="M279.3597,54.6278c-0.2551,0.1777-0.5316,0.3486-0.7829,0.5509c-0.3099,0.2494-0.5987,0.525-0.9982,0.8794
						c-0.3596-0.3295-0.6974-0.6392-1.033-0.9467C278.0456,53.2041,278.7705,53.0744,279.3597,54.6278z"/>
					<path d="M287.8361,49.2289c-0.9747,0.7118-1.756,1.6975-2.3009,1.5806c-0.7741-0.166-1.3742-1.1431-2.0486-1.7736
						c0.6508-0.5934,1.3206-1.6764,1.9473-1.652C286.1592,47.4122,286.8467,48.4146,287.8361,49.2289z"/>
					<path d="M302.8244,46.1158c0.5715,0.5491,1.0562,1.0148,1.531,1.471c-0.8982,1.2659-0.8982,1.2659-2.5573-0.4944
						C302.1358,46.7711,302.4743,46.449,302.8244,46.1158z"/>
					<path d="M320.075,62.0211c0.4739,0.6384,1.3316,1.2986,1.357,1.9894c0.0193,0.5234-0.9859,1.4703-1.6018,1.5289
						c-0.6926,0.0659-1.46-0.654-2.4446-1.1606C318.3757,63.5109,319.114,62.8636,320.075,62.0211z"/>
					<path d="M276.5344,24.7149c0.2206-0.1502,0.3423-0.2648,0.4866-0.3257c0.5512-0.2322,1.1096-0.4471,1.9364-0.7764
						c-0.3642,0.8531-0.6429,1.5058-0.9903,2.3197C277.4398,25.4844,277.0033,25.1134,276.5344,24.7149z"/>
					<path d="M308.2256,51.0685c0.6911,0.787,1.7425,1.6298,1.6112,1.9018c-0.3811,0.7897-1.1488,1.5688-1.9501,1.8909
						c-0.3107,0.1249-1.6991-1.2128-1.5902-1.4927C306.6129,52.5551,307.4386,51.9398,308.2256,51.0685z"/>
					<path d="M315.161,57.3972c-0.4696,0.9495-0.7797,1.5765-1.14,2.3048c-0.4297-0.3885-0.7741-0.6999-1.2805-1.1578
						C313.5261,58.1721,314.1748,57.8646,315.161,57.3972z"/>
					<path d="M301.3596,111.6099c-0.0002,1.0437,0.0486,2.0901-0.0127,3.13c-0.0743,1.2598-0.9899,1.3481-1.9937,1.3586
						c-1.0126,0.0106-1.8309-0.2479-1.8639-1.3816c-0.063-2.165-0.0667-4.3347,0.0027-6.4993
						c0.0363-1.1318,0.8798-1.3813,1.8797-1.3722c1.0093,0.0092,1.9124,0.1429,1.976,1.3929
						C301.4047,109.3594,301.3597,110.4857,301.3596,111.6099z"/>
					<path d="M309.6638,107.0736c0.2918-0.0944,0.3645-0.1352,0.4393-0.1396c2.5885-0.1533,3.8329,1.6806,2.6815,4.0671
						c-0.542,1.1236-1.6978,0.6077-2.594,0.6174c-0.1717,0.0019-0.48-0.692-0.5027-1.0779
						C309.6206,109.3907,309.6638,108.2344,309.6638,107.0736z"/>
				</g>
			</g>
			<path d="M308.8067,238.3914h-28.8424c-0.7421,0-1.3493-0.6072-1.3493-1.3493v-18.0287c0-0.7421,0.6072-1.3493,1.3493-1.3493
				h28.8424c0.7421,0,1.3493,0.6072,1.3493,1.3493v18.0287C310.156,237.7842,309.5488,238.3914,308.8067,238.3914z"/>
			<rect x="290.2003" y="131.3371" width="8.3704" height="86.3271"/>
		</g>
	</g>
	<g id="Post">
		<path d="M314.6102,192.9901h-12.0231c-2.7429,0-4.9871-2.2442-4.9871-4.987v-22.4839c0-2.7429,2.2442-4.987,4.9871-4.987h12.0231
			c2.7429,0,4.987,2.2442,4.987,4.987v22.4839C319.5972,190.7459,317.3531,192.9901,314.6102,192.9901z"/>
	</g>
</g>
<g id="No_Lights_Crossing_copy">
	<g id="Layer_1_copy_5">
	</g>
	<g id="Post_copy_5">
	</g>
</g>
<g id="Gate_Right" class="st1">
	<g class="st2">
		<g>
			<g>
				<path d="M312.1974,170.8618c-1.2688-1.5201-3.2655-1.4579-4.4373,0.1382c0,0-10.1196,13.7851-10.8696,14.379h-21.4
					c-1.98,0-3.6,1.62-3.6,3.6v3.6125c0,1.98,1.6199,3.6179,3.5998,3.6398l20.7971,0.2297
					c1.9799,0.0219,4.5751-1.2537,5.7672-2.8346l11.6651-15.4698c1.1921-1.5809,1.1294-4.1181-0.1394-5.6381L312.1974,170.8618z"/>
			</g>
			<circle class="st3" cx="309.8709" cy="175.4719" r="3.3808"/>
		</g>
		<g>
			<rect x="39.6405" y="187.9899" width="236.8098" height="5.7604"/>
			<g>
				<polygon class="st0" points="94.628,188.5275 90.6549,193.1525 64.3711,193.1525 68.3442,188.5275 				"/>
				<polygon class="st0" points="147.1957,188.5275 143.2225,193.1525 116.9387,193.1525 120.9119,188.5275 				"/>
				<polygon class="st0" points="199.4577,188.5275 195.4845,193.1525 169.2007,193.1525 173.1739,188.5275 				"/>
				<polygon class="st0" points="251.7197,188.5877 247.7466,193.2127 221.4627,193.2127 225.4359,188.5877 				"/>
			</g>
		</g>
	</g>
</g>
<g id="Gate_Left" class="st1">
</g>
<g id="Right_Light_On">
	<g id="Layer_1_copy">
	</g>
	<g id="Light">
	</g>
	<g id="Post_copy">
	</g>
</g>
<g id="Left_Light_On">
	<g id="Layer_1_copy_2">
	</g>
	<g id="Light_copy">
	</g>
	<g id="Post_copy_2">
	</g>
</g>
<g id="Right_Light_On_copy">
	<g id="Layer_1_copy_4">
	</g>
	<g id="Light_copy_3">
	</g>
	<g id="Post_copy_4">
	</g>
</g>
<g id="Left_Light_On_copy">
	<g id="Layer_1_copy_3">
	</g>
	<g id="Light_copy_2">
	</g>
	<g id="Post_copy_3">
	</g>
</g>
</svg>
