<?xml version="1.0" encoding="utf-8"?>
<!-- Generator: Adobe Illustrator 19.1.0, SVG Export Plug-In . SVG Version: 6.00 Build 0)  -->
<svg version="1.1" xmlns="http://www.w3.org/2000/svg" xmlns:xlink="http://www.w3.org/1999/xlink" x="0px" y="0px"
	 viewBox="0 0 360 360" style="enable-background:new 0 0 360 360;" xml:space="preserve">
<style type="text/css">
	.st0{fill:#FFFFFF;}
	.st1{fill:#ED1F24;}
	.st2{display:none;}
	.st3{display:inline;fill:#ED1F24;}
	.st4{display:none;fill:#ED1F24;}
	.st5{display:inline;}
	.st6{fill:#898989;}
</style>
<g id="No_Lights_Crossing">
	<g id="Layer_1">
		<g>
			<g>
				<g>
					<path class="st0" d="M379.5122,121.8833c-40.2606,0-80.5212,0-120.7818,0c0-40.2606,0-80.5212,0-120.7818
						c40.2606,0,80.5212,0,120.7818,0C379.5122,41.3621,379.5122,81.6227,379.5122,121.8833z M350.6339,58.8391
						c-7.5789-7.0921-15.0872-14.1182-22.6536-21.1986c7.5877-6.7541,15.0921-13.434,22.657-20.1677
						c-2.7382-2.6449-5.3542-5.1719-8.03-7.7566c-7.4771,6.6494-15.1062,13.434-22.8034,20.2792
						c-7.6156-7.1203-15.1855-14.1977-22.7879-21.3056c-2.6676,2.5781-5.3083,5.1302-8.0279,7.7585
						c7.5017,7.0183,14.9301,13.968,22.4416,20.9954c-7.8511,6.9876-15.6683,13.9449-23.558,20.9668
						c2.7235,2.6132,5.3657,5.1485,8.0589,7.7327c7.7839-6.9218,15.7111-13.971,23.674-21.052
						c7.6968,7.1957,15.3206,14.3232,23.0079,21.51C345.3029,63.9976,347.9366,61.4491,350.6339,58.8391z M318.9803,114.9582
						c5.6924,0,11.3849-0.0145,17.0773,0.0054c3.4733,0.0121,6.3478-2.8411,6.2262-6.1782
						c-0.1313-3.6041-0.1604-7.2229,0.0093-10.8239c0.1513-3.2094-2.3191-6.3713-6.2666-6.3913
						c-11.3474-0.0577-22.6953-0.0482-34.0428-0.0044c-3.7352,0.0144-6.2823,2.6715-6.2964,6.3708
						c-0.0136,3.5717-0.0167,7.1435,0.0009,10.7151c0.0183,3.7051,2.6324,6.3019,6.3263,6.3052
						C307.6699,114.962,313.3251,114.9582,318.9803,114.9582z M308.3821,73.9872c1.0224,3.7364,1.1632,7.2799-0.1916,10.9594
						c2.2079,0,4.2317,0,6.2703,0c0.0428,0.6259,0.0752,1.0983,0.1104,1.6122c3.3322,0,6.6176,0,9.9282,0
						c0.0506-0.5682,0.0948-1.0638,0.1476-1.6552c2.0508,0,4.0079,0,6.1418,0c-1.3326-3.6555-1.1783-7.2214-0.1616-10.9422
						c-2.1054,0-4.0519,0-6.0221,0c-0.0355-0.7563-0.0642-1.369-0.0934-1.9916c-3.3846,0-6.64,0-9.9343,0
						c-0.0422,0.6787-0.0804,1.2934-0.1255,2.0173C312.4675,73.9872,310.5472,73.9872,308.3821,73.9872z M307.914,79.5097
						c-0.0411-0.6663-0.0262-1.3423-0.1386-1.9963c-0.1183-0.6883-0.3097-1.3736-0.5526-2.0293
						c-2.0917-5.6448-7.7538-8.7747-14.1588-7.8467c-7.2567,1.0514-12.0298,8.5879-9.7315,15.4058
						c1.6802,4.9841,6.7639,8.7445,13.194,8.2985C302.7335,90.9111,307.8136,85.7208,307.914,79.5097z M344.0228,91.3966
						c0.6134-0.079,1.6187-0.141,2.5945-0.3447c7.5491-1.5762,11.7037-9.6244,8.5459-16.5159
						c-2.377-5.1874-8.6317-8.1421-14.356-6.7816c-5.6018,1.3314-9.6095,5.9169-9.7362,11.1403
						C330.9022,85.849,336.4503,91.3675,344.0228,91.3966z M323.0643,69.9618c0.0776-0.2338,0.1412-0.3362,0.1414-0.4386
						c0.0086-5.948,0.0147-11.896,0.0054-17.8439c-0.0004-0.2358-0.0823-0.5507-0.245-0.6943
						c-1.1315-0.9991-2.2945-1.9627-3.4908-2.9745c-1.265,1.0573-2.4938,2.0159-3.6297,3.0744
						c-0.3496,0.3258-0.6227,0.9219-0.6286,1.398c-0.0426,3.4564-0.0085,6.9138,0.0028,10.3709
						c0.0066,2.0073-0.0154,4.0156,0.0523,6.0209c0.0125,0.3687,0.3837,1.0328,0.6057,1.0398
						C318.2809,69.9902,320.6873,69.9618,323.0643,69.9618z M319.5103,27.4392c0.5524-0.4721,0.9692-0.9101,1.4611-1.2342
						c1.7894-1.1792,2.6949-2.7228,2.2625-4.9279c-0.1762-0.8987,0.0075-1.9445-0.3887-2.7073
						c-0.7894-1.5199-2.4109-1.3982-3.8497-1.3704c-1.2992,0.025-2.9164,0.0512-3.3008,1.4997
						c-0.4147,1.5629-0.2305,3.2868-0.2781,4.9413c-0.004,0.1378,0.2007,0.2994,0.3349,0.4207
						C316.9885,25.1794,318.2312,26.2913,319.5103,27.4392z M323.1588,121.5019c0-1.8604,0-3.4762,0-5.1061
						c-2.6292,0-5.1936,0-7.7425,0c0,1.743,0,3.395,0,5.1061C318.0362,121.5019,320.5708,121.5019,323.1588,121.5019z
						 M323.1568,87.9479c-2.6288,0-5.1904,0-7.7361,0c0,0.8635,0,1.6196,0,2.3839c2.6287,0,5.1672,0,7.7361,0
						C323.1568,89.5043,323.1568,88.746,323.1568,87.9479z"/>
					<path d="M350.6339,58.8391c-2.6973,2.6101-5.331,5.1586-8.0214,7.762c-7.6873-7.1869-15.3111-14.3143-23.0079-21.51
						c-7.9629,7.081-15.8901,14.1302-23.674,21.052c-2.6933-2.5842-5.3354-5.1195-8.0589-7.7327
						c7.8897-7.0219,15.7069-13.9793,23.558-20.9668c-7.5115-7.0274-14.9399-13.9771-22.4416-20.9954
						c2.7196-2.6283,5.3602-5.1804,8.0279-7.7585c7.6024,7.1079,15.1722,14.1854,22.7879,21.3056
						c7.6973-6.8452,15.3263-13.6297,22.8034-20.2792c2.6758,2.5847,5.2918,5.1117,8.03,7.7566
						c-7.5648,6.7337-15.0692,13.4136-22.657,20.1677C335.5467,44.7209,343.0551,51.747,350.6339,58.8391z M335.7504,25.3117
						c-1.4966-0.5005-2.6759-0.9176-3.8719-1.2796c-0.3194-0.0967-0.8002-0.1692-1.0173-0.0039
						c-0.8143,0.62-1.5502,1.3429-2.3969,2.1002c1.4291,1.3546,2.771,2.6264,4.15,3.9335c0.4268-0.3748,0.9183-0.8065,1.5508-1.362
						c-0.9655-0.9906-1.8411-1.889-2.7158-2.7865c1.13,0.3942,2.2719,0.8165,3.4317,1.1818
						c0.3212,0.1012,0.8115,0.1821,1.0253,0.0161c0.8357-0.6486,1.5918-1.3998,2.339-2.0779
						c-1.4005-1.3974-2.7042-2.6982-4.0445-4.0356c-0.4646,0.4283-0.9421,0.8684-1.5248,1.4055
						C333.6884,23.3611,334.599,24.2225,335.7504,25.3117z M296.0947,17.6213c1.7635,1.2941,1.8128,1.4558,0.8052,2.6931
						c0.5058,0.4557,1.0139,0.9136,1.716,1.5462c0.4194-0.7894,0.7628-1.4359,1.1583-2.1802
						c0.7658,0.1835,1.503-0.2862,1.9384-1.1426c0.4746-0.9335-0.13-1.6403-0.7459-2.2452
						c-1.0798-1.0605-2.2038-2.076-3.3652-3.1626c-1.2959,1.4088-2.5646,2.788-3.87,4.2071c0.3208,0.2927,0.824,0.752,1.3462,1.2285
						C295.453,18.2171,295.749,17.9423,296.0947,17.6213z M341.8452,19.0575c0.1219,0.0623,0.2437,0.1246,0.3656,0.1869
						c-0.181,0.3575-0.2786,0.8177-0.5627,1.0485c-0.4261,0.3461-1.1982,0.8733-1.4431,0.7193
						c-0.6771-0.426-1.4406-1.0996-1.6033-1.8059c-0.0895-0.3886,0.908-1.1157,1.5142-1.5531
						c0.6632-0.4784,1.4404-0.7988,2.2385-1.2258c-0.8955-0.9655-1.6562-0.9278-2.4124-0.4186
						c-0.5818,0.3917-1.1302,0.8394-1.6604,1.3002c-2.4196,2.1029-2.4022,3.126,0.0446,5.2117
						c0.6696,0.5708,1.4729,0.7551,2.1455,0.2601c1.2108-0.8911,2.3453-1.899,3.4286-2.9443
						c0.5355-0.5167,0.4708-1.2258-0.0166-1.8218c-0.3452-0.4221-0.7204-0.8196-1.1576-1.3133
						c-0.9194,0.8242-1.7666,1.5836-2.6679,2.3916c0.2629,0.2906,0.4957,0.5479,0.7301,0.8069
						C341.2129,19.5615,341.5291,19.3095,341.8452,19.0575z M300.1472,51.2707c1.4622,1.3994,2.7928,2.6729,4.1448,3.9668
						c0.1686-0.1371,0.4199-0.3579,0.6886-0.5552c0.2665-0.1957,0.5505-0.3675,0.8475-0.5634
						c-0.4706-0.5264-0.7573-0.847-1.0374-1.1604c1.484-1.6427,1.484-1.6427,2.7929-0.6268c0.477-0.43,0.9642-0.8692,1.6707-1.5061
						c-0.8247-0.4535-1.4986-0.8241-2.2663-1.2463c0.0858-0.7766-0.191-1.3346-1.0369-1.8385
						c-0.7731-0.4604-1.4526-0.1849-2.0456,0.3031C302.6506,49.0766,301.4363,50.1587,300.1472,51.2707z M310.6304,49.1911
						c0.7762-0.546,1.8116-1.1228,2.6613-1.9021c2.1255-1.9491,2.0913-2.7213,0.014-4.6891
						c-0.9228-0.8741-1.7545-1.0411-2.8088-0.3349c-0.8871,0.5942-1.6952,1.3269-2.4577,2.0799
						c-0.6416,0.6336-1.2607,1.4447-0.6653,2.366C308.0689,47.7865,308.8637,48.8483,310.6304,49.1911z M325.2963,31.6875
						c-0.9741-1.0427-1.7609-1.0321-2.4846-0.4691c-0.906,0.7049-1.7726,1.4727-2.5793,2.2892
						c-0.6364,0.6441-0.8073,1.3939-0.091,2.1709c0.698,0.7572,1.4464,0.8606,2.2692,0.2719
						c0.6943-0.4968,1.3452-1.0547,2.0432-1.5457c0.1652-0.1162,0.4425-0.073,0.6683-0.1031
						c-0.0184,0.26,0.0644,0.6178-0.0745,0.7614c-0.3817,0.3946-0.8842,1.0145-1.2888,0.9788
						c-1.0794-0.0953-1.3778,0.7422-2.0269,1.1971c0.935,0.811,1.4666,0.9839,2.2198,0.4064
						c1.0538-0.8079,2.0341-1.7285,2.9524-2.6902c0.563-0.5897,0.5916-1.3202-0.0205-2.0015
						c-0.651-0.7245-1.3757-0.8628-2.1745-0.3265c-0.6768,0.4544-1.2915,1.0015-1.9689,1.4549
						c-0.2655,0.1777-0.6271,0.2116-0.945,0.311c-0.071-0.1355-0.142-0.271-0.213-0.4065c0.5192-0.4313,0.9996-0.9255,1.5681-1.2771
						C323.7749,32.3228,324.4808,32.0675,325.2963,31.6875z M319.1275,37.1488c-0.9156-0.9706-1.7116-1.0213-2.4277-0.4741
						c-0.9693,0.7407-1.8819,1.5714-2.7309,2.4486c-0.577,0.5962-0.6034,1.3405-0.0117,2.0121
						c0.5881,0.6676,1.2981,0.8673,2.0847,0.4091c0.5101-0.2971,0.9489-0.7143,1.4465-1.036
						c0.4456-0.2881,0.9249-0.526,1.4023-0.7594c0.0295-0.0145,0.2654,0.2836,0.2496,0.3018
						c-0.404,0.4681-0.8242,0.9227-1.2545,1.3671c-0.0694,0.0716-0.2029,0.0781-0.3026,0.1237
						c-0.6866,0.3142-1.3721,0.6308-2.1577,0.9926c0.8195,0.9827,1.6276,1.1283,2.3521,0.5809
						c1.0587-0.7998,2.0448-1.7137,2.9657-2.6714c0.6001-0.6241,0.6386-1.357-0.0627-2.0668
						c-0.6928-0.7013-1.3774-0.8132-2.1725-0.2468c-0.5143,0.3664-0.9995,0.7787-1.5365,1.1068
						c-0.3983,0.2434-0.8591,0.3845-1.2921,0.5712c0.2802-0.4513,0.5439-0.9142,0.8503-1.3469
						c0.0955-0.1349,0.3018-0.1974,0.4649-0.2776C317.6604,37.8565,318.3288,37.5356,319.1275,37.1488z M328.3681,46.4285
						c0.8865,0.2713,1.5252-0.4689,1.9821-1.2815c0.4672-0.831-0.1277-1.4892-0.6988-2.0447
						c-0.9532-0.9273-1.9352-1.8249-3.0382-2.8601c-1.3112,1.4481-2.5675,2.8357-3.8443,4.2458
						c0.3194,0.2937,0.7521,0.6916,1.1827,1.0875c0.4344-0.3364,0.8053-0.6237,1.1638-0.9013
						c1.4866,1.2751,1.4866,1.2751,0.5611,2.5174c0.4333,0.4114,0.8746,0.8303,1.5004,1.4243
						C327.6107,47.8193,327.9643,47.1701,328.3681,46.4285z M338.5075,59.2321c0.6517,0.6127,1.379,1.293,2.1026,1.9772
						c2.1581,2.0406,2.891,2.024,4.9364-0.1164c0.0766-0.0802,0.1554-0.1586,0.2278-0.2425
						c0.6771-0.7843,0.7316-1.6422,0.0758-2.4141c-1.0234-1.2046-2.1323-2.3367-3.2757-3.5762
						C341.0788,56.4679,339.823,57.8179,338.5075,59.2321z M304.7982,27.6845c0.5035-1.2099,0.9469-2.269,1.3853-3.3303
						c1.0202-2.4695,1.0228-2.4742-1.0478-4.1671c-0.1729-0.1413-0.4858-0.2953-0.6529-0.2316
						c-1.8409,0.7024-3.6657,1.4468-5.7763,2.2927c0.8669,0.5604,1.4856,1.29,2.1207,1.3046
						c1.4741,0.0339,2.7809,1.3077,2.3922,2.7148C303.6987,26.6976,304.1911,27.1396,304.7982,27.6845z M335.5637,49.7666
						c-0.0398-0.3084-0.0123-0.5198-0.0951-0.6706c-0.8098-1.4753-1.9237-2.6738-3.5382-3.2156
						c-1.3295-0.4461-1.9601,0.759-2.7834,1.4521c-0.1131,0.0952-0.213,0.2069-0.3133,0.3163
						c-0.6428,0.7008-0.7289,1.5281-0.1693,2.2342c0.6607,0.8335,1.4467,1.5876,2.2686,2.2669
						c0.6443,0.5327,1.4966,0.8521,2.2665,0.2993C334.2035,51.7285,335.2868,51.0172,335.5637,49.7666z M301.1676,54.8974
						c-0.4594,0.615-1.0658,1.1169-1.2354,1.738c-0.1826,0.6684-0.9049,1.9481-1.4264,1.701
						c-0.712-0.3374-1.388-0.9854-1.756-1.6733c-0.1128-0.2109,0.8935-1.4668,1.2878-1.4192
						c1.2055,0.1453,1.5133-0.7951,2.2135-1.2704c-0.9695-1.0208-1.4952-1.1259-2.5279-0.4368
						c-0.5515,0.3679-1.0622,0.8076-1.548,1.2612c-2.1771,2.0324-2.144,2.9902,0.1384,4.9135
						c0.0566,0.0477,0.1182,0.0896,0.176,0.1359c0.678,0.5434,1.4816,0.6962,2.1634,0.2047
						c1.0714-0.7724,2.1193-1.6183,3.0115-2.5858C302.4308,56.6354,302.2429,55.9076,301.1676,54.8974z M332.674,53.7366
						c0.7741,0.5292,0.9326,1.5358,2.2256,1.1804c0.4543-0.1249,1.2673,1.0554,1.9165,1.6397
						c-0.706,1.2434,0.5938,1.3852,1.0946,2.1565c0.8896-1.9154,1.7108-3.6836,2.5481-5.4862
						c-0.5942-0.5643-1.1375-1.1227-1.7319-1.62c-0.1905-0.1594-0.5731-0.2913-0.7714-0.2076
						C336.2321,52.1268,334.5306,52.9062,332.674,53.7366z M311.9898,26.7752c-1.3403,1.3987-2.6148,2.7286-3.9483,4.1203
						c1.2737,1.18,2.5686,2.3797,3.9369,3.6474c0.3713-0.3437,0.6589-0.6099,1.0152-0.9398
						c-0.8875-0.8252-1.6445-1.5291-2.6394-2.4542c1.087-0.9696,2.1542-1.9216,3.2656-2.913
						C313.0588,27.7332,312.593,27.3158,311.9898,26.7752z M325.4368,28.8202c1.3775,1.3547,2.7053,2.6606,4.0859,4.0185
						c0.4305-0.3971,0.9039-0.8337,1.4287-1.3177c-1.4411-1.3565-2.7819-2.6186-4.1561-3.9121
						C326.4079,27.9543,325.917,28.3921,325.4368,28.8202z M307.0366,29.8151c1.3117-1.3978,2.5671-2.7356,3.8891-4.1443
						c-0.3555-0.3341-0.8516-0.8004-1.4165-1.3314c-1.318,1.403-2.5748,2.7409-3.8846,4.1352
						C306.0457,28.8745,306.5182,29.323,307.0366,29.8151z"/>
					<path d="M318.9803,114.9582c-5.6552,0-11.3105,0.0038-16.9657-0.0013c-3.6939-0.0033-6.308-2.6001-6.3263-6.3052
						c-0.0176-3.5716-0.0145-7.1435-0.0009-10.7151c0.0141-3.6993,2.5611-6.3564,6.2964-6.3708
						c11.3475-0.0438,22.6954-0.0533,34.0428,0.0044c3.9475,0.0201,6.4179,3.1819,6.2666,6.3913
						c-0.1697,3.6009-0.1406,7.2197-0.0093,10.8239c0.1216,3.3371-2.753,6.1903-6.2262,6.1782
						C330.3653,114.9437,324.6728,114.9582,318.9803,114.9582z M319.1007,103.173c0.0438,0.0022,0.0875,0.0044,0.1313,0.0065
						c0,1.2639-0.0631,2.5317,0.0133,3.791c0.1536,2.5319,1.4056,3.8511,3.8175,4.1472c3.1827,0.3907,5.2912-0.9173,5.489-3.7323
						c0.1973-2.8075,0.1415-5.6438,0.0149-8.4592c-0.087-1.9352-1.2481-3.3097-2.8184-3.5692
						c-1.008-0.1666-2.0659-0.1628-3.0888-0.0795c-1.8292,0.1489-2.9424,1.2512-3.204,3.021
						C319.218,99.9057,319.2099,101.5469,319.1007,103.173z M308.5341,100.1745c-0.0976-0.9394-0.1164-1.8251-0.2952-2.6773
						c-0.2673-1.274-1.0131-2.1681-2.4035-2.2423c-1.0674-0.057-2.1505-0.0877-3.2094,0.028
						c-1.5424,0.1685-2.3611,0.8603-2.5255,2.3587c-0.1681,1.5328-0.1638,3.1088-0.0138,4.6443
						c0.1204,1.2326,0.899,2.0822,2.2537,2.2307c0.9203,0.1009,1.8416,0.2178,2.7493,0.3948
						c0.2722,0.0531,0.6309,0.2799,0.7268,0.5173c0.5255,1.3002-0.1039,2.1151-1.4912,2.211
						c-1.308,0.0905-1.8352-0.5271-1.8608-1.7132c-0.8976,0-1.7298,0-2.5512,0c-0.3673,3.8535,0.9221,5.2825,4.623,5.2097
						c0.3684-0.0072,0.7393-0.0595,1.1025-0.1262c2.0515-0.377,2.8912-1.2613,3.0589-3.3401
						c0.0774-0.9597,0.0689-1.934,0.0068-2.8956c-0.143-2.2147-0.826-2.9183-3.0362-3.2395c-0.5502-0.08-1.1024-0.1789-1.656-0.1962
						c-0.9897-0.0309-1.3687-0.5077-1.3383-1.4846c0.0297-0.9536,0.5664-1.1247,1.37-1.214c1.1874-0.132,1.7464,0.354,1.7482,1.5345
						C306.6977,100.1745,307.5355,100.1745,308.5341,100.1745z M333.4111,106.9523c1.0583,0,1.9081,0.0138,2.7572-0.003
						c1.6212-0.0321,2.6995-0.6984,2.8318-2.2545c0.1933-2.2732,0.1519-4.5826-0.0006-6.8624
						c-0.0794-1.1866-0.8553-2.3074-2.1349-2.4111c-2.0495-0.1661-4.1223-0.0445-6.1741-0.0445c0,5.2263,0,10.3769,0,15.5389
						c0.918,0,1.7599,0,2.7206,0C333.4111,109.6105,333.4111,108.3578,333.4111,106.9523z M312.5524,98.9284
						c0,4.1165,0,8.0417,0,11.999c0.9518,0,1.7964,0,2.7993,0c0-3.9968,0-7.9521,0-12.0377c0.9875,0,1.8218,0,2.6575,0
						c0-1.266,0-2.3959,0-3.537c-2.7419,0-5.4015,0-8.0962,0c0,1.1988,0,2.3312,0,3.5757
						C310.7712,98.9284,311.5706,98.9284,312.5524,98.9284z"/>
					<path d="M308.3821,73.9872c2.1651,0,4.0854,0,6.0697,0c0.045-0.7239,0.0833-1.3386,0.1255-2.0173c3.2942,0,6.5497,0,9.9343,0
						c0.0292,0.6225,0.0579,1.2353,0.0934,1.9916c1.9702,0,3.9167,0,6.0221,0c-1.0167,3.7208-1.171,7.2867,0.1616,10.9422
						c-2.1338,0-4.091,0-6.1418,0c-0.0527,0.5914-0.0969,1.087-0.1476,1.6552c-3.3106,0-6.596,0-9.9282,0
						c-0.0352-0.5139-0.0675-0.9863-0.1104-1.6122c-2.0386,0-4.0623,0-6.2703,0C309.5453,81.267,309.4044,77.7236,308.3821,73.9872z
						"/>
					<path d="M307.914,79.5097c-0.1003,6.2112-5.1805,11.4014-11.3875,11.8319c-6.4301,0.446-11.5138-3.3144-13.194-8.2985
						c-2.2983-6.8179,2.4748-14.3544,9.7315-15.4058c6.4049-0.928,12.0671,2.2019,14.1588,7.8467
						c0.243,0.6557,0.4344,1.341,0.5526,2.0293C307.8878,78.1674,307.8729,78.8433,307.914,79.5097z M295.4855,73.8565
						c-2.9286-0.0087-6.6228,2.7458-7.4233,5.357c-0.0431,0.1405-0.0635,0.2894-0.0821,0.4359
						c-0.474,3.7468,1.9586,7.1241,5.66,7.8605c3.9565,0.7871,7.7943-1.39,8.756-5.0323c0.3292-1.2468,0.5964-2.5698-0.2529-3.7386
						c-0.6078-0.8364-1.3892-1.5498-1.9697-2.4021C298.9745,74.576,297.3316,73.7976,295.4855,73.8565z M305.2192,78.0864
						c-1.118-4.7983-5.4664-8.5942-11.7687-7.7106c-4.2301,0.5931-8.0978,4.6033-7.5684,7.7057
						c1.472-0.3769,2.3817-1.4297,3.2286-2.5786c3.1839-4.3191,9.0262-4.31,12.1158,0.0254
						C302.1973,76.8902,303.4311,77.8073,305.2192,78.0864z"/>
					<path d="M344.0228,91.3966c-7.5725-0.0291-13.1206-5.5476-12.9519-12.5019c0.1267-5.2233,4.1344-9.8089,9.7362-11.1403
						c5.7243-1.3605,11.9791,1.5942,14.356,6.7816c3.1578,6.8915-0.9968,14.9397-8.5459,16.5159
						C345.6415,91.2557,344.6362,91.3177,344.0228,91.3966z M343.8986,73.8564c-2.8795-0.0086-6.7555,2.865-7.4429,5.3383
						c-0.0295,0.106-0.0238,0.2213-0.0417,0.3311c-0.6443,3.9487,1.9155,7.3137,6.1502,8.0839
						c3.6877,0.6706,7.704-1.938,8.2983-5.5504c0.1746-1.0612,0.0381-2.3025-0.3671-3.2931
						c-0.3874-0.9473-1.3671-1.6351-1.9844-2.5091C347.3127,74.5603,345.7001,73.7902,343.8986,73.8564z M353.6254,78.0761
						c-0.8616-5.1604-6.4034-8.8627-11.675-7.9211c-4.3264,0.7728-8.2294,4.7916-7.6499,7.8771
						c1.4294-0.4223,1.9134-0.8183,3.352-2.7421c3.0154-4.0324,8.9404-3.9965,11.8564,0.0926
						C350.5169,76.7962,351.7482,77.8136,353.6254,78.0761z"/>
					<path d="M323.0643,69.9618c-2.377,0-4.7834,0.0284-7.1864-0.0473c-0.222-0.007-0.5933-0.6711-0.6057-1.0398
						c-0.0677-2.0053-0.0457-4.0136-0.0523-6.0209c-0.0113-3.4571-0.0453-6.9145-0.0028-10.3709
						c0.0059-0.4761,0.279-1.0723,0.6286-1.398c1.1358-1.0585,2.3647-2.0171,3.6297-3.0744
						c1.1963,1.0117,2.3593,1.9753,3.4908,2.9745c0.1626,0.1436,0.2446,0.4585,0.245,0.6943
						c0.0093,5.948,0.0031,11.896-0.0054,17.8439C323.2055,69.6256,323.1419,69.728,323.0643,69.9618z"/>
					<path d="M319.5103,27.4392c-1.2791-1.1479-2.5218-2.2598-3.7588-3.3782c-0.1342-0.1213-0.3389-0.2829-0.3349-0.4207
						c0.0476-1.6545-0.1366-3.3784,0.2781-4.9413c0.3844-1.4485,2.0016-1.4747,3.3008-1.4997
						c1.4388-0.0277,3.0603-0.1494,3.8497,1.3704c0.3962,0.7628,0.2125,1.8086,0.3887,2.7073
						c0.4324,2.2051-0.4731,3.7487-2.2625,4.9279C320.4795,26.5291,320.0627,26.967,319.5103,27.4392z"/>
					<path d="M323.1588,121.5019c-2.588,0-5.1226,0-7.7425,0c0-1.7111,0-3.3631,0-5.1061c2.5489,0,5.1133,0,7.7425,0
						C323.1588,118.0257,323.1588,119.6415,323.1588,121.5019z"/>
					<path d="M323.1568,87.9479c0,0.7981,0,1.5564,0,2.3839c-2.5689,0-5.1075,0-7.7361,0c0-0.7643,0-1.5204,0-2.3839
						C317.9664,87.9479,320.528,87.9479,323.1568,87.9479z"/>
					<path class="st0" d="M335.7504,25.3117c-1.1514-1.0892-2.062-1.9506-3.0744-2.9083c0.5827-0.5371,1.0602-0.9773,1.5248-1.4055
						c1.3403,1.3374,2.644,2.6382,4.0445,4.0356c-0.7472,0.6781-1.5033,1.4294-2.339,2.0779
						c-0.2139,0.166-0.7042,0.085-1.0253-0.0161c-1.1599-0.3653-2.3017-0.7875-3.4317-1.1818
						c0.8747,0.8975,1.7503,1.7959,2.7158,2.7865c-0.6325,0.5555-1.124,0.9871-1.5508,1.362
						c-1.3791-1.3071-2.7209-2.579-4.15-3.9335c0.8467-0.7572,1.5826-1.4802,2.3969-2.1002
						c0.2171-0.1653,0.6979-0.0928,1.0173,0.0039C333.0745,24.3941,334.2538,24.8112,335.7504,25.3117z"/>
					<path class="st0" d="M296.0947,17.6213c-0.3457,0.321-0.6417,0.5957-1.0171,0.9443c-0.5222-0.4765-1.0254-0.9357-1.3462-1.2285
						c1.3054-1.4191,2.5741-2.7983,3.87-4.2071c1.1614,1.0867,2.2854,2.1021,3.3652,3.1626
						c0.6159,0.6049,1.2206,1.3117,0.7459,2.2452c-0.4355,0.8564-1.1726,1.326-1.9384,1.1426
						c-0.3954,0.7443-0.7389,1.3908-1.1583,2.1802c-0.7021-0.6327-1.2103-1.0905-1.716-1.5462
						C297.9075,19.0771,297.8582,18.9154,296.0947,17.6213z M298.2008,15.6234c-0.4243,0.3547-0.754,0.6303-1.1358,0.9494
						c0.7097,0.5992,1.2855,1.0854,1.9012,1.6053c0.3396-0.3613,0.5828-0.6201,0.8564-0.9112
						c-0.2311-0.2762-0.4014-0.5137-0.6061-0.7164C298.905,16.242,298.5697,15.9576,298.2008,15.6234z"/>
					<path class="st0" d="M341.8452,19.0575c-0.3162,0.252-0.6323,0.504-1.0568,0.8425c-0.2344-0.259-0.4672-0.5164-0.7301-0.8069
						c0.9013-0.808,1.7485-1.5674,2.6679-2.3916c0.4372,0.4936,0.8123,0.8912,1.1576,1.3133
						c0.4874,0.596,0.5521,1.3051,0.0166,1.8218c-1.0833,1.0452-2.2179,2.0532-3.4286,2.9443
						c-0.6726,0.4951-1.4759,0.3107-2.1455-0.2601c-2.4468-2.0857-2.4641-3.1088-0.0446-5.2117
						c0.5302-0.4608,1.0787-0.9085,1.6604-1.3002c0.7562-0.5091,1.5169-0.5469,2.4124,0.4186
						c-0.7981,0.427-1.5753,0.7473-2.2385,1.2258c-0.6063,0.4374-1.6038,1.1644-1.5142,1.5531
						c0.1628,0.7063,0.9262,1.3799,1.6033,1.8059c0.2449,0.154,1.017-0.3732,1.4431-0.7193
						c0.284-0.2307,0.3816-0.6909,0.5627-1.0485C342.089,19.1821,341.9671,19.1198,341.8452,19.0575z"/>
					<path class="st0" d="M300.1472,51.2707c1.2891-1.112,2.5034-2.194,3.7583-3.2268c0.593-0.488,1.2725-0.7635,2.0456-0.3031
						c0.8459,0.5038,1.1227,1.0619,1.0369,1.8385c0.7678,0.4222,1.4416,0.7928,2.2663,1.2463
						c-0.7065,0.6369-1.1937,1.0761-1.6707,1.5061c-1.3088-1.0159-1.3088-1.0159-2.7929,0.6268
						c0.2801,0.3133,0.5668,0.634,1.0374,1.1604c-0.2969,0.1959-0.581,0.3678-0.8475,0.5634
						c-0.2687,0.1973-0.52,0.4181-0.6886,0.5552C302.94,53.9436,301.6094,52.6701,300.1472,51.2707z M305.3915,50.5653
						c-0.5449-1.4365-1.2152-1.3166-2.6024,0.4472c0.3103,0.2844,0.6228,0.5707,0.9553,0.8754
						c0.3694-0.3277,0.6365-0.5825,0.9231-0.8132C304.8999,50.8877,305.1556,50.7296,305.3915,50.5653z"/>
					<path class="st0" d="M310.6304,49.1911c-1.7666-0.3428-2.5615-1.4046-3.2565-2.4801c-0.5954-0.9213,0.0238-1.7323,0.6653-2.366
						c0.7625-0.753,1.5706-1.4857,2.4577-2.0799c1.0543-0.7062,1.8861-0.5393,2.8088,0.3349c2.0773,1.9678,2.1115,2.74-0.014,4.6891
						C312.442,48.0683,311.4066,48.6451,310.6304,49.1911z M313.2299,45.5727c-0.9149-0.7531-1.5507-1.68-2.2215-1.7061
						c-0.5796-0.0225-1.199,0.9789-1.8008,1.5277c0.6237,0.5831,1.1786,1.4866,1.8945,1.6401
						C311.606,47.1424,312.3286,46.2309,313.2299,45.5727z"/>
					<path class="st0" d="M325.2963,31.6875c-0.8155,0.38-1.5214,0.6353-2.1461,1.0218c-0.5685,0.3517-1.0489,0.8458-1.5681,1.2771
						c0.071,0.1355,0.142,0.271,0.213,0.4065c0.3178-0.0994,0.6795-0.1334,0.945-0.311c0.6775-0.4534,1.2921-1.0005,1.9689-1.4549
						c0.7988-0.5362,1.5235-0.398,2.1745,0.3265c0.6121,0.6813,0.5836,1.4118,0.0205,2.0015
						c-0.9182,0.9617-1.8986,1.8823-2.9524,2.6902c-0.7532,0.5775-1.2848,0.4046-2.2198-0.4064
						c0.6491-0.4549,0.9474-1.2924,2.0269-1.1971c0.4047,0.0357,0.9071-0.5842,1.2888-0.9788
						c0.1388-0.1435,0.0561-0.5013,0.0745-0.7614c-0.2258,0.0301-0.5031-0.0131-0.6683,0.1031
						c-0.6981,0.4911-1.3489,1.0489-2.0432,1.5457c-0.8228,0.5887-1.5712,0.4853-2.2692-0.2719
						c-0.7162-0.777-0.5453-1.5268,0.091-2.1709c0.8067-0.8166,1.6733-1.5843,2.5793-2.2892
						C323.5354,30.6554,324.3222,30.6448,325.2963,31.6875z"/>
					<path class="st0" d="M319.1275,37.1488c-0.7987,0.3868-1.4671,0.7077-2.1326,1.0347
						c-0.1631,0.0802-0.3694,0.1426-0.4649,0.2776c-0.3064,0.4328-0.5701,0.8957-0.8503,1.3469
						c0.433-0.1867,0.8937-0.3278,1.2921-0.5712c0.537-0.3281,1.0222-0.7404,1.5365-1.1068
						c0.795-0.5664,1.4796-0.4545,2.1725,0.2468c0.7013,0.7099,0.6628,1.4428,0.0627,2.0668
						c-0.9209,0.9577-1.907,1.8716-2.9657,2.6714c-0.7245,0.5474-1.5326,0.4017-2.3521-0.5809
						c0.7857-0.3618,1.4712-0.6784,2.1577-0.9926c0.0997-0.0456,0.2333-0.0521,0.3026-0.1237
						c0.4304-0.4443,0.8506-0.899,1.2545-1.3671c0.0158-0.0183-0.2201-0.3163-0.2496-0.3018
						c-0.4774,0.2334-0.9566,0.4713-1.4023,0.7594c-0.4977,0.3218-0.9364,0.7389-1.4465,1.036
						c-0.7867,0.4582-1.4966,0.2585-2.0847-0.4091c-0.5916-0.6715-0.5652-1.4159,0.0117-2.0121
						c0.8489-0.8772,1.7615-1.7078,2.7309-2.4486C317.4159,36.1275,318.2119,36.1782,319.1275,37.1488z"/>
					<path class="st0" d="M328.3681,46.4285c-0.4038,0.7415-0.7574,1.3908-1.1912,2.1874c-0.6257-0.594-1.067-1.0129-1.5004-1.4243
						c0.9255-1.2424,0.9255-1.2424-0.5611-2.5174c-0.3585,0.2776-0.7295,0.5649-1.1638,0.9013
						c-0.4306-0.396-0.8634-0.7939-1.1827-1.0875c1.2768-1.4101,2.5331-2.7977,3.8443-4.2458
						c1.1031,1.0351,2.0851,1.9328,3.0382,2.8601c0.5711,0.5555,1.166,1.2137,0.6988,2.0447
						C329.8933,45.9596,329.2546,46.6998,328.3681,46.4285z M327.0904,42.6938c-0.3238,0.3081-0.6368,0.606-0.949,0.9031
						c1.5342,1.6278,1.5342,1.6278,2.3648,0.4572C328.0671,43.6322,327.6189,43.2016,327.0904,42.6938z"/>
					<path class="st0" d="M338.5075,59.2321c1.3155-1.4142,2.5713-2.7642,4.0668-4.372c1.1434,1.2395,2.2523,2.3716,3.2757,3.5762
						c0.6558,0.7719,0.6013,1.6298-0.0758,2.4141c-0.0724,0.0839-0.1512,0.1623-0.2278,0.2425
						c-2.0454,2.1404-2.7783,2.157-4.9364,0.1164C339.8865,60.5251,339.1593,59.8448,338.5075,59.2321z M343.0428,57.4022
						c-0.8887,0.7791-1.5714,1.3776-2.487,2.1803c0.9105,0.4684,1.6201,1.1341,2.2607,1.0732
						c0.5695-0.0542,1.4991-0.9298,1.4812-1.4139C344.2741,58.6031,343.481,57.9925,343.0428,57.4022z"/>
					<path class="st0" d="M304.7982,27.6845c-0.6071-0.5449-1.0996-0.9869-1.5787-1.417c0.3886-1.4071-0.9181-2.6809-2.3922-2.7148
						c-0.6351-0.0146-1.2538-0.7442-2.1207-1.3046c2.1106-0.8458,3.9355-1.5902,5.7763-2.2927
						c0.1671-0.0637,0.48,0.0903,0.6529,0.2316c2.0706,1.6929,2.0681,1.6977,1.0478,4.1671
						C305.7451,25.4155,305.3017,26.4747,304.7982,27.6845z M302.7787,22.9034c0.4337,0.3686,0.8373,0.7116,1.3249,1.126
						c0.3213-0.7526,0.579-1.3562,0.9158-2.1451c-0.7646,0.3045-1.281,0.5033-1.7907,0.718
						C303.0952,22.6585,302.9828,22.7645,302.7787,22.9034z"/>
					<path class="st0" d="M335.5637,49.7666c-0.2769,1.2506-1.3601,1.9618-2.3642,2.6826
						c-0.7699,0.5527-1.6221,0.2333-2.2665-0.2993c-0.8219-0.6794-1.6079-1.4335-2.2686-2.2669
						c-0.5597-0.7061-0.4735-1.5334,0.1693-2.2342c0.1003-0.1093,0.2002-0.2211,0.3133-0.3163
						c0.8233-0.6931,1.4539-1.8982,2.7834-1.4521c1.6144,0.5417,2.7284,1.7403,3.5382,3.2156
						C335.5514,49.2469,335.5238,49.4582,335.5637,49.7666z M332.0851,47.2738c-0.7278,0.8058-1.4914,1.3748-1.784,2.127
						c-0.1007,0.2589,1.1832,1.4959,1.4706,1.3804c0.7411-0.2979,1.451-1.0184,1.8034-1.7486
						C333.6965,48.7809,332.7242,48.0016,332.0851,47.2738z"/>
					<path class="st0" d="M301.1676,54.8974c1.0753,1.0101,1.2632,1.738,0.4969,2.5688c-0.8923,0.9675-1.9402,1.8133-3.0115,2.5858
						c-0.6818,0.4915-1.4854,0.3387-2.1634-0.2047c-0.0578-0.0464-0.1194-0.0882-0.176-0.1359
						c-2.2823-1.9234-2.3155-2.8811-0.1384-4.9135c0.4859-0.4536,0.9966-0.8932,1.548-1.2612
						c1.0327-0.6891,1.5584-0.584,2.5279,0.4368c-0.7002,0.4753-1.008,1.4158-2.2135,1.2704
						c-0.3943-0.0475-1.4006,1.2084-1.2878,1.4192c0.368,0.6879,1.044,1.3359,1.756,1.6733
						c0.5215,0.2471,1.2438-1.0326,1.4264-1.701C300.1018,56.0143,300.7083,55.5124,301.1676,54.8974z"/>
					<path class="st0" d="M332.674,53.7366c1.8566-0.8304,3.5581-1.6098,5.2815-2.3373c0.1984-0.0837,0.5809,0.0482,0.7714,0.2076
						c0.5945,0.4973,1.1377,1.0558,1.7319,1.62c-0.8372,1.8026-1.6585,3.5709-2.5481,5.4862
						c-0.5009-0.7714-1.8006-0.9131-1.0946-2.1565c-0.6492-0.5843-1.4622-1.7646-1.9165-1.6397
						C333.6067,55.2724,333.4482,54.2658,332.674,53.7366z M338.4986,53.1263c-0.912,0.4322-1.5119,0.7165-2.2383,1.0608
						c0.4683,0.4234,0.7868,0.7114,1.1841,1.0706C337.7776,54.5841,338.0643,54.0043,338.4986,53.1263z"/>
					<path class="st0" d="M311.9898,26.7752c0.6032,0.5405,1.069,0.958,1.63,1.4607c-1.1114,0.9914-2.1786,1.9434-3.2656,2.913
						c0.9949,0.9251,1.7519,1.629,2.6394,2.4542c-0.3563,0.3298-0.6439,0.596-1.0152,0.9398
						c-1.3683-1.2677-2.6632-2.4674-3.9369-3.6474C309.375,29.5039,310.6495,28.1739,311.9898,26.7752z"/>
					<path class="st0" d="M325.4368,28.8202c0.4802-0.4282,0.9711-0.8659,1.3585-1.2114c1.3743,1.2936,2.7151,2.5557,4.1561,3.9121
						c-0.5248,0.4841-0.9982,0.9206-1.4287,1.3177C328.1421,31.4809,326.8143,30.175,325.4368,28.8202z"/>
					<path class="st0" d="M307.0366,29.8151c-0.5184-0.4921-0.9909-0.9407-1.4121-1.3405c1.3098-1.3943,2.5666-2.7321,3.8846-4.1352
						c0.5649,0.5309,1.0611,0.9973,1.4165,1.3314C309.6037,27.0795,308.3483,28.4173,307.0366,29.8151z"/>
					<path class="st0" d="M319.1007,103.173c0.1093-1.6262,0.1173-3.2673,0.3549-4.8745c0.2616-1.7698,1.3748-2.872,3.204-3.021
						c1.0229-0.0833,2.0807-0.0871,3.0888,0.0795c1.5703,0.2595,2.7314,1.634,2.8184,3.5692
						c0.1266,2.8155,0.1824,5.6517-0.0149,8.4592c-0.1978,2.815-2.3063,4.123-5.489,3.7323
						c-2.412-0.2961-3.664-1.6153-3.8175-4.1472c-0.0764-1.2593-0.0133-2.5271-0.0133-3.791
						C319.1882,103.1774,319.1444,103.1752,319.1007,103.173z M325.7359,103.2591c0-1.0394,0.0416-2.081-0.0111-3.1177
						c-0.0587-1.156-0.8939-1.2795-1.8273-1.2881c-0.9247-0.0084-1.7047,0.2223-1.7383,1.2689
						c-0.0641,2.0017-0.0608,4.0081-0.0025,6.0102c0.0305,1.0484,0.7872,1.2874,1.7236,1.2776
						c0.9283-0.0097,1.775-0.0914,1.8437-1.2563C325.7808,105.1921,325.7356,104.2245,325.7359,103.2591z"/>
					<path class="st0" d="M308.5341,100.1745c-0.9986,0-1.8364,0-2.7418,0c-0.0018-1.1805-0.5608-1.6665-1.7482-1.5345
						c-0.8036,0.0893-1.3403,0.2604-1.37,1.214c-0.0304,0.9769,0.3486,1.4537,1.3383,1.4846
						c0.5536,0.0173,1.1058,0.1162,1.656,0.1962c2.2101,0.3212,2.8932,1.0248,3.0362,3.2395
						c0.0621,0.9617,0.0706,1.936-0.0068,2.8956c-0.1677,2.0788-1.0073,2.9631-3.0589,3.3401
						c-0.3632,0.0668-0.7341,0.119-1.1025,0.1262c-3.7008,0.0728-4.9903-1.3562-4.623-5.2097c0.8214,0,1.6536,0,2.5512,0
						c0.0256,1.1861,0.5528,1.8036,1.8608,1.7132c1.3873-0.0959,2.0167-0.9109,1.4912-2.211
						c-0.0959-0.2374-0.4546-0.4642-0.7268-0.5173c-0.9077-0.177-1.8289-0.2939-2.7493-0.3948
						c-1.3547-0.1485-2.1333-0.9981-2.2537-2.2307c-0.15-1.5355-0.1543-3.1116,0.0138-4.6443
						c0.1644-1.4984,0.9831-2.1902,2.5255-2.3587c1.0589-0.1157,2.142-0.085,3.2094-0.028
						c1.3904,0.0742,2.1362,0.9683,2.4035,2.2423C308.4177,98.3494,308.4365,99.2351,308.5341,100.1745z"/>
					<path class="st0" d="M333.4111,106.9523c0,1.4055,0,2.6582,0,3.9634c-0.9608,0-1.8027,0-2.7206,0c0-5.162,0-10.3126,0-15.5389
						c2.0518,0,4.1247-0.1216,6.1741,0.0445c1.2797,0.1037,2.0555,1.2245,2.1349,2.4111c0.1525,2.2798,0.1938,4.5892,0.0006,6.8624
						c-0.1323,1.5561-1.2106,2.2224-2.8318,2.2545C335.3192,106.9661,334.4694,106.9523,333.4111,106.9523z M333.4151,99.0643
						c0,1.0734-0.04,2.1428,0.0224,3.2061c0.021,0.3569,0.306,0.9985,0.4648,0.9968c0.8287-0.009,1.8975,0.468,2.3987-0.571
						c1.0647-2.207-0.0861-3.9028-2.4797-3.7611C333.7522,98.9393,333.685,98.977,333.4151,99.0643z"/>
					<path class="st0" d="M312.5524,98.9284c-0.9818,0-1.7812,0-2.6394,0c0-1.2445,0-2.377,0-3.5757c2.6947,0,5.3543,0,8.0962,0
						c0,1.141,0,2.271,0,3.537c-0.8357,0-1.67,0-2.6575,0c0,4.0856,0,8.0409,0,12.0377c-1.0029,0-1.8475,0-2.7993,0
						C312.5524,106.9701,312.5524,103.0449,312.5524,98.9284z"/>
					<path class="st0" d="M295.4855,73.8565c1.8462-0.0589,3.489,0.7196,4.688,2.4804c0.5804,0.8524,1.3619,1.5658,1.9697,2.4021
						c0.8493,1.1688,0.5821,2.4917,0.2529,3.7386c-0.9616,3.6423-4.7995,5.8194-8.756,5.0323
						c-3.7014-0.7364-6.134-4.1137-5.66-7.8605c0.0185-0.1465,0.039-0.2953,0.0821-0.4359
						C288.8627,76.6023,292.5569,73.8478,295.4855,73.8565z"/>
					<path class="st0" d="M305.2192,78.0864c-1.7881-0.279-3.0219-1.1961-3.9926-2.5582c-3.0897-4.3354-8.932-4.3445-12.1158-0.0254
						c-0.8469,1.1489-1.7566,2.2017-3.2286,2.5786c-0.5294-3.1024,3.3383-7.1126,7.5684-7.7057
						C299.7528,69.4921,304.1012,73.288,305.2192,78.0864z"/>
					<path class="st0" d="M343.8986,73.8564c1.8015-0.0661,3.4141,0.7039,4.6124,2.4005c0.6173,0.874,1.597,1.5619,1.9844,2.5091
						c0.4051,0.9906,0.5416,2.2319,0.3671,3.2931c-0.5942,3.6124-4.6105,6.2211-8.2983,5.5504
						c-4.2348-0.7701-6.7946-4.1352-6.1502-8.0839c0.0179-0.1098,0.0122-0.2251,0.0417-0.3311
						C337.1432,76.7213,341.0192,73.8477,343.8986,73.8564z"/>
					<path class="st0" d="M353.6254,78.0761c-1.8771-0.2625-3.1085-1.2799-4.1165-2.6935c-2.916-4.0891-8.841-4.125-11.8564-0.0926
						c-1.4386,1.9239-1.9226,2.3198-3.352,2.7421c-0.5795-3.0855,3.3235-7.1043,7.6499-7.8771
						C347.2219,69.2134,352.7637,72.9157,353.6254,78.0761z"/>
					<path d="M298.2008,15.6234c0.3689,0.3343,0.7042,0.6186,1.0156,0.9271c0.2047,0.2028,0.375,0.4402,0.6061,0.7164
						c-0.2736,0.2911-0.5168,0.5499-0.8564,0.9112c-0.6157-0.5199-1.1915-1.0061-1.9012-1.6053
						C297.4468,16.2536,297.7765,15.978,298.2008,15.6234z"/>
					<path d="M305.3915,50.5653c-0.2359,0.1643-0.4916,0.3224-0.724,0.5094c-0.2866,0.2307-0.5536,0.4855-0.9231,0.8132
						c-0.3325-0.3047-0.645-0.5911-0.9553-0.8754C304.1763,49.2487,304.8466,49.1288,305.3915,50.5653z"/>
					<path d="M313.2299,45.5727c-0.9014,0.6582-1.6239,1.5698-2.1277,1.4617c-0.7158-0.1535-1.2708-1.057-1.8945-1.6401
						c0.6018-0.5488,1.2212-1.5502,1.8008-1.5277C311.6793,43.8926,312.315,44.8196,313.2299,45.5727z"/>
					<path d="M327.0904,42.6938c0.5285,0.5078,0.9767,0.9384,1.4158,1.3603c-0.8306,1.1707-0.8306,1.1707-2.3648-0.4572
						C326.4536,43.2998,326.7666,43.0019,327.0904,42.6938z"/>
					<path d="M343.0428,57.4022c0.4383,0.5903,1.2314,1.2008,1.2549,1.8397c0.0179,0.484-0.9117,1.3597-1.4812,1.4139
						c-0.6405,0.0609-1.3501-0.6048-2.2607-1.0732C341.4714,58.7799,342.1541,58.1813,343.0428,57.4022z"/>
					<path d="M302.7787,22.9034c0.204-0.1389,0.3165-0.2449,0.45-0.3012c0.5097-0.2148,1.0262-0.4135,1.7907-0.718
						c-0.3368,0.7889-0.5945,1.3925-0.9158,2.1451C303.6161,23.615,303.2124,23.272,302.7787,22.9034z"/>
					<path d="M332.0851,47.2738c0.6391,0.7278,1.6114,1.5072,1.49,1.7587c-0.3524,0.7302-1.0623,1.4507-1.8034,1.7486
						c-0.2874,0.1155-1.5713-1.1215-1.4706-1.3804C330.5937,48.6486,331.3573,48.0796,332.0851,47.2738z"/>
					<path d="M338.4986,53.1263c-0.4343,0.878-0.721,1.4578-1.0542,2.1314c-0.3973-0.3593-0.7159-0.6473-1.1841-1.0706
						C336.9867,53.8428,337.5866,53.5585,338.4986,53.1263z"/>
					<path d="M325.7358,103.2593c-0.0002,0.9652,0.045,1.9328-0.0117,2.8944c-0.0687,1.165-0.9154,1.2467-1.8437,1.2563
						c-0.9364,0.0098-1.6931-0.2293-1.7236-1.2776c-0.0582-2.0021-0.0616-4.0085,0.0025-6.0102
						c0.0335-1.0466,0.8136-1.2774,1.7383-1.2689c0.9334,0.0085,1.7685,0.1321,1.8273,1.2881
						C325.7775,101.1781,325.7359,102.2197,325.7358,103.2593z"/>
					<path d="M333.4151,99.0643c0.2699-0.0873,0.3371-0.125,0.4062-0.1291c2.3937-0.1418,3.5444,1.5541,2.4797,3.7611
						c-0.5013,1.039-1.57,0.562-2.3987,0.571c-0.1588,0.0017-0.4439-0.6399-0.4648-0.9968
						C333.3751,101.2071,333.4151,100.1377,333.4151,99.0643z"/>
				</g>
			</g>
			<path d="M332.521,220.5h-26.4688c-0.7421,0-1.3493-0.6072-1.3493-1.3493v-16.4688c0-0.7421,0.6072-1.3493,1.3493-1.3493h26.4688
				c0.7421,0,1.3493,0.6072,1.3493,1.3493v16.4688C333.8702,219.8928,333.2631,220.5,332.521,220.5z"/>
			<rect x="315.4163" y="121.5019" width="7.7405" height="79.8307"/>
		</g>
	</g>
	<g id="Post">
		<path d="M337.614,178.5153h-10.3677c-2.7429,0-4.987-2.2442-4.987-4.987v-20.0414c0-2.7429,2.2442-4.987,4.987-4.987h10.3677
			c2.7429,0,4.987,2.2442,4.987,4.987v20.0414C342.601,176.2711,340.3568,178.5153,337.614,178.5153z"/>
	</g>
	<g id="Light_copy">
		<path class="st1" d="M289.9161,76.1666c0,0-4.8465,3.4958-0.598,8.843c4.0594,5.1091,9.5513,2.3441,10.8161,1.1894
			c1.2648-1.1547,4.7101-3.4329,1.8109-8.1618s-5.4299-4.415-6.2677-4.4379C294.9748,73.5802,293.4564,72.907,289.9161,76.1666z"/>
	</g>
	<g id="Light" class="st2">
		<path class="st3" d="M338.243,76.5181c0,0-4.8056,2.8661-0.5859,8.2361c4.2197,5.37,9.4667,2.6331,10.7315,1.4783
			c1.2648-1.1547,4.7101-3.4329,1.8109-8.1618c-2.8991-4.7289-5.4332-4.5163-6.2677-4.4379S341.0824,73.7778,338.243,76.5181z"/>
	</g>
</g>
<g id="No_Lights_Crossing_copy">
	<g id="Layer_1_copy_5">
		<g>
			<g>
				<g>
					<path class="st0" d="M103.7818,121.4249c-40.2606,0-80.5212,0-120.7818,0c0-40.2606,0-80.5212,0-120.7818
						c40.2606,0,80.5212,0,120.7818,0C103.7818,40.9038,103.7818,81.1644,103.7818,121.4249z M74.9035,58.3807
						c-7.5789-7.0921-15.0872-14.1182-22.6536-21.1986c7.5877-6.7541,15.0921-13.434,22.657-20.1677
						c-2.7382-2.6449-5.3542-5.1719-8.03-7.7566c-7.4771,6.6494-15.1062,13.434-22.8034,20.2792
						C36.4578,22.4166,28.888,15.3392,21.2856,8.2313c-2.6676,2.5781-5.3083,5.1302-8.0278,7.7585
						c7.5017,7.0183,14.9301,13.968,22.4416,20.9954c-7.8511,6.9876-15.6683,13.9449-23.558,20.9668
						c2.7235,2.6132,5.3657,5.1485,8.0589,7.7327c7.7839-6.9218,15.7111-13.971,23.674-21.052
						c7.6968,7.1957,15.3206,14.3232,23.0079,21.51C69.5725,63.5393,72.2062,60.9908,74.9035,58.3807z M43.2499,114.4998
						c5.6924,0,11.3849-0.0145,17.0773,0.0054c3.4733,0.0121,6.3478-2.8411,6.2262-6.1782
						c-0.1313-3.6041-0.1604-7.2229,0.0093-10.8239c0.1513-3.2094-2.3191-6.3713-6.2666-6.3913
						c-11.3474-0.0577-22.6953-0.0482-34.0428-0.0044c-3.7352,0.0144-6.2823,2.6715-6.2964,6.3708
						c-0.0136,3.5717-0.0167,7.1435,0.001,10.7151c0.0183,3.7051,2.6324,6.3019,6.3263,6.3052
						C31.9394,114.5036,37.5947,114.4999,43.2499,114.4998z M32.6516,73.5288c1.0224,3.7364,1.1632,7.2799-0.1916,10.9594
						c2.2079,0,4.2317,0,6.2703,0c0.0428,0.6259,0.0752,1.0983,0.1103,1.6122c3.3322,0,6.6177,0,9.9282,0
						c0.0507-0.5682,0.0948-1.0638,0.1476-1.6552c2.0508,0,4.0079,0,6.1418,0c-1.3327-3.6555-1.1783-7.2214-0.1616-10.9422
						c-2.1054,0-4.0519,0-6.0221,0c-0.0355-0.7563-0.0642-1.369-0.0934-1.9916c-3.3846,0-6.64,0-9.9343,0
						c-0.0422,0.6787-0.0804,1.2934-0.1255,2.0173C36.7371,73.5288,34.8168,73.5288,32.6516,73.5288z M32.1835,79.0513
						c-0.0411-0.6663-0.0262-1.3423-0.1386-1.9963c-0.1183-0.6883-0.3097-1.3736-0.5526-2.0293
						c-2.0917-5.6448-7.7538-8.7747-14.1588-7.8467c-7.2567,1.0514-12.0298,8.5879-9.7315,15.4058
						c1.6802,4.9841,6.7638,8.7445,13.1939,8.2985C27.0031,90.4527,32.0832,85.2625,32.1835,79.0513z M68.2923,90.9383
						c0.6134-0.079,1.6187-0.141,2.5945-0.3447c7.5491-1.5762,11.7037-9.6244,8.5459-16.5159
						c-2.377-5.1874-8.6317-8.1421-14.3561-6.7816c-5.6018,1.3314-9.6095,5.9169-9.7362,11.1403
						C55.1717,85.3907,60.7198,90.9092,68.2923,90.9383z M47.3339,69.5035c0.0776-0.2338,0.1412-0.3362,0.1414-0.4386
						c0.0086-5.948,0.0147-11.896,0.0055-17.8439c-0.0004-0.2358-0.0823-0.5507-0.245-0.6943
						c-1.1315-0.9991-2.2945-1.9627-3.4908-2.9745c-1.265,1.0573-2.4938,2.0159-3.6297,3.0744
						c-0.3496,0.3258-0.6227,0.9219-0.6286,1.398c-0.0426,3.4564-0.0085,6.9138,0.0028,10.3709
						c0.0066,2.0073-0.0154,4.0156,0.0523,6.0209c0.0125,0.3687,0.3837,1.0328,0.6057,1.0398
						C42.5505,69.5319,44.9569,69.5035,47.3339,69.5035z M43.7798,26.9808c0.5524-0.4721,0.9692-0.9101,1.4611-1.2342
						c1.7894-1.1792,2.6949-2.7228,2.2625-4.9279c-0.1762-0.8987,0.0075-1.9445-0.3887-2.7073
						c-0.7894-1.5199-2.4109-1.3982-3.8497-1.3704c-1.2992,0.025-2.9164,0.0512-3.3008,1.4997
						c-0.4147,1.5629-0.2305,3.2868-0.2782,4.9413c-0.004,0.1378,0.2008,0.2994,0.3349,0.4207
						C41.258,24.721,42.5008,25.833,43.7798,26.9808z M47.4284,121.0436c0-1.8604,0-3.4762,0-5.106c-2.6292,0-5.1936,0-7.7425,0
						c0,1.743,0,3.395,0,5.106C42.3058,121.0436,44.8404,121.0436,47.4284,121.0436z M47.4264,87.4896c-2.6288,0-5.1904,0-7.7361,0
						c0,0.8635,0,1.6196,0,2.3839c2.6287,0,5.1672,0,7.7361,0C47.4264,89.046,47.4264,88.2877,47.4264,87.4896z"/>
					<path d="M74.9035,58.3807c-2.6973,2.6101-5.3309,5.1586-8.0214,7.762c-7.6873-7.1869-15.3111-14.3143-23.0079-21.51
						c-7.9629,7.081-15.8901,14.1302-23.674,21.052c-2.6933-2.5842-5.3354-5.1195-8.0589-7.7327
						c7.8897-7.0219,15.7069-13.9793,23.558-20.9668c-7.5115-7.0274-14.9399-13.9771-22.4416-20.9954
						c2.7196-2.6283,5.3602-5.1804,8.0278-7.7585c7.6024,7.1079,15.1723,14.1854,22.7879,21.3056
						c7.6973-6.8452,15.3263-13.6297,22.8034-20.2792c2.6758,2.5847,5.2918,5.1117,8.03,7.7566
						c-7.5649,6.7337-15.0693,13.4136-22.657,20.1677C59.8162,44.2625,67.3246,51.2886,74.9035,58.3807z M60.02,24.8534
						c-1.4966-0.5005-2.6759-0.9176-3.8719-1.2796c-0.3194-0.0967-0.8002-0.1692-1.0173-0.0039
						c-0.8143,0.62-1.5502,1.3429-2.3969,2.1002c1.4291,1.3546,2.771,2.6264,4.15,3.9335c0.4268-0.3748,0.9183-0.8065,1.5508-1.362
						c-0.9655-0.9906-1.8411-1.889-2.7158-2.7865c1.13,0.3942,2.2719,0.8165,3.4317,1.1818
						c0.3212,0.1012,0.8115,0.1821,1.0253,0.0161c0.8357-0.6486,1.5918-1.3998,2.339-2.0779
						c-1.4005-1.3974-2.7042-2.6982-4.0445-4.0356c-0.4646,0.4283-0.9421,0.8684-1.5248,1.4055
						C57.958,22.9028,58.8686,23.7642,60.02,24.8534z M20.3642,17.163c1.7635,1.2941,1.8128,1.4558,0.8052,2.6931
						c0.5058,0.4557,1.0139,0.9136,1.716,1.5462c0.4194-0.7894,0.7628-1.4359,1.1583-2.1802
						c0.7658,0.1835,1.5029-0.2862,1.9384-1.1426c0.4747-0.9335-0.13-1.6403-0.7459-2.2452
						c-1.0798-1.0605-2.2038-2.076-3.3652-3.1626c-1.2959,1.4088-2.5646,2.788-3.87,4.2071c0.3208,0.2927,0.824,0.752,1.3462,1.2285
						C19.7226,17.7587,20.0185,17.484,20.3642,17.163z M66.1148,18.5991c0.1219,0.0623,0.2437,0.1246,0.3656,0.1869
						c-0.181,0.3575-0.2786,0.8177-0.5626,1.0485c-0.4261,0.3461-1.1982,0.8733-1.4431,0.7193
						c-0.6771-0.426-1.4406-1.0996-1.6034-1.8059c-0.0895-0.3886,0.9079-1.1157,1.5142-1.5531
						c0.6632-0.4784,1.4404-0.7988,2.2385-1.2258c-0.8955-0.9655-1.6562-0.9278-2.4124-0.4186
						c-0.5818,0.3917-1.1302,0.8394-1.6604,1.3002c-2.4196,2.1029-2.4022,3.126,0.0446,5.2117
						c0.6696,0.5708,1.4729,0.7551,2.1455,0.2601c1.2107-0.8911,2.3453-1.899,3.4287-2.9443
						c0.5355-0.5167,0.4708-1.2258-0.0166-1.8218c-0.3452-0.4221-0.7204-0.8196-1.1575-1.3133
						c-0.9194,0.8242-1.7666,1.5836-2.6679,2.3916c0.2629,0.2906,0.4957,0.5479,0.7301,0.8069
						C65.4825,19.1032,65.7986,18.8512,66.1148,18.5991z M24.4167,50.8123c1.4622,1.3994,2.7928,2.6729,4.1448,3.9668
						c0.1686-0.1371,0.4199-0.3579,0.6886-0.5552c0.2665-0.1957,0.5505-0.3675,0.8475-0.5634
						c-0.4706-0.5264-0.7573-0.847-1.0374-1.1604c1.4841-1.6427,1.4841-1.6427,2.7929-0.6268
						c0.477-0.43,0.9642-0.8692,1.6707-1.5061c-0.8247-0.4535-1.4986-0.8241-2.2663-1.2463
						c0.0858-0.7766-0.191-1.3346-1.0369-1.8385c-0.7731-0.4604-1.4526-0.1849-2.0456,0.3031
						C26.9201,48.6183,25.7059,49.7003,24.4167,50.8123z M34.8999,48.7327c0.7762-0.546,1.8116-1.1228,2.6614-1.9021
						c2.1255-1.9491,2.0913-2.7213,0.014-4.6891c-0.9228-0.8741-1.7545-1.0411-2.8088-0.3349
						c-0.8871,0.5942-1.6952,1.3269-2.4577,2.0799c-0.6416,0.6336-1.2607,1.4447-0.6654,2.366
						C32.3385,47.3281,33.1333,48.39,34.8999,48.7327z M49.5658,31.2292c-0.9741-1.0427-1.7609-1.0321-2.4846-0.4691
						c-0.906,0.7049-1.7726,1.4727-2.5793,2.2892c-0.6363,0.6441-0.8072,1.3939-0.091,2.1709
						c0.698,0.7572,1.4464,0.8606,2.2692,0.2719c0.6943-0.4968,1.3451-1.0547,2.0432-1.5457
						c0.1652-0.1162,0.4425-0.073,0.6683-0.1031c-0.0183,0.26,0.0644,0.6178-0.0744,0.7614
						c-0.3817,0.3946-0.8842,1.0145-1.2888,0.9788c-1.0794-0.0953-1.3778,0.7422-2.0269,1.1971
						c0.935,0.811,1.4666,0.9839,2.2198,0.4064c1.0538-0.8079,2.0341-1.7285,2.9524-2.6902
						c0.563-0.5897,0.5916-1.3202-0.0205-2.0015c-0.651-0.7245-1.3757-0.8628-2.1745-0.3265
						c-0.6769,0.4544-1.2915,1.0015-1.969,1.4549c-0.2655,0.1777-0.6271,0.2116-0.945,0.311c-0.071-0.1355-0.142-0.271-0.213-0.4065
						c0.5192-0.4313,0.9996-0.9255,1.5681-1.2771C48.0445,31.8645,48.7504,31.6092,49.5658,31.2292z M43.3971,36.6904
						c-0.9157-0.9706-1.7117-1.0213-2.4277-0.4741C40,36.957,39.0875,37.7877,38.2385,38.6649
						c-0.577,0.5962-0.6034,1.3405-0.0117,2.0121c0.5882,0.6676,1.2981,0.8673,2.0847,0.4091
						c0.5101-0.2971,0.9489-0.7143,1.4465-1.036c0.4457-0.2881,0.9249-0.526,1.4023-0.7594
						c0.0295-0.0145,0.2654,0.2836,0.2496,0.3018c-0.404,0.4681-0.8241,0.9227-1.2545,1.3671
						c-0.0694,0.0716-0.2029,0.0781-0.3027,0.1237c-0.6866,0.3142-1.3721,0.6308-2.1577,0.9926
						c0.8196,0.9827,1.6276,1.1283,2.3522,0.5809c1.0587-0.7998,2.0448-1.7137,2.9657-2.6714
						c0.6001-0.6241,0.6387-1.357-0.0626-2.0668c-0.6928-0.7013-1.3775-0.8132-2.1725-0.2468
						c-0.5143,0.3664-0.9994,0.7787-1.5365,1.1068c-0.3983,0.2434-0.8591,0.3845-1.2921,0.5712
						c0.2802-0.4513,0.544-0.9142,0.8503-1.3469c0.0955-0.1349,0.3018-0.1974,0.4649-0.2776
						C41.93,37.3982,42.5984,37.0772,43.3971,36.6904z M52.6377,45.9702c0.8865,0.2713,1.5252-0.4689,1.9821-1.2815
						c0.4672-0.831-0.1277-1.4892-0.6988-2.0447c-0.9532-0.9273-1.9352-1.8249-3.0382-2.8601
						c-1.3112,1.4481-2.5675,2.8357-3.8443,4.2458c0.3194,0.2937,0.7521,0.6916,1.1827,1.0875
						c0.4343-0.3364,0.8053-0.6237,1.1638-0.9013c1.4866,1.2751,1.4866,1.2751,0.5611,2.5174
						c0.4334,0.4114,0.8746,0.8303,1.5004,1.4243C51.8803,47.361,52.2338,46.7117,52.6377,45.9702z M62.7771,58.7738
						c0.6517,0.6127,1.379,1.293,2.1026,1.9772c2.1581,2.0406,2.891,2.024,4.9364-0.1164c0.0766-0.0802,0.1554-0.1586,0.2278-0.2425
						c0.6771-0.7843,0.7316-1.6422,0.0758-2.4141c-1.0234-1.2046-2.1323-2.3367-3.2757-3.5762
						C65.3484,56.0096,64.0926,57.3596,62.7771,58.7738z M29.0678,27.2262c0.5035-1.2099,0.9469-2.269,1.3853-3.3303
						c1.0202-2.4695,1.0228-2.4742-1.0478-4.1671c-0.1729-0.1413-0.4858-0.2953-0.6529-0.2316
						c-1.8409,0.7024-3.6657,1.4468-5.7763,2.2927c0.8669,0.5604,1.4855,1.29,2.1207,1.3046
						c1.4741,0.0339,2.7809,1.3077,2.3922,2.7148C27.9682,26.2393,28.4607,26.6813,29.0678,27.2262z M59.8332,49.3083
						c-0.0398-0.3084-0.0123-0.5198-0.0951-0.6706c-0.8098-1.4753-1.9238-2.6738-3.5382-3.2156
						c-1.3295-0.4461-1.9601,0.759-2.7834,1.4521c-0.1131,0.0952-0.213,0.2069-0.3133,0.3163
						c-0.6428,0.7008-0.7289,1.5281-0.1693,2.2342c0.6607,0.8335,1.4467,1.5876,2.2685,2.2669
						c0.6444,0.5327,1.4966,0.8521,2.2665,0.2993C58.4731,51.2701,59.5563,50.5589,59.8332,49.3083z M25.4372,54.4391
						c-0.4594,0.615-1.0658,1.1169-1.2355,1.738c-0.1825,0.6684-0.9048,1.9481-1.4263,1.701
						c-0.712-0.3374-1.388-0.9854-1.756-1.6733c-0.1128-0.2109,0.8935-1.4668,1.2878-1.4192
						c1.2055,0.1453,1.5133-0.7951,2.2135-1.2704c-0.9695-1.0208-1.4952-1.1259-2.5279-0.4368
						c-0.5514,0.3679-1.0622,0.8076-1.548,1.2612c-2.1771,2.0324-2.1439,2.9902,0.1384,4.9135
						c0.0566,0.0477,0.1181,0.0896,0.176,0.1359c0.678,0.5434,1.4816,0.6962,2.1634,0.2047
						c1.0714-0.7724,2.1193-1.6183,3.0116-2.5858C26.7004,56.1771,26.5125,55.4492,25.4372,54.4391z M56.9436,53.2783
						c0.7742,0.5292,0.9326,1.5358,2.2256,1.1804c0.4543-0.1249,1.2673,1.0554,1.9165,1.6397
						c-0.706,1.2434,0.5937,1.3852,1.0946,2.1565c0.8896-1.9154,1.7109-3.6836,2.5481-5.4862
						c-0.5942-0.5643-1.1375-1.1227-1.7319-1.62c-0.1905-0.1594-0.5731-0.2913-0.7714-0.2076
						C60.5017,51.6685,58.8002,52.4479,56.9436,53.2783z M36.2594,26.3169c-1.3403,1.3987-2.6148,2.7286-3.9483,4.1203
						c1.2737,1.18,2.5686,2.3797,3.9369,3.6474c0.3713-0.3437,0.6589-0.6099,1.0152-0.9398
						c-0.8875-0.8252-1.6445-1.5291-2.6394-2.4542c1.087-0.9696,2.1542-1.9216,3.2656-2.913
						C37.3284,27.2749,36.8625,26.8574,36.2594,26.3169z M49.7063,28.3619c1.3775,1.3547,2.7053,2.6606,4.0859,4.0185
						c0.4306-0.3971,0.9039-0.8337,1.4287-1.3177c-1.4411-1.3565-2.7819-2.6186-4.1561-3.9121
						C50.6775,27.496,50.1865,27.9337,49.7063,28.3619z M31.3061,29.3568c1.3117-1.3978,2.5671-2.7356,3.8891-4.1443
						c-0.3555-0.3341-0.8516-0.8004-1.4165-1.3314c-1.318,1.403-2.5748,2.7409-3.8846,4.1352
						C30.3152,28.4161,30.7877,28.8647,31.3061,29.3568z"/>
					<path d="M43.2499,114.4999c-5.6552,0-11.3105,0.0038-16.9657-0.0013c-3.6939-0.0033-6.308-2.6002-6.3263-6.3052
						c-0.0176-3.5716-0.0145-7.1435-0.001-10.7151c0.0141-3.6993,2.5611-6.3564,6.2964-6.3708
						c11.3475-0.0438,22.6954-0.0533,34.0428,0.0044c3.9475,0.0201,6.4179,3.1819,6.2666,6.3913
						c-0.1697,3.6009-0.1406,7.2197-0.0093,10.8239c0.1215,3.3371-2.753,6.1903-6.2262,6.1782
						C54.6348,114.4854,48.9423,114.4998,43.2499,114.4999z M43.3702,102.7147c0.0438,0.0022,0.0875,0.0044,0.1313,0.0065
						c0,1.2639-0.0631,2.5317,0.0133,3.791c0.1536,2.5319,1.4056,3.8511,3.8175,4.1472c3.1827,0.3907,5.2912-0.9173,5.489-3.7323
						c0.1973-2.8075,0.1415-5.6437,0.0149-8.4592c-0.087-1.9352-1.2481-3.3097-2.8184-3.5692
						c-1.008-0.1666-2.0659-0.1628-3.0888-0.0795c-1.8292,0.149-2.9423,1.2512-3.204,3.021
						C43.4875,99.4474,43.4795,101.0885,43.3702,102.7147z M32.8036,99.7162c-0.0976-0.9394-0.1164-1.8251-0.2952-2.6773
						c-0.2673-1.274-1.0131-2.1681-2.4035-2.2423c-1.0674-0.057-2.1505-0.0877-3.2094,0.028
						c-1.5424,0.1685-2.3611,0.8603-2.5255,2.3587c-0.1681,1.5327-0.1638,3.1088-0.0138,4.6443
						c0.1204,1.2326,0.899,2.0822,2.2537,2.2307c0.9203,0.1009,1.8416,0.2178,2.7493,0.3948
						c0.2722,0.0531,0.6309,0.2799,0.7268,0.5173c0.5255,1.3002-0.104,2.1151-1.4912,2.2111
						c-1.308,0.0905-1.8352-0.5271-1.8608-1.7132c-0.8976,0-1.7298,0-2.5512,0c-0.3673,3.8535,0.9221,5.2825,4.623,5.2097
						c0.3684-0.0072,0.7393-0.0595,1.1025-0.1262c2.0515-0.377,2.8912-1.2613,3.0589-3.3401
						c0.0774-0.9597,0.0689-1.934,0.0068-2.8956c-0.143-2.2147-0.826-2.9183-3.0362-3.2395c-0.5502-0.08-1.1024-0.1789-1.656-0.1962
						c-0.9897-0.0309-1.3687-0.5077-1.3383-1.4846c0.0297-0.9536,0.5664-1.1247,1.37-1.214c1.1875-0.132,1.7464,0.354,1.7482,1.5345
						C30.9673,99.7162,31.8051,99.7162,32.8036,99.7162z M57.6807,106.4939c1.0583,0,1.9081,0.0138,2.7572-0.003
						c1.6212-0.0321,2.6995-0.6984,2.8318-2.2545c0.1933-2.2732,0.1519-4.5826-0.0006-6.8624
						c-0.0794-1.1866-0.8553-2.3074-2.1349-2.4111c-2.0495-0.1661-4.1223-0.0445-6.1742-0.0445c0,5.2262,0,10.3769,0,15.5389
						c0.918,0,1.7599,0,2.7207,0C57.6807,109.1522,57.6807,107.8995,57.6807,106.4939z M36.8219,98.4701c0,4.1165,0,8.0417,0,11.999
						c0.9518,0,1.7964,0,2.7993,0c0-3.9968,0-7.9521,0-12.0377c0.9875,0,1.8218,0,2.6575,0c0-1.266,0-2.3959,0-3.537
						c-2.7419,0-5.4015,0-8.0962,0c0,1.1987,0,2.3312,0,3.5757C35.0407,98.4701,35.8402,98.4701,36.8219,98.4701z"/>
					<path d="M32.6516,73.5288c2.1651,0,4.0854,0,6.0697,0c0.045-0.7239,0.0833-1.3386,0.1255-2.0173c3.2942,0,6.5497,0,9.9343,0
						c0.0292,0.6226,0.0579,1.2353,0.0934,1.9916c1.9702,0,3.9166,0,6.0221,0c-1.0167,3.7208-1.171,7.2867,0.1616,10.9422
						c-2.1338,0-4.091,0-6.1418,0c-0.0527,0.5914-0.0969,1.087-0.1476,1.6552c-3.3106,0-6.596,0-9.9282,0
						c-0.0352-0.5139-0.0675-0.9863-0.1103-1.6122c-2.0386,0-4.0623,0-6.2703,0C33.8148,80.8087,33.674,77.2652,32.6516,73.5288z"/>
					<path d="M32.1835,79.0513c-0.1003,6.2112-5.1804,11.4014-11.3875,11.8319c-6.4301,0.446-11.5138-3.3144-13.1939-8.2985
						c-2.2984-6.8179,2.4748-14.3544,9.7315-15.4058c6.405-0.928,12.0671,2.2019,14.1588,7.8467
						c0.243,0.6557,0.4344,1.341,0.5526,2.0293C32.1573,77.7091,32.1424,78.385,32.1835,79.0513z M19.755,73.3981
						c-2.9286-0.0087-6.6228,2.7458-7.4233,5.357c-0.0431,0.1405-0.0635,0.2894-0.0821,0.4359
						c-0.474,3.7468,1.9586,7.1241,5.66,7.8605c3.9565,0.7871,7.7943-1.39,8.756-5.0323c0.3292-1.2468,0.5964-2.5698-0.2529-3.7386
						c-0.6078-0.8364-1.3892-1.5498-1.9697-2.4021C23.244,74.1177,21.6012,73.3392,19.755,73.3981z M29.4888,77.628
						c-1.118-4.7983-5.4664-8.5942-11.7687-7.7106c-4.2301,0.5931-8.0978,4.6033-7.5684,7.7057
						c1.472-0.3769,2.3817-1.4297,3.2286-2.5786c3.1839-4.3191,9.0262-4.31,12.1158,0.0254
						C26.4669,76.4319,27.7007,77.349,29.4888,77.628z"/>
					<path d="M68.2923,90.9383c-7.5725-0.0291-13.1206-5.5476-12.9519-12.5019c0.1267-5.2233,4.1343-9.8089,9.7362-11.1403
						c5.7243-1.3605,11.9791,1.5942,14.3561,6.7816c3.1578,6.8915-0.9968,14.9397-8.5459,16.5159
						C69.911,90.7973,68.9057,90.8593,68.2923,90.9383z M68.1682,73.398c-2.8795-0.0086-6.7555,2.865-7.4429,5.3383
						c-0.0295,0.106-0.0238,0.2213-0.0417,0.3311c-0.6443,3.9487,1.9155,7.3137,6.1502,8.0839
						c3.6877,0.6706,7.704-1.938,8.2983-5.5504c0.1746-1.0612,0.0381-2.3025-0.3671-3.2931
						c-0.3874-0.9472-1.3671-1.6351-1.9844-2.5091C71.5823,74.1019,69.9697,73.3319,68.1682,73.398z M77.8949,77.6178
						c-0.8616-5.1604-6.4035-8.8627-11.675-7.9211c-4.3264,0.7728-8.2294,4.7916-7.6499,7.8771
						c1.4294-0.4223,1.9134-0.8183,3.352-2.7421c3.0153-4.0324,8.9404-3.9965,11.8563,0.0926
						C74.7864,76.3379,76.0178,77.3553,77.8949,77.6178z"/>
					<path d="M47.3339,69.5035c-2.377,0-4.7834,0.0284-7.1865-0.0473c-0.222-0.007-0.5933-0.6711-0.6057-1.0398
						c-0.0677-2.0053-0.0457-4.0136-0.0523-6.0209c-0.0113-3.4571-0.0453-6.9145-0.0028-10.3709
						c0.0059-0.4761,0.279-1.0723,0.6286-1.398c1.1358-1.0585,2.3646-2.0171,3.6297-3.0744
						c1.1963,1.0117,2.3593,1.9753,3.4908,2.9745c0.1626,0.1436,0.2446,0.4585,0.245,0.6943
						c0.0093,5.948,0.0031,11.896-0.0055,17.8439C47.4751,69.1673,47.4115,69.2696,47.3339,69.5035z"/>
					<path d="M43.7798,26.9808c-1.2791-1.1479-2.5218-2.2598-3.7588-3.3782c-0.1342-0.1213-0.3389-0.2829-0.3349-0.4207
						c0.0476-1.6545-0.1366-3.3784,0.2782-4.9413c0.3844-1.4485,2.0016-1.4747,3.3008-1.4997
						c1.4388-0.0277,3.0603-0.1494,3.8497,1.3704c0.3962,0.7628,0.2125,1.8086,0.3887,2.7073
						c0.4324,2.2051-0.4731,3.7487-2.2625,4.9279C44.7491,26.0707,44.3322,26.5087,43.7798,26.9808z"/>
					<path d="M47.4284,121.0436c-2.588,0-5.1226,0-7.7425,0c0-1.7111,0-3.3631,0-5.106c2.5489,0,5.1133,0,7.7425,0
						C47.4284,117.5674,47.4284,119.1831,47.4284,121.0436z"/>
					<path d="M47.4264,87.4896c0,0.7981,0,1.5564,0,2.3839c-2.5689,0-5.1074,0-7.7361,0c0-0.7643,0-1.5204,0-2.3839
						C42.236,87.4896,44.7976,87.4896,47.4264,87.4896z"/>
					<path class="st0" d="M60.02,24.8534c-1.1514-1.0892-2.062-1.9506-3.0744-2.9083c0.5827-0.5371,1.0602-0.9773,1.5248-1.4055
						c1.3403,1.3374,2.644,2.6382,4.0445,4.0356c-0.7472,0.6781-1.5033,1.4294-2.339,2.0779
						c-0.2139,0.166-0.7041,0.085-1.0253-0.0161c-1.1598-0.3653-2.3017-0.7875-3.4317-1.1818
						c0.8747,0.8975,1.7503,1.7959,2.7158,2.7865c-0.6325,0.5555-1.124,0.9871-1.5508,1.362
						c-1.3791-1.3071-2.7209-2.579-4.15-3.9335c0.8467-0.7572,1.5826-1.4802,2.3969-2.1002
						c0.2172-0.1653,0.6979-0.0928,1.0173,0.0039C57.3441,23.9357,58.5234,24.3529,60.02,24.8534z"/>
					<path class="st0" d="M20.3642,17.163c-0.3457,0.321-0.6416,0.5957-1.017,0.9443c-0.5222-0.4765-1.0254-0.9357-1.3462-1.2285
						c1.3054-1.4191,2.5741-2.7983,3.87-4.2071c1.1614,1.0867,2.2854,2.1021,3.3652,3.1626
						c0.6159,0.6049,1.2206,1.3117,0.7459,2.2452c-0.4355,0.8564-1.1726,1.326-1.9384,1.1426
						c-0.3954,0.7443-0.7389,1.3908-1.1583,2.1802c-0.7021-0.6327-1.2103-1.0905-1.716-1.5462
						C22.177,18.6188,22.1277,18.4571,20.3642,17.163z M22.4704,15.165c-0.4243,0.3547-0.754,0.6303-1.1358,0.9494
						c0.7097,0.5992,1.2855,1.0854,1.9012,1.6053c0.3396-0.3613,0.5828-0.6201,0.8563-0.9112
						c-0.2311-0.2762-0.4014-0.5137-0.6061-0.7164C23.1746,15.7836,22.8393,15.4993,22.4704,15.165z"/>
					<path class="st0" d="M66.1148,18.5991c-0.3161,0.252-0.6323,0.504-1.0568,0.8425c-0.2344-0.259-0.4672-0.5164-0.7301-0.8069
						c0.9013-0.808,1.7485-1.5674,2.6679-2.3916c0.4372,0.4936,0.8124,0.8912,1.1575,1.3133
						c0.4874,0.596,0.5521,1.3051,0.0166,1.8218c-1.0833,1.0452-2.2179,2.0532-3.4287,2.9443
						c-0.6726,0.4951-1.4759,0.3107-2.1455-0.2601c-2.4468-2.0857-2.4642-3.1088-0.0446-5.2117
						c0.5302-0.4608,1.0786-0.9085,1.6604-1.3002c0.7561-0.5091,1.5169-0.5469,2.4124,0.4186
						c-0.7981,0.427-1.5753,0.7473-2.2385,1.2258c-0.6063,0.4374-1.6038,1.1644-1.5142,1.5531
						c0.1627,0.7063,0.9262,1.3799,1.6034,1.8059c0.2449,0.154,1.017-0.3732,1.4431-0.7193
						c0.284-0.2307,0.3816-0.6909,0.5626-1.0485C66.3585,18.7238,66.2366,18.6615,66.1148,18.5991z"/>
					<path class="st0" d="M24.4167,50.8123c1.2891-1.112,2.5034-2.194,3.7583-3.2268c0.593-0.488,1.2725-0.7635,2.0456-0.3031
						c0.8459,0.5038,1.1227,1.0619,1.0369,1.8385c0.7677,0.4222,1.4416,0.7928,2.2663,1.2463
						c-0.7065,0.6369-1.1937,1.0761-1.6707,1.5061c-1.3088-1.0159-1.3088-1.0159-2.7929,0.6268
						c0.2801,0.3133,0.5668,0.634,1.0374,1.1604c-0.297,0.1959-0.581,0.3678-0.8475,0.5634
						c-0.2687,0.1973-0.52,0.4181-0.6886,0.5552C27.2096,53.4852,25.8789,52.2117,24.4167,50.8123z M29.6611,50.107
						c-0.5449-1.4365-1.2152-1.3166-2.6024,0.4472c0.3103,0.2844,0.6228,0.5707,0.9553,0.8754
						c0.3694-0.3277,0.6365-0.5825,0.9231-0.8132C29.1694,50.4293,29.4252,50.2713,29.6611,50.107z"/>
					<path class="st0" d="M34.8999,48.7327c-1.7666-0.3428-2.5615-1.4046-3.2565-2.4801c-0.5954-0.9213,0.0238-1.7323,0.6654-2.366
						c0.7625-0.753,1.5707-1.4857,2.4577-2.0799c1.0543-0.7062,1.8861-0.5393,2.8088,0.3349c2.0773,1.9678,2.1115,2.74-0.014,4.6891
						C36.7115,47.6099,35.6761,48.1867,34.8999,48.7327z M37.4995,45.1143c-0.9149-0.7531-1.5507-1.68-2.2215-1.7061
						c-0.5796-0.0225-1.199,0.9789-1.8008,1.5277c0.6237,0.5831,1.1786,1.4866,1.8945,1.6401
						C35.8756,46.6841,36.5981,45.7725,37.4995,45.1143z"/>
					<path class="st0" d="M49.5658,31.2292c-0.8155,0.38-1.5214,0.6353-2.1461,1.0218c-0.5685,0.3517-1.0489,0.8458-1.5681,1.2771
						c0.071,0.1355,0.142,0.271,0.213,0.4065c0.3178-0.0994,0.6795-0.1334,0.945-0.311c0.6775-0.4534,1.2921-1.0005,1.969-1.4549
						c0.7988-0.5362,1.5235-0.398,2.1745,0.3265c0.6121,0.6813,0.5836,1.4118,0.0205,2.0015
						c-0.9182,0.9617-1.8986,1.8823-2.9524,2.6902c-0.7532,0.5775-1.2848,0.4046-2.2198-0.4064
						c0.6491-0.4549,0.9474-1.2924,2.0269-1.1971c0.4047,0.0357,0.9071-0.5842,1.2888-0.9788
						c0.1388-0.1435,0.0561-0.5013,0.0744-0.7614c-0.2257,0.0301-0.5031-0.0131-0.6683,0.1031
						c-0.6981,0.4911-1.3489,1.0489-2.0432,1.5457c-0.8228,0.5887-1.5712,0.4853-2.2692-0.2719
						c-0.7162-0.777-0.5453-1.5268,0.091-2.1709c0.8067-0.8166,1.6733-1.5843,2.5793-2.2892
						C47.8049,30.197,48.5918,30.1865,49.5658,31.2292z"/>
					<path class="st0" d="M43.3971,36.6904c-0.7987,0.3868-1.4671,0.7077-2.1326,1.0347c-0.1632,0.0802-0.3694,0.1426-0.4649,0.2776
						c-0.3064,0.4328-0.5701,0.8957-0.8503,1.3469c0.433-0.1867,0.8937-0.3278,1.2921-0.5712
						c0.537-0.3281,1.0222-0.7404,1.5365-1.1068c0.795-0.5664,1.4796-0.4545,2.1725,0.2468
						c0.7013,0.7099,0.6627,1.4428,0.0626,2.0668c-0.9209,0.9577-1.907,1.8716-2.9657,2.6714
						c-0.7246,0.5474-1.5326,0.4017-2.3522-0.5809c0.7857-0.3618,1.4712-0.6784,2.1577-0.9926
						c0.0997-0.0456,0.2333-0.0521,0.3027-0.1237c0.4304-0.4443,0.8506-0.899,1.2545-1.3671
						c0.0158-0.0183-0.2201-0.3163-0.2496-0.3018c-0.4774,0.2334-0.9566,0.4713-1.4023,0.7594
						c-0.4976,0.3218-0.9364,0.7389-1.4465,1.036c-0.7866,0.4582-1.4966,0.2585-2.0847-0.4091
						c-0.5916-0.6715-0.5652-1.4159,0.0117-2.0121c0.8489-0.8772,1.7615-1.7078,2.7309-2.4486
						C41.6854,35.6691,42.4814,35.7199,43.3971,36.6904z"/>
					<path class="st0" d="M52.6377,45.9702c-0.4038,0.7415-0.7574,1.3908-1.1912,2.1874c-0.6257-0.594-1.067-1.0129-1.5004-1.4243
						c0.9255-1.2424,0.9255-1.2424-0.5611-2.5174c-0.3585,0.2776-0.7295,0.5649-1.1638,0.9013
						c-0.4306-0.396-0.8634-0.7939-1.1827-1.0875c1.2768-1.4101,2.5331-2.7977,3.8443-4.2458
						c1.1031,1.0351,2.085,1.9328,3.0382,2.8601c0.5711,0.5555,1.166,1.2137,0.6988,2.0447
						C54.1629,45.5013,53.5241,46.2415,52.6377,45.9702z M51.36,42.2355c-0.3238,0.3081-0.6368,0.606-0.949,0.9031
						c1.5342,1.6278,1.5342,1.6278,2.3648,0.4572C52.3366,43.1738,51.8885,42.7432,51.36,42.2355z"/>
					<path class="st0" d="M62.7771,58.7738c1.3155-1.4142,2.5713-2.7642,4.0668-4.372c1.1434,1.2395,2.2523,2.3716,3.2757,3.5762
						c0.6558,0.7719,0.6013,1.6298-0.0758,2.4141c-0.0724,0.0839-0.1512,0.1623-0.2278,0.2425
						c-2.0454,2.1404-2.7783,2.157-4.9364,0.1164C64.1561,60.0668,63.4288,59.3865,62.7771,58.7738z M67.3123,56.9439
						c-0.8887,0.7791-1.5714,1.3776-2.487,2.1803c0.9105,0.4684,1.6201,1.1341,2.2606,1.0732
						c0.5695-0.0542,1.4991-0.9298,1.4813-1.4139C68.5437,58.1447,67.7506,57.5342,67.3123,56.9439z"/>
					<path class="st0" d="M29.0678,27.2262c-0.6071-0.5449-1.0996-0.9869-1.5787-1.417c0.3886-1.4071-0.9181-2.6809-2.3922-2.7148
						c-0.6351-0.0146-1.2538-0.7442-2.1207-1.3046c2.1106-0.8458,3.9354-1.5902,5.7763-2.2927
						c0.167-0.0637,0.48,0.0903,0.6529,0.2316c2.0706,1.6929,2.068,1.6977,1.0478,4.1671
						C30.0147,24.9572,29.5713,26.0163,29.0678,27.2262z M27.0483,22.445c0.4337,0.3686,0.8374,0.7116,1.3249,1.126
						c0.3213-0.7526,0.579-1.3562,0.9158-2.1451c-0.7646,0.3045-1.281,0.5033-1.7907,0.718
						C27.3648,22.2001,27.2523,22.3061,27.0483,22.445z"/>
					<path class="st0" d="M59.8332,49.3083c-0.2769,1.2506-1.3602,1.9618-2.3642,2.6826c-0.7699,0.5527-1.6221,0.2333-2.2665-0.2993
						c-0.8219-0.6794-1.6079-1.4335-2.2685-2.2669c-0.5597-0.7061-0.4735-1.5334,0.1693-2.2342
						c0.1003-0.1093,0.2002-0.2211,0.3133-0.3163c0.8233-0.6931,1.4538-1.8982,2.7834-1.4521
						c1.6144,0.5417,2.7284,1.7403,3.5382,3.2156C59.8209,48.7885,59.7934,48.9999,59.8332,49.3083z M56.3547,46.8154
						c-0.7278,0.8058-1.4914,1.3748-1.784,2.127c-0.1007,0.2589,1.1832,1.4959,1.4706,1.3804
						c0.7411-0.2979,1.451-1.0184,1.8034-1.7486C57.966,48.3226,56.9937,47.5432,56.3547,46.8154z"/>
					<path class="st0" d="M25.4372,54.4391c1.0753,1.0101,1.2632,1.738,0.4969,2.5688c-0.8923,0.9675-1.9402,1.8133-3.0116,2.5858
						c-0.6818,0.4915-1.4854,0.3387-2.1634-0.2047c-0.0578-0.0464-0.1194-0.0882-0.176-0.1359
						c-2.2824-1.9234-2.3155-2.8811-0.1384-4.9135c0.4859-0.4536,0.9966-0.8932,1.548-1.2612
						c1.0327-0.6891,1.5584-0.584,2.5279,0.4368c-0.7002,0.4753-1.008,1.4158-2.2135,1.2704
						c-0.3944-0.0475-1.4006,1.2084-1.2878,1.4192c0.368,0.6879,1.044,1.3359,1.756,1.6733
						c0.5215,0.2471,1.2438-1.0326,1.4263-1.701C24.3714,55.5559,24.9778,55.0541,25.4372,54.4391z"/>
					<path class="st0" d="M56.9436,53.2783c1.8566-0.8304,3.5581-1.6098,5.2815-2.3373c0.1984-0.0837,0.5809,0.0482,0.7714,0.2076
						c0.5944,0.4973,1.1377,1.0558,1.7319,1.62c-0.8372,1.8026-1.6585,3.5709-2.5481,5.4862
						c-0.5009-0.7714-1.8006-0.9131-1.0946-2.1565c-0.6492-0.5843-1.4622-1.7646-1.9165-1.6397
						C57.8762,54.8141,57.7177,53.8075,56.9436,53.2783z M62.7682,52.668c-0.912,0.4322-1.5119,0.7165-2.2383,1.0608
						c0.4682,0.4234,0.7868,0.7114,1.1841,1.0706C62.0471,54.1258,62.3339,53.546,62.7682,52.668z"/>
					<path class="st0" d="M36.2594,26.3169c0.6032,0.5405,1.069,0.958,1.63,1.4607c-1.1114,0.9914-2.1786,1.9434-3.2656,2.913
						c0.9949,0.9251,1.7519,1.629,2.6394,2.4542c-0.3563,0.3298-0.6439,0.596-1.0152,0.9398
						c-1.3683-1.2677-2.6632-2.4674-3.9369-3.6474C33.6446,29.0456,34.9191,27.7156,36.2594,26.3169z"/>
					<path class="st0" d="M49.7063,28.3619c0.4802-0.4282,0.9711-0.8659,1.3585-1.2114c1.3743,1.2936,2.7151,2.5557,4.1561,3.9121
						c-0.5248,0.4841-0.9981,0.9206-1.4287,1.3177C52.4116,31.0225,51.0838,29.7166,49.7063,28.3619z"/>
					<path class="st0" d="M31.3061,29.3568c-0.5184-0.4921-0.9909-0.9407-1.4121-1.3405c1.3098-1.3943,2.5666-2.7321,3.8846-4.1352
						c0.5649,0.5309,1.0611,0.9973,1.4165,1.3314C33.8732,26.6212,32.6178,27.959,31.3061,29.3568z"/>
					<path class="st0" d="M43.3702,102.7147c0.1092-1.6262,0.1173-3.2673,0.3549-4.8745c0.2616-1.7698,1.3748-2.872,3.204-3.021
						c1.0229-0.0833,2.0808-0.0871,3.0888,0.0795c1.5703,0.2595,2.7314,1.634,2.8184,3.5692
						c0.1266,2.8155,0.1824,5.6517-0.0149,8.4592c-0.1978,2.8151-2.3063,4.123-5.489,3.7323
						c-2.412-0.2961-3.664-1.6153-3.8175-4.1472c-0.0764-1.2593-0.0133-2.5271-0.0133-3.791
						C43.4578,102.7191,43.414,102.7169,43.3702,102.7147z M50.0055,102.8008c0-1.0394,0.0416-2.081-0.0111-3.1177
						c-0.0588-1.156-0.8939-1.2795-1.8273-1.2881c-0.9247-0.0084-1.7047,0.2223-1.7383,1.269
						c-0.0642,2.0017-0.0608,4.0081-0.0025,6.0102c0.0305,1.0484,0.7872,1.2874,1.7236,1.2776
						c0.9283-0.0097,1.775-0.0914,1.8437-1.2563C50.0503,104.7338,50.0052,103.7661,50.0055,102.8008z"/>
					<path class="st0" d="M32.8036,99.7162c-0.9986,0-1.8364,0-2.7418,0c-0.0018-1.1805-0.5608-1.6665-1.7482-1.5345
						c-0.8036,0.0893-1.3403,0.2604-1.37,1.214c-0.0304,0.9769,0.3486,1.4537,1.3383,1.4846
						c0.5536,0.0173,1.1058,0.1162,1.656,0.1962c2.2102,0.3212,2.8932,1.0248,3.0362,3.2395
						c0.0621,0.9617,0.0706,1.936-0.0068,2.8956c-0.1677,2.0788-1.0073,2.9631-3.0589,3.3401
						c-0.3632,0.0668-0.7341,0.119-1.1025,0.1262c-3.7008,0.0728-4.9903-1.3561-4.623-5.2097c0.8213,0,1.6536,0,2.5512,0
						c0.0256,1.1861,0.5528,1.8036,1.8608,1.7132c1.3872-0.0959,2.0167-0.9109,1.4912-2.2111
						c-0.0959-0.2374-0.4546-0.4642-0.7268-0.5173c-0.9077-0.177-1.8289-0.2939-2.7493-0.3948
						c-1.3547-0.1485-2.1333-0.9981-2.2537-2.2307c-0.15-1.5355-0.1543-3.1116,0.0138-4.6443
						c0.1644-1.4984,0.9831-2.1902,2.5255-2.3587c1.0589-0.1157,2.142-0.085,3.2094-0.028
						c1.3904,0.0742,2.1362,0.9683,2.4035,2.2423C32.6872,97.8911,32.7061,98.7768,32.8036,99.7162z"/>
					<path class="st0" d="M57.6807,106.4939c0,1.4055,0,2.6582,0,3.9634c-0.9608,0-1.8027,0-2.7207,0c0-5.162,0-10.3127,0-15.5389
						c2.0519,0,4.1247-0.1216,6.1742,0.0445c1.2796,0.1037,2.0555,1.2245,2.1349,2.4111c0.1525,2.2798,0.1938,4.5892,0.0006,6.8624
						c-0.1323,1.5561-1.2106,2.2224-2.8318,2.2545C59.5887,106.5078,58.739,106.4939,57.6807,106.4939z M57.6847,98.606
						c0,1.0734-0.04,2.1428,0.0224,3.2061c0.021,0.3569,0.306,0.9985,0.4648,0.9968c0.8288-0.009,1.8975,0.468,2.3988-0.571
						c1.0647-2.207-0.0861-3.9028-2.4797-3.7611C58.0217,98.4809,57.9546,98.5186,57.6847,98.606z"/>
					<path class="st0" d="M36.8219,98.4701c-0.9818,0-1.7812,0-2.6395,0c0-1.2445,0-2.377,0-3.5757c2.6947,0,5.3543,0,8.0962,0
						c0,1.141,0,2.271,0,3.537c-0.8357,0-1.6701,0-2.6575,0c0,4.0857,0,8.0409,0,12.0377c-1.0029,0-1.8475,0-2.7993,0
						C36.8219,106.5118,36.8219,102.5866,36.8219,98.4701z"/>
					<path class="st0" d="M19.755,73.3981c1.8462-0.0589,3.489,0.7196,4.6881,2.4804c0.5804,0.8524,1.3619,1.5658,1.9697,2.4021
						c0.8493,1.1688,0.5821,2.4917,0.2529,3.7386c-0.9617,3.6423-4.7995,5.8194-8.756,5.0323
						c-3.7014-0.7364-6.134-4.1137-5.66-7.8605c0.0185-0.1465,0.039-0.2953,0.0821-0.4359
						C13.1322,76.1439,16.8264,73.3895,19.755,73.3981z"/>
					<path class="st0" d="M29.4888,77.628c-1.7881-0.279-3.0219-1.1961-3.9926-2.5582c-3.0897-4.3354-8.932-4.3445-12.1158-0.0254
						c-0.8469,1.1489-1.7566,2.2017-3.2286,2.5786c-0.5295-3.1024,3.3383-7.1126,7.5684-7.7057
						C24.0224,69.0338,28.3708,72.8297,29.4888,77.628z"/>
					<path class="st0" d="M68.1682,73.398c1.8015-0.0661,3.4141,0.7039,4.6124,2.4005c0.6173,0.874,1.597,1.5619,1.9844,2.5091
						c0.4051,0.9906,0.5416,2.2319,0.3671,3.2931c-0.5942,3.6124-4.6105,6.2211-8.2983,5.5504
						c-4.2348-0.7701-6.7946-4.1352-6.1502-8.0839c0.0179-0.1098,0.0122-0.2251,0.0417-0.3311
						C61.4127,76.263,65.2887,73.3894,68.1682,73.398z"/>
					<path class="st0" d="M77.8949,77.6178c-1.8771-0.2625-3.1085-1.2799-4.1165-2.6935c-2.916-4.0891-8.841-4.125-11.8563-0.0926
						c-1.4386,1.9239-1.9227,2.3198-3.352,2.7421c-0.5795-3.0855,3.3235-7.1043,7.6499-7.8771
						C71.4915,68.7551,77.0333,72.4573,77.8949,77.6178z"/>
					<path d="M22.4704,15.165c0.3689,0.3343,0.7042,0.6186,1.0156,0.9271c0.2047,0.2028,0.375,0.4402,0.6061,0.7164
						c-0.2736,0.2911-0.5168,0.5499-0.8563,0.9112c-0.6157-0.5199-1.1915-1.0061-1.9012-1.6053
						C21.7164,15.7953,22.0461,15.5197,22.4704,15.165z"/>
					<path d="M29.6611,50.107c-0.2359,0.1643-0.4916,0.3224-0.724,0.5094c-0.2865,0.2307-0.5536,0.4855-0.9231,0.8132
						c-0.3325-0.3047-0.645-0.5911-0.9553-0.8754C28.4458,48.7904,29.1162,48.6705,29.6611,50.107z"/>
					<path d="M37.4995,45.1143c-0.9014,0.6582-1.6239,1.5698-2.1278,1.4617c-0.7158-0.1535-1.2708-1.057-1.8945-1.6401
						c0.6018-0.5488,1.2212-1.5502,1.8008-1.5277C35.9488,43.4343,36.5846,44.3612,37.4995,45.1143z"/>
					<path d="M51.36,42.2355c0.5285,0.5078,0.9767,0.9384,1.4158,1.3603c-0.8306,1.1707-0.8306,1.1707-2.3648-0.4572
						C50.7231,42.8415,51.0362,42.5436,51.36,42.2355z"/>
					<path d="M67.3123,56.9439c0.4383,0.5903,1.2314,1.2008,1.2549,1.8397c0.0178,0.484-0.9117,1.3597-1.4813,1.4139
						c-0.6405,0.0609-1.3501-0.6048-2.2606-1.0732C65.7409,58.3215,66.4236,57.723,67.3123,56.9439z"/>
					<path d="M27.0483,22.445c0.204-0.1389,0.3165-0.2449,0.45-0.3012c0.5097-0.2148,1.0262-0.4135,1.7907-0.718
						c-0.3368,0.7889-0.5945,1.3925-0.9158,2.1451C27.8857,23.1567,27.482,22.8136,27.0483,22.445z"/>
					<path d="M56.3547,46.8154c0.6391,0.7278,1.6114,1.5072,1.49,1.7587c-0.3524,0.7302-1.0623,1.4507-1.8034,1.7486
						c-0.2873,0.1155-1.5713-1.1215-1.4706-1.3804C54.8633,48.1902,55.6269,47.6212,56.3547,46.8154z"/>
					<path d="M62.7682,52.668c-0.4343,0.878-0.721,1.4578-1.0542,2.1314c-0.3973-0.3593-0.7159-0.6473-1.1841-1.0706
						C61.2562,53.3845,61.8562,53.1002,62.7682,52.668z"/>
					<path d="M50.0053,102.801c-0.0002,0.9652,0.045,1.9328-0.0117,2.8944c-0.0687,1.165-0.9154,1.2466-1.8437,1.2563
						c-0.9364,0.0098-1.6932-0.2293-1.7236-1.2776c-0.0582-2.0021-0.0616-4.0085,0.0025-6.0102
						c0.0336-1.0466,0.8136-1.2774,1.7383-1.269c0.9334,0.0085,1.7685,0.1321,1.8273,1.2881
						C50.0471,100.7198,50.0055,101.7613,50.0053,102.801z"/>
					<path d="M57.6847,98.606c0.2699-0.0873,0.3371-0.125,0.4062-0.1291c2.3937-0.1418,3.5445,1.5541,2.4797,3.7611
						c-0.5012,1.039-1.57,0.562-2.3988,0.571c-0.1588,0.0017-0.4439-0.6399-0.4648-0.9968
						C57.6446,100.7487,57.6847,99.6794,57.6847,98.606z"/>
				</g>
			</g>
			<path d="M56.7905,220.0417H30.3217c-0.7421,0-1.3493-0.6072-1.3493-1.3493v-16.4689c0-0.7421,0.6072-1.3493,1.3493-1.3493
				h26.4688c0.7421,0,1.3493,0.6072,1.3493,1.3493v16.4689C58.1398,219.4345,57.5326,220.0417,56.7905,220.0417z"/>
			<rect x="39.6858" y="121.0436" width="7.7405" height="79.8307"/>
		</g>
		<path d="M35.9906,177.7871H25.6229c-2.7429,0-4.987-2.2442-4.987-4.987v-20.0414c0-2.7429,2.2442-4.987,4.987-4.987h10.3677
			c2.7429,0,4.987,2.2442,4.987,4.987v20.0414C40.9776,175.543,38.7335,177.7871,35.9906,177.7871z"/>
	</g>
	<g id="Post_copy_5">
	</g>
	<path class="st4" d="M14.0228,75.7113c0,0-4.8465,3.4958-0.598,8.843c4.0594,5.1091,9.5514,2.3441,10.8161,1.1894
		c1.2648-1.1547,4.7101-3.4329,1.811-8.1618s-5.4299-4.415-6.2677-4.4379C19.0815,73.1248,17.5631,72.4517,14.0228,75.7113z"/>
	<path class="st1" d="M62.3497,76.0627c0,0-4.8056,2.8661-0.5859,8.2361c4.2197,5.37,9.4667,2.6331,10.7315,1.4783
		c1.2648-1.1547,4.7101-3.4329,1.811-8.1618c-2.8992-4.7289-5.4332-4.5163-6.2677-4.4379
		C67.2042,73.2559,65.1891,73.3225,62.3497,76.0627z"/>
</g>
<g id="Gate_Right" class="st2">
	<g class="st5">
		<g>
			<g>
				<path d="M312.1974,170.8618c-1.2688-1.5201-3.2655-1.4579-4.4373,0.1382c0,0-10.1196,13.7851-10.8696,14.379h-21.4
					c-1.98,0-3.6,1.62-3.6,3.6v3.6125c0,1.98,1.6199,3.6179,3.5998,3.6398l20.7971,0.2297
					c1.9799,0.0219,4.5751-1.2537,5.7672-2.8346l11.6651-15.4698c1.1921-1.5809,1.1294-4.1181-0.1394-5.6381L312.1974,170.8618z"/>
			</g>
			<circle class="st6" cx="309.8709" cy="175.4719" r="3.3808"/>
		</g>
		<g>
			<rect x="39.6405" y="187.9899" width="236.8098" height="5.7604"/>
			<g>
				<polygon class="st0" points="94.628,188.5275 90.6549,193.1525 64.3711,193.1525 68.3442,188.5275 				"/>
				<polygon class="st0" points="147.1957,188.5275 143.2225,193.1525 116.9387,193.1525 120.9119,188.5275 				"/>
				<polygon class="st0" points="199.4577,188.5275 195.4845,193.1525 169.2007,193.1525 173.1739,188.5275 				"/>
				<polygon class="st0" points="251.7197,188.5877 247.7466,193.2127 221.4627,193.2127 225.4359,188.5877 				"/>
			</g>
		</g>
	</g>
</g>
<g id="Gate_Left" class="st2">
</g>
<g id="Right_Light_On" class="st2">
	<g id="Layer_1_copy" class="st5">
	</g>
	<g id="Post_copy" class="st5">
	</g>
</g>
<g id="Left_Light_On">
	<g id="Layer_1_copy_2" class="st2">
	</g>
	<g id="Post_copy_2">
	</g>
</g>
<g id="Right_Light_On_copy">
	<g id="Layer_1_copy_4">
	</g>
	<g id="Light_copy_3">
	</g>
	<g id="Post_copy_4">
	</g>
</g>
<g id="Left_Light_On_copy">
	<g id="Layer_1_copy_3">
	</g>
	<g id="Light_copy_2">
	</g>
	<g id="Post_copy_3">
	</g>
</g>
</svg>
