<?xml version="1.0" encoding="utf-8"?>
<!-- Generator: Adobe Illustrator 19.1.0, SVG Export Plug-In . SVG Version: 6.00 Build 0)  -->
<svg version="1.1" xmlns="http://www.w3.org/2000/svg" xmlns:xlink="http://www.w3.org/1999/xlink" x="0px" y="0px"
	 viewBox="0 0 360 360" style="enable-background:new 0 0 360 360;" xml:space="preserve">
<style type="text/css">
	.st0{fill:#FFFFFF;}
	.st1{display:none;}
	.st2{display:inline;}
	.st3{fill:#898989;}
	.st4{fill:#ED1F24;}
</style>
<g id="No_Lights_Crossing">
	<g id="Layer_1">
	</g>
	<g id="Post">
	</g>
</g>
<g id="No_Lights_Crossing_copy">
	<g id="Layer_1_copy_5">
	</g>
	<g id="Post_copy_5">
	</g>
</g>
<g id="Gate_Right" class="st1">
</g>
<g id="Gate_Left" class="st1">
</g>
<g id="Right_Light_On">
	<g id="Layer_1_copy">
		<g>
			<g>
				<g>
					<path class="st0" d="M359.1955,130.8378c-43.5369,0-87.0738,0-130.6107,0c0-43.5369,0-87.0738,0-130.6107
						c43.5369,0,87.0738,0,130.6107,0C359.1955,43.764,359.1955,87.3009,359.1955,130.8378z M327.9671,62.6632
						c-8.1956-7.6692-16.315-15.2671-24.4971-22.9237c8.2052-7.3037,16.3203-14.5272,24.5008-21.8089
						c-2.961-2.8602-5.7899-5.5928-8.6834-8.3879c-8.0856,7.1905-16.3354,14.5272-24.6591,21.9294
						c-8.2354-7.6997-16.4212-15.3531-24.6423-23.0394c-2.8847,2.7879-5.7403,5.5477-8.6811,8.3898
						c8.1122,7.5894,16.145,15.1046,24.2678,22.704c-8.4901,7.5562-16.9434,15.0797-25.4751,22.6731
						c2.9451,2.8259,5.8023,5.5675,8.7147,8.362c8.4173-7.4851,16.9897-15.108,25.6005-22.7652
						c8.3232,7.7813,16.5673,15.4887,24.8802,23.2605C322.2024,68.2415,325.0504,65.4856,327.9671,62.6632z M293.7377,123.3491
						c6.1557,0,12.3114-0.0156,18.467,0.0058c3.7559,0.0131,6.8643-3.0723,6.7329-6.6809
						c-0.142-3.8974-0.1735-7.8107,0.0101-11.7047c0.1636-3.4706-2.5078-6.8898-6.7766-6.9115
						c-12.2708-0.0624-24.5422-0.0522-36.8131-0.0048c-4.0392,0.0156-6.7935,2.8889-6.8087,6.8892
						c-0.0147,3.8623-0.018,7.7248,0.001,11.5871c0.0198,4.0066,2.8466,6.8147,6.8411,6.8183
						C281.5068,123.3532,287.6223,123.3492,293.7377,123.3491z M282.277,79.044c1.1056,4.0405,1.2578,7.8723-0.2072,11.8513
						c2.3876,0,4.576,0,6.7805,0c0.0463,0.6769,0.0813,1.1877,0.1193,1.7434c3.6034,0,7.1562,0,10.7361,0
						c0.0548-0.6144,0.1026-1.1503,0.1596-1.7899c2.2177,0,4.3341,0,6.6416,0c-1.4411-3.953-1.2742-7.8091-0.1748-11.8327
						c-2.2768,0-4.3816,0-6.5121,0c-0.0384-0.8178-0.0694-1.4804-0.101-2.1536c-3.66,0-7.1804,0-10.7427,0
						c-0.0456,0.734-0.087,1.3987-0.1357,2.1815C286.6949,79.044,284.6183,79.044,282.277,79.044z M281.7708,85.0159
						c-0.0444-0.7206-0.0283-1.4515-0.1498-2.1588c-0.1279-0.7443-0.3349-1.4854-0.5976-2.1945
						c-2.2619-6.1042-8.3848-9.4888-15.3109-8.4853c-7.8473,1.137-13.0088,9.2867-10.5234,16.6595
						c1.8169,5.3897,7.3143,9.4561,14.2676,8.9738C276.1687,97.3451,281.6623,91.7325,281.7708,85.0159z M320.818,97.8702
						c0.6633-0.0854,1.7505-0.1524,2.8056-0.3727c8.1635-1.7045,12.6561-10.4076,9.2413-17.8599
						c-2.5704-5.6096-9.3341-8.8046-15.5243-7.3335c-6.0577,1.4397-10.3914,6.3984-10.5285,12.0468
						C306.6297,91.8711,312.6293,97.8387,320.818,97.8702z M298.154,74.691c0.084-0.2529,0.1527-0.3635,0.1529-0.4743
						c0.0093-6.432,0.0159-12.864,0.0059-19.296c-0.0004-0.255-0.0891-0.5955-0.2649-0.7508
						c-1.2236-1.0804-2.4812-2.1224-3.7749-3.2165c-1.368,1.1433-2.6967,2.18-3.925,3.3246
						c-0.378,0.3523-0.6734,0.997-0.6797,1.5118c-0.0461,3.7377-0.0092,7.4764,0.003,11.2149
						c0.0071,2.1706-0.0167,4.3424,0.0565,6.5109c0.0135,0.3987,0.4149,1.1168,0.655,1.1244
						C292.9814,74.7218,295.5836,74.691,298.154,74.691z M294.3108,28.708c0.5973-0.5106,1.0481-0.9842,1.58-1.3347
						c1.935-1.2751,2.9142-2.9443,2.4466-5.3289c-0.1906-0.9718,0.0081-2.1028-0.4203-2.9276
						c-0.8536-1.6436-2.6071-1.512-4.163-1.482c-1.4049,0.0271-3.1537,0.0554-3.5694,1.6217
						c-0.4485,1.6901-0.2493,3.5542-0.3008,5.3434c-0.0043,0.149,0.2171,0.3237,0.3622,0.4549
						C291.5837,26.2643,292.9276,27.4667,294.3108,28.708z M298.2562,130.4254c0-2.0118,0-3.7591,0-5.5216
						c-2.8432,0-5.6163,0-8.3726,0c0,1.8848,0,3.6713,0,5.5216C292.7168,130.4254,295.4576,130.4254,298.2562,130.4254z
						 M298.254,94.1408c-2.8427,0-5.6128,0-8.3657,0c0,0.9338,0,1.7514,0,2.5779c2.8426,0,5.5877,0,8.3657,0
						C298.254,95.8239,298.254,95.0039,298.254,94.1408z"/>
					<path d="M327.9671,62.6632c-2.9168,2.8225-5.7648,5.5784-8.6741,8.3937c-8.3129-7.7717-16.5571-15.4792-24.8802-23.2605
						c-8.6109,7.6572-17.1832,15.2801-25.6005,22.7652c-2.9124-2.7945-5.7696-5.5361-8.7147-8.362
						c8.5318-7.5933,16.9851-15.1169,25.4751-22.6731c-8.1228-7.5993-16.1556-15.1146-24.2678-22.704
						c2.9409-2.8422,5.7964-5.6019,8.6811-8.3898c8.2211,7.6863,16.4069,15.3397,24.6423,23.0394
						c8.3236-7.4022,16.5735-14.7389,24.6591-21.9294c2.8936,2.795,5.7225,5.5277,8.6834,8.3879
						c-8.1805,7.2817-16.2955,14.5052-24.5008,21.8089C311.6522,47.3961,319.7715,54.9939,327.9671,62.6632z M311.8725,26.4074
						c-1.6184-0.5412-2.8936-0.9923-4.187-1.3837c-0.3454-0.1045-0.8653-0.183-1.1001-0.0042
						c-0.8806,0.6704-1.6763,1.4522-2.5919,2.2711c1.5454,1.4648,2.9965,2.8402,4.4878,4.2536
						c0.4615-0.4053,0.993-0.8721,1.677-1.4728c-1.044-1.0712-1.9909-2.0427-2.9368-3.0133c1.222,0.4263,2.4568,0.883,3.711,1.278
						c0.3473,0.1094,0.8775,0.1969,1.1088,0.0175c0.9037-0.7013,1.7213-1.5137,2.5293-2.247
						c-1.5144-1.5111-2.9242-2.9178-4.3736-4.364c-0.5024,0.4631-1.0188,0.9391-1.6489,1.5199
						C309.6427,24.2981,310.6274,25.2296,311.8725,26.4074z M268.9897,18.0912c1.907,1.3994,1.9603,1.5742,0.8708,2.9123
						c0.5469,0.4928,1.0964,0.9879,1.8557,1.672c0.4536-0.8537,0.825-1.5528,1.2525-2.3577
						c0.8282,0.1984,1.6253-0.3095,2.0962-1.2356c0.5133-1.0095-0.1406-1.7737-0.8066-2.4279
						c-1.1677-1.1468-2.3831-2.2449-3.6391-3.42c-1.4014,1.5234-2.7733,3.0149-4.1849,4.5494
						c0.3469,0.3166,0.8911,0.8132,1.4557,1.3285C268.2958,18.7355,268.6158,18.4384,268.9897,18.0912z M318.4632,19.6443
						c0.1318,0.0674,0.2636,0.1348,0.3954,0.2022c-0.1958,0.3866-0.3013,0.8843-0.6084,1.1338
						c-0.4608,0.3743-1.2957,0.9444-1.5605,0.7778c-0.7323-0.4606-1.5578-1.1891-1.7338-1.9529
						c-0.0968-0.4203,0.9818-1.2065,1.6375-1.6795c0.7171-0.5174,1.5576-0.8638,2.4207-1.3255
						c-0.9683-1.0441-1.791-1.0033-2.6087-0.4527c-0.6291,0.4236-1.2222,0.9077-1.7955,1.406
						c-2.6165,2.274-2.5977,3.3804,0.0482,5.6358c0.7241,0.6173,1.5927,0.8166,2.3201,0.2812
						c1.3093-0.9636,2.5362-2.0536,3.7077-3.1839c0.579-0.5587,0.5091-1.3255-0.018-1.97c-0.3733-0.4564-0.779-0.8863-1.2517-1.4201
						c-0.9943,0.8913-1.9104,1.7125-2.885,2.5862c0.2843,0.3142,0.536,0.5925,0.7895,0.8726
						C317.7795,20.1893,318.1214,19.9168,318.4632,19.6443z M273.3719,54.4789c1.5812,1.5133,3.0201,2.8904,4.4821,4.2896
						c0.1823-0.1482,0.4541-0.3871,0.7446-0.6004c0.2882-0.2116,0.5953-0.3975,0.9164-0.6093
						c-0.5089-0.5692-0.8189-0.916-1.1218-1.2548c1.6048-1.7764,1.6048-1.7764,3.0202-0.6778
						c0.5158-0.465,1.0427-0.94,1.8067-1.6287c-0.8919-0.4905-1.6205-0.8912-2.4508-1.3477
						c0.0928-0.8398-0.2065-1.4433-1.1212-1.9881c-0.836-0.4979-1.5708-0.2-2.212,0.3278
						C276.0791,52.1063,274.766,53.2764,273.3719,54.4789z M284.7082,52.2301c0.8393-0.5905,1.959-1.2142,2.8779-2.0569
						c2.2985-2.1078,2.2615-2.9428,0.0152-5.0707c-0.9979-0.9453-1.8973-1.1258-3.0374-0.3621
						c-0.9592,0.6426-1.8332,1.4349-2.6577,2.2492c-0.6938,0.6852-1.3633,1.5623-0.7195,2.5585
						C281.9383,50.7112,282.7978,51.8594,284.7082,52.2301z M300.5676,33.3021c-1.0533-1.1276-1.9042-1.1161-2.6868-0.5073
						c-0.9797,0.7623-1.9168,1.5925-2.7892,2.4755c-0.6881,0.6965-0.8729,1.5073-0.0984,2.3475
						c0.7548,0.8188,1.5641,0.9306,2.4539,0.294c0.7508-0.5372,1.4546-1.1405,2.2095-1.6715
						c0.1786-0.1257,0.4785-0.0789,0.7227-0.1115c-0.0198,0.2812,0.0696,0.6681-0.0805,0.8233
						c-0.4128,0.4267-0.9561,1.0971-1.3937,1.0584c-1.1673-0.103-1.4899,0.8027-2.1918,1.2945
						c1.011,0.877,1.5859,1.064,2.4004,0.4395c1.1396-0.8737,2.1996-1.8692,3.1926-2.9091
						c0.6088-0.6376,0.6397-1.4276-0.0222-2.1644c-0.7039-0.7835-1.4876-0.933-2.3514-0.3531
						c-0.732,0.4914-1.3966,1.083-2.1292,1.5733c-0.2871,0.1921-0.6782,0.2288-1.0219,0.3363
						c-0.0768-0.1465-0.1536-0.2931-0.2303-0.4396c0.5615-0.4664,1.0809-1.0008,1.6957-1.3811
						C298.9225,33.9891,299.6858,33.713,300.5676,33.3021z M293.8969,39.2078c-0.9902-1.0496-1.851-1.1044-2.6253-0.5127
						c-1.0482,0.801-2.0351,1.6992-2.9531,2.6478c-0.6239,0.6447-0.6525,1.4496-0.0127,2.1758
						c0.636,0.7219,1.4037,0.9378,2.2544,0.4424c0.5516-0.3213,1.0261-0.7724,1.5642-1.1203
						c0.4819-0.3116,1.0001-0.5688,1.5164-0.8213c0.032-0.0156,0.287,0.3066,0.2699,0.3264
						c-0.4369,0.5062-0.8912,0.9978-1.3566,1.4783c-0.075,0.0774-0.2194,0.0845-0.3273,0.1338
						c-0.7425,0.3398-1.4837,0.6821-2.3333,1.0734c0.8863,1.0626,1.76,1.2201,2.5436,0.6282
						c1.1448-0.8649,2.2112-1.8531,3.2071-2.8887c0.6489-0.6749,0.6906-1.4674-0.0677-2.235
						c-0.7492-0.7584-1.4896-0.8794-2.3493-0.2669c-0.5562,0.3962-1.0807,0.842-1.6615,1.1968
						c-0.4308,0.2632-0.929,0.4158-1.3972,0.6177c0.303-0.488,0.5882-0.9886,0.9195-1.4566
						c0.1033-0.1459,0.3263-0.2134,0.5028-0.3001C292.3103,39.9731,293.0331,39.626,293.8969,39.2078z M303.8894,49.2427
						c0.9586,0.2933,1.6494-0.5071,2.1434-1.3858c0.5052-0.8987-0.1381-1.6104-0.7557-2.2111
						c-1.0308-1.0027-2.0927-1.9735-3.2855-3.0928c-1.4179,1.5659-2.7765,3.0664-4.1571,4.5913
						c0.3454,0.3176,0.8133,0.7479,1.279,1.176c0.4697-0.3637,0.8709-0.6744,1.2585-0.9746
						c1.6076,1.3788,1.6076,1.3788,0.6068,2.7223c0.4686,0.4449,0.9458,0.8979,1.6225,1.5402
						C303.0704,50.7467,303.4527,50.0446,303.8894,49.2427z M314.854,63.0882c0.7048,0.6625,1.4912,1.3982,2.2737,2.138
						c2.3337,2.2066,3.1263,2.1887,5.3381-0.1259c0.0829-0.0867,0.1681-0.1715,0.2464-0.2622
						c0.7322-0.8481,0.7911-1.7759,0.0819-2.6106c-1.1067-1.3027-2.3058-2.5268-3.5423-3.8672
						C317.6345,60.099,316.2765,61.5589,314.854,63.0882z M278.4015,28.9734c0.5444-1.3083,1.024-2.4537,1.4981-3.6013
						c1.1033-2.6704,1.1061-2.6756-1.1331-4.5062c-0.187-0.1528-0.5254-0.3194-0.706-0.2505
						c-1.9907,0.7596-3.964,1.5646-6.2464,2.4792c0.9374,0.606,1.6064,1.395,2.2933,1.4108
						c1.5941,0.0367,3.0071,1.4141,2.5869,2.9357C277.2124,27.9061,277.745,28.3841,278.4015,28.9734z M311.6705,52.8524
						c-0.0431-0.3335-0.0133-0.5621-0.1028-0.7252c-0.8757-1.5954-2.0803-2.8914-3.8261-3.4773
						c-1.4377-0.4824-2.1196,0.8207-3.0099,1.5702c-0.1223,0.1029-0.2303,0.2238-0.3388,0.342
						c-0.6951,0.7579-0.7883,1.6525-0.183,2.416c0.7144,0.9013,1.5644,1.7167,2.4532,2.4514
						c0.6968,0.576,1.6184,0.9214,2.4509,0.3237C310.1997,54.9739,311.3711,54.2048,311.6705,52.8524z M274.4754,58.4008
						c-0.4968,0.665-1.1526,1.2077-1.336,1.8795c-0.1974,0.7228-0.9785,2.1066-1.5424,1.8394
						c-0.7699-0.3648-1.5009-1.0656-1.8989-1.8095c-0.122-0.228,0.9662-1.5861,1.3926-1.5347
						c1.3036,0.1572,1.6364-0.8598,2.3936-1.3738c-1.0484-1.1039-1.6169-1.2175-2.7336-0.4724
						c-0.5963,0.3979-1.1486,0.8733-1.674,1.3638c-2.3542,2.1978-2.3184,3.2335,0.1497,5.3134
						c0.0612,0.0516,0.1278,0.0969,0.1903,0.147c0.7332,0.5876,1.6022,0.7529,2.3394,0.2213
						c1.1585-0.8353,2.2917-1.75,3.2566-2.7962C275.8414,60.2802,275.6382,59.4931,274.4754,58.4008z M308.5457,57.1455
						c0.8372,0.5722,1.0085,1.6607,2.4067,1.2765c0.4913-0.135,1.3705,1.1413,2.0725,1.7731
						c-0.7634,1.3446,0.6421,1.4979,1.1837,2.332c0.962-2.0712,1.8501-3.9834,2.7555-5.9327
						c-0.6425-0.6102-1.23-1.2141-1.8729-1.7519c-0.206-0.1724-0.6197-0.3151-0.8342-0.2245
						C312.3934,55.4047,310.5534,56.2475,308.5457,57.1455z M286.1783,27.9901c-1.4494,1.5125-2.8275,2.9507-4.2696,4.4556
						c1.3773,1.276,2.7776,2.5734,4.2573,3.9442c0.4015-0.3717,0.7125-0.6596,1.0978-1.0162
						c-0.9597-0.8924-1.7784-1.6536-2.8542-2.654c1.1754-1.0485,2.3295-2.078,3.5313-3.15
						C287.3343,29.026,286.8305,28.5746,286.1783,27.9901z M300.7195,30.2015c1.4896,1.465,2.9254,2.8771,4.4185,4.3455
						c0.4656-0.4294,0.9774-0.9015,1.545-1.425c-1.5583-1.4668-3.0082-2.8316-4.4943-4.2305
						C301.7697,29.2651,301.2388,29.7385,300.7195,30.2015z M280.8219,31.2773c1.4185-1.5116,2.7761-2.9583,4.2056-4.4816
						c-0.3844-0.3613-0.921-0.8656-1.5318-1.4397c-1.4253,1.5172-2.7844,2.9639-4.2007,4.4717
						C279.7505,30.2601,280.2614,30.7452,280.8219,31.2773z"/>
					<path d="M293.7377,123.3491c-6.1154,0-12.2309,0.0041-18.3463-0.0014c-3.9945-0.0036-6.8213-2.8117-6.8411-6.8183
						c-0.019-3.8623-0.0157-7.7248-0.001-11.5871c0.0152-4.0003,2.7696-6.8736,6.8087-6.8892
						c12.2709-0.0474,24.5423-0.0576,36.8131,0.0048c4.2687,0.0217,6.9401,3.4409,6.7766,6.9115
						c-0.1836,3.894-0.152,7.8072-0.0101,11.7047c0.1314,3.6086-2.977,6.694-6.7329,6.6809
						C306.0491,123.3335,299.8934,123.3491,293.7377,123.3491z M293.8678,110.6049c0.0473,0.0024,0.0946,0.0047,0.142,0.0071
						c0,1.3668-0.0682,2.7378,0.0143,4.0995c0.1661,2.7379,1.52,4.1645,4.1282,4.4847c3.4417,0.4225,5.7218-0.9919,5.9357-4.036
						c0.2134-3.0359,0.153-6.103,0.0161-9.1476c-0.0941-2.0927-1.3496-3.5791-3.0477-3.8597
						c-1.0901-0.1801-2.234-0.176-3.3401-0.086c-1.978,0.1611-3.1818,1.353-3.4647,3.2668
						C293.9947,107.0717,293.986,108.8464,293.8678,110.6049z M282.4413,107.3624c-0.1055-1.0158-0.1259-1.9737-0.3192-2.8952
						c-0.2891-1.3777-1.0956-2.3445-2.5991-2.4248c-1.1542-0.0616-2.3255-0.0948-3.4705,0.0303
						c-1.6679,0.1822-2.5533,0.9303-2.731,2.5507c-0.1818,1.6575-0.1771,3.3618-0.0149,5.0223
						c0.1302,1.3329,0.9721,2.2517,2.4371,2.4122c0.9952,0.1091,1.9914,0.2355,2.973,0.4269
						c0.2944,0.0574,0.6823,0.3027,0.786,0.5594c0.5682,1.406-0.1124,2.2872-1.6125,2.391c-1.4144,0.0978-1.9846-0.57-2.0122-1.8526
						c-0.9706,0-1.8706,0-2.7588,0c-0.3972,4.1671,0.9972,5.7124,4.9992,5.6337c0.3983-0.0078,0.7994-0.0643,1.1922-0.1365
						c2.2185-0.4077,3.1264-1.3639,3.3078-3.6119c0.0837-1.0378,0.0745-2.0913,0.0073-3.1313
						c-0.1546-2.3949-0.8932-3.1557-3.2832-3.5031c-0.595-0.0865-1.1921-0.1935-1.7908-0.2121
						c-1.0702-0.0334-1.48-0.549-1.4471-1.6054c0.0321-1.0312,0.6125-1.2162,1.4815-1.3128
						c1.2841-0.1427,1.8885,0.3828,1.8905,1.6594C280.4555,107.3624,281.3615,107.3624,282.4413,107.3624z M309.3428,114.6917
						c1.1444,0,2.0633,0.015,2.9815-0.0032c1.7531-0.0347,2.9192-0.7552,3.0623-2.438c0.209-2.4582,0.1643-4.9555-0.0006-7.4208
						c-0.0858-1.2832-0.9249-2.4952-2.3086-2.6073c-2.2163-0.1796-4.4577-0.0481-6.6766-0.0481c0,5.6516,0,11.2214,0,16.8034
						c0.9927,0,1.9031,0,2.9421,0C309.3428,117.5662,309.3428,116.2116,309.3428,114.6917z M286.7866,106.0149
						c0,4.4515,0,8.6961,0,12.9754c1.0292,0,1.9426,0,3.0271,0c0-4.3221,0-8.5992,0-13.0173c1.0678,0,1.9701,0,2.8738,0
						c0-1.369,0-2.5909,0-3.8248c-2.965,0-5.8411,0-8.7551,0c0,1.2963,0,2.5209,0,3.8667
						C284.8605,106.0149,285.725,106.0149,286.7866,106.0149z"/>
					<path d="M282.277,79.044c2.3413,0,4.4179,0,6.5637,0c0.0487-0.7828,0.0901-1.4475,0.1357-2.1815c3.5623,0,7.0827,0,10.7427,0
						c0.0316,0.6732,0.0627,1.3358,0.101,2.1536c2.1305,0,4.2354,0,6.5121,0c-1.0995,4.0236-1.2663,7.8797,0.1748,11.8327
						c-2.3075,0-4.4239,0-6.6416,0c-0.057,0.6395-0.1048,1.1755-0.1596,1.7899c-3.58,0-7.1327,0-10.7361,0
						c-0.038-0.5557-0.073-1.0665-0.1193-1.7434c-2.2045,0-4.3929,0-6.7805,0C283.5348,86.9163,283.3825,83.0844,282.277,79.044z"/>
					<path d="M281.7708,85.0159c-0.1085,6.7166-5.602,12.3292-12.3142,12.7948c-6.9534,0.4823-12.4507-3.5841-14.2676-8.9738
						c-2.4854-7.3727,2.6762-15.5225,10.5234-16.6595c6.9262-1.0035,13.0491,2.3811,15.3109,8.4853
						c0.2627,0.709,0.4697,1.4502,0.5976,2.1945C281.7425,83.5644,281.7263,84.2953,281.7708,85.0159z M268.3309,78.9027
						c-3.1669-0.0094-7.1617,2.9692-8.0274,5.7929c-0.0466,0.152-0.0687,0.3129-0.0887,0.4714
						c-0.5125,4.0517,2.118,7.7039,6.1206,8.5002c4.2784,0.8512,8.4286-1.5031,9.4685-5.4418
						c0.356-1.3483,0.645-2.7789-0.2735-4.0428c-0.6572-0.9044-1.5023-1.6759-2.1299-2.5976
						C272.1038,79.6808,270.3273,78.8389,268.3309,78.9027z M278.8567,83.4768c-1.209-5.1888-5.9113-9.2936-12.7264-8.3381
						c-4.5743,0.6413-8.7568,4.9779-8.1843,8.3328c1.5918-0.4076,2.5755-1.5461,3.4914-2.7885
						c3.443-4.6706,9.7607-4.6608,13.1018,0.0275C275.5889,82.1833,276.9231,83.175,278.8567,83.4768z"/>
					<path d="M320.818,97.8702c-8.1887-0.0315-14.1883-5.9991-14.0059-13.5193c0.137-5.6484,4.4708-10.6071,10.5285-12.0468
						c6.1902-1.4712,12.9539,1.7239,15.5243,7.3335c3.4148,7.4523-1.0779,16.1554-9.2413,17.8599
						C322.5685,97.7177,321.4813,97.7848,320.818,97.8702z M320.6838,78.9025c-3.1138-0.0093-7.3052,3.0981-8.0486,5.7727
						c-0.0319,0.1146-0.0257,0.2393-0.0451,0.358c-0.6968,4.27,2.0714,7.9089,6.6507,8.7417
						c3.9879,0.7252,8.331-2.0957,8.9736-6.0021c0.1888-1.1476,0.0412-2.4899-0.3969-3.5611
						c-0.4189-1.0243-1.4784-1.7682-2.1459-2.7133C324.3757,79.6637,322.6318,78.831,320.6838,78.9025z M331.2021,83.4657
						c-0.9318-5.5804-6.9246-9.5839-12.6251-8.5657c-4.6785,0.8357-8.8991,5.1816-8.2724,8.5181
						c1.5457-0.4567,2.0691-0.8848,3.6248-2.9653c3.2607-4.3606,9.6679-4.3217,12.8212,0.1002
						C327.8406,82.0816,329.1721,83.1818,331.2021,83.4657z"/>
					<path d="M298.154,74.691c-2.5704,0-5.1726,0.0308-7.7713-0.0511c-0.2401-0.0076-0.6415-0.7257-0.655-1.1244
						c-0.0732-2.1685-0.0494-4.3402-0.0565-6.5109c-0.0122-3.7384-0.049-7.4771-0.003-11.2149
						c0.0063-0.5148,0.3017-1.1595,0.6797-1.5118c1.2283-1.1446,2.5571-2.1813,3.925-3.3246
						c1.2937,1.0941,2.5513,2.1361,3.7749,3.2165c0.1759,0.1553,0.2645,0.4958,0.2649,0.7508
						c0.01,6.432,0.0034,12.864-0.0059,19.296C298.3067,74.3275,298.2379,74.4382,298.154,74.691z"/>
					<path d="M294.3108,28.708c-1.3831-1.2413-2.7271-2.4437-4.0646-3.6531c-0.1451-0.1312-0.3665-0.3059-0.3622-0.4549
						c0.0515-1.7891-0.1477-3.6533,0.3008-5.3434c0.4156-1.5664,2.1645-1.5947,3.5694-1.6217c1.5559-0.03,3.3094-0.1616,4.163,1.482
						c0.4284,0.8249,0.2298,1.9558,0.4203,2.9276c0.4675,2.3845-0.5116,4.0537-2.4466,5.3289
						C295.3589,27.7239,294.9081,28.1975,294.3108,28.708z"/>
					<path d="M298.2562,130.4254c-2.7986,0-5.5394,0-8.3726,0c0-1.8503,0-3.6368,0-5.5216c2.7563,0,5.5294,0,8.3726,0
						C298.2562,126.6663,298.2562,128.4135,298.2562,130.4254z"/>
					<path d="M298.254,94.1408c0,0.8631,0,1.6831,0,2.5779c-2.778,0-5.5231,0-8.3657,0c0-0.8265,0-1.6441,0-2.5779
						C292.6413,94.1408,295.4113,94.1408,298.254,94.1408z"/>
					<path class="st0" d="M311.8725,26.4074c-1.2451-1.1778-2.2298-2.1093-3.3246-3.1449c0.6301-0.5808,1.1465-1.0568,1.6489-1.5199
						c1.4494,1.4462,2.8592,2.8529,4.3736,4.364c-0.808,0.7333-1.6256,1.5457-2.5293,2.247
						c-0.2313,0.1795-0.7614,0.0919-1.1088-0.0175c-1.2542-0.395-2.489-0.8516-3.711-1.278
						c0.9459,0.9705,1.8928,1.9421,2.9368,3.0133c-0.6839,0.6007-1.2155,1.0675-1.677,1.4728
						c-1.4913-1.4135-2.9424-2.7889-4.4878-4.2536c0.9156-0.8188,1.7114-1.6007,2.5919-2.2711
						c0.2348-0.1788,0.7547-0.1003,1.1001,0.0042C308.9788,25.4151,310.2541,25.8662,311.8725,26.4074z"/>
					<path class="st0" d="M268.9897,18.0912c-0.3739,0.3471-0.6938,0.6442-1.0998,1.0211
						c-0.5647-0.5153-1.1088-1.0119-1.4557-1.3285c1.4116-1.5346,2.7836-3.026,4.1849-4.5494
						c1.2559,1.1751,2.4714,2.2732,3.6391,3.42c0.6661,0.6542,1.3199,1.4184,0.8066,2.4279
						c-0.4709,0.9261-1.268,1.4339-2.0962,1.2356c-0.4276,0.8049-0.799,1.504-1.2525,2.3577
						c-0.7593-0.6841-1.3087-1.1792-1.8557-1.672C270.95,19.6655,270.8966,19.4907,268.9897,18.0912z M271.2672,15.9307
						c-0.4588,0.3835-0.8154,0.6815-1.2282,1.0266c0.7674,0.648,1.3901,1.1738,2.0559,1.7359
						c0.3672-0.3907,0.6302-0.6705,0.926-0.9853c-0.2499-0.2987-0.4341-0.5555-0.6555-0.7747
						C272.0287,16.5996,271.6661,16.2921,271.2672,15.9307z"/>
					<path class="st0" d="M318.4632,19.6443c-0.3419,0.2725-0.6837,0.5451-1.1428,0.911c-0.2534-0.2801-0.5052-0.5584-0.7895-0.8726
						c0.9747-0.8737,1.8908-1.6949,2.885-2.5862c0.4727,0.5338,0.8785,0.9637,1.2517,1.4201c0.5271,0.6445,0.597,1.4113,0.018,1.97
						c-1.1715,1.1303-2.3984,2.2202-3.7077,3.1839c-0.7274,0.5353-1.596,0.336-2.3201-0.2812
						c-2.6459-2.2554-2.6647-3.3618-0.0482-5.6358c0.5733-0.4983,1.1664-0.9824,1.7955-1.406
						c0.8177-0.5506,1.6404-0.5914,2.6087,0.4527c-0.863,0.4617-1.7035,0.8081-2.4207,1.3255
						c-0.6556,0.473-1.7343,1.2592-1.6375,1.6795c0.176,0.7638,1.0016,1.4922,1.7338,1.9529
						c0.2648,0.1666,1.0997-0.4035,1.5605-0.7778c0.3071-0.2495,0.4127-0.7472,0.6084-1.1338
						C318.7268,19.779,318.595,19.7116,318.4632,19.6443z"/>
					<path class="st0" d="M273.3719,54.4789c1.394-1.2025,2.7072-2.3726,4.0641-3.4893c0.6413-0.5277,1.376-0.8257,2.212-0.3278
						c0.9147,0.5448,1.2141,1.1483,1.1212,1.9881c0.8302,0.4566,1.5589,0.8573,2.4508,1.3477
						c-0.764,0.6887-1.2908,1.1637-1.8067,1.6287c-1.4153-1.0986-1.4153-1.0986-3.0202,0.6778
						c0.3029,0.3388,0.6129,0.6856,1.1218,1.2548c-0.3211,0.2118-0.6282,0.3977-0.9164,0.6093
						c-0.2905,0.2133-0.5623,0.4522-0.7446,0.6004C276.392,57.3693,274.9531,55.9922,273.3719,54.4789z M279.043,53.7161
						c-0.5892-1.5534-1.3141-1.4237-2.8142,0.4836c0.3356,0.3075,0.6735,0.6172,1.033,0.9467
						c0.3995-0.3544,0.6884-0.6299,0.9982-0.8794C278.5114,54.0647,278.7879,53.8938,279.043,53.7161z"/>
					<path class="st0" d="M284.7082,52.2301c-1.9104-0.3706-2.7699-1.5189-3.5215-2.682c-0.6438-0.9962,0.0257-1.8733,0.7195-2.5585
						c0.8245-0.8143,1.6985-1.6066,2.6577-2.2492c1.1401-0.7637,2.0396-0.5831,3.0374,0.3621
						c2.2463,2.1279,2.2833,2.9629-0.0152,5.0707C286.6672,51.0159,285.5475,51.6396,284.7082,52.2301z M287.5193,48.3172
						c-0.9894-0.8144-1.6769-1.8167-2.4023-1.8449c-0.6268-0.0244-1.2965,1.0586-1.9473,1.652
						c0.6744,0.6305,1.2746,1.6076,2.0486,1.7736C285.7633,50.0147,286.5446,49.0289,287.5193,48.3172z"/>
					<path class="st0" d="M300.5676,33.3021c-0.8819,0.4109-1.6452,0.687-2.3208,1.105c-0.6148,0.3803-1.1342,0.9146-1.6957,1.3811
						c0.0768,0.1465,0.1536,0.2931,0.2303,0.4396c0.3437-0.1075,0.7348-0.1442,1.0219-0.3363
						c0.7326-0.4902,1.3972-1.0819,2.1292-1.5733c0.8638-0.5799,1.6475-0.4304,2.3514,0.3531
						c0.6619,0.7367,0.631,1.5267,0.0222,2.1644c-0.993,1.0399-2.0531,2.0354-3.1926,2.9091
						c-0.8145,0.6245-1.3893,0.4375-2.4004-0.4395c0.7019-0.4919,1.0245-1.3975,2.1918-1.2945
						c0.4376,0.0386,0.981-0.6317,1.3937-1.0584c0.1501-0.1552,0.0607-0.5421,0.0805-0.8233
						c-0.2441,0.0326-0.544-0.0142-0.7227,0.1115c-0.7549,0.531-1.4587,1.1343-2.2095,1.6715
						c-0.8897,0.6366-1.6991,0.5248-2.4539-0.294c-0.7745-0.8402-0.5897-1.651,0.0984-2.3475
						c0.8724-0.883,1.8095-1.7132,2.7892-2.4755C298.6634,32.186,299.5143,32.1745,300.5676,33.3021z"/>
					<path class="st0" d="M293.8969,39.2078c-0.8637,0.4183-1.5865,0.7653-2.3061,1.1189
						c-0.1765,0.0867-0.3995,0.1542-0.5028,0.3001c-0.3313,0.468-0.6165,0.9686-0.9195,1.4566
						c0.4682-0.2019,0.9665-0.3545,1.3972-0.6177c0.5807-0.3548,1.1053-0.8006,1.6615-1.1968
						c0.8597-0.6125,1.6001-0.4915,2.3493,0.2669c0.7584,0.7677,0.7167,1.5602,0.0677,2.235
						c-0.9958,1.0356-2.0622,2.0239-3.2071,2.8887c-0.7835,0.5919-1.6573,0.4344-2.5436-0.6282
						c0.8496-0.3913,1.5909-0.7336,2.3333-1.0734c0.1078-0.0494,0.2523-0.0564,0.3273-0.1338
						c0.4654-0.4805,0.9198-0.9721,1.3566-1.4783c0.0171-0.0198-0.238-0.342-0.2699-0.3264
						c-0.5163,0.2524-1.0345,0.5097-1.5164,0.8213c-0.5381,0.3479-1.0126,0.7991-1.5642,1.1203
						c-0.8506,0.4954-1.6184,0.2795-2.2544-0.4424c-0.6398-0.7262-0.6112-1.5311,0.0127-2.1758
						c0.918-0.9486,1.9048-1.8468,2.9531-2.6478C292.0459,38.1034,292.9066,38.1582,293.8969,39.2078z"/>
					<path class="st0" d="M303.8894,49.2427c-0.4367,0.8019-0.819,1.504-1.2881,2.3654c-0.6766-0.6424-1.1538-1.0954-1.6225-1.5402
						c1.0008-1.3435,1.0008-1.3435-0.6068-2.7223c-0.3876,0.3002-0.7888,0.6109-1.2585,0.9746
						c-0.4657-0.4282-0.9336-0.8585-1.279-1.176c1.3806-1.5248,2.7393-3.0253,4.1571-4.5913
						c1.1928,1.1194,2.2547,2.0901,3.2855,3.0928c0.6176,0.6007,1.2609,1.3124,0.7557,2.2111
						C305.5388,48.7356,304.848,49.536,303.8894,49.2427z M302.5077,45.204c-0.3501,0.3332-0.6886,0.6553-1.0262,0.9766
						c1.6591,1.7603,1.6591,1.7603,2.5573,0.4944C303.5639,46.2188,303.0792,45.7531,302.5077,45.204z"/>
					<path class="st0" d="M314.854,63.0882c1.4225-1.5293,2.7805-2.9892,4.3978-4.7278c1.2365,1.3404,2.4356,2.5646,3.5423,3.8672
						c0.7091,0.8347,0.6502,1.7625-0.0819,2.6106c-0.0783,0.0907-0.1635,0.1755-0.2464,0.2622
						c-2.2119,2.3145-3.0044,2.3325-5.3381,0.1259C316.3452,64.4864,315.5587,63.7507,314.854,63.0882z M319.7583,61.1094
						c-0.961,0.8425-1.6993,1.4897-2.6894,2.3577c0.9846,0.5065,1.752,1.2264,2.4446,1.1606
						c0.6159-0.0586,1.6211-1.0055,1.6018-1.5289C321.0898,62.4079,320.2322,61.7478,319.7583,61.1094z"/>
					<path class="st0" d="M278.4015,28.9734c-0.6565-0.5893-1.1891-1.0672-1.7072-1.5323c0.4203-1.5216-0.9928-2.899-2.5869-2.9357
						c-0.6868-0.0158-1.3559-0.8048-2.2933-1.4108c2.2823-0.9147,4.2557-1.7196,6.2464-2.4792
						c0.1806-0.0689,0.519,0.0976,0.706,0.2505c2.2391,1.8307,2.2363,1.8358,1.1331,4.5062
						C279.4254,26.5197,278.9459,27.665,278.4015,28.9734z M276.2177,23.8031c0.469,0.3986,0.9055,0.7696,1.4327,1.2176
						c0.3475-0.8139,0.6261-1.4666,0.9903-2.3197c-0.8268,0.3293-1.3853,0.5442-1.9364,0.7764
						C276.5599,23.5383,276.4382,23.6529,276.2177,23.8031z"/>
					<path class="st0" d="M311.6705,52.8524c-0.2994,1.3524-1.4709,2.1215-2.5566,2.9009
						c-0.8325,0.5977-1.7541,0.2523-2.4509-0.3237c-0.8888-0.7347-1.7387-1.5501-2.4532-2.4514
						c-0.6052-0.7635-0.512-1.6581,0.183-2.416c0.1084-0.1182,0.2165-0.2391,0.3388-0.342
						c0.8903-0.7495,1.5722-2.0527,3.0099-1.5702c1.7458,0.5858,2.9504,1.8819,3.8261,3.4773
						C311.6572,52.2904,311.6274,52.5189,311.6705,52.8524z M307.9089,50.1567c-0.787,0.8714-1.6127,1.4867-1.9291,2.3001
						c-0.1089,0.2799,1.2795,1.6176,1.5902,1.4927c0.8014-0.3221,1.569-1.1013,1.9501-1.8909
						C309.6514,51.7865,308.6,50.9437,307.9089,50.1567z"/>
					<path class="st0" d="M274.4754,58.4008c1.1628,1.0923,1.366,1.8794,0.5374,2.7779c-0.9649,1.0462-2.0981,1.9609-3.2566,2.7962
						c-0.7372,0.5315-1.6063,0.3662-2.3394-0.2213c-0.0625-0.0501-0.1291-0.0954-0.1903-0.147
						c-2.4681-2.0799-2.5039-3.1156-0.1497-5.3134c0.5254-0.4905,1.0777-0.9659,1.674-1.3638
						c1.1167-0.7451,1.6852-0.6315,2.7336,0.4724c-0.7572,0.514-1.09,1.531-2.3936,1.3738
						c-0.4265-0.0514-1.5146,1.3067-1.3926,1.5347c0.3979,0.7439,1.1289,1.4447,1.8989,1.8095
						c0.5639,0.2672,1.345-1.1166,1.5424-1.8394C273.3229,59.6085,273.9787,59.0658,274.4754,58.4008z"/>
					<path class="st0" d="M308.5457,57.1455c2.0077-0.898,3.8476-1.7408,5.7113-2.5275c0.2145-0.0905,0.6282,0.0522,0.8342,0.2245
						c0.6428,0.5378,1.2303,1.1417,1.8729,1.7519c-0.9054,1.9493-1.7935,3.8615-2.7555,5.9327
						c-0.5417-0.8341-1.9471-0.9874-1.1837-2.332c-0.702-0.6319-1.5812-1.9081-2.0725-1.7731
						C309.5542,58.8063,309.3829,57.7177,308.5457,57.1455z M314.8443,56.4855c-0.9862,0.4674-1.6349,0.7748-2.4204,1.1471
						c0.5063,0.4578,0.8508,0.7693,1.2805,1.1578C314.0646,58.062,314.3747,57.435,314.8443,56.4855z"/>
					<path class="st0" d="M286.1783,27.9901c0.6523,0.5845,1.156,1.036,1.7626,1.5796c-1.2018,1.072-2.3559,2.1015-3.5313,3.15
						c1.0758,1.0004,1.8945,1.7616,2.8542,2.654c-0.3853,0.3567-0.6963,0.6445-1.0978,1.0162
						c-1.4796-1.3708-2.88-2.6682-4.2573-3.9442C283.3507,30.9408,284.7289,29.5026,286.1783,27.9901z"/>
					<path class="st0" d="M300.7195,30.2015c0.5193-0.463,1.0502-0.9364,1.4691-1.3099c1.4861,1.3989,2.936,2.7637,4.4943,4.2305
						c-0.5675,0.5235-1.0794,0.9956-1.545,1.425C303.645,33.0786,302.2091,31.6665,300.7195,30.2015z"/>
					<path class="st0" d="M280.8219,31.2773c-0.5605-0.5321-1.0715-1.0172-1.527-1.4496c1.4164-1.5077,2.7755-2.9545,4.2007-4.4717
						c0.6109,0.5741,1.1474,1.0784,1.5318,1.4397C283.598,28.3191,282.2404,29.7658,280.8219,31.2773z"/>
					<path class="st0" d="M293.8678,110.6049c0.1181-1.7585,0.1268-3.5332,0.3838-5.2712c0.2829-1.9138,1.4867-3.1057,3.4647-3.2668
						c1.1061-0.0901,2.2501-0.0942,3.3401,0.086c1.6981,0.2806,2.9536,1.767,3.0477,3.8597
						c0.1369,3.0446,0.1973,6.1117-0.0161,9.1476c-0.2139,3.0441-2.494,4.4585-5.9357,4.036
						c-2.6082-0.3202-3.9621-1.7468-4.1282-4.4847c-0.0826-1.3618-0.0143-2.7327-0.0143-4.0995
						C293.9625,110.6096,293.9152,110.6073,293.8678,110.6049z M301.043,110.698c0-1.124,0.045-2.2503-0.012-3.3714
						c-0.0635-1.25-0.9667-1.3837-1.976-1.3929c-0.9999-0.0091-1.8435,0.2404-1.8797,1.3722
						c-0.0694,2.1646-0.0657,4.3343-0.0027,6.4993c0.033,1.1337,0.8513,1.3921,1.8639,1.3816
						c1.0038-0.0105,1.9194-0.0988,1.9937-1.3586C301.0915,112.7883,301.0427,111.7419,301.043,110.698z"/>
					<path class="st0" d="M282.4413,107.3624c-1.0799,0-1.9858,0-2.9649,0c-0.002-1.2766-0.6064-1.8021-1.8905-1.6594
						c-0.869,0.0966-1.4494,0.2816-1.4815,1.3128c-0.0329,1.0564,0.3769,1.572,1.4471,1.6054
						c0.5986,0.0187,1.1958,0.1257,1.7908,0.2121c2.39,0.3473,3.1286,1.1082,3.2832,3.5031c0.0672,1.04,0.0764,2.0935-0.0073,3.1313
						c-0.1814,2.248-1.0893,3.2042-3.3078,3.6119c-0.3928,0.0722-0.7939,0.1287-1.1922,0.1365
						c-4.002,0.0787-5.3964-1.4665-4.9992-5.6337c0.8882,0,1.7882,0,2.7588,0c0.0276,1.2826,0.5978,1.9504,2.0122,1.8526
						c1.5002-0.1037,2.1808-0.985,1.6125-2.391c-0.1037-0.2567-0.4916-0.502-0.786-0.5594
						c-0.9816-0.1914-1.9778-0.3178-2.973-0.4269c-1.465-0.1605-2.3069-1.0793-2.4371-2.4122
						c-0.1622-1.6605-0.1669-3.3648,0.0149-5.0223c0.1777-1.6203,1.0631-2.3685,2.731-2.5507
						c1.145-0.1251,2.3163-0.0919,3.4705-0.0303c1.5035,0.0803,2.31,1.0471,2.5991,2.4248
						C282.3155,105.3887,282.3358,106.3466,282.4413,107.3624z"/>
					<path class="st0" d="M309.3428,114.6917c0,1.5199,0,2.8745,0,4.2859c-1.039,0-1.9494,0-2.9421,0c0-5.5821,0-11.1519,0-16.8034
						c2.2189,0,4.4603-0.1315,6.6766,0.0481c1.3838,0.1121,2.2228,1.3242,2.3086,2.6073c0.1649,2.4653,0.2096,4.9626,0.0006,7.4208
						c-0.1431,1.6827-1.3091,2.4033-3.0623,2.438C311.4061,114.7067,310.4872,114.6917,309.3428,114.6917z M309.3471,106.1618
						c0,1.1608-0.0433,2.3171,0.0242,3.467c0.0226,0.3859,0.3309,1.0798,0.5027,1.0779c0.8962-0.0097,2.0519,0.5061,2.594-0.6174
						c1.1513-2.3866-0.0931-4.2204-2.6815-4.0671C309.7116,106.0266,309.639,106.0674,309.3471,106.1618z"/>
					<path class="st0" d="M286.7866,106.0149c-1.0616,0-1.9261,0-2.8542,0c0-1.3458,0-2.5704,0-3.8667c2.914,0,5.7901,0,8.7551,0
						c0,1.2339,0,2.4558,0,3.8248c-0.9037,0-1.8059,0-2.8738,0c0,4.4181,0,8.6953,0,13.0173c-1.0845,0-1.9979,0-3.0271,0
						C286.7866,114.711,286.7866,110.4664,286.7866,106.0149z"/>
					<path class="st0" d="M268.3309,78.9027c1.9964-0.0637,3.7729,0.7781,5.0695,2.6822c0.6277,0.9217,1.4727,1.6932,2.1299,2.5976
						c0.9185,1.2639,0.6295,2.6945,0.2735,4.0428c-1.0399,3.9387-5.1901,6.293-9.4685,5.4418
						c-4.0027-0.7963-6.6331-4.4484-6.1206-8.5002c0.0201-0.1584,0.0421-0.3194,0.0887-0.4714
						C261.1691,81.8719,265.1639,78.8933,268.3309,78.9027z"/>
					<path class="st0" d="M278.8567,83.4768c-1.9336-0.3017-3.2678-1.2934-4.3175-2.7663
						c-3.3411-4.6882-9.6588-4.6981-13.1018-0.0275c-0.9159,1.2424-1.8996,2.3809-3.4914,2.7885
						c-0.5725-3.3549,3.6099-7.6914,8.1843-8.3328C272.9455,74.1832,277.6477,78.288,278.8567,83.4768z"/>
					<path class="st0" d="M320.6838,78.9025c1.9481-0.0715,3.6919,0.7612,4.9878,2.5959c0.6675,0.9451,1.727,1.689,2.1459,2.7133
						c0.4381,1.0712,0.5857,2.4135,0.3969,3.5611c-0.6426,3.9064-4.9857,6.7273-8.9736,6.0021
						c-4.5794-0.8328-7.3475-4.4717-6.6507-8.7417c0.0194-0.1187,0.0132-0.2434,0.0451-0.358
						C313.3785,82.0006,317.57,78.8932,320.6838,78.9025z"/>
					<path class="st0" d="M331.2021,83.4657c-2.0299-0.2839-3.3615-1.3841-4.4515-2.9127
						c-3.1533-4.4218-9.5605-4.4607-12.8212-0.1002c-1.5557,2.0804-2.0791,2.5086-3.6248,2.9653
						c-0.6266-3.3365,3.5939-7.6825,8.2724-8.5181C324.2775,73.8817,330.2703,77.8853,331.2021,83.4657z"/>
					<path d="M271.2672,15.9307c0.399,0.3615,0.7615,0.669,1.0983,1.0025c0.2214,0.2193,0.4055,0.4761,0.6555,0.7747
						c-0.2958,0.3148-0.5588,0.5946-0.926,0.9853c-0.6658-0.5622-1.2885-1.0879-2.0559-1.7359
						C270.4518,16.6122,270.8083,16.3142,271.2672,15.9307z"/>
					<path d="M279.043,53.7161c-0.2551,0.1777-0.5316,0.3486-0.783,0.5509c-0.3098,0.2494-0.5987,0.525-0.9982,0.8794
						c-0.3596-0.3295-0.6974-0.6391-1.033-0.9467C277.7289,52.2924,278.4538,52.1627,279.043,53.7161z"/>
					<path d="M287.5193,48.3172c-0.9747,0.7118-1.7561,1.6975-2.3009,1.5806c-0.7741-0.166-1.3742-1.1431-2.0486-1.7736
						c0.6508-0.5934,1.3205-1.6764,1.9473-1.652C285.8425,46.5004,286.53,47.5028,287.5193,48.3172z"/>
					<path d="M302.5077,45.204c0.5715,0.5491,1.0562,1.0148,1.531,1.471c-0.8982,1.2659-0.8982,1.2659-2.5573-0.4944
						C301.8191,45.8594,302.1576,45.5373,302.5077,45.204z"/>
					<path d="M319.7583,61.1094c0.4739,0.6384,1.3316,1.2985,1.357,1.9894c0.0193,0.5234-0.9859,1.4703-1.6018,1.5289
						c-0.6926,0.0659-1.46-0.654-2.4446-1.1606C318.059,62.5991,318.7973,61.9519,319.7583,61.1094z"/>
					<path d="M276.2177,23.8031c0.2206-0.1502,0.3423-0.2648,0.4866-0.3257c0.5512-0.2322,1.1097-0.4471,1.9364-0.7764
						c-0.3642,0.8531-0.6429,1.5058-0.9903,2.3197C277.1231,24.5727,276.6866,24.2017,276.2177,23.8031z"/>
					<path d="M307.9089,50.1567c0.6911,0.787,1.7425,1.6298,1.6112,1.9018c-0.3811,0.7896-1.1488,1.5688-1.9501,1.8909
						c-0.3107,0.1249-1.6991-1.2128-1.5902-1.4927C306.2961,51.6434,307.1219,51.0281,307.9089,50.1567z"/>
					<path d="M314.8443,56.4855c-0.4696,0.9495-0.7797,1.5765-1.14,2.3048c-0.4297-0.3885-0.7741-0.6999-1.2805-1.1578
						C313.2094,57.2603,313.8581,56.9529,314.8443,56.4855z"/>
					<path d="M301.0429,110.6982c-0.0002,1.0437,0.0486,2.0901-0.0127,3.13c-0.0743,1.2598-0.9899,1.3481-1.9937,1.3586
						c-1.0126,0.0106-1.8309-0.2479-1.8639-1.3816c-0.063-2.165-0.0667-4.3347,0.0027-6.4993
						c0.0363-1.1318,0.8798-1.3813,1.8797-1.3722c1.0093,0.0092,1.9124,0.1429,1.976,1.3929
						C301.088,108.4477,301.043,109.574,301.0429,110.6982z"/>
					<path d="M309.3471,106.1618c0.2919-0.0944,0.3645-0.1352,0.4393-0.1396c2.5885-0.1533,3.8329,1.6806,2.6815,4.0671
						c-0.5421,1.1236-1.6978,0.6077-2.594,0.6174c-0.1717,0.0019-0.48-0.692-0.5027-1.0779
						C309.3038,108.479,309.3471,107.3226,309.3471,106.1618z"/>
				</g>
			</g>
			<path d="M308.49,237.4797h-28.8424c-0.7421,0-1.3493-0.6072-1.3493-1.3493v-18.0286c0-0.7421,0.6072-1.3493,1.3493-1.3493H308.49
				c0.7421,0,1.3493,0.6072,1.3493,1.3493v18.0286C309.8393,236.8725,309.2321,237.4797,308.49,237.4797z"/>
			<rect x="289.8836" y="130.4254" width="8.3704" height="86.3271"/>
		</g>
	</g>
	<g id="Light">
		<path class="st4" d="M314.5704,81.7867c0,0-5.1967,3.0994-0.6335,8.9063c4.5631,5.807,10.2371,2.8473,11.6048,1.5986
			c1.3677-1.2487,5.0934-3.7122,1.9583-8.826s-5.8754-4.8838-6.7777-4.799C319.8199,78.7515,317.6409,78.8234,314.5704,81.7867z"/>
	</g>
	<g id="Post_copy">
		<path d="M314.2935,192.0784h-12.0231c-2.7429,0-4.987-2.2442-4.987-4.987v-22.4839c0-2.7429,2.2442-4.987,4.987-4.987h12.0231
			c2.7429,0,4.9871,2.2442,4.9871,4.987v22.4839C319.2805,189.8342,317.0363,192.0784,314.2935,192.0784z"/>
	</g>
</g>
<g id="Left_Light_On">
	<g id="Layer_1_copy_2">
	</g>
	<g id="Light_copy">
	</g>
	<g id="Post_copy_2">
	</g>
</g>
<g id="Right_Light_On_copy">
	<g id="Layer_1_copy_4">
	</g>
	<g id="Light_copy_3">
	</g>
	<g id="Post_copy_4">
	</g>
</g>
<g id="Left_Light_On_copy">
	<g id="Layer_1_copy_3">
	</g>
	<g id="Light_copy_2">
	</g>
	<g id="Post_copy_3">
	</g>
</g>
</svg>
