<?xml version="1.0" encoding="utf-8"?>
<!-- Generator: Adobe Illustrator 19.1.0, SVG Export Plug-In . SVG Version: 6.00 Build 0)  -->
<svg version="1.1" id="Layer_1" xmlns="http://www.w3.org/2000/svg" xmlns:xlink="http://www.w3.org/1999/xlink" x="0px" y="0px"
	 viewBox="-251 37 360 360" style="enable-background:new -251 37 360 360;" xml:space="preserve">
<style type="text/css">
	.st0{fill:#FFFFFF;}
	.st1{fill:#ED1F24;}
	.st2{display:none;}
	.st3{display:inline;fill:#ED1F24;}
	.st4{display:none;fill:#ED1F24;}
	.st5{display:inline;}
	.st6{fill:#898989;}
</style>
<g id="No_Lights_Crossing">
	<g id="Layer_1_1_">
		<g>
			<g>
				<g>
					<path class="st0" d="M102.7,77.5c-5.2-4.9-10.3-9.7-15.5-14.5c5.2-4.6,10.3-9.2,15.5-13.8c-1.9-1.8-3.7-3.5-5.5-5.3
						c-5.1,4.6-10.3,9.2-15.6,13.9C76.4,52.9,71.2,48,66,43.2c-1.8,1.8-3.6,3.5-5.5,5.3c5.1,4.8,10.2,9.6,15.4,14.4
						c-5.4,4.8-10.7,9.5-16.1,14.4c1.9,1.8,3.7,3.5,5.5,5.3c5.3-4.7,10.8-9.6,16.2-14.4C86.8,73,92,77.9,97.2,82.8
						C99.1,81,100.9,79.3,102.7,77.5z M81.1,115.9c3.9,0,7.8,0,11.7,0c2.4,0,4.3-1.9,4.3-4.2c-0.1-2.5-0.1-4.9,0-7.4
						c0.1-2.2-1.6-4.4-4.3-4.4c-7.8,0-15.5,0-23.3,0c-2.6,0-4.3,1.8-4.3,4.4c0,2.4,0,4.9,0,7.3c0,2.5,1.8,4.3,4.3,4.3
						C73.3,115.9,77.2,115.9,81.1,115.9z M73.8,87.9c0.7,2.6,0.8,5-0.1,7.5c1.5,0,2.9,0,4.3,0c0,0.4,0.1,0.8,0.1,1.1
						c2.3,0,4.5,0,6.8,0c0-0.4,0.1-0.7,0.1-1.1c1.4,0,2.7,0,4.2,0c-0.9-2.5-0.8-4.9-0.1-7.5c-1.4,0-2.8,0-4.1,0c0-0.5,0-0.9-0.1-1.4
						c-2.3,0-4.5,0-6.8,0c0,0.5-0.1,0.9-0.1,1.4C76.6,87.9,75.3,87.9,73.8,87.9z M73.5,91.6c0-0.5,0-0.9-0.1-1.4
						c-0.1-0.5-0.2-0.9-0.4-1.4c-1.4-3.9-5.3-6-9.7-5.4c-5,0.7-8.2,5.9-6.7,10.5c1.2,3.4,4.6,6,9,5.7C69.9,99.5,73.4,95.9,73.5,91.6
						z M98.2,99.8c0.4-0.1,1.1-0.1,1.8-0.2c5.2-1.1,8-6.6,5.9-11.3c-1.6-3.6-5.9-5.6-9.8-4.6c-3.8,0.9-6.6,4.1-6.7,7.6
						C89.2,96,93,99.8,98.2,99.8z M83.9,85.1c0.1-0.2,0.1-0.2,0.1-0.3c0-4.1,0-8.1,0-12.2c0-0.2-0.1-0.4-0.2-0.5
						c-0.8-0.7-1.6-1.3-2.4-2c-0.9,0.7-1.7,1.4-2.5,2.1c-0.2,0.2-0.4,0.6-0.4,1c0,2.4,0,4.7,0,7.1c0,1.4,0,2.7,0,4.1
						c0,0.3,0.3,0.7,0.4,0.7C80.6,85.1,82.2,85.1,83.9,85.1z M81.4,56c0.4-0.3,0.7-0.6,1-0.8c1.2-0.8,1.8-1.9,1.5-3.4
						c-0.1-0.6,0-1.3-0.3-1.9c-0.5-1-1.7-1-2.6-0.9c-0.9,0-2,0-2.3,1c-0.3,1.1-0.2,2.3-0.2,3.4c0,0.1,0.1,0.2,0.2,0.3
						C79.7,54.4,80.5,55.2,81.4,56z M83.9,120.4c0-1.3,0-2.4,0-3.5c-1.8,0-3.6,0-5.3,0c0,1.2,0,2.3,0,3.5
						C80.4,120.4,82.2,120.4,83.9,120.4z M83.9,97.4c-1.8,0-3.6,0-5.3,0c0,0.6,0,1.1,0,1.6c1.8,0,3.5,0,5.3,0
						C83.9,98.5,83.9,98,83.9,97.4z"/>
					<path d="M102.7,77.5c-1.8,1.8-3.7,3.5-5.5,5.3C92,77.9,86.8,73,81.5,68.1c-5.5,4.8-10.9,9.7-16.2,14.4
						c-1.8-1.8-3.7-3.5-5.5-5.3c5.4-4.8,10.8-9.6,16.1-14.4c-5.1-4.8-10.2-9.6-15.4-14.4c1.9-1.8,3.7-3.5,5.5-5.3
						c5.2,4.9,10.4,9.7,15.6,14.6c5.3-4.7,10.5-9.3,15.6-13.9c1.8,1.8,3.6,3.5,5.5,5.3c-5.2,4.6-10.3,9.2-15.5,13.8
						C92.4,67.8,97.5,72.6,102.7,77.5z M92.5,54.5c-1-0.3-1.8-0.6-2.7-0.9c-0.2-0.1-0.5-0.1-0.7,0c-0.6,0.4-1.1,0.9-1.6,1.4
						c1,0.9,1.9,1.8,2.8,2.7c0.3-0.3,0.6-0.6,1.1-0.9c-0.7-0.7-1.3-1.3-1.9-1.9c0.8,0.3,1.6,0.6,2.3,0.8c0.2,0.1,0.6,0.1,0.7,0
						c0.6-0.4,1.1-1,1.6-1.4c-1-1-1.9-1.8-2.8-2.8c-0.3,0.3-0.6,0.6-1,1C91.1,53.2,91.8,53.8,92.5,54.5z M65.4,49.3
						c1.2,0.9,1.2,1,0.6,1.8c0.3,0.3,0.7,0.6,1.2,1.1c0.3-0.5,0.5-1,0.8-1.5c0.5,0.1,1-0.2,1.3-0.8c0.3-0.6-0.1-1.1-0.5-1.5
						c-0.7-0.7-1.5-1.4-2.3-2.2c-0.9,1-1.8,1.9-2.6,2.9c0.2,0.2,0.6,0.5,0.9,0.8C65,49.7,65.2,49.5,65.4,49.3z M96.7,50.3
						c0.1,0,0.2,0.1,0.3,0.1c-0.1,0.2-0.2,0.6-0.4,0.7c-0.3,0.2-0.8,0.6-1,0.5c-0.5-0.3-1-0.8-1.1-1.2c-0.1-0.3,0.6-0.8,1-1.1
						c0.5-0.3,1-0.5,1.5-0.8c-0.6-0.7-1.1-0.6-1.7-0.3c-0.4,0.3-0.8,0.6-1.1,0.9c-1.7,1.4-1.6,2.1,0,3.6c0.5,0.4,1,0.5,1.5,0.2
						c0.8-0.6,1.6-1.3,2.3-2c0.4-0.4,0.3-0.8,0-1.2c-0.2-0.3-0.5-0.6-0.8-0.9c-0.6,0.6-1.2,1.1-1.8,1.6c0.2,0.2,0.3,0.4,0.5,0.6
						C96.3,50.6,96.5,50.4,96.7,50.3z M68.2,72.3c1,1,1.9,1.8,2.8,2.7c0.1-0.1,0.3-0.2,0.5-0.4c0.2-0.1,0.4-0.3,0.6-0.4
						c-0.3-0.4-0.5-0.6-0.7-0.8c1-1.1,1-1.1,1.9-0.4c0.3-0.3,0.7-0.6,1.1-1c-0.6-0.3-1-0.6-1.6-0.9c0.1-0.5-0.1-0.9-0.7-1.3
						c-0.5-0.3-1-0.1-1.4,0.2C69.9,70.8,69,71.5,68.2,72.3z M75.3,70.9c0.5-0.4,1.2-0.8,1.8-1.3c1.5-1.3,1.4-1.9,0-3.2
						c-0.6-0.6-1.2-0.7-1.9-0.2c-0.6,0.4-1.2,0.9-1.7,1.4c-0.4,0.4-0.9,1-0.5,1.6C73.6,69.9,74.1,70.7,75.3,70.9z M85.4,58.9
						c-0.7-0.7-1.2-0.7-1.7-0.3c-0.6,0.5-1.2,1-1.8,1.6c-0.4,0.4-0.6,1-0.1,1.5c0.5,0.5,1,0.6,1.6,0.2c0.5-0.3,0.9-0.7,1.4-1.1
						c0.1-0.1,0.3,0,0.5-0.1c0,0.2,0,0.4-0.1,0.5c-0.3,0.3-0.6,0.7-0.9,0.7c-0.7-0.1-0.9,0.5-1.4,0.8c0.6,0.6,1,0.7,1.5,0.3
						c0.7-0.6,1.4-1.2,2-1.8c0.4-0.4,0.4-0.9,0-1.4c-0.4-0.5-0.9-0.6-1.5-0.2c-0.5,0.3-0.9,0.7-1.3,1c-0.2,0.1-0.4,0.1-0.6,0.2
						c0-0.1-0.1-0.2-0.1-0.3c0.4-0.3,0.7-0.6,1.1-0.9C84.3,59.3,84.8,59.2,85.4,58.9z M81.2,62.6c-0.6-0.7-1.2-0.7-1.7-0.3
						c-0.7,0.5-1.3,1.1-1.9,1.7c-0.4,0.4-0.4,0.9,0,1.4c0.4,0.5,0.9,0.6,1.4,0.3c0.3-0.2,0.6-0.5,1-0.7c0.3-0.2,0.6-0.4,1-0.5
						c0,0,0.2,0.2,0.2,0.2c-0.3,0.3-0.6,0.6-0.9,0.9c0,0-0.1,0.1-0.2,0.1c-0.5,0.2-0.9,0.4-1.5,0.7c0.6,0.7,1.1,0.8,1.6,0.4
						c0.7-0.5,1.4-1.2,2-1.8c0.4-0.4,0.4-0.9,0-1.4c-0.5-0.5-0.9-0.6-1.5-0.2c-0.4,0.3-0.7,0.5-1.1,0.8c-0.3,0.2-0.6,0.3-0.9,0.4
						c0.2-0.3,0.4-0.6,0.6-0.9c0.1-0.1,0.2-0.1,0.3-0.2C80.2,63.1,80.6,62.9,81.2,62.6z M87.5,69c0.6,0.2,1-0.3,1.4-0.9
						c0.3-0.6-0.1-1-0.5-1.4c-0.7-0.6-1.3-1.2-2.1-2c-0.9,1-1.8,1.9-2.6,2.9c0.2,0.2,0.5,0.5,0.8,0.7c0.3-0.2,0.6-0.4,0.8-0.6
						c1,0.9,1,0.9,0.4,1.7c0.3,0.3,0.6,0.6,1,1C87,69.9,87.2,69.5,87.5,69z M94.4,77.8c0.4,0.4,0.9,0.9,1.4,1.4
						c1.5,1.4,2,1.4,3.4-0.1c0.1-0.1,0.1-0.1,0.2-0.2c0.5-0.5,0.5-1.1,0.1-1.7c-0.7-0.8-1.5-1.6-2.2-2.4
						C96.2,75.9,95.3,76.8,94.4,77.8z M71.4,56.2c0.3-0.8,0.6-1.6,0.9-2.3c0.7-1.7,0.7-1.7-0.7-2.9c-0.1-0.1-0.3-0.2-0.4-0.2
						c-1.3,0.5-2.5,1-4,1.6c0.6,0.4,1,0.9,1.5,0.9c1,0,1.9,0.9,1.6,1.9C70.6,55.5,70.9,55.8,71.4,56.2z M92.4,71.3
						c0-0.2,0-0.4-0.1-0.5c-0.6-1-1.3-1.8-2.4-2.2c-0.9-0.3-1.3,0.5-1.9,1c-0.1,0.1-0.1,0.1-0.2,0.2c-0.4,0.5-0.5,1-0.1,1.5
						c0.5,0.6,1,1.1,1.6,1.6c0.4,0.4,1,0.6,1.6,0.2C91.5,72.6,92.2,72.1,92.4,71.3z M68.9,74.8c-0.3,0.4-0.7,0.8-0.8,1.2
						c-0.1,0.5-0.6,1.3-1,1.2c-0.5-0.2-1-0.7-1.2-1.1c-0.1-0.1,0.6-1,0.9-1c0.8,0.1,1-0.5,1.5-0.9c-0.7-0.7-1-0.8-1.7-0.3
						c-0.4,0.3-0.7,0.6-1.1,0.9c-1.5,1.4-1.5,2,0.1,3.4c0,0,0.1,0.1,0.1,0.1c0.5,0.4,1,0.5,1.5,0.1c0.7-0.5,1.5-1.1,2.1-1.8
						C69.7,76,69.6,75.5,68.9,74.8z M90.4,74c0.5,0.4,0.6,1.1,1.5,0.8c0.3-0.1,0.9,0.7,1.3,1.1c-0.5,0.9,0.4,0.9,0.7,1.5
						c0.6-1.3,1.2-2.5,1.7-3.8c-0.4-0.4-0.8-0.8-1.2-1.1c-0.1-0.1-0.4-0.2-0.5-0.1C92.9,72.9,91.7,73.4,90.4,74z M76.3,55.5
						c-0.9,1-1.8,1.9-2.7,2.8c0.9,0.8,1.8,1.6,2.7,2.5c0.3-0.2,0.5-0.4,0.7-0.6c-0.6-0.6-1.1-1-1.8-1.7c0.7-0.7,1.5-1.3,2.2-2
						C77,56.2,76.7,55.9,76.3,55.5z M85.5,56.9c0.9,0.9,1.9,1.8,2.8,2.8c0.3-0.3,0.6-0.6,1-0.9c-1-0.9-1.9-1.8-2.8-2.7
						C86.1,56.3,85.8,56.6,85.5,56.9z M72.9,57.6c0.9-1,1.8-1.9,2.7-2.8c-0.2-0.2-0.6-0.5-1-0.9c-0.9,1-1.8,1.9-2.7,2.8
						C72.2,57,72.5,57.3,72.9,57.6z"/>
					<path d="M81.1,115.9c-3.9,0-7.7,0-11.6,0c-2.5,0-4.3-1.8-4.3-4.3c0-2.4,0-4.9,0-7.3c0-2.5,1.8-4.4,4.3-4.4c7.8,0,15.5,0,23.3,0
						c2.7,0,4.4,2.2,4.3,4.4c-0.1,2.5-0.1,4.9,0,7.4c0.1,2.3-1.9,4.2-4.3,4.2C88.9,115.9,85,115.9,81.1,115.9z M81.1,107.9
						C81.2,107.9,81.2,107.9,81.1,107.9c0.1,0.9,0,1.7,0.1,2.6c0.1,1.7,1,2.6,2.6,2.8c2.2,0.3,3.6-0.6,3.8-2.6
						c0.1-1.9,0.1-3.9,0-5.8c-0.1-1.3-0.9-2.3-1.9-2.4c-0.7-0.1-1.4-0.1-2.1-0.1c-1.3,0.1-2,0.9-2.2,2.1
						C81.2,105.6,81.2,106.7,81.1,107.9z M73.9,105.8c-0.1-0.6-0.1-1.2-0.2-1.8c-0.2-0.9-0.7-1.5-1.6-1.5c-0.7,0-1.5-0.1-2.2,0
						c-1.1,0.1-1.6,0.6-1.7,1.6c-0.1,1-0.1,2.1,0,3.2c0.1,0.8,0.6,1.4,1.5,1.5c0.6,0.1,1.3,0.1,1.9,0.3c0.2,0,0.4,0.2,0.5,0.4
						c0.4,0.9-0.1,1.4-1,1.5c-0.9,0.1-1.3-0.4-1.3-1.2c-0.6,0-1.2,0-1.7,0c-0.3,2.6,0.6,3.6,3.2,3.6c0.3,0,0.5,0,0.8-0.1
						c1.4-0.3,2-0.9,2.1-2.3c0.1-0.7,0-1.3,0-2c-0.1-1.5-0.6-2-2.1-2.2c-0.4-0.1-0.8-0.1-1.1-0.1c-0.7,0-0.9-0.3-0.9-1
						c0-0.7,0.4-0.8,0.9-0.8c0.8-0.1,1.2,0.2,1.2,1.1C72.7,105.8,73.2,105.8,73.9,105.8z M90.9,110.4c0.7,0,1.3,0,1.9,0
						c1.1,0,1.8-0.5,1.9-1.5c0.1-1.6,0.1-3.1,0-4.7c-0.1-0.8-0.6-1.6-1.5-1.7c-1.4-0.1-2.8,0-4.2,0c0,3.6,0,7.1,0,10.6
						c0.6,0,1.2,0,1.9,0C90.9,112.3,90.9,111.4,90.9,110.4z M76.7,104.9c0,2.8,0,5.5,0,8.2c0.7,0,1.2,0,1.9,0c0-2.7,0-5.4,0-8.2
						c0.7,0,1.2,0,1.8,0c0-0.9,0-1.6,0-2.4c-1.9,0-3.7,0-5.5,0c0,0.8,0,1.6,0,2.4C75.4,104.9,76,104.9,76.7,104.9z"/>
					<path d="M73.8,87.9c1.5,0,2.8,0,4.2,0c0-0.5,0.1-0.9,0.1-1.4c2.3,0,4.5,0,6.8,0c0,0.4,0,0.8,0.1,1.4c1.3,0,2.7,0,4.1,0
						c-0.7,2.5-0.8,5,0.1,7.5c-1.5,0-2.8,0-4.2,0c0,0.4-0.1,0.7-0.1,1.1c-2.3,0-4.5,0-6.8,0c0-0.4,0-0.7-0.1-1.1c-1.4,0-2.8,0-4.3,0
						C74.6,92.9,74.5,90.4,73.8,87.9z"/>
					<path d="M73.5,91.6c-0.1,4.3-3.5,7.8-7.8,8.1c-4.4,0.3-7.9-2.3-9-5.7c-1.6-4.7,1.7-9.8,6.7-10.5c4.4-0.6,8.3,1.5,9.7,5.4
						c0.2,0.4,0.3,0.9,0.4,1.4C73.5,90.7,73.5,91.2,73.5,91.6z M65,87.8c-2,0-4.5,1.9-5.1,3.7c0,0.1,0,0.2-0.1,0.3
						c-0.3,2.6,1.3,4.9,3.9,5.4c2.7,0.5,5.3-1,6-3.4c0.2-0.9,0.4-1.8-0.2-2.6c-0.4-0.6-1-1.1-1.3-1.6C67.4,88.3,66.2,87.7,65,87.8z
						 M71.6,90.7c-0.8-3.3-3.7-5.9-8.1-5.3c-2.9,0.4-5.5,3.2-5.2,5.3c1-0.3,1.6-1,2.2-1.8c2.2-3,6.2-3,8.3,0
						C69.6,89.9,70.4,90.5,71.6,90.7z"/>
					<path d="M98.2,99.8c-5.2,0-9-3.8-8.9-8.6c0.1-3.6,2.8-6.7,6.7-7.6c3.9-0.9,8.2,1.1,9.8,4.6c2.2,4.7-0.7,10.2-5.9,11.3
						C99.3,99.7,98.6,99.7,98.2,99.8z M98.1,87.8c-2,0-4.6,2-5.1,3.7c0,0.1,0,0.2,0,0.2c-0.4,2.7,1.3,5,4.2,5.5
						c2.5,0.5,5.3-1.3,5.7-3.8c0.1-0.7,0-1.6-0.3-2.3c-0.3-0.6-0.9-1.1-1.4-1.7C100.5,88.3,99.4,87.7,98.1,87.8z M104.8,90.7
						c-0.6-3.5-4.4-6.1-8-5.4c-3,0.5-5.6,3.3-5.2,5.4c1-0.3,1.3-0.6,2.3-1.9c2.1-2.8,6.1-2.7,8.1,0.1
						C102.7,89.8,103.5,90.5,104.8,90.7z"/>
					<path d="M83.9,85.1c-1.6,0-3.3,0-4.9,0c-0.2,0-0.4-0.5-0.4-0.7c0-1.4,0-2.7,0-4.1c0-2.4,0-4.7,0-7.1c0-0.3,0.2-0.7,0.4-1
						c0.8-0.7,1.6-1.4,2.5-2.1c0.8,0.7,1.6,1.4,2.4,2c0.1,0.1,0.2,0.3,0.2,0.5c0,4.1,0,8.1,0,12.2C84,84.9,83.9,84.9,83.9,85.1z"/>
					<path d="M81.4,56c-0.9-0.8-1.7-1.5-2.6-2.3c-0.1-0.1-0.2-0.2-0.2-0.3c0-1.1-0.1-2.3,0.2-3.4c0.3-1,1.4-1,2.3-1
						c1,0,2.1-0.1,2.6,0.9c0.3,0.5,0.1,1.2,0.3,1.9c0.3,1.5-0.3,2.6-1.5,3.4C82.1,55.4,81.8,55.7,81.4,56z"/>
					<path d="M83.9,120.4c-1.8,0-3.5,0-5.3,0c0-1.2,0-2.3,0-3.5c1.7,0,3.5,0,5.3,0C83.9,118,83.9,119.1,83.9,120.4z"/>
					<path d="M83.9,97.4c0,0.5,0,1.1,0,1.6c-1.8,0-3.5,0-5.3,0c0-0.5,0-1,0-1.6C80.4,97.4,82.1,97.4,83.9,97.4z"/>
					<path class="st0" d="M92.5,54.5c-0.8-0.7-1.4-1.3-2.1-2c0.4-0.4,0.7-0.7,1-1c0.9,0.9,1.8,1.8,2.8,2.8c-0.5,0.5-1,1-1.6,1.4
						c-0.1,0.1-0.5,0.1-0.7,0c-0.8-0.3-1.6-0.5-2.3-0.8c0.6,0.6,1.2,1.2,1.9,1.9c-0.4,0.4-0.8,0.7-1.1,0.9c-0.9-0.9-1.9-1.8-2.8-2.7
						c0.6-0.5,1.1-1,1.6-1.4c0.1-0.1,0.5-0.1,0.7,0C90.7,53.9,91.5,54.2,92.5,54.5z"/>
					<path class="st0" d="M65.4,49.3c-0.2,0.2-0.4,0.4-0.7,0.6c-0.4-0.3-0.7-0.6-0.9-0.8c0.9-1,1.8-1.9,2.6-2.9
						c0.8,0.7,1.6,1.4,2.3,2.2c0.4,0.4,0.8,0.9,0.5,1.5c-0.3,0.6-0.8,0.9-1.3,0.8c-0.3,0.5-0.5,1-0.8,1.5c-0.5-0.4-0.8-0.7-1.2-1.1
						C66.6,50.3,66.6,50.2,65.4,49.3z M66.8,47.9c-0.3,0.2-0.5,0.4-0.8,0.7c0.5,0.4,0.9,0.7,1.3,1.1c0.2-0.2,0.4-0.4,0.6-0.6
						c-0.2-0.2-0.3-0.4-0.4-0.5C67.3,48.3,67.1,48.1,66.8,47.9z"/>
					<path class="st0" d="M96.7,50.3c-0.2,0.2-0.4,0.3-0.7,0.6c-0.2-0.2-0.3-0.4-0.5-0.6c0.6-0.6,1.2-1.1,1.8-1.6
						c0.3,0.3,0.6,0.6,0.8,0.9c0.3,0.4,0.4,0.9,0,1.2c-0.7,0.7-1.5,1.4-2.3,2c-0.5,0.3-1,0.2-1.5-0.2c-1.7-1.4-1.7-2.1,0-3.6
						c0.4-0.3,0.7-0.6,1.1-0.9c0.5-0.3,1-0.4,1.7,0.3c-0.5,0.3-1.1,0.5-1.5,0.8c-0.4,0.3-1.1,0.8-1,1.1c0.1,0.5,0.6,0.9,1.1,1.2
						c0.2,0.1,0.7-0.3,1-0.5c0.2-0.2,0.3-0.5,0.4-0.7C96.9,50.3,96.8,50.3,96.7,50.3z"/>
					<path class="st0" d="M68.2,72.3c0.9-0.8,1.7-1.5,2.6-2.2c0.4-0.3,0.9-0.5,1.4-0.2c0.6,0.3,0.8,0.7,0.7,1.3
						c0.5,0.3,1,0.5,1.6,0.9c-0.5,0.4-0.8,0.7-1.1,1c-0.9-0.7-0.9-0.7-1.9,0.4c0.2,0.2,0.4,0.4,0.7,0.8c-0.2,0.1-0.4,0.3-0.6,0.4
						c-0.2,0.1-0.4,0.3-0.5,0.4C70.1,74.1,69.2,73.3,68.2,72.3z M71.8,71.8c-0.4-1-0.8-0.9-1.8,0.3c0.2,0.2,0.4,0.4,0.7,0.6
						c0.3-0.2,0.4-0.4,0.6-0.6C71.4,72,71.6,71.9,71.8,71.8z"/>
					<path class="st0" d="M75.3,70.9c-1.2-0.2-1.8-1-2.2-1.7c-0.4-0.6,0-1.2,0.5-1.6c0.5-0.5,1.1-1,1.7-1.4c0.7-0.5,1.3-0.4,1.9,0.2
						c1.4,1.3,1.4,1.9,0,3.2C76.6,70.1,75.9,70.5,75.3,70.9z M77.1,68.4c-0.6-0.5-1.1-1.2-1.5-1.2c-0.4,0-0.8,0.7-1.2,1
						c0.4,0.4,0.8,1,1.3,1.1C76,69.5,76.5,68.9,77.1,68.4z"/>
					<path class="st0" d="M85.4,58.9c-0.6,0.3-1,0.4-1.5,0.7c-0.4,0.2-0.7,0.6-1.1,0.9c0,0.1,0.1,0.2,0.1,0.3
						c0.2-0.1,0.5-0.1,0.6-0.2c0.5-0.3,0.9-0.7,1.3-1c0.5-0.4,1-0.3,1.5,0.2c0.4,0.5,0.4,1,0,1.4c-0.6,0.7-1.3,1.3-2,1.8
						c-0.5,0.4-0.9,0.3-1.5-0.3c0.4-0.3,0.6-0.9,1.4-0.8c0.3,0,0.6-0.4,0.9-0.7c0.1-0.1,0-0.3,0.1-0.5c-0.2,0-0.3,0-0.5,0.1
						c-0.5,0.3-0.9,0.7-1.4,1.1c-0.6,0.4-1.1,0.3-1.6-0.2c-0.5-0.5-0.4-1,0.1-1.5c0.6-0.6,1.1-1.1,1.8-1.6
						C84.2,58.2,84.7,58.2,85.4,58.9z"/>
					<path class="st0" d="M81.2,62.6c-0.5,0.3-1,0.5-1.5,0.7c-0.1,0.1-0.3,0.1-0.3,0.2c-0.2,0.3-0.4,0.6-0.6,0.9
						c0.3-0.1,0.6-0.2,0.9-0.4c0.4-0.2,0.7-0.5,1.1-0.8c0.5-0.4,1-0.3,1.5,0.2c0.5,0.5,0.5,1,0,1.4c-0.6,0.7-1.3,1.3-2,1.8
						c-0.5,0.4-1,0.3-1.6-0.4c0.5-0.2,1-0.5,1.5-0.7c0.1,0,0.2,0,0.2-0.1c0.3-0.3,0.6-0.6,0.9-0.9c0,0-0.2-0.2-0.2-0.2
						c-0.3,0.2-0.7,0.3-1,0.5c-0.3,0.2-0.6,0.5-1,0.7c-0.5,0.3-1,0.2-1.4-0.3c-0.4-0.5-0.4-1,0-1.4c0.6-0.6,1.2-1.2,1.9-1.7
						C80,61.9,80.5,62,81.2,62.6z"/>
					<path class="st0" d="M87.5,69c-0.3,0.5-0.5,1-0.8,1.5c-0.4-0.4-0.7-0.7-1-1c0.6-0.9,0.6-0.9-0.4-1.7c-0.2,0.2-0.5,0.4-0.8,0.6
						c-0.3-0.3-0.6-0.5-0.8-0.7c0.9-1,1.7-1.9,2.6-2.9c0.8,0.7,1.4,1.3,2.1,2c0.4,0.4,0.8,0.8,0.5,1.4C88.5,68.7,88.1,69.2,87.5,69z
						 M86.6,66.4c-0.2,0.2-0.4,0.4-0.6,0.6c1.1,1.1,1.1,1.1,1.6,0.3C87.3,67.1,87,66.8,86.6,66.4z"/>
					<path class="st0" d="M94.4,77.8c0.9-1,1.8-1.9,2.8-3c0.8,0.8,1.5,1.6,2.2,2.4c0.4,0.5,0.4,1.1-0.1,1.7c0,0.1-0.1,0.1-0.2,0.2
						c-1.4,1.5-1.9,1.5-3.4,0.1C95.4,78.6,94.9,78.2,94.4,77.8z M97.5,76.5c-0.6,0.5-1.1,0.9-1.7,1.5c0.6,0.3,1.1,0.8,1.5,0.7
						c0.4,0,1-0.6,1-1C98.4,77.3,97.8,76.9,97.5,76.5z"/>
					<path class="st0" d="M71.4,56.2c-0.4-0.4-0.8-0.7-1.1-1c0.3-1-0.6-1.8-1.6-1.9c-0.4,0-0.9-0.5-1.5-0.9c1.4-0.6,2.7-1.1,4-1.6
						c0.1,0,0.3,0.1,0.4,0.2c1.4,1.2,1.4,1.2,0.7,2.9C72,54.6,71.7,55.3,71.4,56.2z M70,52.9c0.3,0.3,0.6,0.5,0.9,0.8
						c0.2-0.5,0.4-0.9,0.6-1.5c-0.5,0.2-0.9,0.3-1.2,0.5C70.2,52.7,70.1,52.8,70,52.9z"/>
					<path class="st0" d="M92.4,71.3c-0.2,0.9-0.9,1.3-1.6,1.8c-0.5,0.4-1.1,0.2-1.6-0.2c-0.6-0.5-1.1-1-1.6-1.6
						c-0.4-0.5-0.3-1,0.1-1.5c0.1-0.1,0.1-0.2,0.2-0.2c0.6-0.5,1-1.3,1.9-1c1.1,0.4,1.9,1.2,2.4,2.2C92.4,70.9,92.4,71.1,92.4,71.3z
						 M90,69.6c-0.5,0.6-1,0.9-1.2,1.5c-0.1,0.2,0.8,1,1,0.9c0.5-0.2,1-0.7,1.2-1.2C91.1,70.6,90.5,70.1,90,69.6z"/>
					<path class="st0" d="M68.9,74.8c0.7,0.7,0.9,1.2,0.3,1.8c-0.6,0.7-1.3,1.2-2.1,1.8c-0.5,0.3-1,0.2-1.5-0.1c0,0-0.1-0.1-0.1-0.1
						c-1.6-1.3-1.6-2-0.1-3.4c0.3-0.3,0.7-0.6,1.1-0.9c0.7-0.5,1.1-0.4,1.7,0.3c-0.5,0.3-0.7,1-1.5,0.9c-0.3,0-1,0.8-0.9,1
						c0.3,0.5,0.7,0.9,1.2,1.1c0.4,0.2,0.9-0.7,1-1.2C68.1,75.6,68.6,75.2,68.9,74.8z"/>
					<path class="st0" d="M90.4,74c1.3-0.6,2.4-1.1,3.6-1.6c0.1-0.1,0.4,0,0.5,0.1c0.4,0.3,0.8,0.7,1.2,1.1
						c-0.6,1.2-1.1,2.4-1.7,3.8c-0.3-0.5-1.2-0.6-0.7-1.5c-0.4-0.4-1-1.2-1.3-1.1C91.1,75.1,91,74.4,90.4,74z M94.4,73.6
						c-0.6,0.3-1,0.5-1.5,0.7c0.3,0.3,0.5,0.5,0.8,0.7C93.9,74.6,94.1,74.2,94.4,73.6z"/>
					<path class="st0" d="M76.3,55.5c0.4,0.4,0.7,0.7,1.1,1c-0.8,0.7-1.5,1.3-2.2,2c0.7,0.6,1.2,1.1,1.8,1.7
						c-0.2,0.2-0.4,0.4-0.7,0.6c-0.9-0.9-1.8-1.7-2.7-2.5C74.5,57.4,75.4,56.5,76.3,55.5z"/>
					<path class="st0" d="M85.5,56.9c0.3-0.3,0.7-0.6,0.9-0.8c0.9,0.9,1.9,1.8,2.8,2.7c-0.4,0.3-0.7,0.6-1,0.9
						C87.3,58.8,86.4,57.9,85.5,56.9z"/>
					<path class="st0" d="M72.9,57.6c-0.4-0.3-0.7-0.6-1-0.9c0.9-1,1.8-1.9,2.7-2.8c0.4,0.4,0.7,0.7,1,0.9
						C74.6,55.7,73.8,56.7,72.9,57.6z"/>
					<path class="st0" d="M81.1,107.9c0.1-1.1,0.1-2.2,0.2-3.3c0.2-1.2,0.9-2,2.2-2.1c0.7-0.1,1.4-0.1,2.1,0.1
						c1.1,0.2,1.9,1.1,1.9,2.4c0.1,1.9,0.1,3.9,0,5.8c-0.1,1.9-1.6,2.8-3.8,2.6c-1.7-0.2-2.5-1.1-2.6-2.8
						C81.2,109.6,81.2,108.7,81.1,107.9C81.2,107.9,81.2,107.9,81.1,107.9z M85.7,107.9c0-0.7,0-1.4,0-2.1c0-0.8-0.6-0.9-1.3-0.9
						c-0.6,0-1.2,0.2-1.2,0.9c0,1.4,0,2.7,0,4.1c0,0.7,0.5,0.9,1.2,0.9c0.6,0,1.2-0.1,1.3-0.9C85.7,109.2,85.7,108.6,85.7,107.9z"/>
					<path class="st0" d="M73.9,105.8c-0.7,0-1.3,0-1.9,0c0-0.8-0.4-1.1-1.2-1.1c-0.6,0.1-0.9,0.2-0.9,0.8c0,0.7,0.2,1,0.9,1
						c0.4,0,0.8,0.1,1.1,0.1c1.5,0.2,2,0.7,2.1,2.2c0,0.7,0,1.3,0,2c-0.1,1.4-0.7,2-2.1,2.3c-0.2,0-0.5,0.1-0.8,0.1
						c-2.5,0-3.4-0.9-3.2-3.6c0.6,0,1.1,0,1.7,0c0,0.8,0.4,1.2,1.3,1.2c0.9-0.1,1.4-0.6,1-1.5c-0.1-0.2-0.3-0.3-0.5-0.4
						c-0.6-0.1-1.3-0.2-1.9-0.3c-0.9-0.1-1.5-0.7-1.5-1.5c-0.1-1.1-0.1-2.1,0-3.2c0.1-1,0.7-1.5,1.7-1.6c0.7-0.1,1.5-0.1,2.2,0
						c1,0.1,1.5,0.7,1.6,1.5C73.8,104.5,73.8,105.2,73.9,105.8z"/>
					<path class="st0" d="M90.9,110.4c0,1,0,1.8,0,2.7c-0.7,0-1.2,0-1.9,0c0-3.5,0-7.1,0-10.6c1.4,0,2.8-0.1,4.2,0
						c0.9,0.1,1.4,0.8,1.5,1.7c0.1,1.6,0.1,3.1,0,4.7c-0.1,1.1-0.8,1.5-1.9,1.5C92.3,110.4,91.7,110.4,90.9,110.4z M90.9,105
						c0,0.7,0,1.5,0,2.2c0,0.2,0.2,0.7,0.3,0.7c0.6,0,1.3,0.3,1.6-0.4c0.7-1.5-0.1-2.7-1.7-2.6C91.2,105,91.1,105,90.9,105z"/>
					<path class="st0" d="M76.7,104.9c-0.7,0-1.2,0-1.8,0c0-0.9,0-1.6,0-2.4c1.8,0,3.7,0,5.5,0c0,0.8,0,1.6,0,2.4
						c-0.6,0-1.1,0-1.8,0c0,2.8,0,5.5,0,8.2c-0.7,0-1.3,0-1.9,0C76.7,110.5,76.7,107.8,76.7,104.9z"/>
					<path class="st0" d="M65,87.8c1.3,0,2.4,0.5,3.2,1.7c0.4,0.6,0.9,1.1,1.3,1.6c0.6,0.8,0.4,1.7,0.2,2.6c-0.7,2.5-3.3,4-6,3.4
						c-2.5-0.5-4.2-2.8-3.9-5.4c0-0.1,0-0.2,0.1-0.3C60.4,89.7,63,87.8,65,87.8z"/>
					<path class="st0" d="M71.6,90.7c-1.2-0.2-2.1-0.8-2.7-1.8c-2.1-3-6.1-3-8.3,0c-0.6,0.8-1.2,1.5-2.2,1.8
						c-0.4-2.1,2.3-4.9,5.2-5.3C67.9,84.8,70.9,87.4,71.6,90.7z"/>
					<path class="st0" d="M98.1,87.8c1.2,0,2.3,0.5,3.2,1.6c0.4,0.6,1.1,1.1,1.4,1.7c0.3,0.7,0.4,1.5,0.3,2.3
						c-0.4,2.5-3.2,4.3-5.7,3.8c-2.9-0.5-4.7-2.8-4.2-5.5c0-0.1,0-0.2,0-0.2C93.5,89.7,96.2,87.8,98.1,87.8z"/>
					<path class="st0" d="M104.8,90.7c-1.3-0.2-2.1-0.9-2.8-1.8c-2-2.8-6.1-2.8-8.1-0.1c-1,1.3-1.3,1.6-2.3,1.9
						c-0.4-2.1,2.3-4.9,5.2-5.4C100.4,84.6,104.2,87.1,104.8,90.7z"/>
					<path d="M66.8,47.9c0.3,0.2,0.5,0.4,0.7,0.6c0.1,0.1,0.3,0.3,0.4,0.5c-0.2,0.2-0.4,0.4-0.6,0.6c-0.4-0.4-0.8-0.7-1.3-1.1
						C66.3,48.3,66.5,48.1,66.8,47.9z"/>
					<path d="M71.8,71.8c-0.2,0.1-0.3,0.2-0.5,0.3c-0.2,0.2-0.4,0.3-0.6,0.6c-0.2-0.2-0.4-0.4-0.7-0.6
						C70.9,70.9,71.4,70.8,71.8,71.8z"/>
					<path d="M77.1,68.4c-0.6,0.5-1.1,1.1-1.5,1c-0.5-0.1-0.9-0.7-1.3-1.1c0.4-0.4,0.8-1.1,1.2-1C76.1,67.3,76.5,67.9,77.1,68.4z"/>
					<path d="M86.6,66.4c0.4,0.3,0.7,0.6,1,0.9C87,68.2,87,68.2,86,67.1C86.2,66.9,86.4,66.6,86.6,66.4z"/>
					<path d="M97.5,76.5c0.3,0.4,0.8,0.8,0.9,1.3c0,0.3-0.6,0.9-1,1c-0.4,0-0.9-0.4-1.5-0.7C96.5,77.5,96.9,77,97.5,76.5z"/>
					<path d="M70,52.9c0.1-0.1,0.2-0.2,0.3-0.2c0.3-0.1,0.7-0.3,1.2-0.5c-0.2,0.5-0.4,1-0.6,1.5C70.5,53.4,70.3,53.1,70,52.9z"/>
					<path d="M90,69.6c0.4,0.5,1.1,1,1,1.2c-0.2,0.5-0.7,1-1.2,1.2c-0.2,0.1-1.1-0.8-1-0.9C89,70.5,89.5,70.1,90,69.6z"/>
					<path d="M94.4,73.6c-0.3,0.6-0.5,1-0.7,1.5c-0.3-0.2-0.5-0.4-0.8-0.7C93.4,74.1,93.8,73.9,94.4,73.6z"/>
					<path d="M85.7,107.9c0,0.7,0,1.3,0,2c0,0.8-0.6,0.9-1.3,0.9c-0.6,0-1.2-0.2-1.2-0.9c0-1.4,0-2.7,0-4.1c0-0.7,0.6-0.9,1.2-0.9
						c0.6,0,1.2,0.1,1.3,0.9C85.7,106.5,85.7,107.2,85.7,107.9z"/>
					<path d="M90.9,105c0.2-0.1,0.2-0.1,0.3-0.1c1.6-0.1,2.4,1.1,1.7,2.6c-0.3,0.7-1.1,0.4-1.6,0.4c-0.1,0-0.3-0.4-0.3-0.7
						C90.9,106.5,90.9,105.8,90.9,105z"/>
				</g>
			</g>
			<path d="M89.9,188.2H72.6c-0.7,0-1.3-0.6-1.3-1.3v-10.4c0-0.7,0.6-1.3,1.3-1.3h17.3c0.7,0,1.3,0.6,1.3,1.3v10.4
				C91.3,187.6,90.7,188.2,89.9,188.2z"/>
			<rect x="78.6" y="120.4" width="5.3" height="54.7"/>
		</g>
	</g>
	<g id="Post">
		<path d="M92.3,159.4h-4c-2.7,0-5-2.2-5-5v-10.6c0-2.7,2.2-5,5-5h4c2.7,0,5,2.2,5,5v10.6C97.2,157.2,95,159.4,92.3,159.4z"/>
	</g>
	<g id="Light_copy">
		<path class="st1" d="M61.2,89.4c0,0-3.3,2.4-0.4,6.1c2.8,3.5,6.5,1.6,7.4,0.8c0.9-0.8,3.2-2.4,1.2-5.6s-3.7-3-4.3-3
			C64.6,87.6,63.6,87.1,61.2,89.4z"/>
	</g>
	<g id="Light" class="st2">
		<path class="st3" d="M94.3,89.6c0,0-3.3,2-0.4,5.6c2.9,3.7,6.5,1.8,7.3,1s3.2-2.4,1.2-5.6s-3.7-3.1-4.3-3
			C97.6,87.7,96.2,87.7,94.3,89.6z"/>
	</g>
</g>
<g id="No_Lights_Crossing_copy">
	<g id="Layer_1_copy_5">
		<g>
			<g>
				<g>
					<path class="st0" d="M-196.1,77.2c-5.2-4.9-10.3-9.7-15.5-14.5c5.2-4.6,10.3-9.2,15.5-13.8c-1.9-1.8-3.7-3.5-5.5-5.3
						c-5.1,4.6-10.3,9.2-15.6,13.9c-5.2-4.9-10.4-9.7-15.6-14.6c-1.8,1.8-3.6,3.5-5.5,5.3c5.1,4.8,10.2,9.6,15.4,14.4
						c-5.4,4.8-10.7,9.5-16.1,14.4c1.9,1.8,3.7,3.5,5.5,5.3c5.3-4.7,10.8-9.6,16.2-14.4c5.3,4.9,10.5,9.8,15.8,14.7
						C-199.7,80.7-197.9,79-196.1,77.2z M-217.7,115.6c3.9,0,7.8,0,11.7,0c2.4,0,4.3-1.9,4.3-4.2c-0.1-2.5-0.1-4.9,0-7.4
						c0.1-2.2-1.6-4.4-4.3-4.4c-7.8,0-15.5,0-23.3,0c-2.6,0-4.3,1.8-4.3,4.4c0,2.4,0,4.9,0,7.3c0,2.5,1.8,4.3,4.3,4.3
						C-225.5,115.6-221.6,115.6-217.7,115.6z M-225,87.6c0.7,2.6,0.8,5-0.1,7.5c1.5,0,2.9,0,4.3,0c0,0.4,0.1,0.8,0.1,1.1
						c2.3,0,4.5,0,6.8,0c0-0.4,0.1-0.7,0.1-1.1c1.4,0,2.7,0,4.2,0c-0.9-2.5-0.8-4.9-0.1-7.5c-1.4,0-2.8,0-4.1,0c0-0.5,0-0.9-0.1-1.4
						c-2.3,0-4.5,0-6.8,0c0,0.5-0.1,0.9-0.1,1.4C-222.2,87.6-223.5,87.6-225,87.6z M-225.3,91.3c0-0.5,0-0.9-0.1-1.4
						c-0.1-0.5-0.2-0.9-0.4-1.4c-1.4-3.9-5.3-6-9.7-5.4c-5,0.7-8.2,5.9-6.7,10.5c1.2,3.4,4.6,6,9,5.7
						C-228.9,99.1-225.4,95.6-225.3,91.3z M-200.6,99.5c0.4-0.1,1.1-0.1,1.8-0.2c5.2-1.1,8-6.6,5.9-11.3c-1.6-3.6-5.9-5.6-9.8-4.6
						c-3.8,0.9-6.6,4.1-6.7,7.6C-209.6,95.7-205.8,99.5-200.6,99.5z M-214.9,84.8c0.1-0.2,0.1-0.2,0.1-0.3c0-4.1,0-8.1,0-12.2
						c0-0.2-0.1-0.4-0.2-0.5c-0.8-0.7-1.6-1.3-2.4-2c-0.9,0.7-1.7,1.4-2.5,2.1c-0.2,0.2-0.4,0.6-0.4,1c0,2.4,0,4.7,0,7.1
						c0,1.4,0,2.7,0,4.1c0,0.3,0.3,0.7,0.4,0.7C-218.2,84.8-216.6,84.8-214.9,84.8z M-217.4,55.7c0.4-0.3,0.7-0.6,1-0.8
						c1.2-0.8,1.8-1.9,1.5-3.4c-0.1-0.6,0-1.3-0.3-1.9c-0.5-1-1.7-1-2.6-0.9c-0.9,0-2,0-2.3,1c-0.3,1.1-0.2,2.3-0.2,3.4
						c0,0.1,0.1,0.2,0.2,0.3C-219.1,54.1-218.3,54.9-217.4,55.7z M-214.9,120.1c0-1.3,0-2.4,0-3.5c-1.8,0-3.6,0-5.3,0
						c0,1.2,0,2.3,0,3.5C-218.4,120.1-216.7,120.1-214.9,120.1z M-214.9,97.1c-1.8,0-3.6,0-5.3,0c0,0.6,0,1.1,0,1.6
						c1.8,0,3.5,0,5.3,0C-214.9,98.2-214.9,97.7-214.9,97.1z"/>
					<path d="M-196.1,77.2c-1.8,1.8-3.7,3.5-5.5,5.3c-5.3-4.9-10.5-9.8-15.8-14.7c-5.5,4.8-10.9,9.7-16.2,14.4
						c-1.8-1.8-3.7-3.5-5.5-5.3c5.4-4.8,10.8-9.6,16.1-14.4c-5.1-4.8-10.2-9.6-15.4-14.4c1.9-1.8,3.7-3.5,5.5-5.3
						c5.2,4.9,10.4,9.7,15.6,14.6c5.3-4.7,10.5-9.3,15.6-13.9c1.8,1.8,3.6,3.5,5.5,5.3c-5.2,4.6-10.3,9.2-15.5,13.8
						C-206.4,67.5-201.3,72.3-196.1,77.2z M-206.3,54.2c-1-0.3-1.8-0.6-2.7-0.9c-0.2-0.1-0.5-0.1-0.7,0c-0.6,0.4-1.1,0.9-1.6,1.4
						c1,0.9,1.9,1.8,2.8,2.7c0.3-0.3,0.6-0.6,1.1-0.9c-0.7-0.7-1.3-1.3-1.9-1.9c0.8,0.3,1.6,0.6,2.3,0.8c0.2,0.1,0.6,0.1,0.7,0
						c0.6-0.4,1.1-1,1.6-1.4c-1-1-1.9-1.8-2.8-2.8c-0.3,0.3-0.6,0.6-1,1C-207.7,52.9-207,53.5-206.3,54.2z M-233.4,49
						c1.2,0.9,1.2,1,0.6,1.8c0.3,0.3,0.7,0.6,1.2,1.1c0.3-0.5,0.5-1,0.8-1.5c0.5,0.1,1-0.2,1.3-0.8c0.3-0.6-0.1-1.1-0.5-1.5
						c-0.7-0.7-1.5-1.4-2.3-2.2c-0.9,1-1.8,1.9-2.7,2.9c0.2,0.2,0.6,0.5,0.9,0.8C-233.9,49.4-233.7,49.2-233.4,49z M-202.1,49.9
						c0.1,0,0.2,0.1,0.3,0.1c-0.1,0.2-0.2,0.6-0.4,0.7c-0.3,0.2-0.8,0.6-1,0.5c-0.5-0.3-1-0.8-1.1-1.2c-0.1-0.3,0.6-0.8,1-1.1
						c0.5-0.3,1-0.5,1.5-0.8c-0.6-0.7-1.1-0.6-1.7-0.3c-0.4,0.3-0.8,0.6-1.1,0.9c-1.7,1.4-1.6,2.1,0,3.6c0.5,0.4,1,0.5,1.5,0.2
						c0.8-0.6,1.6-1.3,2.3-2c0.4-0.4,0.3-0.8,0-1.2c-0.2-0.3-0.5-0.6-0.8-0.9c-0.6,0.6-1.2,1.1-1.8,1.6c0.2,0.2,0.3,0.4,0.5,0.6
						C-202.5,50.3-202.3,50.1-202.1,49.9z M-230.6,72c1,1,1.9,1.8,2.8,2.7c0.1-0.1,0.3-0.2,0.5-0.4c0.2-0.1,0.4-0.3,0.6-0.4
						c-0.3-0.4-0.5-0.6-0.7-0.8c1-1.1,1-1.1,1.9-0.4c0.3-0.3,0.7-0.6,1.1-1c-0.6-0.3-1-0.6-1.6-0.9c0.1-0.5-0.1-0.9-0.7-1.3
						c-0.5-0.3-1-0.1-1.4,0.2C-228.9,70.5-229.8,71.2-230.6,72z M-223.5,70.6c0.5-0.4,1.2-0.8,1.8-1.3c1.5-1.3,1.4-1.9,0-3.2
						c-0.6-0.6-1.2-0.7-1.9-0.2c-0.6,0.4-1.2,0.9-1.7,1.4c-0.4,0.4-0.9,1-0.5,1.6C-225.2,69.6-224.7,70.3-223.5,70.6z M-213.4,58.6
						c-0.7-0.7-1.2-0.7-1.7-0.3c-0.6,0.5-1.2,1-1.8,1.6c-0.4,0.4-0.6,1-0.1,1.5c0.5,0.5,1,0.6,1.6,0.2c0.5-0.3,0.9-0.7,1.4-1.1
						c0.1-0.1,0.3,0,0.5-0.1c0,0.2,0,0.4-0.1,0.5c-0.3,0.3-0.6,0.7-0.9,0.7c-0.7-0.1-0.9,0.5-1.4,0.8c0.6,0.6,1,0.7,1.5,0.3
						c0.7-0.6,1.4-1.2,2-1.8c0.4-0.4,0.4-0.9,0-1.4c-0.4-0.5-0.9-0.6-1.5-0.2c-0.5,0.3-0.9,0.7-1.3,1c-0.2,0.1-0.4,0.1-0.6,0.2
						c0-0.1-0.1-0.2-0.1-0.3c0.4-0.3,0.7-0.6,1.1-0.9C-214.5,59-214,58.8-213.4,58.6z M-217.6,62.3c-0.6-0.7-1.2-0.7-1.7-0.3
						c-0.7,0.5-1.3,1.1-1.9,1.7c-0.4,0.4-0.4,0.9,0,1.4c0.4,0.5,0.9,0.6,1.4,0.3c0.3-0.2,0.6-0.5,1-0.7c0.3-0.2,0.6-0.4,1-0.5
						c0,0,0.2,0.2,0.2,0.2c-0.3,0.3-0.6,0.6-0.9,0.9c0,0-0.1,0.1-0.2,0.1c-0.5,0.2-0.9,0.4-1.5,0.7c0.6,0.7,1.1,0.8,1.6,0.4
						c0.7-0.5,1.4-1.2,2-1.8c0.4-0.4,0.4-0.9,0-1.4c-0.5-0.5-0.9-0.6-1.5-0.2c-0.4,0.3-0.7,0.5-1.1,0.8c-0.3,0.2-0.6,0.3-0.9,0.4
						c0.2-0.3,0.4-0.6,0.6-0.9c0.1-0.1,0.2-0.1,0.3-0.2C-218.6,62.8-218.2,62.6-217.6,62.3z M-211.3,68.7c0.6,0.2,1-0.3,1.4-0.9
						c0.3-0.6-0.1-1-0.5-1.4c-0.7-0.6-1.3-1.2-2.1-2c-0.9,1-1.8,1.9-2.6,2.9c0.2,0.2,0.5,0.5,0.8,0.7c0.3-0.2,0.6-0.4,0.8-0.6
						c1,0.9,1,0.9,0.4,1.7c0.3,0.3,0.6,0.6,1,1C-211.8,69.6-211.6,69.2-211.3,68.7z M-204.4,77.4c0.4,0.4,0.9,0.9,1.4,1.4
						c1.5,1.4,2,1.4,3.4-0.1c0.1-0.1,0.1-0.1,0.2-0.2c0.5-0.5,0.5-1.1,0.1-1.7c-0.7-0.8-1.5-1.6-2.2-2.4
						C-202.6,75.6-203.5,76.5-204.4,77.4z M-227.5,55.8c0.3-0.8,0.6-1.6,0.9-2.3c0.7-1.7,0.7-1.7-0.7-2.9c-0.1-0.1-0.3-0.2-0.4-0.2
						c-1.3,0.5-2.5,1-4,1.6c0.6,0.4,1,0.9,1.5,0.9c1,0,1.9,0.9,1.6,1.9C-228.2,55.2-227.9,55.5-227.5,55.8z M-206.4,71
						c0-0.2,0-0.4-0.1-0.5c-0.6-1-1.3-1.8-2.4-2.2c-0.9-0.3-1.3,0.5-1.9,1c-0.1,0.1-0.1,0.1-0.2,0.2c-0.4,0.5-0.5,1-0.1,1.5
						c0.5,0.6,1,1.1,1.6,1.6c0.4,0.4,1,0.6,1.6,0.2C-207.3,72.3-206.6,71.8-206.4,71z M-229.9,74.5c-0.3,0.4-0.7,0.8-0.8,1.2
						c-0.1,0.5-0.6,1.3-1,1.2c-0.5-0.2-1-0.7-1.2-1.1c-0.1-0.1,0.6-1,0.9-1c0.8,0.1,1-0.5,1.5-0.9c-0.7-0.7-1-0.8-1.7-0.3
						c-0.4,0.3-0.7,0.6-1.1,0.9c-1.5,1.4-1.5,2,0.1,3.4c0,0,0.1,0.1,0.1,0.1c0.5,0.4,1,0.5,1.5,0.1c0.7-0.5,1.5-1.1,2.1-1.8
						C-229.1,75.7-229.2,75.2-229.9,74.5z M-208.4,73.7c0.5,0.4,0.6,1.1,1.5,0.8c0.3-0.1,0.9,0.7,1.3,1.1c-0.5,0.9,0.4,0.9,0.7,1.5
						c0.6-1.3,1.2-2.5,1.7-3.8c-0.4-0.4-0.8-0.8-1.2-1.1c-0.1-0.1-0.4-0.2-0.5-0.1C-205.9,72.6-207.1,73.1-208.4,73.7z M-222.5,55.2
						c-0.9,1-1.8,1.9-2.7,2.8c0.9,0.8,1.8,1.6,2.7,2.5c0.3-0.2,0.5-0.4,0.7-0.6c-0.6-0.6-1.1-1-1.8-1.7c0.7-0.7,1.5-1.3,2.2-2
						C-221.8,55.9-222.1,55.6-222.5,55.2z M-213.3,56.6c0.9,0.9,1.9,1.8,2.8,2.8c0.3-0.3,0.6-0.6,1-0.9c-1-0.9-1.9-1.8-2.8-2.7
						C-212.7,56-213,56.3-213.3,56.6z M-225.9,57.3c0.9-1,1.8-1.9,2.7-2.8c-0.2-0.2-0.6-0.5-1-0.9c-0.9,1-1.8,1.9-2.7,2.8
						C-226.6,56.7-226.3,57-225.9,57.3z"/>
					<path d="M-217.7,115.6c-3.9,0-7.7,0-11.6,0c-2.5,0-4.3-1.8-4.3-4.3c0-2.4,0-4.9,0-7.3c0-2.5,1.8-4.4,4.3-4.4
						c7.8,0,15.5,0,23.3,0c2.7,0,4.4,2.2,4.3,4.4c-0.1,2.5-0.1,4.9,0,7.4c0.1,2.3-1.9,4.2-4.3,4.2
						C-209.9,115.6-213.8,115.6-217.7,115.6z M-217.7,107.5C-217.6,107.5-217.6,107.5-217.7,107.5c0.1,0.9,0,1.7,0.1,2.6
						c0.1,1.7,1,2.6,2.6,2.8c2.2,0.3,3.6-0.6,3.8-2.6c0.1-1.9,0.1-3.9,0-5.8c-0.1-1.3-0.9-2.3-1.9-2.4c-0.7-0.1-1.4-0.1-2.1-0.1
						c-1.3,0.1-2,0.9-2.2,2.1C-217.6,105.3-217.6,106.4-217.7,107.5z M-224.9,105.5c-0.1-0.6-0.1-1.2-0.2-1.8
						c-0.2-0.9-0.7-1.5-1.6-1.5c-0.7,0-1.5-0.1-2.2,0c-1.1,0.1-1.6,0.6-1.7,1.6c-0.1,1-0.1,2.1,0,3.2c0.1,0.8,0.6,1.4,1.5,1.5
						c0.6,0.1,1.3,0.1,1.9,0.3c0.2,0,0.4,0.2,0.5,0.4c0.4,0.9-0.1,1.4-1,1.5c-0.9,0.1-1.3-0.4-1.3-1.2c-0.6,0-1.2,0-1.7,0
						c-0.3,2.6,0.6,3.6,3.2,3.6c0.3,0,0.5,0,0.8-0.1c1.4-0.3,2-0.9,2.1-2.3c0.1-0.7,0-1.3,0-2c-0.1-1.5-0.6-2-2.1-2.2
						c-0.4-0.1-0.8-0.1-1.1-0.1c-0.7,0-0.9-0.3-0.9-1c0-0.7,0.4-0.8,0.9-0.8c0.8-0.1,1.2,0.2,1.2,1.1
						C-226.2,105.5-225.6,105.5-224.9,105.5z M-207.9,110.1c0.7,0,1.3,0,1.9,0c1.1,0,1.8-0.5,1.9-1.5c0.1-1.6,0.1-3.1,0-4.7
						c-0.1-0.8-0.6-1.6-1.5-1.7c-1.4-0.1-2.8,0-4.2,0c0,3.6,0,7.1,0,10.6c0.6,0,1.2,0,1.9,0C-207.9,111.9-207.9,111.1-207.9,110.1z
						 M-222.1,104.6c0,2.8,0,5.5,0,8.2c0.7,0,1.2,0,1.9,0c0-2.7,0-5.4,0-8.2c0.7,0,1.2,0,1.8,0c0-0.9,0-1.6,0-2.4
						c-1.9,0-3.7,0-5.5,0c0,0.8,0,1.6,0,2.4C-223.4,104.6-222.8,104.6-222.1,104.6z"/>
					<path d="M-225,87.6c1.5,0,2.8,0,4.2,0c0-0.5,0.1-0.9,0.1-1.4c2.3,0,4.5,0,6.8,0c0,0.4,0,0.8,0.1,1.4c1.3,0,2.7,0,4.1,0
						c-0.7,2.5-0.8,5,0.1,7.5c-1.5,0-2.8,0-4.2,0c0,0.4-0.1,0.7-0.1,1.1c-2.3,0-4.5,0-6.8,0c0-0.4,0-0.7-0.1-1.1c-1.4,0-2.8,0-4.3,0
						C-224.2,92.5-224.3,90.1-225,87.6z"/>
					<path d="M-225.3,91.3c-0.1,4.3-3.5,7.8-7.8,8.1c-4.4,0.3-7.9-2.3-9-5.7c-1.6-4.7,1.7-9.8,6.7-10.5c4.4-0.6,8.3,1.5,9.7,5.4
						c0.2,0.4,0.3,0.9,0.4,1.4C-225.3,90.4-225.3,90.9-225.3,91.3z M-233.8,87.5c-2,0-4.5,1.9-5.1,3.7c0,0.1,0,0.2-0.1,0.3
						c-0.3,2.6,1.3,4.9,3.9,5.4c2.7,0.5,5.3-1,6-3.4c0.2-0.9,0.4-1.8-0.2-2.6c-0.4-0.6-1-1.1-1.3-1.6
						C-231.4,88-232.6,87.4-233.8,87.5z M-227.2,90.4c-0.8-3.3-3.7-5.9-8.1-5.3c-2.9,0.4-5.5,3.2-5.2,5.3c1-0.3,1.6-1,2.2-1.8
						c2.2-3,6.2-3,8.3,0C-229.2,89.5-228.4,90.2-227.2,90.4z"/>
					<path d="M-200.6,99.5c-5.2,0-9-3.8-8.9-8.6c0.1-3.6,2.8-6.7,6.7-7.6c3.9-0.9,8.2,1.1,9.8,4.6c2.2,4.7-0.7,10.2-5.9,11.3
						C-199.5,99.4-200.2,99.4-200.6,99.5z M-200.7,87.5c-2,0-4.6,2-5.1,3.7c0,0.1,0,0.2,0,0.2c-0.4,2.7,1.3,5,4.2,5.5
						c2.5,0.5,5.3-1.3,5.7-3.8c0.1-0.7,0-1.6-0.3-2.3c-0.3-0.6-0.9-1.1-1.4-1.7C-198.3,87.9-199.4,87.4-200.7,87.5z M-194,90.4
						c-0.6-3.5-4.4-6.1-8-5.4c-3,0.5-5.6,3.3-5.2,5.4c1-0.3,1.3-0.6,2.3-1.9c2.1-2.8,6.1-2.7,8.1,0.1
						C-196.1,89.5-195.3,90.2-194,90.4z"/>
					<path d="M-214.9,84.8c-1.6,0-3.3,0-4.9,0c-0.2,0-0.4-0.5-0.4-0.7c0-1.4,0-2.7,0-4.1c0-2.4,0-4.7,0-7.1c0-0.3,0.2-0.7,0.4-1
						c0.8-0.7,1.6-1.4,2.5-2.1c0.8,0.7,1.6,1.4,2.4,2c0.1,0.1,0.2,0.3,0.2,0.5c0,4.1,0,8.1,0,12.2
						C-214.9,84.6-214.9,84.6-214.9,84.8z"/>
					<path d="M-217.4,55.7c-0.9-0.8-1.7-1.5-2.6-2.3c-0.1-0.1-0.2-0.2-0.2-0.3c0-1.1-0.1-2.3,0.2-3.4c0.3-1,1.4-1,2.3-1
						c1,0,2.1-0.1,2.6,0.9c0.3,0.5,0.1,1.2,0.3,1.9c0.3,1.5-0.3,2.6-1.5,3.4C-216.7,55.1-217,55.4-217.4,55.7z"/>
					<path d="M-214.9,120.1c-1.8,0-3.5,0-5.3,0c0-1.2,0-2.3,0-3.5c1.7,0,3.5,0,5.3,0C-214.9,117.7-214.9,118.8-214.9,120.1z"/>
					<path d="M-214.9,97.1c0,0.5,0,1.1,0,1.6c-1.8,0-3.5,0-5.3,0c0-0.5,0-1,0-1.6C-218.4,97.1-216.7,97.1-214.9,97.1z"/>
					<path class="st0" d="M-206.3,54.2c-0.8-0.7-1.4-1.3-2.1-2c0.4-0.4,0.7-0.7,1-1c0.9,0.9,1.8,1.8,2.8,2.8c-0.5,0.5-1,1-1.6,1.4
						c-0.1,0.1-0.5,0.1-0.7,0c-0.8-0.3-1.6-0.5-2.3-0.8c0.6,0.6,1.2,1.2,1.9,1.9c-0.4,0.4-0.8,0.7-1.1,0.9c-0.9-0.9-1.9-1.8-2.8-2.7
						c0.6-0.5,1.1-1,1.6-1.4c0.1-0.1,0.5-0.1,0.7,0C-208.1,53.6-207.3,53.9-206.3,54.2z"/>
					<path class="st0" d="M-233.4,49c-0.2,0.2-0.4,0.4-0.7,0.6c-0.4-0.3-0.7-0.6-0.9-0.8c0.9-1,1.8-1.9,2.7-2.9
						c0.8,0.7,1.6,1.4,2.3,2.2c0.4,0.4,0.8,0.9,0.5,1.5c-0.3,0.6-0.8,0.9-1.3,0.8c-0.3,0.5-0.5,1-0.8,1.5c-0.5-0.4-0.8-0.7-1.2-1.1
						C-232.2,50-232.2,49.8-233.4,49z M-232,47.6c-0.3,0.2-0.5,0.4-0.8,0.7c0.5,0.4,0.9,0.7,1.3,1.1c0.2-0.2,0.4-0.4,0.6-0.6
						c-0.2-0.2-0.3-0.4-0.4-0.5C-231.5,48-231.7,47.8-232,47.6z"/>
					<path class="st0" d="M-202.1,49.9c-0.2,0.2-0.4,0.3-0.7,0.6c-0.2-0.2-0.3-0.4-0.5-0.6c0.6-0.6,1.2-1.1,1.8-1.6
						c0.3,0.3,0.6,0.6,0.8,0.9c0.3,0.4,0.4,0.9,0,1.2c-0.7,0.7-1.5,1.4-2.3,2c-0.5,0.3-1,0.2-1.5-0.2c-1.7-1.4-1.7-2.1,0-3.6
						c0.4-0.3,0.7-0.6,1.1-0.9c0.5-0.3,1-0.4,1.7,0.3c-0.5,0.3-1.1,0.5-1.5,0.8c-0.4,0.3-1.1,0.8-1,1.1c0.1,0.5,0.6,0.9,1.1,1.2
						c0.2,0.1,0.7-0.3,1-0.5c0.2-0.2,0.3-0.5,0.4-0.7C-201.9,50-202,50-202.1,49.9z"/>
					<path class="st0" d="M-230.6,72c0.9-0.8,1.7-1.5,2.6-2.2c0.4-0.3,0.9-0.5,1.4-0.2c0.6,0.3,0.8,0.7,0.7,1.3
						c0.5,0.3,1,0.5,1.6,0.9c-0.5,0.4-0.8,0.7-1.1,1c-0.9-0.7-0.9-0.7-1.9,0.4c0.2,0.2,0.4,0.4,0.7,0.8c-0.2,0.1-0.4,0.3-0.6,0.4
						c-0.2,0.1-0.4,0.3-0.5,0.4C-228.7,73.8-229.6,73-230.6,72z M-227,71.5c-0.4-1-0.8-0.9-1.8,0.3c0.2,0.2,0.4,0.4,0.7,0.6
						c0.3-0.2,0.4-0.4,0.6-0.6C-227.4,71.7-227.2,71.6-227,71.5z"/>
					<path class="st0" d="M-223.5,70.6c-1.2-0.2-1.8-1-2.2-1.7c-0.4-0.6,0-1.2,0.5-1.6c0.5-0.5,1.1-1,1.7-1.4
						c0.7-0.5,1.3-0.4,1.9,0.2c1.4,1.3,1.4,1.9,0,3.2C-222.2,69.8-222.9,70.2-223.5,70.6z M-221.7,68.1c-0.6-0.5-1.1-1.2-1.5-1.2
						c-0.4,0-0.8,0.7-1.2,1c0.4,0.4,0.8,1,1.3,1.1C-222.8,69.2-222.3,68.5-221.7,68.1z"/>
					<path class="st0" d="M-213.4,58.6c-0.6,0.3-1,0.4-1.5,0.7c-0.4,0.2-0.7,0.6-1.1,0.9c0,0.1,0.1,0.2,0.1,0.3
						c0.2-0.1,0.5-0.1,0.6-0.2c0.5-0.3,0.9-0.7,1.3-1c0.5-0.4,1-0.3,1.5,0.2c0.4,0.5,0.4,1,0,1.4c-0.6,0.7-1.3,1.3-2,1.8
						c-0.5,0.4-0.9,0.3-1.5-0.3c0.4-0.3,0.6-0.9,1.4-0.8c0.3,0,0.6-0.4,0.9-0.7c0.1-0.1,0-0.3,0.1-0.5c-0.2,0-0.3,0-0.5,0.1
						c-0.5,0.3-0.9,0.7-1.4,1.1c-0.6,0.4-1.1,0.3-1.6-0.2c-0.5-0.5-0.4-1,0.1-1.5c0.6-0.6,1.1-1.1,1.8-1.6
						C-214.6,57.9-214.1,57.9-213.4,58.6z"/>
					<path class="st0" d="M-217.6,62.3c-0.5,0.3-1,0.5-1.5,0.7c-0.1,0.1-0.3,0.1-0.3,0.2c-0.2,0.3-0.4,0.6-0.6,0.9
						c0.3-0.1,0.6-0.2,0.9-0.4c0.4-0.2,0.7-0.5,1.1-0.8c0.5-0.4,1-0.3,1.5,0.2c0.5,0.5,0.5,1,0,1.4c-0.6,0.7-1.3,1.3-2,1.8
						c-0.5,0.4-1,0.3-1.6-0.4c0.5-0.2,1-0.5,1.5-0.7c0.1,0,0.2,0,0.2-0.1c0.3-0.3,0.6-0.6,0.9-0.9c0,0-0.2-0.2-0.2-0.2
						c-0.3,0.2-0.7,0.3-1,0.5c-0.3,0.2-0.6,0.5-1,0.7c-0.5,0.3-1,0.2-1.4-0.3c-0.4-0.5-0.4-1,0-1.4c0.6-0.6,1.2-1.2,1.9-1.7
						C-218.8,61.6-218.3,61.7-217.6,62.3z"/>
					<path class="st0" d="M-211.3,68.7c-0.3,0.5-0.5,1-0.8,1.5c-0.4-0.4-0.7-0.7-1-1c0.6-0.9,0.6-0.9-0.4-1.7
						c-0.2,0.2-0.5,0.4-0.8,0.6c-0.3-0.3-0.6-0.5-0.8-0.7c0.9-1,1.7-1.9,2.6-2.9c0.8,0.7,1.4,1.3,2.1,2c0.4,0.4,0.8,0.8,0.5,1.4
						C-210.3,68.4-210.7,68.9-211.3,68.7z M-212.2,66.1c-0.2,0.2-0.4,0.4-0.6,0.6c1.1,1.1,1.1,1.1,1.6,0.3
						C-211.5,66.8-211.8,66.5-212.2,66.1z"/>
					<path class="st0" d="M-204.4,77.4c0.9-1,1.8-1.9,2.8-3c0.8,0.8,1.5,1.6,2.2,2.4c0.4,0.5,0.4,1.1-0.1,1.7c0,0.1-0.1,0.1-0.2,0.2
						c-1.4,1.5-1.9,1.5-3.4,0.1C-203.4,78.3-203.9,77.9-204.4,77.4z M-201.3,76.2c-0.6,0.5-1.1,0.9-1.7,1.5c0.6,0.3,1.1,0.8,1.5,0.7
						c0.4,0,1-0.6,1-1C-200.4,77-201,76.6-201.3,76.2z"/>
					<path class="st0" d="M-227.5,55.8c-0.4-0.4-0.8-0.7-1.1-1c0.3-1-0.6-1.8-1.6-1.9c-0.4,0-0.9-0.5-1.5-0.9c1.4-0.6,2.7-1.1,4-1.6
						c0.1,0,0.3,0.1,0.4,0.2c1.4,1.2,1.4,1.2,0.7,2.9C-226.8,54.3-227.1,55-227.5,55.8z M-228.8,52.6c0.3,0.3,0.6,0.5,0.9,0.8
						c0.2-0.5,0.4-0.9,0.6-1.5c-0.5,0.2-0.9,0.3-1.2,0.5C-228.6,52.4-228.7,52.5-228.8,52.6z"/>
					<path class="st0" d="M-206.4,71c-0.2,0.9-0.9,1.3-1.6,1.8c-0.5,0.4-1.1,0.2-1.6-0.2c-0.6-0.5-1.1-1-1.6-1.6
						c-0.4-0.5-0.3-1,0.1-1.5c0.1-0.1,0.1-0.2,0.2-0.2c0.6-0.5,1-1.3,1.9-1c1.1,0.4,1.9,1.2,2.4,2.2
						C-206.4,70.6-206.4,70.8-206.4,71z M-208.8,69.3c-0.5,0.6-1,0.9-1.2,1.5c-0.1,0.2,0.8,1,1,0.9c0.5-0.2,1-0.7,1.2-1.2
						C-207.7,70.3-208.3,69.8-208.8,69.3z"/>
					<path class="st0" d="M-229.9,74.5c0.7,0.7,0.9,1.2,0.3,1.8c-0.6,0.7-1.3,1.2-2.1,1.8c-0.5,0.3-1,0.2-1.5-0.1
						c0,0-0.1-0.1-0.1-0.1c-1.6-1.3-1.6-2-0.1-3.4c0.3-0.3,0.7-0.6,1.1-0.9c0.7-0.5,1.1-0.4,1.7,0.3c-0.5,0.3-0.7,1-1.5,0.9
						c-0.3,0-1,0.8-0.9,1c0.3,0.5,0.7,0.9,1.2,1.1c0.4,0.2,0.9-0.7,1-1.2C-230.7,75.2-230.3,74.9-229.9,74.5z"/>
					<path class="st0" d="M-208.4,73.7c1.3-0.6,2.4-1.1,3.6-1.6c0.1-0.1,0.4,0,0.5,0.1c0.4,0.3,0.8,0.7,1.2,1.1
						c-0.6,1.2-1.1,2.4-1.7,3.8c-0.3-0.5-1.2-0.6-0.7-1.5c-0.4-0.4-1-1.2-1.3-1.1C-207.7,74.7-207.8,74-208.4,73.7z M-204.4,73.3
						c-0.6,0.3-1,0.5-1.5,0.7c0.3,0.3,0.5,0.5,0.8,0.7C-204.9,74.3-204.7,73.9-204.4,73.3z"/>
					<path class="st0" d="M-222.5,55.2c0.4,0.4,0.7,0.7,1.1,1c-0.8,0.7-1.5,1.3-2.2,2c0.7,0.6,1.2,1.1,1.8,1.7
						c-0.2,0.2-0.4,0.4-0.7,0.6c-0.9-0.9-1.8-1.7-2.7-2.5C-224.3,57.1-223.4,56.2-222.5,55.2z"/>
					<path class="st0" d="M-213.3,56.6c0.3-0.3,0.7-0.6,0.9-0.8c0.9,0.9,1.9,1.8,2.8,2.7c-0.4,0.3-0.7,0.6-1,0.9
						C-211.5,58.4-212.4,57.6-213.3,56.6z"/>
					<path class="st0" d="M-225.9,57.3c-0.4-0.3-0.7-0.6-1-0.9c0.9-1,1.8-1.9,2.7-2.8c0.4,0.4,0.7,0.7,1,0.9
						C-224.2,55.4-225,56.3-225.9,57.3z"/>
					<path class="st0" d="M-217.7,107.5c0.1-1.1,0.1-2.2,0.2-3.3c0.2-1.2,0.9-2,2.2-2.1c0.7-0.1,1.4-0.1,2.1,0.1
						c1.1,0.2,1.9,1.1,1.9,2.4c0.1,1.9,0.1,3.9,0,5.8c-0.1,1.9-1.6,2.8-3.8,2.6c-1.7-0.2-2.5-1.1-2.6-2.8
						C-217.6,109.3-217.6,108.4-217.7,107.5C-217.6,107.5-217.6,107.5-217.7,107.5z M-213.1,107.6c0-0.7,0-1.4,0-2.1
						c0-0.8-0.6-0.9-1.3-0.9c-0.6,0-1.2,0.2-1.2,0.9c0,1.4,0,2.7,0,4.1c0,0.7,0.5,0.9,1.2,0.9c0.6,0,1.2-0.1,1.3-0.9
						C-213.1,108.9-213.1,108.3-213.1,107.6z"/>
					<path class="st0" d="M-224.9,105.5c-0.7,0-1.3,0-1.9,0c0-0.8-0.4-1.1-1.2-1.1c-0.6,0.1-0.9,0.2-0.9,0.8c0,0.7,0.2,1,0.9,1
						c0.4,0,0.8,0.1,1.1,0.1c1.5,0.2,2,0.7,2.1,2.2c0,0.7,0,1.3,0,2c-0.1,1.4-0.7,2-2.1,2.3c-0.2,0-0.5,0.1-0.8,0.1
						c-2.5,0-3.4-0.9-3.2-3.6c0.6,0,1.1,0,1.7,0c0,0.8,0.4,1.2,1.3,1.2c0.9-0.1,1.4-0.6,1-1.5c-0.1-0.2-0.3-0.3-0.5-0.4
						c-0.6-0.1-1.3-0.2-1.9-0.3c-0.9-0.1-1.5-0.7-1.5-1.5c-0.1-1.1-0.1-2.1,0-3.2c0.1-1,0.7-1.5,1.7-1.6c0.7-0.1,1.5-0.1,2.2,0
						c1,0.1,1.5,0.7,1.6,1.5C-225,104.2-225,104.8-224.9,105.5z"/>
					<path class="st0" d="M-207.9,110.1c0,1,0,1.8,0,2.7c-0.7,0-1.2,0-1.9,0c0-3.5,0-7.1,0-10.6c1.4,0,2.8-0.1,4.2,0
						c0.9,0.1,1.4,0.8,1.5,1.7c0.1,1.6,0.1,3.1,0,4.7c-0.1,1.1-0.8,1.5-1.9,1.5C-206.6,110.1-207.1,110.1-207.9,110.1z
						 M-207.9,104.7c0,0.7,0,1.5,0,2.2c0,0.2,0.2,0.7,0.3,0.7c0.6,0,1.3,0.3,1.6-0.4c0.7-1.5-0.1-2.7-1.7-2.6
						C-207.6,104.6-207.7,104.7-207.9,104.7z"/>
					<path class="st0" d="M-222.1,104.6c-0.7,0-1.2,0-1.8,0c0-0.9,0-1.6,0-2.4c1.8,0,3.7,0,5.5,0c0,0.8,0,1.6,0,2.4
						c-0.6,0-1.1,0-1.8,0c0,2.8,0,5.5,0,8.2c-0.7,0-1.3,0-1.9,0C-222.1,110.1-222.1,107.4-222.1,104.6z"/>
					<path class="st0" d="M-233.8,87.5c1.3,0,2.4,0.5,3.2,1.7c0.4,0.6,0.9,1.1,1.3,1.6c0.6,0.8,0.4,1.7,0.2,2.6
						c-0.7,2.5-3.3,4-6,3.4c-2.5-0.5-4.2-2.8-3.9-5.4c0-0.1,0-0.2,0.1-0.3C-238.4,89.3-235.8,87.5-233.8,87.5z"/>
					<path class="st0" d="M-227.2,90.4c-1.2-0.2-2.1-0.8-2.7-1.8c-2.1-3-6.1-3-8.3,0c-0.6,0.8-1.2,1.5-2.2,1.8
						c-0.4-2.1,2.3-4.9,5.2-5.3C-230.9,84.5-227.9,87.1-227.2,90.4z"/>
					<path class="st0" d="M-200.7,87.5c1.2,0,2.3,0.5,3.2,1.6c0.4,0.6,1.1,1.1,1.4,1.7c0.3,0.7,0.4,1.5,0.3,2.3
						c-0.4,2.5-3.2,4.3-5.7,3.8c-2.9-0.5-4.7-2.8-4.2-5.5c0-0.1,0-0.2,0-0.2C-205.3,89.4-202.7,87.5-200.7,87.5z"/>
					<path class="st0" d="M-194,90.4c-1.3-0.2-2.1-0.9-2.8-1.8c-2-2.8-6.1-2.8-8.1-0.1c-1,1.3-1.3,1.6-2.3,1.9
						c-0.4-2.1,2.3-4.9,5.2-5.4C-198.4,84.3-194.6,86.8-194,90.4z"/>
					<path d="M-232,47.6c0.3,0.2,0.5,0.4,0.7,0.6c0.1,0.1,0.3,0.3,0.4,0.5c-0.2,0.2-0.4,0.4-0.6,0.6c-0.4-0.4-0.8-0.7-1.3-1.1
						C-232.5,48-232.3,47.8-232,47.6z"/>
					<path d="M-227,71.5c-0.2,0.1-0.3,0.2-0.5,0.3c-0.2,0.2-0.4,0.3-0.6,0.6c-0.2-0.2-0.4-0.4-0.7-0.6
						C-227.9,70.6-227.4,70.5-227,71.5z"/>
					<path d="M-221.7,68.1c-0.6,0.5-1.1,1.1-1.5,1c-0.5-0.1-0.9-0.7-1.3-1.1c0.4-0.4,0.8-1.1,1.2-1
						C-222.7,66.9-222.3,67.6-221.7,68.1z"/>
					<path d="M-212.2,66.1c0.4,0.3,0.7,0.6,1,0.9c-0.6,0.8-0.6,0.8-1.6-0.3C-212.6,66.5-212.4,66.3-212.2,66.1z"/>
					<path d="M-201.3,76.2c0.3,0.4,0.8,0.8,0.9,1.3c0,0.3-0.6,0.9-1,1c-0.4,0-0.9-0.4-1.5-0.7C-202.3,77.1-201.9,76.7-201.3,76.2z"
						/>
					<path d="M-228.8,52.6c0.1-0.1,0.2-0.2,0.3-0.2c0.3-0.1,0.7-0.3,1.2-0.5c-0.2,0.5-0.4,1-0.6,1.5
						C-228.3,53.1-228.5,52.8-228.8,52.6z"/>
					<path d="M-208.8,69.3c0.4,0.5,1.1,1,1,1.2c-0.2,0.5-0.7,1-1.2,1.2c-0.2,0.1-1.1-0.8-1-0.9C-209.8,70.2-209.3,69.8-208.8,69.3z"
						/>
					<path d="M-204.4,73.3c-0.3,0.6-0.5,1-0.7,1.5c-0.3-0.2-0.5-0.4-0.8-0.7C-205.4,73.8-205,73.6-204.4,73.3z"/>
					<path d="M-213.1,107.6c0,0.7,0,1.3,0,2c0,0.8-0.6,0.9-1.3,0.9c-0.6,0-1.2-0.2-1.2-0.9c0-1.4,0-2.7,0-4.1c0-0.7,0.6-0.9,1.2-0.9
						c0.6,0,1.2,0.1,1.3,0.9C-213.1,106.2-213.1,106.9-213.1,107.6z"/>
					<path d="M-207.9,104.7c0.2-0.1,0.2-0.1,0.3-0.1c1.6-0.1,2.4,1.1,1.7,2.6c-0.3,0.7-1.1,0.4-1.6,0.4c-0.1,0-0.3-0.4-0.3-0.7
						C-207.9,106.2-207.9,105.5-207.9,104.7z"/>
				</g>
			</g>
			<path d="M-208.9,187.9h-17.3c-0.7,0-1.3-0.6-1.3-1.3v-10.4c0-0.7,0.6-1.3,1.3-1.3h17.3c0.7,0,1.3,0.6,1.3,1.3v10.4
				C-207.5,187.3-208.2,187.9-208.9,187.9z"/>
			<rect x="-220.2" y="120.1" width="5.3" height="54.7"/>
		</g>
		<path d="M-224.3,158.9h-4c-2.7,0-5-2.2-5-5v-10.6c0-2.7,2.2-5,5-5h4c2.7,0,5,2.2,5,5V154C-219.3,156.7-221.5,158.9-224.3,158.9z"
			/>
	</g>
	<g id="Post_copy_5">
	</g>
	<path class="st4" d="M-237.8,89c0,0-3.3,2.4-0.4,6.1c2.8,3.5,6.5,1.6,7.4,0.8c0.9-0.8,3.2-2.4,1.2-5.6s-3.7-3-4.3-3
		C-234.3,87.3-235.3,86.8-237.8,89z"/>
	<path class="st1" d="M-204.7,89.3c0,0-3.3,2-0.4,5.6c2.9,3.7,6.5,1.8,7.3,1c0.9-0.8,3.2-2.4,1.2-5.6s-3.7-3.1-4.3-3
		C-201.3,87.4-202.7,87.4-204.7,89.3z"/>
</g>
<g id="Gate_Right" class="st2">
	<g class="st5">
		<g>
			<g>
				<path d="M61.2,207.9c-1.3-1.5-3.3-1.5-4.4,0.1c0,0-10.1,13.8-10.9,14.4H24.5c-2,0-3.6,1.6-3.6,3.6v3.6c0,2,1.6,3.6,3.6,3.6
					l20.8,0.2c2,0,4.6-1.3,5.8-2.8l11.7-15.5c1.2-1.6,1.1-4.1-0.1-5.6L61.2,207.9z"/>
			</g>
			<circle class="st6" cx="58.9" cy="212.5" r="3.4"/>
		</g>
		<g>
			<rect x="-211.4" y="225" width="236.8" height="5.8"/>
			<g>
				<polygon class="st0" points="-156.4,225.5 -160.3,230.2 -186.6,230.2 -182.7,225.5 				"/>
				<polygon class="st0" points="-103.8,225.5 -107.8,230.2 -134.1,230.2 -130.1,225.5 				"/>
				<polygon class="st0" points="-51.5,225.5 -55.5,230.2 -81.8,230.2 -77.8,225.5 				"/>
				<polygon class="st0" points="0.7,225.6 -3.3,230.2 -29.5,230.2 -25.6,225.6 				"/>
			</g>
		</g>
	</g>
</g>
<g id="Gate_Left" class="st2">
</g>
<g id="Right_Light_On" class="st2">
	<g id="Layer_1_copy" class="st5">
	</g>
	<g id="Post_copy" class="st5">
	</g>
</g>
<g id="Left_Light_On">
	<g id="Layer_1_copy_2" class="st2">
	</g>
	<g id="Post_copy_2">
	</g>
</g>
<g id="Right_Light_On_copy">
	<g id="Layer_1_copy_4">
	</g>
	<g id="Light_copy_3">
	</g>
	<g id="Post_copy_4">
	</g>
</g>
<g id="Left_Light_On_copy">
	<g id="Layer_1_copy_3">
	</g>
	<g id="Light_copy_2">
	</g>
	<g id="Post_copy_3">
	</g>
</g>
</svg>
