<?xml version="1.0" encoding="utf-8"?>
<!-- Generator: Adobe Illustrator 19.1.0, SVG Export Plug-In . SVG Version: 6.00 Build 0)  -->
<svg version="1.1" xmlns="http://www.w3.org/2000/svg" xmlns:xlink="http://www.w3.org/1999/xlink" x="0px" y="0px"
	 viewBox="0 0 360 360" style="enable-background:new 0 0 360 360;" xml:space="preserve">
<style type="text/css">
	.st0{fill:#FFFFFF;}
	.st1{fill:#ED1F24;}
	.st2{display:none;}
	.st3{display:inline;fill:#ED1F24;}
	.st4{display:none;fill:#ED1F24;}
	.st5{display:inline;}
	.st6{fill:#898989;}
</style>
<g id="No_Lights_Crossing">
	<g id="Layer_1">
		<g>
			<g>
				<g>
					<path class="st0" d="M376.5122,95.6664c-31.5547,0-63.1093,0-94.664,0c0-31.5547,0-63.1094,0-94.664
						c31.5547,0,63.1094,0,94.664,0C376.5122,32.5571,376.5122,64.1117,376.5122,95.6664z M353.8785,46.2548
						c-5.94-5.5585-11.8248-11.0653-17.755-16.6147c5.947-5.2936,11.8286-10.529,17.7577-15.8067
						c-2.1461-2.073-4.1964-4.0536-6.2936-6.0793c-5.8603,5.2116-11.8396,10.529-17.8724,15.894
						c-5.9688-5.5806-11.9018-11.1276-17.8602-16.6985c-2.0908,2.0206-4.1605,4.0208-6.2919,6.0808
						c5.8795,5.5006,11.7016,10.9475,17.5888,16.4554c-6.1534,5.4766-12.2802,10.9295-18.4639,16.433
						c2.1346,2.0482,4.2054,4.0352,6.3163,6.0606c6.1007-5.425,12.3138-10.95,18.5547-16.4997
						c6.0324,5.6397,12.0077,11.2259,18.0327,16.8587C349.7003,50.2979,351.7645,48.3005,353.8785,46.2548z M329.0697,90.2388
						c4.4615,0,8.9231-0.0113,13.3845,0.0042c2.7222,0.0095,4.9751-2.2267,4.8799-4.8422c-0.1029-2.8248-0.1258-5.661,0.0073-8.4833
						c0.1186-2.5154-1.8176-4.9936-4.9115-5.0093c-8.8936-0.0452-17.7877-0.0378-26.6814-0.0035
						c-2.9275,0.0113-4.9238,2.0938-4.9348,4.9932c-0.0106,2.7993-0.0131,5.5988,0.0008,8.3981
						c0.0143,2.9039,2.0632,4.9392,4.9583,4.9418C320.205,90.2418,324.6374,90.2388,329.0697,90.2388z M320.7632,58.1273
						c0.8013,2.9284,0.9117,5.7057-0.1501,8.5896c1.7305,0,3.3166,0,4.9144,0c0.0336,0.4906,0.0589,0.8608,0.0865,1.2636
						c2.6117,0,5.1866,0,7.7813,0c0.0397-0.4453,0.0743-0.8337,0.1157-1.2973c1.6073,0,3.1412,0,4.8137,0
						c-1.0445-2.865-0.9236-5.6599-0.1267-8.5761c-1.6501,0-3.1757,0-4.7198,0c-0.0278-0.5927-0.0504-1.073-0.0732-1.5609
						c-2.6527,0-5.2042,0-7.7861,0c-0.0331,0.532-0.063,1.0137-0.0983,1.5811C323.9652,58.1273,322.4602,58.1273,320.7632,58.1273z
						 M320.3963,62.4556c-0.0322-0.5222-0.0205-1.052-0.1086-1.5647c-0.0927-0.5394-0.2427-1.0766-0.4331-1.5905
						c-1.6394-4.4242-6.0771-6.8773-11.0971-6.1499c-5.6875,0.8241-9.4285,6.7308-7.6272,12.0745
						c1.3169,3.9063,5.3012,6.8536,10.3409,6.504C316.3361,71.3916,320.3177,67.3237,320.3963,62.4556z M348.697,71.7722
						c0.4808-0.0619,1.2687-0.1105,2.0334-0.2702c5.9167-1.2354,9.1729-7.5432,6.6979-12.9445
						c-1.8629-4.0657-6.7652-6.3814-11.2517-5.3152c-4.3905,1.0435-7.5315,4.6375-7.6308,8.7313
						C338.4136,67.4242,342.7619,71.7494,348.697,71.7722z M332.2706,54.9724c0.0608-0.1833,0.1107-0.2635,0.1108-0.3438
						c0.0067-4.6618,0.0116-9.3236,0.0043-13.9854c-0.0003-0.1848-0.0645-0.4316-0.192-0.5442
						c-0.8868-0.7831-1.7983-1.5383-2.7359-2.3313c-0.9915,0.8286-1.9546,1.58-2.8448,2.4096
						c-0.274,0.2553-0.4881,0.7226-0.4927,1.0957c-0.0334,2.709-0.0067,5.4188,0.0022,8.1283
						c0.0051,1.5732-0.0121,3.1473,0.041,4.7189c0.0098,0.289,0.3007,0.8095,0.4747,0.8149
						C328.5215,54.9947,330.4076,54.9724,332.2706,54.9724z M329.485,21.6448c0.433-0.37,0.7597-0.7133,1.1452-0.9673
						c1.4025-0.9242,2.1121-2.134,1.7733-3.8623c-0.1381-0.7044,0.0059-1.524-0.3046-2.1219
						c-0.6187-1.1912-1.8896-1.0958-3.0172-1.0741c-1.0183,0.0196-2.2858,0.0401-2.587,1.1754
						c-0.3251,1.2249-0.1807,2.576-0.218,3.8728c-0.0031,0.108,0.1573,0.2346,0.2625,0.3297
						C327.5085,19.8737,328.4826,20.7452,329.485,21.6448z M332.3446,95.3675c0-1.4581,0-2.7245,0-4.0019
						c-2.0607,0-4.0706,0-6.0683,0c0,1.3661,0,2.6608,0,4.0019C328.3298,95.3675,330.3163,95.3675,332.3446,95.3675z
						 M332.3431,69.0692c-2.0604,0-4.0681,0-6.0633,0c0,0.6768,0,1.2694,0,1.8684c2.0602,0,4.0498,0,6.0633,0
						C332.3431,70.2891,332.3431,69.6947,332.3431,69.0692z"/>
					<path d="M353.8785,46.2548c-2.114,2.0457-4.1782,4.0431-6.2869,6.0836c-6.025-5.6328-12.0002-11.219-18.0327-16.8587
						c-6.241,5.5498-12.454,11.0747-18.5547,16.4997c-2.1109-2.0254-4.1817-4.0125-6.3163-6.0606
						c6.1836-5.5035,12.3105-10.9564,18.4639-16.433c-5.8872-5.5078-11.7093-10.9547-17.5888-16.4554
						c2.1315-2.06,4.2011-4.0602,6.2919-6.0808c5.9585,5.5709,11.8914,11.1179,17.8602,16.6985
						c6.0328-5.365,12.0121-10.6825,17.8724-15.894c2.0972,2.0258,4.1475,4.0063,6.2936,6.0793
						c-5.929,5.2776-11.8107,10.5131-17.7577,15.8067C342.0538,35.1895,347.9385,40.6963,353.8785,46.2548z M342.2134,19.9774
						c-1.173-0.3923-2.0973-0.7192-3.0346-1.0029c-0.2503-0.0758-0.6271-0.1326-0.7973-0.003
						c-0.6382,0.4859-1.215,1.0525-1.8786,1.646c1.1201,1.0617,2.1718,2.0585,3.2526,3.083
						c0.3345-0.2938,0.7197-0.6321,1.2155-1.0674c-0.7567-0.7764-1.443-1.4805-2.1285-2.184
						c0.8857,0.309,1.7806,0.6399,2.6896,0.9262c0.2517,0.0793,0.636,0.1427,0.8036,0.0126
						c0.655-0.5083,1.2476-1.0971,1.8332-1.6286c-1.0976-1.0952-2.1194-2.1147-3.1699-3.1629
						c-0.3641,0.3356-0.7384,0.6806-1.1951,1.1016C340.5974,18.4486,341.311,19.1237,342.2134,19.9774z M311.1328,13.95
						c1.3821,1.0143,1.4208,1.141,0.6311,2.1107c0.3964,0.3572,0.7946,0.716,1.345,1.2119
						c0.3287-0.6187,0.5979-1.1254,0.9078-1.7088c0.6002,0.1438,1.1779-0.2243,1.5192-0.8955
						c0.372-0.7317-0.1019-1.2856-0.5846-1.7597c-0.8463-0.8312-1.7273-1.6271-2.6375-2.4787
						c-1.0157,1.1041-2.01,2.1851-3.0332,3.2973c0.2514,0.2294,0.6458,0.5894,1.0551,0.9628
						C310.6299,14.4169,310.8619,14.2016,311.1328,13.95z M346.9903,15.0756c0.0955,0.0488,0.191,0.0977,0.2866,0.1465
						c-0.1419,0.2802-0.2184,0.6409-0.441,0.8217c-0.334,0.2713-0.9391,0.6845-1.131,0.5638
						c-0.5307-0.3339-1.1291-0.8618-1.2566-1.4154c-0.0702-0.3046,0.7116-0.8744,1.1868-1.2172
						c0.5198-0.375,1.1289-0.626,1.7545-0.9607c-0.7018-0.7567-1.2981-0.7271-1.8907-0.3281
						c-0.456,0.307-0.8858,0.6579-1.3014,1.019c-1.8964,1.6482-1.8828,2.45,0.0349,4.0847
						c0.5248,0.4474,1.1544,0.5918,1.6815,0.2038c0.9489-0.6984,1.8382-1.4884,2.6873-2.3076
						c0.4197-0.4049,0.369-0.9607-0.013-1.4278c-0.2705-0.3308-0.5646-0.6424-0.9072-1.0293
						c-0.7206,0.646-1.3846,1.2412-2.091,1.8744c0.2061,0.2277,0.3885,0.4294,0.5722,0.6324
						C346.4947,15.4706,346.7425,15.2731,346.9903,15.0756z M314.309,40.323c1.146,1.0968,2.1889,2.0949,3.2485,3.109
						c0.1321-0.1074,0.3291-0.2805,0.5397-0.4351c0.2089-0.1534,0.4315-0.2881,0.6642-0.4416
						c-0.3688-0.4126-0.5935-0.6639-0.813-0.9094c1.1631-1.2875,1.1631-1.2875,2.189-0.4912
						c0.3738-0.337,0.7557-0.6813,1.3094-1.1805c-0.6464-0.3555-1.1745-0.6459-1.7762-0.9768
						c0.0673-0.6087-0.1497-1.046-0.8127-1.4409c-0.6059-0.3609-1.1385-0.145-1.6032,0.2375
						C316.2711,38.6034,315.3194,39.4515,314.309,40.323z M322.5253,38.6931c0.6083-0.428,1.4199-0.88,2.0859-1.4908
						c1.6659-1.5277,1.6391-2.1329,0.011-3.6751c-0.7232-0.6851-1.3751-0.816-2.2014-0.2625
						c-0.6953,0.4657-1.3287,1.04-1.9263,1.6302c-0.5028,0.4966-0.9881,1.1323-0.5215,1.8544
						C320.5178,37.5922,321.1407,38.4245,322.5253,38.6931z M334.0199,24.9745c-0.7634-0.8172-1.3801-0.8089-1.9473-0.3677
						c-0.7101,0.5525-1.3893,1.1542-2.0216,1.7942c-0.4987,0.5048-0.6327,1.0925-0.0713,1.7014
						c0.5471,0.5935,1.1337,0.6745,1.7785,0.2131c0.5442-0.3894,1.0543-0.8266,1.6014-1.2115
						c0.1295-0.0911,0.3468-0.0572,0.5237-0.0808c-0.0144,0.2038,0.0505,0.4842-0.0583,0.5967
						c-0.2992,0.3093-0.693,0.7951-1.0102,0.7671c-0.846-0.0747-1.0799,0.5817-1.5886,0.9383
						c0.7328,0.6356,1.1494,0.7712,1.7397,0.3185c0.8259-0.6332,1.5943-1.3547,2.3139-2.1085
						c0.4413-0.4622,0.4637-1.0347-0.0161-1.5687c-0.5102-0.5679-1.0782-0.6762-1.7043-0.2559
						c-0.5305,0.3561-1.0122,0.785-1.5432,1.1403c-0.2081,0.1392-0.4915,0.1659-0.7406,0.2438
						c-0.0556-0.1062-0.1113-0.2124-0.1669-0.3186c0.4069-0.3381,0.7834-0.7253,1.229-1.001
						C332.8275,25.4725,333.3808,25.2723,334.0199,24.9745z M329.1851,29.2548c-0.7177-0.7607-1.3415-0.8005-1.9027-0.3716
						c-0.7597,0.5806-1.475,1.2316-2.1403,1.9191c-0.4522,0.4672-0.4729,1.0506-0.0092,1.577
						c0.461,0.5232,1.0174,0.6797,1.634,0.3206c0.3998-0.2329,0.7437-0.5598,1.1337-0.812c0.3493-0.2258,0.7249-0.4123,1.099-0.5952
						c0.0232-0.0113,0.208,0.2222,0.1956,0.2366c-0.3166,0.3669-0.6459,0.7232-0.9832,1.0714
						c-0.0544,0.0561-0.1591,0.0612-0.2372,0.097c-0.5381,0.2463-1.0754,0.4944-1.6912,0.778
						c0.6423,0.7702,1.2756,0.8843,1.8435,0.4553c0.8297-0.6268,1.6026-1.3431,2.3244-2.0937
						c0.4703-0.4891,0.5005-1.0635-0.0491-1.6199c-0.543-0.5497-1.0796-0.6374-1.7027-0.1935
						c-0.4031,0.2872-0.7833,0.6103-1.2042,0.8675c-0.3122,0.1907-0.6733,0.3014-1.0127,0.4477
						c0.2196-0.3537,0.4263-0.7165,0.6664-1.0557c0.0749-0.1058,0.2365-0.1547,0.3644-0.2175
						C328.0352,29.8095,328.5591,29.558,329.1851,29.2548z M336.4275,36.5279c0.6948,0.2126,1.1954-0.3675,1.5535-1.0044
						c0.3662-0.6513-0.1001-1.1672-0.5477-1.6026c-0.7471-0.7267-1.5167-1.4303-2.3813-2.2416
						c-1.0276,1.135-2.0123,2.2225-3.013,3.3277c0.2503,0.2302,0.5895,0.542,0.927,0.8524
						c0.3404-0.2636,0.6312-0.4888,0.9121-0.7064c1.1651,0.9993,1.1651,0.9993,0.4398,1.9731
						c0.3396,0.3224,0.6855,0.6508,1.1759,1.1163C335.8339,37.618,336.111,37.1091,336.4275,36.5279z M344.3744,46.5629
						c0.5108,0.4802,1.0808,1.0134,1.6479,1.5496c1.6914,1.5993,2.2658,1.5863,3.8689-0.0912
						c0.0601-0.0628,0.1218-0.1243,0.1786-0.19c0.5307-0.6147,0.5734-1.2871,0.0594-1.8921
						c-0.8021-0.9441-1.6712-1.8314-2.5674-2.8029C346.3896,44.3964,345.4054,45.4545,344.3744,46.5629z M317.9543,21.8371
						c0.3946-0.9482,0.7421-1.7784,1.0858-2.6101c0.7997-1.9355,0.8017-1.9392-0.8212-3.266
						c-0.1355-0.1108-0.3808-0.2315-0.5117-0.1815c-1.4428,0.5505-2.873,1.134-4.5273,1.7969
						c0.6794,0.4392,1.1643,1.0111,1.6621,1.0225c1.1554,0.0266,2.1795,1.0249,1.8749,2.1277
						C317.0925,21.0636,317.4785,21.4101,317.9543,21.8371z M342.0671,39.1442c-0.0312-0.2417-0.0096-0.4074-0.0745-0.5256
						c-0.6347-1.1563-1.5078-2.0957-2.7731-2.5202c-1.042-0.3497-1.5362,0.5948-2.1815,1.1381
						c-0.0886,0.0746-0.1669,0.1622-0.2455,0.2479c-0.5038,0.5493-0.5713,1.1977-0.1327,1.7511
						c0.5178,0.6532,1.1339,1.2443,1.778,1.7767c0.505,0.4175,1.173,0.6678,1.7764,0.2346
						C341.001,40.6818,341.85,40.1244,342.0671,39.1442z M315.1088,43.1655c-0.36,0.482-0.8353,0.8753-0.9683,1.3622
						c-0.1431,0.5238-0.7092,1.5268-1.1179,1.3332c-0.558-0.2644-1.0879-0.7723-1.3763-1.3115
						c-0.0884-0.1653,0.7003-1.1496,1.0094-1.1123c0.9448,0.1139,1.186-0.6231,1.7348-0.9957
						c-0.7599-0.8001-1.1719-0.8824-1.9813-0.3424c-0.4322,0.2884-0.8325,0.633-1.2133,0.9885
						c-1.7063,1.593-1.6803,2.3436,0.1085,3.851c0.0444,0.0374,0.0926,0.0702,0.1379,0.1065
						c0.5314,0.4259,1.1613,0.5457,1.6956,0.1604c0.8397-0.6054,1.661-1.2684,2.3604-2.0266
						C316.0988,44.5277,315.9516,43.9572,315.1088,43.1655z M339.8023,42.2558c0.6068,0.4147,0.731,1.2037,1.7444,0.9252
						c0.3561-0.0979,0.9933,0.8272,1.5021,1.2851c-0.5533,0.9745,0.4653,1.0856,0.8579,1.6902
						c0.6972-1.5012,1.3409-2.8871,1.9971-4.2999c-0.4657-0.4423-0.8915-0.88-1.3574-1.2697
						c-0.1494-0.1249-0.4492-0.2283-0.6046-0.1627C342.591,40.994,341.2574,41.6049,339.8023,42.2558z M323.5908,21.1245
						c-1.0505,1.0962-2.0494,2.1386-3.0945,3.2293c0.9983,0.9248,2.0132,1.8651,3.0856,2.8587
						c0.291-0.2694,0.5164-0.478,0.7957-0.7365c-0.6956-0.6468-1.2889-1.1985-2.0687-1.9235
						c0.8519-0.7599,1.6884-1.5061,2.5594-2.2831C324.4287,21.8753,324.0636,21.5481,323.5908,21.1245z M334.13,22.7272
						c1.0796,1.0618,2.1203,2.0853,3.2024,3.1496c0.3375-0.3112,0.7084-0.6534,1.1198-1.0328
						c-1.1294-1.0631-2.1803-2.0523-3.2574-3.0662C334.8911,22.0486,334.5064,22.3917,334.13,22.7272z M319.7086,23.507
						c1.0281-1.0956,2.0121-2.1441,3.0481-3.2482c-0.2786-0.2619-0.6675-0.6273-1.1102-1.0435
						c-1.033,1.0996-2.018,2.1482-3.0446,3.241C318.932,22.7698,319.3024,23.1213,319.7086,23.507z"/>
					<path d="M329.0697,90.2388c-4.4323,0-8.8647,0.0029-13.297-0.001c-2.8951-0.0026-4.9439-2.0379-4.9583-4.9418
						c-0.0138-2.7993-0.0114-5.5988-0.0008-8.3981c0.011-2.8994,2.0073-4.9819,4.9348-4.9932
						c8.8937-0.0343,17.7878-0.0418,26.6814,0.0035c3.0939,0.0157,5.0301,2.4939,4.9115,5.0093
						c-0.1331,2.8223-0.1102,5.6585-0.0073,8.4833c0.0952,2.6155-2.1577,4.8517-4.8799,4.8422
						C337.9928,90.2275,333.5312,90.2388,329.0697,90.2388z M329.164,81.0021c0.0343,0.0017,0.0686,0.0034,0.1029,0.0051
						c0,0.9906-0.0495,1.9843,0.0104,2.9713c0.1204,1.9844,1.1016,3.0184,2.992,3.2504c2.4945,0.3062,4.147-0.7189,4.3021-2.9252
						c0.1546-2.2004,0.1109-4.4233,0.0117-6.63c-0.0682-1.5167-0.9782-2.594-2.2089-2.7974
						c-0.7901-0.1306-1.6192-0.1276-2.4209-0.0623c-1.4337,0.1167-2.3061,0.9806-2.5112,2.3677
						C329.256,78.4413,329.2497,79.7275,329.164,81.0021z M320.8823,78.652c-0.0764-0.7363-0.0912-1.4305-0.2314-2.0984
						c-0.2095-0.9985-0.7941-1.6992-1.8838-1.7574c-0.8366-0.0447-1.6855-0.0687-2.5154,0.0219
						c-1.2088,0.1321-1.8506,0.6743-1.9794,1.8487c-0.1318,1.2013-0.1284,2.4366-0.0108,3.6401
						c0.0944,0.966,0.7046,1.632,1.7664,1.7483c0.7213,0.079,1.4433,0.1707,2.1548,0.3094
						c0.2133,0.0416,0.4945,0.2194,0.5697,0.4054c0.4118,1.019-0.0815,1.6577-1.1688,1.7329
						c-1.0251,0.0709-1.4384-0.4131-1.4584-1.3427c-0.7035,0-1.3558,0-1.9995,0c-0.2878,3.0203,0.7227,4.1402,3.6233,4.0832
						c0.2887-0.0057,0.5794-0.0466,0.8641-0.0989c1.6079-0.2955,2.266-0.9886,2.3974-2.6178
						c0.0607-0.7522,0.054-1.5158,0.0053-2.2695c-0.1121-1.7358-0.6474-2.2872-2.3796-2.539
						c-0.4312-0.0627-0.864-0.1402-1.2979-0.1537c-0.7757-0.0242-1.0727-0.3979-1.0489-1.1636
						c0.0233-0.7474,0.4439-0.8815,1.0738-0.9515c0.9307-0.1035,1.3688,0.2775,1.3702,1.2027
						C319.4431,78.652,320.0997,78.652,320.8823,78.652z M340.38,83.9641c0.8295,0,1.4955,0.0108,2.161-0.0023
						c1.2706-0.0251,2.1158-0.5474,2.2195-1.767c0.1515-1.7817,0.1191-3.5916-0.0005-5.3785
						c-0.0622-0.93-0.6703-1.8085-1.6732-1.8897c-1.6063-0.1302-3.2309-0.0349-4.8391-0.0349c0,4.0961,0,8.133,0,12.1788
						c0.7195,0,1.3793,0,2.1323,0C340.38,86.0475,340.38,85.0657,340.38,83.9641z M324.0317,77.6753c0,3.2263,0,6.3027,0,9.4044
						c0.7459,0,1.4079,0,2.1939,0c0-3.1326,0-6.2325,0-9.4347c0.7739,0,1.4279,0,2.0829,0c0-0.9922,0-1.8778,0-2.7721
						c-2.149,0-4.2335,0-6.3455,0c0,0.9395,0,1.8271,0,2.8025C322.6357,77.6753,323.2623,77.6753,324.0317,77.6753z"/>
					<path d="M320.7632,58.1273c1.697,0,3.202,0,4.7572,0c0.0353-0.5674,0.0652-1.0491,0.0983-1.5811c2.5819,0,5.1334,0,7.7861,0
						c0.0229,0.4879,0.0454,0.9682,0.0732,1.5609c1.5442,0,3.0697,0,4.7198,0c-0.7969,2.9162-0.9178,5.711,0.1267,8.5761
						c-1.6724,0-3.2064,0-4.8137,0c-0.0413,0.4635-0.076,0.852-0.1157,1.2973c-2.5947,0-5.1697,0-7.7813,0
						c-0.0276-0.4028-0.0529-0.773-0.0865-1.2636c-1.5978,0-3.1839,0-4.9144,0C321.6749,63.833,321.5645,61.0558,320.7632,58.1273z"
						/>
					<path d="M320.3963,62.4556c-0.0786,4.8681-4.0602,8.936-8.925,9.2734c-5.0397,0.3495-9.024-2.5977-10.3409-6.504
						c-1.8013-5.3436,1.9396-11.2504,7.6272-12.0745c5.02-0.7274,9.4577,1.7257,11.0971,6.1499
						c0.1904,0.5139,0.3405,1.0511,0.4331,1.5905C320.3758,61.4036,320.3641,61.9334,320.3963,62.4556z M310.6553,58.0249
						c-2.2953-0.0068-5.1906,2.152-5.8181,4.1986c-0.0338,0.1101-0.0498,0.2268-0.0643,0.3416
						c-0.3715,2.9366,1.5351,5.5836,4.4361,6.1608c3.101,0.6169,6.1089-1.0894,6.8626-3.9441
						c0.258-0.9772,0.4675-2.0141-0.1982-2.9302c-0.4763-0.6555-1.0888-1.2146-1.5438-1.8827
						C313.3899,58.5889,312.1023,57.9787,310.6553,58.0249z M318.2843,61.3401c-0.8763-3.7607-4.2844-6.7358-9.2238-6.0433
						c-3.3154,0.4648-6.3468,3.6079-5.9318,6.0394c1.1537-0.2954,1.8667-1.1206,2.5305-2.021
						c2.4954-3.3852,7.0744-3.378,9.4959,0.0199C315.9158,60.4026,316.8828,61.1214,318.2843,61.3401z"/>
					<path d="M348.697,71.7722c-5.935-0.0228-10.2834-4.348-10.1512-9.7985c0.0993-4.0938,3.2403-7.6878,7.6308-8.7313
						c4.4865-1.0663,9.3888,1.2495,11.2517,5.3152c2.475,5.4013-0.7812,11.7091-6.6979,12.9445
						C349.9657,71.6617,349.1777,71.7103,348.697,71.7722z M348.5997,58.0248c-2.2568-0.0068-5.2947,2.2454-5.8335,4.1839
						c-0.0231,0.0831-0.0186,0.1734-0.0327,0.2595c-0.505,3.0948,1.5013,5.7322,4.8203,6.3358
						c2.8903,0.5256,6.0381-1.5189,6.5039-4.3502c0.1368-0.8318,0.0298-1.8046-0.2877-2.581
						c-0.3036-0.7424-1.0715-1.2815-1.5553-1.9665C351.2755,58.5765,350.0116,57.973,348.5997,58.0248z M356.2231,61.3321
						c-0.6753-4.0446-5.0188-6.9463-9.1504-6.2083c-3.3909,0.6057-6.4499,3.7555-5.9957,6.1738
						c1.1203-0.331,1.4997-0.6413,2.6272-2.1492c2.3633-3.1605,7.0071-3.1323,9.2925,0.0726
						C353.7868,60.3289,354.7519,61.1263,356.2231,61.3321z"/>
					<path d="M332.2706,54.9724c-1.863,0-3.749,0.0223-5.6325-0.0371c-0.174-0.0055-0.465-0.5259-0.4747-0.8149
						c-0.053-1.5717-0.0358-3.1457-0.041-4.7189c-0.0089-2.7095-0.0356-5.4193-0.0022-8.1283
						c0.0046-0.3731,0.2187-0.8404,0.4927-1.0957c0.8902-0.8296,1.8533-1.581,2.8448-2.4096
						c0.9376,0.793,1.8491,1.5482,2.7359,2.3313c0.1275,0.1126,0.1917,0.3593,0.192,0.5442
						c0.0073,4.6618,0.0025,9.3236-0.0043,13.9854C332.3813,54.7089,332.3314,54.7891,332.2706,54.9724z"/>
					<path d="M329.485,21.6448c-1.0025-0.8997-1.9765-1.7712-2.946-2.6477c-0.1052-0.0951-0.2656-0.2217-0.2625-0.3297
						c0.0373-1.2967-0.1071-2.6478,0.218-3.8728c0.3013-1.1353,1.5688-1.1558,2.587-1.1754
						c1.1277-0.0217,2.3985-0.1171,3.0172,1.0741c0.3105,0.5978,0.1665,1.4175,0.3046,2.1219
						c0.3389,1.7283-0.3708,2.9381-1.7733,3.8623C330.2447,20.9315,329.918,21.2748,329.485,21.6448z"/>
					<path d="M332.3446,95.3675c-2.0284,0-4.0149,0-6.0683,0c0-1.3411,0-2.6359,0-4.0019c1.9977,0,4.0076,0,6.0683,0
						C332.3446,92.643,332.3446,93.9094,332.3446,95.3675z"/>
					<path d="M332.3431,69.0692c0,0.6255,0,1.2199,0,1.8684c-2.0134,0-4.003,0-6.0633,0c0-0.599,0-1.1916,0-1.8684
						C328.275,69.0692,330.2827,69.0692,332.3431,69.0692z"/>
					<path class="st0" d="M342.2134,19.9774c-0.9024-0.8537-1.6161-1.5288-2.4096-2.2794c0.4567-0.421,0.831-0.766,1.1951-1.1016
						c1.0505,1.0482,2.0723,2.0677,3.1699,3.1629c-0.5856,0.5315-1.1782,1.1203-1.8332,1.6286
						c-0.1676,0.1301-0.5519,0.0666-0.8036-0.0126c-0.909-0.2863-1.804-0.6172-2.6896-0.9262
						c0.6856,0.7034,1.3718,1.4076,2.1285,2.184c-0.4957,0.4354-0.881,0.7737-1.2155,1.0674
						c-1.0809-1.0245-2.1325-2.0213-3.2526-3.083c0.6636-0.5935,1.2404-1.1601,1.8786-1.646
						c0.1702-0.1296,0.547-0.0727,0.7973,0.003C340.1162,19.2582,341.0404,19.5851,342.2134,19.9774z"/>
					<path class="st0" d="M311.1328,13.95c-0.271,0.2516-0.5029,0.4669-0.7971,0.7401c-0.4093-0.3735-0.8036-0.7334-1.0551-0.9628
						c1.0231-1.1122,2.0175-2.1932,3.0332-3.2973c0.9102,0.8517,1.7912,1.6476,2.6375,2.4787
						c0.4828,0.4741,0.9567,1.028,0.5846,1.7597c-0.3413,0.6712-0.919,1.0393-1.5192,0.8955
						c-0.3099,0.5834-0.5791,1.09-0.9078,1.7088c-0.5503-0.4958-0.9485-0.8547-1.345-1.2119
						C312.5536,15.091,312.515,14.9642,311.1328,13.95z M312.7835,12.384c-0.3326,0.278-0.591,0.494-0.8902,0.7441
						c0.5562,0.4696,1.0075,0.8507,1.4901,1.2582c0.2661-0.2832,0.4568-0.486,0.6712-0.7141
						c-0.1811-0.2165-0.3146-0.4026-0.4751-0.5615C313.3354,12.8689,313.0727,12.646,312.7835,12.384z"/>
					<path class="st0" d="M346.9903,15.0756c-0.2478,0.1975-0.4956,0.3951-0.8283,0.6603c-0.1837-0.203-0.3661-0.4047-0.5722-0.6324
						c0.7064-0.6332,1.3704-1.2285,2.091-1.8744c0.3426,0.3869,0.6367,0.6985,0.9072,1.0293
						c0.382,0.4671,0.4327,1.0229,0.013,1.4278c-0.8491,0.8192-1.7383,1.6092-2.6873,2.3076
						c-0.5272,0.388-1.1567,0.2435-1.6815-0.2038c-1.9177-1.6347-1.9313-2.4366-0.0349-4.0847
						c0.4156-0.3612,0.8454-0.712,1.3014-1.019c0.5927-0.399,1.1889-0.4286,1.8907,0.3281
						c-0.6255,0.3347-1.2347,0.5857-1.7545,0.9607c-0.4752,0.3428-1.257,0.9126-1.1868,1.2172
						c0.1275,0.5536,0.7259,1.0815,1.2566,1.4154c0.1919,0.1207,0.7971-0.2925,1.131-0.5638
						c0.2226-0.1808,0.2991-0.5415,0.441-0.8217C347.1813,15.1733,347.0858,15.1244,346.9903,15.0756z"/>
					<path class="st0" d="M314.309,40.323c1.0104-0.8715,1.9621-1.7196,2.9456-2.529c0.4648-0.3825,0.9973-0.5984,1.6032-0.2375
						c0.663,0.3949,0.8799,0.8323,0.8127,1.4409c0.6017,0.3309,1.1299,0.6213,1.7762,0.9768
						c-0.5537,0.4992-0.9356,0.8434-1.3094,1.1805c-1.0258-0.7962-1.0258-0.7962-2.189,0.4912
						c0.2195,0.2456,0.4442,0.4969,0.813,0.9094c-0.2327,0.1535-0.4553,0.2882-0.6642,0.4416
						c-0.2106,0.1546-0.4076,0.3277-0.5397,0.4351C316.4979,42.4179,315.455,41.4198,314.309,40.323z M318.4193,39.7702
						c-0.4271-1.1259-0.9525-1.0319-2.0396,0.3505c0.2432,0.2229,0.4881,0.4473,0.7487,0.6861
						c0.2896-0.2568,0.4989-0.4566,0.7235-0.6373C318.034,40.0228,318.2344,39.899,318.4193,39.7702z"/>
					<path class="st0" d="M322.5253,38.6931c-1.3846-0.2686-2.0076-1.1009-2.5523-1.9438c-0.4666-0.722,0.0186-1.3577,0.5215-1.8544
						c0.5976-0.5902,1.231-1.1645,1.9263-1.6302c0.8263-0.5535,1.4782-0.4227,2.2014,0.2625
						c1.6281,1.5422,1.6549,2.1475-0.011,3.6751C323.9452,37.8131,323.1337,38.2652,322.5253,38.6931z M324.5628,35.8572
						c-0.7171-0.5902-1.2154-1.3167-1.7411-1.3372c-0.4543-0.0177-0.9397,0.7672-1.4114,1.1973
						c0.4888,0.457,0.9238,1.1651,1.4848,1.2854C323.29,37.0875,323.8563,36.373,324.5628,35.8572z"/>
					<path class="st0" d="M334.0199,24.9745c-0.6391,0.2978-1.1924,0.498-1.682,0.8009c-0.4456,0.2756-0.8221,0.6629-1.229,1.001
						c0.0556,0.1062,0.1113,0.2124,0.1669,0.3186c0.2491-0.0779,0.5326-0.1045,0.7406-0.2438
						c0.531-0.3553,1.0127-0.7842,1.5432-1.1403c0.6261-0.4203,1.1941-0.3119,1.7043,0.2559
						c0.4797,0.534,0.4574,1.1065,0.0161,1.5687c-0.7197,0.7537-1.488,1.4752-2.3139,2.1085
						c-0.5903,0.4526-1.007,0.3171-1.7397-0.3185c0.5087-0.3565,0.7426-1.0129,1.5886-0.9383
						c0.3172,0.028,0.711-0.4578,1.0102-0.7671c0.1088-0.1125,0.0439-0.3929,0.0583-0.5967
						c-0.1769,0.0236-0.3943-0.0103-0.5237,0.0808c-0.5471,0.3849-1.0572,0.8221-1.6014,1.2115
						c-0.6449,0.4614-1.2314,0.3804-1.7785-0.2131c-0.5614-0.609-0.4274-1.1966,0.0713-1.7014
						c0.6323-0.64,1.3115-1.2417,2.0216-1.7942C332.6398,24.1656,333.2565,24.1573,334.0199,24.9745z"/>
					<path class="st0" d="M329.1851,29.2548c-0.626,0.3032-1.1499,0.5547-1.6714,0.811c-0.1279,0.0628-0.2896,0.1118-0.3644,0.2175
						c-0.2401,0.3392-0.4468,0.702-0.6664,1.0557c0.3393-0.1463,0.7005-0.2569,1.0127-0.4477
						c0.4209-0.2572,0.8011-0.5803,1.2042-0.8675c0.6231-0.4439,1.1597-0.3562,1.7027,0.1935
						c0.5497,0.5564,0.5194,1.1308,0.0491,1.6199c-0.7218,0.7506-1.4947,1.4669-2.3244,2.0937
						c-0.5679,0.429-1.2012,0.3148-1.8435-0.4553c0.6158-0.2836,1.153-0.5317,1.6912-0.778
						c0.0782-0.0358,0.1828-0.0409,0.2372-0.097c0.3373-0.3482,0.6666-0.7046,0.9832-1.0714
						c0.0124-0.0143-0.1725-0.2479-0.1956-0.2366c-0.3742,0.183-0.7498,0.3694-1.099,0.5952
						c-0.39,0.2522-0.7339,0.5791-1.1337,0.812c-0.6165,0.3591-1.173,0.2026-1.634-0.3206c-0.4637-0.5263-0.443-1.1097,0.0092-1.577
						c0.6653-0.6875,1.3806-1.3385,2.1403-1.9191C327.8435,28.4544,328.4674,28.4941,329.1851,29.2548z"/>
					<path class="st0" d="M336.4275,36.5279c-0.3165,0.5812-0.5936,1.09-0.9336,1.7144c-0.4904-0.4656-0.8363-0.7939-1.1759-1.1163
						c0.7253-0.9737,0.7253-0.9737-0.4398-1.9731c-0.281,0.2176-0.5717,0.4427-0.9121,0.7064
						c-0.3375-0.3103-0.6767-0.6222-0.927-0.8524c1.0007-1.1052,1.9854-2.1927,3.013-3.3277
						c0.8645,0.8113,1.6342,1.5149,2.3813,2.2416c0.4476,0.4354,0.9138,0.9512,0.5477,1.6026
						C337.6229,36.1604,337.1223,36.7405,336.4275,36.5279z M335.4261,33.6008c-0.2538,0.2415-0.4991,0.475-0.7438,0.7078
						c1.2025,1.2758,1.2025,1.2758,1.8535,0.3583C336.1915,34.3363,335.8403,33.9988,335.4261,33.6008z"/>
					<path class="st0" d="M344.3744,46.5629c1.031-1.1084,2.0153-2.1665,3.1874-3.4266c0.8962,0.9715,1.7653,1.8587,2.5674,2.8029
						c0.514,0.605,0.4713,1.2774-0.0594,1.8921c-0.0568,0.0657-0.1185,0.1272-0.1786,0.19
						c-1.6031,1.6775-2.1775,1.6906-3.8689,0.0912C345.4552,47.5763,344.8852,47.0431,344.3744,46.5629z M347.9289,45.1287
						c-0.6965,0.6106-1.2316,1.0797-1.9492,1.7088c0.7136,0.3671,1.2698,0.8889,1.7718,0.8412
						c0.4464-0.0424,1.1749-0.7288,1.1609-1.1081C348.894,46.0699,348.2724,45.5914,347.9289,45.1287z"/>
					<path class="st0" d="M317.9543,21.8371c-0.4758-0.4271-0.8618-0.7735-1.2373-1.1106c0.3046-1.1028-0.7196-2.1012-1.8749-2.1277
						c-0.4978-0.0115-0.9827-0.5833-1.6621-1.0225c1.6542-0.6629,3.0844-1.2464,4.5273-1.7969
						c0.1309-0.05,0.3762,0.0707,0.5117,0.1815c1.6229,1.3268,1.6208,1.3306,0.8212,3.266
						C318.6965,20.0587,318.3489,20.8889,317.9543,21.8371z M316.3715,18.0899c0.3399,0.2889,0.6563,0.5578,1.0384,0.8825
						c0.2518-0.5899,0.4538-1.0629,0.7178-1.6813c-0.5992,0.2387-1.004,0.3944-1.4035,0.5627
						C316.6196,17.8979,316.5314,17.981,316.3715,18.0899z"/>
					<path class="st0" d="M342.0671,39.1442c-0.217,0.9802-1.066,1.5376-1.853,2.1025c-0.6034,0.4332-1.2713,0.1829-1.7764-0.2346
						c-0.6442-0.5325-1.2602-1.1235-1.778-1.7767c-0.4387-0.5534-0.3711-1.2018,0.1327-1.7511
						c0.0786-0.0857,0.1569-0.1733,0.2455-0.2479c0.6453-0.5432,1.1395-1.4877,2.1815-1.1381
						c1.2653,0.4246,2.1384,1.364,2.7731,2.5202C342.0574,38.7368,342.0359,38.9025,342.0671,39.1442z M339.3407,37.1904
						c-0.5704,0.6315-1.1689,1.0775-1.3982,1.667c-0.0789,0.2029,0.9274,1.1724,1.1526,1.0819
						c0.5808-0.2335,1.1372-0.7982,1.4134-1.3705C340.6036,38.3717,339.8416,37.7608,339.3407,37.1904z"/>
					<path class="st0" d="M315.1088,43.1655c0.8428,0.7917,0.9901,1.3622,0.3895,2.0133c-0.6993,0.7583-1.5207,1.4212-2.3604,2.0266
						c-0.5343,0.3852-1.1642,0.2654-1.6956-0.1604c-0.0453-0.0363-0.0935-0.0691-0.1379-0.1065
						c-1.7888-1.5075-1.8148-2.2581-0.1085-3.851c0.3808-0.3555,0.7811-0.7001,1.2133-0.9885
						c0.8094-0.5401,1.2214-0.4577,1.9813,0.3424c-0.5488,0.3726-0.79,1.1096-1.7348,0.9957
						c-0.3091-0.0373-1.0978,0.9471-1.0094,1.1123c0.2884,0.5391,0.8182,1.0471,1.3763,1.3115
						c0.4087,0.1937,0.9749-0.8093,1.1179-1.3332C314.2735,44.0409,314.7488,43.6475,315.1088,43.1655z"/>
					<path class="st0" d="M339.8023,42.2558c1.4551-0.6509,2.7887-1.2617,4.1395-1.8319c0.1555-0.0656,0.4553,0.0378,0.6046,0.1627
						c0.4659,0.3898,0.8917,0.8275,1.3574,1.2697c-0.6562,1.4128-1.2999,2.7987-1.9971,4.2999
						c-0.3926-0.6046-1.4112-0.7157-0.8579-1.6902c-0.5089-0.458-1.146-1.383-1.5021-1.2851
						C340.5332,43.4594,340.4091,42.6705,339.8023,42.2558z M344.3674,41.7774c-0.7148,0.3387-1.185,0.5616-1.7543,0.8314
						c0.367,0.3318,0.6166,0.5576,0.9281,0.8391C343.8022,42.92,344.027,42.4655,344.3674,41.7774z"/>
					<path class="st0" d="M323.5908,21.1245c0.4727,0.4236,0.8379,0.7508,1.2775,1.1448c-0.871,0.777-1.7075,1.5231-2.5594,2.2831
						c0.7798,0.7251,1.3731,1.2768,2.0687,1.9235c-0.2793,0.2585-0.5046,0.4671-0.7957,0.7365
						c-1.0724-0.9935-2.0873-1.9338-3.0856-2.8587C321.5414,23.2631,322.5403,22.2207,323.5908,21.1245z"/>
					<path class="st0" d="M334.13,22.7272c0.3763-0.3356,0.7611-0.6787,1.0648-0.9494c1.0771,1.0139,2.128,2.003,3.2574,3.0662
						c-0.4113,0.3794-0.7823,0.7216-1.1198,1.0328C336.2503,24.8125,335.2096,23.789,334.13,22.7272z"/>
					<path class="st0" d="M319.7086,23.507c-0.4062-0.3857-0.7766-0.7372-1.1067-1.0507c1.0266-1.0928,2.0116-2.1413,3.0446-3.241
						c0.4427,0.4161,0.8316,0.7816,1.1102,1.0435C321.7207,21.3629,320.7367,22.4115,319.7086,23.507z"/>
					<path class="st0" d="M329.164,81.0021c0.0856-1.2745,0.0919-2.5608,0.2781-3.8204c0.2051-1.3871,1.0775-2.251,2.5112-2.3677
						c0.8017-0.0653,1.6308-0.0683,2.4209,0.0623c1.2307,0.2034,2.1407,1.2807,2.2089,2.7974
						c0.0992,2.2067,0.143,4.4296-0.0117,6.63c-0.1551,2.2063-1.8076,3.2315-4.3021,2.9252
						c-1.8904-0.2321-2.8717-1.266-2.992-3.2504c-0.0599-0.987-0.0104-1.9806-0.0104-2.9713
						C329.2326,81.0055,329.1983,81.0038,329.164,81.0021z M334.3645,81.0695c0-0.8147,0.0326-1.631-0.0087-2.4436
						c-0.0461-0.906-0.7006-1.0028-1.4322-1.0095c-0.7247-0.0066-1.3361,0.1742-1.3624,0.9946
						c-0.0503,1.5689-0.0476,3.1414-0.002,4.7105c0.0239,0.8217,0.617,1.009,1.3509,1.0014
						c0.7275-0.0076,1.3911-0.0716,1.445-0.9847C334.3996,82.5845,334.3643,81.8261,334.3645,81.0695z"/>
					<path class="st0" d="M320.8823,78.652c-0.7826,0-1.4393,0-2.1489,0c-0.0014-0.9252-0.4395-1.3061-1.3702-1.2027
						c-0.6298,0.07-1.0505,0.2041-1.0738,0.9515c-0.0238,0.7656,0.2732,1.1394,1.0489,1.1636
						c0.4339,0.0135,0.8667,0.0911,1.2979,0.1537c1.7322,0.2517,2.2675,0.8032,2.3796,2.539
						c0.0486,0.7537,0.0554,1.5173-0.0053,2.2695c-0.1315,1.6293-0.7895,2.3223-2.3974,2.6178
						c-0.2847,0.0523-0.5754,0.0933-0.8641,0.0989c-2.9006,0.0571-3.9112-1.0629-3.6233-4.0832c0.6437,0,1.296,0,1.9995,0
						c0.0201,0.9296,0.4333,1.4136,1.4584,1.3427c1.0873-0.0752,1.5806-0.7139,1.1688-1.7329
						c-0.0752-0.1861-0.3563-0.3638-0.5697-0.4054c-0.7114-0.1387-1.4334-0.2304-2.1548-0.3094
						c-1.0618-0.1164-1.672-0.7823-1.7664-1.7483c-0.1175-1.2035-0.1209-2.4387,0.0108-3.6401
						c0.1288-1.1744,0.7705-1.7166,1.9794-1.8487c0.8299-0.0907,1.6788-0.0666,2.5154-0.0219
						c1.0897,0.0582,1.6743,0.7589,1.8838,1.7574C320.7911,77.2215,320.8059,77.9157,320.8823,78.652z"/>
					<path class="st0" d="M340.38,83.9641c0,1.1016,0,2.0834,0,3.1064c-0.753,0-1.4129,0-2.1323,0c0-4.0458,0-8.0827,0-12.1788
						c1.6082,0,3.2327-0.0953,4.8391,0.0349c1.0029,0.0813,1.611,0.9597,1.6732,1.8897c0.1195,1.7868,0.1519,3.5968,0.0005,5.3785
						c-0.1037,1.2196-0.9488,1.7419-2.2195,1.767C341.8755,83.9749,341.2094,83.9641,340.38,83.9641z M340.3831,77.7818
						c0,0.8413-0.0314,1.6794,0.0175,2.5128c0.0164,0.2797,0.2399,0.7826,0.3643,0.7812c0.6495-0.007,1.4872,0.3668,1.88-0.4475
						c0.8345-1.7297-0.0674-3.0589-1.9435-2.9478C340.6473,77.6838,340.5946,77.7134,340.3831,77.7818z"/>
					<path class="st0" d="M324.0317,77.6753c-0.7695,0-1.3961,0-2.0687,0c0-0.9754,0-1.863,0-2.8025c2.112,0,4.1965,0,6.3455,0
						c0,0.8943,0,1.7799,0,2.7721c-0.655,0-1.3089,0-2.0829,0c0,3.2022,0,6.3021,0,9.4347c-0.786,0-1.448,0-2.1939,0
						C324.0317,83.9781,324.0317,80.9016,324.0317,77.6753z"/>
					<path class="st0" d="M310.6553,58.0249c1.447-0.0462,2.7345,0.564,3.6743,1.944c0.455,0.6681,1.0674,1.2272,1.5438,1.8827
						c0.6657,0.9161,0.4562,1.9529,0.1982,2.9302c-0.7537,2.8547-3.7617,4.561-6.8626,3.9441
						c-2.901-0.5771-4.8076-3.2241-4.4361-6.1608c0.0145-0.1148,0.0305-0.2315,0.0643-0.3416
						C305.4647,60.1769,308.36,58.0181,310.6553,58.0249z"/>
					<path class="st0" d="M318.2843,61.3401c-1.4014-0.2187-2.3684-0.9375-3.1292-2.005c-2.4216-3.3979-7.0005-3.4051-9.4959-0.0199
						c-0.6638,0.9005-1.3768,1.7256-2.5305,2.021c-0.415-2.4316,2.6164-5.5746,5.9318-6.0394
						C313.9999,54.6043,317.408,57.5794,318.2843,61.3401z"/>
					<path class="st0" d="M348.5997,58.0248c1.4119-0.0518,2.6758,0.5517,3.615,1.8814c0.4838,0.685,1.2517,1.2241,1.5553,1.9665
						c0.3175,0.7764,0.4245,1.7493,0.2877,2.581c-0.4658,2.8313-3.6136,4.8758-6.5039,4.3502
						c-3.319-0.6036-5.3253-3.241-4.8203-6.3358c0.014-0.086,0.0096-0.1764,0.0327-0.2595
						C343.305,60.2702,346.3429,58.018,348.5997,58.0248z"/>
					<path class="st0" d="M356.2231,61.3321c-1.4712-0.2058-2.4363-1.0032-3.2264-2.1111c-2.2854-3.2049-6.9292-3.233-9.2925-0.0726
						c-1.1275,1.5078-1.5069,1.8182-2.6272,2.1492c-0.4542-2.4183,2.6048-5.5681,5.9957-6.1738
						C351.2043,54.3858,355.5478,57.2875,356.2231,61.3321z"/>
					<path d="M312.7835,12.384c0.2892,0.262,0.5519,0.4848,0.796,0.7266c0.1604,0.1589,0.2939,0.345,0.4751,0.5615
						c-0.2144,0.2281-0.405,0.431-0.6712,0.7141c-0.4825-0.4074-0.9339-0.7885-1.4901-1.2582
						C312.1926,12.878,312.451,12.662,312.7835,12.384z"/>
					<path d="M318.4193,39.7702c-0.1849,0.1288-0.3853,0.2527-0.5675,0.3993c-0.2246,0.1808-0.4339,0.3805-0.7235,0.6373
						c-0.2606-0.2388-0.5055-0.4632-0.7487-0.6861C317.4669,38.7383,317.9922,38.6443,318.4193,39.7702z"/>
					<path d="M324.5628,35.8572c-0.7065,0.5159-1.2728,1.2303-1.6677,1.1456c-0.561-0.1203-0.996-0.8285-1.4848-1.2854
						c0.4717-0.4301,0.9571-1.215,1.4114-1.1973C323.3474,34.5404,323.8457,35.2669,324.5628,35.8572z"/>
					<path d="M335.4261,33.6008c0.4142,0.398,0.7655,0.7355,1.1096,1.0661c-0.651,0.9175-0.651,0.9175-1.8535-0.3583
						C334.9269,34.0758,335.1723,33.8423,335.4261,33.6008z"/>
					<path d="M347.9289,45.1287c0.3435,0.4627,0.9651,0.9412,0.9836,1.4419c0.014,0.3794-0.7146,1.0657-1.1609,1.1081
						c-0.502,0.0477-1.0582-0.474-1.7718-0.8412C346.6973,46.2084,347.2324,45.7393,347.9289,45.1287z"/>
					<path d="M316.3715,18.0899c0.1599-0.1089,0.2481-0.192,0.3527-0.236c0.3995-0.1683,0.8043-0.3241,1.4035-0.5627
						c-0.264,0.6183-0.4659,1.0914-0.7178,1.6813C317.0278,18.6476,316.7114,18.3787,316.3715,18.0899z"/>
					<path d="M339.3407,37.1904c0.5009,0.5704,1.2629,1.1813,1.1678,1.3784c-0.2762,0.5723-0.8326,1.137-1.4134,1.3705
						c-0.2252,0.0905-1.2315-0.879-1.1526-1.0819C338.1718,38.2679,338.7703,37.822,339.3407,37.1904z"/>
					<path d="M344.3674,41.7774c-0.3404,0.6882-0.5651,1.1426-0.8262,1.6705c-0.3114-0.2816-0.5611-0.5073-0.9281-0.8391
						C343.1824,42.339,343.6526,42.1161,344.3674,41.7774z"/>
					<path d="M334.3643,81.0697c-0.0001,0.7565,0.0353,1.5149-0.0092,2.2685c-0.0539,0.913-0.7175,0.9771-1.445,0.9847
						c-0.7339,0.0076-1.327-0.1797-1.3509-1.0014c-0.0456-1.5691-0.0483-3.1417,0.002-4.7105
						c0.0263-0.8203,0.6377-1.0012,1.3624-0.9946c0.7315,0.0067,1.3861,0.1035,1.4322,1.0095
						C334.3971,79.4385,334.3645,80.2548,334.3643,81.0697z"/>
					<path d="M340.3831,77.7818c0.2115-0.0685,0.2642-0.098,0.3184-0.1012c1.8761-0.1111,2.778,1.218,1.9435,2.9478
						c-0.3929,0.8143-1.2305,0.4405-1.88,0.4475c-0.1245,0.0014-0.3479-0.5015-0.3643-0.7812
						C340.3517,79.4612,340.3831,78.6231,340.3831,77.7818z"/>
				</g>
			</g>
			<path d="M339.3906,172.9583h-20.1617c-0.7421,0-1.3493-0.6072-1.3493-1.3493V159.285c0-0.7421,0.6072-1.3493,1.3493-1.3493
				h20.1617c0.7421,0,1.3493,0.6072,1.3493,1.3493v12.3241C340.7398,172.3512,340.1327,172.9583,339.3906,172.9583z"/>
			<rect x="326.2763" y="95.3675" width="6.0667" height="62.5682"/>
		</g>
	</g>
	<g id="Post">
		<path d="M342.5956,140.0524h-5.969c-2.7429,0-4.987-2.2442-4.987-4.987v-13.5508c0-2.7429,2.2441-4.987,4.987-4.987h5.969
			c2.7429,0,4.987,2.2442,4.987,4.987v13.5508C347.5826,137.8082,345.3385,140.0524,342.5956,140.0524z"/>
	</g>
	<g id="Light_copy">
		<path class="st1" d="M306.2903,59.8355c0,0-3.7985,2.7399-0.4687,6.9308c3.1816,4.0043,7.486,1.8372,8.4773,0.9322
			c0.9913-0.905,3.6916-2.6906,1.4194-6.3969c-2.2722-3.7063-4.2557-3.4603-4.9124-3.4782
			C310.2551,57.8083,309.065,57.2807,306.2903,59.8355z"/>
	</g>
	<g id="Light" class="st2">
		<path class="st3" d="M338.243,76.5181c0,0-4.8056,2.8661-0.5859,8.2361c4.2197,5.37,9.4667,2.6331,10.7315,1.4783
			c1.2648-1.1547,4.7101-3.4329,1.8109-8.1618c-2.8991-4.7289-5.4332-4.5163-6.2677-4.4379S341.0824,73.7778,338.243,76.5181z"/>
	</g>
</g>
<g id="No_Lights_Crossing_copy">
	<g id="Layer_1_copy_5">
		<g>
			<g>
				<g>
					<path class="st0" d="M86.664,95.3072c-31.5547,0-63.1094,0-94.664,0c0-31.5547,0-63.1094,0-94.664
						c31.5547,0,63.1094,0,94.664,0C86.664,32.1978,86.664,63.7525,86.664,95.3072z M64.0303,45.8956
						c-5.94-5.5585-11.8248-11.0653-17.755-16.6147c5.947-5.2936,11.8286-10.529,17.7577-15.8067
						c-2.1461-2.073-4.1964-4.0536-6.2936-6.0793c-5.8603,5.2116-11.8396,10.529-17.8724,15.894
						c-5.9688-5.5806-11.9018-11.1276-17.8602-16.6985c-2.0908,2.0206-4.1604,4.0208-6.2919,6.0808
						c5.8795,5.5006,11.7016,10.9475,17.5888,16.4554c-6.1534,5.4766-12.2802,10.9295-18.4639,16.433
						c2.1346,2.0482,4.2054,4.0352,6.3163,6.0606c6.1007-5.425,12.3137-10.95,18.5547-16.4997
						c6.0324,5.6397,12.0077,11.2259,18.0327,16.8587C59.8521,49.9387,61.9163,47.9413,64.0303,45.8956z M39.2215,89.8796
						c4.4615,0,8.923-0.0113,13.3845,0.0042c2.7222,0.0095,4.9751-2.2267,4.8799-4.8422c-0.1029-2.8248-0.1257-5.6611,0.0073-8.4833
						c0.1186-2.5154-1.8176-4.9936-4.9115-5.0093c-8.8936-0.0452-17.7877-0.0378-26.6814-0.0035
						c-2.9275,0.0113-4.9238,2.0938-4.9348,4.9932c-0.0106,2.7993-0.0131,5.5988,0.0007,8.3981
						c0.0143,2.9039,2.0632,4.9392,4.9583,4.9418C30.3568,89.8825,34.7892,89.8796,39.2215,89.8796z M30.915,57.7681
						c0.8013,2.9285,0.9117,5.7057-0.1501,8.5896c1.7305,0,3.3166,0,4.9144,0c0.0336,0.4906,0.0589,0.8608,0.0865,1.2636
						c2.6117,0,5.1867,0,7.7813,0c0.0397-0.4453,0.0743-0.8337,0.1157-1.2973c1.6073,0,3.1413,0,4.8137,0
						c-1.0445-2.865-0.9235-5.6599-0.1267-8.5761c-1.6501,0-3.1757,0-4.7199,0c-0.0278-0.5927-0.0503-1.073-0.0732-1.5609
						c-2.6527,0-5.2042,0-7.7861,0c-0.0331,0.532-0.063,1.0137-0.0983,1.5811C34.117,57.7681,32.612,57.7681,30.915,57.7681z
						 M30.5481,62.0964c-0.0322-0.5222-0.0205-1.052-0.1086-1.5647c-0.0927-0.5394-0.2427-1.0766-0.4331-1.5905
						c-1.6394-4.4242-6.0771-6.8773-11.0971-6.15c-5.6875,0.8241-9.4285,6.7308-7.6272,12.0745
						c1.3168,3.9063,5.3012,6.8536,10.3409,6.504C26.4879,71.0324,30.4695,66.9645,30.5481,62.0964z M58.8488,71.4129
						c0.4808-0.0619,1.2687-0.1105,2.0334-0.2702c5.9167-1.2354,9.1729-7.5432,6.6979-12.9445
						c-1.863-4.0657-6.7652-6.3814-11.2517-5.3152c-4.3905,1.0435-7.5315,4.6375-7.6308,8.7313
						C48.5654,67.0649,52.9137,71.3901,58.8488,71.4129z M42.4224,54.6132c0.0608-0.1833,0.1107-0.2635,0.1108-0.3438
						c0.0067-4.6618,0.0115-9.3236,0.0043-13.9854c-0.0003-0.1848-0.0645-0.4316-0.192-0.5442
						c-0.8869-0.7831-1.7983-1.5383-2.7359-2.3313c-0.9915,0.8286-1.9546,1.58-2.8448,2.4096
						c-0.274,0.2553-0.4881,0.7226-0.4927,1.0957c-0.0334,2.709-0.0067,5.4188,0.0022,8.1283
						c0.0051,1.5732-0.0121,3.1473,0.041,4.7189c0.0098,0.289,0.3007,0.8095,0.4747,0.8149
						C38.6733,54.6355,40.5594,54.6132,42.4224,54.6132z M39.6369,21.2856c0.4329-0.37,0.7597-0.7133,1.1452-0.9673
						c1.4025-0.9242,2.1121-2.134,1.7733-3.8623c-0.1381-0.7044,0.0059-1.524-0.3046-2.1219
						c-0.6187-1.1912-1.8896-1.0958-3.0172-1.0741c-1.0183,0.0196-2.2858,0.0401-2.587,1.1754
						c-0.3251,1.2249-0.1807,2.576-0.218,3.8728c-0.0031,0.108,0.1573,0.2346,0.2625,0.3297
						C37.6603,19.5145,38.6344,20.3859,39.6369,21.2856z M42.4964,95.0083c0-1.4581,0-2.7245,0-4.0019c-2.0607,0-4.0706,0-6.0683,0
						c0,1.3661,0,2.6609,0,4.0019C38.4816,95.0083,40.4681,95.0083,42.4964,95.0083z M42.4949,68.71c-2.0603,0-4.068,0-6.0633,0
						c0,0.6768,0,1.2694,0,1.8684c2.0603,0,4.0498,0,6.0633,0C42.4949,69.9298,42.4949,69.3355,42.4949,68.71z"/>
					<path d="M64.0303,45.8956c-2.114,2.0457-4.1782,4.0431-6.2868,6.0836c-6.025-5.6328-12.0003-11.219-18.0327-16.8587
						c-6.241,5.5498-12.454,11.0747-18.5547,16.4997c-2.1109-2.0254-4.1817-4.0125-6.3163-6.0606
						c6.1836-5.5035,12.3105-10.9564,18.4639-16.433c-5.8872-5.5078-11.7093-10.9547-17.5888-16.4554
						c2.1315-2.06,4.2011-4.0602,6.2919-6.0808c5.9585,5.5709,11.8914,11.1179,17.8602,16.6985
						c6.0328-5.365,12.0122-10.6825,17.8724-15.894c2.0972,2.0258,4.1475,4.0063,6.2936,6.0793
						c-5.929,5.2776-11.8107,10.5131-17.7577,15.8067C52.2056,34.8303,58.0903,40.3371,64.0303,45.8956z M52.3652,19.6182
						c-1.173-0.3923-2.0973-0.7192-3.0346-1.0029c-0.2503-0.0758-0.6271-0.1326-0.7973-0.003
						c-0.6382,0.4859-1.215,1.0525-1.8786,1.646c1.1201,1.0617,2.1718,2.0585,3.2526,3.083
						c0.3345-0.2938,0.7197-0.6321,1.2155-1.0674c-0.7567-0.7764-1.443-1.4805-2.1285-2.184
						c0.8857,0.309,1.7806,0.6399,2.6896,0.9262c0.2517,0.0793,0.636,0.1427,0.8036,0.0126
						c0.655-0.5083,1.2476-1.0971,1.8332-1.6286c-1.0976-1.0952-2.1194-2.1147-3.1699-3.1629
						c-0.3641,0.3356-0.7384,0.6806-1.1951,1.1016C50.7491,18.0894,51.4628,18.7645,52.3652,19.6182z M21.2846,13.5908
						c1.3821,1.0143,1.4208,1.141,0.6311,2.1107c0.3964,0.3572,0.7946,0.716,1.345,1.2119
						c0.3287-0.6187,0.5979-1.1254,0.9078-1.7088c0.6002,0.1438,1.1779-0.2243,1.5192-0.8955
						c0.372-0.7317-0.1019-1.2856-0.5846-1.7597c-0.8463-0.8312-1.7273-1.6271-2.6375-2.4787
						c-1.0157,1.1041-2.01,2.1851-3.0332,3.2973c0.2514,0.2294,0.6458,0.5894,1.0551,0.9628
						C20.7817,14.0577,21.0137,13.8423,21.2846,13.5908z M57.1421,14.7164c0.0955,0.0488,0.191,0.0977,0.2866,0.1465
						c-0.1419,0.2802-0.2184,0.6409-0.441,0.8217c-0.334,0.2713-0.9391,0.6845-1.131,0.5638
						c-0.5307-0.3339-1.1291-0.8618-1.2566-1.4154c-0.0702-0.3046,0.7116-0.8744,1.1868-1.2172
						c0.5198-0.375,1.1289-0.626,1.7545-0.9607c-0.7018-0.7567-1.2981-0.7271-1.8907-0.3281
						c-0.456,0.307-0.8858,0.6579-1.3014,1.019c-1.8964,1.6482-1.8828,2.45,0.0349,4.0847
						c0.5248,0.4474,1.1544,0.5918,1.6816,0.2038c0.9489-0.6984,1.8382-1.4884,2.6872-2.3076
						c0.4197-0.4049,0.369-0.9607-0.013-1.4278c-0.2705-0.3308-0.5646-0.6424-0.9072-1.0293
						c-0.7206,0.646-1.3846,1.2412-2.091,1.8744c0.206,0.2277,0.3885,0.4294,0.5722,0.6324
						C56.6465,15.1114,56.8943,14.9139,57.1421,14.7164z M24.4608,39.9638c1.146,1.0968,2.1889,2.0949,3.2485,3.109
						c0.1321-0.1074,0.3291-0.2805,0.5397-0.4351c0.2089-0.1534,0.4315-0.2881,0.6642-0.4416
						c-0.3688-0.4126-0.5935-0.6639-0.8131-0.9094c1.1631-1.2875,1.1631-1.2875,2.189-0.4912
						c0.3739-0.337,0.7557-0.6813,1.3094-1.1805c-0.6464-0.3555-1.1745-0.6459-1.7763-0.9768
						c0.0673-0.6087-0.1497-1.046-0.8127-1.4409c-0.6059-0.3609-1.1385-0.145-1.6032,0.2376
						C26.4229,38.2442,25.4712,39.0922,24.4608,39.9638z M32.6771,38.3339c0.6083-0.428,1.4199-0.88,2.0859-1.4908
						c1.6659-1.5277,1.6391-2.1329,0.011-3.6751c-0.7232-0.6851-1.3751-0.816-2.2015-0.2625
						c-0.6952,0.4657-1.3287,1.04-1.9263,1.6302c-0.5028,0.4966-0.9881,1.1323-0.5215,1.8544
						C30.6696,37.233,31.2925,38.0653,32.6771,38.3339z M44.1717,24.6153c-0.7635-0.8172-1.3801-0.8089-1.9473-0.3677
						c-0.7101,0.5525-1.3893,1.1542-2.0216,1.7942c-0.4987,0.5048-0.6327,1.0925-0.0713,1.7014
						c0.5471,0.5935,1.1337,0.6745,1.7785,0.2131c0.5442-0.3894,1.0543-0.8266,1.6014-1.2115
						c0.1295-0.0911,0.3468-0.0572,0.5238-0.0808c-0.0144,0.2038,0.0505,0.4842-0.0583,0.5967
						c-0.2992,0.3093-0.693,0.7951-1.0102,0.7671c-0.846-0.0747-1.0798,0.5817-1.5886,0.9383
						c0.7328,0.6356,1.1494,0.7712,1.7398,0.3185c0.8259-0.6332,1.5943-1.3547,2.3139-2.1085
						c0.4413-0.4622,0.4636-1.0347-0.0161-1.5687c-0.5102-0.5679-1.0782-0.6762-1.7043-0.2559
						c-0.5305,0.3561-1.0122,0.785-1.5432,1.1403c-0.2081,0.1392-0.4915,0.1659-0.7406,0.2438
						c-0.0556-0.1062-0.1113-0.2124-0.167-0.3186c0.4069-0.3381,0.7835-0.7253,1.229-1.001
						C42.9793,25.1132,43.5326,24.9131,44.1717,24.6153z M39.3369,28.8956c-0.7177-0.7607-1.3415-0.8005-1.9027-0.3716
						c-0.7597,0.5806-1.475,1.2316-2.1403,1.9191c-0.4522,0.4672-0.4729,1.0506-0.0092,1.577
						c0.461,0.5232,1.0174,0.6797,1.6339,0.3206c0.3998-0.2329,0.7437-0.5598,1.1337-0.812
						c0.3493-0.2258,0.7249-0.4123,1.099-0.5952c0.0232-0.0113,0.208,0.2222,0.1956,0.2366
						c-0.3166,0.3669-0.6459,0.7232-0.9833,1.0714c-0.0544,0.0561-0.159,0.0612-0.2372,0.097
						c-0.5381,0.2463-1.0754,0.4944-1.6911,0.778c0.6423,0.7702,1.2756,0.8843,1.8435,0.4553
						c0.8298-0.6268,1.6026-1.3431,2.3244-2.0937c0.4703-0.4891,0.5006-1.0635-0.0491-1.6199
						c-0.543-0.5497-1.0796-0.6374-1.7027-0.1935c-0.4031,0.2872-0.7833,0.6103-1.2042,0.8675
						c-0.3122,0.1907-0.6733,0.3014-1.0127,0.4477c0.2196-0.3537,0.4263-0.7165,0.6664-1.0557
						c0.0749-0.1058,0.2365-0.1547,0.3644-0.2175C38.187,29.4503,38.7109,29.1988,39.3369,28.8956z M46.5793,36.1687
						c0.6948,0.2126,1.1954-0.3675,1.5535-1.0044c0.3662-0.6513-0.1001-1.1672-0.5477-1.6026
						c-0.7471-0.7267-1.5167-1.4303-2.3812-2.2416c-1.0276,1.135-2.0123,2.2225-3.013,3.3277
						c0.2503,0.2302,0.5895,0.542,0.927,0.8524c0.3404-0.2636,0.6312-0.4888,0.9122-0.7064
						c1.1651,0.9993,1.1651,0.9993,0.4398,1.9731c0.3397,0.3224,0.6855,0.6508,1.1759,1.1163
						C45.9857,37.2587,46.2628,36.7499,46.5793,36.1687z M54.5262,46.2037c0.5108,0.4802,1.0808,1.0134,1.6479,1.5496
						c1.6914,1.5993,2.2659,1.5863,3.8689-0.0912c0.0601-0.0628,0.1218-0.1243,0.1786-0.19
						c0.5307-0.6147,0.5734-1.2871,0.0594-1.8921c-0.8021-0.9441-1.6712-1.8314-2.5674-2.8029
						C56.5414,44.0372,55.5572,45.0953,54.5262,46.2037z M28.1061,21.4779c0.3946-0.9482,0.7421-1.7784,1.0858-2.6101
						c0.7996-1.9355,0.8017-1.9392-0.8212-3.266c-0.1355-0.1108-0.3808-0.2315-0.5117-0.1815
						c-1.4428,0.5505-2.873,1.134-4.5272,1.7969c0.6794,0.4392,1.1643,1.0111,1.6621,1.0225
						c1.1554,0.0266,2.1795,1.0249,1.8749,2.1277C27.2443,20.7044,27.6303,21.0508,28.1061,21.4779z M52.2189,38.785
						c-0.0312-0.2417-0.0096-0.4074-0.0745-0.5256c-0.6347-1.1563-1.5078-2.0957-2.7731-2.5203
						c-1.042-0.3497-1.5362,0.5948-2.1815,1.1381c-0.0886,0.0746-0.167,0.1622-0.2456,0.2479
						c-0.5038,0.5493-0.5713,1.1977-0.1327,1.7511c0.5178,0.6532,1.1339,1.2443,1.778,1.7767
						c0.505,0.4175,1.173,0.6678,1.7764,0.2346C51.1528,40.3226,52.0018,39.7652,52.2189,38.785z M25.2606,42.8063
						c-0.36,0.482-0.8353,0.8754-0.9683,1.3622c-0.1431,0.5239-0.7092,1.5268-1.1179,1.3332
						c-0.558-0.2644-1.0879-0.7723-1.3763-1.3115c-0.0884-0.1653,0.7003-1.1496,1.0094-1.1123
						c0.9448,0.1139,1.186-0.6231,1.7348-0.9957c-0.7599-0.8001-1.1719-0.8824-1.9813-0.3424
						c-0.4322,0.2884-0.8325,0.633-1.2133,0.9885c-1.7063,1.5929-1.6803,2.3436,0.1085,3.851
						c0.0444,0.0374,0.0926,0.0702,0.1379,0.1065c0.5314,0.4259,1.1612,0.5457,1.6956,0.1604
						c0.8397-0.6054,1.661-1.2684,2.3603-2.0266C26.2507,44.1684,26.1034,43.598,25.2606,42.8063z M49.9541,41.8965
						c0.6068,0.4147,0.7309,1.2037,1.7443,0.9252c0.3561-0.0979,0.9933,0.8272,1.5021,1.2851
						c-0.5533,0.9745,0.4654,1.0856,0.8579,1.6902c0.6972-1.5012,1.3409-2.8871,1.9971-4.2999
						c-0.4657-0.4423-0.8915-0.88-1.3574-1.2697c-0.1493-0.1249-0.4492-0.2283-0.6046-0.1627
						C52.7428,40.6348,51.4092,41.2457,49.9541,41.8965z M33.7426,20.7652c-1.0505,1.0962-2.0494,2.1386-3.0945,3.2293
						c0.9983,0.9248,2.0132,1.8651,3.0856,2.8587c0.291-0.2694,0.5164-0.478,0.7957-0.7365
						c-0.6956-0.6468-1.2889-1.1985-2.0687-1.9235c0.8519-0.7599,1.6884-1.5061,2.5594-2.2831
						C34.5805,21.5161,34.2154,21.1889,33.7426,20.7652z M44.2818,22.368c1.0796,1.0618,2.1203,2.0853,3.2024,3.1496
						c0.3375-0.3112,0.7084-0.6534,1.1198-1.0328c-1.1294-1.0631-2.1803-2.0523-3.2574-3.0662
						C45.043,21.6893,44.6582,22.0324,44.2818,22.368z M29.8604,23.1478c1.0281-1.0956,2.012-2.1441,3.0481-3.2482
						c-0.2786-0.2619-0.6675-0.6273-1.1102-1.0435c-1.033,1.0996-2.0181,2.1482-3.0446,3.241
						C29.0838,22.4105,29.4542,22.7621,29.8604,23.1478z"/>
					<path d="M39.2215,89.8796c-4.4323,0-8.8647,0.0029-13.297-0.001c-2.8951-0.0026-4.944-2.0379-4.9583-4.9418
						c-0.0138-2.7993-0.0114-5.5988-0.0007-8.3981c0.011-2.8994,2.0073-4.9819,4.9348-4.9932
						c8.8937-0.0343,17.7878-0.0418,26.6814,0.0035c3.0939,0.0157,5.0301,2.4939,4.9115,5.0093
						c-0.133,2.8223-0.1102,5.6585-0.0073,8.4833c0.0953,2.6155-2.1577,4.8517-4.8799,4.8422
						C48.1446,89.8682,43.683,89.8796,39.2215,89.8796z M39.3158,80.6428c0.0343,0.0017,0.0686,0.0034,0.1029,0.0051
						c0,0.9906-0.0495,1.9843,0.0104,2.9713c0.1204,1.9844,1.1016,3.0184,2.992,3.2504c2.4945,0.3062,4.147-0.7189,4.3021-2.9252
						c0.1546-2.2004,0.1109-4.4234,0.0117-6.63c-0.0682-1.5167-0.9782-2.594-2.2089-2.7974
						c-0.7901-0.1306-1.6192-0.1276-2.4209-0.0623c-1.4336,0.1167-2.3061,0.9806-2.5112,2.3677
						C39.4077,78.0821,39.4014,79.3683,39.3158,80.6428z M31.0341,78.2927c-0.0765-0.7363-0.0912-1.4305-0.2314-2.0984
						c-0.2095-0.9985-0.794-1.6992-1.8838-1.7574c-0.8366-0.0447-1.6855-0.0687-2.5154,0.0219
						c-1.2088,0.1321-1.8506,0.6743-1.9794,1.8487c-0.1318,1.2013-0.1284,2.4366-0.0108,3.6401
						c0.0943,0.966,0.7046,1.632,1.7664,1.7483c0.7213,0.0791,1.4433,0.1707,2.1548,0.3094
						c0.2134,0.0416,0.4945,0.2194,0.5697,0.4054c0.4118,1.019-0.0815,1.6578-1.1687,1.7329
						c-1.0252,0.0709-1.4384-0.4131-1.4584-1.3427c-0.7035,0-1.3558,0-1.9995,0c-0.2879,3.0203,0.7227,4.1402,3.6233,4.0832
						c0.2887-0.0057,0.5794-0.0466,0.8641-0.0989c1.6079-0.2955,2.266-0.9885,2.3974-2.6178
						c0.0607-0.7522,0.054-1.5158,0.0053-2.2695c-0.1121-1.7358-0.6474-2.2872-2.3796-2.539
						c-0.4312-0.0627-0.864-0.1402-1.2979-0.1537c-0.7757-0.0242-1.0727-0.3979-1.0489-1.1636
						c0.0233-0.7474,0.4439-0.8815,1.0738-0.9515c0.9307-0.1034,1.3688,0.2775,1.3702,1.2027
						C29.5949,78.2927,30.2515,78.2927,31.0341,78.2927z M50.5318,83.6049c0.8295,0,1.4955,0.0108,2.161-0.0023
						c1.2706-0.0252,2.1158-0.5474,2.2194-1.767c0.1515-1.7817,0.1191-3.5916-0.0005-5.3785
						c-0.0622-0.93-0.6703-1.8085-1.6732-1.8897c-1.6063-0.1302-3.2309-0.0349-4.8391-0.0349c0,4.0961,0,8.133,0,12.1788
						c0.7195,0,1.3793,0,2.1323,0C50.5318,85.6883,50.5318,84.7064,50.5318,83.6049z M34.1835,77.3161c0,3.2263,0,6.3027,0,9.4044
						c0.7459,0,1.4079,0,2.194,0c0-3.1326,0-6.2325,0-9.4347c0.7739,0,1.4279,0,2.0829,0c0-0.9922,0-1.8778,0-2.7721
						c-2.149,0-4.2335,0-6.3455,0c0,0.9395,0,1.8271,0,2.8025C32.7875,77.3161,33.4141,77.3161,34.1835,77.3161z"/>
					<path d="M30.915,57.7681c1.6969,0,3.202,0,4.7572,0c0.0353-0.5674,0.0653-1.0491,0.0983-1.5811c2.5819,0,5.1334,0,7.7861,0
						c0.0229,0.4879,0.0454,0.9682,0.0732,1.5609c1.5442,0,3.0697,0,4.7199,0c-0.7969,2.9162-0.9178,5.711,0.1267,8.5761
						c-1.6724,0-3.2064,0-4.8137,0c-0.0413,0.4635-0.076,0.852-0.1157,1.2973c-2.5947,0-5.1697,0-7.7813,0
						c-0.0276-0.4028-0.0529-0.773-0.0865-1.2636c-1.5978,0-3.1839,0-4.9144,0C31.8267,63.4738,31.7163,60.6965,30.915,57.7681z"/>
					<path d="M30.5481,62.0964c-0.0786,4.8681-4.0602,8.936-8.9251,9.2734c-5.0397,0.3496-9.0241-2.5977-10.3409-6.504
						c-1.8014-5.3436,1.9396-11.2504,7.6272-12.0745c5.02-0.7273,9.4577,1.7257,11.0971,6.15
						c0.1904,0.5139,0.3404,1.0511,0.4331,1.5905C30.5276,61.0444,30.5159,61.5742,30.5481,62.0964z M20.8071,57.6657
						c-2.2953-0.0068-5.1907,2.152-5.8181,4.1986c-0.0338,0.1101-0.0498,0.2268-0.0643,0.3416
						c-0.3715,2.9366,1.5351,5.5836,4.4361,6.1608c3.1009,0.6169,6.1089-1.0894,6.8626-3.9441
						c0.258-0.9772,0.4675-2.0141-0.1982-2.9302c-0.4764-0.6555-1.0888-1.2146-1.5437-1.8827
						C23.5417,58.2296,22.2541,57.6195,20.8071,57.6657z M28.4361,60.9809c-0.8763-3.7607-4.2844-6.7358-9.2238-6.0433
						c-3.3154,0.4648-6.3468,3.6079-5.9318,6.0394c1.1537-0.2954,1.8667-1.1206,2.5305-2.021
						c2.4954-3.3852,7.0744-3.378,9.4959,0.0199C26.0676,60.0434,27.0346,60.7622,28.4361,60.9809z"/>
					<path d="M58.8488,71.4129c-5.935-0.0228-10.2834-4.348-10.1512-9.7985c0.0993-4.0938,3.2403-7.6878,7.6308-8.7313
						c4.4865-1.0663,9.3888,1.2495,11.2517,5.3152c2.475,5.4013-0.7812,11.7091-6.6979,12.9445
						C60.1175,71.3025,59.3295,71.3511,58.8488,71.4129z M58.7515,57.6656c-2.2568-0.0068-5.2947,2.2454-5.8335,4.1839
						c-0.0231,0.0831-0.0186,0.1734-0.0327,0.2595c-0.505,3.0948,1.5013,5.7322,4.8203,6.3358
						c2.8903,0.5256,6.0381-1.5189,6.5039-4.3502c0.1368-0.8318,0.0298-1.8046-0.2877-2.581
						c-0.3036-0.7424-1.0715-1.2815-1.5553-1.9665C61.4273,58.2173,60.1634,57.6137,58.7515,57.6656z M66.3749,60.9729
						c-0.6753-4.0446-5.0188-6.9463-9.1504-6.2083c-3.3909,0.6057-6.4499,3.7555-5.9957,6.1738
						c1.1203-0.331,1.4997-0.6413,2.6272-2.1492c2.3633-3.1605,7.0071-3.1323,9.2925,0.0726
						C63.9386,59.9697,64.9037,60.7671,66.3749,60.9729z"/>
					<path d="M42.4224,54.6132c-1.863,0-3.749,0.0223-5.6325-0.0371c-0.174-0.0055-0.465-0.5259-0.4747-0.8149
						c-0.053-1.5717-0.0358-3.1457-0.041-4.7189c-0.0089-2.7095-0.0355-5.4193-0.0022-8.1283
						c0.0046-0.3731,0.2187-0.8404,0.4927-1.0957c0.8902-0.8296,1.8533-1.581,2.8448-2.4096
						c0.9376,0.793,1.8491,1.5482,2.7359,2.3313c0.1275,0.1126,0.1917,0.3593,0.192,0.5442
						c0.0073,4.6618,0.0025,9.3236-0.0043,13.9854C42.533,54.3497,42.4832,54.4299,42.4224,54.6132z"/>
					<path d="M39.6369,21.2856c-1.0025-0.8997-1.9765-1.7711-2.946-2.6477c-0.1052-0.0951-0.2656-0.2217-0.2625-0.3297
						c0.0373-1.2967-0.1071-2.6478,0.218-3.8728c0.3013-1.1353,1.5688-1.1558,2.587-1.1754
						c1.1277-0.0217,2.3985-0.1171,3.0172,1.0741c0.3105,0.5978,0.1665,1.4175,0.3046,2.1219
						c0.3389,1.7283-0.3708,2.9381-1.7733,3.8623C40.3965,20.5723,40.0698,20.9156,39.6369,21.2856z"/>
					<path d="M42.4964,95.0083c-2.0284,0-4.0149,0-6.0683,0c0-1.3411,0-2.6359,0-4.0019c1.9977,0,4.0076,0,6.0683,0
						C42.4964,92.2838,42.4964,93.5502,42.4964,95.0083z"/>
					<path d="M42.4949,68.71c0,0.6255,0,1.2199,0,1.8684c-2.0134,0-4.003,0-6.0633,0c0-0.599,0-1.1916,0-1.8684
						C38.4268,68.71,40.4345,68.71,42.4949,68.71z"/>
					<path class="st0" d="M52.3652,19.6182c-0.9024-0.8537-1.6161-1.5288-2.4096-2.2794c0.4567-0.421,0.831-0.766,1.1951-1.1016
						c1.0505,1.0482,2.0723,2.0677,3.1699,3.1629c-0.5856,0.5315-1.1782,1.1203-1.8332,1.6286
						c-0.1676,0.1301-0.5519,0.0666-0.8036-0.0126c-0.909-0.2863-1.804-0.6172-2.6896-0.9262
						c0.6856,0.7034,1.3718,1.4076,2.1285,2.184c-0.4957,0.4354-0.881,0.7737-1.2155,1.0674
						c-1.0808-1.0245-2.1325-2.0213-3.2526-3.083c0.6636-0.5935,1.2404-1.1601,1.8786-1.646
						c0.1702-0.1296,0.547-0.0727,0.7973,0.003C50.268,18.899,51.1922,19.2259,52.3652,19.6182z"/>
					<path class="st0" d="M21.2846,13.5908c-0.271,0.2516-0.5029,0.4669-0.7971,0.7401c-0.4093-0.3735-0.8037-0.7334-1.0551-0.9628
						c1.0231-1.1122,2.0175-2.1932,3.0332-3.2973c0.9103,0.8517,1.7912,1.6476,2.6375,2.4787
						c0.4828,0.4741,0.9567,1.028,0.5846,1.7597c-0.3413,0.6712-0.919,1.0393-1.5192,0.8955
						c-0.3099,0.5834-0.5791,1.09-0.9078,1.7088c-0.5503-0.4958-0.9486-0.8547-1.345-1.2119
						C22.7054,14.7317,22.6668,14.605,21.2846,13.5908z M22.9353,12.0248c-0.3326,0.278-0.591,0.494-0.8902,0.7441
						c0.5562,0.4696,1.0075,0.8507,1.4901,1.2582c0.2661-0.2832,0.4568-0.486,0.6712-0.7141
						c-0.1811-0.2165-0.3146-0.4026-0.4751-0.5615C23.4872,12.5097,23.2245,12.2868,22.9353,12.0248z"/>
					<path class="st0" d="M57.1421,14.7164c-0.2478,0.1975-0.4956,0.3951-0.8283,0.6603c-0.1837-0.203-0.3662-0.4047-0.5722-0.6324
						c0.7064-0.6332,1.3704-1.2285,2.091-1.8744c0.3426,0.3869,0.6367,0.6985,0.9072,1.0293
						c0.382,0.4671,0.4327,1.0229,0.013,1.4278c-0.8491,0.8192-1.7383,1.6092-2.6872,2.3076
						c-0.5272,0.388-1.1567,0.2435-1.6816-0.2038c-1.9177-1.6347-1.9313-2.4366-0.0349-4.0847
						c0.4156-0.3612,0.8454-0.712,1.3014-1.019c0.5926-0.399,1.1889-0.4286,1.8907,0.3281
						c-0.6255,0.3347-1.2347,0.5857-1.7545,0.9607c-0.4752,0.3428-1.257,0.9126-1.1868,1.2172
						c0.1276,0.5536,0.7259,1.0815,1.2566,1.4154c0.1919,0.1207,0.7971-0.2925,1.131-0.5638
						c0.2226-0.1808,0.2991-0.5415,0.441-0.8217C57.3331,14.814,57.2376,14.7652,57.1421,14.7164z"/>
					<path class="st0" d="M24.4608,39.9638c1.0104-0.8715,1.9621-1.7196,2.9456-2.529c0.4648-0.3825,0.9973-0.5984,1.6032-0.2376
						c0.663,0.3949,0.8799,0.8323,0.8127,1.4409c0.6017,0.3309,1.1299,0.6213,1.7763,0.9768
						c-0.5537,0.4992-0.9356,0.8434-1.3094,1.1805c-1.0258-0.7962-1.0258-0.7962-2.189,0.4912
						c0.2195,0.2456,0.4442,0.4969,0.8131,0.9094c-0.2327,0.1535-0.4553,0.2882-0.6642,0.4416
						c-0.2106,0.1546-0.4075,0.3277-0.5397,0.4351C26.6497,42.0587,25.6068,41.0606,24.4608,39.9638z M28.5711,39.4109
						c-0.4271-1.1259-0.9524-1.0319-2.0396,0.3505c0.2432,0.2229,0.4881,0.4473,0.7487,0.6861
						c0.2896-0.2568,0.4989-0.4566,0.7235-0.6373C28.1858,39.6636,28.3862,39.5397,28.5711,39.4109z"/>
					<path class="st0" d="M32.6771,38.3339c-1.3846-0.2686-2.0076-1.1009-2.5523-1.9438c-0.4666-0.722,0.0186-1.3577,0.5215-1.8544
						c0.5976-0.5902,1.231-1.1645,1.9263-1.6302c0.8263-0.5535,1.4782-0.4227,2.2015,0.2625
						c1.6281,1.5423,1.6549,2.1475-0.011,3.6751C34.097,37.4539,33.2855,37.9059,32.6771,38.3339z M34.7146,35.4979
						c-0.7171-0.5902-1.2154-1.3167-1.7411-1.3372c-0.4543-0.0177-0.9397,0.7672-1.4114,1.1973
						c0.4888,0.457,0.9238,1.1651,1.4848,1.2854C33.4418,36.7282,34.0081,36.0138,34.7146,35.4979z"/>
					<path class="st0" d="M44.1717,24.6153c-0.6391,0.2978-1.1924,0.4979-1.682,0.8009c-0.4456,0.2756-0.8221,0.6629-1.229,1.001
						c0.0556,0.1062,0.1113,0.2124,0.167,0.3186c0.2491-0.0779,0.5325-0.1045,0.7406-0.2438
						c0.531-0.3553,1.0127-0.7842,1.5432-1.1403c0.6261-0.4203,1.1941-0.3119,1.7043,0.2559
						c0.4797,0.534,0.4574,1.1065,0.0161,1.5687c-0.7197,0.7537-1.488,1.4752-2.3139,2.1085
						c-0.5903,0.4526-1.007,0.3171-1.7398-0.3185c0.5088-0.3565,0.7426-1.0129,1.5886-0.9383
						c0.3172,0.028,0.711-0.4578,1.0102-0.7671c0.1088-0.1125,0.044-0.3929,0.0583-0.5967
						c-0.1769,0.0236-0.3943-0.0103-0.5238,0.0808c-0.5471,0.3849-1.0572,0.8221-1.6014,1.2115
						c-0.6448,0.4614-1.2314,0.3804-1.7785-0.2131c-0.5614-0.609-0.4274-1.1966,0.0713-1.7014
						c0.6323-0.64,1.3115-1.2417,2.0216-1.7942C42.7916,23.8063,43.4083,23.798,44.1717,24.6153z"/>
					<path class="st0" d="M39.3369,28.8956c-0.626,0.3031-1.1499,0.5547-1.6714,0.811c-0.1279,0.0628-0.2895,0.1118-0.3644,0.2175
						c-0.2401,0.3392-0.4468,0.702-0.6664,1.0557c0.3393-0.1463,0.7005-0.2569,1.0127-0.4477
						c0.4209-0.2572,0.8011-0.5803,1.2042-0.8675c0.6231-0.4439,1.1597-0.3562,1.7027,0.1935
						c0.5497,0.5564,0.5194,1.1308,0.0491,1.6199c-0.7218,0.7506-1.4947,1.4669-2.3244,2.0937
						c-0.5679,0.429-1.2012,0.3148-1.8435-0.4553c0.6158-0.2836,1.153-0.5317,1.6911-0.778
						c0.0782-0.0358,0.1828-0.0409,0.2372-0.097c0.3373-0.3482,0.6666-0.7046,0.9833-1.0714
						c0.0124-0.0143-0.1725-0.2479-0.1956-0.2366c-0.3742,0.183-0.7498,0.3694-1.099,0.5952
						c-0.39,0.2522-0.7339,0.5791-1.1337,0.812c-0.6165,0.3591-1.173,0.2026-1.6339-0.3206
						c-0.4637-0.5263-0.443-1.1097,0.0092-1.577c0.6654-0.6875,1.3806-1.3385,2.1403-1.9191
						C37.9953,28.0951,38.6192,28.1349,39.3369,28.8956z"/>
					<path class="st0" d="M46.5793,36.1687c-0.3165,0.5812-0.5936,1.09-0.9336,1.7144c-0.4904-0.4656-0.8363-0.7939-1.1759-1.1163
						c0.7254-0.9737,0.7254-0.9737-0.4398-1.9731c-0.281,0.2176-0.5717,0.4427-0.9122,0.7064
						c-0.3375-0.3103-0.6767-0.6222-0.927-0.8524c1.0007-1.1052,1.9854-2.1927,3.013-3.3277
						c0.8645,0.8113,1.6342,1.5149,2.3812,2.2416c0.4476,0.4354,0.9139,0.9512,0.5477,1.6026
						C47.7747,35.8012,47.2741,36.3813,46.5793,36.1687z M45.5779,33.2416c-0.2538,0.2415-0.4991,0.475-0.7438,0.7078
						c1.2025,1.2758,1.2025,1.2758,1.8534,0.3583C46.3433,33.977,45.9921,33.6396,45.5779,33.2416z"/>
					<path class="st0" d="M54.5262,46.2037c1.031-1.1084,2.0152-2.1665,3.1874-3.4266c0.8962,0.9715,1.7653,1.8587,2.5674,2.8029
						c0.514,0.605,0.4713,1.2774-0.0594,1.8921c-0.0568,0.0657-0.1185,0.1272-0.1786,0.19
						c-1.6031,1.6775-2.1775,1.6906-3.8689,0.0912C55.607,47.217,55.037,46.6839,54.5262,46.2037z M58.0807,44.7695
						c-0.6965,0.6106-1.2316,1.0797-1.9492,1.7088c0.7136,0.3671,1.2698,0.8889,1.7718,0.8412
						c0.4464-0.0424,1.1749-0.7288,1.1609-1.1081C59.0458,45.7106,58.4242,45.2321,58.0807,44.7695z"/>
					<path class="st0" d="M28.1061,21.4779c-0.4758-0.4271-0.8618-0.7735-1.2373-1.1106c0.3046-1.1028-0.7196-2.1012-1.8749-2.1277
						c-0.4978-0.0115-0.9827-0.5833-1.6621-1.0225c1.6542-0.6629,3.0844-1.2464,4.5272-1.7969
						c0.1309-0.05,0.3762,0.0707,0.5117,0.1815c1.6229,1.3268,1.6208,1.3306,0.8212,3.266
						C28.8483,19.6995,28.5007,20.5297,28.1061,21.4779z M26.5233,17.7306c0.3399,0.2889,0.6563,0.5578,1.0384,0.8825
						c0.2518-0.5899,0.4538-1.0629,0.7178-1.6813c-0.5992,0.2387-1.004,0.3944-1.4035,0.5627
						C26.7714,17.5387,26.6832,17.6218,26.5233,17.7306z"/>
					<path class="st0" d="M52.2189,38.785c-0.217,0.9802-1.066,1.5376-1.8529,2.1025c-0.6034,0.4332-1.2714,0.1829-1.7764-0.2346
						c-0.6441-0.5325-1.2602-1.1235-1.778-1.7767c-0.4387-0.5534-0.3711-1.2018,0.1327-1.7511
						c0.0786-0.0857,0.1569-0.1733,0.2456-0.2479c0.6453-0.5432,1.1395-1.4877,2.1815-1.1381
						c1.2653,0.4246,2.1384,1.364,2.7731,2.5203C52.2092,38.3776,52.1877,38.5432,52.2189,38.785z M49.4925,36.8312
						c-0.5704,0.6315-1.1689,1.0775-1.3982,1.667c-0.0789,0.2029,0.9274,1.1724,1.1526,1.0819
						c0.5808-0.2335,1.1372-0.7982,1.4134-1.3705C50.7554,38.0124,49.9934,37.4016,49.4925,36.8312z"/>
					<path class="st0" d="M25.2606,42.8063c0.8428,0.7917,0.9901,1.3622,0.3895,2.0133c-0.6993,0.7583-1.5206,1.4212-2.3603,2.0266
						c-0.5343,0.3852-1.1642,0.2654-1.6956-0.1604c-0.0453-0.0363-0.0935-0.0691-0.1379-0.1065
						c-1.7888-1.5075-1.8148-2.2581-0.1085-3.851c0.3808-0.3555,0.7811-0.7001,1.2133-0.9885
						c0.8094-0.5401,1.2214-0.4577,1.9813,0.3424c-0.5488,0.3726-0.79,1.1096-1.7348,0.9957
						c-0.3091-0.0373-1.0978,0.9471-1.0094,1.1123c0.2884,0.5391,0.8182,1.0471,1.3763,1.3115
						c0.4087,0.1937,0.9748-0.8093,1.1179-1.3332C24.4253,43.6816,24.9006,43.2883,25.2606,42.8063z"/>
					<path class="st0" d="M49.9541,41.8965c1.4551-0.6508,2.7887-1.2617,4.1394-1.8319c0.1555-0.0656,0.4553,0.0378,0.6046,0.1627
						c0.4659,0.3898,0.8917,0.8275,1.3574,1.2697c-0.6562,1.4128-1.2999,2.7987-1.9971,4.2999
						c-0.3926-0.6046-1.4112-0.7157-0.8579-1.6902c-0.5088-0.458-1.146-1.383-1.5021-1.2851
						C50.685,43.1002,50.5608,42.3113,49.9541,41.8965z M54.5192,41.4182c-0.7148,0.3387-1.185,0.5616-1.7543,0.8314
						c0.367,0.3318,0.6166,0.5576,0.9281,0.8391C53.954,42.5607,54.1788,42.1063,54.5192,41.4182z"/>
					<path class="st0" d="M33.7426,20.7652c0.4727,0.4236,0.8379,0.7508,1.2775,1.1448c-0.871,0.777-1.7075,1.5231-2.5594,2.2831
						c0.7798,0.7251,1.3731,1.2768,2.0687,1.9235c-0.2793,0.2585-0.5046,0.4671-0.7957,0.7365
						c-1.0724-0.9935-2.0873-1.9338-3.0856-2.8587C31.6932,22.9038,32.6921,21.8615,33.7426,20.7652z"/>
					<path class="st0" d="M44.2818,22.368c0.3764-0.3356,0.7611-0.6787,1.0648-0.9494c1.0771,1.0139,2.128,2.003,3.2574,3.0662
						c-0.4113,0.3794-0.7823,0.7216-1.1198,1.0328C46.4021,24.4533,45.3614,23.4298,44.2818,22.368z"/>
					<path class="st0" d="M29.8604,23.1478c-0.4063-0.3857-0.7766-0.7372-1.1067-1.0507c1.0266-1.0928,2.0116-2.1413,3.0446-3.241
						c0.4427,0.4161,0.8316,0.7816,1.1102,1.0435C31.8725,21.0037,30.8885,22.0522,29.8604,23.1478z"/>
					<path class="st0" d="M39.3158,80.6428c0.0856-1.2745,0.0919-2.5608,0.2781-3.8204c0.2051-1.3871,1.0775-2.251,2.5112-2.3677
						c0.8017-0.0653,1.6308-0.0683,2.4209,0.0623c1.2307,0.2034,2.1407,1.2807,2.2089,2.7974
						c0.0992,2.2067,0.143,4.4296-0.0117,6.63c-0.1551,2.2063-1.8076,3.2315-4.3021,2.9252
						c-1.8904-0.2321-2.8717-1.266-2.992-3.2504c-0.0599-0.987-0.0104-1.9806-0.0104-2.9713
						C39.3844,80.6462,39.3501,80.6445,39.3158,80.6428z M44.5163,80.7103c0-0.8147,0.0326-1.631-0.0087-2.4436
						c-0.046-0.906-0.7006-1.0028-1.4322-1.0095c-0.7247-0.0066-1.3361,0.1742-1.3624,0.9946
						c-0.0503,1.5689-0.0476,3.1414-0.002,4.7105c0.0239,0.8217,0.617,1.009,1.3509,1.0013
						c0.7275-0.0076,1.3911-0.0716,1.445-0.9847C44.5514,82.2253,44.516,81.4669,44.5163,80.7103z"/>
					<path class="st0" d="M31.0341,78.2927c-0.7826,0-1.4393,0-2.1489,0c-0.0014-0.9252-0.4395-1.3061-1.3702-1.2027
						c-0.6298,0.07-1.0505,0.2041-1.0738,0.9515c-0.0238,0.7656,0.2732,1.1394,1.0489,1.1636
						c0.4339,0.0135,0.8667,0.0911,1.2979,0.1537c1.7322,0.2517,2.2676,0.8032,2.3796,2.539
						c0.0487,0.7537,0.0554,1.5173-0.0053,2.2695c-0.1314,1.6293-0.7895,2.3223-2.3974,2.6178
						c-0.2847,0.0523-0.5754,0.0933-0.8641,0.0989c-2.9006,0.0571-3.9112-1.0629-3.6233-4.0832c0.6437,0,1.296,0,1.9995,0
						c0.02,0.9296,0.4333,1.4136,1.4584,1.3427c1.0873-0.0752,1.5806-0.7139,1.1687-1.7329
						c-0.0752-0.1861-0.3563-0.3638-0.5697-0.4054c-0.7114-0.1387-1.4334-0.2304-2.1548-0.3094
						c-1.0618-0.1164-1.672-0.7823-1.7664-1.7483c-0.1175-1.2035-0.121-2.4387,0.0108-3.6401
						c0.1288-1.1744,0.7705-1.7166,1.9794-1.8487c0.8299-0.0907,1.6788-0.0666,2.5154-0.0219
						c1.0897,0.0582,1.6742,0.7589,1.8838,1.7574C30.9429,76.8623,30.9577,77.5565,31.0341,78.2927z"/>
					<path class="st0" d="M50.5318,83.6049c0,1.1016,0,2.0834,0,3.1064c-0.753,0-1.4129,0-2.1323,0c0-4.0458,0-8.0827,0-12.1788
						c1.6082,0,3.2327-0.0953,4.8391,0.0349c1.0029,0.0813,1.611,0.9597,1.6732,1.8897c0.1195,1.7868,0.1519,3.5968,0.0005,5.3785
						c-0.1037,1.2196-0.9488,1.7419-2.2194,1.767C52.0272,83.6157,51.3613,83.6049,50.5318,83.6049z M50.5349,77.4226
						c0,0.8413-0.0314,1.6794,0.0176,2.5128c0.0164,0.2797,0.2399,0.7826,0.3643,0.7812c0.6495-0.007,1.4872,0.3668,1.8801-0.4475
						c0.8345-1.7297-0.0675-3.0589-1.9435-2.9478C50.7991,77.3246,50.7464,77.3541,50.5349,77.4226z"/>
					<path class="st0" d="M34.1835,77.3161c-0.7695,0-1.396,0-2.0687,0c0-0.9754,0-1.863,0-2.8025c2.112,0,4.1965,0,6.3455,0
						c0,0.8943,0,1.7799,0,2.7721c-0.655,0-1.3089,0-2.0829,0c0,3.2022,0,6.3021,0,9.4347c-0.786,0-1.448,0-2.194,0
						C34.1835,83.6188,34.1835,80.5424,34.1835,77.3161z"/>
					<path class="st0" d="M20.8071,57.6657c1.4469-0.0462,2.7345,0.564,3.6743,1.944c0.4549,0.6681,1.0674,1.2272,1.5437,1.8827
						c0.6657,0.9161,0.4562,1.9529,0.1982,2.9302c-0.7537,2.8547-3.7617,4.561-6.8626,3.9441
						c-2.901-0.5771-4.8076-3.2241-4.4361-6.1608c0.0145-0.1148,0.0305-0.2315,0.0643-0.3416
						C15.6165,59.8177,18.5118,57.6589,20.8071,57.6657z"/>
					<path class="st0" d="M28.4361,60.9809c-1.4015-0.2187-2.3685-0.9375-3.1292-2.005c-2.4216-3.3979-7.0005-3.4051-9.4959-0.0199
						c-0.6638,0.9005-1.3768,1.7256-2.5305,2.021c-0.415-2.4316,2.6164-5.5746,5.9318-6.0394
						C24.1517,54.2451,27.5598,57.2201,28.4361,60.9809z"/>
					<path class="st0" d="M58.7515,57.6656c1.4119-0.0518,2.6758,0.5517,3.615,1.8814c0.4838,0.685,1.2517,1.2241,1.5553,1.9665
						c0.3175,0.7764,0.4245,1.7493,0.2877,2.581c-0.4657,2.8313-3.6136,4.8758-6.5039,4.3502
						c-3.319-0.6036-5.3253-3.241-4.8203-6.3358c0.014-0.086,0.0096-0.1764,0.0327-0.2595
						C53.4568,59.911,56.4947,57.6588,58.7515,57.6656z"/>
					<path class="st0" d="M66.3749,60.9729c-1.4712-0.2058-2.4363-1.0032-3.2264-2.1111c-2.2854-3.2049-6.9292-3.233-9.2925-0.0726
						c-1.1275,1.5078-1.5069,1.8182-2.6272,2.1492c-0.4542-2.4183,2.6048-5.5681,5.9957-6.1738
						C61.3562,54.0266,65.6996,56.9283,66.3749,60.9729z"/>
					<path d="M22.9353,12.0248c0.2891,0.262,0.5519,0.4848,0.796,0.7266c0.1604,0.1589,0.2939,0.345,0.4751,0.5615
						c-0.2144,0.2281-0.405,0.431-0.6712,0.7141c-0.4825-0.4074-0.9339-0.7885-1.4901-1.2582
						C22.3444,12.5188,22.6028,12.3028,22.9353,12.0248z"/>
					<path d="M28.5711,39.4109c-0.1849,0.1288-0.3853,0.2527-0.5675,0.3993c-0.2246,0.1808-0.4339,0.3805-0.7235,0.6373
						c-0.2606-0.2388-0.5055-0.4632-0.7487-0.6861C27.6187,38.3791,28.144,38.2851,28.5711,39.4109z"/>
					<path d="M34.7146,35.4979c-0.7065,0.5159-1.2728,1.2303-1.6677,1.1456c-0.561-0.1203-0.996-0.8285-1.4848-1.2854
						c0.4717-0.4301,0.9571-1.215,1.4114-1.1973C33.4992,34.1812,33.9975,34.9077,34.7146,35.4979z"/>
					<path d="M45.5779,33.2416c0.4142,0.398,0.7655,0.7355,1.1096,1.0661c-0.651,0.9175-0.651,0.9175-1.8534-0.3583
						C45.0787,33.7165,45.3241,33.4831,45.5779,33.2416z"/>
					<path d="M58.0807,44.7695c0.3435,0.4627,0.9651,0.9412,0.9835,1.4419c0.014,0.3793-0.7146,1.0657-1.1609,1.1081
						c-0.502,0.0477-1.0582-0.474-1.7718-0.8412C56.8491,45.8492,57.3842,45.3801,58.0807,44.7695z"/>
					<path d="M26.5233,17.7306c0.1599-0.1089,0.2481-0.192,0.3527-0.236c0.3995-0.1683,0.8043-0.3241,1.4035-0.5627
						c-0.264,0.6183-0.4659,1.0914-0.7178,1.6813C27.1796,18.2884,26.8632,18.0195,26.5233,17.7306z"/>
					<path d="M49.4925,36.8312c0.5009,0.5704,1.2629,1.1813,1.1678,1.3784c-0.2762,0.5723-0.8326,1.137-1.4134,1.3705
						c-0.2252,0.0905-1.2315-0.879-1.1526-1.0819C48.3236,37.9087,48.9221,37.4627,49.4925,36.8312z"/>
					<path d="M54.5192,41.4182c-0.3404,0.6881-0.5651,1.1426-0.8262,1.6705c-0.3114-0.2816-0.5611-0.5073-0.9281-0.8391
						C53.3342,41.9797,53.8044,41.7569,54.5192,41.4182z"/>
					<path d="M44.5162,80.7104c-0.0001,0.7565,0.0353,1.5149-0.0092,2.2685c-0.0539,0.913-0.7175,0.9771-1.445,0.9847
						c-0.7339,0.0077-1.327-0.1797-1.3509-1.0013c-0.0456-1.5691-0.0483-3.1417,0.002-4.7105
						c0.0263-0.8203,0.6377-1.0012,1.3624-0.9946c0.7315,0.0067,1.3861,0.1035,1.4322,1.0095
						C44.5489,79.0793,44.5163,79.8956,44.5162,80.7104z"/>
					<path d="M50.5349,77.4226c0.2115-0.0685,0.2642-0.098,0.3184-0.1012c1.8761-0.1111,2.778,1.218,1.9435,2.9478
						c-0.3929,0.8143-1.2305,0.4405-1.8801,0.4475c-0.1245,0.0014-0.3479-0.5015-0.3643-0.7812
						C50.5035,79.102,50.5349,78.2639,50.5349,77.4226z"/>
				</g>
			</g>
			<path d="M49.5424,172.5991H29.3807c-0.7421,0-1.3493-0.6072-1.3493-1.3493v-12.3241c0-0.7421,0.6072-1.3493,1.3493-1.3493
				h20.1617c0.7421,0,1.3493,0.6072,1.3493,1.3493v12.3241C50.8916,171.9919,50.2845,172.5991,49.5424,172.5991z"/>
			<rect x="36.4281" y="95.0083" width="6.0667" height="62.5682"/>
		</g>
		<path d="M32.4536,139.4817h-5.969c-2.7429,0-4.987-2.2442-4.987-4.987v-13.5508c0-2.7429,2.2442-4.987,4.987-4.987h5.969
			c2.7429,0,4.987,2.2442,4.987,4.987v13.5508C37.4406,137.2375,35.1964,139.4817,32.4536,139.4817z"/>
	</g>
	<g id="Post_copy_5">
	</g>
	<path class="st4" d="M14.0228,75.7113c0,0-4.8465,3.4958-0.598,8.843c4.0594,5.1091,9.5514,2.3441,10.8161,1.1894
		c1.2648-1.1547,4.7101-3.4329,1.811-8.1618s-5.4299-4.415-6.2677-4.4379C19.0815,73.1248,17.5631,72.4517,14.0228,75.7113z"/>
	<path class="st1" d="M54.1912,59.7541c0,0-3.7664,2.2464-0.4592,6.4551c3.3073,4.2088,7.4196,2.0637,8.4109,1.1587
		s3.6916-2.6906,1.4194-6.3969c-2.2723-3.7063-4.2584-3.5397-4.9124-3.4782C57.9959,57.5542,56.4166,57.6063,54.1912,59.7541z"/>
</g>
<g id="Gate_Right" class="st2">
	<g class="st5">
		<g>
			<g>
				<path d="M312.1974,170.8618c-1.2688-1.5201-3.2655-1.4579-4.4373,0.1382c0,0-10.1196,13.7851-10.8696,14.379h-21.4
					c-1.98,0-3.6,1.62-3.6,3.6v3.6125c0,1.98,1.6199,3.6179,3.5998,3.6398l20.7971,0.2297
					c1.9799,0.0219,4.5751-1.2537,5.7672-2.8346l11.6651-15.4698c1.1921-1.5809,1.1294-4.1181-0.1394-5.6381L312.1974,170.8618z"/>
			</g>
			<circle class="st6" cx="309.8709" cy="175.4719" r="3.3808"/>
		</g>
		<g>
			<rect x="39.6405" y="187.9899" width="236.8098" height="5.7604"/>
			<g>
				<polygon class="st0" points="94.628,188.5275 90.6549,193.1525 64.3711,193.1525 68.3442,188.5275 				"/>
				<polygon class="st0" points="147.1957,188.5275 143.2225,193.1525 116.9387,193.1525 120.9119,188.5275 				"/>
				<polygon class="st0" points="199.4577,188.5275 195.4845,193.1525 169.2007,193.1525 173.1739,188.5275 				"/>
				<polygon class="st0" points="251.7197,188.5877 247.7466,193.2127 221.4627,193.2127 225.4359,188.5877 				"/>
			</g>
		</g>
	</g>
</g>
<g id="Gate_Left" class="st2">
</g>
<g id="Right_Light_On" class="st2">
	<g id="Layer_1_copy" class="st5">
	</g>
	<g id="Post_copy" class="st5">
	</g>
</g>
<g id="Left_Light_On">
	<g id="Layer_1_copy_2" class="st2">
	</g>
	<g id="Post_copy_2">
	</g>
</g>
<g id="Right_Light_On_copy">
	<g id="Layer_1_copy_4">
	</g>
	<g id="Light_copy_3">
	</g>
	<g id="Post_copy_4">
	</g>
</g>
<g id="Left_Light_On_copy">
	<g id="Layer_1_copy_3">
	</g>
	<g id="Light_copy_2">
	</g>
	<g id="Post_copy_3">
	</g>
</g>
</svg>
