<?xml version="1.0" encoding="utf-8"?>
<!-- Generator: Adobe Illustrator 19.1.0, SVG Export Plug-In . SVG Version: 6.00 Build 0)  -->
<svg version="1.1" xmlns="http://www.w3.org/2000/svg" xmlns:xlink="http://www.w3.org/1999/xlink" x="0px" y="0px"
	 viewBox="0 0 864 432" style="enable-background:new 0 0 864 432;" xml:space="preserve">
<style type="text/css">
	.st0{fill:#FFFFFF;stroke:#000000;stroke-miterlimit:10;}
	.st1{fill:#FFFFFF;}
</style>
<g id="Layer_2">
	<rect x="433.1" y="21.8" class="st0" width="211.9" height="31.2"/>
	<rect x="647.1" y="24.2" class="st1" width="178.1" height="29.5"/>
	<path class="st1" d="M827.2,25.4l9.5,5.6c0,0,3.4,2.9,8,5.2c4.6,2.2,11.5,5.9,16.9,9.9s-3,9.3-3,9.3h-24.6c0,0,0.3,3.7-4.8,6.5
		c-3.5-1.7-9.6-3.1-9.6-3.1c-2.4-0.1-3.9-1.4-4-4.5l-3,0c0,0,1.5,4.4-7.4,5.2c-8.9,0.8-9.5,0.1-9.5,0.1s-2.3-5-1.5-6.3
		c0.7-1.3-0.2-30.9-0.2-30.9l23.2,0.8L827.2,25.4z"/>
</g>
<g id="Layer_1">
	<path class="st1" d="M402.2,57.4c0.8,0.2,1.7,0.1,2,0.5c1,1.5,2.5,1.2,3.8,1c1.1-0.2,1.8,0.1,2.6,0.8c3.4,3,8.4,1.5,9.7-2.8
		c0.1-0.3,0.3-0.6,0.3-0.7c0.5,0.6,1,1.7,1.6,1.7c2.8,0.2,5.5,0.1,8.4,0.1c0-1.9,0-3.5,0-5.1c0.6-0.1,1-0.2,1.7-0.4
		c-0.1-1.3,0.2-3.1-0.4-3.6c-1-0.7-0.8-1.4-0.8-2.1c0-3.9,0-7.7,0-11.6c0-4.5-0.1-8.9-0.2-13.5c-1.2,0-1.8,0-2.5,0
		c-11.7,0-23.5,0-35.2,0c-42.1,0-84.2,0-126.3,0c-0.8,0-1.7-0.2-2.5-0.3c-6.7-1.2-13.3-2.8-20-3.4c-7-0.7-14-0.4-21-0.5
		c-4.7-0.1-4.7,0-4.7,4.6c0,0.5-0.1,1.1-0.1,1.7c-0.7-0.1-1.2-0.1-1.6-0.1c-0.1-0.2-0.1-0.3-0.1-0.4c0-1.1,0-2.2,0-3.2
		c0-1.9-0.6-2.5-2.6-2.5c-6.4,0-12.8,0-19.1,0c-1.3,0-2.3,0.4-2.9,1.6c-0.2,0.4-0.7,0.9-1.2,1c-1.2,0.1-2.4,0-3.7,0
		c-0.2-0.8-0.3-1.3-0.4-1.8c-1.3,0-2.4,0-3.8,0c0.5,1.6,1.1,3.1,0,4.1c-0.9-0.9-1.6-1.8-2.6-2.3c-3.6-1.9-7.3-3.5-11.3-5.4
		c3.8-1.9,7.3-3.6,10.8-5.4c0.7-0.3,1.2-0.9,1.7-1.3c0.3,0.3,0.7,0.7,1.1,1c0.1,0.1,0.6-0.2,0.7-0.3c0.5-1.7,0.9-3.4,1.4-5.2
		c-1.4,0-2.8,0-4.5,0c0.3,0.6,0.5,1.1,0.7,1.6c-1.8,0.8-3.6,1.5-5.3,2.3c-2.2,1.2-4.3,2.6-6.5,3.8c-1.4,0.7-2.9,1-4.2,1.9
		c-0.8,0.5-1.3,1.6-2,2.4c0.8,0.3,1.7,0.7,2.5,0.9c0.6,0.1,1.3-0.3,1.8-0.1c3,1.4,6,2.8,9,4.3c-0.8,0.3-1.5,0.6-2.4,1
		c-1.1-0.9-2.4-2-3.9-2.9c-0.8-0.5-1.7-0.9-2.6-0.9c-7.7,0-15.3,0.9-22.9,2.4c-5.8,1.1-11.6,1.9-17.6,1.8
		c-18.9-0.2-37.7-0.1-56.6-0.1c-0.7,0-1.5,0.1-2.2,0.1c-4.2,0-8.3,0.1-12.5,0.1c-4,0-8-0.4-11.9,0.1c-6.4,0.8-11.7,4.4-16.6,8.2
		c-3.2,2.5-6.5,4.5-10.1,6.2C12,38.9,7.1,41.8,2.5,45.4c-1.5,1.1-2.2,2.4-1.8,4.2c0.2,0.8,0.4,1.6,0.9,2.2c0.9,1.1,2.1,2.1,3,3
		c-0.5,1.1-0.8,2-1.3,3.2c1.1,0,1.7,0,2.4,0c6.8,0,13.7,0,20.5,0c1.6,0,3.5,0.5,3.7-2.5c0.3,0.7,0.3,0.9,0.4,1c1.6,5,6.3,6.3,10.3,3
		c0.4-0.4,1.2-0.4,1.8-0.5c1.1-0.1,2.3,0,3.3-0.3c0.9-0.3,1.7-1,2.9-1.7c0.1-0.6,0.3-1.6,0.6-2.6c0.6,0,1.2,0,1.7,0
		c0.3,1.2,0.5,2.2,0.8,3.2c0.1-0.1,0.2-0.2,0.3-0.3c0.8,0.5,1.5,1,2.3,1.4c0.4,0.2,0.9,0.5,1.4,0.5c2-0.3,3.5,0.1,5.3,1.3
		c3.6,2.4,7.5,0.4,9.3-4.8c0.2,3.1,2.2,2.5,3.8,2.5c29.6,0,59.3,0,88.9,0c1.6,0,3.4,0.4,3.7-2.4c0.4,1,0.5,1.6,0.8,2.1
		c1.6,3.6,6.3,4.8,9.3,2.2c1-0.8,1.8-1.1,3.1-1c0.9,0.1,1.9,0,2.7-0.3c0.9-0.3,1.6-1,2.4-1.5c0.1,0.1,0.2,0.2,0.3,0.3
		c0.3-1.1,0.5-2.1,0.8-3.2c0.6,0,1.1,0,1.6,0c0.2,1.1,0.5,2.1,0.7,3.1c0.8,0.2,1.8,0.2,2.1,0.7c0.8,1,1.7,1.1,2.9,1
		c1.4-0.2,2.7-0.2,3.8,1.1c0.5,0.5,1.4,0.8,2.1,1c3.4,0.9,6.1-1,7.5-5c0.5,0.6,0.9,1.8,1.4,1.8c2.8,0.2,5.6,0.1,8.6,0.1
		c0-1.9,0-3.5,0-5.3c0.7,0,1.2,0.1,1.9,0.1c0,1.8,0,3.4,0,5.2c2.1,0,4,0,6,0c1.7,0,3.6,0.4,3.9-2.8c0.3,0.9,0.4,1.2,0.5,1.4
		c1.4,4.5,6.3,6.1,9.9,3c0.8-0.7,1.6-0.9,2.6-0.8c1,0.1,2,0,2.9-0.3c0.9-0.3,1.6-1,2.8-1.7c0.1-0.5,0.4-1.6,0.7-2.7
		c0.5,0,1.1,0,1.7,0c0.3,1.1,0.5,2.2,0.7,3c0.8,0.3,1.8,0.3,2.1,0.8c0.8,1,1.8,1,2.9,0.9c1,0,2.1-0.5,3.1,0.5c3.1,3,7.8,2,9.7-1.9
		c0.2-0.4,0.4-0.8,0.7-1.6c0.3,1.7,1.2,1.9,2.4,1.9c12.4-0.1,24.8-0.1,37.3-0.1c22.9,0,45.8,0,68.7,0.1c1.5,0,2.6-0.1,3.1-2
		c0.2,0.5,0.3,0.7,0.4,0.9c1.8,4.7,6.5,5.9,10.3,2.6c0.4-0.4,1.2-0.4,1.8-0.5c1.1-0.1,2.3,0,3.3-0.3c0.9-0.3,1.7-1,2.9-1.7
		c0.2-0.6,0.4-1.7,0.7-2.8c0.6,0,1.2,0.1,1.7,0.1C401.8,55.5,402,56.5,402.2,57.4z"/>
	<path d="M402.2,57.4c-0.2-0.9-0.4-1.9-0.6-3.1c-0.5,0-1.1-0.1-1.7-0.1c-0.3,1.1-0.5,2.2-0.7,2.8c-1.1,0.7-1.9,1.4-2.9,1.7
		c-1,0.3-2.2,0.2-3.3,0.3c-0.6,0.1-1.4,0.1-1.8,0.5c-3.8,3.3-8.4,2.2-10.3-2.6c-0.1-0.2-0.2-0.4-0.4-0.9c-0.5,1.9-1.6,2-3.1,2
		C354.5,58,331.6,58,308.7,58c-12.4,0-24.8,0-37.3,0.1c-1.2,0-2.1-0.2-2.4-1.9c-0.3,0.7-0.5,1.2-0.7,1.6c-1.9,3.9-6.6,4.9-9.7,1.9
		c-1.1-1-2.1-0.6-3.1-0.5c-1.1,0-2.1,0.1-2.9-0.9c-0.4-0.5-1.3-0.5-2.1-0.8c-0.2-0.8-0.4-1.9-0.7-3c-0.6,0-1.2,0-1.7,0
		c-0.3,1.1-0.6,2.1-0.7,2.7c-1.2,0.7-1.9,1.4-2.8,1.7c-0.9,0.3-2,0.4-2.9,0.3c-1-0.1-1.8,0.1-2.6,0.8c-3.5,3.1-8.5,1.5-9.9-3
		c-0.1-0.3-0.2-0.5-0.5-1.4c-0.3,3.2-2.2,2.8-3.9,2.8c-1.9,0-3.9,0-6,0c0-1.8,0-3.4,0-5.2c-0.7,0-1.2-0.1-1.9-0.1c0,1.8,0,3.4,0,5.3
		c-3,0-5.8,0.1-8.6-0.1c-0.5,0-1-1.2-1.4-1.8c-1.4,4-4.1,5.9-7.5,5c-0.8-0.2-1.7-0.4-2.1-1c-1.1-1.3-2.4-1.3-3.8-1.1
		c-1.1,0.2-2.1,0.1-2.9-1c-0.4-0.5-1.3-0.5-2.1-0.7c-0.2-0.9-0.4-1.9-0.7-3.1c-0.5,0-1.1,0-1.6,0c-0.3,1.1-0.5,2.2-0.8,3.2
		c-0.1-0.1-0.2-0.2-0.3-0.3c-0.8,0.5-1.6,1.2-2.4,1.5c-0.9,0.3-1.8,0.4-2.7,0.3c-1.2-0.1-2.1,0.1-3.1,1c-3,2.6-7.7,1.4-9.3-2.2
		c-0.2-0.5-0.4-1.1-0.8-2.1c-0.3,2.9-2.1,2.4-3.7,2.4c-29.6,0-59.3,0-88.9,0c-1.6,0-3.6,0.6-3.8-2.5c-1.8,5.2-5.7,7.2-9.3,4.8
		c-1.8-1.2-3.3-1.6-5.3-1.3c-0.4,0.1-0.9-0.2-1.4-0.5c-0.8-0.4-1.5-0.9-2.3-1.4c-0.1,0.1-0.2,0.2-0.3,0.3c-0.2-1-0.5-2-0.8-3.2
		c-0.5,0-1.1,0-1.7,0c-0.2,1.1-0.4,2.1-0.6,2.6c-1.2,0.7-2,1.4-2.9,1.7c-1,0.3-2.2,0.2-3.3,0.3c-0.6,0.1-1.4,0.1-1.8,0.5
		c-4,3.4-8.8,2-10.3-3c0-0.2-0.1-0.3-0.4-1c-0.2,3-2,2.5-3.7,2.5c-6.8,0-13.7,0-20.5,0c-0.6,0-1.2,0-2.4,0c0.5-1.2,0.9-2.1,1.3-3.2
		c-0.9-0.9-2.1-1.8-3-3c-0.5-0.6-0.8-1.5-0.9-2.2c-0.4-1.8,0.4-3.1,1.8-4.2c4.5-3.6,9.5-6.5,14.7-8.9c3.6-1.7,6.9-3.7,10.1-6.2
		c4.9-3.8,10.2-7.4,16.6-8.2c3.9-0.5,7.9-0.1,11.9-0.1c4.2,0,8.3,0,12.5-0.1c0.7,0,1.5-0.1,2.2-0.1c18.9,0,37.7-0.1,56.6,0.1
		c6,0.1,11.8-0.7,17.6-1.8c7.5-1.5,15.2-2.4,22.9-2.4c0.9,0,1.8,0.4,2.6,0.9c1.4,0.9,2.7,2,3.9,2.9c0.9-0.4,1.6-0.6,2.4-1
		c-3-1.4-6-2.9-9-4.3c-0.5-0.2-1.2,0.2-1.8,0.1c-0.9-0.2-1.7-0.6-2.5-0.9c0.6-0.8,1.1-1.9,2-2.4c1.3-0.8,2.9-1.1,4.2-1.9
		c2.2-1.2,4.3-2.6,6.5-3.8c1.7-0.9,3.5-1.6,5.3-2.3c-0.2-0.5-0.4-0.9-0.7-1.6c1.7,0,3.1,0,4.5,0c-0.5,1.7-0.9,3.5-1.4,5.2
		c-0.1,0.2-0.6,0.4-0.7,0.3c-0.4-0.3-0.8-0.7-1.1-1c-0.5,0.4-1,0.9-1.7,1.3c-3.5,1.8-7,3.5-10.8,5.4c4,1.9,7.7,3.6,11.3,5.4
		c1,0.5,1.7,1.5,2.6,2.3c1.1-1,0.5-2.5,0-4.1c1.4,0,2.5,0,3.8,0c0.1,0.5,0.2,1,0.4,1.8c1.2,0,2.4,0.1,3.7,0c0.4,0,1-0.5,1.2-1
		c0.6-1.3,1.5-1.7,2.9-1.6c6.4,0,12.8,0,19.1,0c2,0,2.5,0.6,2.6,2.5c0,1.1,0,2.2,0,3.2c0,0.1,0.1,0.2,0.1,0.4c0.4,0,0.9,0.1,1.6,0.1
		c0-0.6,0.1-1.2,0.1-1.7c0.1-4.6,0.1-4.7,4.7-4.6c7,0.1,14-0.2,21,0.5c6.7,0.6,13.3,2.2,20,3.4c0.8,0.1,1.7,0.3,2.5,0.3
		c42.1,0,84.2,0,126.3,0c11.7,0,23.5,0,35.2,0c0.7,0,1.3,0,2.5,0c0.1,4.6,0.1,9.1,0.2,13.5c0,3.9,0,7.7,0,11.6
		c0,0.7-0.2,1.4,0.8,2.1c0.6,0.4,0.3,2.3,0.4,3.6c-0.7,0.2-1.1,0.3-1.7,0.4c0,1.6,0,3.2,0,5.1c-2.9,0-5.6,0.1-8.4-0.1
		c-0.6,0-1.1-1.1-1.6-1.7c-0.1,0.2-0.2,0.4-0.3,0.7c-1.4,4.3-6.3,5.8-9.7,2.8c-0.8-0.7-1.5-1-2.6-0.8c-1.4,0.2-2.8,0.5-3.8-1
		C403.9,57.6,403,57.6,402.2,57.4z M180.9,6c-0.2,0.1-0.4,0.2-0.6,0.3c-3.3,0.4-5.9,2.5-8.6,4.2c-2.6,1.6-5.7,2.5-8.3,5.1
		c1,0,1.7,0.3,2.1,0.1c1.5-0.8,2.6,0.1,3.8,0.6c1,0.5,2,1,3.1,1.5c2.3,1.1,4.6,2.2,7,3.3c-0.9,0.3-1.8,0.3-2.6,0.3
		c-1-0.1-1.7,0.2-1.4,1.7c2.2-1.5,4.4-1.3,6.5,0c0.2-1.6-0.6-2.2-1.7-2.7c-4-1.8-7.9-3.7-12-5.6c0.4-0.3,0.6-0.5,0.8-0.7
		c3.7-1.9,7.3-3.7,11-5.6c0.4-0.3,0.8-0.5,1.1-0.9c0.4-0.4,0.7-1,1.4-1.8c0.2,1.1,0.3,1.8,0.5,2.5c0.4-1.5,0.7-2.8,1-4.2
		c-0.6,0-1.3,0-2,0c0.1,0.1,0.2,0.3,0.3,0.4C181.7,5,181.3,5.5,180.9,6z M272.2,55.6c0.3,0.1,0.6,0.3,0.9,0.3c3.5,0,7,0,10.6,0
		c0.3,0,0.6-0.2,0.9-0.3c0.2-0.5,0.3-1,0.5-1.6c0.9,0,1.9,0,3,0c0,1,0,1.8,0,2.6c0,0,0.1,0,0.1,0c0.1-0.9,0.1-1.8,0.2-2.6
		c3.7,0,7.3,0,11,0c0,1,0,1.9,0,2.8c0.1,0,0.1,0,0.2,0c0-0.9,0.1-1.9,0.1-2.8c7.4,0,14.6,0,21.9,0c0,1,0,1.9,0,2.8
		c0.1,0,0.1,0,0.2,0c0-0.9,0.1-1.8,0.1-2.8c3.7,0,7.3,0,10.9,0c0.1,1,0.1,1.8,0.1,2.6c0.1,0,0.1,0,0.2,0c0-0.8,0-1.7,0-2.6
		c7.3,0,14.5,0,21.8,0c0.1,1,0.1,1.8,0.2,2.7c0.1,0,0.2,0,0.2,0c0-0.9,0-1.8,0-2.9c8.4,0,16.6,0,24.8,0c-0.9-0.3-1.8-0.3-2.7-0.3
		c-6.9,0-13.8,0-20.7-0.1c-0.5,0-1-0.4-1.5-0.6c-0.1,0-0.2-0.1-0.2-0.1c-0.5,0.2-0.9,0.6-1.4,0.6c-9.3,0.1-18.6,0-27.8,0.1
		c-1.1,0-2.2,0-3.2-0.1c-0.4,0-0.7-0.6-1-0.6c-0.4,0-0.7,0.6-1.1,0.6c-6.6,0-13.2,0-19.8,0c-0.4,0-0.9-0.4-1-0.5
		c-0.5,0.2-1,0.5-1.4,0.5c-2.8,0-5.7,0-8.5,0c-1.6,0-3.1,0-4.8,0c0-0.8,0-1.5,0-2.1c0.2,0,0.3,0,0.5,0c48.1,0,96.2,0,144.2,0
		c0.5,0,1.1,0.1,1.7,0.2c0-0.6,0-1.3,0-2.1c-0.4,0.2-0.7,0.4-1,0.5c0-8.4,0-16.7,0-25c-0.1,0-0.1,0-0.2,0c-0.1,0.6-0.2,1.2-0.3,1.7
		c-7.9,0-15.6,0-23.5,0c-0.1-1.4-0.1-2.6-0.2-3.8c-0.1,0-0.1,0-0.2,0c-0.1,1.3-0.2,2.5-0.2,3.9c-9.5,0-18.8,0-28.3,0
		c0-1.4,0-2.6,0-3.9c-0.1,0-0.2,0-0.3,0c0,1.3,0,2.6,0,3.8c-9.5,0-18.9,0-28.4,0c0-1.4,0-2.6,0-3.9c-0.1,0-0.2,0-0.3,0
		c0,1.3,0,2.6,0,3.9c-19,0-37.9,0-56.8,0c0-1.3,0-2.5,0-3.7c-0.2,0.6-0.2,1.2-0.2,1.7c0.2,1.7-0.5,2.1-2.1,2.1
		c-4.4-0.1-8.8,0-13.1,0c-3.5,0-6.9,0-10.5,0c0-1.5,0-2.7,0-4c-0.1,0-0.2,0-0.3,0c0,1.3,0,2.6,0,3.9c-9,0-17.8,0-26.7,0
		c0-2.9,0-5.6,0-8.4c-0.1,0-0.2,0-0.4,0c0,2.8,0,5.6,0,8.4c-4.6,0-8.9,0-13.4,0c0-2.8,0-5.5,0-8.1c-0.1,0-0.2,0-0.3,0
		c0,2.7,0,5.4,0,8.3c-2,0-3.8,0-5.6,0c0,7.8,0,15.4,0,23.1c-0.4-0.1-0.7-0.3-1.1-0.4c0,0.8,0,1.5,0,1.8c1.2,0,2.3,0,3.4,0
		c16.9,0,33.7,0,50.6,0c0,0.7,0,1.3,0,2.2c-1,0-1.8,0-2.6,0c0,0.1,0,0.2,0,0.3c0.8,0,1.7,0,2.4,0C271.9,54.6,272.1,55.1,272.2,55.6z
		 M411.1,53.2c-1.7-2-3,1-4.6,0.3c0.1-0.3,0.1-0.6,0.2-0.9c-4.1,0-8,0-12,0c0.1,0.4,0.1,0.7,0.2,1.2c-1.4-0.5-2.6-0.9-3.9-1.4
		c-0.1,1.2-0.1,2-0.2,2.8c0,0.2-0.3,0.5-0.4,0.7c-0.2-0.2-0.6-0.4-0.6-0.6c-0.1-0.9,0-1.7,0-2.7c-2.1,0-4.3,0-6.6,0
		c-0.2,1.3-0.3,2.5-0.6,4.2c3.2,0,5.9,0,8.7,0c-0.7,2.4-3,3.8-5.5,3.2c-3-0.6-4.1-3-3.4-7.4c-1.4,1.8-1.3,4.5,0.4,6.3
		c1.8,1.9,5,2.5,6.9,0.7c1.5-1.4,3-1.4,4.8-1.2c1.4,0.2,2-0.6,2.5-1.8c-0.8-0.1-1.4-0.1-2.4-0.2c0.7-0.6,1.1-1,1.4-1.2
		c0.8,0.4,1.9,1.1,2,1c0.6-0.7,1.1-1.6,1.6-2.6c0.7,0,1.6,0,2.2,0c0.6,1,1.1,1.9,1.7,2.6c0.1,0.1,1.1-0.6,1.9-1
		c0.3,0.3,0.7,0.7,1.4,1.2c-0.9,0.1-1.6,0.2-2.4,0.2c0.7,1.2,1.3,2,2.7,1.7c1.7-0.4,3.2-0.1,4.6,1.2c1.7,1.6,4.5,1.3,6.3-0.1
		c1.8-1.5,2.6-3.9,1.7-6c-0.1-0.3-0.4-0.9-0.6-0.9c-2.5,0-5.1,0.1-7.6,0.2c0,0-0.1,0.2-0.1,0.3C411.2,53.1,411.2,53.2,411.1,53.2z
		 M67.9,54.3L67.9,54.3c-0.1-0.6-0.3-1.1-0.5-1.8c-1.6,0-3.2,0-4.9,0c-0.7,0-1.3,0.3-2,0.4c-0.1,0.1-0.1,0.2-0.2,0.2
		c-0.9-0.1-1.7-0.4-2.6-0.3c-0.6,0.1-1.2,0.6-2.1,1.1c0.2-0.8,0.3-1,0.4-1.4c-4.1,0-8.1,0-12.1,0c0.1,0.3,0.2,0.6,0.3,1
		c-0.6-0.1-1.5,0.1-1.6-0.2c-0.9-1.5-1.9-0.8-3-0.3c-0.1-0.1-0.1-0.1-0.2-0.2c-2.3-0.2-4.7-0.4-6.9-0.6c-0.1,0.8-0.2,1.3-0.3,2
		c0.8,0,1.4,0,2.1,0c-0.1-0.5-0.1-0.9-0.2-1.3c1.5,0,2.8,0,4.3,0c-0.2,1.1-0.4,2-0.5,2.7c-0.5,0-0.8,0.1-1.1,0.1
		c-0.5-0.1-1.1-0.2-1.6-0.3c0.3-0.4,0.7-0.8,1-1.2c-0.1-0.1-0.1-0.1-0.2-0.2c-0.5,0.6-1,1.1-1.5,1.7c0-0.3-0.1-0.8-0.2-1.2
		c-0.8,0-1.6,0-2.4,0c-0.3,1.3,0.2,1.9,1.3,2c2.4,0.1,4.9,0,7.4,0c-1.1,2.8-3.2,4-5.7,3.5c-1.7-0.4-3-1.4-3.4-3
		c-0.4-1.4-0.1-2.9-0.1-4.4c-1.4,2.3-0.9,5.1,1.2,6.8c2,1.7,5.2,1.6,7-0.3c0.8-0.9,1.6-1,2.7-0.9c1,0.1,2.1,0,3-0.3
		c0.8-0.2,1.4-0.9,2.4-1.5c0.1-0.7,0.4-1.7,0.6-2.8c1,0,1.9,0,3,0c0.3,1.5,0.4,2.8,2.2,3.8c1.5,0.8,2.7,0.9,4.2,0.9
		c0.7,0,1.5,0.2,2,0.7c1.7,1.5,3.5,2,5.7,1.3c3.3-1,4.8-5.4,2.6-7.7c0.9,4.2-0.3,6.8-3.3,7.4c-2.6,0.5-5-1-5.5-3.5
		c2.3,0,4.6,0,6.9,0C67.8,56.5,68.5,55.8,67.9,54.3z M259.2,53.2c-0.8-0.2-1.6-0.5-2.4-0.4c-0.7,0.1-1.3,0.6-1.9,1
		c0-0.3,0-0.5,0-0.8c-0.3-0.2-0.6-0.4-0.9-0.4c-3.7,0-7.4,0-11.2,0c0.1,0.4,0.1,0.7,0.2,1c-1.5,0.9-2.6-2.3-4.2-0.3
		c0.8,1.2,0.5,2.5-0.8,2.7c0-1.1,0-2.1,0-3.2c-2.2,0-4.5,0-6.6,0c-0.2,0.6-0.3,1.1-0.4,1.5c-0.5,1.8-0.1,2.3,1.7,2.4
		c2.2,0.1,4.5,0,6.9,0c-1.1,2.9-3.6,4.2-6.1,3.4c-2.9-0.9-3.8-3.3-2.9-7.6c-0.3,0.3-0.4,0.5-0.5,0.7c-1.1,2.4-0.5,5,1.6,6.5
		c2.1,1.6,4.9,1.4,6.9-0.3c0.4-0.4,1-1,1.5-1c1.9,0.1,3.7,0.5,5.5-1.1c0.6-0.6,1.2-1,1.4-1.8c0.2-0.5,0.2-1.1,0.3-1.7c1,0,2,0,2.9,0
		c0.4,1.5,0.4,2.9,2.3,3.8c1.2,0.6,2.2,1.1,3.5,0.9c1.2-0.2,2.2,0,3.1,1c2,2,5.4,1.7,7.4-0.3c1.5-1.6,2-5,0.8-6.2
		C266.7,52.1,260,52.4,259.2,53.2C259.2,53.2,259.2,53.2,259.2,53.2z M197.3,52.9c-0.1,0.1-0.1,0.1-0.2,0.2
		c-0.8-0.1-1.6-0.3-2.3-0.4c0,0.4,0,0.8-0.1,1.1c-0.7-0.1-1.4-0.2-2.2-0.3c0.1-0.3,0.2-0.5,0.4-0.9c-4.1,0-8.1,0-12.2,0
		c0.1,0.3,0.1,0.6,0.3,1.1c-0.7-0.1-1.5,0-1.7-0.4c-1-1.4-1.9-0.8-2.8,0c-0.1-0.1-0.1-0.3-0.2-0.4c-2.3-0.2-4.6-0.4-6.9-0.6
		c-0.1,0.8-0.2,1.4-0.3,1.9c0.8,0,1.4,0,2,0c0-0.5-0.1-0.9-0.1-1.2c1.5,0,2.8,0,4.3,0c-0.2,1.1-0.4,2-0.5,2.6
		c-0.6,0.1-1,0.2-1.3,0.2c-1,0-2.2,0.3-2.3-1.3c-0.8,0-1.5,0-2.3,0c-0.3,1.4-0.1,2.1,1.5,2c2.4-0.1,4.7,0,7.2,0
		c-1.3,2.9-3.5,4.1-6,3.5c-1.6-0.4-2.9-1.4-3.2-3c-0.3-1.4-0.1-2.9-0.1-4.2c-1.3,1.8-1,4.6,0.9,6.4c1.9,1.8,5.1,2.1,7,0.3
		c1.2-1.2,2.3-1.3,3.8-1.1c0.7,0.1,1.6-0.2,2.3-0.5c0.8-0.3,1.4-0.9,2.4-1.5c0.2-0.7,0.4-1.7,0.7-2.7c1,0,2,0,2.9,0
		c0.3,1.1,0.5,2.2,0.7,3.1c0.6,0.2,1.4,0.2,1.6,0.6c0.9,1.4,2.2,1.2,3.5,1c1.2-0.2,2.2,0,3.1,1c1.5,1.6,3.6,1.7,5.6,0.9
		c3-1.2,4.3-5.6,2.2-7.5c1,3.7,0,6.3-2.9,7.2c-2.5,0.8-5.1-0.5-6.1-3.4c2.5,0,4.9,0,7.3,0c1.2,0,1.8-0.7,1.3-2
		c-0.4,0-0.8-0.1-1.1-0.1c-0.4,0-0.8,0-1.3,0.1c-0.1,0.5-0.1,0.9-0.2,1.3c0-1.4-1-1-1.6-0.8c-0.6,0.2-1.1,0.6-1.7,1
		c-0.2-0.9-0.3-1.9-0.5-2.9c1.5,0,2.9,0,4.4,0c-0.1,0.5-0.2,0.8-0.3,1.2c0.7,0,1.4,0,2.2,0c-0.1-0.7-0.2-1.2-0.3-1.7
		c-1.2,0-2.2-0.1-3.3,0C199.7,52.6,198.5,52.8,197.3,52.9z M50.1,50.7c27.8,1.6,55.6,0.5,83.5,0.7c28,0.2,55.9,0,83.9,0
		c0-0.5,0-1.2,0-2c-0.5,0.3-0.8,0.5-0.8,0.5c0-4.1,0-8.3,0-12.4c0-4.2,0-8.3,0-12.5c-0.1,0-0.2,0-0.4,0c-0.1,0.7-0.2,1.4-0.2,2.1
		c-46.6,0-93,0-139.5,0c0-0.1,0-0.2,0-0.3c4.3,0,8.6,0,13,0c0-0.6,0-1.1,0-1.7c-4.1,0-8,0-12,0c-0.3,0-0.8,0.1-1,0.3
		c-1.8,2-4,0.8-6.1,1.1c0-1.4,0-2.6,0-3.8c-0.1,0-0.2,0-0.3,0c0,1.2,0,2.4,0,3.6c-5.5,0-10.8,0-16.2,0c0-1.2,0-2.3,0-3.4
		c-0.1,0-0.2,0-0.3,0c0,1.1,0,2.2,0,3.5c-6.7,0-13.2,0-19.7,0c0,0.2,0,0.3,0,0.5c13.8,0,27.6,0,41.3,0c0.2,0.5,0.3,0.6,0.3,0.7
		c0.5,2.1-1.1,4.8,1.7,6.3c0.1,0,0,0.2,0,0.3c0,2.1,0,4.3,0,6.5c-2.3,0-4.4-0.1-6.4,0c-1.9,0.2-3.1-0.5-4.2-2c-2-2.8-5-4.2-8.6-5
		c0,5.1,0,10,0,14.8c-0.1,0-0.2,0-0.3,0c0-4.9,0-9.9,0-14.8c-0.2,0-0.3,0-0.5,0c0,5.4,0,10.9,0,16.3c-0.1,0-0.3,0-0.4,0c0-1,0-2,0-3
		c-2.3,0-4.4,0-6.7,0C50.2,48.4,50.2,49.6,50.1,50.7c-0.1-6.1-0.2-12.2-0.3-18.2c-0.5-0.1-0.7-0.2-0.8-0.2
		c-6.3-0.7-12.6-0.3-18.9,0.6c-2.7,0.4-5.3,1.1-7.9,1.9c-1.6,0.5-3.1,1.4-4.6,2.2c-1.5,0.8-3,1.7-4.6,2.3c-1.4,0.5-2.3,1.6-3.6,2.3
		c-2.5,1.2-4.7,3.1-6.9,4.8c-1.2,0.9-1.6,3.4-0.8,4.6C2.3,52,3,52.9,4.5,52c1-0.5,2.2-0.5,3.3-0.6c2.4-0.1,4.9,0,7.3,0
		c11.3,0,22.7,0,34-0.1c0.6,0,1.2,0,1.8,0c0-0.1,0-0.2,0-0.3C50.7,51,50.4,50.9,50.1,50.7z M57,46.7c0-4.2,0-8.2,0-12.3
		c0-0.4-0.5-1-0.9-1.1c-1.9-0.4-3.8-0.7-5.7-1c0,4.9,0,9.6,0,14.3C52.5,46.7,54.6,46.7,57,46.7z M97.9,53.2c0,0,0.1-0.1,0.1-0.1
		c-0.5-0.2-1-0.3-1.1-0.3c-0.6,0.4-1,0.8-1.3,0.8c-3.4-0.2-7,0.7-10.2-0.4c-0.5,0.2-1,0.4-1.4,0.4c-4.5,0-9.1,0-13.6,0
		c0,0.1,0,0.2,0,0.4c4.9,0,9.8,0,14.8,0c0.1,1.1,0.1,2,0.2,2.9c0,0,0.1,0,0.1,0c0.1-0.9,0.1-1.9,0.2-2.8c3.7,0,7.2,0,10.8,0
		c0.1,1,0.1,2,0.1,2.9c0.1,0,0.2,0,0.3,0c0-0.9,0-1.9,0-2.9c7.4,0,14.5,0,21.8,0c0,1,0.1,2,0.1,2.9c0.1,0,0.1,0,0.2,0
		c0.1-1,0.1-2,0.2-3c2.8,0,5.5,0,8.1,0c2.7,0,2.7,0,2.8,2.6c0,0.1,0.1,0.1,0.1,0.2c0.1-0.9,0.1-1.8,0.2-2.7c3.7,0,7.1,0,10.7,0
		c0,0.9,0,1.8,0,2.6c0.2-0.6,0.1-1.2,0.2-1.7c0.1-0.4,0.5-1,0.8-1c3.3-0.1,6.7,0,10.1,0c0.1,1.1,0.1,2,0.2,2.9c0.1,0,0.2,0,0.3,0
		c0-0.9,0-1.9,0-3c4.7,0,9.2,0,13.8,0c-4.2-0.3-8.4-0.3-12.6-0.3c-0.5,0-1-0.4-1.2-0.5c-0.6,0.2-1.1,0.5-1.6,0.5
		c-4.5,0.1-8.9,0.1-13.4,0.1c-1.3,0-2.6,0.1-3.9,0c-1.1-0.1-2.2,0.4-3.4-0.5c-0.6-0.5-2.2,0.5-3.4,0.5c-2.2,0.1-4.4,0-6.7,0
		c-0.5,0-0.9-0.5-1.2-0.6c-0.5,0.2-0.9,0.6-1.3,0.6c-6.7,0-13.4,0-20.2,0c-0.1,0-0.1-0.1-0.2-0.2C97.5,53.3,97.7,53.2,97.9,53.2z
		 M113.9,25.2c-7.8,0-15.3,0-22.9,0c-1.4,0-1,0.8-0.9,1.6c8,0,15.9,0,23.8,0C113.9,26.3,113.9,25.8,113.9,25.2z M55.2,25
		c4.8,0,9.5,0,14.2,0c0-0.8,0-1.5,0-2.2c-4.8,0-9.4,0-14.2,0C55.2,23.5,55.2,24.2,55.2,25z M114.2,26.8c6.7,0,13.1,0,19.7,0
		c-0.3-1.4-1.2-1.6-2.3-1.6c-2.4,0-4.8,0-7.2,0c-3.3,0-6.7,0-10.1,0C114.3,25.8,114.3,26.2,114.2,26.8z M38.3,28.6
		c-4-0.5-5.3,0.1-6.7,3.3c0.5,0,0.9,0,1.4,0c0.9-0.1,1.8-0.2,2.7-0.3C38,31.4,38.2,31.1,38.3,28.6z M25.3,32.8
		c4,0.1,5.2-0.6,7.3-3.7C29.2,28.4,27.5,31.2,25.3,32.8z M43.6,28.6c-4.4-0.6-4.6-0.5-4.8,2.6c1.6,0,3.2,0,4.8,0
		C43.6,30.3,43.6,29.5,43.6,28.6z M188.3,21.1c0,0.1-0.1,0.3-0.1,0.4c-0.7-0.5-1.4-1-2.2-1.5c0.1-0.3,0.1-0.7,0.2-1.1
		c-0.7,0-1.3,0.1-2.1,0.1c0.3,0.7,0.5,1.3,0.8,1.8c-0.4,0.6-0.7,1.1-1,1.7c0.1,0.2,0.1,0.3,0.2,0.5c2.2-0.9,4.4-1.9,6.6,0.2
		c0-1.1,0-1.8,0-2.5c-0.9,0-1.8,0-2.9,0C188.1,21,188.2,21.1,188.3,21.1z M4.9,56.8C4.9,56.8,4.9,56.8,4.9,56.8
		c7.7,0.1,15.5,0.1,23.2,0.1c0,0,0-0.1,0-0.1C20.3,56.8,12.6,56.8,4.9,56.8z M339.6,56.1c0-0.1,0-0.2,0-0.3c-2,0-3.9,0-5.9,0
		c0,0.1,0,0.2,0,0.3C335.7,56.1,337.6,56.1,339.6,56.1z M341.1,55.7c0,0.1,0,0.2,0,0.3c1.9,0,3.8,0,5.7,0c0-0.1,0-0.2,0-0.3
		C344.9,55.7,343,55.7,341.1,55.7z M354,56.1c0-0.1,0-0.2,0-0.3c-1.9,0-3.7,0-5.6,0c0,0.1,0,0.2,0,0.3
		C350.3,56.1,352.1,56.1,354,56.1z M44,28.8c0.4,0.9,0.8,1.7,1.1,2.5c0.3-0.3,0.7-0.6,0.7-1C45.9,29.5,46,28.4,44,28.8z M195.7,26.2
		c0,0,0.1,0,0.1,0c0-2.5,0-4.9,0-7.4c0,0-0.1,0-0.1,0C195.7,21.3,195.7,23.8,195.7,26.2z M164.5,19c0,0-0.1,0-0.1-0.1
		c0,2.5,0,4.9,0,7.4c0,0,0.1,0,0.1,0C164.5,23.8,164.5,21.4,164.5,19z"/>
	<path class="st1" d="M50.1,50.7c0.3,0.1,0.6,0.3,0.9,0.4c0,0.1,0,0.2,0,0.3c-0.6,0-1.2,0-1.8,0c-11.3,0-22.7,0-34,0.1
		c-2.4,0-4.9-0.1-7.3,0c-1.1,0-2.4,0.1-3.3,0.6C3,52.9,2.3,52,1.6,51c-0.8-1.2-0.4-3.7,0.8-4.6c2.3-1.7,4.5-3.5,6.9-4.8
		c1.3-0.6,2.2-1.8,3.6-2.3c1.6-0.6,3-1.5,4.6-2.3c1.5-0.8,3-1.7,4.6-2.2c2.6-0.8,5.2-1.5,7.9-1.9c6.3-0.9,12.6-1.3,18.9-0.6
		c0.2,0,0.3,0.1,0.8,0.2C49.9,38.6,50,44.7,50.1,50.7C50.2,50.8,50.1,50.7,50.1,50.7z M48.9,33.1c0,0-0.1,0-0.1,0
		c0,5.2,0,10.3,0,15.5c0,0,0.1,0,0.1,0C48.9,43.5,48.9,38.3,48.9,33.1z M8.9,42.6c-1.2,0.7-2.3,1.4-3.7,2.2
		C7,45.3,8.6,44.4,8.9,42.6z"/>
	<path class="st1" d="M176.5,53.3c0.9-0.8,1.8-1.4,2.8,0c0.2,0.3,1,0.2,1.7,0.4c-0.1-0.5-0.2-0.7-0.3-1.1c4.1,0,8.1,0,12.2,0
		c-0.2,0.3-0.3,0.6-0.4,0.9c0.8,0.1,1.5,0.2,2.2,0.3c0-0.3,0-0.7,0.1-1.1c0.8,0.1,1.6,0.3,2.3,0.4c-0.2,0.9-0.3,1.7-0.5,2.6
		c0,0,0.6,0.1,1.3,0.3c-0.2-1.2-0.4-2.1-0.6-3c1.2-0.1,2.4-0.3,3.6-0.4c1.1-0.1,2.2,0,3.3,0c0.1,0.6,0.2,1.1,0.3,1.7
		c-0.8,0-1.5,0-2.2,0c0.1-0.4,0.2-0.8,0.3-1.2c-1.5,0-2.9,0-4.4,0c0.2,1.1,0.3,2,0.5,2.9c0.6-0.4,1.1-0.8,1.7-1
		c0.7-0.2,1.6-0.6,1.6,0.8c0.1-0.4,0.1-0.8,0.2-1.3c0.5,0,0.9-0.1,1.3-0.1c0.3,0,0.7,0,1.1,0.1c0.4,1.3-0.1,2-1.3,2
		c-2.4,0.1-4.8,0-7.3,0c1,2.9,3.5,4.2,6.1,3.4c2.9-0.9,3.9-3.6,2.9-7.2c2.1,1.9,0.8,6.4-2.2,7.5c-2,0.8-4,0.7-5.6-0.9
		c-1-1-1.9-1.2-3.1-1c-1.3,0.2-2.6,0.4-3.5-1c-0.2-0.4-1-0.4-1.6-0.6c-0.2-0.9-0.4-2-0.7-3.1c-1,0-1.9,0-2.9,0c-0.2,1-0.5,2-0.7,2.7
		c-1,0.6-1.6,1.2-2.4,1.5c-0.7,0.3-1.6,0.6-2.3,0.5c-1.5-0.2-2.6-0.1-3.8,1.1c-1.9,1.8-5.1,1.5-7-0.3c-1.9-1.8-2.2-4.7-0.9-6.4
		c0,1.3-0.2,2.8,0.1,4.2c0.4,1.6,1.6,2.6,3.2,3c2.5,0.7,4.7-0.5,6-3.5c-2.5,0-4.9-0.1-7.2,0c-1.6,0.1-1.8-0.6-1.5-2
		c0.8,0,1.6,0,2.3,0c0.1,1.6,1.3,1.4,2.3,1.3c0.4,0,0.7-0.1,1.3-0.2c0.1-0.7,0.3-1.6,0.5-2.6c-1.4,0-2.8,0-4.3,0
		c0,0.3,0,0.7,0.1,1.2c-0.6,0-1.2,0-2,0c0.1-0.6,0.1-1.1,0.3-1.9c2.3,0.2,4.6,0.4,6.9,0.6c-0.2,1-0.4,1.9-0.6,3.2
		C177.1,55.3,177.3,54.2,176.5,53.3z"/>
	<path class="st1" d="M259.2,53.2c0.8-0.8,7.5-1.1,8.2-0.4c1.2,1.1,0.7,4.6-0.8,6.2c-2,2-5.4,2.3-7.4,0.3c-1-1-1.9-1.2-3.1-1
		c-1.3,0.2-2.3-0.3-3.5-0.9c-1.9-0.9-1.9-2.3-2.3-3.8c-1,0-1.9,0-2.9,0c-0.1,0.6-0.1,1.1-0.3,1.7c-0.2,0.8-0.8,1.2-1.4,1.8
		c-1.8,1.6-3.5,1.2-5.5,1.1c-0.5,0-1,0.6-1.5,1c-2,1.7-4.8,1.9-6.9,0.3c-2.1-1.6-2.7-4.2-1.6-6.5c0.1-0.2,0.2-0.3,0.5-0.7
		c-1,4.3,0,6.7,2.9,7.6c2.5,0.8,5-0.5,6.1-3.4c-2.4,0-4.6,0.1-6.9,0c-1.9-0.1-2.2-0.6-1.7-2.4c0.1-0.5,0.3-0.9,0.4-1.5
		c2.1,0,4.3,0,6.6,0c0,1.1,0,2.2,0,3.2c1.2-0.2,1.6-1.5,0.8-2.7c1.6-2,2.7,1.2,4.2,0.3c-0.1-0.3-0.1-0.6-0.2-1c3.8,0,7.5,0,11.2,0
		c0.3,0,0.6,0.3,0.9,0.4c0,0.3,0,0.5,0,0.8c0.6-0.3,1.3-0.9,1.9-1C257.6,52.7,258.4,53.1,259.2,53.2c-2,0.5,0.3,1.8-0.6,2.6
		c0.5,0,1.1-0.2,1.1-0.4C259.6,54.7,259.4,54,259.2,53.2z M266.6,52.7c0.1,1.4,0.2,2.6,0.2,3.9c-3,0-5.8,0-8.6,0
		c0.6,2.1,1.9,3.2,3.8,3.4c2,0.2,4-0.7,4.9-2.4C267.9,56.1,267.7,54.2,266.6,52.7z M231.9,54.4c0.5,0,1,0.1,1.2,0.1
		c0.9,2.4,2.7,0.9,3.9,1.4c0.2-1,0.3-1.9,0.4-2.9c-1.5,0-2.9,0-4.4,0c0.1,0.5,0.2,0.9,0.3,1.3C232.8,54.3,232.3,54.4,231.9,54.4z
		 M260.5,53c0.1,0.8,0.1,1.6,0.3,2.4c0,0.2,0.5,0.3,0.7,0.5c0.2-0.7,0.3-0.2,0.7-0.1c0.6,0.3,1.4,0.1,2.1,0.1
		c0.1-0.5,0.1-0.9,0.2-1.4c0.4,0,0.8-0.1,1-0.1C263.9,53.9,262.5,52.3,260.5,53z"/>
	<path class="st1" d="M39.6,53c1-0.4,2.1-1.2,3,0.3c0.2,0.3,1,0.1,1.6,0.2c-0.1-0.4-0.2-0.7-0.3-1c4,0,8,0,12.1,0
		c-0.1,0.4-0.2,0.6-0.4,1.4c0.9-0.5,1.5-1,2.1-1.1c0.8-0.1,1.7,0.2,2.6,0.3c-0.2,0.7-0.5,1.5-0.6,2.2c0,0.1,0.6,0.4,0.9,0.6
		c0.1-0.1,0.3-0.2,0.4-0.3c-0.2-0.9-0.4-1.8-0.5-2.8c0.7-0.1,1.3-0.4,2-0.4c1.6-0.1,3.3,0,4.9,0c0.2,0.7,0.3,1.2,0.5,1.8
		c-0.7,0-1.5,0-2.3,0c0.1-0.5,0.1-0.9,0.2-1.3c-1.5,0-2.8,0-4.3,0c0.2,1,0.3,1.9,0.5,2.9c1.1-0.1,2.2-0.2,3.4-0.4
		c0-0.2,0.1-0.6,0.2-1.1c0.8-0.1,1.6-0.2,2.3-0.2c0.6,1.5-0.1,2.2-1.6,2.2c-2.3,0-4.6,0-6.9,0c0.5,2.5,2.9,4,5.5,3.5
		c3.1-0.6,4.2-3.2,3.3-7.4c2.2,2.3,0.7,6.7-2.6,7.7c-2.1,0.6-4,0.2-5.7-1.3c-0.5-0.4-1.3-0.7-2-0.7c-1.5,0-2.7-0.1-4.2-0.9
		c-1.8-1-1.9-2.3-2.2-3.8c-1,0-2,0-3,0c-0.2,1.1-0.5,2.1-0.6,2.8c-1,0.6-1.6,1.3-2.4,1.5c-1,0.3-2,0.4-3,0.3c-1.1-0.1-1.8,0-2.7,0.9
		c-1.8,1.9-5,1.9-7,0.3c-2.1-1.7-2.6-4.5-1.2-6.8c0,1.4-0.3,3,0.1,4.4c0.4,1.6,1.8,2.6,3.4,3c2.5,0.5,4.6-0.7,5.7-3.5
		c-2.5,0-4.9,0.1-7.4,0c-1.1,0-1.7-0.7-1.3-2c0.8,0,1.6,0,2.4,0c0.1,0.4,0.1,0.8,0.2,1.2c0.5-0.5,1-1.1,1.5-1.7
		c0.1,0.1,0.1,0.1,0.2,0.2c-0.3,0.4-0.7,0.8-1,1.2c0.5,0.1,1,0.3,1.6,0.3c0.3,0,0.6,0,1.1-0.1c0.1-0.7,0.3-1.6,0.5-2.7
		c-1.5,0-2.8,0-4.3,0c0.1,0.4,0.1,0.8,0.2,1.3c-0.7,0-1.3,0-2.1,0c0.1-0.6,0.2-1.2,0.3-2c2.3,0.2,4.6,0.4,6.9,0.6
		c-0.2,1-0.4,1.9-0.6,3.3c0.8-0.4,1.4-0.6,1.4-0.7C40.1,54.7,40.8,53.6,39.6,53z"/>
	<path class="st1" d="M411.3,53.1c0-0.1,0.1-0.3,0.1-0.3c2.5-0.1,5.1-0.2,7.6-0.2c0.2,0,0.5,0.6,0.6,0.9c0.8,2.1,0.1,4.5-1.7,6
		c-1.8,1.5-4.6,1.7-6.3,0.1c-1.4-1.4-2.9-1.6-4.6-1.2c-1.5,0.3-2-0.5-2.7-1.7c0.8-0.1,1.5-0.1,2.4-0.2c-0.6-0.6-1.1-1-1.4-1.2
		c-0.7,0.4-1.8,1.1-1.9,1c-0.7-0.7-1.1-1.6-1.7-2.6c-0.6,0-1.5,0-2.2,0c-0.6,1-1,1.9-1.6,2.6c-0.1,0.1-1.1-0.5-2-1
		c-0.2,0.2-0.7,0.6-1.4,1.2c1,0.1,1.6,0.1,2.4,0.2c-0.5,1.2-1,2-2.5,1.8c-1.7-0.3-3.2-0.3-4.8,1.2c-1.9,1.8-5.2,1.3-6.9-0.7
		c-1.7-1.8-1.9-4.5-0.4-6.3c-0.8,4.4,0.3,6.8,3.4,7.4c2.5,0.5,4.8-0.8,5.5-3.2c-2.8,0-5.5,0-8.7,0c0.2-1.7,0.4-3,0.6-4.2
		c2.3,0,4.5,0,6.6,0c0,0.9,0,1.8,0,2.7c0,0.2,0.4,0.4,0.6,0.6c0.1-0.2,0.4-0.5,0.4-0.7c0.1-0.8,0.1-1.6,0.2-2.8
		c1.2,0.4,2.4,0.9,3.9,1.4c-0.1-0.6-0.1-0.9-0.2-1.2c4,0,8,0,12,0c-0.1,0.3-0.1,0.6-0.2,0.9c1.6,0.7,3-2.3,4.6-0.3
		c-0.3,0.2-0.6,0.4-0.9,0.5c0.1,0.7,0.1,1.3,0.2,2C411.7,55.8,412,54.7,411.3,53.1z M410,56.6c0.8,2.3,2.2,3.4,4.3,3.5
		c2.2,0.1,3.9-0.9,4.7-3c0.6-1.5,0.6-3-0.6-4.7c0,1.6,0,2.8,0,4.1C415.5,56.6,412.8,56.6,410,56.6z M384.4,54.4
		c0.2,0.3,0.7,0.8,1.2,1.4c0.8,0,2,0,3.1,0c0.2-1,0.3-1.8,0.5-2.8c-1.6,0-2.9,0-4.1,0C384.8,53.5,384.6,54,384.4,54.4z M413.7,54.5
		c0.8,0.4,1.5,0.8,2.1,1.1c0.4-0.4,0.9-1,1.2-1.3c0.1,0-0.2,0-0.6-0.1c0-0.5,0.1-0.9,0.1-1.2c-1.5,0-2.9,0-4.3,0
		c0.3,1.1,0.5,2,0.7,2.9c0.1,0,0.3,0,0.4-0.1C413.4,55.5,413.5,55.1,413.7,54.5z"/>
	<path class="st1" d="M57,46.7c-2.4,0-4.4,0-6.7,0c0-4.7,0-9.4,0-14.3c2,0.3,3.9,0.6,5.7,1c0.4,0.1,0.9,0.7,0.9,1.1
		C57,38.4,57,42.5,57,46.7z"/>
	<path class="st1" d="M272.2,55.6c-0.2-0.5-0.3-1-0.5-1.7c-0.7,0-1.5,0-2.4,0c0-0.1,0-0.2,0-0.3c0.8,0,1.6,0,2.6,0
		c0-0.8,0-1.5,0-2.2l-0.1,0.1c0.1,0,0.3,0,0.4,0l-0.1-0.1c0,0.7,0.1,1.3,0.1,2c4.2,0,8.2,0,12.2,0c0-0.7,0-1.4,0-2l-0.1,0.1
		c0.1,0,0.3,0,0.4,0l-0.1-0.1c0,0.6,0,1.2,0,2.1c1.7,0,3.2,0,4.8,0c2.8,0,5.7,0,8.5,0c0.4,0,0.8-0.3,1.4-0.5c0.2,0.1,0.6,0.5,1,0.5
		c6.6,0,13.2,0,19.8,0c0.4,0,0.7-0.6,1.1-0.6c0.3,0,0.7,0.5,1,0.6c1.1,0.1,2.2,0.1,3.2,0.1c9.3-0.1,18.6,0,27.8-0.1
		c0.5,0,0.9-0.4,1.4-0.6c0.1,0,0.2,0,0.2,0.1c0.5,0.2,1,0.6,1.5,0.6c6.9,0,13.8,0,20.7,0.1c0.9,0,1.8,0,2.7,0.3
		c-8.2,0-16.4,0-24.8,0c0,1.1,0,2,0,2.9c-0.1,0-0.2,0-0.2,0c-0.1-0.9-0.1-1.8-0.2-2.7c-7.3,0-14.5,0-21.8,0c0,0.9,0,1.8,0,2.6
		c-0.1,0-0.1,0-0.2,0c0-0.8-0.1-1.6-0.1-2.6c-3.6,0-7.2,0-10.9,0c0,0.9-0.1,1.8-0.1,2.8c-0.1,0-0.1,0-0.2,0c0-0.9,0-1.8,0-2.8
		c-7.3,0-14.5,0-21.9,0c0,0.9-0.1,1.9-0.1,2.8c-0.1,0-0.1,0-0.2,0c0-0.9,0-1.8,0-2.8c-3.7,0-7.2,0-11,0c-0.1,0.9-0.1,1.8-0.2,2.6
		c0,0-0.1,0-0.1,0c0-0.8,0-1.7,0-2.6c-1.1,0-2.1,0-3,0c-0.2,0.5-0.3,1-0.5,1.6l0,0c0-0.5,0-1.1,0-1.6c-4.2,0-8.2,0-12.2,0
		C272.3,54.6,272.2,55.1,272.2,55.6C272.2,55.6,272.2,55.6,272.2,55.6z"/>
	<path class="st1" d="M97.9,53.2c-0.2,0-0.4,0.1-0.7,0.1c0.1,0.1,0.2,0.2,0.2,0.2c6.7,0,13.4,0,20.2,0c0.4,0,0.9-0.4,1.3-0.6
		c0.2,0.1,0.7,0.6,1.2,0.6c2.2,0.1,4.4,0.1,6.7,0c1.2,0,2.7-1,3.4-0.5c1.2,0.9,2.3,0.4,3.4,0.5c1.3,0.2,2.6,0,3.9,0
		c4.5,0,8.9,0,13.4-0.1c0.5,0,1-0.3,1.6-0.5c0.3,0.1,0.7,0.5,1.2,0.5c4.2,0,8.4,0,12.6,0.3c-4.5,0-9.1,0-13.8,0c0,1.1,0,2,0,3
		c-0.1,0-0.2,0-0.3,0c-0.1-0.9-0.1-1.8-0.2-2.9c-3.4,0-6.7,0-10.1,0c-0.3,0-0.7,0.6-0.8,1c-0.1,0.5,0,1.1-0.2,1.7c0-0.8,0-1.7,0-2.6
		c-3.6,0-7,0-10.7,0c-0.1,0.9-0.1,1.7-0.2,2.7c-0.1-0.1-0.1-0.1-0.1-0.2c-0.1-2.6-0.1-2.6-2.8-2.6c-2.7,0-5.3,0-8.1,0
		c-0.1,1.1-0.1,2.1-0.2,3c-0.1,0-0.1,0-0.2,0c0-0.9-0.1-1.9-0.1-2.9c-7.3,0-14.5,0-21.8,0c0,1,0,1.9,0,2.9c-0.1,0-0.2,0-0.3,0
		c0-0.9-0.1-1.8-0.1-2.9c-3.6,0-7.1,0-10.8,0c-0.1,0.9-0.1,1.8-0.2,2.8c0,0-0.1,0-0.1,0c0-0.9-0.1-1.8-0.2-2.9c-5,0-9.9,0-14.8,0
		c0-0.1,0-0.2,0-0.4c4.5,0,9.1,0,13.6,0c0.5,0,0.9-0.3,1.4-0.4c3.2,1.1,6.7,0.2,10.2,0.4c0.4,0,0.8-0.4,1.3-0.8
		c0.1,0,0.6,0.2,1.1,0.3C98,53.1,98,53.1,97.9,53.2z"/>
	<path class="st1" d="M113.9,25.2c0,0.6,0,1.1,0,1.6c-7.9,0-15.8,0-23.8,0C90,26,89.7,25.2,91,25.2C98.6,25.2,106.1,25.2,113.9,25.2
		z"/>
	<path class="st1" d="M168.9,14c-0.2,0.2-0.5,0.4-0.8,0.7c4.1,1.9,8,3.9,12,5.6c1.2,0.5,1.9,1.1,1.7,2.7c-2.2-1.3-4.4-1.5-6.5,0
		c-0.2-1.5,0.4-1.7,1.4-1.7c0.8,0.1,1.7,0,2.6-0.3c-2.3-1.1-4.6-2.2-7-3.3c-1-0.5-2-1-3.1-1.5c-1.2-0.5-2.3-1.4-3.8-0.6
		c-0.4,0.2-1.1,0-2.1-0.1c2.6-2.6,5.7-3.4,8.3-5.1c2.7-1.7,5.3-3.8,8.6-4.2c-1.3,0.8-2.6,1.6-3.9,2.4c-3.1,1.8-6.3,3.5-9.4,5.2
		c0,0.1,0.1,0.3,0.1,0.4C167.7,14.2,168.3,14.1,168.9,14z"/>
	<path class="st1" d="M55.2,25c0-0.8,0-1.5,0-2.2c4.8,0,9.4,0,14.2,0c0,0.8,0,1.4,0,2.2C64.7,25,60,25,55.2,25z"/>
	<path class="st1" d="M114.2,26.8c0-0.6,0.1-1,0.1-1.6c3.4,0,6.8,0,10.1,0c2.4,0,4.8,0,7.2,0c1.1,0,2,0.2,2.3,1.6
		C127.4,26.8,120.9,26.8,114.2,26.8z"/>
	<path d="M168.9,14c-0.6,0.1-1.2,0.2-1.8,0.3c0-0.1-0.1-0.3-0.1-0.4c3.1-1.7,6.3-3.5,9.4-5.2c1.3-0.7,2.6-1.6,3.9-2.4
		c0.2-0.1,0.4-0.2,0.6-0.3c-0.3,0.8-0.7,1.6-1,2.4C176.2,10.3,172.5,12.1,168.9,14z"/>
	<path class="st1" d="M38.3,28.6c-0.1,2.5-0.3,2.8-2.7,3c-0.9,0.1-1.8,0.2-2.7,0.3c-0.4,0-0.9,0-1.4,0C33,28.8,34.3,28.1,38.3,28.6z
		"/>
	<path class="st1" d="M25.3,32.8c2.2-1.6,3.8-4.4,7.3-3.7C30.6,32.2,29.3,32.9,25.3,32.8z"/>
	<path class="st1" d="M43.6,28.6c0,0.9,0,1.6,0,2.6c-1.6,0-3.2,0-4.8,0C39,28.1,39.2,28,43.6,28.6z"/>
	<path class="st1" d="M188.3,21.1c-0.1-0.1-0.3-0.2-0.6-0.4c1.1,0,1.9,0,2.9,0c0,0.7,0,1.4,0,2.5c-2.2-2-4.4-1-6.6-0.2
		c-0.1-0.2-0.1-0.3-0.2-0.5c0.3-0.5,0.6-1.1,1-1.7c-0.2-0.5-0.5-1.1-0.8-1.8c0.7,0,1.4-0.1,2.1-0.1c-0.1,0.4-0.1,0.7-0.2,1.1
		c0.8,0.5,1.5,1,2.2,1.5C188.3,21.4,188.3,21.3,188.3,21.1z"/>
	<path class="st1" d="M4.9,56.8c7.7,0,15.5,0,23.2,0c0,0,0,0.1,0,0.1C20.3,56.8,12.6,56.8,4.9,56.8C4.9,56.8,4.9,56.8,4.9,56.8z"/>
	<path class="st1" d="M179.9,8.4c0.3-0.8,0.7-1.6,1-2.4c0.4-0.5,0.9-1.1,1.3-1.6c-0.1-0.1-0.2-0.3-0.3-0.4c0.7,0,1.4,0,2,0
		c-0.3,1.4-0.7,2.7-1,4.2c-0.1-0.7-0.3-1.4-0.5-2.5c-0.6,0.8-0.9,1.4-1.4,1.8C180.7,7.9,180.2,8.1,179.9,8.4z"/>
	<path class="st1" d="M339.6,56.1c-2,0-3.9,0-5.9,0c0-0.1,0-0.2,0-0.3c2,0,3.9,0,5.9,0C339.6,55.9,339.6,56,339.6,56.1z"/>
	<path class="st1" d="M341.1,55.7c1.9,0,3.8,0,5.7,0c0,0.1,0,0.2,0,0.3c-1.9,0-3.8,0-5.7,0C341.1,56,341.1,55.9,341.1,55.7z"/>
	<path class="st1" d="M354,56.1c-1.9,0-3.7,0-5.6,0c0-0.1,0-0.2,0-0.3c1.9,0,3.7,0,5.6,0C354,55.9,354,56,354,56.1z"/>
	<path class="st1" d="M284.5,55.6c-0.3,0.1-0.6,0.3-0.9,0.3c-3.5,0-7,0-10.6,0c-0.3,0-0.6-0.2-0.9-0.3c0,0,0,0,0,0
		C276.3,55.6,280.4,55.6,284.5,55.6L284.5,55.6z"/>
	<path d="M259.2,53.2c0.2,0.7,0.4,1.5,0.5,2.2c0,0.1-0.6,0.3-1.1,0.4C259.5,55,257.2,53.7,259.2,53.2
		C259.2,53.2,259.2,53.2,259.2,53.2z"/>
	<path class="st1" d="M44,28.8c2-0.5,1.9,0.7,1.8,1.5c0,0.3-0.5,0.7-0.7,1C44.8,30.5,44.4,29.8,44,28.8z"/>
	<path d="M411.3,53.1c0.7,1.6,0.4,2.7-0.8,2.6c-0.1-0.7-0.1-1.3-0.2-2c0.3-0.1,0.6-0.3,0.9-0.5C411.2,53.2,411.2,53.1,411.3,53.1z"
		/>
	<path d="M39.6,53c1.2,0.6,0.5,1.6,0.6,2.5c0,0.1-0.6,0.3-1.4,0.7c0.3-1.4,0.5-2.4,0.6-3.3C39.5,52.9,39.6,53,39.6,53z"/>
	<path d="M197.3,52.9c0.2,0.9,0.4,1.8,0.6,3c-0.7-0.1-1.3-0.2-1.3-0.3c0.1-0.9,0.3-1.7,0.5-2.6C197.1,53,197.2,52.9,197.3,52.9z"/>
	<path d="M60.6,52.9c0.2,0.9,0.4,1.8,0.5,2.8c-0.1,0.1-0.3,0.2-0.4,0.3c-0.3-0.2-0.9-0.4-0.9-0.6c0.1-0.8,0.4-1.5,0.6-2.2
		C60.4,53.1,60.5,53,60.6,52.9z"/>
	<path d="M176.5,53.3c0.8,0.9,0.7,2-0.8,2.8c0.3-1.3,0.4-2.2,0.6-3.2C176.3,53,176.4,53.2,176.5,53.3z"/>
	<path class="st1" d="M195.7,26.2c0-2.5,0-4.9,0-7.4c0,0,0.1,0,0.1,0c0,2.5,0,4.9,0,7.4C195.8,26.3,195.8,26.3,195.7,26.2z"/>
	<path class="st1" d="M164.5,19c0,2.4,0,4.9,0,7.3c0,0-0.1,0-0.1,0c0-2.5,0-4.9,0-7.4C164.4,18.9,164.4,18.9,164.5,19z"/>
	<path d="M245.8,33.8c0,2.4,0,4.7,0,7c-8.8,0-17.5,0-26.4,0c0-2.3,0-4.6,0-7C228.2,33.8,236.9,33.8,245.8,33.8z"/>
	<path d="M272.3,51.5c-0.1,0-0.3,0-0.4,0c0-3.5,0-6.9,0-10.7c-2.7,0-5.3-0.1-8,0.1c-1.7,0.1-2.2-0.7-2.1-2c0.2-2.1-0.9-2.4-2.6-2.4
		c-4.1,0.1-8.3,0-12.5,0c0,1,0,2.2,0,3.6c5,0,9.9,0,14.8,0c0,0.1,0,0.3,0,0.4c-0.7,0-1.4,0-2.1,0c-3.9,0-7.7,0-11.6,0
		c-1.1,0-1.5-0.4-1.5-1.5c0.1-1.6,0-3.2,0-4.9c0.6,0,1.1-0.1,1.6-0.1c4.6,0,9.2,0.1,13.8,0.1c3.8-0.1,7.5-0.3,11.3-0.5
		c0.7,0,1.5,0,2.4,0c0,2.2,0,4.2,0,6.2c0,0.3-0.6,0.7-0.9,0.9c-0.6,0.2-1.2,0.1-2,0.2C272.3,44.5,272.3,48,272.3,51.5z"/>
	<path d="M284.9,33.7c7.6,0.2,15.1,0.4,23,0.6c-0.1,2-0.3,4-0.4,5.9l0,0c0-0.9,0-1.8,0-3c-4.2,0-8.3,0-12.4,0
		c-2.7,0-2.7-0.1-2.7,2.6l0-0.1c-0.5,0.8-1.2,1.1-2.3,1.1c-1.7-0.1-3.4,0-5.3,0c0,3.7,0,7.2,0,10.7c-0.1,0-0.3,0-0.4,0
		c0-3.5,0-7,0-10.6c-1-0.1-1.9-0.1-3-0.2c0-2.3,0-4.5,0-7c1-0.1,2-0.1,3-0.2"/>
	<path d="M414.3,40.8c0-2.4,0-4.6,0-7c5.2,0,10.3,0,15.6,0c0,2.3,0,4.6,0,7C424.7,40.8,419.6,40.8,414.3,40.8z"/>
	<path d="M313.8,40.2c4.9,0,9.8,0,14.8,0c0-0.9,0-1.7,0-2.6c-4.9,0-9.8,0-14.8,0c-0.3,1.1-0.6,2.1-0.9,3.2c-1.6,0-3.1,0-4.7,0
		c0-2.4,0-4.7,0-6.8c6.9,0,13.7,0,20.7,0c0,2.1,0,3.9,0,5.7c0,0.3-0.5,0.8-0.8,0.8c-4.8,0.1-9.5,0-14.3,0
		C313.8,40.4,313.8,40.3,313.8,40.2z"/>
	<path d="M371,40.2c0-1.1,0-2,0-3c-5,0-9.9,0-15,0c0-1,0-2,0-3c5,0,10.1,0,15.3,0c0,1.9,0,3.7,0,5.5c0,0.3-0.5,0.8-0.8,0.8
		c-4.8,0.1-9.5,0-14.3-0.3C361.1,40.2,366,40.2,371,40.2z"/>
	<path d="M349.8,40.1c0-0.8,0.1-1.7,0.1-2.7c-5.1,0-10,0-15,0c0-1.1,0-2.1,0-3.3c5,0,10,0,15.4,0C350.1,36.2,349.9,38.2,349.8,40.1
		L349.8,40.1z"/>
	<path d="M377.3,36.6c0-0.7,0-1.5,0-2.5c4.6,0,9.1-0.1,13.5,0c2.4,0.1,1.5,2.1,1.7,3.1c-0.5-0.2-1.2-0.6-1.8-0.6
		C386.3,36.6,381.9,36.6,377.3,36.6z"/>
	<path d="M371.8,40.9c0-2.4,0-4.7,0-7.1c1.6,0,3.2,0,5,0c0,2.1,0,4.2,0,6.2c0,0.3-0.6,0.8-1,0.8C374.6,40.9,373.3,40.9,371.8,40.9z"
		/>
	<path d="M355.5,40.8c-1.7,0-3.2,0-4.8,0c0-2.3,0-4.6,0-7c1.6,0,3.1,0,4.8,0C355.5,36.1,355.5,38.4,355.5,40.8z"/>
	<path d="M334.5,40.8c-1.9,0-3.3,0-5,0c0-2.3,0-4.6,0-7.1c1.3,0,2.7-0.1,4,0c0.3,0,0.9,0.6,0.9,0.9
		C334.5,36.6,334.5,38.6,334.5,40.8z"/>
	<path d="M398,33.8c0,2.3,0,4.6,0,7c-1.5,0-2.7,0.1-4,0c-0.3,0-0.8-0.5-0.9-0.8c-0.1-2,0-4,0-6.2C394.7,33.8,396.2,33.8,398,33.8z"
		/>
	<path d="M398.7,36.5c0,1.3,0,2.4,0,3.7c4.9,0,9.7,0,14.5,0c0,0.1,0,0.2,0,0.3c-4.8,0-9.7,0-14.7,0c0-2,0-4.1,0-6.4
		c1.2,0.1,2.5,0.2,3.8,0.2c3.2,0,6.4-0.1,9.5-0.2c1,0,1.9,0.1,1.4,1.7C408.5,36,403.7,36.2,398.7,36.5z"/>
	<path class="st1" d="M226.1,32c0-0.9,0-1.8,0-2.7c3.1,0,6.2,0,9.2,0c0,0.9,0,1.8,0,2.7C232.2,32,229.1,32,226.1,32z"/>
	<path d="M284.6,51.5c0,0.6,0,1.2,0,2c-4.1,0-8.1,0-12.2,0c0-0.7-0.1-1.3-0.1-2C276.3,51.5,280.4,51.5,284.6,51.5z"/>
	<path d="M281.2,34c-0.1,1.1-0.2,1.9-0.3,2.9c-1.6,0-3.1,0-4.9,0c0,1,0,1.9,0,2.8c-0.1,0-0.2,0-0.2,0c0-1.8,0-3.6,0-5.4
		C277.5,34.2,279.2,34.1,281.2,34z"/>
	<path d="M377.5,40.3c4.9,0,9.8,0,14.7,0c0,0.1,0,0.1,0,0.2c-4.9,0-9.8,0-14.7,0C377.5,40.4,377.5,40.3,377.5,40.3z"/>
	<path d="M349.8,40.1c-0.1,0.1-0.2,0.4-0.3,0.4c-4.8,0-9.6,0-14.5-0.4C339.9,40.1,344.9,40.1,349.8,40.1
		C349.8,40.1,349.8,40.1,349.8,40.1z"/>
	<path d="M307.4,40.2c-0.4,0.1-0.8,0.4-1.2,0.4c-4.2,0-8.3,0-12.5,0c-0.5,0-0.9-0.4-1.4-0.7c0,0,0,0.1,0,0.1
		c0.6,0.1,1.2,0.3,1.8,0.3C298.6,40.2,303,40.2,307.4,40.2C307.5,40.2,307.4,40.2,307.4,40.2z"/>
	<path d="M150.4,34.7c0,1.7,0,3.3,0,4.9c-0.2,0-0.3,0-0.5,0c0-1.5,0-3.1,0-4.7c-2.7,0-5.2,0-8,0c0,1.5,0,3.1,0,4.6
		c-0.2,0-0.3,0-0.5,0c0-1.6,0-3.1,0-4.9c-1.3,0.1-2.4,0.1-3.7,0.2c0,1.6,0,3.2,0,4.7c-0.2,0-0.5,0-0.7,0c-0.1-1.6-0.2-3.1-0.3-4.8
		c-9.6,0-19.2,0-29.1,0c0,1.6,0,3.2,0,4.7c-0.1,0-0.3,0-0.4,0c0-1.5,0-3,0-4.7c-9.4,0-18.6,0-27.9,0c0,1.6,0,3.1,0,4.7
		c-0.1,0-0.3,0-0.4,0c0-1.9,0-3.7,0-5.7c45.2,0,90.4,0,135.8,0c0,1.9,0,3.8,0,5.7c-0.2,0-0.3,0-0.5,0c-0.8-1.5-0.2-3.1-0.3-4.8
		c-2.5,0-5,0-7.7,0c0,1.6,0,3.1,0,4.7c-0.2,0-0.4,0-0.7,0c-0.1-1.6-0.2-3.1-0.2-4.9C187.1,34.7,168.8,34.7,150.4,34.7z"/>
	<path d="M215.3,40c-1.3,0.9-131.4,1.4-135.8,0.8c-0.3,0-0.6-0.3-0.7-0.8C124.1,40,169.4,40,215.3,40z"/>
	<path d="M78.2,33.8c0,2.3,0,4.6,0,6.9c-0.1,0-0.2,0-0.3,0c0-2.3,0-4.6,0-6.9C78,33.8,78.1,33.8,78.2,33.8z"/>
	<path d="M197.5,35.1c0,1.5,0,2.9,0,4.4C196.6,38.9,196.4,36.5,197.5,35.1z"/>
	<path d="M195.6,39.5c0-1.5,0-3,0-4.5c0.2,0,0.3,0,0.5,0c0,1.5,0,3,0,4.5C195.9,39.5,195.7,39.5,195.6,39.5z"/>
	<path d="M194.6,35.1c0,1.5,0,3,0,4.5c-0.2,0-0.3,0-0.5,0c0-1.5,0-2.9,0-4.4C194.3,35.1,194.5,35.1,194.6,35.1z"/>
	<path d="M188.9,35.1c0,1.5,0,2.9,0,4.4c-0.1,0-0.3,0-0.4,0c0-1.5,0-3,0-4.4C188.6,35.1,188.8,35.1,188.9,35.1z"/>
	<path d="M187.5,35.1c0,1.5,0,2.9,0,4.4c-0.2,0-0.3,0-0.5,0c0-1.5,0-3,0-4.5C187.2,35.1,187.4,35.1,187.5,35.1z"/>
	<path d="M185.5,39.9c0-1.9,0-3.4,0-4.9C186.5,35.8,186.6,38.3,185.5,39.9z"/>
	<path d="M180.5,34.6c0,2,0,3.4,0,4.9C179.5,38.9,179.4,36.3,180.5,34.6z"/>
	<path d="M178.5,39.5c0-1.5,0-3,0-4.5c0.2,0,0.3,0,0.5,0c0,1.5,0,3,0,4.5C178.8,39.5,178.6,39.5,178.5,39.5z"/>
	<path d="M177.5,35.1c0,1.5,0,2.9,0,4.4c-0.1,0-0.3,0-0.4,0c0-1.5,0-3,0-4.5C177.2,35.1,177.3,35.1,177.5,35.1z"/>
	<path d="M171.9,34.6c0,2,0,3.4,0,4.9C170.9,38.9,170.8,36.4,171.9,34.6z"/>
	<path d="M170.4,35.1c0,1.5,0,2.9,0,4.4c-0.1,0-0.3,0-0.4,0c0-1.5,0-2.9,0-4.4C170.1,35.1,170.3,35.1,170.4,35.1z"/>
	<path d="M168.5,39.5c0-1.5,0-2.9,0-4.4c0.1,0,0.3,0,0.4,0c0,1.5,0,3,0,4.4C168.8,39.5,168.7,39.5,168.5,39.5z"/>
	<path d="M161.5,39.4c0-1.4,0-2.8,0-4.2c0.1,0,0.2,0,0.3,0c0,1.4,0,2.8,0,4.2C161.7,39.4,161.6,39.4,161.5,39.4z"/>
	<path d="M203.2,35.1c0,1.5,0,3,0,4.5c-0.1,0-0.3,0-0.4,0c0-1.5,0-2.9,0-4.4C202.9,35.1,203,35.1,203.2,35.1z"/>
	<path d="M204.1,39.5c0-1.5,0-3,0-4.4c0.2,0,0.3,0,0.5,0c0,1.5,0,2.9,0,4.4C204.5,39.5,204.3,39.5,204.1,39.5z"/>
	<path d="M210.3,35c0,1.5,0,3,0,4.5c-0.1,0-0.3,0-0.4,0c0-1.5,0-3,0-4.5C210,35.1,210.2,35.1,210.3,35z"/>
	<path d="M211.7,35.1c0,1.5,0,3,0,4.4c-0.1,0-0.3,0-0.4,0c0-1.5,0-2.9,0-4.4C211.4,35.1,211.5,35.1,211.7,35.1z"/>
	<path d="M212.7,39.5c0-1.5,0-3,0-4.5c0.2,0,0.3,0,0.5,0c0,1.5,0,3,0,4.5C213,39.5,212.8,39.5,212.7,39.5z"/>
	<path d="M100,39.5c0-1.5,0-2.9,0-4.4C101.2,35.9,101.1,38.8,100,39.5z"/>
	<path d="M96.3,39.7c-1-1.3-1-3.7,0-4.9C96.3,36.5,96.3,38,96.3,39.7z"/>
	<path d="M94.9,39.7c-1-1-1.1-3.6,0-4.9C94.9,36.5,94.9,38,94.9,39.7z"/>
	<path d="M93.4,35.1c0,1.5,0,2.9,0,4.4c-0.1,0-0.3,0-0.4,0c0-1.5,0-3,0-4.5C93.1,35.1,93.3,35.1,93.4,35.1z"/>
	<path d="M87.7,35.1c0,1.5,0,2.9,0,4.4c-0.1,0-0.3,0-0.4,0c0-1.5,0-3,0-4.4C87.5,35.1,87.6,35.1,87.7,35.1z"/>
	<path d="M85.9,39.5c0-1.5,0-3,0-4.5c0.2,0,0.3,0,0.5,0c0,1.5,0,3,0,4.4C86.2,39.5,86,39.5,85.9,39.5z"/>
	<path d="M84.3,39.7c0-1.7,0-3.2,0-4.8C85.4,36,85.4,38.5,84.3,39.7z"/>
	<path d="M113,39.5c0-1.5,0-3,0-4.5c0.1,0,0.3,0,0.4,0c0,1.5,0,2.9,0,4.4C113.2,39.5,113.1,39.5,113,39.5z"/>
	<path d="M117.1,39.9c0-1.9,0-3.4,0-4.9C118.1,35.7,118.2,38.3,117.1,39.9z"/>
	<path d="M119.1,35.1c0,1.5,0,3,0,4.5c-0.2,0-0.3,0-0.5,0c0-1.5,0-3,0-4.4C118.8,35.1,119,35.1,119.1,35.1z"/>
	<path d="M120.1,39.5c0-1.5,0-3,0-4.5c0.2,0,0.3,0,0.5,0c0,1.5,0,2.9,0,4.4C120.4,39.5,120.3,39.5,120.1,39.5z"/>
	<path d="M112.1,34.8c0,1.7,0,3.2,0,4.8C111,38.7,111,36.1,112.1,34.8z"/>
	<path d="M110,39.9c0-1.9,0-3.4,0-5C111,35.9,111,38.3,110,39.9z"/>
	<path d="M125.7,39.5c0-1.5,0-2.9,0-4.4c0.1,0,0.3,0,0.4,0c0,1.5,0,2.9,0,4.4C126,39.5,125.8,39.5,125.7,39.5z"/>
	<path d="M127.7,35.1c0,1.5,0,3,0,4.5c-0.2,0-0.3,0-0.5,0c0-1.5,0-3,0-4.5C127.4,35.1,127.5,35.1,127.7,35.1z"/>
	<path d="M108.6,35.1c1,1.2,0.9,3.5,0,4.6C108.6,38,108.6,36.6,108.6,35.1z"/>
	<path d="M129.1,34.8c0,1.7,0,3.2,0,4.8C128.1,38.6,128.1,36.2,129.1,34.8z"/>
	<path d="M134.7,35.1c0,1.5,0,2.9,0,4.4c-0.1,0-0.3,0-0.4,0c0-1.5,0-3,0-4.5C134.5,35.1,134.6,35.1,134.7,35.1z"/>
	<path d="M103.4,34.8c0,1.7,0,3.2,0,4.8C102.5,38.6,102.5,36.2,103.4,34.8z"/>
	<path d="M135.6,39.5c0-1.5,0-3,0-4.5C136.7,35.8,136.8,38.3,135.6,39.5z"/>
	<path d="M102,35.1c0,1.5,0,2.9,0,4.4c-0.1,0-0.3,0-0.4,0c0-1.5,0-2.9,0-4.4C101.8,35.1,101.9,35.1,102,35.1z"/>
	<path d="M143.3,35.1c0,1.5,0,3,0,4.5c-0.2,0-0.3,0-0.5,0c0-1.5,0-2.9,0-4.4C143,35.1,143.2,35.1,143.3,35.1z"/>
	<path d="M144.3,39.5c0-1.5,0-3,0-4.4c0.2,0,0.3,0,0.5,0c0,1.5,0,3,0,4.5C144.6,39.5,144.4,39.5,144.3,39.5z"/>
	<path d="M153.3,35.2c0,1.4,0,2.9,0,4.3c-0.1,0-0.3,0-0.4,0c0-1.4,0-2.9,0-4.3C153,35.2,153.2,35.2,153.3,35.2z"/>
	<path d="M154.8,35.2c0,1.4,0,2.9,0,4.3C153.8,38.9,153.6,36.9,154.8,35.2z"/>
	<path d="M146.2,35.1c0,1.5,0,2.9,0,4.4C145.3,38.8,145.2,36.6,146.2,35.1z"/>
	<path d="M181.8,34.7c0,1.9,0,3.3,0,4.9C180.9,38.6,180.8,36.3,181.8,34.7z"/>
	<path d="M130.1,39.5c0-1.5,0-3,0-4.5c0.1,0,0.3,0,0.4,0c0,1.5,0,3,0,4.5C130.3,39.5,130.2,39.5,130.1,39.5z"/>
	<path d="M83,39.8c0-1.8,0-3.3,0-4.8C83.9,35.9,84,38.2,83,39.8z"/>
	<path d="M151.8,35.2c0,1.4,0,2.9,0,4.3c-0.1,0-0.3,0-0.4,0c0-1.4,0-2.9,0-4.3C151.5,35.2,151.7,35.2,151.8,35.2z"/>
	<path d="M156.2,35.3c0,1.4,0,2.8,0,4.2c-0.1,0-0.3,0-0.4,0c-0.6-1.4-0.4-2.8-0.1-4.3C155.9,35.2,156,35.2,156.2,35.3z"/>
	<path d="M160,39.4c0-1.4,0-2.9,0-4.3c0.1,0,0.3,0,0.4,0c0,1.4,0,2.9,0,4.3C160.2,39.4,160.1,39.4,160,39.4z"/>
	<path d="M147.6,35c0,1.5,0,2.9,0,4.4c-0.1,0-0.3,0-0.4,0c0-1.5,0-2.9,0-4.4C147.3,35.1,147.5,35,147.6,35z"/>
	<path d="M175.6,39.5c0-1.5,0-3,0-4.4c0.1,0,0.3,0,0.4,0c0,1.5,0,3,0,4.4C175.9,39.5,175.8,39.5,175.6,39.5z"/>
	<path d="M91.5,39.5c0-1.5,0-2.9,0-4.5C92.4,35.9,92.5,38.1,91.5,39.5z"/>
	<path d="M90.6,35.1c0,1.5,0,2.9,0,4.4c-0.1,0-0.3,0-0.4,0c0-1.5,0-2.9,0-4.4C90.3,35.1,90.4,35.1,90.6,35.1z"/>
	<path d="M89.2,35.1c0,1.5,0,2.9,0,4.4c-0.1,0-0.3,0-0.4,0c0-1.5,0-2.9,0-4.4C88.9,35.1,89,35.1,89.2,35.1z"/>
	<path d="M105.8,39.6c0-1.6,0-3,0-4.7C106.7,36.2,106.6,38.6,105.8,39.6z"/>
	<path d="M104.9,35.1c0,1.5,0,2.9,0,4.4c-0.1,0-0.3,0-0.4,0c0-1.5,0-2.9,0-4.4C104.6,35.1,104.8,35.1,104.9,35.1z"/>
	<path d="M81.6,39.5c0-1.5,0-2.9,0-4.4c0.1,0,0.3,0,0.4,0c0,1.5,0,2.9,0,4.4C81.9,39.5,81.7,39.5,81.6,39.5z"/>
	<path d="M80.6,35.1c0,1.5,0,2.9,0,4.4c-0.1,0-0.3,0-0.4,0c0-1.5,0-2.9,0-4.4C80.4,35.1,80.5,35.1,80.6,35.1z"/>
	<path d="M157.6,35.2c0,1.4,0,2.8,0,4.2c-0.1,0-0.3,0-0.4,0c0-1.4,0-2.8,0-4.2C157.3,35.2,157.4,35.2,157.6,35.2z"/>
	<path d="M159,35.1c0,1.4,0,2.9,0,4.3c-0.1,0-0.3,0-0.4,0c0-1.4,0-2.9,0-4.3C158.7,35.1,158.8,35.1,159,35.1z"/>
	<path d="M163.2,35.3c0,1.4,0,2.7,0,4.1c-0.1,0-0.2,0-0.3,0c0-1.4,0-2.7,0-4.1C163,35.3,163.1,35.3,163.2,35.3z"/>
	<path d="M164.7,35.2c0,1.4,0,2.8,0,4.2c-0.1,0-0.2,0-0.3,0c0-1.4,0-2.8,0-4.2C164.5,35.2,164.6,35.2,164.7,35.2z"/>
	<path d="M165.6,39.5c0-1.4,0-2.8,0-4.2c0.1,0,0.2,0,0.4,0c0,1.4,0,2.8,0,4.2C165.9,39.5,165.8,39.5,165.6,39.5z"/>
	<path d="M167.1,39.5c0-1.4,0-2.8,0-4.3c0.1,0,0.3,0,0.4,0c0,1.4,0,2.8,0,4.3C167.4,39.5,167.2,39.5,167.1,39.5z"/>
	<path d="M148.6,39.5c0-1.5,0-2.9,0-4.4c0.1,0,0.3,0,0.4,0c0,1.5,0,2.9,0,4.4C148.8,39.5,148.7,39.5,148.6,39.5z"/>
	<path d="M172.8,39.5c0-1.5,0-2.9,0-4.4c0.1,0,0.3,0,0.4,0c0,1.5,0,2.9,0,4.4C173.1,39.5,173,39.5,172.8,39.5z"/>
	<path d="M174.7,35.1c0,1.5,0,2.9,0,4.4c-0.1,0-0.3,0-0.4,0c0-1.5,0-2.9,0-4.4C174.4,35.1,174.6,35.1,174.7,35.1z"/>
	<path d="M183.2,35.1c0,1.5,0,2.9,0,4.4c-0.1,0-0.3,0-0.4,0c0-1.5,0-2.9,0-4.4C182.9,35.1,183.1,35.1,183.2,35.1z"/>
	<path d="M184.6,35.1c0,1.5,0,2.9,0,4.4c-0.1,0-0.3,0-0.4,0c0-1.5,0-2.9,0-4.4C184.4,35.1,184.5,35.1,184.6,35.1z"/>
	<path d="M140.4,35.2c0,1.4,0,2.8,0,4.2c-0.1,0-0.2,0-0.4,0c0-1.4,0-2.8,0-4.2C140.1,35.2,140.3,35.2,140.4,35.2z"/>
	<path d="M139.1,35.1c0,1.5,0,2.9,0,4.4c-0.1,0-0.3,0-0.4,0c0-1.5,0-2.9,0-4.4C138.8,35.1,139,35.1,139.1,35.1z"/>
	<path d="M189.9,39.5c0-1.5,0-2.9,0-4.4c0.1,0,0.3,0,0.4,0c0,1.5,0,2.9,0,4.4C190.2,39.5,190,39.5,189.9,39.5z"/>
	<path d="M191.8,35.1c0,1.5,0,2.9,0,4.4c-0.1,0-0.3,0-0.4,0c0-1.5,0-2.9,0-4.4C191.5,35.1,191.7,35.1,191.8,35.1z"/>
	<path d="M193.2,35.1c0,1.5,0,2.9,0,4.4c-0.1,0-0.3,0-0.4,0c0-1.5,0-2.9,0-4.4C192.9,35.1,193.1,35.1,193.2,35.1z"/>
	<path d="M114.8,35.1c0,1.5,0,2.9,0,4.4c-0.2,0-0.3,0-0.5,0c-0.3-1.5-0.3-2.9,0-4.4C114.5,35.1,114.7,35.1,114.8,35.1z"/>
	<path d="M116.2,35.1c0,1.5,0,2.9,0,4.4c-0.1,0-0.3,0-0.4,0c0-1.5,0-2.9,0-4.4C116,35.1,116.1,35.1,116.2,35.1z"/>
	<path d="M97.7,35.1c0,1.5,0,2.9,0,4.4c-0.1,0-0.3,0-0.4,0c0-1.5,0-2.9,0-4.4C97.5,35.1,97.6,35.1,97.7,35.1z"/>
	<path d="M99.1,35.1c0,1.5,0,2.9,0,4.4c-0.1,0-0.3,0-0.4,0c0-1.5,0-2.9,0-4.4C98.9,35.1,99,35.1,99.1,35.1z"/>
	<path d="M122,35.1c0,1.5,0,2.9,0,4.4c-0.1,0-0.3,0-0.4,0c0-1.5,0-2.9,0-4.4C121.7,35.1,121.9,35.1,122,35.1z"/>
	<path d="M123.4,35.1c0,1.5,0,2.9,0,4.4c-0.1,0-0.3,0-0.4,0c0-1.5,0-2.9,0-4.4C123.1,35.1,123.3,35.1,123.4,35.1z"/>
	<path d="M124.4,39.5c0-1.5,0-2.9,0-4.4c0.1,0,0.3,0,0.4,0c0,1.5,0,2.9,0,4.4C124.6,39.5,124.5,39.5,124.4,39.5z"/>
	<path d="M208.4,39.5c0-1.5,0-2.9,0-4.4c0.1,0,0.2,0,0.4,0c0,1.5,0,2.9,0,4.4C208.6,39.5,208.5,39.5,208.4,39.5z"/>
	<path d="M207.4,35.1c0,1.5,0,2.9,0,4.4c-0.1,0-0.3,0-0.4,0c0-1.5,0-2.9,0-4.4C207.2,35.1,207.3,35.1,207.4,35.1z"/>
	<path d="M201.3,39.5c0-1.5,0-2.9,0-4.4c0.2,0,0.3,0,0.5,0c0.4,1.4,0.2,2.9,0.1,4.4C201.6,39.5,201.5,39.5,201.3,39.5z"/>
	<path d="M199.8,39.5c0-1.5,0-2.9,0-4.4c0.1,0,0.3,0,0.4,0c0,1.5,0,2.9,0,4.4C200.1,39.5,200,39.5,199.8,39.5z"/>
	<path d="M198.9,35.1c0,1.5,0,2.9,0,4.4c-0.1,0-0.3,0-0.4,0c0-1.5,0-2.9,0-4.4C198.7,35.1,198.8,35.1,198.9,35.1z"/>
	<path d="M132,35.1c0,1.5,0,2.9,0,4.4c-0.1,0-0.3,0-0.4,0c0-1.5,0-2.9,0-4.4C131.7,35.1,131.8,35.1,132,35.1z"/>
	<path d="M133.3,35.1c0,1.5,0,2.9,0,4.4c-0.1,0-0.3,0-0.4,0c0-1.5,0-2.9,0-4.4C133.1,35.1,133.2,35.1,133.3,35.1z"/>
	<path d="M48.9,33.1c0,5.2,0,10.3,0,15.5c0,0-0.1,0-0.1,0c0-5.2,0-10.3,0-15.5C48.8,33.1,48.8,33.1,48.9,33.1z"/>
	<path d="M8.9,42.6c-0.3,1.9-1.9,2.7-3.7,2.2C6.6,43.9,7.8,43.2,8.9,42.6z"/>
	<path d="M266.6,52.7c1.2,1.4,1.3,3.3,0.4,5c-0.9,1.7-2.8,2.6-4.9,2.4c-1.9-0.2-3.3-1.4-3.8-3.4c2.8,0,5.5,0,8.6,0
		C266.7,55.4,266.6,54.1,266.6,52.7z"/>
	<path d="M231.9,54.4c0.4,0,0.9-0.1,1.4-0.1c-0.1-0.4-0.2-0.8-0.3-1.3c1.5,0,2.9,0,4.4,0c-0.1,1-0.3,1.9-0.4,2.9
		c-1.2-0.5-3,1.1-3.9-1.4C232.8,54.5,232.4,54.4,231.9,54.4z"/>
	<path d="M260.5,53c2-0.8,3.5,0.8,4.9,1.4c-0.1,0-0.5,0-1,0.1c-0.1,0.4-0.1,0.9-0.2,1.4c-0.7,0-1.5,0.2-2.1-0.1
		c-0.4-0.2-0.5-0.6-0.7,0.1c-0.2-0.2-0.7-0.3-0.7-0.5C260.6,54.7,260.6,53.9,260.5,53z"/>
	<path d="M67.9,54.3c-0.7,0.1-1.5,0.2-2.3,0.2c-0.1,0.4-0.1,0.9-0.2,1.1c-1.2,0.1-2.2,0.2-3.4,0.4c-0.2-1-0.3-1.9-0.5-2.9
		c1.5,0,2.9,0,4.3,0c-0.1,0.4-0.1,0.8-0.2,1.3C66.5,54.3,67.2,54.3,67.9,54.3C67.9,54.3,67.9,54.3,67.9,54.3z"/>
	<path d="M410,56.6c2.8,0,5.5,0,8.4,0c0-1.3,0-2.5,0-4.1c1.2,1.7,1.2,3.2,0.6,4.7c-0.8,2-2.5,3-4.7,3C412.2,60,410.8,58.9,410,56.6z
		"/>
	<path d="M384.4,54.4c0.2-0.3,0.5-0.8,0.8-1.4c1.2,0,2.5,0,4.1,0c-0.2,1-0.3,1.9-0.5,2.8c-1.1,0-2.3,0-3.1,0
		C385.1,55.2,384.6,54.7,384.4,54.4z"/>
	<path d="M413.7,54.5c-0.2,0.6-0.3,1-0.4,1.4c-0.1,0-0.3,0-0.4,0.1c-0.2-0.9-0.4-1.8-0.7-2.9c1.5,0,2.9,0,4.3,0c0,0.3,0,0.8-0.1,1.2
		c0.4,0,0.7,0.1,0.6,0.1c-0.3,0.3-0.8,0.9-1.2,1.3C415.2,55.3,414.5,54.9,413.7,54.5z"/>
	<path d="M284.6,55.6c-4.1,0-8.2,0-12.4,0c0-0.5,0.1-1,0.1-1.6c4,0,8,0,12.2,0C284.6,54.5,284.6,55.1,284.6,55.6z"/>
	<path class="st1" d="M307.5,40.2c-4.4,0-8.9,0-13.3,0c-0.6,0-1.2-0.2-1.8-0.3c0-2.7,0-2.6,2.7-2.6c4.1,0,8.2,0,12.4,0
		C307.5,38.5,307.5,39.3,307.5,40.2z"/>
	<g>
		<g>
			<path d="M459.8,58c-1,1.5-2.5,1.2-3.8,1c-1.1-0.2-1.8,0.1-2.6,0.8c-3.4,2.9-8.4,1.5-9.7-2.9c-0.1-0.3-0.3-0.6-0.3-0.7
				c-0.5,0.6-1.1,1.7-1.6,1.7c-2.8,0.2-5.5,0.1-8.4,0.1c0-1.9,0-3.5,0-5.1c-0.6-0.1-1-0.2-1.7-0.4c0.1-1.3-0.2-3.1,0.4-3.6
				c1-0.7,0.8-1.4,0.8-2.1c0-3.9,0-7.7,0-11.6c0-4.5,0.1-8.9,0.2-13.5c1.2,0,1.8,0,2.5,0c11.7,0,23.5,0,35.2,0.1
				c42.1,0.1,84.2,0.1,126.3,0.2c0.8,0,1.7-0.2,2.5-0.3c6.7-1.2,13.3-2.7,20-3.4c7-0.6,14-0.4,21-0.5c4.7,0,4.7,0,4.7,4.6
				c0,0.5,0.1,1.1,0.1,1.7c0.7-0.1,1.2-0.1,1.6-0.1c0.1-0.2,0.1-0.3,0.1-0.4c0-1.1,0-2.2,0-3.2c0-1.9,0.6-2.5,2.6-2.5
				c6.4,0,12.8,0,19.1,0c1.3,0,2.3,0.4,2.9,1.7c0.2,0.4,0.7,0.9,1.2,1c1.2,0.1,2.4,0,3.7,0.1c0.2-0.8,0.3-1.3,0.4-1.8
				c1.3,0,2.4,0,3.8,0c-0.5,1.6-1.1,3.1,0,4.1c0.9-0.9,1.6-1.8,2.6-2.3c3.6-1.8,7.3-3.5,11.3-5.4c-3.8-1.9-7.3-3.6-10.8-5.4
				c-0.7-0.3-1.2-0.9-1.7-1.3c-0.3,0.3-0.7,0.7-1.1,1c-0.1,0.1-0.6-0.2-0.7-0.3c-0.5-1.7-0.9-3.4-1.4-5.2c1.4,0,2.8,0,4.5,0
				c-0.3,0.6-0.5,1.1-0.7,1.6c1.8,0.8,3.6,1.5,5.3,2.4c2.2,1.2,4.3,2.6,6.5,3.8c1.4,0.7,2.9,1.1,4.2,1.9c0.8,0.5,1.3,1.6,2,2.4
				c-0.8,0.3-1.7,0.7-2.5,0.9c-0.6,0.1-1.3-0.3-1.8-0.1c-3,1.4-6,2.8-9,4.3c0.8,0.3,1.5,0.6,2.4,1c1.1-0.9,2.4-2,3.9-2.9
				c0.8-0.5,1.7-0.9,2.6-0.9c7.7,0,15.3,0.9,22.9,2.4c5.8,1.1,11.6,1.9,17.6,1.9c18.9-0.1,37.7,0,56.6,0c0.7,0,1.5,0.1,2.2,0.1
				c4.2,0,8.3,0.1,12.5,0.1c4,0,8-0.3,11.9,0.2c6.4,0.8,11.7,4.4,16.6,8.2c3.2,2.5,6.5,4.5,10.1,6.2c5.2,2.4,10.2,5.3,14.7,8.9
				c1.4,1.1,2.2,2.4,1.8,4.2c-0.2,0.8-0.4,1.6-0.9,2.2c-0.9,1.1-2.1,2.1-3,3c0.5,1.1,0.8,2,1.3,3.2c-1.1,0-1.7,0-2.4,0
				c-6.8,0-13.7,0-20.5,0c-1.6,0-3.5,0.5-3.7-2.5c-0.3,0.7-0.3,0.9-0.4,1c-1.6,5-6.3,6.3-10.3,2.9c-0.4-0.4-1.2-0.4-1.8-0.5
				c-1.1-0.1-2.3,0-3.3-0.3c-0.9-0.3-1.7-1-2.9-1.7c-0.1-0.6-0.3-1.6-0.6-2.6c-0.6,0-1.2,0-1.7,0c-0.3,1.2-0.5,2.2-0.8,3.2
				c-0.1-0.1-0.2-0.2-0.3-0.3c-0.8,0.5-1.5,1-2.3,1.4c-0.4,0.2-0.9,0.5-1.4,0.5c-2-0.3-3.5,0.1-5.3,1.3c-3.6,2.4-7.5,0.4-9.3-4.8
				c-0.2,3.1-2.2,2.5-3.8,2.5c-29.6,0-59.3-0.1-88.9-0.1c-1.6,0-3.4,0.4-3.7-2.4c-0.4,1-0.5,1.6-0.8,2.1c-1.6,3.6-6.3,4.8-9.3,2.2
				c-1-0.8-1.8-1.1-3.1-1c-0.9,0.1-1.9,0-2.7-0.3c-0.9-0.3-1.6-1-2.4-1.5c-0.1,0.1-0.2,0.2-0.3,0.3c-0.3-1.1-0.5-2.1-0.8-3.2
				c-0.6,0-1.1,0-1.6,0c-0.2,1.1-0.5,2.1-0.7,3.1c-0.8,0.2-1.8,0.2-2.1,0.7c-0.8,1-1.7,1.1-2.9,1c-1.4-0.2-2.7-0.2-3.8,1.1
				c-0.5,0.5-1.4,0.8-2.1,1c-3.4,0.9-6.1-1-7.5-5c-0.5,0.6-0.9,1.8-1.4,1.8c-2.8,0.2-5.6,0.1-8.6,0.1c0-1.9,0-3.5,0-5.3
				c-0.7,0-1.2,0.1-1.9,0.1c0,1.8,0,3.4,0,5.2c-2.1,0-4,0-6,0c-1.7,0-3.6,0.4-3.9-2.8c-0.3,0.9-0.4,1.2-0.5,1.4
				c-1.4,4.5-6.4,6.1-9.9,3c-0.8-0.7-1.6-0.9-2.6-0.8c-1,0.1-2,0-2.9-0.3c-0.9-0.3-1.6-1-2.8-1.7c-0.1-0.5-0.4-1.6-0.7-2.7
				c-0.5,0-1.1,0-1.7,0c-0.3,1.1-0.5,2.2-0.7,3c-0.8,0.3-1.8,0.3-2.1,0.8c-0.8,1-1.8,1-2.9,0.9c-1,0-2.1-0.5-3.1,0.5
				c-3.1,3-7.8,2-9.7-1.9c-0.2-0.4-0.4-0.8-0.7-1.6c-0.3,1.7-1.2,1.9-2.4,1.9c-12.4-0.1-24.8-0.1-37.3-0.2
				c-22.9,0-45.8-0.1-68.7-0.1c-1.5,0-2.6-0.1-3.1-2c-0.2,0.5-0.3,0.7-0.4,0.9c-1.9,4.7-6.5,5.9-10.3,2.6c-0.4-0.4-1.2-0.4-1.8-0.5
				c-1.1-0.1-2.3,0-3.3-0.3c-0.9-0.3-1.7-1-2.9-1.7c-0.2-0.6-0.4-1.7-0.7-2.8c-0.6,0-1.2,0.1-1.7,0.1c-0.3,1.2-0.5,2.2-0.7,3.1
				C460.9,57.7,460,57.7,459.8,58z M681.9,4.9c0.1-0.1,0.2-0.2,0.3-0.4c-0.7,0-1.4,0-2,0c0.3,1.4,0.7,2.7,1,4.2
				c0.1-0.7,0.3-1.4,0.5-2.5c0.6,0.8,0.9,1.4,1.4,1.8c0.3,0.3,0.7,0.6,1.1,0.9c3.7,1.9,7.3,3.7,11,5.6c0.2,0.2,0.5,0.4,0.8,0.7
				c-4.1,1.9-8,3.8-12,5.6c-1.2,0.5-1.9,1.1-1.7,2.7c2.2-1.3,4.4-1.5,6.5,0c0.2-1.5-0.4-1.7-1.4-1.7c-0.8,0.1-1.7,0-2.6-0.3
				c2.3-1.1,4.6-2.2,7-3.3c1-0.5,2-1,3.1-1.5c1.2-0.5,2.3-1.4,3.8-0.6c0.4,0.2,1.1,0,2.1-0.1c-2.6-2.6-5.7-3.4-8.3-5.1
				c-2.7-1.7-5.2-3.8-8.6-4.2c-0.2-0.1-0.4-0.2-0.6-0.3C682.8,5.9,682.3,5.4,681.9,4.9z M592.3,54.2c0.7,0,1.5,0,2.4,0
				c0-0.1,0-0.2,0-0.3c-0.8,0-1.6,0-2.6,0c0-0.8,0-1.5,0-2.2c16.9,0,33.7,0,50.6,0c1.1,0,2.2,0,3.4,0c0-0.4,0-1,0-1.8
				c-0.4,0.1-0.7,0.3-1.1,0.4c0-7.7,0-15.3,0-23.1c-1.8,0-3.6,0-5.6,0c0-2.9,0-5.6,0-8.3c-0.1,0-0.2,0-0.3,0c0,2.7,0,5.3,0,8.1
				c-4.5,0-8.8,0-13.4,0c0-2.8,0-5.6,0-8.4c-0.1,0-0.2,0-0.4,0c0,2.8,0,5.5,0,8.4c-8.9,0-17.7,0-26.7,0c0-1.3,0-2.6,0-3.9
				c-0.1,0-0.2,0-0.3,0c0,1.3,0,2.5,0,4c-3.6,0-7.1,0-10.5,0c-4.4,0-8.8-0.1-13.1-0.1c-1.6,0-2.3-0.4-2.1-2.1c0.1-0.6,0-1.1-0.2-1.7
				c0,1.2,0,2.4,0,3.7c-19,0-37.8-0.1-56.8-0.1c0-1.3,0-2.6,0-3.9c-0.1,0-0.2,0-0.3,0c0,1.2,0,2.5,0,3.9c-9.5,0-18.8,0-28.4,0
				c0-1.2,0-2.5,0-3.8c-0.1,0-0.2,0-0.3,0c0,1.2,0,2.5,0,3.9c-9.5,0-18.8,0-28.3,0c-0.1-1.3-0.2-2.6-0.2-3.9c-0.1,0-0.1,0-0.2,0
				c-0.1,1.2-0.1,2.4-0.2,3.8c-7.8,0-15.6,0-23.5,0c-0.1-0.6-0.2-1.1-0.3-1.7c-0.1,0-0.1,0-0.2,0c0,8.3,0,16.6,0,25
				c-0.3-0.2-0.6-0.3-1-0.5c0,0.8,0,1.4,0,2.1c0.6-0.1,1.1-0.2,1.7-0.2c48.1,0.1,96.2,0.1,144.2,0.2c0.2,0,0.3,0,0.5,0
				c0,0.6,0,1.2,0,2.1c-1.7,0-3.2,0-4.8,0c-2.8,0-5.7,0-8.5,0c-0.4,0-0.8-0.3-1.4-0.5c-0.2,0.1-0.6,0.5-1,0.5c-6.6,0-13.2,0-19.8,0
				c-0.4,0-0.7-0.6-1.1-0.6c-0.3,0-0.7,0.5-1,0.6c-1.1,0.1-2.2,0.1-3.2,0.1c-9.3-0.1-18.6,0-27.8-0.1c-0.5,0-0.9-0.4-1.4-0.6
				c-0.1,0-0.2,0-0.2,0.1c-0.5,0.2-1,0.6-1.5,0.6c-6.9,0-13.8,0-20.7,0c-0.9,0-1.8,0-2.7,0.3c8.2,0,16.4,0,24.8,0c0,1.1,0,2,0,2.9
				c0.1,0,0.2,0,0.2,0c0.1-0.9,0.1-1.8,0.2-2.7c7.3,0,14.5,0,21.8,0c0,0.9,0,1.8,0,2.6c0.1,0,0.1,0,0.2,0c0-0.8,0.1-1.6,0.1-2.6
				c3.6,0,7.2,0,10.9,0c0,0.9,0.1,1.8,0.1,2.8c0.1,0,0.1,0,0.2,0c0-0.9,0-1.8,0-2.8c7.3,0,14.5,0,21.9,0c0,0.9,0.1,1.9,0.1,2.8
				c0.1,0,0.1,0,0.2,0c0-0.9,0-1.8,0-2.8c3.7,0,7.2,0,11,0c0.1,0.9,0.1,1.8,0.2,2.6c0,0,0.1,0,0.1,0c0-0.8,0-1.7,0-2.6
				c1.1,0,2.1,0,3,0c0.2,0.5,0.3,1,0.5,1.6c0.3,0.1,0.6,0.3,0.9,0.3c3.5,0,7,0,10.6,0c0.3,0,0.6-0.2,0.9-0.3
				C591.9,55.4,592.1,54.9,592.3,54.2z M452.7,53.2c0-0.1-0.1-0.3-0.1-0.3c-2.5-0.1-5.1-0.2-7.6-0.2c-0.2,0-0.5,0.6-0.6,0.9
				c-0.8,2.1-0.1,4.5,1.7,6c1.8,1.5,4.6,1.7,6.3,0.2c1.4-1.4,2.9-1.6,4.6-1.2c1.5,0.3,2-0.5,2.7-1.7c-0.8-0.1-1.5-0.1-2.4-0.2
				c0.6-0.6,1.1-1,1.4-1.2c0.7,0.4,1.8,1.1,1.9,1c0.7-0.7,1.1-1.6,1.8-2.6c0.6,0,1.5,0,2.2,0c0.6,1,1,1.9,1.6,2.6
				c0.1,0.1,1.1-0.5,2-1c0.2,0.2,0.7,0.6,1.4,1.2c-1,0.1-1.6,0.1-2.4,0.2c0.5,1.2,1,2,2.5,1.8c1.7-0.3,3.2-0.3,4.8,1.2
				c1.9,1.8,5.2,1.3,6.9-0.7c1.7-1.8,1.9-4.5,0.4-6.3c0.7,4.4-0.3,6.8-3.4,7.4c-2.5,0.5-4.8-0.8-5.5-3.2c2.8,0,5.5,0,8.7,0
				c-0.2-1.7-0.4-3-0.6-4.2c-2.3,0-4.5,0-6.6,0c0,0.9,0,1.8,0,2.7c0,0.2-0.4,0.4-0.6,0.6c-0.1-0.2-0.4-0.5-0.4-0.7
				c-0.1-0.8-0.1-1.6-0.2-2.8c-1.2,0.4-2.4,0.9-3.9,1.4c0.1-0.6,0.1-0.9,0.2-1.2c-4,0-8,0-12,0c0.1,0.3,0.1,0.6,0.2,0.9
				c-1.6,0.7-3-2.3-4.6-0.3C452.8,53.3,452.8,53.2,452.7,53.2z M797.7,57.2c2.3,0,4.6,0,6.9,0c-0.5,2.5-2.9,4-5.5,3.5
				c-3.1-0.6-4.2-3.2-3.3-7.4c-2.2,2.3-0.7,6.7,2.6,7.7c2.1,0.6,4,0.2,5.7-1.3c0.5-0.4,1.3-0.7,2-0.7c1.5,0,2.7-0.1,4.2-0.9
				c1.8-1,1.9-2.3,2.2-3.8c1,0,2,0,3,0c0.2,1.1,0.5,2.1,0.6,2.8c1,0.6,1.6,1.3,2.4,1.5c1,0.3,2,0.4,3,0.4c1.1-0.1,1.8,0,2.7,0.9
				c1.8,1.9,5,1.9,7,0.3c2.1-1.7,2.6-4.5,1.2-6.8c0,1.4,0.3,3-0.1,4.4c-0.4,1.6-1.8,2.6-3.4,3c-2.5,0.5-4.6-0.7-5.7-3.5
				c2.5,0,4.9,0.1,7.4,0c1.1,0,1.7-0.7,1.3-2c-0.8,0-1.6,0-2.4,0c-0.1,0.4-0.1,0.8-0.2,1.2c-0.5-0.5-1-1.1-1.5-1.7
				c-0.1,0.1-0.1,0.1-0.2,0.2c0.3,0.4,0.7,0.8,1,1.2c-0.5,0.1-1,0.3-1.6,0.3c-0.3,0-0.6,0-1.1-0.1c-0.1-0.7-0.3-1.6-0.5-2.7
				c1.5,0,2.8,0,4.3,0c-0.1,0.4-0.1,0.8-0.2,1.3c0.7,0,1.3,0,2.1,0c-0.1-0.6-0.2-1.2-0.3-2c-2.3,0.2-4.6,0.4-6.9,0.6
				c-0.1,0-0.1,0.1-0.2,0.2c-1-0.4-2.1-1.2-3,0.3c-0.2,0.3-1,0.1-1.6,0.2c0.1-0.4,0.2-0.7,0.3-1c-4,0-8,0-12.1,0
				c0.1,0.4,0.2,0.6,0.4,1.4c-0.9-0.5-1.5-1-2.1-1.1c-0.8-0.1-1.7,0.2-2.6,0.3c-0.1-0.1-0.1-0.1-0.2-0.2c-0.7-0.1-1.3-0.4-2-0.4
				c-1.6-0.1-3.3,0-4.9,0c-0.2,0.7-0.3,1.2-0.5,1.8l0,0C795.5,56.4,796.2,57.1,797.7,57.2z M604.8,53.6c-0.8-0.8-7.5-1.1-8.2-0.4
				c-1.2,1.1-0.7,4.6,0.8,6.2c2,2,5.4,2.3,7.4,0.3c1-1,1.9-1.2,3.1-1c1.3,0.2,2.3-0.3,3.5-0.9c1.9-0.9,1.9-2.3,2.3-3.8
				c1,0,1.9,0,2.9,0c0.1,0.6,0.1,1.1,0.3,1.7c0.2,0.8,0.8,1.2,1.4,1.8c1.8,1.6,3.5,1.2,5.5,1.1c0.5,0,1,0.6,1.5,1
				c2,1.7,4.8,1.9,6.9,0.3c2.1-1.6,2.7-4.2,1.6-6.5c-0.1-0.2-0.2-0.3-0.5-0.7c0.9,4.3,0,6.7-2.9,7.6c-2.5,0.8-5-0.5-6.1-3.4
				c2.4,0,4.6,0.1,6.9,0c1.9-0.1,2.2-0.6,1.8-2.4c-0.1-0.5-0.3-0.9-0.4-1.5c-2.1,0-4.3,0-6.6,0c0,1.1,0,2.2,0,3.2
				c-1.2-0.2-1.6-1.5-0.8-2.7c-1.6-2-2.7,1.2-4.2,0.3c0.1-0.3,0.1-0.6,0.2-1c-3.8,0-7.5,0-11.2,0c-0.3,0-0.6,0.3-0.9,0.4
				c0,0.3,0,0.5,0,0.8c-0.6-0.3-1.3-0.9-1.9-1C606.4,53.1,605.6,53.4,604.8,53.6C604.8,53.6,604.8,53.6,604.8,53.6z M663.1,52.9
				c-1.1-0.1-2.2,0-3.3,0c-0.1,0.6-0.2,1.1-0.3,1.7c0.8,0,1.5,0,2.2,0c-0.1-0.4-0.2-0.8-0.3-1.2c1.5,0,2.9,0,4.4,0
				c-0.2,1.1-0.3,2-0.5,2.9c-0.6-0.4-1.1-0.8-1.7-1c-0.7-0.2-1.6-0.6-1.6,0.8c-0.1-0.4-0.1-0.8-0.2-1.3c-0.5,0-0.9-0.1-1.3-0.1
				c-0.3,0-0.7,0-1.1,0.1c-0.4,1.3,0.1,2,1.3,2c2.4,0.1,4.8,0,7.3,0c-1,2.9-3.5,4.2-6.1,3.4c-2.9-0.9-3.9-3.6-2.8-7.2
				c-2.1,1.9-0.8,6.4,2.2,7.5c2,0.8,4,0.7,5.6-0.9c1-1,1.9-1.2,3.1-1c1.3,0.2,2.6,0.4,3.5-1c0.2-0.4,1-0.4,1.6-0.6
				c0.2-0.9,0.4-2,0.7-3.1c1,0,1.9,0,2.9,0c0.2,1,0.5,2,0.7,2.7c1,0.6,1.6,1.2,2.4,1.5c0.7,0.3,1.6,0.6,2.3,0.5
				c1.5-0.2,2.6-0.1,3.8,1.1c1.9,1.8,5.1,1.5,7-0.3c1.9-1.8,2.2-4.7,0.9-6.4c0,1.3,0.2,2.8-0.1,4.2c-0.4,1.6-1.6,2.6-3.2,3
				c-2.5,0.7-4.7-0.5-6-3.5c2.5,0,4.9-0.1,7.2,0c1.6,0.1,1.8-0.6,1.5-2c-0.8,0-1.6,0-2.3,0c-0.1,1.6-1.3,1.3-2.3,1.3
				c-0.4,0-0.7-0.1-1.3-0.2c-0.1-0.7-0.3-1.6-0.5-2.6c1.4,0,2.8,0,4.3,0c0,0.3,0,0.7-0.1,1.2c0.6,0,1.2,0,2,0
				c-0.1-0.6-0.1-1.1-0.2-1.9c-2.3,0.2-4.6,0.4-6.9,0.6c-0.1,0.1-0.1,0.3-0.2,0.4c-0.9-0.8-1.8-1.4-2.8,0c-0.2,0.3-1,0.2-1.7,0.4
				c0.1-0.5,0.2-0.7,0.3-1.1c-4.1,0-8.1,0-12.2,0c0.2,0.3,0.3,0.6,0.4,0.9c-0.8,0.1-1.5,0.2-2.2,0.3c0-0.3,0-0.7-0.1-1.1
				c-0.8,0.1-1.6,0.3-2.3,0.4c-0.1-0.1-0.1-0.1-0.2-0.2C665.5,53.2,664.3,53,663.1,52.9z M813,51.8c0,0.1,0,0.2,0,0.3
				c0.6,0,1.2,0,1.8,0c11.3,0,22.7,0.1,34,0.1c2.4,0,4.9-0.1,7.3,0c1.1,0,2.4,0.1,3.3,0.6c1.6,0.8,2.2-0.1,2.9-1.1
				c0.8-1.2,0.4-3.7-0.8-4.6c-2.3-1.7-4.4-3.5-6.9-4.8c-1.3-0.6-2.2-1.8-3.6-2.3c-1.6-0.6-3-1.5-4.6-2.3c-1.5-0.8-3-1.7-4.6-2.2
				c-2.6-0.8-5.2-1.5-7.9-1.9c-6.3-0.9-12.6-1.3-18.9-0.6c-0.2,0-0.3,0.1-0.8,0.2c-0.1,6-0.2,12.2-0.4,18.3c0-1.2,0-2.4,0-3.7
				c-2.3,0-4.4,0-6.7,0c0,1,0,2,0,3c-0.1,0-0.3,0-0.4,0c0-5.4,0-10.9,0-16.3c-0.2,0-0.3,0-0.5,0c0,4.9,0,9.9,0,14.8
				c-0.1,0-0.2,0-0.3,0c0-4.9,0-9.7,0-14.8c-3.5,0.8-6.5,2.2-8.6,5c-1.1,1.6-2.3,2.2-4.2,2c-2-0.2-4.1,0-6.4-0.1c0-2.2,0-4.4,0-6.5
				c0-0.1,0-0.3,0-0.3c2.7-1.5,1.2-4.1,1.7-6.3c0-0.1,0.1-0.2,0.3-0.7c13.7,0,27.5,0,41.3,0.1c0-0.2,0-0.3,0-0.5c-6.5,0-13,0-19.7,0
				c0-1.3,0-2.4,0-3.5c-0.1,0-0.2,0-0.3,0c0,1.1,0,2.2,0,3.4c-5.4,0-10.7,0-16.2,0c0-1.2,0-2.4,0-3.6c-0.1,0-0.2,0-0.3,0
				c0,1.2,0,2.4,0,3.8c-2.2-0.3-4.4,1-6.1-1.1c-0.2-0.2-0.6-0.3-1-0.3c-4,0-8,0-12,0c0,0.6,0,1.1,0,1.7c4.4,0,8.7,0,13,0
				c0,0.1,0,0.2,0,0.3c-46.5-0.1-92.9-0.1-139.5-0.2c-0.1-0.7-0.2-1.4-0.2-2.1c-0.1,0-0.2,0-0.4,0c0,4.2,0,8.3,0,12.5
				c0,4.1,0,8.3,0,12.4c-0.1,0-0.4-0.2-0.8-0.5c0,0.9,0,1.6,0,2c28,0,55.9,0.2,83.9,0.1c27.8-0.2,55.6,1,83.5-0.6
				C813.6,51.5,813.3,51.7,813,51.8z M813.7,47.3c0-4.7,0-9.4,0-14.3c-2,0.3-3.9,0.6-5.7,1c-0.4,0.1-0.9,0.7-0.9,1.1
				c-0.1,4-0.1,8.1-0.1,12.3C809.4,47.3,811.5,47.3,813.7,47.3z M766.7,53.9c-0.1,0.1-0.2,0.2-0.2,0.2c-6.7,0-13.4,0-20.2,0
				c-0.4,0-0.9-0.4-1.3-0.6c-0.2,0.1-0.7,0.6-1.2,0.6c-2.2,0.1-4.4,0.1-6.7,0c-1.2-0.1-2.7-1-3.4-0.5c-1.2,0.9-2.3,0.4-3.4,0.5
				c-1.3,0.2-2.6,0-3.9,0c-4.5,0-8.9,0-13.4-0.1c-0.5,0-1-0.3-1.6-0.5c-0.3,0.1-0.7,0.5-1.2,0.5c-4.2,0-8.4,0-12.6,0.3
				c4.5,0,9.1,0,13.8,0c0,1.1,0,2,0,3c0.1,0,0.2,0,0.3,0c0.1-0.9,0.1-1.8,0.2-2.9c3.4,0,6.7,0,10.1,0.1c0.3,0,0.7,0.6,0.8,1
				c0.1,0.5,0,1.1,0.2,1.7c0-0.8,0-1.7,0-2.6c3.6,0,7,0,10.7,0c0.1,0.9,0.1,1.7,0.2,2.7c0.1-0.1,0.1-0.1,0.1-0.2
				c0.1-2.6,0.1-2.6,2.8-2.5c2.7,0,5.3,0,8.1,0c0.1,1.1,0.1,2.1,0.2,3c0.1,0,0.1,0,0.2,0c0-0.9,0.1-1.9,0.1-2.9c7.3,0,14.5,0,21.8,0
				c0,1,0,1.9,0,2.9c0.1,0,0.2,0,0.3,0c0-0.9,0.1-1.8,0.2-2.9c3.6,0,7.1,0,10.8,0c0.1,0.9,0.1,1.8,0.2,2.8c0,0,0.1,0,0.1,0
				c0.1-0.9,0.1-1.8,0.2-2.9c5,0,9.9,0,14.8,0c0-0.1,0-0.2,0-0.4c-4.5,0-9.1,0-13.6,0c-0.5,0-0.9-0.3-1.4-0.4
				c-3.2,1.1-6.7,0.2-10.2,0.4c-0.4,0-0.8-0.4-1.3-0.8c-0.1,0-0.6,0.2-1.1,0.3c0,0,0.1,0.1,0.1,0.1
				C766.3,53.8,766.5,53.9,766.7,53.9z M750.1,27.4c7.9,0,15.8,0,23.8,0c0.1-0.8,0.4-1.6-0.9-1.6c-7.6,0-15.1,0-22.9,0
				C750.1,26.4,750.1,26.8,750.1,27.4z M808.9,23.4c-4.8,0-9.4,0-14.2,0c0,0.8,0,1.4,0,2.2c4.7,0,9.4,0,14.2,0
				C808.9,24.9,808.9,24.2,808.9,23.4z M749.7,25.8c-3.4,0-6.8,0-10.1,0c-2.4,0-4.8,0-7.2,0c-1.1,0-2,0.2-2.3,1.6c6.6,0,13,0,19.7,0
				C749.8,26.8,749.7,26.4,749.7,25.8z M828.4,32.3c0.9,0.1,1.8,0.2,2.7,0.3c0.4,0,0.9,0,1.4,0c-1.4-3.2-2.8-3.9-6.7-3.3
				C825.8,31.8,826.1,32.1,828.4,32.3z M831.5,29.7c2,3.1,3.3,3.8,7.2,3.8C836.5,31.9,834.9,29.1,831.5,29.7z M820.4,31.9
				c1.6,0,3.2,0,4.8,0c-0.2-3.1-0.4-3.2-4.8-2.6C820.4,30.2,820.4,31,820.4,31.9z M676.3,21.2c-1.1,0-1.9,0-2.9,0c0,0.7,0,1.4,0,2.5
				c2.2-2,4.4-1,6.6-0.1c0.1-0.2,0.1-0.3,0.2-0.5c-0.3-0.5-0.6-1.1-1-1.7c0.2-0.5,0.5-1.1,0.8-1.8c-0.7,0-1.4-0.1-2.1-0.1
				c0.1,0.4,0.1,0.7,0.2,1.1c-0.8,0.5-1.5,1-2.2,1.5c0-0.1-0.1-0.3-0.1-0.4C675.8,21.5,675.9,21.4,676.3,21.2z M835.9,57.4
				C835.9,57.5,835.9,57.5,835.9,57.4c7.7,0.1,15.5,0.1,23.2,0.1c0,0,0-0.1,0-0.1C851.4,57.5,843.7,57.5,835.9,57.4z M530.3,56.4
				c0-0.1,0-0.2,0-0.3c-2,0-3.9,0-5.9,0c0,0.1,0,0.2,0,0.3C526.3,56.3,528.3,56.4,530.3,56.4z M517.2,55.9c0,0.1,0,0.2,0,0.3
				c1.9,0,3.8,0,5.7,0c0-0.1,0-0.2,0-0.3C521,56,519.1,56,517.2,55.9z M515.6,56.3c0-0.1,0-0.2,0-0.3c-1.9,0-3.7,0-5.6,0
				c0,0.1,0,0.2,0,0.3C511.8,56.3,513.7,56.3,515.6,56.3z M818.2,31c0,0.3,0.5,0.7,0.7,1c0.3-0.8,0.7-1.5,1.1-2.5
				C818,29,818.1,30.2,818.2,31z M668.3,19.3c0,0-0.1,0-0.1,0c0,2.5,0,4.9,0,7.4c0,0,0.1,0,0.1,0C668.3,24.2,668.3,21.7,668.3,19.3z
				 M699.6,26.8c0,0,0.1,0,0.1,0c0-2.5,0-4.9,0-7.4c0,0-0.1,0-0.1,0.1C699.6,21.9,699.6,24.3,699.6,26.8z"/>
		</g>
		<path class="st1" d="M813.9,51.2c0.1-6.1,0.2-12.2,0.3-18.3c0.5-0.1,0.7-0.2,0.8-0.2c6.3-0.7,12.6-0.3,18.9,0.6
			c2.7,0.4,5.3,1.1,7.9,1.9c1.6,0.5,3.1,1.4,4.6,2.2c1.5,0.8,3,1.7,4.6,2.3c1.4,0.5,2.3,1.6,3.6,2.3c2.5,1.2,4.7,3.1,6.9,4.8
			c1.2,0.9,1.6,3.4,0.8,4.6c-0.7,1-1.3,1.9-2.9,1.1c-1-0.5-2.2-0.5-3.3-0.6c-2.4-0.1-4.9,0-7.3,0c-11.3,0-22.7,0-34-0.1
			c-0.6,0-1.2,0-1.8,0c0-0.1,0-0.2,0-0.3C813.3,51.4,813.6,51.3,813.9,51.2C813.9,51.1,813.9,51.2,813.9,51.2z M815.2,49.1
			c0,0,0.1,0,0.1,0c0-5.2,0-10.3,0-15.5c0,0-0.1,0-0.1,0C815.2,38.7,815.2,43.9,815.2,49.1z M858.9,45.2c-1.4-0.8-2.6-1.5-3.7-2.2
			C855.4,44.8,857,45.7,858.9,45.2z"/>
		<path class="st1" d="M687.6,53.7c-0.9-0.8-1.8-1.4-2.8,0c-0.2,0.3-1,0.2-1.7,0.4c0.1-0.5,0.2-0.7,0.3-1.1c-4.1,0-8.1,0-12.2,0
			c0.2,0.3,0.3,0.6,0.4,0.9c-0.8,0.1-1.5,0.2-2.2,0.3c0-0.3,0-0.7-0.1-1.1c-0.8,0.1-1.6,0.3-2.3,0.4c0.2,0.9,0.3,1.7,0.5,2.6
			c0,0-0.6,0.1-1.3,0.3c0.2-1.2,0.4-2.1,0.6-3c-1.2-0.1-2.4-0.3-3.6-0.4c-1.1-0.1-2.2,0-3.3,0c-0.1,0.6-0.2,1.1-0.3,1.7
			c0.8,0,1.5,0,2.2,0c-0.1-0.4-0.2-0.8-0.3-1.2c1.5,0,2.9,0,4.4,0c-0.2,1.1-0.3,2-0.5,2.9c-0.6-0.4-1.1-0.8-1.7-1
			c-0.7-0.2-1.6-0.6-1.6,0.8c-0.1-0.4-0.1-0.8-0.2-1.3c-0.5,0-0.9-0.1-1.3-0.1c-0.3,0-0.7,0-1.1,0.1c-0.4,1.3,0.1,2,1.3,2
			c2.4,0.1,4.8,0,7.3,0c-1,2.9-3.5,4.2-6.1,3.4c-2.9-0.9-3.9-3.6-2.9-7.2c-2.1,1.9-0.8,6.4,2.2,7.5c2,0.8,4,0.7,5.6-0.9
			c1-1,1.9-1.2,3.1-1c1.3,0.2,2.6,0.4,3.5-1c0.2-0.4,1-0.4,1.6-0.6c0.2-0.9,0.4-2,0.7-3.1c1,0,1.9,0,2.9,0c0.2,1,0.5,2,0.7,2.7
			c1,0.6,1.6,1.2,2.4,1.5c0.7,0.3,1.6,0.6,2.3,0.5c1.5-0.2,2.6-0.1,3.8,1.1c1.9,1.8,5.1,1.5,7-0.3c1.9-1.8,2.2-4.7,0.9-6.4
			c0,1.3,0.2,2.8-0.1,4.2c-0.4,1.6-1.6,2.6-3.2,3c-2.5,0.7-4.7-0.5-6-3.5c2.5,0,4.9-0.1,7.2,0c1.6,0.1,1.8-0.6,1.5-2
			c-0.8,0-1.6,0-2.3,0c-0.1,1.6-1.3,1.4-2.3,1.3c-0.4,0-0.7-0.1-1.3-0.2c-0.1-0.7-0.3-1.6-0.5-2.6c1.4,0,2.8,0,4.3,0
			c0,0.3,0,0.7-0.1,1.2c0.6,0,1.2,0,2,0c-0.1-0.6-0.1-1.1-0.3-1.9c-2.3,0.2-4.6,0.4-6.9,0.6c0.2,1,0.4,1.9,0.6,3.2
			C686.9,55.7,686.7,54.6,687.6,53.7z"/>
		<path class="st1" d="M604.3,55.8c0,0.1,0.6,0.3,1.1,0.4c-0.9-0.8,1.4-2.1-0.6-2.6c0.8-0.2,1.6-0.5,2.4-0.4c0.7,0.1,1.3,0.6,1.9,1
			c0-0.3,0-0.5,0-0.8c0.3-0.2,0.6-0.4,0.9-0.4c3.7,0,7.4,0,11.2,0c-0.1,0.4-0.1,0.7-0.2,1c1.5,0.9,2.6-2.3,4.2-0.3
			c-0.8,1.2-0.5,2.5,0.8,2.7c0-1.1,0-2.1,0-3.2c2.2,0,4.5,0,6.6,0c0.2,0.6,0.3,1.1,0.4,1.5c0.5,1.8,0.1,2.3-1.7,2.4
			c-2.2,0.1-4.5,0-6.9,0c1.1,2.9,3.6,4.2,6.1,3.4c2.9-0.9,3.8-3.3,2.9-7.6c0.3,0.3,0.4,0.5,0.5,0.7c1.1,2.4,0.5,5-1.6,6.5
			c-2.1,1.6-4.9,1.4-6.9-0.3c-0.4-0.4-1-1-1.5-1c-1.9,0.1-3.7,0.5-5.5-1.1c-0.6-0.6-1.2-1-1.4-1.8c-0.2-0.5-0.2-1.1-0.3-1.7
			c-1,0-2,0-2.9,0c-0.4,1.5-0.4,2.9-2.3,3.8c-1.2,0.6-2.2,1.1-3.5,0.9c-1.2-0.2-2.2,0-3.1,1c-2,2-5.4,1.7-7.4-0.3
			c-1.5-1.6-2-5-0.8-6.2c0.8-0.7,7.5-0.4,8.2,0.4C604.6,54.4,604.4,55.1,604.3,55.8z M597.1,58.1c0.9,1.7,2.8,2.6,4.9,2.4
			c1.9-0.2,3.3-1.4,3.8-3.4c-2.8,0-5.5,0-8.6,0c0.1-1.3,0.2-2.5,0.2-3.9C596.3,54.6,596.2,56.5,597.1,58.1z M630.8,54.7
			c0.1-0.4,0.2-0.8,0.3-1.3c-1.5,0-2.9,0-4.4,0c0.1,1,0.3,1.9,0.4,2.9c1.2-0.5,3,1.1,3.9-1.4c0.2,0,0.7-0.1,1.2-0.1
			C631.7,54.8,631.3,54.7,630.8,54.7z M598.6,54.8c0.1,0,0.5,0,1,0.1c0.1,0.4,0.1,0.9,0.2,1.4c0.7,0,1.5,0.2,2.1-0.1
			c0.4-0.2,0.5-0.6,0.7,0.1c0.2-0.2,0.7-0.3,0.7-0.5c0.2-0.7,0.2-1.5,0.3-2.4C601.5,52.7,600.1,54.3,598.6,54.8z"/>
		<path class="st1" d="M824.4,53.4c-1-0.4-2.1-1.2-3,0.3c-0.2,0.3-1,0.1-1.6,0.2c0.1-0.4,0.2-0.7,0.3-1c-4,0-8,0-12.1,0
			c0.1,0.4,0.2,0.6,0.4,1.4c-0.9-0.5-1.5-1-2.1-1.1c-0.8-0.1-1.7,0.2-2.6,0.3c0.2,0.7,0.5,1.5,0.6,2.2c0,0.1-0.6,0.4-0.9,0.6
			c-0.1-0.1-0.3-0.2-0.4-0.3c0.2-0.9,0.4-1.8,0.5-2.8c-0.7-0.1-1.3-0.4-2-0.4c-1.6-0.1-3.3,0-4.9,0c-0.2,0.7-0.3,1.2-0.5,1.8
			c0.7,0,1.5,0,2.3,0c-0.1-0.5-0.1-0.9-0.2-1.3c1.5,0,2.8,0,4.3,0c-0.2,1-0.3,1.9-0.5,2.9c-1.1-0.1-2.2-0.2-3.4-0.4
			c0-0.2-0.1-0.6-0.2-1.1c-0.8-0.1-1.6-0.2-2.3-0.2c-0.6,1.5,0.1,2.2,1.6,2.2c2.3,0,4.6,0,6.9,0c-0.5,2.5-2.9,4-5.5,3.5
			c-3.1-0.6-4.2-3.2-3.3-7.4c-2.2,2.3-0.7,6.7,2.6,7.7c2.1,0.6,4,0.2,5.7-1.3c0.5-0.4,1.3-0.7,2-0.7c1.5,0,2.7-0.1,4.2-0.9
			c1.8-1,1.9-2.3,2.2-3.8c1,0,2,0,3,0c0.2,1.1,0.5,2.1,0.6,2.8c1,0.6,1.6,1.3,2.4,1.5c1,0.3,2,0.4,3,0.3c1.1-0.1,1.8,0,2.7,0.9
			c1.8,1.9,5,1.9,7,0.3c2.1-1.7,2.6-4.5,1.2-6.8c0,1.4,0.3,3-0.1,4.4c-0.4,1.6-1.8,2.6-3.4,3c-2.5,0.5-4.6-0.7-5.7-3.5
			c2.5,0,4.9,0.1,7.4,0c1.1,0,1.7-0.7,1.3-2c-0.8,0-1.6,0-2.4,0c-0.1,0.4-0.1,0.8-0.2,1.2c-0.5-0.5-1-1.1-1.5-1.7
			c-0.1,0.1-0.1,0.1-0.2,0.2c0.3,0.4,0.7,0.8,1,1.2c-0.5,0.1-1,0.3-1.6,0.3c-0.3,0-0.6,0-1.1-0.1c-0.1-0.7-0.3-1.6-0.5-2.7
			c1.5,0,2.8,0,4.3,0c-0.1,0.4-0.1,0.8-0.2,1.3c0.7,0,1.3,0,2.1,0c-0.1-0.6-0.2-1.2-0.3-2c-2.3,0.2-4.6,0.4-6.9,0.6
			c0.2,1,0.4,1.9,0.6,3.3c-0.8-0.4-1.4-0.6-1.4-0.7C823.9,55.1,823.2,54,824.4,53.4z"/>
		<path class="st1" d="M453.6,56.1c0.1-0.7,0.1-1.3,0.2-2c-0.3-0.1-0.6-0.3-0.9-0.5c1.7-2,3,1,4.6,0.3c-0.1-0.3-0.1-0.6-0.2-0.9
			c4.1,0,8,0,12,0c-0.1,0.4-0.1,0.7-0.2,1.2c1.4-0.5,2.6-0.9,3.9-1.4c0.1,1.2,0.1,2,0.2,2.8c0,0.2,0.3,0.5,0.4,0.7
			c0.2-0.2,0.6-0.4,0.6-0.6c0.1-0.9,0-1.7,0-2.7c2.1,0,4.3,0,6.6,0c0.2,1.3,0.3,2.5,0.6,4.2c-3.2,0-5.9,0-8.7,0
			c0.7,2.4,3,3.8,5.5,3.2c3-0.6,4.1-3,3.4-7.4c1.4,1.8,1.3,4.5-0.4,6.3c-1.8,1.9-5,2.5-6.9,0.7c-1.5-1.4-3-1.4-4.8-1.2
			c-1.4,0.2-2-0.6-2.5-1.8c0.8-0.1,1.4-0.1,2.4-0.2c-0.7-0.6-1.1-1-1.4-1.2c-0.8,0.4-1.9,1.1-2,1c-0.6-0.7-1.1-1.6-1.6-2.6
			c-0.7,0-1.6,0-2.2,0c-0.6,1-1.1,1.9-1.7,2.6c-0.1,0.1-1.1-0.6-1.9-1c-0.3,0.3-0.7,0.7-1.4,1.2c0.9,0.1,1.6,0.2,2.4,0.2
			c-0.7,1.2-1.3,2-2.7,1.7c-1.7-0.4-3.2-0.1-4.6,1.2c-1.7,1.6-4.5,1.3-6.3-0.1c-1.8-1.5-2.6-3.9-1.7-6c0.1-0.3,0.4-0.9,0.6-0.9
			c2.5,0,5.1,0.1,7.6,0.2c0,0,0.1,0.2,0.1,0.3C452,55.1,452.3,56.2,453.6,56.1z M445.6,57c0-1.3,0-2.5,0-4.1
			c-1.2,1.7-1.2,3.2-0.6,4.7c0.8,2,2.5,3,4.7,3c2.1-0.1,3.5-1.2,4.3-3.5C451.2,57,448.5,57,445.6,57z M478.9,53.4
			c-1.2,0-2.5,0-4.1,0c0.2,1,0.3,1.9,0.5,2.8c1.1,0,2.3,0,3.1,0c0.5-0.6,1-1.2,1.2-1.4C479.5,54.5,479.2,54,478.9,53.4z M450.7,56.3
			c0.1,0,0.3,0,0.4,0.1c0.2-0.9,0.4-1.8,0.7-2.9c-1.5,0-2.9,0-4.3,0c0,0.3,0,0.8,0.1,1.2c-0.4,0-0.7,0.1-0.6,0.1
			c0.3,0.3,0.8,0.9,1.2,1.3c0.6-0.3,1.3-0.7,2.1-1.1C450.5,55.5,450.6,55.9,450.7,56.3z"/>
		<path class="st1" d="M807.1,47.1c2.4,0,4.4,0,6.7,0c0-4.7,0-9.4,0-14.3c-2,0.3-3.9,0.6-5.7,1c-0.4,0.1-0.9,0.7-0.9,1.1
			C807,38.8,807.1,42.9,807.1,47.1z"/>
		<path class="st1" d="M591.8,56c0.2-0.5,0.3-1,0.5-1.7c0.7,0,1.5,0,2.4,0c0-0.1,0-0.2,0-0.3c-0.8,0-1.6,0-2.6,0c0-0.8,0-1.5,0-2.2
			l0.1,0.1c-0.1,0-0.3,0-0.4,0l0.1-0.1c0,0.7-0.1,1.3-0.1,2c-4.2,0-8.2,0-12.2,0c0-0.7,0-1.4,0-2l0.1,0.1c-0.1,0-0.3,0-0.4,0
			l0.1-0.1c0,0.6,0,1.2,0,2.1c-1.7,0-3.2,0-4.8,0c-2.8,0-5.7,0-8.5,0c-0.4,0-0.8-0.3-1.4-0.5c-0.2,0.1-0.6,0.5-1,0.5
			c-6.6,0-13.2,0-19.8,0c-0.4,0-0.7-0.6-1.1-0.6c-0.3,0-0.7,0.5-1,0.6c-1.1,0.1-2.2,0.1-3.2,0.1c-9.3-0.1-18.6,0-27.8-0.1
			c-0.5,0-0.9-0.4-1.4-0.6c-0.1,0-0.2,0-0.2,0.1c-0.5,0.2-1,0.6-1.5,0.6c-6.9,0-13.8,0-20.7,0.1c-0.9,0-1.8,0-2.7,0.3
			c8.2,0,16.4,0,24.8,0c0,1.1,0,2,0,2.9c0.1,0,0.2,0,0.2,0c0.1-0.9,0.1-1.8,0.2-2.7c7.3,0,14.5,0,21.8,0c0,0.9,0,1.8,0,2.6
			c0.1,0,0.1,0,0.2,0c0-0.8,0.1-1.6,0.1-2.6c3.6,0,7.2,0,10.9,0c0,0.9,0.1,1.8,0.1,2.8c0.1,0,0.1,0,0.2,0c0-0.9,0-1.8,0-2.8
			c7.3,0,14.5,0,21.9,0c0,0.9,0.1,1.9,0.1,2.8c0.1,0,0.1,0,0.2,0c0-0.9,0-1.8,0-2.8c3.7,0,7.2,0,11,0c0.1,0.9,0.1,1.8,0.2,2.6
			c0,0,0.1,0,0.1,0c0-0.8,0-1.7,0-2.6c1.1,0,2.1,0,3,0c0.2,0.5,0.3,1,0.5,1.6l0,0c0-0.5,0-1.1,0-1.6c4.2,0,8.2,0,12.2,0
			C591.8,55,591.8,55.5,591.8,56C591.8,56,591.8,56,591.8,56z"/>
		<path class="st1" d="M766.1,53.6c0.2,0,0.4,0.1,0.7,0.1c-0.1,0.1-0.2,0.2-0.2,0.2c-6.7,0-13.4,0-20.2,0c-0.4,0-0.9-0.4-1.3-0.6
			c-0.2,0.1-0.7,0.6-1.2,0.6c-2.2,0.1-4.4,0.1-6.7,0c-1.2,0-2.7-1-3.4-0.5c-1.2,0.9-2.3,0.4-3.4,0.5c-1.3,0.2-2.6,0-3.9,0
			c-4.5,0-8.9,0-13.4-0.1c-0.5,0-1-0.3-1.6-0.5c-0.3,0.1-0.7,0.5-1.2,0.5c-4.2,0-8.4,0-12.6,0.3c4.5,0,9.1,0,13.8,0c0,1.1,0,2,0,3
			c0.1,0,0.2,0,0.3,0c0.1-0.9,0.1-1.8,0.2-2.9c3.4,0,6.7,0,10.1,0c0.3,0,0.7,0.6,0.8,1c0.1,0.5,0,1.1,0.2,1.7c0-0.8,0-1.7,0-2.6
			c3.6,0,7,0,10.7,0c0.1,0.9,0.1,1.7,0.2,2.7c0.1-0.1,0.1-0.1,0.1-0.2c0.1-2.6,0.1-2.6,2.8-2.6c2.7,0,5.3,0,8.1,0
			c0.1,1.1,0.1,2.1,0.2,3c0.1,0,0.1,0,0.2,0c0-0.9,0.1-1.9,0.1-2.9c7.3,0,14.5,0,21.8,0c0,1,0,1.9,0,2.9c0.1,0,0.2,0,0.3,0
			c0-0.9,0.1-1.8,0.1-2.9c3.6,0,7.1,0,10.8,0c0.1,0.9,0.1,1.8,0.2,2.8c0,0,0.1,0,0.1,0c0-0.9,0.1-1.8,0.2-2.9c5,0,9.9,0,14.8,0
			c0-0.1,0-0.2,0-0.4c-4.5,0-9.1,0-13.6,0c-0.5,0-0.9-0.3-1.4-0.4c-3.2,1.1-6.7,0.2-10.2,0.4c-0.4,0-0.8-0.4-1.3-0.8
			c-0.1,0-0.6,0.2-1.1,0.3C766,53.5,766.1,53.5,766.1,53.6z"/>
		<path class="st1" d="M750.1,25.6c0,0.6,0,1.1,0,1.6c7.9,0,15.8,0,23.8,0c0.1-0.8,0.4-1.6-0.9-1.6
			C765.4,25.6,757.9,25.6,750.1,25.6z"/>
		<path class="st1" d="M695.1,14.4c0.2,0.2,0.5,0.4,0.8,0.7c-4.1,1.9-8,3.9-12,5.6c-1.2,0.5-1.9,1.1-1.7,2.7c2.2-1.3,4.4-1.5,6.5,0
			c0.2-1.5-0.4-1.7-1.4-1.7c-0.8,0.1-1.7,0-2.6-0.3c2.3-1.1,4.6-2.2,7-3.3c1-0.5,2-1,3.1-1.5c1.2-0.5,2.3-1.4,3.8-0.6
			c0.4,0.2,1.1,0,2.1-0.1c-2.6-2.6-5.7-3.4-8.3-5.1c-2.7-1.7-5.3-3.8-8.6-4.2c1.3,0.8,2.6,1.6,3.9,2.4c3.1,1.8,6.3,3.5,9.4,5.2
			c0,0.1-0.1,0.3-0.1,0.4C696.3,14.6,695.7,14.5,695.1,14.4z"/>
		<path class="st1" d="M808.8,25.4c0-0.8,0-1.5,0-2.2c-4.8,0-9.4,0-14.2,0c0,0.8,0,1.4,0,2.2C799.3,25.4,804,25.4,808.8,25.4z"/>
		<path class="st1" d="M749.8,27.2c0-0.6-0.1-1-0.1-1.6c-3.4,0-6.8,0-10.1,0c-2.4,0-4.8,0-7.2,0c-1.1,0-2,0.2-2.3,1.6
			C736.7,27.2,743.1,27.2,749.8,27.2z"/>
		<path d="M695.1,14.4c0.6,0.1,1.2,0.2,1.8,0.3c0-0.1,0.1-0.3,0.1-0.4c-3.1-1.7-6.3-3.5-9.4-5.2c-1.3-0.7-2.6-1.6-3.9-2.4
			c-0.2-0.1-0.4-0.2-0.6-0.3c0.3,0.8,0.7,1.6,1,2.4C687.8,10.7,691.5,12.6,695.1,14.4z"/>
		<path class="st1" d="M825.7,29c0.1,2.5,0.3,2.8,2.7,3c0.9,0.1,1.8,0.2,2.7,0.3c0.4,0,0.9,0,1.4,0C831.1,29.2,829.7,28.5,825.7,29z
			"/>
		<path class="st1" d="M838.7,33.2c-2.2-1.6-3.8-4.4-7.3-3.7C833.5,32.6,834.7,33.3,838.7,33.2z"/>
		<path class="st1" d="M820.4,29c0,0.9,0,1.6,0,2.6c1.6,0,3.2,0,4.8,0C825,28.5,824.8,28.4,820.4,29z"/>
		<path class="st1" d="M675.7,21.5c0.1-0.1,0.3-0.2,0.6-0.4c-1.1,0-1.9,0-2.9,0c0,0.7,0,1.4,0,2.5c2.2-2,4.4-1,6.6-0.2
			c0.1-0.2,0.1-0.3,0.2-0.5c-0.3-0.5-0.6-1.1-1-1.7c0.2-0.5,0.5-1.1,0.8-1.8c-0.7,0-1.4-0.1-2.1-0.1c0.1,0.4,0.1,0.7,0.2,1.1
			c-0.8,0.5-1.5,1-2.2,1.5C675.8,21.8,675.7,21.7,675.7,21.5z"/>
		<path class="st1" d="M859.1,57.2c-7.7,0-15.5,0-23.2,0c0,0,0,0.1,0,0.1C843.7,57.2,851.4,57.2,859.1,57.2
			C859.1,57.2,859.1,57.2,859.1,57.2z"/>
		<path class="st1" d="M684.2,8.8c-0.3-0.8-0.7-1.6-1-2.4c-0.4-0.5-0.9-1.1-1.3-1.6c0.1-0.1,0.2-0.3,0.3-0.4c-0.7,0-1.4,0-2,0
			c0.3,1.4,0.7,2.7,1,4.2c0.1-0.7,0.3-1.4,0.5-2.5c0.6,0.8,0.9,1.4,1.4,1.8C683.4,8.3,683.8,8.5,684.2,8.8z"/>
		<path class="st1" d="M524.4,56.5c2,0,3.9,0,5.9,0c0-0.1,0-0.2,0-0.3c-2,0-3.9,0-5.9,0C524.4,56.3,524.4,56.4,524.4,56.5z"/>
		<path class="st1" d="M522.9,56.1c-1.9,0-3.8,0-5.7,0c0,0.1,0,0.2,0,0.3c1.9,0,3.8,0,5.7,0C522.9,56.4,522.9,56.3,522.9,56.1z"/>
		<path class="st1" d="M510,56.5c1.9,0,3.7,0,5.6,0c0-0.1,0-0.2,0-0.3c-1.9,0-3.7,0-5.6,0C510,56.3,510,56.4,510,56.5z"/>
		<path class="st1" d="M579.5,56c0.3,0.1,0.6,0.3,0.9,0.3c3.5,0,7,0,10.6,0c0.3,0,0.6-0.2,0.9-0.3c0,0,0,0,0,0
			C587.7,56,583.6,56,579.5,56L579.5,56z"/>
		<path d="M604.8,53.6c-0.2,0.7-0.4,1.5-0.5,2.2c0,0.1,0.6,0.3,1.1,0.4C604.5,55.4,606.8,54.1,604.8,53.6
			C604.8,53.6,604.8,53.6,604.8,53.6z"/>
		<path class="st1" d="M820,29.2c-2-0.5-1.9,0.7-1.8,1.5c0,0.3,0.5,0.7,0.7,1C819.2,30.9,819.6,30.2,820,29.2z"/>
		<path d="M452.7,53.5c-0.7,1.6-0.4,2.7,0.8,2.6c0.1-0.7,0.1-1.3,0.2-2c-0.3-0.1-0.6-0.3-0.9-0.5C452.9,53.6,452.8,53.5,452.7,53.5z
			"/>
		<path d="M824.4,53.4c-1.2,0.6-0.5,1.6-0.6,2.5c0,0.1,0.6,0.3,1.4,0.7c-0.3-1.4-0.5-2.4-0.6-3.3C824.5,53.3,824.4,53.4,824.4,53.4z
			"/>
		<path d="M666.7,53.3c-0.2,0.9-0.4,1.8-0.6,3c0.7-0.1,1.3-0.2,1.3-0.3c-0.1-0.9-0.3-1.7-0.5-2.6C666.9,53.4,666.8,53.3,666.7,53.3z
			"/>
		<path d="M803.5,53.3c-0.2,0.9-0.4,1.8-0.5,2.8c0.1,0.1,0.3,0.2,0.4,0.3c0.3-0.2,0.9-0.4,0.9-0.6c-0.1-0.8-0.4-1.5-0.6-2.2
			C803.6,53.5,803.5,53.4,803.5,53.3z"/>
		<path d="M687.6,53.7c-0.8,0.9-0.7,2,0.8,2.8c-0.3-1.3-0.4-2.2-0.6-3.2C687.7,53.4,687.6,53.6,687.6,53.7z"/>
		<path class="st1" d="M668.3,26.7c0-2.5,0-4.9,0-7.4c0,0-0.1,0-0.1,0c0,2.5,0,4.9,0,7.4C668.2,26.7,668.2,26.7,668.3,26.7z"/>
		<path class="st1" d="M699.6,19.4c0,2.4,0,4.9,0,7.3c0,0,0.1,0,0.1,0c0-2.5,0-4.9,0-7.4C699.7,19.3,699.6,19.3,699.6,19.4z"/>
		<path d="M618.2,34.2c0,2.4,0,4.7,0,7c8.8,0,17.5,0,26.4,0c0-2.3,0-4.6,0-7C635.8,34.2,627.1,34.2,618.2,34.2z"/>
		<path d="M591.8,51.9c0.1,0,0.3,0,0.4,0c0-3.5,0-6.9,0-10.7c2.7,0,5.3-0.1,8,0.1c1.7,0.1,2.2-0.7,2.1-2c-0.2-2.1,0.9-2.4,2.6-2.4
			c4.1,0.1,8.3,0,12.5,0c0,1,0,2.2,0,3.6c-5,0-9.9,0-14.8,0c0,0.1,0,0.3,0,0.4c0.7,0,1.4,0,2.1,0c3.9,0,7.7,0,11.6,0
			c1.1,0,1.5-0.4,1.5-1.5c-0.1-1.6,0-3.2,0-4.9c-0.6,0-1.1-0.1-1.6-0.1c-4.6,0-9.2,0.1-13.8,0.1c-3.8-0.1-7.5-0.3-11.3-0.5
			c-0.7,0-1.5,0-2.4,0c0,2.2,0,4.2,0,6.2c0,0.3,0.6,0.7,0.9,0.9c0.6,0.2,1.2,0.1,2,0.2C591.8,44.9,591.8,48.4,591.8,51.9z"/>
		<path d="M579.1,34.1c-7.6,0.2-15.1,0.4-23,0.6c0.1,2,0.3,4,0.4,5.9l0,0c0-0.9,0-1.8,0-3c4.2,0,8.3,0,12.4,0c2.7,0,2.7-0.1,2.7,2.6
			l0-0.1c0.5,0.8,1.2,1.1,2.3,1.1c1.7-0.1,3.4,0,5.3,0c0,3.7,0,7.2,0,10.7c0.1,0,0.3,0,0.4,0c0-3.5,0-7,0-10.6c1-0.1,1.9-0.1,3-0.2
			c0-2.3,0-4.5,0-7c-1-0.1-2-0.1-3-0.2"/>
		<path d="M449.7,41.2c0-2.4,0-4.6,0-7c-5.2,0-10.3,0-15.6,0c0,2.3,0,4.6,0,7C439.3,41.2,444.4,41.2,449.7,41.2z"/>
		<path d="M550.2,40.6c-4.9,0-9.8,0-14.8,0c0-0.9,0-1.7,0-2.6c4.9,0,9.8,0,14.8,0c0.3,1.1,0.6,2.1,0.9,3.2c1.6,0,3.1,0,4.7,0
			c0-2.4,0-4.7,0-6.8c-6.9,0-13.7,0-20.7,0c0,2.1,0,3.9,0,5.7c0,0.3,0.5,0.8,0.8,0.8c4.8,0.1,9.5,0,14.3,0
			C550.2,40.8,550.2,40.7,550.2,40.6z"/>
		<path d="M493,40.6c0-1.1,0-2,0-3c5,0,9.9,0,15,0c0-1,0-2,0-3c-5,0-10.1,0-15.3,0c0,1.9,0,3.7,0,5.5c0,0.3,0.5,0.8,0.8,0.8
			c4.8,0.1,9.5,0,14.3-0.3C502.9,40.6,498,40.6,493,40.6z"/>
		<path d="M514.2,40.5c0-0.8-0.1-1.7-0.1-2.7c5.1,0,10,0,15,0c0-1.1,0-2.1,0-3.3c-5,0-10,0-15.4,0C513.9,36.6,514.1,38.6,514.2,40.5
			L514.2,40.5z"/>
		<path d="M486.7,37c0-0.7,0-1.5,0-2.5c-4.6,0-9.1-0.1-13.5,0c-2.4,0.1-1.5,2.1-1.7,3.1c0.5-0.2,1.2-0.6,1.8-0.6
			C477.7,37,482.1,37,486.7,37z"/>
		<path d="M492.2,41.3c0-2.4,0-4.7,0-7.1c-1.6,0-3.2,0-5,0c0,2.1,0,4.2,0,6.2c0,0.3,0.6,0.8,1,0.8C489.5,41.3,490.7,41.3,492.2,41.3
			z"/>
		<path d="M508.5,41.2c1.7,0,3.2,0,4.8,0c0-2.3,0-4.6,0-7c-1.6,0-3.1,0-4.8,0C508.5,36.5,508.5,38.8,508.5,41.2z"/>
		<path d="M529.5,41.2c1.9,0,3.3,0,5,0c0-2.3,0-4.6,0-7.1c-1.3,0-2.7-0.1-4,0c-0.3,0-0.9,0.6-0.9,0.9C529.5,37,529.5,39,529.5,41.2z
			"/>
		<path d="M466.1,34.2c0,2.3,0,4.6,0,7c1.5,0,2.7,0.1,4,0c0.3,0,0.8-0.5,0.9-0.8c0.1-2,0-4,0-6.2C469.4,34.2,467.8,34.2,466.1,34.2z
			"/>
		<path d="M465.3,36.9c0,1.3,0,2.4,0,3.7c-4.9,0-9.7,0-14.5,0c0,0.1,0,0.2,0,0.3c4.8,0,9.7,0,14.7,0c0-2,0-4.1,0-6.4
			c-1.2,0.1-2.5,0.2-3.8,0.2c-3.2,0-6.4-0.1-9.5-0.2c-1,0-1.9,0.1-1.4,1.7C455.5,36.4,460.3,36.6,465.3,36.9z"/>
		<path class="st1" d="M638,32.4c0-0.9,0-1.8,0-2.7c-3.1,0-6.2,0-9.2,0c0,0.9,0,1.8,0,2.7C631.8,32.4,634.9,32.4,638,32.4z"/>
		<path d="M579.5,51.9c0,0.6,0,1.2,0,2c4.1,0,8.1,0,12.2,0c0-0.7,0.1-1.3,0.1-2C587.7,51.9,583.6,51.9,579.5,51.9z"/>
		<path d="M582.9,34.4c0.1,1.1,0.2,1.9,0.3,2.9c1.6,0,3.1,0,4.9,0c0,1,0,1.9,0,2.8c0.1,0,0.2,0,0.2,0c0-1.8,0-3.6,0-5.4
			C586.5,34.6,584.8,34.5,582.9,34.4z"/>
		<path d="M486.5,40.7c-4.9,0-9.8,0-14.7,0c0,0.1,0,0.1,0,0.2c4.9,0,9.8,0,14.7,0C486.5,40.8,486.5,40.7,486.5,40.7z"/>
		<path d="M514.3,40.5c0.1,0.1,0.2,0.4,0.3,0.4c4.8,0,9.6,0,14.5-0.4C524.1,40.5,519.2,40.5,514.3,40.5
			C514.2,40.5,514.3,40.5,514.3,40.5z"/>
		<path d="M556.6,40.6c0.4,0.1,0.8,0.4,1.2,0.4c4.2,0,8.3,0,12.5,0c0.5,0,0.9-0.4,1.4-0.7c0,0,0,0.1,0,0.1c-0.6,0.1-1.2,0.3-1.8,0.3
			C565.4,40.6,561,40.6,556.6,40.6C556.6,40.6,556.6,40.6,556.6,40.6z"/>
		<path d="M713.6,35.1c0,1.7,0,3.3,0,4.9c0.2,0,0.3,0,0.5,0c0-1.5,0-3.1,0-4.7c2.7,0,5.2,0,8,0c0,1.5,0,3.1,0,4.6c0.2,0,0.3,0,0.5,0
			c0-1.6,0-3.1,0-4.9c1.3,0.1,2.4,0.1,3.7,0.2c0,1.6,0,3.2,0,4.7c0.2,0,0.5,0,0.7,0c0.1-1.6,0.2-3.1,0.3-4.8c9.6,0,19.2,0,29.1,0
			c0,1.6,0,3.2,0,4.7c0.1,0,0.3,0,0.4,0c0-1.5,0-3,0-4.7c9.4,0,18.6,0,27.9,0c0,1.6,0,3.1,0,4.7c0.1,0,0.3,0,0.4,0
			c0-1.9,0-3.7,0-5.7c-45.2,0-90.4,0-135.8,0c0,1.9,0,3.8,0,5.7c0.2,0,0.3,0,0.5,0c0.8-1.5,0.2-3.1,0.3-4.8c2.5,0,5,0,7.7,0
			c0,1.6,0,3.1,0,4.7c0.2,0,0.4,0,0.7,0c0.1-1.6,0.2-3.1,0.2-4.9C677,35.1,695.2,35.1,713.6,35.1z"/>
		<path d="M648.8,40.4c1.3,0.9,131.4,1.4,135.8,0.8c0.3,0,0.6-0.3,0.7-0.8C740,40.4,694.6,40.4,648.8,40.4z"/>
		<path d="M785.8,34.2c0,2.3,0,4.6,0,6.9c0.1,0,0.2,0,0.3,0c0-2.3,0-4.6,0-6.9C786,34.2,785.9,34.2,785.8,34.2z"/>
		<path d="M666.5,35.5c0,1.5,0,2.9,0,4.4C667.4,39.3,667.6,36.9,666.5,35.5z"/>
		<path d="M668.4,39.9c0-1.5,0-3,0-4.5c-0.2,0-0.3,0-0.5,0c0,1.5,0,3,0,4.5C668.1,39.9,668.3,39.9,668.4,39.9z"/>
		<path d="M669.4,35.5c0,1.5,0,3,0,4.5c0.2,0,0.3,0,0.5,0c0-1.5,0-2.9,0-4.4C669.7,35.5,669.6,35.5,669.4,35.5z"/>
		<path d="M675.1,35.5c0,1.5,0,2.9,0,4.4c0.1,0,0.3,0,0.4,0c0-1.5,0-3,0-4.4C675.4,35.5,675.2,35.5,675.1,35.5z"/>
		<path d="M676.5,35.5c0,1.5,0,2.9,0,4.4c0.2,0,0.3,0,0.5,0c0-1.5,0-3,0-4.5C676.8,35.5,676.7,35.5,676.5,35.5z"/>
		<path d="M678.5,40.3c0-1.9,0-3.4,0-4.9C677.5,36.2,677.4,38.7,678.5,40.3z"/>
		<path d="M683.5,35c0,2,0,3.4,0,4.9C684.5,39.3,684.6,36.7,683.5,35z"/>
		<path d="M685.6,39.9c0-1.5,0-3,0-4.5c-0.2,0-0.3,0-0.5,0c0,1.5,0,3,0,4.5C685.2,39.9,685.4,39.9,685.6,39.9z"/>
		<path d="M686.5,35.5c0,1.5,0,2.9,0,4.4c0.1,0,0.3,0,0.4,0c0-1.5,0-3,0-4.5C686.8,35.5,686.7,35.5,686.5,35.5z"/>
		<path d="M692.1,35c0,2,0,3.4,0,4.9C693.1,39.3,693.2,36.8,692.1,35z"/>
		<path d="M693.6,35.5c0,1.5,0,2.9,0,4.4c0.1,0,0.3,0,0.4,0c0-1.5,0-2.9,0-4.4C693.9,35.5,693.8,35.5,693.6,35.5z"/>
		<path d="M695.5,39.9c0-1.5,0-2.9,0-4.4c-0.1,0-0.3,0-0.4,0c0,1.5,0,3,0,4.4C695.2,39.9,695.3,39.9,695.5,39.9z"/>
		<path d="M702.5,39.8c0-1.4,0-2.8,0-4.2c-0.1,0-0.2,0-0.3,0c0,1.4,0,2.8,0,4.2C702.3,39.8,702.4,39.8,702.5,39.8z"/>
		<path d="M660.9,35.5c0,1.5,0,3,0,4.5c0.1,0,0.3,0,0.4,0c0-1.5,0-2.9,0-4.4C661.1,35.5,661,35.5,660.9,35.5z"/>
		<path d="M659.9,39.9c0-1.5,0-3,0-4.4c-0.2,0-0.3,0-0.5,0c0,1.5,0,2.9,0,4.4C659.6,39.9,659.7,39.9,659.9,39.9z"/>
		<path d="M653.7,35.5c0,1.5,0,3,0,4.5c0.1,0,0.3,0,0.4,0c0-1.5,0-3,0-4.5C654,35.5,653.9,35.5,653.7,35.5z"/>
		<path d="M652.4,35.5c0,1.5,0,3,0,4.4c0.1,0,0.3,0,0.4,0c0-1.5,0-2.9,0-4.4C652.7,35.5,652.5,35.5,652.4,35.5z"/>
		<path d="M651.3,39.9c0-1.5,0-3,0-4.5c-0.2,0-0.3,0-0.5,0c0,1.5,0,3,0,4.5C651,39.9,651.2,39.9,651.3,39.9z"/>
		<path d="M764,39.9c0-1.5,0-2.9,0-4.4C762.9,36.3,762.9,39.2,764,39.9z"/>
		<path d="M767.7,40.1c1-1.3,1-3.7,0-4.9C767.7,36.9,767.7,38.4,767.7,40.1z"/>
		<path d="M769.1,40.1c1-1,1.1-3.6,0-4.9C769.1,36.9,769.1,38.4,769.1,40.1z"/>
		<path d="M770.6,35.5c0,1.5,0,2.9,0,4.4c0.1,0,0.3,0,0.4,0c0-1.5,0-3,0-4.5C770.9,35.5,770.8,35.5,770.6,35.5z"/>
		<path d="M776.3,35.5c0,1.5,0,2.9,0,4.4c0.1,0,0.3,0,0.4,0c0-1.5,0-3,0-4.4C776.6,35.5,776.4,35.5,776.3,35.5z"/>
		<path d="M778.1,39.9c0-1.5,0-3,0-4.5c-0.2,0-0.3,0-0.5,0c0,1.5,0,3,0,4.4C777.8,39.9,778,39.9,778.1,39.9z"/>
		<path d="M779.7,40.1c0-1.7,0-3.2,0-4.8C778.6,36.4,778.6,38.9,779.7,40.1z"/>
		<path d="M751.1,39.9c0-1.5,0-3,0-4.5c-0.1,0-0.3,0-0.4,0c0,1.5,0,2.9,0,4.4C750.8,39.9,750.9,39.9,751.1,39.9z"/>
		<path d="M746.9,40.3c0-1.9,0-3.4,0-4.9C745.9,36.1,745.8,38.7,746.9,40.3z"/>
		<path d="M744.9,35.5c0,1.5,0,3,0,4.5c0.2,0,0.3,0,0.5,0c0-1.5,0-3,0-4.4C745.2,35.5,745.1,35.5,744.9,35.5z"/>
		<path d="M743.9,39.9c0-1.5,0-3,0-4.5c-0.2,0-0.3,0-0.5,0c0,1.5,0,2.9,0,4.4C743.6,39.9,743.7,39.9,743.9,39.9z"/>
		<path d="M752,35.2c0,1.7,0,3.2,0,4.8C753,39.1,753,36.5,752,35.2z"/>
		<path d="M754,40.3c0-1.9,0-3.4,0-5C753,36.3,753,38.7,754,40.3z"/>
		<path d="M738.3,39.9c0-1.5,0-2.9,0-4.4c-0.1,0-0.3,0-0.4,0c0,1.5,0,2.9,0,4.4C738,39.9,738.2,39.9,738.3,39.9z"/>
		<path d="M736.4,35.5c0,1.5,0,3,0,4.5c0.2,0,0.3,0,0.5,0c0-1.5,0-3,0-4.5C736.7,35.5,736.5,35.5,736.4,35.5z"/>
		<path d="M755.4,35.5c-1,1.2-0.9,3.5,0,4.6C755.4,38.4,755.4,37,755.4,35.5z"/>
		<path d="M734.9,35.2c0,1.7,0,3.2,0,4.8C735.9,39,735.9,36.6,734.9,35.2z"/>
		<path d="M729.3,35.5c0,1.5,0,2.9,0,4.4c0.1,0,0.3,0,0.4,0c0-1.5,0-3,0-4.5C729.6,35.5,729.4,35.5,729.3,35.5z"/>
		<path d="M760.6,35.2c0,1.7,0,3.2,0,4.8C761.5,39,761.6,36.6,760.6,35.2z"/>
		<path d="M728.4,39.9c0-1.5,0-3,0-4.5C727.4,36.2,727.3,38.7,728.4,39.9z"/>
		<path d="M762,35.5c0,1.5,0,2.9,0,4.4c0.1,0,0.3,0,0.4,0c0-1.5,0-2.9,0-4.4C762.3,35.5,762.1,35.5,762,35.5z"/>
		<path d="M720.7,35.5c0,1.5,0,3,0,4.5c0.2,0,0.3,0,0.5,0c0-1.5,0-2.9,0-4.4C721,35.5,720.9,35.5,720.7,35.5z"/>
		<path d="M719.8,39.9c0-1.5,0-3,0-4.4c-0.2,0-0.3,0-0.5,0c0,1.5,0,3,0,4.5C719.4,39.9,719.6,39.9,719.8,39.9z"/>
		<path d="M710.7,35.6c0,1.4,0,2.9,0,4.3c0.1,0,0.3,0,0.4,0c0-1.4,0-2.9,0-4.3C711,35.6,710.9,35.6,710.7,35.6z"/>
		<path d="M709.2,35.6c0,1.4,0,2.9,0,4.3C710.3,39.4,710.4,37.3,709.2,35.6z"/>
		<path d="M717.8,35.5c0,1.5,0,2.9,0,4.4C718.7,39.2,718.8,37,717.8,35.5z"/>
		<path d="M682.2,35.1c0,1.9,0,3.3,0,4.9C683.2,39,683.2,36.7,682.2,35.1z"/>
		<path d="M734,39.9c0-1.5,0-3,0-4.5c-0.1,0-0.3,0-0.4,0c0,1.5,0,3,0,4.5C733.7,39.9,733.8,39.9,734,39.9z"/>
		<path d="M781,40.2c0-1.8,0-3.3,0-4.8C780.1,36.4,780.1,38.6,781,40.2z"/>
		<path d="M712.2,35.6c0,1.4,0,2.9,0,4.3c0.1,0,0.3,0,0.4,0c0-1.4,0-2.9,0-4.3C712.5,35.6,712.4,35.6,712.2,35.6z"/>
		<path d="M707.8,35.7c0,1.4,0,2.8,0,4.2c0.1,0,0.3,0,0.4,0c0.6-1.4,0.4-2.8,0.1-4.3C708.1,35.6,708,35.6,707.8,35.7z"/>
		<path d="M704.1,39.8c0-1.4,0-2.9,0-4.3c-0.1,0-0.3,0-0.4,0c0,1.4,0,2.9,0,4.3C703.8,39.8,703.9,39.8,704.1,39.8z"/>
		<path d="M716.4,35.5c0,1.5,0,2.9,0,4.4c0.1,0,0.3,0,0.4,0c0-1.5,0-2.9,0-4.4C716.7,35.5,716.6,35.5,716.4,35.5z"/>
		<path d="M688.4,39.9c0-1.5,0-3,0-4.4c-0.1,0-0.3,0-0.4,0c0,1.5,0,3,0,4.4C688.1,39.9,688.2,39.9,688.4,39.9z"/>
		<path d="M772.6,39.9c0-1.5,0-2.9,0-4.5C771.6,36.3,771.5,38.5,772.6,39.9z"/>
		<path d="M773.4,35.5c0,1.5,0,2.9,0,4.4c0.1,0,0.3,0,0.4,0c0-1.5,0-2.9,0-4.4C773.7,35.5,773.6,35.5,773.4,35.5z"/>
		<path d="M774.9,35.5c0,1.5,0,2.9,0,4.4c0.1,0,0.3,0,0.4,0c0-1.5,0-2.9,0-4.4C775.1,35.5,775,35.5,774.9,35.5z"/>
		<path d="M758.2,40c0-1.6,0-3,0-4.7C757.4,36.6,757.4,39,758.2,40z"/>
		<path d="M759.1,35.5c0,1.5,0,2.9,0,4.4c0.1,0,0.3,0,0.4,0c0-1.5,0-2.9,0-4.4C759.4,35.5,759.3,35.5,759.1,35.5z"/>
		<path d="M782.4,39.9c0-1.5,0-2.9,0-4.4c-0.1,0-0.3,0-0.4,0c0,1.5,0,2.9,0,4.4C782.2,39.9,782.3,39.9,782.4,39.9z"/>
		<path d="M783.4,35.5c0,1.5,0,2.9,0,4.4c0.1,0,0.3,0,0.4,0c0-1.5,0-2.9,0-4.4C783.7,35.5,783.5,35.5,783.4,35.5z"/>
		<path d="M706.4,35.6c0,1.4,0,2.8,0,4.2c0.1,0,0.3,0,0.4,0c0-1.4,0-2.8,0-4.2C706.7,35.6,706.6,35.6,706.4,35.6z"/>
		<path d="M705.1,35.5c0,1.4,0,2.9,0,4.3c0.2,0,0.3,0,0.4,0c0-1.4,0-2.9,0-4.3C705.4,35.5,705.2,35.5,705.1,35.5z"/>
		<path d="M700.8,35.7c0,1.4,0,2.7,0,4.1c0.1,0,0.2,0,0.3,0c0-1.4,0-2.7,0-4.1C701,35.7,700.9,35.7,700.8,35.7z"/>
		<path d="M699.3,35.6c0,1.4,0,2.8,0,4.2c0.1,0,0.2,0,0.3,0c0-1.4,0-2.8,0-4.2C699.5,35.6,699.4,35.6,699.3,35.6z"/>
		<path d="M698.4,39.9c0-1.4,0-2.8,0-4.2c-0.1,0-0.2,0-0.4,0c0,1.4,0,2.8,0,4.2C698.1,39.9,698.3,39.9,698.4,39.9z"/>
		<path d="M697,39.9c0-1.4,0-2.8,0-4.3c-0.1,0-0.3,0-0.4,0c0,1.4,0,2.8,0,4.3C696.7,39.9,696.8,39.9,697,39.9z"/>
		<path d="M715.5,39.9c0-1.5,0-2.9,0-4.4c-0.1,0-0.3,0-0.4,0c0,1.5,0,2.9,0,4.4C715.2,39.9,715.3,39.9,715.5,39.9z"/>
		<path d="M691.2,39.9c0-1.5,0-2.9,0-4.4c-0.1,0-0.3,0-0.4,0c0,1.5,0,2.9,0,4.4C690.9,39.9,691.1,39.9,691.2,39.9z"/>
		<path d="M689.3,35.5c0,1.5,0,2.9,0,4.4c0.1,0,0.3,0,0.4,0c0-1.5,0-2.9,0-4.4C689.6,35.5,689.5,35.5,689.3,35.5z"/>
		<path d="M680.8,35.5c0,1.5,0,2.9,0,4.4c0.1,0,0.3,0,0.4,0c0-1.5,0-2.9,0-4.4C681.1,35.5,680.9,35.5,680.8,35.5z"/>
		<path d="M679.4,35.5c0,1.5,0,2.9,0,4.4c0.1,0,0.3,0,0.4,0c0-1.5,0-2.9,0-4.4C679.7,35.5,679.5,35.5,679.4,35.5z"/>
		<path d="M723.7,35.6c0,1.4,0,2.8,0,4.2c0.1,0,0.2,0,0.4,0c0-1.4,0-2.8,0-4.2C723.9,35.6,723.8,35.6,723.7,35.6z"/>
		<path d="M724.9,35.5c0,1.5,0,2.9,0,4.4c0.1,0,0.3,0,0.4,0c0-1.5,0-2.9,0-4.4C725.2,35.5,725.1,35.5,724.9,35.5z"/>
		<path d="M674.1,39.9c0-1.5,0-2.9,0-4.4c-0.1,0-0.3,0-0.4,0c0,1.5,0,2.9,0,4.4C673.9,39.9,674,39.9,674.1,39.9z"/>
		<path d="M672.2,35.5c0,1.5,0,2.9,0,4.4c0.1,0,0.3,0,0.4,0c0-1.5,0-2.9,0-4.4C672.5,35.5,672.4,35.5,672.2,35.5z"/>
		<path d="M670.8,35.5c0,1.5,0,2.9,0,4.4c0.1,0,0.3,0,0.4,0c0-1.5,0-2.9,0-4.4C671.1,35.5,671,35.5,670.8,35.5z"/>
		<path d="M749.2,35.5c0,1.5,0,2.9,0,4.4c0.2,0,0.3,0,0.5,0c0.3-1.5,0.3-2.9,0-4.4C749.5,35.5,749.4,35.5,749.2,35.5z"/>
		<path d="M747.8,35.5c0,1.5,0,2.9,0,4.4c0.1,0,0.3,0,0.4,0c0-1.5,0-2.9,0-4.4C748,35.5,747.9,35.5,747.8,35.5z"/>
		<path d="M766.3,35.5c0,1.5,0,2.9,0,4.4c0.1,0,0.3,0,0.4,0c0-1.5,0-2.9,0-4.4C766.6,35.5,766.4,35.5,766.3,35.5z"/>
		<path d="M764.9,35.5c0,1.5,0,2.9,0,4.4c0.1,0,0.3,0,0.4,0c0-1.5,0-2.9,0-4.4C765.2,35.5,765,35.5,764.9,35.5z"/>
		<path d="M742,35.5c0,1.5,0,2.9,0,4.4c0.1,0,0.3,0,0.4,0c0-1.5,0-2.9,0-4.4C742.3,35.5,742.2,35.5,742,35.5z"/>
		<path d="M740.6,35.5c0,1.5,0,2.9,0,4.4c0.1,0,0.3,0,0.4,0c0-1.5,0-2.9,0-4.4C740.9,35.5,740.7,35.5,740.6,35.5z"/>
		<path d="M739.7,39.9c0-1.5,0-2.9,0-4.4c-0.1,0-0.3,0-0.4,0c0,1.5,0,2.9,0,4.4C739.4,39.9,739.5,39.9,739.7,39.9z"/>
		<path d="M655.6,39.9c0-1.5,0-2.9,0-4.4c-0.1,0-0.2,0-0.4,0c0,1.5,0,2.9,0,4.4C655.4,39.9,655.5,39.9,655.6,39.9z"/>
		<path d="M656.6,35.5c0,1.5,0,2.9,0,4.4c0.1,0,0.3,0,0.4,0c0-1.5,0-2.9,0-4.4C656.8,35.5,656.7,35.5,656.6,35.5z"/>
		<path d="M662.8,39.9c0-1.5,0-2.9,0-4.4c-0.2,0-0.3,0-0.5,0c-0.4,1.4-0.2,2.9-0.1,4.4C662.4,39.9,662.6,39.9,662.8,39.9z"/>
		<path d="M664.2,39.9c0-1.5,0-2.9,0-4.4c-0.1,0-0.3,0-0.4,0c0,1.5,0,2.9,0,4.4C663.9,39.9,664,39.9,664.2,39.9z"/>
		<path d="M665.1,35.5c0,1.5,0,2.9,0,4.4c0.1,0,0.3,0,0.4,0c0-1.5,0-2.9,0-4.4C665.3,35.5,665.2,35.5,665.1,35.5z"/>
		<path d="M732.1,35.5c0,1.5,0,2.9,0,4.4c0.1,0,0.3,0,0.4,0c0-1.5,0-2.9,0-4.4C732.3,35.5,732.2,35.5,732.1,35.5z"/>
		<path d="M730.7,35.5c0,1.5,0,2.9,0,4.4c0.1,0,0.3,0,0.4,0c0-1.5,0-2.9,0-4.4C730.9,35.5,730.8,35.5,730.7,35.5z"/>
		<path d="M815.2,33.6c0,5.2,0,10.3,0,15.5c0,0,0.1,0,0.1,0c0-5.2,0-10.3,0-15.5C815.3,33.6,815.2,33.6,815.2,33.6z"/>
		<path d="M855.1,43c0.3,1.9,1.9,2.7,3.7,2.2C857.4,44.3,856.3,43.6,855.1,43z"/>
		<path d="M597.5,53.1c-1.2,1.4-1.3,3.3-0.4,5c0.9,1.7,2.8,2.6,4.9,2.4c1.9-0.2,3.3-1.4,3.8-3.4c-2.8,0-5.5,0-8.6,0
			C597.3,55.8,597.4,54.5,597.5,53.1z"/>
		<path d="M632.2,54.8c-0.4,0-0.9-0.1-1.4-0.1c0.1-0.4,0.2-0.8,0.3-1.3c-1.5,0-2.9,0-4.4,0c0.1,1,0.3,1.9,0.4,2.9
			c1.2-0.5,3,1.1,3.9-1.4C631.2,54.9,631.7,54.8,632.2,54.8z"/>
		<path d="M603.5,53.4c-2-0.8-3.5,0.8-4.9,1.4c0.1,0,0.5,0,1,0.1c0.1,0.4,0.1,0.9,0.2,1.4c0.7,0,1.5,0.2,2.1-0.1
			c0.4-0.2,0.5-0.6,0.7,0.1c0.2-0.2,0.7-0.3,0.7-0.5C603.4,55.1,603.5,54.3,603.5,53.4z"/>
		<path d="M796.1,54.7c0.7,0.1,1.5,0.2,2.3,0.2c0.1,0.4,0.1,0.9,0.2,1.1c1.2,0.1,2.2,0.2,3.4,0.4c0.2-1,0.3-1.9,0.5-2.9
			c-1.5,0-2.9,0-4.3,0c0.1,0.4,0.1,0.8,0.2,1.3C797.6,54.7,796.8,54.7,796.1,54.7C796.1,54.7,796.1,54.7,796.1,54.7z"/>
		<path d="M454,57c-2.8,0-5.5,0-8.4,0c0-1.3,0-2.5,0-4.1c-1.2,1.7-1.2,3.2-0.6,4.7c0.8,2,2.5,3,4.7,3C451.8,60.4,453.3,59.3,454,57z
			"/>
		<path d="M479.6,54.8c-0.2-0.3-0.5-0.8-0.8-1.4c-1.2,0-2.5,0-4.1,0c0.2,1,0.3,1.9,0.5,2.8c1.1,0,2.3,0,3.1,0
			C479,55.6,479.4,55.1,479.6,54.8z"/>
		<path d="M450.3,54.9c0.2,0.6,0.3,1,0.4,1.4c0.1,0,0.3,0,0.4,0.1c0.2-0.9,0.4-1.8,0.7-2.9c-1.5,0-2.9,0-4.3,0c0,0.3,0,0.8,0.1,1.2
			c-0.4,0-0.7,0.1-0.6,0.1c0.3,0.3,0.8,0.9,1.2,1.3C448.8,55.7,449.5,55.3,450.3,54.9z"/>
		<path d="M579.5,56c4.1,0,8.2,0,12.4,0c0-0.5-0.1-1-0.1-1.6c-4,0-8,0-12.2,0C579.5,54.9,579.5,55.5,579.5,56z"/>
		<path class="st1" d="M556.6,40.6c4.4,0,8.9,0,13.3,0c0.6,0,1.2-0.2,1.8-0.3c0-2.7,0-2.6-2.7-2.6c-4.1,0-8.2,0-12.4,0
			C556.6,38.9,556.6,39.7,556.6,40.6z"/>
	</g>
	<path class="st1" d="M474,53.5c0-0.1,0.1-0.3,0.1-0.3c2.5-0.1,5.1-0.2,7.6-0.2c0.2,0,0.5,0.6,0.6,0.9c0.8,2.1,0.1,4.5-1.7,6
		c-1.8,1.5-4.6,1.7-6.3,0.1c-1.4-1.4-2.9-1.6-4.6-1.2c-1.5,0.3-2-0.5-2.7-1.7c0.8-0.1,1.5-0.1,2.4-0.2c-0.6-0.6-1.1-1-1.4-1.2
		c-0.7,0.4-1.8,1.1-1.9,1c-0.7-0.7-1.1-1.6-1.7-2.6c-0.6,0-1.5,0-2.2,0c-0.6,1-1,1.9-1.6,2.6c-0.1,0.1-1.1-0.5-2-1
		c-0.2,0.2-0.7,0.6-1.4,1.2c1,0.1,1.6,0.1,2.4,0.2c-0.5,1.2-1,2-2.5,1.8c-1.7-0.3-3.2-0.3-4.8,1.2c-1.9,1.8-5.2,1.3-6.9-0.7
		c-1.7-1.8-1.9-4.5-0.4-6.3c-0.8,4.4,0.3,6.8,3.4,7.4c2.5,0.5,4.8-0.8,5.5-3.2c-2.8,0-5.5,0-8.7,0c0.2-1.7,0.4-3,0.6-4.2
		c2.3,0,4.5,0,6.6,0c0,0.9,0,1.8,0,2.7c0,0.2,0.4,0.4,0.6,0.6c0.1-0.2,0.4-0.5,0.4-0.7c0.1-0.8,0.1-1.6,0.2-2.8
		c1.2,0.4,2.4,0.9,3.9,1.4c-0.1-0.6-0.1-0.9-0.2-1.2c4,0,8,0,12,0c-0.1,0.3-0.1,0.6-0.2,0.9c1.6,0.7,3-2.3,4.6-0.3
		c-0.3,0.2-0.6,0.4-0.9,0.5c0.1,0.7,0.1,1.3,0.2,2C474.4,56.2,474.7,55.1,474,53.5z M472.7,57c0.8,2.3,2.2,3.4,4.3,3.5
		c2.2,0.1,3.9-0.9,4.7-3c0.6-1.5,0.6-3-0.6-4.7c0,1.6,0,2.8,0,4.1C478.2,57,475.5,57,472.7,57z M447.1,54.8c0.2,0.3,0.7,0.8,1.2,1.4
		c0.8,0,2,0,3.1,0c0.2-1,0.3-1.8,0.5-2.8c-1.6,0-2.9,0-4.1,0C447.5,54,447.2,54.5,447.1,54.8z M476.4,54.9c0.8,0.4,1.5,0.8,2.1,1.1
		c0.4-0.4,0.9-1,1.2-1.3c0.1,0-0.2,0-0.6-0.1c0-0.5,0.1-0.9,0.1-1.2c-1.5,0-2.9,0-4.3,0c0.3,1.1,0.5,2,0.7,2.9c0.1,0,0.3,0,0.4-0.1
		C476.1,55.9,476.2,55.5,476.4,54.9z"/>
	<path class="st1" d="M625.8,53.5c0-0.1,0.1-0.3,0.1-0.3c2.5-0.1,5.1-0.2,7.6-0.2c0.2,0,0.5,0.6,0.6,0.9c0.8,2.1,0.1,4.5-1.7,6
		c-1.8,1.5-4.6,1.7-6.3,0.1c-1.4-1.4-2.9-1.6-4.6-1.2c-1.5,0.3-2-0.5-2.7-1.7c0.8-0.1,1.5-0.1,2.4-0.2c-0.6-0.6-1.1-1-1.4-1.2
		c-0.7,0.4-1.8,1.1-1.9,1c-0.7-0.7-1.1-1.6-1.7-2.6c-0.6,0-1.5,0-2.2,0c-0.6,1-1,1.9-1.6,2.6c-0.1,0.1-1.1-0.5-2-1
		c-0.2,0.2-0.7,0.6-1.4,1.2c1,0.1,1.6,0.1,2.4,0.2c-0.5,1.2-1,2-2.5,1.8c-1.7-0.3-3.2-0.3-4.8,1.2c-1.9,1.8-5.2,1.3-6.9-0.7
		c-1.7-1.8-1.9-4.5-0.4-6.3c-0.8,4.4,0.3,6.8,3.3,7.4c2.5,0.5,4.8-0.8,5.5-3.2c-2.8,0-5.5,0-8.7,0c0.2-1.7,0.4-3,0.6-4.2
		c2.3,0,4.5,0,6.6,0c0,0.9,0,1.8,0,2.7c0,0.2,0.4,0.4,0.6,0.6c0.1-0.2,0.4-0.5,0.4-0.7c0.1-0.8,0.1-1.6,0.2-2.8
		c1.2,0.4,2.4,0.9,3.9,1.4c-0.1-0.6-0.1-0.9-0.2-1.2c4,0,8,0,12,0c-0.1,0.3-0.1,0.6-0.2,0.9c1.6,0.7,3-2.3,4.6-0.3
		c-0.3,0.2-0.6,0.4-0.9,0.5c0.1,0.7,0.1,1.3,0.2,2C626.2,56.1,626.5,55.1,625.8,53.5z M624.5,57c0.8,2.3,2.2,3.4,4.3,3.5
		c2.2,0.1,3.9-0.9,4.7-3c0.6-1.5,0.6-3-0.6-4.7c0,1.6,0,2.8,0,4.1C630,57,627.3,57,624.5,57z M598.8,54.7c0.2,0.3,0.7,0.8,1.2,1.4
		c0.8,0,2,0,3.1,0c0.2-1,0.3-1.8,0.5-2.8c-1.6,0-2.9,0-4.1,0C599.3,53.9,599,54.4,598.8,54.7z M628.2,54.9c0.8,0.4,1.5,0.8,2.1,1.1
		c0.4-0.4,0.9-1,1.2-1.3c0.1,0-0.2,0-0.6-0.1c0-0.5,0.1-0.9,0.1-1.2c-1.5,0-2.9,0-4.3,0c0.3,1.1,0.5,2,0.7,2.9c0.1,0,0.3,0,0.4-0.1
		C627.9,55.9,628,55.5,628.2,54.9z"/>
	<path class="st1" d="M481.7,56c-0.2-0.5-0.3-1-0.5-1.7c-0.7,0-1.5,0-2.4,0c0-0.1,0-0.2,0-0.3c0.8,0,1.6,0,2.6,0c0-0.8,0-1.5,0-2.2
		l-0.1,0.1c0.1,0,0.3,0,0.4,0l-0.1-0.1c0,0.7,0.1,1.3,0.1,2c4.2,0,8.2,0,12.2,0c0-0.7,0-1.4,0-2l-0.1,0.1c0.1,0,0.3,0,0.4,0
		l-0.1-0.1c0,0.6,0,1.2,0,2.1c1.7,0,3.2,0,4.8,0c2.8,0,5.7,0,8.5,0c0.4,0,0.8-0.3,1.4-0.5c0.2,0.1,0.6,0.5,1,0.5
		c6.6,0,13.2,0,19.8,0c0.4,0,0.7-0.6,1.1-0.6c0.3,0,0.7,0.5,1,0.6c1.1,0.1,2.2,0.1,3.2,0.1c9.3-0.1,18.6,0,27.8-0.1
		c0.5,0,0.9-0.4,1.4-0.6c0.1,0,0.2,0,0.2,0.1c0.5,0.2,1,0.6,1.5,0.6c6.9,0,13.8,0,20.7,0.1c0.9,0,1.8,0,2.7,0.3
		c-8.2,0-16.4,0-24.8,0c0,1.1,0,2,0,2.9c-0.1,0-0.2,0-0.2,0c-0.1-0.9-0.1-1.8-0.2-2.7c-7.3,0-14.5,0-21.8,0c0,0.9,0,1.8,0,2.6
		c-0.1,0-0.1,0-0.2,0c0-0.8-0.1-1.6-0.1-2.6c-3.6,0-7.2,0-10.9,0c0,0.9-0.1,1.8-0.1,2.8c-0.1,0-0.1,0-0.2,0c0-0.9,0-1.8,0-2.8
		c-7.3,0-14.5,0-21.9,0c0,0.9-0.1,1.9-0.1,2.8c-0.1,0-0.1,0-0.2,0c0-0.9,0-1.8,0-2.8c-3.7,0-7.2,0-11,0c-0.1,0.9-0.1,1.8-0.2,2.6
		c0,0-0.1,0-0.1,0c0-0.8,0-1.7,0-2.6c-1.1,0-2.1,0-3,0c-0.2,0.5-0.3,1-0.5,1.6l0,0c0-0.5,0-1.1,0-1.6c-4.2,0-8.2,0-12.2,0
		C481.7,55,481.7,55.5,481.7,56C481.6,56,481.7,56,481.7,56z"/>
</g>
</svg>
